G04 #@! TF.GenerationSoftware,KiCad,Pcbnew,5.0.2-bee76a0~70~ubuntu18.04.1*
G04 #@! TF.CreationDate,2019-04-12T14:14:33+02:00*
G04 #@! TF.ProjectId,KiCad_Shield,4b694361-645f-4536-9869-656c642e6b69,rev?*
G04 #@! TF.SameCoordinates,Original*
G04 #@! TF.FileFunction,Soldermask,Top*
G04 #@! TF.FilePolarity,Negative*
%FSLAX46Y46*%
G04 Gerber Fmt 4.6, Leading zero omitted, Abs format (unit mm)*
G04 Created by KiCad (PCBNEW 5.0.2-bee76a0~70~ubuntu18.04.1) date Fr 12 Apr 2019 14:14:33 CEST*
%MOMM*%
%LPD*%
G01*
G04 APERTURE LIST*
%ADD10C,0.100000*%
G04 APERTURE END LIST*
D10*
G36*
X125560712Y-121871088D02*
X125930510Y-122024263D01*
X125930513Y-122024265D01*
X126263325Y-122246643D01*
X126546357Y-122529675D01*
X126730204Y-122804822D01*
X126768737Y-122862490D01*
X126921912Y-123232288D01*
X127000000Y-123624864D01*
X127000000Y-124025136D01*
X126921912Y-124417712D01*
X126768737Y-124787510D01*
X126768735Y-124787513D01*
X126546357Y-125120325D01*
X126263325Y-125403357D01*
X125930513Y-125625735D01*
X125930510Y-125625737D01*
X125560712Y-125778912D01*
X125168136Y-125857000D01*
X124767864Y-125857000D01*
X124375288Y-125778912D01*
X124005490Y-125625737D01*
X124005487Y-125625735D01*
X123672675Y-125403357D01*
X123389643Y-125120325D01*
X123167265Y-124787513D01*
X123167263Y-124787510D01*
X123014088Y-124417712D01*
X122936000Y-124025136D01*
X122936000Y-123624864D01*
X123014088Y-123232288D01*
X123167263Y-122862490D01*
X123205796Y-122804822D01*
X123389643Y-122529675D01*
X123672675Y-122246643D01*
X124005487Y-122024265D01*
X124005490Y-122024263D01*
X124375288Y-121871088D01*
X124767864Y-121793000D01*
X125168136Y-121793000D01*
X125560712Y-121871088D01*
X125560712Y-121871088D01*
G37*
G36*
X139107294Y-122821496D02*
X139227726Y-122858029D01*
X139270087Y-122870879D01*
X139420112Y-122951068D01*
X139551612Y-123058988D01*
X139659532Y-123190488D01*
X139739721Y-123340512D01*
X139740844Y-123344215D01*
X139789104Y-123503305D01*
X139789396Y-123506269D01*
X139801600Y-123630179D01*
X139801600Y-124019820D01*
X139801076Y-124025136D01*
X139789104Y-124146694D01*
X139768877Y-124213373D01*
X139739721Y-124309488D01*
X139659532Y-124459512D01*
X139551612Y-124591012D01*
X139420112Y-124698932D01*
X139270088Y-124779121D01*
X139242433Y-124787510D01*
X139107295Y-124828504D01*
X138994432Y-124839620D01*
X138938001Y-124845178D01*
X138938000Y-124845178D01*
X138768706Y-124828504D01*
X138633568Y-124787510D01*
X138605913Y-124779121D01*
X138455889Y-124698932D01*
X138365946Y-124625117D01*
X138324388Y-124591012D01*
X138216469Y-124459512D01*
X138194127Y-124417713D01*
X138136279Y-124309488D01*
X138123429Y-124267127D01*
X138086896Y-124146695D01*
X138078538Y-124061837D01*
X138074400Y-124019821D01*
X138074400Y-123630180D01*
X138086604Y-123506269D01*
X138086896Y-123503306D01*
X138136278Y-123340517D01*
X138136279Y-123340513D01*
X138216468Y-123190488D01*
X138324388Y-123058988D01*
X138455888Y-122951068D01*
X138605912Y-122870879D01*
X138648273Y-122858029D01*
X138768705Y-122821496D01*
X138881568Y-122810380D01*
X138937999Y-122804822D01*
X138938000Y-122804822D01*
X139107294Y-122821496D01*
X139107294Y-122821496D01*
G37*
G36*
X174667294Y-122821496D02*
X174787726Y-122858029D01*
X174830087Y-122870879D01*
X174980112Y-122951068D01*
X175111612Y-123058988D01*
X175219532Y-123190488D01*
X175299721Y-123340512D01*
X175300844Y-123344215D01*
X175349104Y-123503305D01*
X175349396Y-123506269D01*
X175361600Y-123630179D01*
X175361600Y-124019820D01*
X175361076Y-124025136D01*
X175349104Y-124146694D01*
X175328877Y-124213373D01*
X175299721Y-124309488D01*
X175219532Y-124459512D01*
X175111612Y-124591012D01*
X174980112Y-124698932D01*
X174830088Y-124779121D01*
X174802433Y-124787510D01*
X174667295Y-124828504D01*
X174554432Y-124839620D01*
X174498001Y-124845178D01*
X174498000Y-124845178D01*
X174328706Y-124828504D01*
X174193568Y-124787510D01*
X174165913Y-124779121D01*
X174015889Y-124698932D01*
X173925946Y-124625117D01*
X173884388Y-124591012D01*
X173776469Y-124459512D01*
X173754127Y-124417713D01*
X173696279Y-124309488D01*
X173683429Y-124267127D01*
X173646896Y-124146695D01*
X173638538Y-124061837D01*
X173634400Y-124019821D01*
X173634400Y-123630180D01*
X173646604Y-123506269D01*
X173646896Y-123503306D01*
X173696278Y-123340517D01*
X173696279Y-123340513D01*
X173776468Y-123190488D01*
X173884388Y-123058988D01*
X174015888Y-122951068D01*
X174165912Y-122870879D01*
X174208273Y-122858029D01*
X174328705Y-122821496D01*
X174441568Y-122810380D01*
X174497999Y-122804822D01*
X174498000Y-122804822D01*
X174667294Y-122821496D01*
X174667294Y-122821496D01*
G37*
G36*
X172127294Y-122821496D02*
X172247726Y-122858029D01*
X172290087Y-122870879D01*
X172440112Y-122951068D01*
X172571612Y-123058988D01*
X172679532Y-123190488D01*
X172759721Y-123340512D01*
X172760844Y-123344215D01*
X172809104Y-123503305D01*
X172809396Y-123506269D01*
X172821600Y-123630179D01*
X172821600Y-124019820D01*
X172821076Y-124025136D01*
X172809104Y-124146694D01*
X172788877Y-124213373D01*
X172759721Y-124309488D01*
X172679532Y-124459512D01*
X172571612Y-124591012D01*
X172440112Y-124698932D01*
X172290088Y-124779121D01*
X172262433Y-124787510D01*
X172127295Y-124828504D01*
X172014432Y-124839620D01*
X171958001Y-124845178D01*
X171958000Y-124845178D01*
X171788706Y-124828504D01*
X171653568Y-124787510D01*
X171625913Y-124779121D01*
X171475889Y-124698932D01*
X171385946Y-124625117D01*
X171344388Y-124591012D01*
X171236469Y-124459512D01*
X171214127Y-124417713D01*
X171156279Y-124309488D01*
X171143429Y-124267127D01*
X171106896Y-124146695D01*
X171098538Y-124061837D01*
X171094400Y-124019821D01*
X171094400Y-123630180D01*
X171106604Y-123506269D01*
X171106896Y-123503306D01*
X171156278Y-123340517D01*
X171156279Y-123340513D01*
X171236468Y-123190488D01*
X171344388Y-123058988D01*
X171475888Y-122951068D01*
X171625912Y-122870879D01*
X171668273Y-122858029D01*
X171788705Y-122821496D01*
X171901568Y-122810380D01*
X171957999Y-122804822D01*
X171958000Y-122804822D01*
X172127294Y-122821496D01*
X172127294Y-122821496D01*
G37*
G36*
X169587294Y-122821496D02*
X169707726Y-122858029D01*
X169750087Y-122870879D01*
X169900112Y-122951068D01*
X170031612Y-123058988D01*
X170139532Y-123190488D01*
X170219721Y-123340512D01*
X170220844Y-123344215D01*
X170269104Y-123503305D01*
X170269396Y-123506269D01*
X170281600Y-123630179D01*
X170281600Y-124019820D01*
X170281076Y-124025136D01*
X170269104Y-124146694D01*
X170248877Y-124213373D01*
X170219721Y-124309488D01*
X170139532Y-124459512D01*
X170031612Y-124591012D01*
X169900112Y-124698932D01*
X169750088Y-124779121D01*
X169722433Y-124787510D01*
X169587295Y-124828504D01*
X169474432Y-124839620D01*
X169418001Y-124845178D01*
X169418000Y-124845178D01*
X169248706Y-124828504D01*
X169113568Y-124787510D01*
X169085913Y-124779121D01*
X168935889Y-124698932D01*
X168845946Y-124625117D01*
X168804388Y-124591012D01*
X168696469Y-124459512D01*
X168674127Y-124417713D01*
X168616279Y-124309488D01*
X168603429Y-124267127D01*
X168566896Y-124146695D01*
X168558538Y-124061837D01*
X168554400Y-124019821D01*
X168554400Y-123630180D01*
X168566604Y-123506269D01*
X168566896Y-123503306D01*
X168616278Y-123340517D01*
X168616279Y-123340513D01*
X168696468Y-123190488D01*
X168804388Y-123058988D01*
X168935888Y-122951068D01*
X169085912Y-122870879D01*
X169128273Y-122858029D01*
X169248705Y-122821496D01*
X169361568Y-122810380D01*
X169417999Y-122804822D01*
X169418000Y-122804822D01*
X169587294Y-122821496D01*
X169587294Y-122821496D01*
G37*
G36*
X167047294Y-122821496D02*
X167167726Y-122858029D01*
X167210087Y-122870879D01*
X167360112Y-122951068D01*
X167491612Y-123058988D01*
X167599532Y-123190488D01*
X167679721Y-123340512D01*
X167680844Y-123344215D01*
X167729104Y-123503305D01*
X167729396Y-123506269D01*
X167741600Y-123630179D01*
X167741600Y-124019820D01*
X167741076Y-124025136D01*
X167729104Y-124146694D01*
X167708877Y-124213373D01*
X167679721Y-124309488D01*
X167599532Y-124459512D01*
X167491612Y-124591012D01*
X167360112Y-124698932D01*
X167210088Y-124779121D01*
X167182433Y-124787510D01*
X167047295Y-124828504D01*
X166934432Y-124839620D01*
X166878001Y-124845178D01*
X166878000Y-124845178D01*
X166708706Y-124828504D01*
X166573568Y-124787510D01*
X166545913Y-124779121D01*
X166395889Y-124698932D01*
X166305946Y-124625117D01*
X166264388Y-124591012D01*
X166156469Y-124459512D01*
X166134127Y-124417713D01*
X166076279Y-124309488D01*
X166063429Y-124267127D01*
X166026896Y-124146695D01*
X166018538Y-124061837D01*
X166014400Y-124019821D01*
X166014400Y-123630180D01*
X166026604Y-123506269D01*
X166026896Y-123503306D01*
X166076278Y-123340517D01*
X166076279Y-123340513D01*
X166156468Y-123190488D01*
X166264388Y-123058988D01*
X166395888Y-122951068D01*
X166545912Y-122870879D01*
X166588273Y-122858029D01*
X166708705Y-122821496D01*
X166821568Y-122810380D01*
X166877999Y-122804822D01*
X166878000Y-122804822D01*
X167047294Y-122821496D01*
X167047294Y-122821496D01*
G37*
G36*
X164507294Y-122821496D02*
X164627726Y-122858029D01*
X164670087Y-122870879D01*
X164820112Y-122951068D01*
X164951612Y-123058988D01*
X165059532Y-123190488D01*
X165139721Y-123340512D01*
X165140844Y-123344215D01*
X165189104Y-123503305D01*
X165189396Y-123506269D01*
X165201600Y-123630179D01*
X165201600Y-124019820D01*
X165201076Y-124025136D01*
X165189104Y-124146694D01*
X165168877Y-124213373D01*
X165139721Y-124309488D01*
X165059532Y-124459512D01*
X164951612Y-124591012D01*
X164820112Y-124698932D01*
X164670088Y-124779121D01*
X164642433Y-124787510D01*
X164507295Y-124828504D01*
X164394432Y-124839620D01*
X164338001Y-124845178D01*
X164338000Y-124845178D01*
X164168706Y-124828504D01*
X164033568Y-124787510D01*
X164005913Y-124779121D01*
X163855889Y-124698932D01*
X163765946Y-124625117D01*
X163724388Y-124591012D01*
X163616469Y-124459512D01*
X163594127Y-124417713D01*
X163536279Y-124309488D01*
X163523429Y-124267127D01*
X163486896Y-124146695D01*
X163478538Y-124061837D01*
X163474400Y-124019821D01*
X163474400Y-123630180D01*
X163486604Y-123506269D01*
X163486896Y-123503306D01*
X163536278Y-123340517D01*
X163536279Y-123340513D01*
X163616468Y-123190488D01*
X163724388Y-123058988D01*
X163855888Y-122951068D01*
X164005912Y-122870879D01*
X164048273Y-122858029D01*
X164168705Y-122821496D01*
X164281568Y-122810380D01*
X164337999Y-122804822D01*
X164338000Y-122804822D01*
X164507294Y-122821496D01*
X164507294Y-122821496D01*
G37*
G36*
X161967294Y-122821496D02*
X162087726Y-122858029D01*
X162130087Y-122870879D01*
X162280112Y-122951068D01*
X162411612Y-123058988D01*
X162519532Y-123190488D01*
X162599721Y-123340512D01*
X162600844Y-123344215D01*
X162649104Y-123503305D01*
X162649396Y-123506269D01*
X162661600Y-123630179D01*
X162661600Y-124019820D01*
X162661076Y-124025136D01*
X162649104Y-124146694D01*
X162628877Y-124213373D01*
X162599721Y-124309488D01*
X162519532Y-124459512D01*
X162411612Y-124591012D01*
X162280112Y-124698932D01*
X162130088Y-124779121D01*
X162102433Y-124787510D01*
X161967295Y-124828504D01*
X161854432Y-124839620D01*
X161798001Y-124845178D01*
X161798000Y-124845178D01*
X161628706Y-124828504D01*
X161493568Y-124787510D01*
X161465913Y-124779121D01*
X161315889Y-124698932D01*
X161225946Y-124625117D01*
X161184388Y-124591012D01*
X161076469Y-124459512D01*
X161054127Y-124417713D01*
X160996279Y-124309488D01*
X160983429Y-124267127D01*
X160946896Y-124146695D01*
X160938538Y-124061837D01*
X160934400Y-124019821D01*
X160934400Y-123630180D01*
X160946604Y-123506269D01*
X160946896Y-123503306D01*
X160996278Y-123340517D01*
X160996279Y-123340513D01*
X161076468Y-123190488D01*
X161184388Y-123058988D01*
X161315888Y-122951068D01*
X161465912Y-122870879D01*
X161508273Y-122858029D01*
X161628705Y-122821496D01*
X161741568Y-122810380D01*
X161797999Y-122804822D01*
X161798000Y-122804822D01*
X161967294Y-122821496D01*
X161967294Y-122821496D01*
G37*
G36*
X154347294Y-122821496D02*
X154467726Y-122858029D01*
X154510087Y-122870879D01*
X154660112Y-122951068D01*
X154791612Y-123058988D01*
X154899532Y-123190488D01*
X154979721Y-123340512D01*
X154980844Y-123344215D01*
X155029104Y-123503305D01*
X155029396Y-123506269D01*
X155041600Y-123630179D01*
X155041600Y-124019820D01*
X155041076Y-124025136D01*
X155029104Y-124146694D01*
X155008877Y-124213373D01*
X154979721Y-124309488D01*
X154899532Y-124459512D01*
X154791612Y-124591012D01*
X154660112Y-124698932D01*
X154510088Y-124779121D01*
X154482433Y-124787510D01*
X154347295Y-124828504D01*
X154234432Y-124839620D01*
X154178001Y-124845178D01*
X154178000Y-124845178D01*
X154008706Y-124828504D01*
X153873568Y-124787510D01*
X153845913Y-124779121D01*
X153695889Y-124698932D01*
X153605946Y-124625117D01*
X153564388Y-124591012D01*
X153456469Y-124459512D01*
X153434127Y-124417713D01*
X153376279Y-124309488D01*
X153363429Y-124267127D01*
X153326896Y-124146695D01*
X153318538Y-124061837D01*
X153314400Y-124019821D01*
X153314400Y-123630180D01*
X153326604Y-123506269D01*
X153326896Y-123503306D01*
X153376278Y-123340517D01*
X153376279Y-123340513D01*
X153456468Y-123190488D01*
X153564388Y-123058988D01*
X153695888Y-122951068D01*
X153845912Y-122870879D01*
X153888273Y-122858029D01*
X154008705Y-122821496D01*
X154121568Y-122810380D01*
X154177999Y-122804822D01*
X154178000Y-122804822D01*
X154347294Y-122821496D01*
X154347294Y-122821496D01*
G37*
G36*
X156887294Y-122821496D02*
X157007726Y-122858029D01*
X157050087Y-122870879D01*
X157200112Y-122951068D01*
X157331612Y-123058988D01*
X157439532Y-123190488D01*
X157519721Y-123340512D01*
X157520844Y-123344215D01*
X157569104Y-123503305D01*
X157569396Y-123506269D01*
X157581600Y-123630179D01*
X157581600Y-124019820D01*
X157581076Y-124025136D01*
X157569104Y-124146694D01*
X157548877Y-124213373D01*
X157519721Y-124309488D01*
X157439532Y-124459512D01*
X157331612Y-124591012D01*
X157200112Y-124698932D01*
X157050088Y-124779121D01*
X157022433Y-124787510D01*
X156887295Y-124828504D01*
X156774432Y-124839620D01*
X156718001Y-124845178D01*
X156718000Y-124845178D01*
X156548706Y-124828504D01*
X156413568Y-124787510D01*
X156385913Y-124779121D01*
X156235889Y-124698932D01*
X156145946Y-124625117D01*
X156104388Y-124591012D01*
X155996469Y-124459512D01*
X155974127Y-124417713D01*
X155916279Y-124309488D01*
X155903429Y-124267127D01*
X155866896Y-124146695D01*
X155858538Y-124061837D01*
X155854400Y-124019821D01*
X155854400Y-123630180D01*
X155866604Y-123506269D01*
X155866896Y-123503306D01*
X155916278Y-123340517D01*
X155916279Y-123340513D01*
X155996468Y-123190488D01*
X156104388Y-123058988D01*
X156235888Y-122951068D01*
X156385912Y-122870879D01*
X156428273Y-122858029D01*
X156548705Y-122821496D01*
X156661568Y-122810380D01*
X156717999Y-122804822D01*
X156718000Y-122804822D01*
X156887294Y-122821496D01*
X156887294Y-122821496D01*
G37*
G36*
X141647294Y-122821496D02*
X141767726Y-122858029D01*
X141810087Y-122870879D01*
X141960112Y-122951068D01*
X142091612Y-123058988D01*
X142199532Y-123190488D01*
X142279721Y-123340512D01*
X142280844Y-123344215D01*
X142329104Y-123503305D01*
X142329396Y-123506269D01*
X142341600Y-123630179D01*
X142341600Y-124019820D01*
X142341076Y-124025136D01*
X142329104Y-124146694D01*
X142308877Y-124213373D01*
X142279721Y-124309488D01*
X142199532Y-124459512D01*
X142091612Y-124591012D01*
X141960112Y-124698932D01*
X141810088Y-124779121D01*
X141782433Y-124787510D01*
X141647295Y-124828504D01*
X141534432Y-124839620D01*
X141478001Y-124845178D01*
X141478000Y-124845178D01*
X141308706Y-124828504D01*
X141173568Y-124787510D01*
X141145913Y-124779121D01*
X140995889Y-124698932D01*
X140905946Y-124625117D01*
X140864388Y-124591012D01*
X140756469Y-124459512D01*
X140734127Y-124417713D01*
X140676279Y-124309488D01*
X140663429Y-124267127D01*
X140626896Y-124146695D01*
X140618538Y-124061837D01*
X140614400Y-124019821D01*
X140614400Y-123630180D01*
X140626604Y-123506269D01*
X140626896Y-123503306D01*
X140676278Y-123340517D01*
X140676279Y-123340513D01*
X140756468Y-123190488D01*
X140864388Y-123058988D01*
X140995888Y-122951068D01*
X141145912Y-122870879D01*
X141188273Y-122858029D01*
X141308705Y-122821496D01*
X141421568Y-122810380D01*
X141477999Y-122804822D01*
X141478000Y-122804822D01*
X141647294Y-122821496D01*
X141647294Y-122821496D01*
G37*
G36*
X144187294Y-122821496D02*
X144307726Y-122858029D01*
X144350087Y-122870879D01*
X144500112Y-122951068D01*
X144631612Y-123058988D01*
X144739532Y-123190488D01*
X144819721Y-123340512D01*
X144820844Y-123344215D01*
X144869104Y-123503305D01*
X144869396Y-123506269D01*
X144881600Y-123630179D01*
X144881600Y-124019820D01*
X144881076Y-124025136D01*
X144869104Y-124146694D01*
X144848877Y-124213373D01*
X144819721Y-124309488D01*
X144739532Y-124459512D01*
X144631612Y-124591012D01*
X144500112Y-124698932D01*
X144350088Y-124779121D01*
X144322433Y-124787510D01*
X144187295Y-124828504D01*
X144074432Y-124839620D01*
X144018001Y-124845178D01*
X144018000Y-124845178D01*
X143848706Y-124828504D01*
X143713568Y-124787510D01*
X143685913Y-124779121D01*
X143535889Y-124698932D01*
X143445946Y-124625117D01*
X143404388Y-124591012D01*
X143296469Y-124459512D01*
X143274127Y-124417713D01*
X143216279Y-124309488D01*
X143203429Y-124267127D01*
X143166896Y-124146695D01*
X143158538Y-124061837D01*
X143154400Y-124019821D01*
X143154400Y-123630180D01*
X143166604Y-123506269D01*
X143166896Y-123503306D01*
X143216278Y-123340517D01*
X143216279Y-123340513D01*
X143296468Y-123190488D01*
X143404388Y-123058988D01*
X143535888Y-122951068D01*
X143685912Y-122870879D01*
X143728273Y-122858029D01*
X143848705Y-122821496D01*
X143961568Y-122810380D01*
X144017999Y-122804822D01*
X144018000Y-122804822D01*
X144187294Y-122821496D01*
X144187294Y-122821496D01*
G37*
G36*
X149267294Y-122821496D02*
X149387726Y-122858029D01*
X149430087Y-122870879D01*
X149580112Y-122951068D01*
X149711612Y-123058988D01*
X149819532Y-123190488D01*
X149899721Y-123340512D01*
X149900844Y-123344215D01*
X149949104Y-123503305D01*
X149949396Y-123506269D01*
X149961600Y-123630179D01*
X149961600Y-124019820D01*
X149961076Y-124025136D01*
X149949104Y-124146694D01*
X149928877Y-124213373D01*
X149899721Y-124309488D01*
X149819532Y-124459512D01*
X149711612Y-124591012D01*
X149580112Y-124698932D01*
X149430088Y-124779121D01*
X149402433Y-124787510D01*
X149267295Y-124828504D01*
X149154432Y-124839620D01*
X149098001Y-124845178D01*
X149098000Y-124845178D01*
X148928706Y-124828504D01*
X148793568Y-124787510D01*
X148765913Y-124779121D01*
X148615889Y-124698932D01*
X148525946Y-124625117D01*
X148484388Y-124591012D01*
X148376469Y-124459512D01*
X148354127Y-124417713D01*
X148296279Y-124309488D01*
X148283429Y-124267127D01*
X148246896Y-124146695D01*
X148238538Y-124061837D01*
X148234400Y-124019821D01*
X148234400Y-123630180D01*
X148246604Y-123506269D01*
X148246896Y-123503306D01*
X148296278Y-123340517D01*
X148296279Y-123340513D01*
X148376468Y-123190488D01*
X148484388Y-123058988D01*
X148615888Y-122951068D01*
X148765912Y-122870879D01*
X148808273Y-122858029D01*
X148928705Y-122821496D01*
X149041568Y-122810380D01*
X149097999Y-122804822D01*
X149098000Y-122804822D01*
X149267294Y-122821496D01*
X149267294Y-122821496D01*
G37*
G36*
X146727294Y-122821496D02*
X146847726Y-122858029D01*
X146890087Y-122870879D01*
X147040112Y-122951068D01*
X147171612Y-123058988D01*
X147279532Y-123190488D01*
X147359721Y-123340512D01*
X147360844Y-123344215D01*
X147409104Y-123503305D01*
X147409396Y-123506269D01*
X147421600Y-123630179D01*
X147421600Y-124019820D01*
X147421076Y-124025136D01*
X147409104Y-124146694D01*
X147388877Y-124213373D01*
X147359721Y-124309488D01*
X147279532Y-124459512D01*
X147171612Y-124591012D01*
X147040112Y-124698932D01*
X146890088Y-124779121D01*
X146862433Y-124787510D01*
X146727295Y-124828504D01*
X146614432Y-124839620D01*
X146558001Y-124845178D01*
X146558000Y-124845178D01*
X146388706Y-124828504D01*
X146253568Y-124787510D01*
X146225913Y-124779121D01*
X146075889Y-124698932D01*
X145985946Y-124625117D01*
X145944388Y-124591012D01*
X145836469Y-124459512D01*
X145814127Y-124417713D01*
X145756279Y-124309488D01*
X145743429Y-124267127D01*
X145706896Y-124146695D01*
X145698538Y-124061837D01*
X145694400Y-124019821D01*
X145694400Y-123630180D01*
X145706604Y-123506269D01*
X145706896Y-123503306D01*
X145756278Y-123340517D01*
X145756279Y-123340513D01*
X145836468Y-123190488D01*
X145944388Y-123058988D01*
X146075888Y-122951068D01*
X146225912Y-122870879D01*
X146268273Y-122858029D01*
X146388705Y-122821496D01*
X146501568Y-122810380D01*
X146557999Y-122804822D01*
X146558000Y-122804822D01*
X146727294Y-122821496D01*
X146727294Y-122821496D01*
G37*
G36*
X151807294Y-122821496D02*
X151927726Y-122858029D01*
X151970087Y-122870879D01*
X152120112Y-122951068D01*
X152251612Y-123058988D01*
X152359532Y-123190488D01*
X152439721Y-123340512D01*
X152440844Y-123344215D01*
X152489104Y-123503305D01*
X152489396Y-123506269D01*
X152501600Y-123630179D01*
X152501600Y-124019820D01*
X152501076Y-124025136D01*
X152489104Y-124146694D01*
X152468877Y-124213373D01*
X152439721Y-124309488D01*
X152359532Y-124459512D01*
X152251612Y-124591012D01*
X152120112Y-124698932D01*
X151970088Y-124779121D01*
X151942433Y-124787510D01*
X151807295Y-124828504D01*
X151694432Y-124839620D01*
X151638001Y-124845178D01*
X151638000Y-124845178D01*
X151468706Y-124828504D01*
X151333568Y-124787510D01*
X151305913Y-124779121D01*
X151155889Y-124698932D01*
X151065946Y-124625117D01*
X151024388Y-124591012D01*
X150916469Y-124459512D01*
X150894127Y-124417713D01*
X150836279Y-124309488D01*
X150823429Y-124267127D01*
X150786896Y-124146695D01*
X150778538Y-124061837D01*
X150774400Y-124019821D01*
X150774400Y-123630180D01*
X150786604Y-123506269D01*
X150786896Y-123503306D01*
X150836278Y-123340517D01*
X150836279Y-123340513D01*
X150916468Y-123190488D01*
X151024388Y-123058988D01*
X151155888Y-122951068D01*
X151305912Y-122870879D01*
X151348273Y-122858029D01*
X151468705Y-122821496D01*
X151581568Y-122810380D01*
X151637999Y-122804822D01*
X151638000Y-122804822D01*
X151807294Y-122821496D01*
X151807294Y-122821496D01*
G37*
G36*
X113683845Y-123344215D02*
X113774839Y-123381906D01*
X113855640Y-123435896D01*
X113856734Y-123436627D01*
X113926373Y-123506266D01*
X113981095Y-123588163D01*
X114018785Y-123679155D01*
X114038000Y-123775755D01*
X114038000Y-123874245D01*
X114018785Y-123970845D01*
X113981095Y-124061837D01*
X113926373Y-124143734D01*
X113856734Y-124213373D01*
X113856731Y-124213375D01*
X113774839Y-124268094D01*
X113683845Y-124305785D01*
X113587246Y-124325000D01*
X113488754Y-124325000D01*
X113392155Y-124305785D01*
X113301161Y-124268094D01*
X113219269Y-124213375D01*
X113219266Y-124213373D01*
X113149627Y-124143734D01*
X113094905Y-124061837D01*
X113057215Y-123970845D01*
X113038000Y-123874245D01*
X113038000Y-123775755D01*
X113057215Y-123679155D01*
X113094905Y-123588163D01*
X113149627Y-123506266D01*
X113219266Y-123436627D01*
X113220360Y-123435896D01*
X113301161Y-123381906D01*
X113392155Y-123344215D01*
X113488754Y-123325000D01*
X113587246Y-123325000D01*
X113683845Y-123344215D01*
X113683845Y-123344215D01*
G37*
G36*
X138017116Y-120368595D02*
X138046313Y-120377452D01*
X138073218Y-120391833D01*
X138096808Y-120411192D01*
X138116167Y-120434782D01*
X138130548Y-120461687D01*
X138139405Y-120490884D01*
X138143000Y-120527390D01*
X138143000Y-121077610D01*
X138139405Y-121114116D01*
X138130548Y-121143313D01*
X138116167Y-121170218D01*
X138096808Y-121193808D01*
X138073218Y-121213167D01*
X138046313Y-121227548D01*
X138017116Y-121236405D01*
X137980610Y-121240000D01*
X137355390Y-121240000D01*
X137318884Y-121236405D01*
X137289687Y-121227548D01*
X137262782Y-121213167D01*
X137239192Y-121193808D01*
X137219833Y-121170218D01*
X137205452Y-121143313D01*
X137196595Y-121114116D01*
X137193000Y-121077610D01*
X137193000Y-120527390D01*
X137196595Y-120490884D01*
X137205452Y-120461687D01*
X137219833Y-120434782D01*
X137239192Y-120411192D01*
X137262782Y-120391833D01*
X137289687Y-120377452D01*
X137318884Y-120368595D01*
X137355390Y-120365000D01*
X137980610Y-120365000D01*
X138017116Y-120368595D01*
X138017116Y-120368595D01*
G37*
G36*
X177630712Y-116791088D02*
X178000510Y-116944263D01*
X178000513Y-116944265D01*
X178333325Y-117166643D01*
X178616357Y-117449675D01*
X178838735Y-117782487D01*
X178838737Y-117782490D01*
X178991912Y-118152288D01*
X179070000Y-118544864D01*
X179070000Y-118945136D01*
X178991912Y-119337712D01*
X178838737Y-119707510D01*
X178838735Y-119707513D01*
X178616357Y-120040325D01*
X178333325Y-120323357D01*
X178125503Y-120462219D01*
X178000510Y-120545737D01*
X177630712Y-120698912D01*
X177238136Y-120777000D01*
X176837864Y-120777000D01*
X176445288Y-120698912D01*
X176075490Y-120545737D01*
X175950497Y-120462219D01*
X175742675Y-120323357D01*
X175459643Y-120040325D01*
X175237265Y-119707513D01*
X175237263Y-119707510D01*
X175084088Y-119337712D01*
X175006000Y-118945136D01*
X175006000Y-118544864D01*
X175084088Y-118152288D01*
X175237263Y-117782490D01*
X175237265Y-117782487D01*
X175459643Y-117449675D01*
X175742675Y-117166643D01*
X176075487Y-116944265D01*
X176075490Y-116944263D01*
X176445288Y-116791088D01*
X176837864Y-116713000D01*
X177238136Y-116713000D01*
X177630712Y-116791088D01*
X177630712Y-116791088D01*
G37*
G36*
X170812464Y-119529962D02*
X170833845Y-119534215D01*
X170914881Y-119567781D01*
X170924839Y-119571906D01*
X170968276Y-119600930D01*
X171006734Y-119626627D01*
X171076373Y-119696266D01*
X171131095Y-119778163D01*
X171168785Y-119869155D01*
X171188000Y-119965755D01*
X171188000Y-120064245D01*
X171168785Y-120160845D01*
X171131095Y-120251837D01*
X171076373Y-120333734D01*
X171006734Y-120403373D01*
X171006731Y-120403375D01*
X170924839Y-120458094D01*
X170924838Y-120458095D01*
X170924837Y-120458095D01*
X170845677Y-120490884D01*
X170833845Y-120495785D01*
X170737246Y-120515000D01*
X170638754Y-120515000D01*
X170542155Y-120495785D01*
X170530323Y-120490884D01*
X170451163Y-120458095D01*
X170451162Y-120458095D01*
X170451161Y-120458094D01*
X170369269Y-120403375D01*
X170369266Y-120403373D01*
X170299627Y-120333734D01*
X170244905Y-120251837D01*
X170207215Y-120160845D01*
X170188000Y-120064245D01*
X170188000Y-119965755D01*
X170207215Y-119869155D01*
X170244905Y-119778163D01*
X170299627Y-119696266D01*
X170369266Y-119626627D01*
X170407724Y-119600930D01*
X170451161Y-119571906D01*
X170461120Y-119567781D01*
X170542155Y-119534215D01*
X170563536Y-119529962D01*
X170638754Y-119515000D01*
X170737246Y-119515000D01*
X170812464Y-119529962D01*
X170812464Y-119529962D01*
G37*
G36*
X138017116Y-118793595D02*
X138046313Y-118802452D01*
X138073218Y-118816833D01*
X138096808Y-118836192D01*
X138116167Y-118859782D01*
X138130548Y-118886687D01*
X138139405Y-118915884D01*
X138143000Y-118952390D01*
X138143000Y-119502610D01*
X138139405Y-119539116D01*
X138130548Y-119568313D01*
X138116167Y-119595218D01*
X138096808Y-119618808D01*
X138073218Y-119638167D01*
X138046313Y-119652548D01*
X138017116Y-119661405D01*
X137980610Y-119665000D01*
X137355390Y-119665000D01*
X137318884Y-119661405D01*
X137289687Y-119652548D01*
X137262782Y-119638167D01*
X137239192Y-119618808D01*
X137219833Y-119595218D01*
X137205452Y-119568313D01*
X137196595Y-119539116D01*
X137193000Y-119502610D01*
X137193000Y-118952390D01*
X137196595Y-118915884D01*
X137205452Y-118886687D01*
X137219833Y-118859782D01*
X137239192Y-118836192D01*
X137262782Y-118816833D01*
X137289687Y-118802452D01*
X137318884Y-118793595D01*
X137355390Y-118790000D01*
X137980610Y-118790000D01*
X138017116Y-118793595D01*
X138017116Y-118793595D01*
G37*
G36*
X135528000Y-118925000D02*
X134728000Y-118925000D01*
X134728000Y-118025000D01*
X135528000Y-118025000D01*
X135528000Y-118925000D01*
X135528000Y-118925000D01*
G37*
G36*
X138017116Y-116558595D02*
X138046313Y-116567452D01*
X138073218Y-116581833D01*
X138096808Y-116601192D01*
X138116167Y-116624782D01*
X138130548Y-116651687D01*
X138139405Y-116680884D01*
X138143000Y-116717390D01*
X138143000Y-117267610D01*
X138139405Y-117304116D01*
X138130548Y-117333313D01*
X138116167Y-117360218D01*
X138096808Y-117383808D01*
X138073218Y-117403167D01*
X138046313Y-117417548D01*
X138017116Y-117426405D01*
X137980610Y-117430000D01*
X137355390Y-117430000D01*
X137318884Y-117426405D01*
X137289687Y-117417548D01*
X137262782Y-117403167D01*
X137239192Y-117383808D01*
X137219833Y-117360218D01*
X137205452Y-117333313D01*
X137196595Y-117304116D01*
X137193000Y-117267610D01*
X137193000Y-116717390D01*
X137196595Y-116680884D01*
X137205452Y-116651687D01*
X137219833Y-116624782D01*
X137239192Y-116601192D01*
X137262782Y-116581833D01*
X137289687Y-116567452D01*
X137318884Y-116558595D01*
X137355390Y-116555000D01*
X137980610Y-116555000D01*
X138017116Y-116558595D01*
X138017116Y-116558595D01*
G37*
G36*
X136478000Y-116925000D02*
X135678000Y-116925000D01*
X135678000Y-116025000D01*
X136478000Y-116025000D01*
X136478000Y-116925000D01*
X136478000Y-116925000D01*
G37*
G36*
X134578000Y-116925000D02*
X133778000Y-116925000D01*
X133778000Y-116025000D01*
X134578000Y-116025000D01*
X134578000Y-116925000D01*
X134578000Y-116925000D01*
G37*
G36*
X129178000Y-116385000D02*
X128378000Y-116385000D01*
X128378000Y-115485000D01*
X129178000Y-115485000D01*
X129178000Y-116385000D01*
X129178000Y-116385000D01*
G37*
G36*
X138017116Y-114983595D02*
X138046313Y-114992452D01*
X138073218Y-115006833D01*
X138096808Y-115026192D01*
X138116167Y-115049782D01*
X138130548Y-115076687D01*
X138139405Y-115105884D01*
X138143000Y-115142390D01*
X138143000Y-115692610D01*
X138139405Y-115729116D01*
X138130548Y-115758313D01*
X138116167Y-115785218D01*
X138096808Y-115808808D01*
X138073218Y-115828167D01*
X138046313Y-115842548D01*
X138017116Y-115851405D01*
X137980610Y-115855000D01*
X137355390Y-115855000D01*
X137318884Y-115851405D01*
X137289687Y-115842548D01*
X137262782Y-115828167D01*
X137239192Y-115808808D01*
X137219833Y-115785218D01*
X137205452Y-115758313D01*
X137196595Y-115729116D01*
X137193000Y-115692610D01*
X137193000Y-115142390D01*
X137196595Y-115105884D01*
X137205452Y-115076687D01*
X137219833Y-115049782D01*
X137239192Y-115026192D01*
X137262782Y-115006833D01*
X137289687Y-114992452D01*
X137318884Y-114983595D01*
X137355390Y-114980000D01*
X137980610Y-114980000D01*
X138017116Y-114983595D01*
X138017116Y-114983595D01*
G37*
G36*
X131667116Y-114018595D02*
X131696313Y-114027452D01*
X131723218Y-114041833D01*
X131746808Y-114061192D01*
X131766167Y-114084782D01*
X131780548Y-114111687D01*
X131789405Y-114140884D01*
X131793000Y-114177390D01*
X131793000Y-114727610D01*
X131789405Y-114764116D01*
X131780548Y-114793313D01*
X131766167Y-114820218D01*
X131746808Y-114843808D01*
X131723218Y-114863167D01*
X131696313Y-114877548D01*
X131667116Y-114886405D01*
X131630610Y-114890000D01*
X131005390Y-114890000D01*
X130968884Y-114886405D01*
X130939687Y-114877548D01*
X130912782Y-114863167D01*
X130889192Y-114843808D01*
X130869833Y-114820218D01*
X130855452Y-114793313D01*
X130846595Y-114764116D01*
X130843000Y-114727610D01*
X130843000Y-114177390D01*
X130846595Y-114140884D01*
X130855452Y-114111687D01*
X130869833Y-114084782D01*
X130889192Y-114061192D01*
X130912782Y-114041833D01*
X130939687Y-114027452D01*
X130968884Y-114018595D01*
X131005390Y-114015000D01*
X131630610Y-114015000D01*
X131667116Y-114018595D01*
X131667116Y-114018595D01*
G37*
G36*
X171037116Y-114018595D02*
X171066313Y-114027452D01*
X171093218Y-114041833D01*
X171116808Y-114061192D01*
X171136167Y-114084782D01*
X171150548Y-114111687D01*
X171159405Y-114140884D01*
X171163000Y-114177390D01*
X171163000Y-114727610D01*
X171159405Y-114764116D01*
X171150548Y-114793313D01*
X171136167Y-114820218D01*
X171116808Y-114843808D01*
X171093218Y-114863167D01*
X171066313Y-114877548D01*
X171037116Y-114886405D01*
X171000610Y-114890000D01*
X170375390Y-114890000D01*
X170338884Y-114886405D01*
X170309687Y-114877548D01*
X170282782Y-114863167D01*
X170259192Y-114843808D01*
X170239833Y-114820218D01*
X170225452Y-114793313D01*
X170216595Y-114764116D01*
X170213000Y-114727610D01*
X170213000Y-114177390D01*
X170216595Y-114140884D01*
X170225452Y-114111687D01*
X170239833Y-114084782D01*
X170259192Y-114061192D01*
X170282782Y-114041833D01*
X170309687Y-114027452D01*
X170338884Y-114018595D01*
X170375390Y-114015000D01*
X171000610Y-114015000D01*
X171037116Y-114018595D01*
X171037116Y-114018595D01*
G37*
G36*
X168497116Y-114018595D02*
X168526313Y-114027452D01*
X168553218Y-114041833D01*
X168576808Y-114061192D01*
X168596167Y-114084782D01*
X168610548Y-114111687D01*
X168619405Y-114140884D01*
X168623000Y-114177390D01*
X168623000Y-114727610D01*
X168619405Y-114764116D01*
X168610548Y-114793313D01*
X168596167Y-114820218D01*
X168576808Y-114843808D01*
X168553218Y-114863167D01*
X168526313Y-114877548D01*
X168497116Y-114886405D01*
X168460610Y-114890000D01*
X167835390Y-114890000D01*
X167798884Y-114886405D01*
X167769687Y-114877548D01*
X167742782Y-114863167D01*
X167719192Y-114843808D01*
X167699833Y-114820218D01*
X167685452Y-114793313D01*
X167676595Y-114764116D01*
X167673000Y-114727610D01*
X167673000Y-114177390D01*
X167676595Y-114140884D01*
X167685452Y-114111687D01*
X167699833Y-114084782D01*
X167719192Y-114061192D01*
X167742782Y-114041833D01*
X167769687Y-114027452D01*
X167798884Y-114018595D01*
X167835390Y-114015000D01*
X168460610Y-114015000D01*
X168497116Y-114018595D01*
X168497116Y-114018595D01*
G37*
G36*
X134207116Y-114018595D02*
X134236313Y-114027452D01*
X134263218Y-114041833D01*
X134286808Y-114061192D01*
X134306167Y-114084782D01*
X134320548Y-114111687D01*
X134329405Y-114140884D01*
X134333000Y-114177390D01*
X134333000Y-114727610D01*
X134329405Y-114764116D01*
X134320548Y-114793313D01*
X134306167Y-114820218D01*
X134286808Y-114843808D01*
X134263218Y-114863167D01*
X134236313Y-114877548D01*
X134207116Y-114886405D01*
X134170610Y-114890000D01*
X133545390Y-114890000D01*
X133508884Y-114886405D01*
X133479687Y-114877548D01*
X133452782Y-114863167D01*
X133429192Y-114843808D01*
X133409833Y-114820218D01*
X133395452Y-114793313D01*
X133386595Y-114764116D01*
X133383000Y-114727610D01*
X133383000Y-114177390D01*
X133386595Y-114140884D01*
X133395452Y-114111687D01*
X133409833Y-114084782D01*
X133429192Y-114061192D01*
X133452782Y-114041833D01*
X133479687Y-114027452D01*
X133508884Y-114018595D01*
X133545390Y-114015000D01*
X134170610Y-114015000D01*
X134207116Y-114018595D01*
X134207116Y-114018595D01*
G37*
G36*
X173577116Y-114018595D02*
X173606313Y-114027452D01*
X173633218Y-114041833D01*
X173656808Y-114061192D01*
X173676167Y-114084782D01*
X173690548Y-114111687D01*
X173699405Y-114140884D01*
X173703000Y-114177390D01*
X173703000Y-114727610D01*
X173699405Y-114764116D01*
X173690548Y-114793313D01*
X173676167Y-114820218D01*
X173656808Y-114843808D01*
X173633218Y-114863167D01*
X173606313Y-114877548D01*
X173577116Y-114886405D01*
X173540610Y-114890000D01*
X172915390Y-114890000D01*
X172878884Y-114886405D01*
X172849687Y-114877548D01*
X172822782Y-114863167D01*
X172799192Y-114843808D01*
X172779833Y-114820218D01*
X172765452Y-114793313D01*
X172756595Y-114764116D01*
X172753000Y-114727610D01*
X172753000Y-114177390D01*
X172756595Y-114140884D01*
X172765452Y-114111687D01*
X172779833Y-114084782D01*
X172799192Y-114061192D01*
X172822782Y-114041833D01*
X172849687Y-114027452D01*
X172878884Y-114018595D01*
X172915390Y-114015000D01*
X173540610Y-114015000D01*
X173577116Y-114018595D01*
X173577116Y-114018595D01*
G37*
G36*
X176117116Y-114018595D02*
X176146313Y-114027452D01*
X176173218Y-114041833D01*
X176196808Y-114061192D01*
X176216167Y-114084782D01*
X176230548Y-114111687D01*
X176239405Y-114140884D01*
X176243000Y-114177390D01*
X176243000Y-114727610D01*
X176239405Y-114764116D01*
X176230548Y-114793313D01*
X176216167Y-114820218D01*
X176196808Y-114843808D01*
X176173218Y-114863167D01*
X176146313Y-114877548D01*
X176117116Y-114886405D01*
X176080610Y-114890000D01*
X175455390Y-114890000D01*
X175418884Y-114886405D01*
X175389687Y-114877548D01*
X175362782Y-114863167D01*
X175339192Y-114843808D01*
X175319833Y-114820218D01*
X175305452Y-114793313D01*
X175296595Y-114764116D01*
X175293000Y-114727610D01*
X175293000Y-114177390D01*
X175296595Y-114140884D01*
X175305452Y-114111687D01*
X175319833Y-114084782D01*
X175339192Y-114061192D01*
X175362782Y-114041833D01*
X175389687Y-114027452D01*
X175418884Y-114018595D01*
X175455390Y-114015000D01*
X176080610Y-114015000D01*
X176117116Y-114018595D01*
X176117116Y-114018595D01*
G37*
G36*
X130128000Y-114385000D02*
X129328000Y-114385000D01*
X129328000Y-113485000D01*
X130128000Y-113485000D01*
X130128000Y-114385000D01*
X130128000Y-114385000D01*
G37*
G36*
X128228000Y-114385000D02*
X127428000Y-114385000D01*
X127428000Y-113485000D01*
X128228000Y-113485000D01*
X128228000Y-114385000D01*
X128228000Y-114385000D01*
G37*
G36*
X137192116Y-113193595D02*
X137221313Y-113202452D01*
X137248218Y-113216833D01*
X137271808Y-113236192D01*
X137291167Y-113259782D01*
X137305548Y-113286687D01*
X137314405Y-113315884D01*
X137318000Y-113352390D01*
X137318000Y-113977610D01*
X137314405Y-114014116D01*
X137305548Y-114043313D01*
X137291167Y-114070218D01*
X137271808Y-114093808D01*
X137248218Y-114113167D01*
X137221313Y-114127548D01*
X137192116Y-114136405D01*
X137155610Y-114140000D01*
X136605390Y-114140000D01*
X136568884Y-114136405D01*
X136539687Y-114127548D01*
X136512782Y-114113167D01*
X136489192Y-114093808D01*
X136469833Y-114070218D01*
X136455452Y-114043313D01*
X136446595Y-114014116D01*
X136443000Y-113977610D01*
X136443000Y-113352390D01*
X136446595Y-113315884D01*
X136455452Y-113286687D01*
X136469833Y-113259782D01*
X136489192Y-113236192D01*
X136512782Y-113216833D01*
X136539687Y-113202452D01*
X136568884Y-113193595D01*
X136605390Y-113190000D01*
X137155610Y-113190000D01*
X137192116Y-113193595D01*
X137192116Y-113193595D01*
G37*
G36*
X138767116Y-113193595D02*
X138796313Y-113202452D01*
X138823218Y-113216833D01*
X138846808Y-113236192D01*
X138866167Y-113259782D01*
X138880548Y-113286687D01*
X138889405Y-113315884D01*
X138893000Y-113352390D01*
X138893000Y-113977610D01*
X138889405Y-114014116D01*
X138880548Y-114043313D01*
X138866167Y-114070218D01*
X138846808Y-114093808D01*
X138823218Y-114113167D01*
X138796313Y-114127548D01*
X138767116Y-114136405D01*
X138730610Y-114140000D01*
X138180390Y-114140000D01*
X138143884Y-114136405D01*
X138114687Y-114127548D01*
X138087782Y-114113167D01*
X138064192Y-114093808D01*
X138044833Y-114070218D01*
X138030452Y-114043313D01*
X138021595Y-114014116D01*
X138018000Y-113977610D01*
X138018000Y-113352390D01*
X138021595Y-113315884D01*
X138030452Y-113286687D01*
X138044833Y-113259782D01*
X138064192Y-113236192D01*
X138087782Y-113216833D01*
X138114687Y-113202452D01*
X138143884Y-113193595D01*
X138180390Y-113190000D01*
X138730610Y-113190000D01*
X138767116Y-113193595D01*
X138767116Y-113193595D01*
G37*
G36*
X134207116Y-112443595D02*
X134236313Y-112452452D01*
X134263218Y-112466833D01*
X134286808Y-112486192D01*
X134306167Y-112509782D01*
X134320548Y-112536687D01*
X134329405Y-112565884D01*
X134333000Y-112602390D01*
X134333000Y-113152610D01*
X134329405Y-113189116D01*
X134320548Y-113218313D01*
X134306167Y-113245218D01*
X134286808Y-113268808D01*
X134263218Y-113288167D01*
X134236313Y-113302548D01*
X134207116Y-113311405D01*
X134170610Y-113315000D01*
X133545390Y-113315000D01*
X133508884Y-113311405D01*
X133479687Y-113302548D01*
X133452782Y-113288167D01*
X133429192Y-113268808D01*
X133409833Y-113245218D01*
X133395452Y-113218313D01*
X133386595Y-113189116D01*
X133383000Y-113152610D01*
X133383000Y-112602390D01*
X133386595Y-112565884D01*
X133395452Y-112536687D01*
X133409833Y-112509782D01*
X133429192Y-112486192D01*
X133452782Y-112466833D01*
X133479687Y-112452452D01*
X133508884Y-112443595D01*
X133545390Y-112440000D01*
X134170610Y-112440000D01*
X134207116Y-112443595D01*
X134207116Y-112443595D01*
G37*
G36*
X131667116Y-112443595D02*
X131696313Y-112452452D01*
X131723218Y-112466833D01*
X131746808Y-112486192D01*
X131766167Y-112509782D01*
X131780548Y-112536687D01*
X131789405Y-112565884D01*
X131793000Y-112602390D01*
X131793000Y-113152610D01*
X131789405Y-113189116D01*
X131780548Y-113218313D01*
X131766167Y-113245218D01*
X131746808Y-113268808D01*
X131723218Y-113288167D01*
X131696313Y-113302548D01*
X131667116Y-113311405D01*
X131630610Y-113315000D01*
X131005390Y-113315000D01*
X130968884Y-113311405D01*
X130939687Y-113302548D01*
X130912782Y-113288167D01*
X130889192Y-113268808D01*
X130869833Y-113245218D01*
X130855452Y-113218313D01*
X130846595Y-113189116D01*
X130843000Y-113152610D01*
X130843000Y-112602390D01*
X130846595Y-112565884D01*
X130855452Y-112536687D01*
X130869833Y-112509782D01*
X130889192Y-112486192D01*
X130912782Y-112466833D01*
X130939687Y-112452452D01*
X130968884Y-112443595D01*
X131005390Y-112440000D01*
X131630610Y-112440000D01*
X131667116Y-112443595D01*
X131667116Y-112443595D01*
G37*
G36*
X176117116Y-112443595D02*
X176146313Y-112452452D01*
X176173218Y-112466833D01*
X176196808Y-112486192D01*
X176216167Y-112509782D01*
X176230548Y-112536687D01*
X176239405Y-112565884D01*
X176243000Y-112602390D01*
X176243000Y-113152610D01*
X176239405Y-113189116D01*
X176230548Y-113218313D01*
X176216167Y-113245218D01*
X176196808Y-113268808D01*
X176173218Y-113288167D01*
X176146313Y-113302548D01*
X176117116Y-113311405D01*
X176080610Y-113315000D01*
X175455390Y-113315000D01*
X175418884Y-113311405D01*
X175389687Y-113302548D01*
X175362782Y-113288167D01*
X175339192Y-113268808D01*
X175319833Y-113245218D01*
X175305452Y-113218313D01*
X175296595Y-113189116D01*
X175293000Y-113152610D01*
X175293000Y-112602390D01*
X175296595Y-112565884D01*
X175305452Y-112536687D01*
X175319833Y-112509782D01*
X175339192Y-112486192D01*
X175362782Y-112466833D01*
X175389687Y-112452452D01*
X175418884Y-112443595D01*
X175455390Y-112440000D01*
X176080610Y-112440000D01*
X176117116Y-112443595D01*
X176117116Y-112443595D01*
G37*
G36*
X171037116Y-112443595D02*
X171066313Y-112452452D01*
X171093218Y-112466833D01*
X171116808Y-112486192D01*
X171136167Y-112509782D01*
X171150548Y-112536687D01*
X171159405Y-112565884D01*
X171163000Y-112602390D01*
X171163000Y-113152610D01*
X171159405Y-113189116D01*
X171150548Y-113218313D01*
X171136167Y-113245218D01*
X171116808Y-113268808D01*
X171093218Y-113288167D01*
X171066313Y-113302548D01*
X171037116Y-113311405D01*
X171000610Y-113315000D01*
X170375390Y-113315000D01*
X170338884Y-113311405D01*
X170309687Y-113302548D01*
X170282782Y-113288167D01*
X170259192Y-113268808D01*
X170239833Y-113245218D01*
X170225452Y-113218313D01*
X170216595Y-113189116D01*
X170213000Y-113152610D01*
X170213000Y-112602390D01*
X170216595Y-112565884D01*
X170225452Y-112536687D01*
X170239833Y-112509782D01*
X170259192Y-112486192D01*
X170282782Y-112466833D01*
X170309687Y-112452452D01*
X170338884Y-112443595D01*
X170375390Y-112440000D01*
X171000610Y-112440000D01*
X171037116Y-112443595D01*
X171037116Y-112443595D01*
G37*
G36*
X173577116Y-112443595D02*
X173606313Y-112452452D01*
X173633218Y-112466833D01*
X173656808Y-112486192D01*
X173676167Y-112509782D01*
X173690548Y-112536687D01*
X173699405Y-112565884D01*
X173703000Y-112602390D01*
X173703000Y-113152610D01*
X173699405Y-113189116D01*
X173690548Y-113218313D01*
X173676167Y-113245218D01*
X173656808Y-113268808D01*
X173633218Y-113288167D01*
X173606313Y-113302548D01*
X173577116Y-113311405D01*
X173540610Y-113315000D01*
X172915390Y-113315000D01*
X172878884Y-113311405D01*
X172849687Y-113302548D01*
X172822782Y-113288167D01*
X172799192Y-113268808D01*
X172779833Y-113245218D01*
X172765452Y-113218313D01*
X172756595Y-113189116D01*
X172753000Y-113152610D01*
X172753000Y-112602390D01*
X172756595Y-112565884D01*
X172765452Y-112536687D01*
X172779833Y-112509782D01*
X172799192Y-112486192D01*
X172822782Y-112466833D01*
X172849687Y-112452452D01*
X172878884Y-112443595D01*
X172915390Y-112440000D01*
X173540610Y-112440000D01*
X173577116Y-112443595D01*
X173577116Y-112443595D01*
G37*
G36*
X168497116Y-112443595D02*
X168526313Y-112452452D01*
X168553218Y-112466833D01*
X168576808Y-112486192D01*
X168596167Y-112509782D01*
X168610548Y-112536687D01*
X168619405Y-112565884D01*
X168623000Y-112602390D01*
X168623000Y-113152610D01*
X168619405Y-113189116D01*
X168610548Y-113218313D01*
X168596167Y-113245218D01*
X168576808Y-113268808D01*
X168553218Y-113288167D01*
X168526313Y-113302548D01*
X168497116Y-113311405D01*
X168460610Y-113315000D01*
X167835390Y-113315000D01*
X167798884Y-113311405D01*
X167769687Y-113302548D01*
X167742782Y-113288167D01*
X167719192Y-113268808D01*
X167699833Y-113245218D01*
X167685452Y-113218313D01*
X167676595Y-113189116D01*
X167673000Y-113152610D01*
X167673000Y-112602390D01*
X167676595Y-112565884D01*
X167685452Y-112536687D01*
X167699833Y-112509782D01*
X167719192Y-112486192D01*
X167742782Y-112466833D01*
X167769687Y-112452452D01*
X167798884Y-112443595D01*
X167835390Y-112440000D01*
X168460610Y-112440000D01*
X168497116Y-112443595D01*
X168497116Y-112443595D01*
G37*
G36*
X139338000Y-112575000D02*
X138538000Y-112575000D01*
X138538000Y-111675000D01*
X139338000Y-111675000D01*
X139338000Y-112575000D01*
X139338000Y-112575000D01*
G37*
G36*
X127857116Y-111478595D02*
X127886313Y-111487452D01*
X127913218Y-111501833D01*
X127936808Y-111521192D01*
X127956167Y-111544782D01*
X127970548Y-111571687D01*
X127979405Y-111600884D01*
X127983000Y-111637390D01*
X127983000Y-112187610D01*
X127979405Y-112224116D01*
X127970548Y-112253313D01*
X127956167Y-112280218D01*
X127936808Y-112303808D01*
X127913218Y-112323167D01*
X127886313Y-112337548D01*
X127857116Y-112346405D01*
X127820610Y-112350000D01*
X127195390Y-112350000D01*
X127158884Y-112346405D01*
X127129687Y-112337548D01*
X127102782Y-112323167D01*
X127079192Y-112303808D01*
X127059833Y-112280218D01*
X127045452Y-112253313D01*
X127036595Y-112224116D01*
X127033000Y-112187610D01*
X127033000Y-111637390D01*
X127036595Y-111600884D01*
X127045452Y-111571687D01*
X127059833Y-111544782D01*
X127079192Y-111521192D01*
X127102782Y-111501833D01*
X127129687Y-111487452D01*
X127158884Y-111478595D01*
X127195390Y-111475000D01*
X127820610Y-111475000D01*
X127857116Y-111478595D01*
X127857116Y-111478595D01*
G37*
G36*
X132417116Y-110653595D02*
X132446313Y-110662452D01*
X132473218Y-110676833D01*
X132496808Y-110696192D01*
X132516167Y-110719782D01*
X132530548Y-110746687D01*
X132539405Y-110775884D01*
X132543000Y-110812390D01*
X132543000Y-111437610D01*
X132539405Y-111474116D01*
X132530548Y-111503313D01*
X132516167Y-111530218D01*
X132496808Y-111553808D01*
X132473218Y-111573167D01*
X132446313Y-111587548D01*
X132417116Y-111596405D01*
X132380610Y-111600000D01*
X131830390Y-111600000D01*
X131793884Y-111596405D01*
X131764687Y-111587548D01*
X131737782Y-111573167D01*
X131714192Y-111553808D01*
X131694833Y-111530218D01*
X131680452Y-111503313D01*
X131671595Y-111474116D01*
X131668000Y-111437610D01*
X131668000Y-110812390D01*
X131671595Y-110775884D01*
X131680452Y-110746687D01*
X131694833Y-110719782D01*
X131714192Y-110696192D01*
X131737782Y-110676833D01*
X131764687Y-110662452D01*
X131793884Y-110653595D01*
X131830390Y-110650000D01*
X132380610Y-110650000D01*
X132417116Y-110653595D01*
X132417116Y-110653595D01*
G37*
G36*
X130842116Y-110653595D02*
X130871313Y-110662452D01*
X130898218Y-110676833D01*
X130921808Y-110696192D01*
X130941167Y-110719782D01*
X130955548Y-110746687D01*
X130964405Y-110775884D01*
X130968000Y-110812390D01*
X130968000Y-111437610D01*
X130964405Y-111474116D01*
X130955548Y-111503313D01*
X130941167Y-111530218D01*
X130921808Y-111553808D01*
X130898218Y-111573167D01*
X130871313Y-111587548D01*
X130842116Y-111596405D01*
X130805610Y-111600000D01*
X130255390Y-111600000D01*
X130218884Y-111596405D01*
X130189687Y-111587548D01*
X130162782Y-111573167D01*
X130139192Y-111553808D01*
X130119833Y-111530218D01*
X130105452Y-111503313D01*
X130096595Y-111474116D01*
X130093000Y-111437610D01*
X130093000Y-110812390D01*
X130096595Y-110775884D01*
X130105452Y-110746687D01*
X130119833Y-110719782D01*
X130139192Y-110696192D01*
X130162782Y-110676833D01*
X130189687Y-110662452D01*
X130218884Y-110653595D01*
X130255390Y-110650000D01*
X130805610Y-110650000D01*
X130842116Y-110653595D01*
X130842116Y-110653595D01*
G37*
G36*
X171022024Y-110208955D02*
X171054736Y-110218879D01*
X171084890Y-110234997D01*
X171111316Y-110256684D01*
X171133003Y-110283110D01*
X171149121Y-110313264D01*
X171159045Y-110345976D01*
X171163000Y-110386138D01*
X171163000Y-111073862D01*
X171159045Y-111114024D01*
X171149121Y-111146736D01*
X171133003Y-111176890D01*
X171111316Y-111203316D01*
X171084890Y-111225003D01*
X171054736Y-111241121D01*
X171022024Y-111251045D01*
X170981862Y-111255000D01*
X170394138Y-111255000D01*
X170353976Y-111251045D01*
X170321264Y-111241121D01*
X170291110Y-111225003D01*
X170264684Y-111203316D01*
X170242997Y-111176890D01*
X170226879Y-111146736D01*
X170216955Y-111114024D01*
X170213000Y-111073862D01*
X170213000Y-110386138D01*
X170216955Y-110345976D01*
X170226879Y-110313264D01*
X170242997Y-110283110D01*
X170264684Y-110256684D01*
X170291110Y-110234997D01*
X170321264Y-110218879D01*
X170353976Y-110208955D01*
X170394138Y-110205000D01*
X170981862Y-110205000D01*
X171022024Y-110208955D01*
X171022024Y-110208955D01*
G37*
G36*
X168482024Y-110208955D02*
X168514736Y-110218879D01*
X168544890Y-110234997D01*
X168571316Y-110256684D01*
X168593003Y-110283110D01*
X168609121Y-110313264D01*
X168619045Y-110345976D01*
X168623000Y-110386138D01*
X168623000Y-111073862D01*
X168619045Y-111114024D01*
X168609121Y-111146736D01*
X168593003Y-111176890D01*
X168571316Y-111203316D01*
X168544890Y-111225003D01*
X168514736Y-111241121D01*
X168482024Y-111251045D01*
X168441862Y-111255000D01*
X167854138Y-111255000D01*
X167813976Y-111251045D01*
X167781264Y-111241121D01*
X167751110Y-111225003D01*
X167724684Y-111203316D01*
X167702997Y-111176890D01*
X167686879Y-111146736D01*
X167676955Y-111114024D01*
X167673000Y-111073862D01*
X167673000Y-110386138D01*
X167676955Y-110345976D01*
X167686879Y-110313264D01*
X167702997Y-110283110D01*
X167724684Y-110256684D01*
X167751110Y-110234997D01*
X167781264Y-110218879D01*
X167813976Y-110208955D01*
X167854138Y-110205000D01*
X168441862Y-110205000D01*
X168482024Y-110208955D01*
X168482024Y-110208955D01*
G37*
G36*
X176102024Y-110208955D02*
X176134736Y-110218879D01*
X176164890Y-110234997D01*
X176191316Y-110256684D01*
X176213003Y-110283110D01*
X176229121Y-110313264D01*
X176239045Y-110345976D01*
X176243000Y-110386138D01*
X176243000Y-111073862D01*
X176239045Y-111114024D01*
X176229121Y-111146736D01*
X176213003Y-111176890D01*
X176191316Y-111203316D01*
X176164890Y-111225003D01*
X176134736Y-111241121D01*
X176102024Y-111251045D01*
X176061862Y-111255000D01*
X175474138Y-111255000D01*
X175433976Y-111251045D01*
X175401264Y-111241121D01*
X175371110Y-111225003D01*
X175344684Y-111203316D01*
X175322997Y-111176890D01*
X175306879Y-111146736D01*
X175296955Y-111114024D01*
X175293000Y-111073862D01*
X175293000Y-110386138D01*
X175296955Y-110345976D01*
X175306879Y-110313264D01*
X175322997Y-110283110D01*
X175344684Y-110256684D01*
X175371110Y-110234997D01*
X175401264Y-110218879D01*
X175433976Y-110208955D01*
X175474138Y-110205000D01*
X176061862Y-110205000D01*
X176102024Y-110208955D01*
X176102024Y-110208955D01*
G37*
G36*
X173562024Y-110208955D02*
X173594736Y-110218879D01*
X173624890Y-110234997D01*
X173651316Y-110256684D01*
X173673003Y-110283110D01*
X173689121Y-110313264D01*
X173699045Y-110345976D01*
X173703000Y-110386138D01*
X173703000Y-111073862D01*
X173699045Y-111114024D01*
X173689121Y-111146736D01*
X173673003Y-111176890D01*
X173651316Y-111203316D01*
X173624890Y-111225003D01*
X173594736Y-111241121D01*
X173562024Y-111251045D01*
X173521862Y-111255000D01*
X172934138Y-111255000D01*
X172893976Y-111251045D01*
X172861264Y-111241121D01*
X172831110Y-111225003D01*
X172804684Y-111203316D01*
X172782997Y-111176890D01*
X172766879Y-111146736D01*
X172756955Y-111114024D01*
X172753000Y-111073862D01*
X172753000Y-110386138D01*
X172756955Y-110345976D01*
X172766879Y-110313264D01*
X172782997Y-110283110D01*
X172804684Y-110256684D01*
X172831110Y-110234997D01*
X172861264Y-110218879D01*
X172893976Y-110208955D01*
X172934138Y-110205000D01*
X173521862Y-110205000D01*
X173562024Y-110208955D01*
X173562024Y-110208955D01*
G37*
G36*
X127857116Y-109903595D02*
X127886313Y-109912452D01*
X127913218Y-109926833D01*
X127936808Y-109946192D01*
X127956167Y-109969782D01*
X127970548Y-109996687D01*
X127979405Y-110025884D01*
X127983000Y-110062390D01*
X127983000Y-110612610D01*
X127979405Y-110649116D01*
X127970548Y-110678313D01*
X127956167Y-110705218D01*
X127936808Y-110728808D01*
X127913218Y-110748167D01*
X127886313Y-110762548D01*
X127857116Y-110771405D01*
X127820610Y-110775000D01*
X127195390Y-110775000D01*
X127158884Y-110771405D01*
X127129687Y-110762548D01*
X127102782Y-110748167D01*
X127079192Y-110728808D01*
X127059833Y-110705218D01*
X127045452Y-110678313D01*
X127036595Y-110649116D01*
X127033000Y-110612610D01*
X127033000Y-110062390D01*
X127036595Y-110025884D01*
X127045452Y-109996687D01*
X127059833Y-109969782D01*
X127079192Y-109946192D01*
X127102782Y-109926833D01*
X127129687Y-109912452D01*
X127158884Y-109903595D01*
X127195390Y-109900000D01*
X127820610Y-109900000D01*
X127857116Y-109903595D01*
X127857116Y-109903595D01*
G37*
G36*
X114554000Y-110718600D02*
X112522000Y-110718600D01*
X112522000Y-108991400D01*
X114554000Y-108991400D01*
X114554000Y-110718600D01*
X114554000Y-110718600D01*
G37*
G36*
X140288000Y-110575000D02*
X139488000Y-110575000D01*
X139488000Y-109675000D01*
X140288000Y-109675000D01*
X140288000Y-110575000D01*
X140288000Y-110575000D01*
G37*
G36*
X138388000Y-110575000D02*
X137588000Y-110575000D01*
X137588000Y-109675000D01*
X138388000Y-109675000D01*
X138388000Y-110575000D01*
X138388000Y-110575000D01*
G37*
G36*
X145370002Y-109199928D02*
X145399199Y-109208785D01*
X145426104Y-109223166D01*
X145454471Y-109246446D01*
X145896554Y-109688529D01*
X145919834Y-109716896D01*
X145934215Y-109743801D01*
X145943072Y-109772998D01*
X145946062Y-109803364D01*
X145943072Y-109833730D01*
X145934215Y-109862927D01*
X145919834Y-109889832D01*
X145896554Y-109918199D01*
X145507505Y-110307248D01*
X145479138Y-110330528D01*
X145452233Y-110344909D01*
X145423036Y-110353766D01*
X145392670Y-110356756D01*
X145362304Y-110353766D01*
X145333107Y-110344909D01*
X145306202Y-110330528D01*
X145277835Y-110307248D01*
X144835752Y-109865165D01*
X144812472Y-109836798D01*
X144798091Y-109809893D01*
X144789234Y-109780696D01*
X144786244Y-109750330D01*
X144789234Y-109719964D01*
X144798091Y-109690767D01*
X144812472Y-109663862D01*
X144835752Y-109635495D01*
X145224801Y-109246446D01*
X145253168Y-109223166D01*
X145280073Y-109208785D01*
X145309270Y-109199928D01*
X145339636Y-109196938D01*
X145370002Y-109199928D01*
X145370002Y-109199928D01*
G37*
G36*
X124797116Y-109383595D02*
X124826313Y-109392452D01*
X124853218Y-109406833D01*
X124876808Y-109426192D01*
X124896167Y-109449782D01*
X124910548Y-109476687D01*
X124919405Y-109505884D01*
X124923000Y-109542390D01*
X124923000Y-110167610D01*
X124919405Y-110204116D01*
X124910548Y-110233313D01*
X124896167Y-110260218D01*
X124876808Y-110283808D01*
X124853218Y-110303167D01*
X124826313Y-110317548D01*
X124797116Y-110326405D01*
X124760610Y-110330000D01*
X124210390Y-110330000D01*
X124173884Y-110326405D01*
X124144687Y-110317548D01*
X124117782Y-110303167D01*
X124094192Y-110283808D01*
X124074833Y-110260218D01*
X124060452Y-110233313D01*
X124051595Y-110204116D01*
X124048000Y-110167610D01*
X124048000Y-109542390D01*
X124051595Y-109505884D01*
X124060452Y-109476687D01*
X124074833Y-109449782D01*
X124094192Y-109426192D01*
X124117782Y-109406833D01*
X124144687Y-109392452D01*
X124173884Y-109383595D01*
X124210390Y-109380000D01*
X124760610Y-109380000D01*
X124797116Y-109383595D01*
X124797116Y-109383595D01*
G37*
G36*
X123222116Y-109383595D02*
X123251313Y-109392452D01*
X123278218Y-109406833D01*
X123301808Y-109426192D01*
X123321167Y-109449782D01*
X123335548Y-109476687D01*
X123344405Y-109505884D01*
X123348000Y-109542390D01*
X123348000Y-110167610D01*
X123344405Y-110204116D01*
X123335548Y-110233313D01*
X123321167Y-110260218D01*
X123301808Y-110283808D01*
X123278218Y-110303167D01*
X123251313Y-110317548D01*
X123222116Y-110326405D01*
X123185610Y-110330000D01*
X122635390Y-110330000D01*
X122598884Y-110326405D01*
X122569687Y-110317548D01*
X122542782Y-110303167D01*
X122519192Y-110283808D01*
X122499833Y-110260218D01*
X122485452Y-110233313D01*
X122476595Y-110204116D01*
X122473000Y-110167610D01*
X122473000Y-109542390D01*
X122476595Y-109505884D01*
X122485452Y-109476687D01*
X122499833Y-109449782D01*
X122519192Y-109426192D01*
X122542782Y-109406833D01*
X122569687Y-109392452D01*
X122598884Y-109383595D01*
X122635390Y-109380000D01*
X123185610Y-109380000D01*
X123222116Y-109383595D01*
X123222116Y-109383595D01*
G37*
G36*
X143364616Y-109383595D02*
X143393813Y-109392452D01*
X143420718Y-109406833D01*
X143444308Y-109426192D01*
X143463667Y-109449782D01*
X143478048Y-109476687D01*
X143486905Y-109505884D01*
X143490500Y-109542390D01*
X143490500Y-110167610D01*
X143486905Y-110204116D01*
X143478048Y-110233313D01*
X143463667Y-110260218D01*
X143444308Y-110283808D01*
X143420718Y-110303167D01*
X143393813Y-110317548D01*
X143364616Y-110326405D01*
X143328110Y-110330000D01*
X142777890Y-110330000D01*
X142741384Y-110326405D01*
X142712187Y-110317548D01*
X142685282Y-110303167D01*
X142661692Y-110283808D01*
X142642333Y-110260218D01*
X142627952Y-110233313D01*
X142619095Y-110204116D01*
X142615500Y-110167610D01*
X142615500Y-109542390D01*
X142619095Y-109505884D01*
X142627952Y-109476687D01*
X142642333Y-109449782D01*
X142661692Y-109426192D01*
X142685282Y-109406833D01*
X142712187Y-109392452D01*
X142741384Y-109383595D01*
X142777890Y-109380000D01*
X143328110Y-109380000D01*
X143364616Y-109383595D01*
X143364616Y-109383595D01*
G37*
G36*
X141789616Y-109383595D02*
X141818813Y-109392452D01*
X141845718Y-109406833D01*
X141869308Y-109426192D01*
X141888667Y-109449782D01*
X141903048Y-109476687D01*
X141911905Y-109505884D01*
X141915500Y-109542390D01*
X141915500Y-110167610D01*
X141911905Y-110204116D01*
X141903048Y-110233313D01*
X141888667Y-110260218D01*
X141869308Y-110283808D01*
X141845718Y-110303167D01*
X141818813Y-110317548D01*
X141789616Y-110326405D01*
X141753110Y-110330000D01*
X141202890Y-110330000D01*
X141166384Y-110326405D01*
X141137187Y-110317548D01*
X141110282Y-110303167D01*
X141086692Y-110283808D01*
X141067333Y-110260218D01*
X141052952Y-110233313D01*
X141044095Y-110204116D01*
X141040500Y-110167610D01*
X141040500Y-109542390D01*
X141044095Y-109505884D01*
X141052952Y-109476687D01*
X141067333Y-109449782D01*
X141086692Y-109426192D01*
X141110282Y-109406833D01*
X141137187Y-109392452D01*
X141166384Y-109383595D01*
X141202890Y-109380000D01*
X141753110Y-109380000D01*
X141789616Y-109383595D01*
X141789616Y-109383595D01*
G37*
G36*
X132988000Y-110035000D02*
X132188000Y-110035000D01*
X132188000Y-109135000D01*
X132988000Y-109135000D01*
X132988000Y-110035000D01*
X132988000Y-110035000D01*
G37*
G36*
X176102024Y-108458955D02*
X176134736Y-108468879D01*
X176164890Y-108484997D01*
X176191316Y-108506684D01*
X176213003Y-108533110D01*
X176229121Y-108563264D01*
X176239045Y-108595976D01*
X176243000Y-108636138D01*
X176243000Y-109323862D01*
X176239045Y-109364024D01*
X176229121Y-109396736D01*
X176213003Y-109426890D01*
X176191316Y-109453316D01*
X176164890Y-109475003D01*
X176134736Y-109491121D01*
X176102024Y-109501045D01*
X176061862Y-109505000D01*
X175474138Y-109505000D01*
X175433976Y-109501045D01*
X175401264Y-109491121D01*
X175371110Y-109475003D01*
X175344684Y-109453316D01*
X175322997Y-109426890D01*
X175306879Y-109396736D01*
X175296955Y-109364024D01*
X175293000Y-109323862D01*
X175293000Y-108636138D01*
X175296955Y-108595976D01*
X175306879Y-108563264D01*
X175322997Y-108533110D01*
X175344684Y-108506684D01*
X175371110Y-108484997D01*
X175401264Y-108468879D01*
X175433976Y-108458955D01*
X175474138Y-108455000D01*
X176061862Y-108455000D01*
X176102024Y-108458955D01*
X176102024Y-108458955D01*
G37*
G36*
X168482024Y-108458955D02*
X168514736Y-108468879D01*
X168544890Y-108484997D01*
X168571316Y-108506684D01*
X168593003Y-108533110D01*
X168609121Y-108563264D01*
X168619045Y-108595976D01*
X168623000Y-108636138D01*
X168623000Y-109323862D01*
X168619045Y-109364024D01*
X168609121Y-109396736D01*
X168593003Y-109426890D01*
X168571316Y-109453316D01*
X168544890Y-109475003D01*
X168514736Y-109491121D01*
X168482024Y-109501045D01*
X168441862Y-109505000D01*
X167854138Y-109505000D01*
X167813976Y-109501045D01*
X167781264Y-109491121D01*
X167751110Y-109475003D01*
X167724684Y-109453316D01*
X167702997Y-109426890D01*
X167686879Y-109396736D01*
X167676955Y-109364024D01*
X167673000Y-109323862D01*
X167673000Y-108636138D01*
X167676955Y-108595976D01*
X167686879Y-108563264D01*
X167702997Y-108533110D01*
X167724684Y-108506684D01*
X167751110Y-108484997D01*
X167781264Y-108468879D01*
X167813976Y-108458955D01*
X167854138Y-108455000D01*
X168441862Y-108455000D01*
X168482024Y-108458955D01*
X168482024Y-108458955D01*
G37*
G36*
X171022024Y-108458955D02*
X171054736Y-108468879D01*
X171084890Y-108484997D01*
X171111316Y-108506684D01*
X171133003Y-108533110D01*
X171149121Y-108563264D01*
X171159045Y-108595976D01*
X171163000Y-108636138D01*
X171163000Y-109323862D01*
X171159045Y-109364024D01*
X171149121Y-109396736D01*
X171133003Y-109426890D01*
X171111316Y-109453316D01*
X171084890Y-109475003D01*
X171054736Y-109491121D01*
X171022024Y-109501045D01*
X170981862Y-109505000D01*
X170394138Y-109505000D01*
X170353976Y-109501045D01*
X170321264Y-109491121D01*
X170291110Y-109475003D01*
X170264684Y-109453316D01*
X170242997Y-109426890D01*
X170226879Y-109396736D01*
X170216955Y-109364024D01*
X170213000Y-109323862D01*
X170213000Y-108636138D01*
X170216955Y-108595976D01*
X170226879Y-108563264D01*
X170242997Y-108533110D01*
X170264684Y-108506684D01*
X170291110Y-108484997D01*
X170321264Y-108468879D01*
X170353976Y-108458955D01*
X170394138Y-108455000D01*
X170981862Y-108455000D01*
X171022024Y-108458955D01*
X171022024Y-108458955D01*
G37*
G36*
X173562024Y-108458955D02*
X173594736Y-108468879D01*
X173624890Y-108484997D01*
X173651316Y-108506684D01*
X173673003Y-108533110D01*
X173689121Y-108563264D01*
X173699045Y-108595976D01*
X173703000Y-108636138D01*
X173703000Y-109323862D01*
X173699045Y-109364024D01*
X173689121Y-109396736D01*
X173673003Y-109426890D01*
X173651316Y-109453316D01*
X173624890Y-109475003D01*
X173594736Y-109491121D01*
X173562024Y-109501045D01*
X173521862Y-109505000D01*
X172934138Y-109505000D01*
X172893976Y-109501045D01*
X172861264Y-109491121D01*
X172831110Y-109475003D01*
X172804684Y-109453316D01*
X172782997Y-109426890D01*
X172766879Y-109396736D01*
X172756955Y-109364024D01*
X172753000Y-109323862D01*
X172753000Y-108636138D01*
X172756955Y-108595976D01*
X172766879Y-108563264D01*
X172782997Y-108533110D01*
X172804684Y-108506684D01*
X172831110Y-108484997D01*
X172861264Y-108468879D01*
X172893976Y-108458955D01*
X172934138Y-108455000D01*
X173521862Y-108455000D01*
X173562024Y-108458955D01*
X173562024Y-108458955D01*
G37*
G36*
X146483696Y-108086234D02*
X146512893Y-108095091D01*
X146539798Y-108109472D01*
X146568165Y-108132752D01*
X147010248Y-108574835D01*
X147033528Y-108603202D01*
X147047909Y-108630107D01*
X147056766Y-108659304D01*
X147059756Y-108689670D01*
X147056766Y-108720036D01*
X147047909Y-108749233D01*
X147033528Y-108776138D01*
X147010248Y-108804505D01*
X146621199Y-109193554D01*
X146592832Y-109216834D01*
X146565927Y-109231215D01*
X146536730Y-109240072D01*
X146506364Y-109243062D01*
X146475998Y-109240072D01*
X146446801Y-109231215D01*
X146419896Y-109216834D01*
X146391529Y-109193554D01*
X145949446Y-108751471D01*
X145926166Y-108723104D01*
X145911785Y-108696199D01*
X145902928Y-108667002D01*
X145899938Y-108636636D01*
X145902928Y-108606270D01*
X145911785Y-108577073D01*
X145926166Y-108550168D01*
X145949446Y-108521801D01*
X146338495Y-108132752D01*
X146366862Y-108109472D01*
X146393767Y-108095091D01*
X146422964Y-108086234D01*
X146453330Y-108083244D01*
X146483696Y-108086234D01*
X146483696Y-108086234D01*
G37*
G36*
X128302116Y-108113595D02*
X128331313Y-108122452D01*
X128358218Y-108136833D01*
X128381808Y-108156192D01*
X128401167Y-108179782D01*
X128415548Y-108206687D01*
X128424405Y-108235884D01*
X128428000Y-108272390D01*
X128428000Y-108897610D01*
X128424405Y-108934116D01*
X128415548Y-108963313D01*
X128401167Y-108990218D01*
X128381808Y-109013808D01*
X128358218Y-109033167D01*
X128331313Y-109047548D01*
X128302116Y-109056405D01*
X128265610Y-109060000D01*
X127715390Y-109060000D01*
X127678884Y-109056405D01*
X127649687Y-109047548D01*
X127622782Y-109033167D01*
X127599192Y-109013808D01*
X127579833Y-108990218D01*
X127565452Y-108963313D01*
X127556595Y-108934116D01*
X127553000Y-108897610D01*
X127553000Y-108272390D01*
X127556595Y-108235884D01*
X127565452Y-108206687D01*
X127579833Y-108179782D01*
X127599192Y-108156192D01*
X127622782Y-108136833D01*
X127649687Y-108122452D01*
X127678884Y-108113595D01*
X127715390Y-108110000D01*
X128265610Y-108110000D01*
X128302116Y-108113595D01*
X128302116Y-108113595D01*
G37*
G36*
X129877116Y-108113595D02*
X129906313Y-108122452D01*
X129933218Y-108136833D01*
X129956808Y-108156192D01*
X129976167Y-108179782D01*
X129990548Y-108206687D01*
X129999405Y-108235884D01*
X130003000Y-108272390D01*
X130003000Y-108897610D01*
X129999405Y-108934116D01*
X129990548Y-108963313D01*
X129976167Y-108990218D01*
X129956808Y-109013808D01*
X129933218Y-109033167D01*
X129906313Y-109047548D01*
X129877116Y-109056405D01*
X129840610Y-109060000D01*
X129290390Y-109060000D01*
X129253884Y-109056405D01*
X129224687Y-109047548D01*
X129197782Y-109033167D01*
X129174192Y-109013808D01*
X129154833Y-108990218D01*
X129140452Y-108963313D01*
X129131595Y-108934116D01*
X129128000Y-108897610D01*
X129128000Y-108272390D01*
X129131595Y-108235884D01*
X129140452Y-108206687D01*
X129154833Y-108179782D01*
X129174192Y-108156192D01*
X129197782Y-108136833D01*
X129224687Y-108122452D01*
X129253884Y-108113595D01*
X129290390Y-108110000D01*
X129840610Y-108110000D01*
X129877116Y-108113595D01*
X129877116Y-108113595D01*
G37*
G36*
X113775112Y-106455565D02*
X113859695Y-106463896D01*
X113980127Y-106500429D01*
X114022488Y-106513279D01*
X114172512Y-106593468D01*
X114304012Y-106701388D01*
X114411932Y-106832888D01*
X114492121Y-106982912D01*
X114504971Y-107025273D01*
X114541504Y-107145705D01*
X114558178Y-107315000D01*
X114541504Y-107484295D01*
X114515126Y-107571250D01*
X114492121Y-107647088D01*
X114411932Y-107797112D01*
X114304012Y-107928612D01*
X114172512Y-108036532D01*
X114022488Y-108116721D01*
X114003595Y-108122452D01*
X113859695Y-108166104D01*
X113793770Y-108172597D01*
X113732821Y-108178600D01*
X113343179Y-108178600D01*
X113282230Y-108172597D01*
X113216305Y-108166104D01*
X113072405Y-108122452D01*
X113053512Y-108116721D01*
X112903488Y-108036532D01*
X112771988Y-107928612D01*
X112664068Y-107797112D01*
X112583879Y-107647088D01*
X112560874Y-107571250D01*
X112534496Y-107484295D01*
X112517822Y-107315000D01*
X112534496Y-107145705D01*
X112571029Y-107025273D01*
X112583879Y-106982912D01*
X112664068Y-106832888D01*
X112771988Y-106701388D01*
X112903488Y-106593468D01*
X113053512Y-106513279D01*
X113095873Y-106500429D01*
X113216305Y-106463896D01*
X113300888Y-106455565D01*
X113343179Y-106451400D01*
X113732821Y-106451400D01*
X113775112Y-106455565D01*
X113775112Y-106455565D01*
G37*
G36*
X132038000Y-108035000D02*
X131238000Y-108035000D01*
X131238000Y-107135000D01*
X132038000Y-107135000D01*
X132038000Y-108035000D01*
X132038000Y-108035000D01*
G37*
G36*
X133938000Y-108035000D02*
X133138000Y-108035000D01*
X133138000Y-107135000D01*
X133938000Y-107135000D01*
X133938000Y-108035000D01*
X133938000Y-108035000D01*
G37*
G36*
X139655002Y-106659928D02*
X139684199Y-106668785D01*
X139711104Y-106683166D01*
X139739471Y-106706446D01*
X140181554Y-107148529D01*
X140204834Y-107176896D01*
X140219215Y-107203801D01*
X140228072Y-107232998D01*
X140231062Y-107263364D01*
X140228072Y-107293730D01*
X140219215Y-107322927D01*
X140204834Y-107349832D01*
X140181554Y-107378199D01*
X139792505Y-107767248D01*
X139764138Y-107790528D01*
X139737233Y-107804909D01*
X139708036Y-107813766D01*
X139677670Y-107816756D01*
X139647304Y-107813766D01*
X139618107Y-107804909D01*
X139591202Y-107790528D01*
X139562835Y-107767248D01*
X139120752Y-107325165D01*
X139097472Y-107296798D01*
X139083091Y-107269893D01*
X139074234Y-107240696D01*
X139071244Y-107210330D01*
X139074234Y-107179964D01*
X139083091Y-107150767D01*
X139097472Y-107123862D01*
X139120752Y-107095495D01*
X139509801Y-106706446D01*
X139538168Y-106683166D01*
X139565073Y-106668785D01*
X139594270Y-106659928D01*
X139624636Y-106656938D01*
X139655002Y-106659928D01*
X139655002Y-106659928D01*
G37*
G36*
X137497116Y-106843595D02*
X137526313Y-106852452D01*
X137553218Y-106866833D01*
X137576808Y-106886192D01*
X137596167Y-106909782D01*
X137610548Y-106936687D01*
X137619405Y-106965884D01*
X137623000Y-107002390D01*
X137623000Y-107627610D01*
X137619405Y-107664116D01*
X137610548Y-107693313D01*
X137596167Y-107720218D01*
X137576808Y-107743808D01*
X137553218Y-107763167D01*
X137526313Y-107777548D01*
X137497116Y-107786405D01*
X137460610Y-107790000D01*
X136910390Y-107790000D01*
X136873884Y-107786405D01*
X136844687Y-107777548D01*
X136817782Y-107763167D01*
X136794192Y-107743808D01*
X136774833Y-107720218D01*
X136760452Y-107693313D01*
X136751595Y-107664116D01*
X136748000Y-107627610D01*
X136748000Y-107002390D01*
X136751595Y-106965884D01*
X136760452Y-106936687D01*
X136774833Y-106909782D01*
X136794192Y-106886192D01*
X136817782Y-106866833D01*
X136844687Y-106852452D01*
X136873884Y-106843595D01*
X136910390Y-106840000D01*
X137460610Y-106840000D01*
X137497116Y-106843595D01*
X137497116Y-106843595D01*
G37*
G36*
X135922116Y-106843595D02*
X135951313Y-106852452D01*
X135978218Y-106866833D01*
X136001808Y-106886192D01*
X136021167Y-106909782D01*
X136035548Y-106936687D01*
X136044405Y-106965884D01*
X136048000Y-107002390D01*
X136048000Y-107627610D01*
X136044405Y-107664116D01*
X136035548Y-107693313D01*
X136021167Y-107720218D01*
X136001808Y-107743808D01*
X135978218Y-107763167D01*
X135951313Y-107777548D01*
X135922116Y-107786405D01*
X135885610Y-107790000D01*
X135335390Y-107790000D01*
X135298884Y-107786405D01*
X135269687Y-107777548D01*
X135242782Y-107763167D01*
X135219192Y-107743808D01*
X135199833Y-107720218D01*
X135185452Y-107693313D01*
X135176595Y-107664116D01*
X135173000Y-107627610D01*
X135173000Y-107002390D01*
X135176595Y-106965884D01*
X135185452Y-106936687D01*
X135199833Y-106909782D01*
X135219192Y-106886192D01*
X135242782Y-106866833D01*
X135269687Y-106852452D01*
X135298884Y-106843595D01*
X135335390Y-106840000D01*
X135885610Y-106840000D01*
X135922116Y-106843595D01*
X135922116Y-106843595D01*
G37*
G36*
X123222116Y-106843595D02*
X123251313Y-106852452D01*
X123278218Y-106866833D01*
X123301808Y-106886192D01*
X123321167Y-106909782D01*
X123335548Y-106936687D01*
X123344405Y-106965884D01*
X123348000Y-107002390D01*
X123348000Y-107627610D01*
X123344405Y-107664116D01*
X123335548Y-107693313D01*
X123321167Y-107720218D01*
X123301808Y-107743808D01*
X123278218Y-107763167D01*
X123251313Y-107777548D01*
X123222116Y-107786405D01*
X123185610Y-107790000D01*
X122635390Y-107790000D01*
X122598884Y-107786405D01*
X122569687Y-107777548D01*
X122542782Y-107763167D01*
X122519192Y-107743808D01*
X122499833Y-107720218D01*
X122485452Y-107693313D01*
X122476595Y-107664116D01*
X122473000Y-107627610D01*
X122473000Y-107002390D01*
X122476595Y-106965884D01*
X122485452Y-106936687D01*
X122499833Y-106909782D01*
X122519192Y-106886192D01*
X122542782Y-106866833D01*
X122569687Y-106852452D01*
X122598884Y-106843595D01*
X122635390Y-106840000D01*
X123185610Y-106840000D01*
X123222116Y-106843595D01*
X123222116Y-106843595D01*
G37*
G36*
X124797116Y-106843595D02*
X124826313Y-106852452D01*
X124853218Y-106866833D01*
X124876808Y-106886192D01*
X124896167Y-106909782D01*
X124910548Y-106936687D01*
X124919405Y-106965884D01*
X124923000Y-107002390D01*
X124923000Y-107627610D01*
X124919405Y-107664116D01*
X124910548Y-107693313D01*
X124896167Y-107720218D01*
X124876808Y-107743808D01*
X124853218Y-107763167D01*
X124826313Y-107777548D01*
X124797116Y-107786405D01*
X124760610Y-107790000D01*
X124210390Y-107790000D01*
X124173884Y-107786405D01*
X124144687Y-107777548D01*
X124117782Y-107763167D01*
X124094192Y-107743808D01*
X124074833Y-107720218D01*
X124060452Y-107693313D01*
X124051595Y-107664116D01*
X124048000Y-107627610D01*
X124048000Y-107002390D01*
X124051595Y-106965884D01*
X124060452Y-106936687D01*
X124074833Y-106909782D01*
X124094192Y-106886192D01*
X124117782Y-106866833D01*
X124144687Y-106852452D01*
X124173884Y-106843595D01*
X124210390Y-106840000D01*
X124760610Y-106840000D01*
X124797116Y-106843595D01*
X124797116Y-106843595D01*
G37*
G36*
X140768696Y-105546234D02*
X140797893Y-105555091D01*
X140824798Y-105569472D01*
X140853165Y-105592752D01*
X141295248Y-106034835D01*
X141318528Y-106063202D01*
X141332909Y-106090107D01*
X141341766Y-106119304D01*
X141344756Y-106149670D01*
X141341766Y-106180036D01*
X141332909Y-106209233D01*
X141318528Y-106236138D01*
X141295248Y-106264505D01*
X140906199Y-106653554D01*
X140877832Y-106676834D01*
X140850927Y-106691215D01*
X140821730Y-106700072D01*
X140791364Y-106703062D01*
X140760998Y-106700072D01*
X140731801Y-106691215D01*
X140704896Y-106676834D01*
X140676529Y-106653554D01*
X140234446Y-106211471D01*
X140211166Y-106183104D01*
X140196785Y-106156199D01*
X140187928Y-106127002D01*
X140184938Y-106096636D01*
X140187928Y-106066270D01*
X140196785Y-106037073D01*
X140211166Y-106010168D01*
X140234446Y-105981801D01*
X140623495Y-105592752D01*
X140651862Y-105569472D01*
X140678767Y-105555091D01*
X140707964Y-105546234D01*
X140738330Y-105543244D01*
X140768696Y-105546234D01*
X140768696Y-105546234D01*
G37*
G36*
X113775112Y-103915565D02*
X113859695Y-103923896D01*
X113980127Y-103960429D01*
X114022488Y-103973279D01*
X114172512Y-104053468D01*
X114304012Y-104161388D01*
X114411932Y-104292888D01*
X114492121Y-104442912D01*
X114504971Y-104485273D01*
X114541504Y-104605705D01*
X114558178Y-104775000D01*
X114541504Y-104944295D01*
X114515126Y-105031250D01*
X114492121Y-105107088D01*
X114411932Y-105257112D01*
X114304012Y-105388612D01*
X114172512Y-105496532D01*
X114022488Y-105576721D01*
X113994609Y-105585178D01*
X113859695Y-105626104D01*
X113793770Y-105632597D01*
X113732821Y-105638600D01*
X113343179Y-105638600D01*
X113282230Y-105632597D01*
X113216305Y-105626104D01*
X113081391Y-105585178D01*
X113053512Y-105576721D01*
X112903488Y-105496532D01*
X112771988Y-105388612D01*
X112664068Y-105257112D01*
X112583879Y-105107088D01*
X112560874Y-105031250D01*
X112534496Y-104944295D01*
X112517822Y-104775000D01*
X112534496Y-104605705D01*
X112571029Y-104485273D01*
X112583879Y-104442912D01*
X112664068Y-104292888D01*
X112771988Y-104161388D01*
X112903488Y-104053468D01*
X113053512Y-103973279D01*
X113095873Y-103960429D01*
X113216305Y-103923896D01*
X113300888Y-103915565D01*
X113343179Y-103911400D01*
X113732821Y-103911400D01*
X113775112Y-103915565D01*
X113775112Y-103915565D01*
G37*
G36*
X123222116Y-104303595D02*
X123251313Y-104312452D01*
X123278218Y-104326833D01*
X123301808Y-104346192D01*
X123321167Y-104369782D01*
X123335548Y-104396687D01*
X123344405Y-104425884D01*
X123348000Y-104462390D01*
X123348000Y-105087610D01*
X123344405Y-105124116D01*
X123335548Y-105153313D01*
X123321167Y-105180218D01*
X123301808Y-105203808D01*
X123278218Y-105223167D01*
X123251313Y-105237548D01*
X123222116Y-105246405D01*
X123185610Y-105250000D01*
X122635390Y-105250000D01*
X122598884Y-105246405D01*
X122569687Y-105237548D01*
X122542782Y-105223167D01*
X122519192Y-105203808D01*
X122499833Y-105180218D01*
X122485452Y-105153313D01*
X122476595Y-105124116D01*
X122473000Y-105087610D01*
X122473000Y-104462390D01*
X122476595Y-104425884D01*
X122485452Y-104396687D01*
X122499833Y-104369782D01*
X122519192Y-104346192D01*
X122542782Y-104326833D01*
X122569687Y-104312452D01*
X122598884Y-104303595D01*
X122635390Y-104300000D01*
X123185610Y-104300000D01*
X123222116Y-104303595D01*
X123222116Y-104303595D01*
G37*
G36*
X124797116Y-104303595D02*
X124826313Y-104312452D01*
X124853218Y-104326833D01*
X124876808Y-104346192D01*
X124896167Y-104369782D01*
X124910548Y-104396687D01*
X124919405Y-104425884D01*
X124923000Y-104462390D01*
X124923000Y-105087610D01*
X124919405Y-105124116D01*
X124910548Y-105153313D01*
X124896167Y-105180218D01*
X124876808Y-105203808D01*
X124853218Y-105223167D01*
X124826313Y-105237548D01*
X124797116Y-105246405D01*
X124760610Y-105250000D01*
X124210390Y-105250000D01*
X124173884Y-105246405D01*
X124144687Y-105237548D01*
X124117782Y-105223167D01*
X124094192Y-105203808D01*
X124074833Y-105180218D01*
X124060452Y-105153313D01*
X124051595Y-105124116D01*
X124048000Y-105087610D01*
X124048000Y-104462390D01*
X124051595Y-104425884D01*
X124060452Y-104396687D01*
X124074833Y-104369782D01*
X124094192Y-104346192D01*
X124117782Y-104326833D01*
X124144687Y-104312452D01*
X124173884Y-104303595D01*
X124210390Y-104300000D01*
X124760610Y-104300000D01*
X124797116Y-104303595D01*
X124797116Y-104303595D01*
G37*
G36*
X177204630Y-102667299D02*
X177364855Y-102715903D01*
X177512520Y-102794831D01*
X177641949Y-102901051D01*
X177748169Y-103030480D01*
X177827097Y-103178145D01*
X177875701Y-103338370D01*
X177892112Y-103505000D01*
X177875701Y-103671630D01*
X177827097Y-103831855D01*
X177748169Y-103979520D01*
X177641949Y-104108949D01*
X177512520Y-104215169D01*
X177364855Y-104294097D01*
X177204630Y-104342701D01*
X177079752Y-104355000D01*
X176996248Y-104355000D01*
X176871370Y-104342701D01*
X176711145Y-104294097D01*
X176563480Y-104215169D01*
X176434051Y-104108949D01*
X176327831Y-103979520D01*
X176248903Y-103831855D01*
X176200299Y-103671630D01*
X176183888Y-103505000D01*
X176200299Y-103338370D01*
X176248903Y-103178145D01*
X176327831Y-103030480D01*
X176434051Y-102901051D01*
X176563480Y-102794831D01*
X176711145Y-102715903D01*
X176871370Y-102667299D01*
X176996248Y-102655000D01*
X177079752Y-102655000D01*
X177204630Y-102667299D01*
X177204630Y-102667299D01*
G37*
G36*
X113775112Y-101375565D02*
X113859695Y-101383896D01*
X113980127Y-101420429D01*
X114022488Y-101433279D01*
X114172512Y-101513468D01*
X114304012Y-101621388D01*
X114411932Y-101752888D01*
X114492121Y-101902912D01*
X114504971Y-101945273D01*
X114541504Y-102065705D01*
X114558178Y-102235000D01*
X114541504Y-102404295D01*
X114515126Y-102491250D01*
X114492121Y-102567088D01*
X114411932Y-102717112D01*
X114304012Y-102848612D01*
X114172512Y-102956532D01*
X114022488Y-103036721D01*
X113980127Y-103049571D01*
X113859695Y-103086104D01*
X113775112Y-103094435D01*
X113732821Y-103098600D01*
X113343179Y-103098600D01*
X113300888Y-103094435D01*
X113216305Y-103086104D01*
X113095873Y-103049571D01*
X113053512Y-103036721D01*
X112903488Y-102956532D01*
X112771988Y-102848612D01*
X112664068Y-102717112D01*
X112583879Y-102567088D01*
X112560874Y-102491250D01*
X112534496Y-102404295D01*
X112517822Y-102235000D01*
X112534496Y-102065705D01*
X112571029Y-101945273D01*
X112583879Y-101902912D01*
X112664068Y-101752888D01*
X112771988Y-101621388D01*
X112903488Y-101513468D01*
X113053512Y-101433279D01*
X113095873Y-101420429D01*
X113216305Y-101383896D01*
X113300888Y-101375565D01*
X113343179Y-101371400D01*
X113732821Y-101371400D01*
X113775112Y-101375565D01*
X113775112Y-101375565D01*
G37*
G36*
X123222116Y-101763595D02*
X123251313Y-101772452D01*
X123278218Y-101786833D01*
X123301808Y-101806192D01*
X123321167Y-101829782D01*
X123335548Y-101856687D01*
X123344405Y-101885884D01*
X123348000Y-101922390D01*
X123348000Y-102547610D01*
X123344405Y-102584116D01*
X123335548Y-102613313D01*
X123321167Y-102640218D01*
X123301808Y-102663808D01*
X123278218Y-102683167D01*
X123251313Y-102697548D01*
X123222116Y-102706405D01*
X123185610Y-102710000D01*
X122635390Y-102710000D01*
X122598884Y-102706405D01*
X122569687Y-102697548D01*
X122542782Y-102683167D01*
X122519192Y-102663808D01*
X122499833Y-102640218D01*
X122485452Y-102613313D01*
X122476595Y-102584116D01*
X122473000Y-102547610D01*
X122473000Y-101922390D01*
X122476595Y-101885884D01*
X122485452Y-101856687D01*
X122499833Y-101829782D01*
X122519192Y-101806192D01*
X122542782Y-101786833D01*
X122569687Y-101772452D01*
X122598884Y-101763595D01*
X122635390Y-101760000D01*
X123185610Y-101760000D01*
X123222116Y-101763595D01*
X123222116Y-101763595D01*
G37*
G36*
X124797116Y-101763595D02*
X124826313Y-101772452D01*
X124853218Y-101786833D01*
X124876808Y-101806192D01*
X124896167Y-101829782D01*
X124910548Y-101856687D01*
X124919405Y-101885884D01*
X124923000Y-101922390D01*
X124923000Y-102547610D01*
X124919405Y-102584116D01*
X124910548Y-102613313D01*
X124896167Y-102640218D01*
X124876808Y-102663808D01*
X124853218Y-102683167D01*
X124826313Y-102697548D01*
X124797116Y-102706405D01*
X124760610Y-102710000D01*
X124210390Y-102710000D01*
X124173884Y-102706405D01*
X124144687Y-102697548D01*
X124117782Y-102683167D01*
X124094192Y-102663808D01*
X124074833Y-102640218D01*
X124060452Y-102613313D01*
X124051595Y-102584116D01*
X124048000Y-102547610D01*
X124048000Y-101922390D01*
X124051595Y-101885884D01*
X124060452Y-101856687D01*
X124074833Y-101829782D01*
X124094192Y-101806192D01*
X124117782Y-101786833D01*
X124144687Y-101772452D01*
X124173884Y-101763595D01*
X124210390Y-101760000D01*
X124760610Y-101760000D01*
X124797116Y-101763595D01*
X124797116Y-101763595D01*
G37*
G36*
X177204630Y-100127299D02*
X177364855Y-100175903D01*
X177512520Y-100254831D01*
X177641949Y-100361051D01*
X177748169Y-100490480D01*
X177827097Y-100638145D01*
X177875701Y-100798370D01*
X177892112Y-100965000D01*
X177875701Y-101131630D01*
X177827097Y-101291855D01*
X177748169Y-101439520D01*
X177641949Y-101568949D01*
X177512520Y-101675169D01*
X177364855Y-101754097D01*
X177204630Y-101802701D01*
X177079752Y-101815000D01*
X176996248Y-101815000D01*
X176871370Y-101802701D01*
X176711145Y-101754097D01*
X176563480Y-101675169D01*
X176434051Y-101568949D01*
X176327831Y-101439520D01*
X176248903Y-101291855D01*
X176200299Y-101131630D01*
X176183888Y-100965000D01*
X176200299Y-100798370D01*
X176248903Y-100638145D01*
X176327831Y-100490480D01*
X176434051Y-100361051D01*
X176563480Y-100254831D01*
X176711145Y-100175903D01*
X176871370Y-100127299D01*
X176996248Y-100115000D01*
X177079752Y-100115000D01*
X177204630Y-100127299D01*
X177204630Y-100127299D01*
G37*
G36*
X113775112Y-98835565D02*
X113859695Y-98843896D01*
X113980127Y-98880429D01*
X114022488Y-98893279D01*
X114172512Y-98973468D01*
X114304012Y-99081388D01*
X114411932Y-99212888D01*
X114492121Y-99362912D01*
X114504971Y-99405273D01*
X114541504Y-99525705D01*
X114558178Y-99695000D01*
X114541504Y-99864295D01*
X114515126Y-99951250D01*
X114492121Y-100027088D01*
X114411932Y-100177112D01*
X114304012Y-100308612D01*
X114172512Y-100416532D01*
X114022488Y-100496721D01*
X113980127Y-100509571D01*
X113859695Y-100546104D01*
X113775112Y-100554435D01*
X113732821Y-100558600D01*
X113343179Y-100558600D01*
X113300888Y-100554435D01*
X113216305Y-100546104D01*
X113095873Y-100509571D01*
X113053512Y-100496721D01*
X112903488Y-100416532D01*
X112771988Y-100308612D01*
X112664068Y-100177112D01*
X112583879Y-100027088D01*
X112560874Y-99951250D01*
X112534496Y-99864295D01*
X112517822Y-99695000D01*
X112534496Y-99525705D01*
X112571029Y-99405273D01*
X112583879Y-99362912D01*
X112664068Y-99212888D01*
X112771988Y-99081388D01*
X112903488Y-98973468D01*
X113053512Y-98893279D01*
X113095873Y-98880429D01*
X113216305Y-98843896D01*
X113300888Y-98835565D01*
X113343179Y-98831400D01*
X113732821Y-98831400D01*
X113775112Y-98835565D01*
X113775112Y-98835565D01*
G37*
G36*
X126955002Y-99039928D02*
X126984199Y-99048785D01*
X127011104Y-99063166D01*
X127039471Y-99086446D01*
X127481554Y-99528529D01*
X127504834Y-99556896D01*
X127519215Y-99583801D01*
X127528072Y-99612998D01*
X127531062Y-99643364D01*
X127528072Y-99673730D01*
X127519215Y-99702927D01*
X127504834Y-99729832D01*
X127481554Y-99758199D01*
X127092505Y-100147248D01*
X127064138Y-100170528D01*
X127037233Y-100184909D01*
X127008036Y-100193766D01*
X126977670Y-100196756D01*
X126947304Y-100193766D01*
X126918107Y-100184909D01*
X126891202Y-100170528D01*
X126862835Y-100147248D01*
X126420752Y-99705165D01*
X126397472Y-99676798D01*
X126383091Y-99649893D01*
X126374234Y-99620696D01*
X126371244Y-99590330D01*
X126374234Y-99559964D01*
X126383091Y-99530767D01*
X126397472Y-99503862D01*
X126420752Y-99475495D01*
X126809801Y-99086446D01*
X126838168Y-99063166D01*
X126865073Y-99048785D01*
X126894270Y-99039928D01*
X126924636Y-99036938D01*
X126955002Y-99039928D01*
X126955002Y-99039928D01*
G37*
G36*
X155277116Y-99223595D02*
X155306313Y-99232452D01*
X155333218Y-99246833D01*
X155356808Y-99266192D01*
X155376167Y-99289782D01*
X155390548Y-99316687D01*
X155399405Y-99345884D01*
X155403000Y-99382390D01*
X155403000Y-100007610D01*
X155399405Y-100044116D01*
X155390548Y-100073313D01*
X155376167Y-100100218D01*
X155356808Y-100123808D01*
X155333218Y-100143167D01*
X155306313Y-100157548D01*
X155277116Y-100166405D01*
X155240610Y-100170000D01*
X154690390Y-100170000D01*
X154653884Y-100166405D01*
X154624687Y-100157548D01*
X154597782Y-100143167D01*
X154574192Y-100123808D01*
X154554833Y-100100218D01*
X154540452Y-100073313D01*
X154531595Y-100044116D01*
X154528000Y-100007610D01*
X154528000Y-99382390D01*
X154531595Y-99345884D01*
X154540452Y-99316687D01*
X154554833Y-99289782D01*
X154574192Y-99266192D01*
X154597782Y-99246833D01*
X154624687Y-99232452D01*
X154653884Y-99223595D01*
X154690390Y-99220000D01*
X155240610Y-99220000D01*
X155277116Y-99223595D01*
X155277116Y-99223595D01*
G37*
G36*
X153702116Y-99223595D02*
X153731313Y-99232452D01*
X153758218Y-99246833D01*
X153781808Y-99266192D01*
X153801167Y-99289782D01*
X153815548Y-99316687D01*
X153824405Y-99345884D01*
X153828000Y-99382390D01*
X153828000Y-100007610D01*
X153824405Y-100044116D01*
X153815548Y-100073313D01*
X153801167Y-100100218D01*
X153781808Y-100123808D01*
X153758218Y-100143167D01*
X153731313Y-100157548D01*
X153702116Y-100166405D01*
X153665610Y-100170000D01*
X153115390Y-100170000D01*
X153078884Y-100166405D01*
X153049687Y-100157548D01*
X153022782Y-100143167D01*
X152999192Y-100123808D01*
X152979833Y-100100218D01*
X152965452Y-100073313D01*
X152956595Y-100044116D01*
X152953000Y-100007610D01*
X152953000Y-99382390D01*
X152956595Y-99345884D01*
X152965452Y-99316687D01*
X152979833Y-99289782D01*
X152999192Y-99266192D01*
X153022782Y-99246833D01*
X153049687Y-99232452D01*
X153078884Y-99223595D01*
X153115390Y-99220000D01*
X153665610Y-99220000D01*
X153702116Y-99223595D01*
X153702116Y-99223595D01*
G37*
G36*
X147657116Y-99223595D02*
X147686313Y-99232452D01*
X147713218Y-99246833D01*
X147736808Y-99266192D01*
X147756167Y-99289782D01*
X147770548Y-99316687D01*
X147779405Y-99345884D01*
X147783000Y-99382390D01*
X147783000Y-100007610D01*
X147779405Y-100044116D01*
X147770548Y-100073313D01*
X147756167Y-100100218D01*
X147736808Y-100123808D01*
X147713218Y-100143167D01*
X147686313Y-100157548D01*
X147657116Y-100166405D01*
X147620610Y-100170000D01*
X147070390Y-100170000D01*
X147033884Y-100166405D01*
X147004687Y-100157548D01*
X146977782Y-100143167D01*
X146954192Y-100123808D01*
X146934833Y-100100218D01*
X146920452Y-100073313D01*
X146911595Y-100044116D01*
X146908000Y-100007610D01*
X146908000Y-99382390D01*
X146911595Y-99345884D01*
X146920452Y-99316687D01*
X146934833Y-99289782D01*
X146954192Y-99266192D01*
X146977782Y-99246833D01*
X147004687Y-99232452D01*
X147033884Y-99223595D01*
X147070390Y-99220000D01*
X147620610Y-99220000D01*
X147657116Y-99223595D01*
X147657116Y-99223595D01*
G37*
G36*
X146082116Y-99223595D02*
X146111313Y-99232452D01*
X146138218Y-99246833D01*
X146161808Y-99266192D01*
X146181167Y-99289782D01*
X146195548Y-99316687D01*
X146204405Y-99345884D01*
X146208000Y-99382390D01*
X146208000Y-100007610D01*
X146204405Y-100044116D01*
X146195548Y-100073313D01*
X146181167Y-100100218D01*
X146161808Y-100123808D01*
X146138218Y-100143167D01*
X146111313Y-100157548D01*
X146082116Y-100166405D01*
X146045610Y-100170000D01*
X145495390Y-100170000D01*
X145458884Y-100166405D01*
X145429687Y-100157548D01*
X145402782Y-100143167D01*
X145379192Y-100123808D01*
X145359833Y-100100218D01*
X145345452Y-100073313D01*
X145336595Y-100044116D01*
X145333000Y-100007610D01*
X145333000Y-99382390D01*
X145336595Y-99345884D01*
X145345452Y-99316687D01*
X145359833Y-99289782D01*
X145379192Y-99266192D01*
X145402782Y-99246833D01*
X145429687Y-99232452D01*
X145458884Y-99223595D01*
X145495390Y-99220000D01*
X146045610Y-99220000D01*
X146082116Y-99223595D01*
X146082116Y-99223595D01*
G37*
G36*
X124797116Y-99223595D02*
X124826313Y-99232452D01*
X124853218Y-99246833D01*
X124876808Y-99266192D01*
X124896167Y-99289782D01*
X124910548Y-99316687D01*
X124919405Y-99345884D01*
X124923000Y-99382390D01*
X124923000Y-100007610D01*
X124919405Y-100044116D01*
X124910548Y-100073313D01*
X124896167Y-100100218D01*
X124876808Y-100123808D01*
X124853218Y-100143167D01*
X124826313Y-100157548D01*
X124797116Y-100166405D01*
X124760610Y-100170000D01*
X124210390Y-100170000D01*
X124173884Y-100166405D01*
X124144687Y-100157548D01*
X124117782Y-100143167D01*
X124094192Y-100123808D01*
X124074833Y-100100218D01*
X124060452Y-100073313D01*
X124051595Y-100044116D01*
X124048000Y-100007610D01*
X124048000Y-99382390D01*
X124051595Y-99345884D01*
X124060452Y-99316687D01*
X124074833Y-99289782D01*
X124094192Y-99266192D01*
X124117782Y-99246833D01*
X124144687Y-99232452D01*
X124173884Y-99223595D01*
X124210390Y-99220000D01*
X124760610Y-99220000D01*
X124797116Y-99223595D01*
X124797116Y-99223595D01*
G37*
G36*
X123222116Y-99223595D02*
X123251313Y-99232452D01*
X123278218Y-99246833D01*
X123301808Y-99266192D01*
X123321167Y-99289782D01*
X123335548Y-99316687D01*
X123344405Y-99345884D01*
X123348000Y-99382390D01*
X123348000Y-100007610D01*
X123344405Y-100044116D01*
X123335548Y-100073313D01*
X123321167Y-100100218D01*
X123301808Y-100123808D01*
X123278218Y-100143167D01*
X123251313Y-100157548D01*
X123222116Y-100166405D01*
X123185610Y-100170000D01*
X122635390Y-100170000D01*
X122598884Y-100166405D01*
X122569687Y-100157548D01*
X122542782Y-100143167D01*
X122519192Y-100123808D01*
X122499833Y-100100218D01*
X122485452Y-100073313D01*
X122476595Y-100044116D01*
X122473000Y-100007610D01*
X122473000Y-99382390D01*
X122476595Y-99345884D01*
X122485452Y-99316687D01*
X122499833Y-99289782D01*
X122519192Y-99266192D01*
X122542782Y-99246833D01*
X122569687Y-99232452D01*
X122598884Y-99223595D01*
X122635390Y-99220000D01*
X123185610Y-99220000D01*
X123222116Y-99223595D01*
X123222116Y-99223595D01*
G37*
G36*
X177204630Y-97587299D02*
X177364855Y-97635903D01*
X177512520Y-97714831D01*
X177641949Y-97821051D01*
X177748169Y-97950480D01*
X177827097Y-98098145D01*
X177875701Y-98258370D01*
X177892112Y-98425000D01*
X177875701Y-98591630D01*
X177827097Y-98751855D01*
X177748169Y-98899520D01*
X177641949Y-99028949D01*
X177512520Y-99135169D01*
X177364855Y-99214097D01*
X177204630Y-99262701D01*
X177079752Y-99275000D01*
X176996248Y-99275000D01*
X176871370Y-99262701D01*
X176711145Y-99214097D01*
X176563480Y-99135169D01*
X176434051Y-99028949D01*
X176327831Y-98899520D01*
X176248903Y-98751855D01*
X176200299Y-98591630D01*
X176183888Y-98425000D01*
X176200299Y-98258370D01*
X176248903Y-98098145D01*
X176327831Y-97950480D01*
X176434051Y-97821051D01*
X176563480Y-97714831D01*
X176711145Y-97635903D01*
X176871370Y-97587299D01*
X176996248Y-97575000D01*
X177079752Y-97575000D01*
X177204630Y-97587299D01*
X177204630Y-97587299D01*
G37*
G36*
X128068696Y-97926234D02*
X128097893Y-97935091D01*
X128124798Y-97949472D01*
X128153165Y-97972752D01*
X128595248Y-98414835D01*
X128618528Y-98443202D01*
X128632909Y-98470107D01*
X128641766Y-98499304D01*
X128644756Y-98529670D01*
X128641766Y-98560036D01*
X128632909Y-98589233D01*
X128618528Y-98616138D01*
X128595248Y-98644505D01*
X128206199Y-99033554D01*
X128177832Y-99056834D01*
X128150927Y-99071215D01*
X128121730Y-99080072D01*
X128091364Y-99083062D01*
X128060998Y-99080072D01*
X128031801Y-99071215D01*
X128004896Y-99056834D01*
X127976529Y-99033554D01*
X127534446Y-98591471D01*
X127511166Y-98563104D01*
X127496785Y-98536199D01*
X127487928Y-98507002D01*
X127484938Y-98476636D01*
X127487928Y-98446270D01*
X127496785Y-98417073D01*
X127511166Y-98390168D01*
X127534446Y-98361801D01*
X127923495Y-97972752D01*
X127951862Y-97949472D01*
X127978767Y-97935091D01*
X128007964Y-97926234D01*
X128038330Y-97923244D01*
X128068696Y-97926234D01*
X128068696Y-97926234D01*
G37*
G36*
X113775112Y-96295565D02*
X113859695Y-96303896D01*
X113980127Y-96340429D01*
X114022488Y-96353279D01*
X114172512Y-96433468D01*
X114304012Y-96541388D01*
X114411932Y-96672888D01*
X114492121Y-96822912D01*
X114504971Y-96865273D01*
X114541504Y-96985705D01*
X114558178Y-97155000D01*
X114541504Y-97324295D01*
X114515126Y-97411250D01*
X114492121Y-97487088D01*
X114411932Y-97637112D01*
X114304012Y-97768612D01*
X114172512Y-97876532D01*
X114022488Y-97956721D01*
X113994609Y-97965178D01*
X113859695Y-98006104D01*
X113793770Y-98012597D01*
X113732821Y-98018600D01*
X113343179Y-98018600D01*
X113282230Y-98012597D01*
X113216305Y-98006104D01*
X113081391Y-97965178D01*
X113053512Y-97956721D01*
X112903488Y-97876532D01*
X112771988Y-97768612D01*
X112664068Y-97637112D01*
X112583879Y-97487088D01*
X112560874Y-97411250D01*
X112534496Y-97324295D01*
X112517822Y-97155000D01*
X112534496Y-96985705D01*
X112571029Y-96865273D01*
X112583879Y-96822912D01*
X112664068Y-96672888D01*
X112771988Y-96541388D01*
X112903488Y-96433468D01*
X113053512Y-96353279D01*
X113095873Y-96340429D01*
X113216305Y-96303896D01*
X113300888Y-96295565D01*
X113343179Y-96291400D01*
X113732821Y-96291400D01*
X113775112Y-96295565D01*
X113775112Y-96295565D01*
G37*
G36*
X126955002Y-96578081D02*
X126984199Y-96586938D01*
X127011104Y-96601319D01*
X127039471Y-96624599D01*
X127481554Y-97066682D01*
X127504834Y-97095049D01*
X127519215Y-97121954D01*
X127528072Y-97151151D01*
X127531062Y-97181517D01*
X127528072Y-97211883D01*
X127519215Y-97241080D01*
X127504834Y-97267985D01*
X127481554Y-97296352D01*
X127092505Y-97685401D01*
X127064138Y-97708681D01*
X127037233Y-97723062D01*
X127008036Y-97731919D01*
X126977670Y-97734909D01*
X126947304Y-97731919D01*
X126918107Y-97723062D01*
X126891202Y-97708681D01*
X126862835Y-97685401D01*
X126420752Y-97243318D01*
X126397472Y-97214951D01*
X126383091Y-97188046D01*
X126374234Y-97158849D01*
X126371244Y-97128483D01*
X126374234Y-97098117D01*
X126383091Y-97068920D01*
X126397472Y-97042015D01*
X126420752Y-97013648D01*
X126809801Y-96624599D01*
X126838168Y-96601319D01*
X126865073Y-96586938D01*
X126894270Y-96578081D01*
X126924636Y-96575091D01*
X126955002Y-96578081D01*
X126955002Y-96578081D01*
G37*
G36*
X146082116Y-96683595D02*
X146111313Y-96692452D01*
X146138218Y-96706833D01*
X146161808Y-96726192D01*
X146181167Y-96749782D01*
X146195548Y-96776687D01*
X146204405Y-96805884D01*
X146208000Y-96842390D01*
X146208000Y-97467610D01*
X146204405Y-97504116D01*
X146195548Y-97533313D01*
X146181167Y-97560218D01*
X146161808Y-97583808D01*
X146138218Y-97603167D01*
X146111313Y-97617548D01*
X146082116Y-97626405D01*
X146045610Y-97630000D01*
X145495390Y-97630000D01*
X145458884Y-97626405D01*
X145429687Y-97617548D01*
X145402782Y-97603167D01*
X145379192Y-97583808D01*
X145359833Y-97560218D01*
X145345452Y-97533313D01*
X145336595Y-97504116D01*
X145333000Y-97467610D01*
X145333000Y-96842390D01*
X145336595Y-96805884D01*
X145345452Y-96776687D01*
X145359833Y-96749782D01*
X145379192Y-96726192D01*
X145402782Y-96706833D01*
X145429687Y-96692452D01*
X145458884Y-96683595D01*
X145495390Y-96680000D01*
X146045610Y-96680000D01*
X146082116Y-96683595D01*
X146082116Y-96683595D01*
G37*
G36*
X123222116Y-96683595D02*
X123251313Y-96692452D01*
X123278218Y-96706833D01*
X123301808Y-96726192D01*
X123321167Y-96749782D01*
X123335548Y-96776687D01*
X123344405Y-96805884D01*
X123348000Y-96842390D01*
X123348000Y-97467610D01*
X123344405Y-97504116D01*
X123335548Y-97533313D01*
X123321167Y-97560218D01*
X123301808Y-97583808D01*
X123278218Y-97603167D01*
X123251313Y-97617548D01*
X123222116Y-97626405D01*
X123185610Y-97630000D01*
X122635390Y-97630000D01*
X122598884Y-97626405D01*
X122569687Y-97617548D01*
X122542782Y-97603167D01*
X122519192Y-97583808D01*
X122499833Y-97560218D01*
X122485452Y-97533313D01*
X122476595Y-97504116D01*
X122473000Y-97467610D01*
X122473000Y-96842390D01*
X122476595Y-96805884D01*
X122485452Y-96776687D01*
X122499833Y-96749782D01*
X122519192Y-96726192D01*
X122542782Y-96706833D01*
X122569687Y-96692452D01*
X122598884Y-96683595D01*
X122635390Y-96680000D01*
X123185610Y-96680000D01*
X123222116Y-96683595D01*
X123222116Y-96683595D01*
G37*
G36*
X124797116Y-96683595D02*
X124826313Y-96692452D01*
X124853218Y-96706833D01*
X124876808Y-96726192D01*
X124896167Y-96749782D01*
X124910548Y-96776687D01*
X124919405Y-96805884D01*
X124923000Y-96842390D01*
X124923000Y-97467610D01*
X124919405Y-97504116D01*
X124910548Y-97533313D01*
X124896167Y-97560218D01*
X124876808Y-97583808D01*
X124853218Y-97603167D01*
X124826313Y-97617548D01*
X124797116Y-97626405D01*
X124760610Y-97630000D01*
X124210390Y-97630000D01*
X124173884Y-97626405D01*
X124144687Y-97617548D01*
X124117782Y-97603167D01*
X124094192Y-97583808D01*
X124074833Y-97560218D01*
X124060452Y-97533313D01*
X124051595Y-97504116D01*
X124048000Y-97467610D01*
X124048000Y-96842390D01*
X124051595Y-96805884D01*
X124060452Y-96776687D01*
X124074833Y-96749782D01*
X124094192Y-96726192D01*
X124117782Y-96706833D01*
X124144687Y-96692452D01*
X124173884Y-96683595D01*
X124210390Y-96680000D01*
X124760610Y-96680000D01*
X124797116Y-96683595D01*
X124797116Y-96683595D01*
G37*
G36*
X153702116Y-96683595D02*
X153731313Y-96692452D01*
X153758218Y-96706833D01*
X153781808Y-96726192D01*
X153801167Y-96749782D01*
X153815548Y-96776687D01*
X153824405Y-96805884D01*
X153828000Y-96842390D01*
X153828000Y-97467610D01*
X153824405Y-97504116D01*
X153815548Y-97533313D01*
X153801167Y-97560218D01*
X153781808Y-97583808D01*
X153758218Y-97603167D01*
X153731313Y-97617548D01*
X153702116Y-97626405D01*
X153665610Y-97630000D01*
X153115390Y-97630000D01*
X153078884Y-97626405D01*
X153049687Y-97617548D01*
X153022782Y-97603167D01*
X152999192Y-97583808D01*
X152979833Y-97560218D01*
X152965452Y-97533313D01*
X152956595Y-97504116D01*
X152953000Y-97467610D01*
X152953000Y-96842390D01*
X152956595Y-96805884D01*
X152965452Y-96776687D01*
X152979833Y-96749782D01*
X152999192Y-96726192D01*
X153022782Y-96706833D01*
X153049687Y-96692452D01*
X153078884Y-96683595D01*
X153115390Y-96680000D01*
X153665610Y-96680000D01*
X153702116Y-96683595D01*
X153702116Y-96683595D01*
G37*
G36*
X147657116Y-96683595D02*
X147686313Y-96692452D01*
X147713218Y-96706833D01*
X147736808Y-96726192D01*
X147756167Y-96749782D01*
X147770548Y-96776687D01*
X147779405Y-96805884D01*
X147783000Y-96842390D01*
X147783000Y-97467610D01*
X147779405Y-97504116D01*
X147770548Y-97533313D01*
X147756167Y-97560218D01*
X147736808Y-97583808D01*
X147713218Y-97603167D01*
X147686313Y-97617548D01*
X147657116Y-97626405D01*
X147620610Y-97630000D01*
X147070390Y-97630000D01*
X147033884Y-97626405D01*
X147004687Y-97617548D01*
X146977782Y-97603167D01*
X146954192Y-97583808D01*
X146934833Y-97560218D01*
X146920452Y-97533313D01*
X146911595Y-97504116D01*
X146908000Y-97467610D01*
X146908000Y-96842390D01*
X146911595Y-96805884D01*
X146920452Y-96776687D01*
X146934833Y-96749782D01*
X146954192Y-96726192D01*
X146977782Y-96706833D01*
X147004687Y-96692452D01*
X147033884Y-96683595D01*
X147070390Y-96680000D01*
X147620610Y-96680000D01*
X147657116Y-96683595D01*
X147657116Y-96683595D01*
G37*
G36*
X155277116Y-96683595D02*
X155306313Y-96692452D01*
X155333218Y-96706833D01*
X155356808Y-96726192D01*
X155376167Y-96749782D01*
X155390548Y-96776687D01*
X155399405Y-96805884D01*
X155403000Y-96842390D01*
X155403000Y-97467610D01*
X155399405Y-97504116D01*
X155390548Y-97533313D01*
X155376167Y-97560218D01*
X155356808Y-97583808D01*
X155333218Y-97603167D01*
X155306313Y-97617548D01*
X155277116Y-97626405D01*
X155240610Y-97630000D01*
X154690390Y-97630000D01*
X154653884Y-97626405D01*
X154624687Y-97617548D01*
X154597782Y-97603167D01*
X154574192Y-97583808D01*
X154554833Y-97560218D01*
X154540452Y-97533313D01*
X154531595Y-97504116D01*
X154528000Y-97467610D01*
X154528000Y-96842390D01*
X154531595Y-96805884D01*
X154540452Y-96776687D01*
X154554833Y-96749782D01*
X154574192Y-96726192D01*
X154597782Y-96706833D01*
X154624687Y-96692452D01*
X154653884Y-96683595D01*
X154690390Y-96680000D01*
X155240610Y-96680000D01*
X155277116Y-96683595D01*
X155277116Y-96683595D01*
G37*
G36*
X177888000Y-96735000D02*
X176188000Y-96735000D01*
X176188000Y-95035000D01*
X177888000Y-95035000D01*
X177888000Y-96735000D01*
X177888000Y-96735000D01*
G37*
G36*
X128068696Y-95464387D02*
X128097893Y-95473244D01*
X128124798Y-95487625D01*
X128153165Y-95510905D01*
X128595248Y-95952988D01*
X128618528Y-95981355D01*
X128632909Y-96008260D01*
X128641766Y-96037457D01*
X128644756Y-96067823D01*
X128641766Y-96098189D01*
X128632909Y-96127386D01*
X128618528Y-96154291D01*
X128595248Y-96182658D01*
X128206199Y-96571707D01*
X128177832Y-96594987D01*
X128150927Y-96609368D01*
X128121730Y-96618225D01*
X128091364Y-96621215D01*
X128060998Y-96618225D01*
X128031801Y-96609368D01*
X128004896Y-96594987D01*
X127976529Y-96571707D01*
X127534446Y-96129624D01*
X127511166Y-96101257D01*
X127496785Y-96074352D01*
X127487928Y-96045155D01*
X127484938Y-96014789D01*
X127487928Y-95984423D01*
X127496785Y-95955226D01*
X127511166Y-95928321D01*
X127534446Y-95899954D01*
X127923495Y-95510905D01*
X127951862Y-95487625D01*
X127978767Y-95473244D01*
X128007964Y-95464387D01*
X128038330Y-95461397D01*
X128068696Y-95464387D01*
X128068696Y-95464387D01*
G37*
G36*
X113775112Y-93755565D02*
X113859695Y-93763896D01*
X113980127Y-93800429D01*
X114022488Y-93813279D01*
X114172512Y-93893468D01*
X114304012Y-94001388D01*
X114411932Y-94132888D01*
X114492121Y-94282912D01*
X114502565Y-94317342D01*
X114541504Y-94445705D01*
X114558178Y-94615000D01*
X114541504Y-94784295D01*
X114515126Y-94871250D01*
X114492121Y-94947088D01*
X114411932Y-95097112D01*
X114304012Y-95228612D01*
X114172512Y-95336532D01*
X114022488Y-95416721D01*
X113980127Y-95429571D01*
X113859695Y-95466104D01*
X113787201Y-95473244D01*
X113732821Y-95478600D01*
X113343179Y-95478600D01*
X113288799Y-95473244D01*
X113216305Y-95466104D01*
X113095873Y-95429571D01*
X113053512Y-95416721D01*
X112903488Y-95336532D01*
X112771988Y-95228612D01*
X112664068Y-95097112D01*
X112583879Y-94947088D01*
X112560874Y-94871250D01*
X112534496Y-94784295D01*
X112517822Y-94615000D01*
X112534496Y-94445705D01*
X112573435Y-94317342D01*
X112583879Y-94282912D01*
X112664068Y-94132888D01*
X112771988Y-94001388D01*
X112903488Y-93893468D01*
X113053512Y-93813279D01*
X113095873Y-93800429D01*
X113216305Y-93763896D01*
X113300888Y-93755565D01*
X113343179Y-93751400D01*
X113732821Y-93751400D01*
X113775112Y-93755565D01*
X113775112Y-93755565D01*
G37*
G36*
X124797116Y-94143595D02*
X124826313Y-94152452D01*
X124853218Y-94166833D01*
X124876808Y-94186192D01*
X124896167Y-94209782D01*
X124910548Y-94236687D01*
X124919405Y-94265884D01*
X124923000Y-94302390D01*
X124923000Y-94927610D01*
X124919405Y-94964116D01*
X124910548Y-94993313D01*
X124896167Y-95020218D01*
X124876808Y-95043808D01*
X124853218Y-95063167D01*
X124826313Y-95077548D01*
X124797116Y-95086405D01*
X124760610Y-95090000D01*
X124210390Y-95090000D01*
X124173884Y-95086405D01*
X124144687Y-95077548D01*
X124117782Y-95063167D01*
X124094192Y-95043808D01*
X124074833Y-95020218D01*
X124060452Y-94993313D01*
X124051595Y-94964116D01*
X124048000Y-94927610D01*
X124048000Y-94302390D01*
X124051595Y-94265884D01*
X124060452Y-94236687D01*
X124074833Y-94209782D01*
X124094192Y-94186192D01*
X124117782Y-94166833D01*
X124144687Y-94152452D01*
X124173884Y-94143595D01*
X124210390Y-94140000D01*
X124760610Y-94140000D01*
X124797116Y-94143595D01*
X124797116Y-94143595D01*
G37*
G36*
X123222116Y-94143595D02*
X123251313Y-94152452D01*
X123278218Y-94166833D01*
X123301808Y-94186192D01*
X123321167Y-94209782D01*
X123335548Y-94236687D01*
X123344405Y-94265884D01*
X123348000Y-94302390D01*
X123348000Y-94927610D01*
X123344405Y-94964116D01*
X123335548Y-94993313D01*
X123321167Y-95020218D01*
X123301808Y-95043808D01*
X123278218Y-95063167D01*
X123251313Y-95077548D01*
X123222116Y-95086405D01*
X123185610Y-95090000D01*
X122635390Y-95090000D01*
X122598884Y-95086405D01*
X122569687Y-95077548D01*
X122542782Y-95063167D01*
X122519192Y-95043808D01*
X122499833Y-95020218D01*
X122485452Y-94993313D01*
X122476595Y-94964116D01*
X122473000Y-94927610D01*
X122473000Y-94302390D01*
X122476595Y-94265884D01*
X122485452Y-94236687D01*
X122499833Y-94209782D01*
X122519192Y-94186192D01*
X122542782Y-94166833D01*
X122569687Y-94152452D01*
X122598884Y-94143595D01*
X122635390Y-94140000D01*
X123185610Y-94140000D01*
X123222116Y-94143595D01*
X123222116Y-94143595D01*
G37*
G36*
X126398155Y-93881775D02*
X126427352Y-93890632D01*
X126454257Y-93905013D01*
X126482624Y-93928293D01*
X126924707Y-94370376D01*
X126947987Y-94398743D01*
X126962368Y-94425648D01*
X126971225Y-94454845D01*
X126974215Y-94485211D01*
X126971225Y-94515577D01*
X126962368Y-94544774D01*
X126947987Y-94571679D01*
X126924707Y-94600046D01*
X126535658Y-94989095D01*
X126507291Y-95012375D01*
X126480386Y-95026756D01*
X126451189Y-95035613D01*
X126420823Y-95038603D01*
X126390457Y-95035613D01*
X126361260Y-95026756D01*
X126334355Y-95012375D01*
X126305988Y-94989095D01*
X125863905Y-94547012D01*
X125840625Y-94518645D01*
X125826244Y-94491740D01*
X125817387Y-94462543D01*
X125814397Y-94432177D01*
X125817387Y-94401811D01*
X125826244Y-94372614D01*
X125840625Y-94345709D01*
X125863905Y-94317342D01*
X126252954Y-93928293D01*
X126281321Y-93905013D01*
X126308226Y-93890632D01*
X126337423Y-93881775D01*
X126367789Y-93878785D01*
X126398155Y-93881775D01*
X126398155Y-93881775D01*
G37*
G36*
X127511849Y-92768081D02*
X127541046Y-92776938D01*
X127567951Y-92791319D01*
X127596318Y-92814599D01*
X128038401Y-93256682D01*
X128061681Y-93285049D01*
X128076062Y-93311954D01*
X128084919Y-93341151D01*
X128087909Y-93371517D01*
X128084919Y-93401883D01*
X128076062Y-93431080D01*
X128061681Y-93457985D01*
X128038401Y-93486352D01*
X127649352Y-93875401D01*
X127620985Y-93898681D01*
X127594080Y-93913062D01*
X127564883Y-93921919D01*
X127534517Y-93924909D01*
X127504151Y-93921919D01*
X127474954Y-93913062D01*
X127448049Y-93898681D01*
X127419682Y-93875401D01*
X126977599Y-93433318D01*
X126954319Y-93404951D01*
X126939938Y-93378046D01*
X126931081Y-93348849D01*
X126928091Y-93318483D01*
X126931081Y-93288117D01*
X126939938Y-93258920D01*
X126954319Y-93232015D01*
X126977599Y-93203648D01*
X127366648Y-92814599D01*
X127395015Y-92791319D01*
X127421920Y-92776938D01*
X127451117Y-92768081D01*
X127481483Y-92765091D01*
X127511849Y-92768081D01*
X127511849Y-92768081D01*
G37*
G36*
X113775112Y-91215565D02*
X113859695Y-91223896D01*
X113980127Y-91260429D01*
X114022488Y-91273279D01*
X114172512Y-91353468D01*
X114304012Y-91461388D01*
X114411932Y-91592888D01*
X114492121Y-91742912D01*
X114504971Y-91785273D01*
X114541504Y-91905705D01*
X114558178Y-92075000D01*
X114541504Y-92244295D01*
X114515126Y-92331250D01*
X114492121Y-92407088D01*
X114411932Y-92557112D01*
X114304012Y-92688612D01*
X114172512Y-92796532D01*
X114022488Y-92876721D01*
X113980127Y-92889571D01*
X113859695Y-92926104D01*
X113775112Y-92934435D01*
X113732821Y-92938600D01*
X113343179Y-92938600D01*
X113300888Y-92934435D01*
X113216305Y-92926104D01*
X113095873Y-92889571D01*
X113053512Y-92876721D01*
X112903488Y-92796532D01*
X112771988Y-92688612D01*
X112664068Y-92557112D01*
X112583879Y-92407088D01*
X112560874Y-92331250D01*
X112534496Y-92244295D01*
X112517822Y-92075000D01*
X112534496Y-91905705D01*
X112571029Y-91785273D01*
X112583879Y-91742912D01*
X112664068Y-91592888D01*
X112771988Y-91461388D01*
X112903488Y-91353468D01*
X113053512Y-91273279D01*
X113095873Y-91260429D01*
X113216305Y-91223896D01*
X113300888Y-91215565D01*
X113343179Y-91211400D01*
X113732821Y-91211400D01*
X113775112Y-91215565D01*
X113775112Y-91215565D01*
G37*
G36*
X177630712Y-88851088D02*
X178000510Y-89004263D01*
X178000513Y-89004265D01*
X178333325Y-89226643D01*
X178616357Y-89509675D01*
X178833015Y-89833926D01*
X178838737Y-89842490D01*
X178991912Y-90212288D01*
X179070000Y-90604864D01*
X179070000Y-91005136D01*
X178991912Y-91397712D01*
X178838737Y-91767510D01*
X178838735Y-91767513D01*
X178616357Y-92100325D01*
X178333325Y-92383357D01*
X178083926Y-92550000D01*
X178000510Y-92605737D01*
X177630712Y-92758912D01*
X177238136Y-92837000D01*
X176837864Y-92837000D01*
X176445288Y-92758912D01*
X176075490Y-92605737D01*
X175992074Y-92550000D01*
X175742675Y-92383357D01*
X175459643Y-92100325D01*
X175237265Y-91767513D01*
X175237263Y-91767510D01*
X175084088Y-91397712D01*
X175006000Y-91005136D01*
X175006000Y-90604864D01*
X175084088Y-90212288D01*
X175237263Y-89842490D01*
X175242985Y-89833926D01*
X175459643Y-89509675D01*
X175742675Y-89226643D01*
X176075487Y-89004265D01*
X176075490Y-89004263D01*
X176445288Y-88851088D01*
X176837864Y-88773000D01*
X177238136Y-88773000D01*
X177630712Y-88851088D01*
X177630712Y-88851088D01*
G37*
G36*
X126241849Y-91498081D02*
X126271046Y-91506938D01*
X126297951Y-91521319D01*
X126326318Y-91544599D01*
X126768401Y-91986682D01*
X126791681Y-92015049D01*
X126806062Y-92041954D01*
X126814919Y-92071151D01*
X126817909Y-92101517D01*
X126814919Y-92131883D01*
X126806062Y-92161080D01*
X126791681Y-92187985D01*
X126768401Y-92216352D01*
X126379352Y-92605401D01*
X126350985Y-92628681D01*
X126324080Y-92643062D01*
X126294883Y-92651919D01*
X126264517Y-92654909D01*
X126234151Y-92651919D01*
X126204954Y-92643062D01*
X126178049Y-92628681D01*
X126149682Y-92605401D01*
X125707599Y-92163318D01*
X125684319Y-92134951D01*
X125669938Y-92108046D01*
X125661081Y-92078849D01*
X125658091Y-92048483D01*
X125661081Y-92018117D01*
X125669938Y-91988920D01*
X125684319Y-91962015D01*
X125707599Y-91933648D01*
X126096648Y-91544599D01*
X126125015Y-91521319D01*
X126151920Y-91506938D01*
X126181117Y-91498081D01*
X126211483Y-91495091D01*
X126241849Y-91498081D01*
X126241849Y-91498081D01*
G37*
G36*
X124797116Y-91603595D02*
X124826313Y-91612452D01*
X124853218Y-91626833D01*
X124876808Y-91646192D01*
X124896167Y-91669782D01*
X124910548Y-91696687D01*
X124919405Y-91725884D01*
X124923000Y-91762390D01*
X124923000Y-92387610D01*
X124919405Y-92424116D01*
X124910548Y-92453313D01*
X124896167Y-92480218D01*
X124876808Y-92503808D01*
X124853218Y-92523167D01*
X124826313Y-92537548D01*
X124797116Y-92546405D01*
X124760610Y-92550000D01*
X124210390Y-92550000D01*
X124173884Y-92546405D01*
X124144687Y-92537548D01*
X124117782Y-92523167D01*
X124094192Y-92503808D01*
X124074833Y-92480218D01*
X124060452Y-92453313D01*
X124051595Y-92424116D01*
X124048000Y-92387610D01*
X124048000Y-91762390D01*
X124051595Y-91725884D01*
X124060452Y-91696687D01*
X124074833Y-91669782D01*
X124094192Y-91646192D01*
X124117782Y-91626833D01*
X124144687Y-91612452D01*
X124173884Y-91603595D01*
X124210390Y-91600000D01*
X124760610Y-91600000D01*
X124797116Y-91603595D01*
X124797116Y-91603595D01*
G37*
G36*
X123222116Y-91603595D02*
X123251313Y-91612452D01*
X123278218Y-91626833D01*
X123301808Y-91646192D01*
X123321167Y-91669782D01*
X123335548Y-91696687D01*
X123344405Y-91725884D01*
X123348000Y-91762390D01*
X123348000Y-92387610D01*
X123344405Y-92424116D01*
X123335548Y-92453313D01*
X123321167Y-92480218D01*
X123301808Y-92503808D01*
X123278218Y-92523167D01*
X123251313Y-92537548D01*
X123222116Y-92546405D01*
X123185610Y-92550000D01*
X122635390Y-92550000D01*
X122598884Y-92546405D01*
X122569687Y-92537548D01*
X122542782Y-92523167D01*
X122519192Y-92503808D01*
X122499833Y-92480218D01*
X122485452Y-92453313D01*
X122476595Y-92424116D01*
X122473000Y-92387610D01*
X122473000Y-91762390D01*
X122476595Y-91725884D01*
X122485452Y-91696687D01*
X122499833Y-91669782D01*
X122519192Y-91646192D01*
X122542782Y-91626833D01*
X122569687Y-91612452D01*
X122598884Y-91603595D01*
X122635390Y-91600000D01*
X123185610Y-91600000D01*
X123222116Y-91603595D01*
X123222116Y-91603595D01*
G37*
G36*
X127355543Y-90384387D02*
X127384740Y-90393244D01*
X127411645Y-90407625D01*
X127440012Y-90430905D01*
X127882095Y-90872988D01*
X127905375Y-90901355D01*
X127919756Y-90928260D01*
X127928613Y-90957457D01*
X127931603Y-90987823D01*
X127928613Y-91018189D01*
X127919756Y-91047386D01*
X127905375Y-91074291D01*
X127882095Y-91102658D01*
X127493046Y-91491707D01*
X127464679Y-91514987D01*
X127437774Y-91529368D01*
X127408577Y-91538225D01*
X127378211Y-91541215D01*
X127347845Y-91538225D01*
X127318648Y-91529368D01*
X127291743Y-91514987D01*
X127263376Y-91491707D01*
X126821293Y-91049624D01*
X126798013Y-91021257D01*
X126783632Y-90994352D01*
X126774775Y-90965155D01*
X126771785Y-90934789D01*
X126774775Y-90904423D01*
X126783632Y-90875226D01*
X126798013Y-90848321D01*
X126821293Y-90819954D01*
X127210342Y-90430905D01*
X127238709Y-90407625D01*
X127265614Y-90393244D01*
X127294811Y-90384387D01*
X127325177Y-90381397D01*
X127355543Y-90384387D01*
X127355543Y-90384387D01*
G37*
G36*
X113775112Y-88675565D02*
X113859695Y-88683896D01*
X113980127Y-88720429D01*
X114022488Y-88733279D01*
X114172512Y-88813468D01*
X114304012Y-88921388D01*
X114411932Y-89052888D01*
X114492121Y-89202912D01*
X114504971Y-89245273D01*
X114541504Y-89365705D01*
X114558178Y-89535000D01*
X114541504Y-89704295D01*
X114515126Y-89791250D01*
X114492121Y-89867088D01*
X114411932Y-90017112D01*
X114304012Y-90148612D01*
X114172512Y-90256532D01*
X114022488Y-90336721D01*
X113980127Y-90349571D01*
X113859695Y-90386104D01*
X113787201Y-90393244D01*
X113732821Y-90398600D01*
X113343179Y-90398600D01*
X113288799Y-90393244D01*
X113216305Y-90386104D01*
X113095873Y-90349571D01*
X113053512Y-90336721D01*
X112903488Y-90256532D01*
X112771988Y-90148612D01*
X112664068Y-90017112D01*
X112583879Y-89867088D01*
X112560874Y-89791250D01*
X112534496Y-89704295D01*
X112517822Y-89535000D01*
X112534496Y-89365705D01*
X112571029Y-89245273D01*
X112583879Y-89202912D01*
X112664068Y-89052888D01*
X112771988Y-88921388D01*
X112903488Y-88813468D01*
X113053512Y-88733279D01*
X113095873Y-88720429D01*
X113216305Y-88683896D01*
X113300888Y-88675565D01*
X113343179Y-88671400D01*
X113732821Y-88671400D01*
X113775112Y-88675565D01*
X113775112Y-88675565D01*
G37*
G36*
X123222116Y-89063595D02*
X123251313Y-89072452D01*
X123278218Y-89086833D01*
X123301808Y-89106192D01*
X123321167Y-89129782D01*
X123335548Y-89156687D01*
X123344405Y-89185884D01*
X123348000Y-89222390D01*
X123348000Y-89847610D01*
X123344405Y-89884116D01*
X123335548Y-89913313D01*
X123321167Y-89940218D01*
X123301808Y-89963808D01*
X123278218Y-89983167D01*
X123251313Y-89997548D01*
X123222116Y-90006405D01*
X123185610Y-90010000D01*
X122635390Y-90010000D01*
X122598884Y-90006405D01*
X122569687Y-89997548D01*
X122542782Y-89983167D01*
X122519192Y-89963808D01*
X122499833Y-89940218D01*
X122485452Y-89913313D01*
X122476595Y-89884116D01*
X122473000Y-89847610D01*
X122473000Y-89222390D01*
X122476595Y-89185884D01*
X122485452Y-89156687D01*
X122499833Y-89129782D01*
X122519192Y-89106192D01*
X122542782Y-89086833D01*
X122569687Y-89072452D01*
X122598884Y-89063595D01*
X122635390Y-89060000D01*
X123185610Y-89060000D01*
X123222116Y-89063595D01*
X123222116Y-89063595D01*
G37*
G36*
X124797116Y-89063595D02*
X124826313Y-89072452D01*
X124853218Y-89086833D01*
X124876808Y-89106192D01*
X124896167Y-89129782D01*
X124910548Y-89156687D01*
X124919405Y-89185884D01*
X124923000Y-89222390D01*
X124923000Y-89847610D01*
X124919405Y-89884116D01*
X124910548Y-89913313D01*
X124896167Y-89940218D01*
X124876808Y-89963808D01*
X124853218Y-89983167D01*
X124826313Y-89997548D01*
X124797116Y-90006405D01*
X124760610Y-90010000D01*
X124210390Y-90010000D01*
X124173884Y-90006405D01*
X124144687Y-89997548D01*
X124117782Y-89983167D01*
X124094192Y-89963808D01*
X124074833Y-89940218D01*
X124060452Y-89913313D01*
X124051595Y-89884116D01*
X124048000Y-89847610D01*
X124048000Y-89222390D01*
X124051595Y-89185884D01*
X124060452Y-89156687D01*
X124074833Y-89129782D01*
X124094192Y-89106192D01*
X124117782Y-89086833D01*
X124144687Y-89072452D01*
X124173884Y-89063595D01*
X124210390Y-89060000D01*
X124760610Y-89060000D01*
X124797116Y-89063595D01*
X124797116Y-89063595D01*
G37*
G36*
X113775112Y-86135565D02*
X113859695Y-86143896D01*
X113980127Y-86180429D01*
X114022488Y-86193279D01*
X114172512Y-86273468D01*
X114304012Y-86381388D01*
X114411932Y-86512888D01*
X114492121Y-86662912D01*
X114504971Y-86705273D01*
X114541504Y-86825705D01*
X114558178Y-86995000D01*
X114541504Y-87164295D01*
X114515126Y-87251250D01*
X114492121Y-87327088D01*
X114411932Y-87477112D01*
X114304012Y-87608612D01*
X114172512Y-87716532D01*
X114022488Y-87796721D01*
X113980127Y-87809571D01*
X113859695Y-87846104D01*
X113775112Y-87854435D01*
X113732821Y-87858600D01*
X113343179Y-87858600D01*
X113300888Y-87854435D01*
X113216305Y-87846104D01*
X113095873Y-87809571D01*
X113053512Y-87796721D01*
X112903488Y-87716532D01*
X112771988Y-87608612D01*
X112664068Y-87477112D01*
X112583879Y-87327088D01*
X112560874Y-87251250D01*
X112534496Y-87164295D01*
X112517822Y-86995000D01*
X112534496Y-86825705D01*
X112571029Y-86705273D01*
X112583879Y-86662912D01*
X112664068Y-86512888D01*
X112771988Y-86381388D01*
X112903488Y-86273468D01*
X113053512Y-86193279D01*
X113095873Y-86180429D01*
X113216305Y-86143896D01*
X113300888Y-86135565D01*
X113343179Y-86131400D01*
X113732821Y-86131400D01*
X113775112Y-86135565D01*
X113775112Y-86135565D01*
G37*
G36*
X124797116Y-86523595D02*
X124826313Y-86532452D01*
X124853218Y-86546833D01*
X124876808Y-86566192D01*
X124896167Y-86589782D01*
X124910548Y-86616687D01*
X124919405Y-86645884D01*
X124923000Y-86682390D01*
X124923000Y-87307610D01*
X124919405Y-87344116D01*
X124910548Y-87373313D01*
X124896167Y-87400218D01*
X124876808Y-87423808D01*
X124853218Y-87443167D01*
X124826313Y-87457548D01*
X124797116Y-87466405D01*
X124760610Y-87470000D01*
X124210390Y-87470000D01*
X124173884Y-87466405D01*
X124144687Y-87457548D01*
X124117782Y-87443167D01*
X124094192Y-87423808D01*
X124074833Y-87400218D01*
X124060452Y-87373313D01*
X124051595Y-87344116D01*
X124048000Y-87307610D01*
X124048000Y-86682390D01*
X124051595Y-86645884D01*
X124060452Y-86616687D01*
X124074833Y-86589782D01*
X124094192Y-86566192D01*
X124117782Y-86546833D01*
X124144687Y-86532452D01*
X124173884Y-86523595D01*
X124210390Y-86520000D01*
X124760610Y-86520000D01*
X124797116Y-86523595D01*
X124797116Y-86523595D01*
G37*
G36*
X123222116Y-86523595D02*
X123251313Y-86532452D01*
X123278218Y-86546833D01*
X123301808Y-86566192D01*
X123321167Y-86589782D01*
X123335548Y-86616687D01*
X123344405Y-86645884D01*
X123348000Y-86682390D01*
X123348000Y-87307610D01*
X123344405Y-87344116D01*
X123335548Y-87373313D01*
X123321167Y-87400218D01*
X123301808Y-87423808D01*
X123278218Y-87443167D01*
X123251313Y-87457548D01*
X123222116Y-87466405D01*
X123185610Y-87470000D01*
X122635390Y-87470000D01*
X122598884Y-87466405D01*
X122569687Y-87457548D01*
X122542782Y-87443167D01*
X122519192Y-87423808D01*
X122499833Y-87400218D01*
X122485452Y-87373313D01*
X122476595Y-87344116D01*
X122473000Y-87307610D01*
X122473000Y-86682390D01*
X122476595Y-86645884D01*
X122485452Y-86616687D01*
X122499833Y-86589782D01*
X122519192Y-86566192D01*
X122542782Y-86546833D01*
X122569687Y-86532452D01*
X122598884Y-86523595D01*
X122635390Y-86520000D01*
X123185610Y-86520000D01*
X123222116Y-86523595D01*
X123222116Y-86523595D01*
G37*
G36*
X117697116Y-84808595D02*
X117726313Y-84817452D01*
X117753218Y-84831833D01*
X117776808Y-84851192D01*
X117796167Y-84874782D01*
X117810548Y-84901687D01*
X117819405Y-84930884D01*
X117823000Y-84967390D01*
X117823000Y-85517610D01*
X117819405Y-85554116D01*
X117810548Y-85583313D01*
X117796167Y-85610218D01*
X117776808Y-85633808D01*
X117753218Y-85653167D01*
X117726313Y-85667548D01*
X117697116Y-85676405D01*
X117660610Y-85680000D01*
X117035390Y-85680000D01*
X116998884Y-85676405D01*
X116969687Y-85667548D01*
X116942782Y-85653167D01*
X116919192Y-85633808D01*
X116899833Y-85610218D01*
X116885452Y-85583313D01*
X116876595Y-85554116D01*
X116873000Y-85517610D01*
X116873000Y-84967390D01*
X116876595Y-84930884D01*
X116885452Y-84901687D01*
X116899833Y-84874782D01*
X116919192Y-84851192D01*
X116942782Y-84831833D01*
X116969687Y-84817452D01*
X116998884Y-84808595D01*
X117035390Y-84805000D01*
X117660610Y-84805000D01*
X117697116Y-84808595D01*
X117697116Y-84808595D01*
G37*
G36*
X117697116Y-83233595D02*
X117726313Y-83242452D01*
X117753218Y-83256833D01*
X117776808Y-83276192D01*
X117796167Y-83299782D01*
X117810548Y-83326687D01*
X117819405Y-83355884D01*
X117823000Y-83392390D01*
X117823000Y-83942610D01*
X117819405Y-83979116D01*
X117810548Y-84008313D01*
X117796167Y-84035218D01*
X117776808Y-84058808D01*
X117753218Y-84078167D01*
X117726313Y-84092548D01*
X117697116Y-84101405D01*
X117660610Y-84105000D01*
X117035390Y-84105000D01*
X116998884Y-84101405D01*
X116969687Y-84092548D01*
X116942782Y-84078167D01*
X116919192Y-84058808D01*
X116899833Y-84035218D01*
X116885452Y-84008313D01*
X116876595Y-83979116D01*
X116873000Y-83942610D01*
X116873000Y-83392390D01*
X116876595Y-83355884D01*
X116885452Y-83326687D01*
X116899833Y-83299782D01*
X116919192Y-83276192D01*
X116942782Y-83256833D01*
X116969687Y-83242452D01*
X116998884Y-83233595D01*
X117035390Y-83230000D01*
X117660610Y-83230000D01*
X117697116Y-83233595D01*
X117697116Y-83233595D01*
G37*
G36*
X130397116Y-82268595D02*
X130426313Y-82277452D01*
X130453218Y-82291833D01*
X130476808Y-82311192D01*
X130496167Y-82334782D01*
X130510548Y-82361687D01*
X130519405Y-82390884D01*
X130523000Y-82427390D01*
X130523000Y-82977610D01*
X130519405Y-83014116D01*
X130510548Y-83043313D01*
X130496167Y-83070218D01*
X130476808Y-83093808D01*
X130453218Y-83113167D01*
X130426313Y-83127548D01*
X130397116Y-83136405D01*
X130360610Y-83140000D01*
X129735390Y-83140000D01*
X129698884Y-83136405D01*
X129669687Y-83127548D01*
X129642782Y-83113167D01*
X129619192Y-83093808D01*
X129599833Y-83070218D01*
X129585452Y-83043313D01*
X129576595Y-83014116D01*
X129573000Y-82977610D01*
X129573000Y-82427390D01*
X129576595Y-82390884D01*
X129585452Y-82361687D01*
X129599833Y-82334782D01*
X129619192Y-82311192D01*
X129642782Y-82291833D01*
X129669687Y-82277452D01*
X129698884Y-82268595D01*
X129735390Y-82265000D01*
X130360610Y-82265000D01*
X130397116Y-82268595D01*
X130397116Y-82268595D01*
G37*
G36*
X150717116Y-82268595D02*
X150746313Y-82277452D01*
X150773218Y-82291833D01*
X150796808Y-82311192D01*
X150816167Y-82334782D01*
X150830548Y-82361687D01*
X150839405Y-82390884D01*
X150843000Y-82427390D01*
X150843000Y-82977610D01*
X150839405Y-83014116D01*
X150830548Y-83043313D01*
X150816167Y-83070218D01*
X150796808Y-83093808D01*
X150773218Y-83113167D01*
X150746313Y-83127548D01*
X150717116Y-83136405D01*
X150680610Y-83140000D01*
X150055390Y-83140000D01*
X150018884Y-83136405D01*
X149989687Y-83127548D01*
X149962782Y-83113167D01*
X149939192Y-83093808D01*
X149919833Y-83070218D01*
X149905452Y-83043313D01*
X149896595Y-83014116D01*
X149893000Y-82977610D01*
X149893000Y-82427390D01*
X149896595Y-82390884D01*
X149905452Y-82361687D01*
X149919833Y-82334782D01*
X149939192Y-82311192D01*
X149962782Y-82291833D01*
X149989687Y-82277452D01*
X150018884Y-82268595D01*
X150055390Y-82265000D01*
X150680610Y-82265000D01*
X150717116Y-82268595D01*
X150717116Y-82268595D01*
G37*
G36*
X148177116Y-82268595D02*
X148206313Y-82277452D01*
X148233218Y-82291833D01*
X148256808Y-82311192D01*
X148276167Y-82334782D01*
X148290548Y-82361687D01*
X148299405Y-82390884D01*
X148303000Y-82427390D01*
X148303000Y-82977610D01*
X148299405Y-83014116D01*
X148290548Y-83043313D01*
X148276167Y-83070218D01*
X148256808Y-83093808D01*
X148233218Y-83113167D01*
X148206313Y-83127548D01*
X148177116Y-83136405D01*
X148140610Y-83140000D01*
X147515390Y-83140000D01*
X147478884Y-83136405D01*
X147449687Y-83127548D01*
X147422782Y-83113167D01*
X147399192Y-83093808D01*
X147379833Y-83070218D01*
X147365452Y-83043313D01*
X147356595Y-83014116D01*
X147353000Y-82977610D01*
X147353000Y-82427390D01*
X147356595Y-82390884D01*
X147365452Y-82361687D01*
X147379833Y-82334782D01*
X147399192Y-82311192D01*
X147422782Y-82291833D01*
X147449687Y-82277452D01*
X147478884Y-82268595D01*
X147515390Y-82265000D01*
X148140610Y-82265000D01*
X148177116Y-82268595D01*
X148177116Y-82268595D01*
G37*
G36*
X132937116Y-82268595D02*
X132966313Y-82277452D01*
X132993218Y-82291833D01*
X133016808Y-82311192D01*
X133036167Y-82334782D01*
X133050548Y-82361687D01*
X133059405Y-82390884D01*
X133063000Y-82427390D01*
X133063000Y-82977610D01*
X133059405Y-83014116D01*
X133050548Y-83043313D01*
X133036167Y-83070218D01*
X133016808Y-83093808D01*
X132993218Y-83113167D01*
X132966313Y-83127548D01*
X132937116Y-83136405D01*
X132900610Y-83140000D01*
X132275390Y-83140000D01*
X132238884Y-83136405D01*
X132209687Y-83127548D01*
X132182782Y-83113167D01*
X132159192Y-83093808D01*
X132139833Y-83070218D01*
X132125452Y-83043313D01*
X132116595Y-83014116D01*
X132113000Y-82977610D01*
X132113000Y-82427390D01*
X132116595Y-82390884D01*
X132125452Y-82361687D01*
X132139833Y-82334782D01*
X132159192Y-82311192D01*
X132182782Y-82291833D01*
X132209687Y-82277452D01*
X132238884Y-82268595D01*
X132275390Y-82265000D01*
X132900610Y-82265000D01*
X132937116Y-82268595D01*
X132937116Y-82268595D01*
G37*
G36*
X155797116Y-82268595D02*
X155826313Y-82277452D01*
X155853218Y-82291833D01*
X155876808Y-82311192D01*
X155896167Y-82334782D01*
X155910548Y-82361687D01*
X155919405Y-82390884D01*
X155923000Y-82427390D01*
X155923000Y-82977610D01*
X155919405Y-83014116D01*
X155910548Y-83043313D01*
X155896167Y-83070218D01*
X155876808Y-83093808D01*
X155853218Y-83113167D01*
X155826313Y-83127548D01*
X155797116Y-83136405D01*
X155760610Y-83140000D01*
X155135390Y-83140000D01*
X155098884Y-83136405D01*
X155069687Y-83127548D01*
X155042782Y-83113167D01*
X155019192Y-83093808D01*
X154999833Y-83070218D01*
X154985452Y-83043313D01*
X154976595Y-83014116D01*
X154973000Y-82977610D01*
X154973000Y-82427390D01*
X154976595Y-82390884D01*
X154985452Y-82361687D01*
X154999833Y-82334782D01*
X155019192Y-82311192D01*
X155042782Y-82291833D01*
X155069687Y-82277452D01*
X155098884Y-82268595D01*
X155135390Y-82265000D01*
X155760610Y-82265000D01*
X155797116Y-82268595D01*
X155797116Y-82268595D01*
G37*
G36*
X135477116Y-82268595D02*
X135506313Y-82277452D01*
X135533218Y-82291833D01*
X135556808Y-82311192D01*
X135576167Y-82334782D01*
X135590548Y-82361687D01*
X135599405Y-82390884D01*
X135603000Y-82427390D01*
X135603000Y-82977610D01*
X135599405Y-83014116D01*
X135590548Y-83043313D01*
X135576167Y-83070218D01*
X135556808Y-83093808D01*
X135533218Y-83113167D01*
X135506313Y-83127548D01*
X135477116Y-83136405D01*
X135440610Y-83140000D01*
X134815390Y-83140000D01*
X134778884Y-83136405D01*
X134749687Y-83127548D01*
X134722782Y-83113167D01*
X134699192Y-83093808D01*
X134679833Y-83070218D01*
X134665452Y-83043313D01*
X134656595Y-83014116D01*
X134653000Y-82977610D01*
X134653000Y-82427390D01*
X134656595Y-82390884D01*
X134665452Y-82361687D01*
X134679833Y-82334782D01*
X134699192Y-82311192D01*
X134722782Y-82291833D01*
X134749687Y-82277452D01*
X134778884Y-82268595D01*
X134815390Y-82265000D01*
X135440610Y-82265000D01*
X135477116Y-82268595D01*
X135477116Y-82268595D01*
G37*
G36*
X153257116Y-82268595D02*
X153286313Y-82277452D01*
X153313218Y-82291833D01*
X153336808Y-82311192D01*
X153356167Y-82334782D01*
X153370548Y-82361687D01*
X153379405Y-82390884D01*
X153383000Y-82427390D01*
X153383000Y-82977610D01*
X153379405Y-83014116D01*
X153370548Y-83043313D01*
X153356167Y-83070218D01*
X153336808Y-83093808D01*
X153313218Y-83113167D01*
X153286313Y-83127548D01*
X153257116Y-83136405D01*
X153220610Y-83140000D01*
X152595390Y-83140000D01*
X152558884Y-83136405D01*
X152529687Y-83127548D01*
X152502782Y-83113167D01*
X152479192Y-83093808D01*
X152459833Y-83070218D01*
X152445452Y-83043313D01*
X152436595Y-83014116D01*
X152433000Y-82977610D01*
X152433000Y-82427390D01*
X152436595Y-82390884D01*
X152445452Y-82361687D01*
X152459833Y-82334782D01*
X152479192Y-82311192D01*
X152502782Y-82291833D01*
X152529687Y-82277452D01*
X152558884Y-82268595D01*
X152595390Y-82265000D01*
X153220610Y-82265000D01*
X153257116Y-82268595D01*
X153257116Y-82268595D01*
G37*
G36*
X138017116Y-82268595D02*
X138046313Y-82277452D01*
X138073218Y-82291833D01*
X138096808Y-82311192D01*
X138116167Y-82334782D01*
X138130548Y-82361687D01*
X138139405Y-82390884D01*
X138143000Y-82427390D01*
X138143000Y-82977610D01*
X138139405Y-83014116D01*
X138130548Y-83043313D01*
X138116167Y-83070218D01*
X138096808Y-83093808D01*
X138073218Y-83113167D01*
X138046313Y-83127548D01*
X138017116Y-83136405D01*
X137980610Y-83140000D01*
X137355390Y-83140000D01*
X137318884Y-83136405D01*
X137289687Y-83127548D01*
X137262782Y-83113167D01*
X137239192Y-83093808D01*
X137219833Y-83070218D01*
X137205452Y-83043313D01*
X137196595Y-83014116D01*
X137193000Y-82977610D01*
X137193000Y-82427390D01*
X137196595Y-82390884D01*
X137205452Y-82361687D01*
X137219833Y-82334782D01*
X137239192Y-82311192D01*
X137262782Y-82291833D01*
X137289687Y-82277452D01*
X137318884Y-82268595D01*
X137355390Y-82265000D01*
X137980610Y-82265000D01*
X138017116Y-82268595D01*
X138017116Y-82268595D01*
G37*
G36*
X140557116Y-82268595D02*
X140586313Y-82277452D01*
X140613218Y-82291833D01*
X140636808Y-82311192D01*
X140656167Y-82334782D01*
X140670548Y-82361687D01*
X140679405Y-82390884D01*
X140683000Y-82427390D01*
X140683000Y-82977610D01*
X140679405Y-83014116D01*
X140670548Y-83043313D01*
X140656167Y-83070218D01*
X140636808Y-83093808D01*
X140613218Y-83113167D01*
X140586313Y-83127548D01*
X140557116Y-83136405D01*
X140520610Y-83140000D01*
X139895390Y-83140000D01*
X139858884Y-83136405D01*
X139829687Y-83127548D01*
X139802782Y-83113167D01*
X139779192Y-83093808D01*
X139759833Y-83070218D01*
X139745452Y-83043313D01*
X139736595Y-83014116D01*
X139733000Y-82977610D01*
X139733000Y-82427390D01*
X139736595Y-82390884D01*
X139745452Y-82361687D01*
X139759833Y-82334782D01*
X139779192Y-82311192D01*
X139802782Y-82291833D01*
X139829687Y-82277452D01*
X139858884Y-82268595D01*
X139895390Y-82265000D01*
X140520610Y-82265000D01*
X140557116Y-82268595D01*
X140557116Y-82268595D01*
G37*
G36*
X158337116Y-82268595D02*
X158366313Y-82277452D01*
X158393218Y-82291833D01*
X158416808Y-82311192D01*
X158436167Y-82334782D01*
X158450548Y-82361687D01*
X158459405Y-82390884D01*
X158463000Y-82427390D01*
X158463000Y-82977610D01*
X158459405Y-83014116D01*
X158450548Y-83043313D01*
X158436167Y-83070218D01*
X158416808Y-83093808D01*
X158393218Y-83113167D01*
X158366313Y-83127548D01*
X158337116Y-83136405D01*
X158300610Y-83140000D01*
X157675390Y-83140000D01*
X157638884Y-83136405D01*
X157609687Y-83127548D01*
X157582782Y-83113167D01*
X157559192Y-83093808D01*
X157539833Y-83070218D01*
X157525452Y-83043313D01*
X157516595Y-83014116D01*
X157513000Y-82977610D01*
X157513000Y-82427390D01*
X157516595Y-82390884D01*
X157525452Y-82361687D01*
X157539833Y-82334782D01*
X157559192Y-82311192D01*
X157582782Y-82291833D01*
X157609687Y-82277452D01*
X157638884Y-82268595D01*
X157675390Y-82265000D01*
X158300610Y-82265000D01*
X158337116Y-82268595D01*
X158337116Y-82268595D01*
G37*
G36*
X160877116Y-82268595D02*
X160906313Y-82277452D01*
X160933218Y-82291833D01*
X160956808Y-82311192D01*
X160976167Y-82334782D01*
X160990548Y-82361687D01*
X160999405Y-82390884D01*
X161003000Y-82427390D01*
X161003000Y-82977610D01*
X160999405Y-83014116D01*
X160990548Y-83043313D01*
X160976167Y-83070218D01*
X160956808Y-83093808D01*
X160933218Y-83113167D01*
X160906313Y-83127548D01*
X160877116Y-83136405D01*
X160840610Y-83140000D01*
X160215390Y-83140000D01*
X160178884Y-83136405D01*
X160149687Y-83127548D01*
X160122782Y-83113167D01*
X160099192Y-83093808D01*
X160079833Y-83070218D01*
X160065452Y-83043313D01*
X160056595Y-83014116D01*
X160053000Y-82977610D01*
X160053000Y-82427390D01*
X160056595Y-82390884D01*
X160065452Y-82361687D01*
X160079833Y-82334782D01*
X160099192Y-82311192D01*
X160122782Y-82291833D01*
X160149687Y-82277452D01*
X160178884Y-82268595D01*
X160215390Y-82265000D01*
X160840610Y-82265000D01*
X160877116Y-82268595D01*
X160877116Y-82268595D01*
G37*
G36*
X125317116Y-82268595D02*
X125346313Y-82277452D01*
X125373218Y-82291833D01*
X125396808Y-82311192D01*
X125416167Y-82334782D01*
X125430548Y-82361687D01*
X125439405Y-82390884D01*
X125443000Y-82427390D01*
X125443000Y-82977610D01*
X125439405Y-83014116D01*
X125430548Y-83043313D01*
X125416167Y-83070218D01*
X125396808Y-83093808D01*
X125373218Y-83113167D01*
X125346313Y-83127548D01*
X125317116Y-83136405D01*
X125280610Y-83140000D01*
X124655390Y-83140000D01*
X124618884Y-83136405D01*
X124589687Y-83127548D01*
X124562782Y-83113167D01*
X124539192Y-83093808D01*
X124519833Y-83070218D01*
X124505452Y-83043313D01*
X124496595Y-83014116D01*
X124493000Y-82977610D01*
X124493000Y-82427390D01*
X124496595Y-82390884D01*
X124505452Y-82361687D01*
X124519833Y-82334782D01*
X124539192Y-82311192D01*
X124562782Y-82291833D01*
X124589687Y-82277452D01*
X124618884Y-82268595D01*
X124655390Y-82265000D01*
X125280610Y-82265000D01*
X125317116Y-82268595D01*
X125317116Y-82268595D01*
G37*
G36*
X143097116Y-82268595D02*
X143126313Y-82277452D01*
X143153218Y-82291833D01*
X143176808Y-82311192D01*
X143196167Y-82334782D01*
X143210548Y-82361687D01*
X143219405Y-82390884D01*
X143223000Y-82427390D01*
X143223000Y-82977610D01*
X143219405Y-83014116D01*
X143210548Y-83043313D01*
X143196167Y-83070218D01*
X143176808Y-83093808D01*
X143153218Y-83113167D01*
X143126313Y-83127548D01*
X143097116Y-83136405D01*
X143060610Y-83140000D01*
X142435390Y-83140000D01*
X142398884Y-83136405D01*
X142369687Y-83127548D01*
X142342782Y-83113167D01*
X142319192Y-83093808D01*
X142299833Y-83070218D01*
X142285452Y-83043313D01*
X142276595Y-83014116D01*
X142273000Y-82977610D01*
X142273000Y-82427390D01*
X142276595Y-82390884D01*
X142285452Y-82361687D01*
X142299833Y-82334782D01*
X142319192Y-82311192D01*
X142342782Y-82291833D01*
X142369687Y-82277452D01*
X142398884Y-82268595D01*
X142435390Y-82265000D01*
X143060610Y-82265000D01*
X143097116Y-82268595D01*
X143097116Y-82268595D01*
G37*
G36*
X145637116Y-82268595D02*
X145666313Y-82277452D01*
X145693218Y-82291833D01*
X145716808Y-82311192D01*
X145736167Y-82334782D01*
X145750548Y-82361687D01*
X145759405Y-82390884D01*
X145763000Y-82427390D01*
X145763000Y-82977610D01*
X145759405Y-83014116D01*
X145750548Y-83043313D01*
X145736167Y-83070218D01*
X145716808Y-83093808D01*
X145693218Y-83113167D01*
X145666313Y-83127548D01*
X145637116Y-83136405D01*
X145600610Y-83140000D01*
X144975390Y-83140000D01*
X144938884Y-83136405D01*
X144909687Y-83127548D01*
X144882782Y-83113167D01*
X144859192Y-83093808D01*
X144839833Y-83070218D01*
X144825452Y-83043313D01*
X144816595Y-83014116D01*
X144813000Y-82977610D01*
X144813000Y-82427390D01*
X144816595Y-82390884D01*
X144825452Y-82361687D01*
X144839833Y-82334782D01*
X144859192Y-82311192D01*
X144882782Y-82291833D01*
X144909687Y-82277452D01*
X144938884Y-82268595D01*
X144975390Y-82265000D01*
X145600610Y-82265000D01*
X145637116Y-82268595D01*
X145637116Y-82268595D01*
G37*
G36*
X163417116Y-82268595D02*
X163446313Y-82277452D01*
X163473218Y-82291833D01*
X163496808Y-82311192D01*
X163516167Y-82334782D01*
X163530548Y-82361687D01*
X163539405Y-82390884D01*
X163543000Y-82427390D01*
X163543000Y-82977610D01*
X163539405Y-83014116D01*
X163530548Y-83043313D01*
X163516167Y-83070218D01*
X163496808Y-83093808D01*
X163473218Y-83113167D01*
X163446313Y-83127548D01*
X163417116Y-83136405D01*
X163380610Y-83140000D01*
X162755390Y-83140000D01*
X162718884Y-83136405D01*
X162689687Y-83127548D01*
X162662782Y-83113167D01*
X162639192Y-83093808D01*
X162619833Y-83070218D01*
X162605452Y-83043313D01*
X162596595Y-83014116D01*
X162593000Y-82977610D01*
X162593000Y-82427390D01*
X162596595Y-82390884D01*
X162605452Y-82361687D01*
X162619833Y-82334782D01*
X162639192Y-82311192D01*
X162662782Y-82291833D01*
X162689687Y-82277452D01*
X162718884Y-82268595D01*
X162755390Y-82265000D01*
X163380610Y-82265000D01*
X163417116Y-82268595D01*
X163417116Y-82268595D01*
G37*
G36*
X127857116Y-82268595D02*
X127886313Y-82277452D01*
X127913218Y-82291833D01*
X127936808Y-82311192D01*
X127956167Y-82334782D01*
X127970548Y-82361687D01*
X127979405Y-82390884D01*
X127983000Y-82427390D01*
X127983000Y-82977610D01*
X127979405Y-83014116D01*
X127970548Y-83043313D01*
X127956167Y-83070218D01*
X127936808Y-83093808D01*
X127913218Y-83113167D01*
X127886313Y-83127548D01*
X127857116Y-83136405D01*
X127820610Y-83140000D01*
X127195390Y-83140000D01*
X127158884Y-83136405D01*
X127129687Y-83127548D01*
X127102782Y-83113167D01*
X127079192Y-83093808D01*
X127059833Y-83070218D01*
X127045452Y-83043313D01*
X127036595Y-83014116D01*
X127033000Y-82977610D01*
X127033000Y-82427390D01*
X127036595Y-82390884D01*
X127045452Y-82361687D01*
X127059833Y-82334782D01*
X127079192Y-82311192D01*
X127102782Y-82291833D01*
X127129687Y-82277452D01*
X127158884Y-82268595D01*
X127195390Y-82265000D01*
X127820610Y-82265000D01*
X127857116Y-82268595D01*
X127857116Y-82268595D01*
G37*
G36*
X120823000Y-81580000D02*
X119273000Y-81580000D01*
X119273000Y-80980000D01*
X120823000Y-80980000D01*
X120823000Y-81580000D01*
X120823000Y-81580000D01*
G37*
G36*
X115423000Y-81580000D02*
X113873000Y-81580000D01*
X113873000Y-80980000D01*
X115423000Y-80980000D01*
X115423000Y-81580000D01*
X115423000Y-81580000D01*
G37*
G36*
X148177116Y-80693595D02*
X148206313Y-80702452D01*
X148233218Y-80716833D01*
X148256808Y-80736192D01*
X148276167Y-80759782D01*
X148290548Y-80786687D01*
X148299405Y-80815884D01*
X148303000Y-80852390D01*
X148303000Y-81402610D01*
X148299405Y-81439116D01*
X148290548Y-81468313D01*
X148276167Y-81495218D01*
X148256808Y-81518808D01*
X148233218Y-81538167D01*
X148206313Y-81552548D01*
X148177116Y-81561405D01*
X148140610Y-81565000D01*
X147515390Y-81565000D01*
X147478884Y-81561405D01*
X147449687Y-81552548D01*
X147422782Y-81538167D01*
X147399192Y-81518808D01*
X147379833Y-81495218D01*
X147365452Y-81468313D01*
X147356595Y-81439116D01*
X147353000Y-81402610D01*
X147353000Y-80852390D01*
X147356595Y-80815884D01*
X147365452Y-80786687D01*
X147379833Y-80759782D01*
X147399192Y-80736192D01*
X147422782Y-80716833D01*
X147449687Y-80702452D01*
X147478884Y-80693595D01*
X147515390Y-80690000D01*
X148140610Y-80690000D01*
X148177116Y-80693595D01*
X148177116Y-80693595D01*
G37*
G36*
X153257116Y-80693595D02*
X153286313Y-80702452D01*
X153313218Y-80716833D01*
X153336808Y-80736192D01*
X153356167Y-80759782D01*
X153370548Y-80786687D01*
X153379405Y-80815884D01*
X153383000Y-80852390D01*
X153383000Y-81402610D01*
X153379405Y-81439116D01*
X153370548Y-81468313D01*
X153356167Y-81495218D01*
X153336808Y-81518808D01*
X153313218Y-81538167D01*
X153286313Y-81552548D01*
X153257116Y-81561405D01*
X153220610Y-81565000D01*
X152595390Y-81565000D01*
X152558884Y-81561405D01*
X152529687Y-81552548D01*
X152502782Y-81538167D01*
X152479192Y-81518808D01*
X152459833Y-81495218D01*
X152445452Y-81468313D01*
X152436595Y-81439116D01*
X152433000Y-81402610D01*
X152433000Y-80852390D01*
X152436595Y-80815884D01*
X152445452Y-80786687D01*
X152459833Y-80759782D01*
X152479192Y-80736192D01*
X152502782Y-80716833D01*
X152529687Y-80702452D01*
X152558884Y-80693595D01*
X152595390Y-80690000D01*
X153220610Y-80690000D01*
X153257116Y-80693595D01*
X153257116Y-80693595D01*
G37*
G36*
X158337116Y-80693595D02*
X158366313Y-80702452D01*
X158393218Y-80716833D01*
X158416808Y-80736192D01*
X158436167Y-80759782D01*
X158450548Y-80786687D01*
X158459405Y-80815884D01*
X158463000Y-80852390D01*
X158463000Y-81402610D01*
X158459405Y-81439116D01*
X158450548Y-81468313D01*
X158436167Y-81495218D01*
X158416808Y-81518808D01*
X158393218Y-81538167D01*
X158366313Y-81552548D01*
X158337116Y-81561405D01*
X158300610Y-81565000D01*
X157675390Y-81565000D01*
X157638884Y-81561405D01*
X157609687Y-81552548D01*
X157582782Y-81538167D01*
X157559192Y-81518808D01*
X157539833Y-81495218D01*
X157525452Y-81468313D01*
X157516595Y-81439116D01*
X157513000Y-81402610D01*
X157513000Y-80852390D01*
X157516595Y-80815884D01*
X157525452Y-80786687D01*
X157539833Y-80759782D01*
X157559192Y-80736192D01*
X157582782Y-80716833D01*
X157609687Y-80702452D01*
X157638884Y-80693595D01*
X157675390Y-80690000D01*
X158300610Y-80690000D01*
X158337116Y-80693595D01*
X158337116Y-80693595D01*
G37*
G36*
X160877116Y-80693595D02*
X160906313Y-80702452D01*
X160933218Y-80716833D01*
X160956808Y-80736192D01*
X160976167Y-80759782D01*
X160990548Y-80786687D01*
X160999405Y-80815884D01*
X161003000Y-80852390D01*
X161003000Y-81402610D01*
X160999405Y-81439116D01*
X160990548Y-81468313D01*
X160976167Y-81495218D01*
X160956808Y-81518808D01*
X160933218Y-81538167D01*
X160906313Y-81552548D01*
X160877116Y-81561405D01*
X160840610Y-81565000D01*
X160215390Y-81565000D01*
X160178884Y-81561405D01*
X160149687Y-81552548D01*
X160122782Y-81538167D01*
X160099192Y-81518808D01*
X160079833Y-81495218D01*
X160065452Y-81468313D01*
X160056595Y-81439116D01*
X160053000Y-81402610D01*
X160053000Y-80852390D01*
X160056595Y-80815884D01*
X160065452Y-80786687D01*
X160079833Y-80759782D01*
X160099192Y-80736192D01*
X160122782Y-80716833D01*
X160149687Y-80702452D01*
X160178884Y-80693595D01*
X160215390Y-80690000D01*
X160840610Y-80690000D01*
X160877116Y-80693595D01*
X160877116Y-80693595D01*
G37*
G36*
X163417116Y-80693595D02*
X163446313Y-80702452D01*
X163473218Y-80716833D01*
X163496808Y-80736192D01*
X163516167Y-80759782D01*
X163530548Y-80786687D01*
X163539405Y-80815884D01*
X163543000Y-80852390D01*
X163543000Y-81402610D01*
X163539405Y-81439116D01*
X163530548Y-81468313D01*
X163516167Y-81495218D01*
X163496808Y-81518808D01*
X163473218Y-81538167D01*
X163446313Y-81552548D01*
X163417116Y-81561405D01*
X163380610Y-81565000D01*
X162755390Y-81565000D01*
X162718884Y-81561405D01*
X162689687Y-81552548D01*
X162662782Y-81538167D01*
X162639192Y-81518808D01*
X162619833Y-81495218D01*
X162605452Y-81468313D01*
X162596595Y-81439116D01*
X162593000Y-81402610D01*
X162593000Y-80852390D01*
X162596595Y-80815884D01*
X162605452Y-80786687D01*
X162619833Y-80759782D01*
X162639192Y-80736192D01*
X162662782Y-80716833D01*
X162689687Y-80702452D01*
X162718884Y-80693595D01*
X162755390Y-80690000D01*
X163380610Y-80690000D01*
X163417116Y-80693595D01*
X163417116Y-80693595D01*
G37*
G36*
X150717116Y-80693595D02*
X150746313Y-80702452D01*
X150773218Y-80716833D01*
X150796808Y-80736192D01*
X150816167Y-80759782D01*
X150830548Y-80786687D01*
X150839405Y-80815884D01*
X150843000Y-80852390D01*
X150843000Y-81402610D01*
X150839405Y-81439116D01*
X150830548Y-81468313D01*
X150816167Y-81495218D01*
X150796808Y-81518808D01*
X150773218Y-81538167D01*
X150746313Y-81552548D01*
X150717116Y-81561405D01*
X150680610Y-81565000D01*
X150055390Y-81565000D01*
X150018884Y-81561405D01*
X149989687Y-81552548D01*
X149962782Y-81538167D01*
X149939192Y-81518808D01*
X149919833Y-81495218D01*
X149905452Y-81468313D01*
X149896595Y-81439116D01*
X149893000Y-81402610D01*
X149893000Y-80852390D01*
X149896595Y-80815884D01*
X149905452Y-80786687D01*
X149919833Y-80759782D01*
X149939192Y-80736192D01*
X149962782Y-80716833D01*
X149989687Y-80702452D01*
X150018884Y-80693595D01*
X150055390Y-80690000D01*
X150680610Y-80690000D01*
X150717116Y-80693595D01*
X150717116Y-80693595D01*
G37*
G36*
X145637116Y-80693595D02*
X145666313Y-80702452D01*
X145693218Y-80716833D01*
X145716808Y-80736192D01*
X145736167Y-80759782D01*
X145750548Y-80786687D01*
X145759405Y-80815884D01*
X145763000Y-80852390D01*
X145763000Y-81402610D01*
X145759405Y-81439116D01*
X145750548Y-81468313D01*
X145736167Y-81495218D01*
X145716808Y-81518808D01*
X145693218Y-81538167D01*
X145666313Y-81552548D01*
X145637116Y-81561405D01*
X145600610Y-81565000D01*
X144975390Y-81565000D01*
X144938884Y-81561405D01*
X144909687Y-81552548D01*
X144882782Y-81538167D01*
X144859192Y-81518808D01*
X144839833Y-81495218D01*
X144825452Y-81468313D01*
X144816595Y-81439116D01*
X144813000Y-81402610D01*
X144813000Y-80852390D01*
X144816595Y-80815884D01*
X144825452Y-80786687D01*
X144839833Y-80759782D01*
X144859192Y-80736192D01*
X144882782Y-80716833D01*
X144909687Y-80702452D01*
X144938884Y-80693595D01*
X144975390Y-80690000D01*
X145600610Y-80690000D01*
X145637116Y-80693595D01*
X145637116Y-80693595D01*
G37*
G36*
X143097116Y-80693595D02*
X143126313Y-80702452D01*
X143153218Y-80716833D01*
X143176808Y-80736192D01*
X143196167Y-80759782D01*
X143210548Y-80786687D01*
X143219405Y-80815884D01*
X143223000Y-80852390D01*
X143223000Y-81402610D01*
X143219405Y-81439116D01*
X143210548Y-81468313D01*
X143196167Y-81495218D01*
X143176808Y-81518808D01*
X143153218Y-81538167D01*
X143126313Y-81552548D01*
X143097116Y-81561405D01*
X143060610Y-81565000D01*
X142435390Y-81565000D01*
X142398884Y-81561405D01*
X142369687Y-81552548D01*
X142342782Y-81538167D01*
X142319192Y-81518808D01*
X142299833Y-81495218D01*
X142285452Y-81468313D01*
X142276595Y-81439116D01*
X142273000Y-81402610D01*
X142273000Y-80852390D01*
X142276595Y-80815884D01*
X142285452Y-80786687D01*
X142299833Y-80759782D01*
X142319192Y-80736192D01*
X142342782Y-80716833D01*
X142369687Y-80702452D01*
X142398884Y-80693595D01*
X142435390Y-80690000D01*
X143060610Y-80690000D01*
X143097116Y-80693595D01*
X143097116Y-80693595D01*
G37*
G36*
X140557116Y-80693595D02*
X140586313Y-80702452D01*
X140613218Y-80716833D01*
X140636808Y-80736192D01*
X140656167Y-80759782D01*
X140670548Y-80786687D01*
X140679405Y-80815884D01*
X140683000Y-80852390D01*
X140683000Y-81402610D01*
X140679405Y-81439116D01*
X140670548Y-81468313D01*
X140656167Y-81495218D01*
X140636808Y-81518808D01*
X140613218Y-81538167D01*
X140586313Y-81552548D01*
X140557116Y-81561405D01*
X140520610Y-81565000D01*
X139895390Y-81565000D01*
X139858884Y-81561405D01*
X139829687Y-81552548D01*
X139802782Y-81538167D01*
X139779192Y-81518808D01*
X139759833Y-81495218D01*
X139745452Y-81468313D01*
X139736595Y-81439116D01*
X139733000Y-81402610D01*
X139733000Y-80852390D01*
X139736595Y-80815884D01*
X139745452Y-80786687D01*
X139759833Y-80759782D01*
X139779192Y-80736192D01*
X139802782Y-80716833D01*
X139829687Y-80702452D01*
X139858884Y-80693595D01*
X139895390Y-80690000D01*
X140520610Y-80690000D01*
X140557116Y-80693595D01*
X140557116Y-80693595D01*
G37*
G36*
X138017116Y-80693595D02*
X138046313Y-80702452D01*
X138073218Y-80716833D01*
X138096808Y-80736192D01*
X138116167Y-80759782D01*
X138130548Y-80786687D01*
X138139405Y-80815884D01*
X138143000Y-80852390D01*
X138143000Y-81402610D01*
X138139405Y-81439116D01*
X138130548Y-81468313D01*
X138116167Y-81495218D01*
X138096808Y-81518808D01*
X138073218Y-81538167D01*
X138046313Y-81552548D01*
X138017116Y-81561405D01*
X137980610Y-81565000D01*
X137355390Y-81565000D01*
X137318884Y-81561405D01*
X137289687Y-81552548D01*
X137262782Y-81538167D01*
X137239192Y-81518808D01*
X137219833Y-81495218D01*
X137205452Y-81468313D01*
X137196595Y-81439116D01*
X137193000Y-81402610D01*
X137193000Y-80852390D01*
X137196595Y-80815884D01*
X137205452Y-80786687D01*
X137219833Y-80759782D01*
X137239192Y-80736192D01*
X137262782Y-80716833D01*
X137289687Y-80702452D01*
X137318884Y-80693595D01*
X137355390Y-80690000D01*
X137980610Y-80690000D01*
X138017116Y-80693595D01*
X138017116Y-80693595D01*
G37*
G36*
X135477116Y-80693595D02*
X135506313Y-80702452D01*
X135533218Y-80716833D01*
X135556808Y-80736192D01*
X135576167Y-80759782D01*
X135590548Y-80786687D01*
X135599405Y-80815884D01*
X135603000Y-80852390D01*
X135603000Y-81402610D01*
X135599405Y-81439116D01*
X135590548Y-81468313D01*
X135576167Y-81495218D01*
X135556808Y-81518808D01*
X135533218Y-81538167D01*
X135506313Y-81552548D01*
X135477116Y-81561405D01*
X135440610Y-81565000D01*
X134815390Y-81565000D01*
X134778884Y-81561405D01*
X134749687Y-81552548D01*
X134722782Y-81538167D01*
X134699192Y-81518808D01*
X134679833Y-81495218D01*
X134665452Y-81468313D01*
X134656595Y-81439116D01*
X134653000Y-81402610D01*
X134653000Y-80852390D01*
X134656595Y-80815884D01*
X134665452Y-80786687D01*
X134679833Y-80759782D01*
X134699192Y-80736192D01*
X134722782Y-80716833D01*
X134749687Y-80702452D01*
X134778884Y-80693595D01*
X134815390Y-80690000D01*
X135440610Y-80690000D01*
X135477116Y-80693595D01*
X135477116Y-80693595D01*
G37*
G36*
X132937116Y-80693595D02*
X132966313Y-80702452D01*
X132993218Y-80716833D01*
X133016808Y-80736192D01*
X133036167Y-80759782D01*
X133050548Y-80786687D01*
X133059405Y-80815884D01*
X133063000Y-80852390D01*
X133063000Y-81402610D01*
X133059405Y-81439116D01*
X133050548Y-81468313D01*
X133036167Y-81495218D01*
X133016808Y-81518808D01*
X132993218Y-81538167D01*
X132966313Y-81552548D01*
X132937116Y-81561405D01*
X132900610Y-81565000D01*
X132275390Y-81565000D01*
X132238884Y-81561405D01*
X132209687Y-81552548D01*
X132182782Y-81538167D01*
X132159192Y-81518808D01*
X132139833Y-81495218D01*
X132125452Y-81468313D01*
X132116595Y-81439116D01*
X132113000Y-81402610D01*
X132113000Y-80852390D01*
X132116595Y-80815884D01*
X132125452Y-80786687D01*
X132139833Y-80759782D01*
X132159192Y-80736192D01*
X132182782Y-80716833D01*
X132209687Y-80702452D01*
X132238884Y-80693595D01*
X132275390Y-80690000D01*
X132900610Y-80690000D01*
X132937116Y-80693595D01*
X132937116Y-80693595D01*
G37*
G36*
X130397116Y-80693595D02*
X130426313Y-80702452D01*
X130453218Y-80716833D01*
X130476808Y-80736192D01*
X130496167Y-80759782D01*
X130510548Y-80786687D01*
X130519405Y-80815884D01*
X130523000Y-80852390D01*
X130523000Y-81402610D01*
X130519405Y-81439116D01*
X130510548Y-81468313D01*
X130496167Y-81495218D01*
X130476808Y-81518808D01*
X130453218Y-81538167D01*
X130426313Y-81552548D01*
X130397116Y-81561405D01*
X130360610Y-81565000D01*
X129735390Y-81565000D01*
X129698884Y-81561405D01*
X129669687Y-81552548D01*
X129642782Y-81538167D01*
X129619192Y-81518808D01*
X129599833Y-81495218D01*
X129585452Y-81468313D01*
X129576595Y-81439116D01*
X129573000Y-81402610D01*
X129573000Y-80852390D01*
X129576595Y-80815884D01*
X129585452Y-80786687D01*
X129599833Y-80759782D01*
X129619192Y-80736192D01*
X129642782Y-80716833D01*
X129669687Y-80702452D01*
X129698884Y-80693595D01*
X129735390Y-80690000D01*
X130360610Y-80690000D01*
X130397116Y-80693595D01*
X130397116Y-80693595D01*
G37*
G36*
X155797116Y-80693595D02*
X155826313Y-80702452D01*
X155853218Y-80716833D01*
X155876808Y-80736192D01*
X155896167Y-80759782D01*
X155910548Y-80786687D01*
X155919405Y-80815884D01*
X155923000Y-80852390D01*
X155923000Y-81402610D01*
X155919405Y-81439116D01*
X155910548Y-81468313D01*
X155896167Y-81495218D01*
X155876808Y-81518808D01*
X155853218Y-81538167D01*
X155826313Y-81552548D01*
X155797116Y-81561405D01*
X155760610Y-81565000D01*
X155135390Y-81565000D01*
X155098884Y-81561405D01*
X155069687Y-81552548D01*
X155042782Y-81538167D01*
X155019192Y-81518808D01*
X154999833Y-81495218D01*
X154985452Y-81468313D01*
X154976595Y-81439116D01*
X154973000Y-81402610D01*
X154973000Y-80852390D01*
X154976595Y-80815884D01*
X154985452Y-80786687D01*
X154999833Y-80759782D01*
X155019192Y-80736192D01*
X155042782Y-80716833D01*
X155069687Y-80702452D01*
X155098884Y-80693595D01*
X155135390Y-80690000D01*
X155760610Y-80690000D01*
X155797116Y-80693595D01*
X155797116Y-80693595D01*
G37*
G36*
X127857116Y-80693595D02*
X127886313Y-80702452D01*
X127913218Y-80716833D01*
X127936808Y-80736192D01*
X127956167Y-80759782D01*
X127970548Y-80786687D01*
X127979405Y-80815884D01*
X127983000Y-80852390D01*
X127983000Y-81402610D01*
X127979405Y-81439116D01*
X127970548Y-81468313D01*
X127956167Y-81495218D01*
X127936808Y-81518808D01*
X127913218Y-81538167D01*
X127886313Y-81552548D01*
X127857116Y-81561405D01*
X127820610Y-81565000D01*
X127195390Y-81565000D01*
X127158884Y-81561405D01*
X127129687Y-81552548D01*
X127102782Y-81538167D01*
X127079192Y-81518808D01*
X127059833Y-81495218D01*
X127045452Y-81468313D01*
X127036595Y-81439116D01*
X127033000Y-81402610D01*
X127033000Y-80852390D01*
X127036595Y-80815884D01*
X127045452Y-80786687D01*
X127059833Y-80759782D01*
X127079192Y-80736192D01*
X127102782Y-80716833D01*
X127129687Y-80702452D01*
X127158884Y-80693595D01*
X127195390Y-80690000D01*
X127820610Y-80690000D01*
X127857116Y-80693595D01*
X127857116Y-80693595D01*
G37*
G36*
X125317116Y-80693595D02*
X125346313Y-80702452D01*
X125373218Y-80716833D01*
X125396808Y-80736192D01*
X125416167Y-80759782D01*
X125430548Y-80786687D01*
X125439405Y-80815884D01*
X125443000Y-80852390D01*
X125443000Y-81402610D01*
X125439405Y-81439116D01*
X125430548Y-81468313D01*
X125416167Y-81495218D01*
X125396808Y-81518808D01*
X125373218Y-81538167D01*
X125346313Y-81552548D01*
X125317116Y-81561405D01*
X125280610Y-81565000D01*
X124655390Y-81565000D01*
X124618884Y-81561405D01*
X124589687Y-81552548D01*
X124562782Y-81538167D01*
X124539192Y-81518808D01*
X124519833Y-81495218D01*
X124505452Y-81468313D01*
X124496595Y-81439116D01*
X124493000Y-81402610D01*
X124493000Y-80852390D01*
X124496595Y-80815884D01*
X124505452Y-80786687D01*
X124519833Y-80759782D01*
X124539192Y-80736192D01*
X124562782Y-80716833D01*
X124589687Y-80702452D01*
X124618884Y-80693595D01*
X124655390Y-80690000D01*
X125280610Y-80690000D01*
X125317116Y-80693595D01*
X125317116Y-80693595D01*
G37*
G36*
X115423000Y-80310000D02*
X113873000Y-80310000D01*
X113873000Y-79710000D01*
X115423000Y-79710000D01*
X115423000Y-80310000D01*
X115423000Y-80310000D01*
G37*
G36*
X120823000Y-80310000D02*
X119273000Y-80310000D01*
X119273000Y-79710000D01*
X120823000Y-79710000D01*
X120823000Y-80310000D01*
X120823000Y-80310000D01*
G37*
G36*
X120823000Y-79040000D02*
X119273000Y-79040000D01*
X119273000Y-78440000D01*
X120823000Y-78440000D01*
X120823000Y-79040000D01*
X120823000Y-79040000D01*
G37*
G36*
X115423000Y-79040000D02*
X113873000Y-79040000D01*
X113873000Y-78440000D01*
X115423000Y-78440000D01*
X115423000Y-79040000D01*
X115423000Y-79040000D01*
G37*
G36*
X122777116Y-77671095D02*
X122806313Y-77679952D01*
X122833218Y-77694333D01*
X122856808Y-77713692D01*
X122876167Y-77737282D01*
X122890548Y-77764187D01*
X122899405Y-77793384D01*
X122903000Y-77829890D01*
X122903000Y-78380110D01*
X122899405Y-78416616D01*
X122890548Y-78445813D01*
X122876167Y-78472718D01*
X122856808Y-78496308D01*
X122833218Y-78515667D01*
X122806313Y-78530048D01*
X122777116Y-78538905D01*
X122740610Y-78542500D01*
X122115390Y-78542500D01*
X122078884Y-78538905D01*
X122049687Y-78530048D01*
X122022782Y-78515667D01*
X121999192Y-78496308D01*
X121979833Y-78472718D01*
X121965452Y-78445813D01*
X121956595Y-78416616D01*
X121953000Y-78380110D01*
X121953000Y-77829890D01*
X121956595Y-77793384D01*
X121965452Y-77764187D01*
X121979833Y-77737282D01*
X121999192Y-77713692D01*
X122022782Y-77694333D01*
X122049687Y-77679952D01*
X122078884Y-77671095D01*
X122115390Y-77667500D01*
X122740610Y-77667500D01*
X122777116Y-77671095D01*
X122777116Y-77671095D01*
G37*
G36*
X115423000Y-77770000D02*
X113873000Y-77770000D01*
X113873000Y-77170000D01*
X115423000Y-77170000D01*
X115423000Y-77770000D01*
X115423000Y-77770000D01*
G37*
G36*
X120823000Y-77770000D02*
X119273000Y-77770000D01*
X119273000Y-77170000D01*
X120823000Y-77170000D01*
X120823000Y-77770000D01*
X120823000Y-77770000D01*
G37*
G36*
X126830712Y-73611088D02*
X127200510Y-73764263D01*
X127200513Y-73764265D01*
X127533325Y-73986643D01*
X127816357Y-74269675D01*
X128000204Y-74544822D01*
X128038737Y-74602490D01*
X128191912Y-74972288D01*
X128270000Y-75364864D01*
X128270000Y-75765136D01*
X128191912Y-76157712D01*
X128038737Y-76527510D01*
X128038735Y-76527513D01*
X127816357Y-76860325D01*
X127533325Y-77143357D01*
X127200513Y-77365735D01*
X127200510Y-77365737D01*
X126830712Y-77518912D01*
X126438136Y-77597000D01*
X126037864Y-77597000D01*
X125645288Y-77518912D01*
X125275490Y-77365737D01*
X125275487Y-77365735D01*
X124942675Y-77143357D01*
X124659643Y-76860325D01*
X124437265Y-76527513D01*
X124437263Y-76527510D01*
X124284088Y-76157712D01*
X124206000Y-75765136D01*
X124206000Y-75364864D01*
X124284088Y-74972288D01*
X124437263Y-74602490D01*
X124475796Y-74544822D01*
X124659643Y-74269675D01*
X124942675Y-73986643D01*
X125275487Y-73764265D01*
X125275490Y-73764263D01*
X125645288Y-73611088D01*
X126037864Y-73533000D01*
X126438136Y-73533000D01*
X126830712Y-73611088D01*
X126830712Y-73611088D01*
G37*
G36*
X122777116Y-76096095D02*
X122806313Y-76104952D01*
X122833218Y-76119333D01*
X122856808Y-76138692D01*
X122876167Y-76162282D01*
X122890548Y-76189187D01*
X122899405Y-76218384D01*
X122903000Y-76254890D01*
X122903000Y-76805110D01*
X122899405Y-76841616D01*
X122890548Y-76870813D01*
X122876167Y-76897718D01*
X122856808Y-76921308D01*
X122833218Y-76940667D01*
X122806313Y-76955048D01*
X122777116Y-76963905D01*
X122740610Y-76967500D01*
X122115390Y-76967500D01*
X122078884Y-76963905D01*
X122049687Y-76955048D01*
X122022782Y-76940667D01*
X121999192Y-76921308D01*
X121979833Y-76897718D01*
X121965452Y-76870813D01*
X121956595Y-76841616D01*
X121953000Y-76805110D01*
X121953000Y-76254890D01*
X121956595Y-76218384D01*
X121965452Y-76189187D01*
X121979833Y-76162282D01*
X121999192Y-76138692D01*
X122022782Y-76119333D01*
X122049687Y-76104952D01*
X122078884Y-76096095D01*
X122115390Y-76092500D01*
X122740610Y-76092500D01*
X122777116Y-76096095D01*
X122777116Y-76096095D01*
G37*
G36*
X152823294Y-74561496D02*
X152943726Y-74598029D01*
X152986087Y-74610879D01*
X153136112Y-74691068D01*
X153267612Y-74798988D01*
X153375532Y-74930488D01*
X153455721Y-75080512D01*
X153456844Y-75084215D01*
X153505104Y-75243305D01*
X153505396Y-75246269D01*
X153517600Y-75370179D01*
X153517600Y-75759820D01*
X153517076Y-75765136D01*
X153505104Y-75886694D01*
X153490618Y-75934448D01*
X153455721Y-76049488D01*
X153375532Y-76199512D01*
X153267612Y-76331012D01*
X153136112Y-76438932D01*
X152986088Y-76519121D01*
X152958433Y-76527510D01*
X152823295Y-76568504D01*
X152710432Y-76579620D01*
X152654001Y-76585178D01*
X152654000Y-76585178D01*
X152484706Y-76568504D01*
X152349568Y-76527510D01*
X152321913Y-76519121D01*
X152171889Y-76438932D01*
X152081946Y-76365117D01*
X152040388Y-76331012D01*
X151932469Y-76199512D01*
X151932467Y-76199509D01*
X151852279Y-76049488D01*
X151833723Y-75988316D01*
X151802896Y-75886695D01*
X151794538Y-75801837D01*
X151790400Y-75759821D01*
X151790400Y-75370180D01*
X151802604Y-75246269D01*
X151802896Y-75243306D01*
X151848017Y-75094563D01*
X151852279Y-75080513D01*
X151932468Y-74930488D01*
X152040388Y-74798988D01*
X152171888Y-74691068D01*
X152321912Y-74610879D01*
X152364273Y-74598029D01*
X152484705Y-74561496D01*
X152597568Y-74550380D01*
X152653999Y-74544822D01*
X152654000Y-74544822D01*
X152823294Y-74561496D01*
X152823294Y-74561496D01*
G37*
G36*
X172127294Y-74561496D02*
X172247726Y-74598029D01*
X172290087Y-74610879D01*
X172440112Y-74691068D01*
X172571612Y-74798988D01*
X172679532Y-74930488D01*
X172759721Y-75080512D01*
X172760844Y-75084215D01*
X172809104Y-75243305D01*
X172809396Y-75246269D01*
X172821600Y-75370179D01*
X172821600Y-75759820D01*
X172821076Y-75765136D01*
X172809104Y-75886694D01*
X172794618Y-75934448D01*
X172759721Y-76049488D01*
X172679532Y-76199512D01*
X172571612Y-76331012D01*
X172440112Y-76438932D01*
X172290088Y-76519121D01*
X172262433Y-76527510D01*
X172127295Y-76568504D01*
X172014432Y-76579620D01*
X171958001Y-76585178D01*
X171958000Y-76585178D01*
X171788706Y-76568504D01*
X171653568Y-76527510D01*
X171625913Y-76519121D01*
X171475889Y-76438932D01*
X171385946Y-76365117D01*
X171344388Y-76331012D01*
X171236469Y-76199512D01*
X171236467Y-76199509D01*
X171156279Y-76049488D01*
X171137723Y-75988316D01*
X171106896Y-75886695D01*
X171098538Y-75801837D01*
X171094400Y-75759821D01*
X171094400Y-75370180D01*
X171106604Y-75246269D01*
X171106896Y-75243306D01*
X171152017Y-75094563D01*
X171156279Y-75080513D01*
X171236468Y-74930488D01*
X171344388Y-74798988D01*
X171475888Y-74691068D01*
X171625912Y-74610879D01*
X171668273Y-74598029D01*
X171788705Y-74561496D01*
X171901568Y-74550380D01*
X171957999Y-74544822D01*
X171958000Y-74544822D01*
X172127294Y-74561496D01*
X172127294Y-74561496D01*
G37*
G36*
X169587294Y-74561496D02*
X169707726Y-74598029D01*
X169750087Y-74610879D01*
X169900112Y-74691068D01*
X170031612Y-74798988D01*
X170139532Y-74930488D01*
X170219721Y-75080512D01*
X170220844Y-75084215D01*
X170269104Y-75243305D01*
X170269396Y-75246269D01*
X170281600Y-75370179D01*
X170281600Y-75759820D01*
X170281076Y-75765136D01*
X170269104Y-75886694D01*
X170254618Y-75934448D01*
X170219721Y-76049488D01*
X170139532Y-76199512D01*
X170031612Y-76331012D01*
X169900112Y-76438932D01*
X169750088Y-76519121D01*
X169722433Y-76527510D01*
X169587295Y-76568504D01*
X169474432Y-76579620D01*
X169418001Y-76585178D01*
X169418000Y-76585178D01*
X169248706Y-76568504D01*
X169113568Y-76527510D01*
X169085913Y-76519121D01*
X168935889Y-76438932D01*
X168845946Y-76365117D01*
X168804388Y-76331012D01*
X168696469Y-76199512D01*
X168696467Y-76199509D01*
X168616279Y-76049488D01*
X168597723Y-75988316D01*
X168566896Y-75886695D01*
X168558538Y-75801837D01*
X168554400Y-75759821D01*
X168554400Y-75370180D01*
X168566604Y-75246269D01*
X168566896Y-75243306D01*
X168612017Y-75094563D01*
X168616279Y-75080513D01*
X168696468Y-74930488D01*
X168804388Y-74798988D01*
X168935888Y-74691068D01*
X169085912Y-74610879D01*
X169128273Y-74598029D01*
X169248705Y-74561496D01*
X169361568Y-74550380D01*
X169417999Y-74544822D01*
X169418000Y-74544822D01*
X169587294Y-74561496D01*
X169587294Y-74561496D01*
G37*
G36*
X167047294Y-74561496D02*
X167167726Y-74598029D01*
X167210087Y-74610879D01*
X167360112Y-74691068D01*
X167491612Y-74798988D01*
X167599532Y-74930488D01*
X167679721Y-75080512D01*
X167680844Y-75084215D01*
X167729104Y-75243305D01*
X167729396Y-75246269D01*
X167741600Y-75370179D01*
X167741600Y-75759820D01*
X167741076Y-75765136D01*
X167729104Y-75886694D01*
X167714618Y-75934448D01*
X167679721Y-76049488D01*
X167599532Y-76199512D01*
X167491612Y-76331012D01*
X167360112Y-76438932D01*
X167210088Y-76519121D01*
X167182433Y-76527510D01*
X167047295Y-76568504D01*
X166934432Y-76579620D01*
X166878001Y-76585178D01*
X166878000Y-76585178D01*
X166708706Y-76568504D01*
X166573568Y-76527510D01*
X166545913Y-76519121D01*
X166395889Y-76438932D01*
X166305946Y-76365117D01*
X166264388Y-76331012D01*
X166156469Y-76199512D01*
X166156467Y-76199509D01*
X166076279Y-76049488D01*
X166057723Y-75988316D01*
X166026896Y-75886695D01*
X166018538Y-75801837D01*
X166014400Y-75759821D01*
X166014400Y-75370180D01*
X166026604Y-75246269D01*
X166026896Y-75243306D01*
X166072017Y-75094563D01*
X166076279Y-75080513D01*
X166156468Y-74930488D01*
X166264388Y-74798988D01*
X166395888Y-74691068D01*
X166545912Y-74610879D01*
X166588273Y-74598029D01*
X166708705Y-74561496D01*
X166821568Y-74550380D01*
X166877999Y-74544822D01*
X166878000Y-74544822D01*
X167047294Y-74561496D01*
X167047294Y-74561496D01*
G37*
G36*
X164507294Y-74561496D02*
X164627726Y-74598029D01*
X164670087Y-74610879D01*
X164820112Y-74691068D01*
X164951612Y-74798988D01*
X165059532Y-74930488D01*
X165139721Y-75080512D01*
X165140844Y-75084215D01*
X165189104Y-75243305D01*
X165189396Y-75246269D01*
X165201600Y-75370179D01*
X165201600Y-75759820D01*
X165201076Y-75765136D01*
X165189104Y-75886694D01*
X165174618Y-75934448D01*
X165139721Y-76049488D01*
X165059532Y-76199512D01*
X164951612Y-76331012D01*
X164820112Y-76438932D01*
X164670088Y-76519121D01*
X164642433Y-76527510D01*
X164507295Y-76568504D01*
X164394432Y-76579620D01*
X164338001Y-76585178D01*
X164338000Y-76585178D01*
X164168706Y-76568504D01*
X164033568Y-76527510D01*
X164005913Y-76519121D01*
X163855889Y-76438932D01*
X163765946Y-76365117D01*
X163724388Y-76331012D01*
X163616469Y-76199512D01*
X163616467Y-76199509D01*
X163536279Y-76049488D01*
X163517723Y-75988316D01*
X163486896Y-75886695D01*
X163478538Y-75801837D01*
X163474400Y-75759821D01*
X163474400Y-75370180D01*
X163486604Y-75246269D01*
X163486896Y-75243306D01*
X163532017Y-75094563D01*
X163536279Y-75080513D01*
X163616468Y-74930488D01*
X163724388Y-74798988D01*
X163855888Y-74691068D01*
X164005912Y-74610879D01*
X164048273Y-74598029D01*
X164168705Y-74561496D01*
X164281568Y-74550380D01*
X164337999Y-74544822D01*
X164338000Y-74544822D01*
X164507294Y-74561496D01*
X164507294Y-74561496D01*
G37*
G36*
X161967294Y-74561496D02*
X162087726Y-74598029D01*
X162130087Y-74610879D01*
X162280112Y-74691068D01*
X162411612Y-74798988D01*
X162519532Y-74930488D01*
X162599721Y-75080512D01*
X162600844Y-75084215D01*
X162649104Y-75243305D01*
X162649396Y-75246269D01*
X162661600Y-75370179D01*
X162661600Y-75759820D01*
X162661076Y-75765136D01*
X162649104Y-75886694D01*
X162634618Y-75934448D01*
X162599721Y-76049488D01*
X162519532Y-76199512D01*
X162411612Y-76331012D01*
X162280112Y-76438932D01*
X162130088Y-76519121D01*
X162102433Y-76527510D01*
X161967295Y-76568504D01*
X161854432Y-76579620D01*
X161798001Y-76585178D01*
X161798000Y-76585178D01*
X161628706Y-76568504D01*
X161493568Y-76527510D01*
X161465913Y-76519121D01*
X161315889Y-76438932D01*
X161225946Y-76365117D01*
X161184388Y-76331012D01*
X161076469Y-76199512D01*
X161076467Y-76199509D01*
X160996279Y-76049488D01*
X160977723Y-75988316D01*
X160946896Y-75886695D01*
X160938538Y-75801837D01*
X160934400Y-75759821D01*
X160934400Y-75370180D01*
X160946604Y-75246269D01*
X160946896Y-75243306D01*
X160992017Y-75094563D01*
X160996279Y-75080513D01*
X161076468Y-74930488D01*
X161184388Y-74798988D01*
X161315888Y-74691068D01*
X161465912Y-74610879D01*
X161508273Y-74598029D01*
X161628705Y-74561496D01*
X161741568Y-74550380D01*
X161797999Y-74544822D01*
X161798000Y-74544822D01*
X161967294Y-74561496D01*
X161967294Y-74561496D01*
G37*
G36*
X159427294Y-74561496D02*
X159547726Y-74598029D01*
X159590087Y-74610879D01*
X159740112Y-74691068D01*
X159871612Y-74798988D01*
X159979532Y-74930488D01*
X160059721Y-75080512D01*
X160060844Y-75084215D01*
X160109104Y-75243305D01*
X160109396Y-75246269D01*
X160121600Y-75370179D01*
X160121600Y-75759820D01*
X160121076Y-75765136D01*
X160109104Y-75886694D01*
X160094618Y-75934448D01*
X160059721Y-76049488D01*
X159979532Y-76199512D01*
X159871612Y-76331012D01*
X159740112Y-76438932D01*
X159590088Y-76519121D01*
X159562433Y-76527510D01*
X159427295Y-76568504D01*
X159314432Y-76579620D01*
X159258001Y-76585178D01*
X159258000Y-76585178D01*
X159088706Y-76568504D01*
X158953568Y-76527510D01*
X158925913Y-76519121D01*
X158775889Y-76438932D01*
X158685946Y-76365117D01*
X158644388Y-76331012D01*
X158536469Y-76199512D01*
X158536467Y-76199509D01*
X158456279Y-76049488D01*
X158437723Y-75988316D01*
X158406896Y-75886695D01*
X158398538Y-75801837D01*
X158394400Y-75759821D01*
X158394400Y-75370180D01*
X158406604Y-75246269D01*
X158406896Y-75243306D01*
X158452017Y-75094563D01*
X158456279Y-75080513D01*
X158536468Y-74930488D01*
X158644388Y-74798988D01*
X158775888Y-74691068D01*
X158925912Y-74610879D01*
X158968273Y-74598029D01*
X159088705Y-74561496D01*
X159201568Y-74550380D01*
X159257999Y-74544822D01*
X159258000Y-74544822D01*
X159427294Y-74561496D01*
X159427294Y-74561496D01*
G37*
G36*
X156887294Y-74561496D02*
X157007726Y-74598029D01*
X157050087Y-74610879D01*
X157200112Y-74691068D01*
X157331612Y-74798988D01*
X157439532Y-74930488D01*
X157519721Y-75080512D01*
X157520844Y-75084215D01*
X157569104Y-75243305D01*
X157569396Y-75246269D01*
X157581600Y-75370179D01*
X157581600Y-75759820D01*
X157581076Y-75765136D01*
X157569104Y-75886694D01*
X157554618Y-75934448D01*
X157519721Y-76049488D01*
X157439532Y-76199512D01*
X157331612Y-76331012D01*
X157200112Y-76438932D01*
X157050088Y-76519121D01*
X157022433Y-76527510D01*
X156887295Y-76568504D01*
X156774432Y-76579620D01*
X156718001Y-76585178D01*
X156718000Y-76585178D01*
X156548706Y-76568504D01*
X156413568Y-76527510D01*
X156385913Y-76519121D01*
X156235889Y-76438932D01*
X156145946Y-76365117D01*
X156104388Y-76331012D01*
X155996469Y-76199512D01*
X155996467Y-76199509D01*
X155916279Y-76049488D01*
X155897723Y-75988316D01*
X155866896Y-75886695D01*
X155858538Y-75801837D01*
X155854400Y-75759821D01*
X155854400Y-75370180D01*
X155866604Y-75246269D01*
X155866896Y-75243306D01*
X155912017Y-75094563D01*
X155916279Y-75080513D01*
X155996468Y-74930488D01*
X156104388Y-74798988D01*
X156235888Y-74691068D01*
X156385912Y-74610879D01*
X156428273Y-74598029D01*
X156548705Y-74561496D01*
X156661568Y-74550380D01*
X156717999Y-74544822D01*
X156718000Y-74544822D01*
X156887294Y-74561496D01*
X156887294Y-74561496D01*
G37*
G36*
X129963294Y-74561496D02*
X130083726Y-74598029D01*
X130126087Y-74610879D01*
X130276112Y-74691068D01*
X130407612Y-74798988D01*
X130515532Y-74930488D01*
X130595721Y-75080512D01*
X130596844Y-75084215D01*
X130645104Y-75243305D01*
X130645396Y-75246269D01*
X130657600Y-75370179D01*
X130657600Y-75759820D01*
X130657076Y-75765136D01*
X130645104Y-75886694D01*
X130630618Y-75934448D01*
X130595721Y-76049488D01*
X130515532Y-76199512D01*
X130407612Y-76331012D01*
X130276112Y-76438932D01*
X130126088Y-76519121D01*
X130098433Y-76527510D01*
X129963295Y-76568504D01*
X129850432Y-76579620D01*
X129794001Y-76585178D01*
X129794000Y-76585178D01*
X129624706Y-76568504D01*
X129489568Y-76527510D01*
X129461913Y-76519121D01*
X129311889Y-76438932D01*
X129221946Y-76365117D01*
X129180388Y-76331012D01*
X129072469Y-76199512D01*
X129072467Y-76199509D01*
X128992279Y-76049488D01*
X128973723Y-75988316D01*
X128942896Y-75886695D01*
X128934538Y-75801837D01*
X128930400Y-75759821D01*
X128930400Y-75370180D01*
X128942604Y-75246269D01*
X128942896Y-75243306D01*
X128988017Y-75094563D01*
X128992279Y-75080513D01*
X129072468Y-74930488D01*
X129180388Y-74798988D01*
X129311888Y-74691068D01*
X129461912Y-74610879D01*
X129504273Y-74598029D01*
X129624705Y-74561496D01*
X129737568Y-74550380D01*
X129793999Y-74544822D01*
X129794000Y-74544822D01*
X129963294Y-74561496D01*
X129963294Y-74561496D01*
G37*
G36*
X145203294Y-74561496D02*
X145323726Y-74598029D01*
X145366087Y-74610879D01*
X145516112Y-74691068D01*
X145647612Y-74798988D01*
X145755532Y-74930488D01*
X145835721Y-75080512D01*
X145836844Y-75084215D01*
X145885104Y-75243305D01*
X145885396Y-75246269D01*
X145897600Y-75370179D01*
X145897600Y-75759820D01*
X145897076Y-75765136D01*
X145885104Y-75886694D01*
X145870618Y-75934448D01*
X145835721Y-76049488D01*
X145755532Y-76199512D01*
X145647612Y-76331012D01*
X145516112Y-76438932D01*
X145366088Y-76519121D01*
X145338433Y-76527510D01*
X145203295Y-76568504D01*
X145090432Y-76579620D01*
X145034001Y-76585178D01*
X145034000Y-76585178D01*
X144864706Y-76568504D01*
X144729568Y-76527510D01*
X144701913Y-76519121D01*
X144551889Y-76438932D01*
X144461946Y-76365117D01*
X144420388Y-76331012D01*
X144312469Y-76199512D01*
X144312467Y-76199509D01*
X144232279Y-76049488D01*
X144213723Y-75988316D01*
X144182896Y-75886695D01*
X144174538Y-75801837D01*
X144170400Y-75759821D01*
X144170400Y-75370180D01*
X144182604Y-75246269D01*
X144182896Y-75243306D01*
X144228017Y-75094563D01*
X144232279Y-75080513D01*
X144312468Y-74930488D01*
X144420388Y-74798988D01*
X144551888Y-74691068D01*
X144701912Y-74610879D01*
X144744273Y-74598029D01*
X144864705Y-74561496D01*
X144977568Y-74550380D01*
X145033999Y-74544822D01*
X145034000Y-74544822D01*
X145203294Y-74561496D01*
X145203294Y-74561496D01*
G37*
G36*
X142663294Y-74561496D02*
X142783726Y-74598029D01*
X142826087Y-74610879D01*
X142976112Y-74691068D01*
X143107612Y-74798988D01*
X143215532Y-74930488D01*
X143295721Y-75080512D01*
X143296844Y-75084215D01*
X143345104Y-75243305D01*
X143345396Y-75246269D01*
X143357600Y-75370179D01*
X143357600Y-75759820D01*
X143357076Y-75765136D01*
X143345104Y-75886694D01*
X143330618Y-75934448D01*
X143295721Y-76049488D01*
X143215532Y-76199512D01*
X143107612Y-76331012D01*
X142976112Y-76438932D01*
X142826088Y-76519121D01*
X142798433Y-76527510D01*
X142663295Y-76568504D01*
X142550432Y-76579620D01*
X142494001Y-76585178D01*
X142494000Y-76585178D01*
X142324706Y-76568504D01*
X142189568Y-76527510D01*
X142161913Y-76519121D01*
X142011889Y-76438932D01*
X141921946Y-76365117D01*
X141880388Y-76331012D01*
X141772469Y-76199512D01*
X141772467Y-76199509D01*
X141692279Y-76049488D01*
X141673723Y-75988316D01*
X141642896Y-75886695D01*
X141634538Y-75801837D01*
X141630400Y-75759821D01*
X141630400Y-75370180D01*
X141642604Y-75246269D01*
X141642896Y-75243306D01*
X141688017Y-75094563D01*
X141692279Y-75080513D01*
X141772468Y-74930488D01*
X141880388Y-74798988D01*
X142011888Y-74691068D01*
X142161912Y-74610879D01*
X142204273Y-74598029D01*
X142324705Y-74561496D01*
X142437568Y-74550380D01*
X142493999Y-74544822D01*
X142494000Y-74544822D01*
X142663294Y-74561496D01*
X142663294Y-74561496D01*
G37*
G36*
X140123294Y-74561496D02*
X140243726Y-74598029D01*
X140286087Y-74610879D01*
X140436112Y-74691068D01*
X140567612Y-74798988D01*
X140675532Y-74930488D01*
X140755721Y-75080512D01*
X140756844Y-75084215D01*
X140805104Y-75243305D01*
X140805396Y-75246269D01*
X140817600Y-75370179D01*
X140817600Y-75759820D01*
X140817076Y-75765136D01*
X140805104Y-75886694D01*
X140790618Y-75934448D01*
X140755721Y-76049488D01*
X140675532Y-76199512D01*
X140567612Y-76331012D01*
X140436112Y-76438932D01*
X140286088Y-76519121D01*
X140258433Y-76527510D01*
X140123295Y-76568504D01*
X140010432Y-76579620D01*
X139954001Y-76585178D01*
X139954000Y-76585178D01*
X139784706Y-76568504D01*
X139649568Y-76527510D01*
X139621913Y-76519121D01*
X139471889Y-76438932D01*
X139381946Y-76365117D01*
X139340388Y-76331012D01*
X139232469Y-76199512D01*
X139232467Y-76199509D01*
X139152279Y-76049488D01*
X139133723Y-75988316D01*
X139102896Y-75886695D01*
X139094538Y-75801837D01*
X139090400Y-75759821D01*
X139090400Y-75370180D01*
X139102604Y-75246269D01*
X139102896Y-75243306D01*
X139148017Y-75094563D01*
X139152279Y-75080513D01*
X139232468Y-74930488D01*
X139340388Y-74798988D01*
X139471888Y-74691068D01*
X139621912Y-74610879D01*
X139664273Y-74598029D01*
X139784705Y-74561496D01*
X139897568Y-74550380D01*
X139953999Y-74544822D01*
X139954000Y-74544822D01*
X140123294Y-74561496D01*
X140123294Y-74561496D01*
G37*
G36*
X137583294Y-74561496D02*
X137703726Y-74598029D01*
X137746087Y-74610879D01*
X137896112Y-74691068D01*
X138027612Y-74798988D01*
X138135532Y-74930488D01*
X138215721Y-75080512D01*
X138216844Y-75084215D01*
X138265104Y-75243305D01*
X138265396Y-75246269D01*
X138277600Y-75370179D01*
X138277600Y-75759820D01*
X138277076Y-75765136D01*
X138265104Y-75886694D01*
X138250618Y-75934448D01*
X138215721Y-76049488D01*
X138135532Y-76199512D01*
X138027612Y-76331012D01*
X137896112Y-76438932D01*
X137746088Y-76519121D01*
X137718433Y-76527510D01*
X137583295Y-76568504D01*
X137470432Y-76579620D01*
X137414001Y-76585178D01*
X137414000Y-76585178D01*
X137244706Y-76568504D01*
X137109568Y-76527510D01*
X137081913Y-76519121D01*
X136931889Y-76438932D01*
X136841946Y-76365117D01*
X136800388Y-76331012D01*
X136692469Y-76199512D01*
X136692467Y-76199509D01*
X136612279Y-76049488D01*
X136593723Y-75988316D01*
X136562896Y-75886695D01*
X136554538Y-75801837D01*
X136550400Y-75759821D01*
X136550400Y-75370180D01*
X136562604Y-75246269D01*
X136562896Y-75243306D01*
X136608017Y-75094563D01*
X136612279Y-75080513D01*
X136692468Y-74930488D01*
X136800388Y-74798988D01*
X136931888Y-74691068D01*
X137081912Y-74610879D01*
X137124273Y-74598029D01*
X137244705Y-74561496D01*
X137357568Y-74550380D01*
X137413999Y-74544822D01*
X137414000Y-74544822D01*
X137583294Y-74561496D01*
X137583294Y-74561496D01*
G37*
G36*
X135043294Y-74561496D02*
X135163726Y-74598029D01*
X135206087Y-74610879D01*
X135356112Y-74691068D01*
X135487612Y-74798988D01*
X135595532Y-74930488D01*
X135675721Y-75080512D01*
X135676844Y-75084215D01*
X135725104Y-75243305D01*
X135725396Y-75246269D01*
X135737600Y-75370179D01*
X135737600Y-75759820D01*
X135737076Y-75765136D01*
X135725104Y-75886694D01*
X135710618Y-75934448D01*
X135675721Y-76049488D01*
X135595532Y-76199512D01*
X135487612Y-76331012D01*
X135356112Y-76438932D01*
X135206088Y-76519121D01*
X135178433Y-76527510D01*
X135043295Y-76568504D01*
X134930432Y-76579620D01*
X134874001Y-76585178D01*
X134874000Y-76585178D01*
X134704706Y-76568504D01*
X134569568Y-76527510D01*
X134541913Y-76519121D01*
X134391889Y-76438932D01*
X134301946Y-76365117D01*
X134260388Y-76331012D01*
X134152469Y-76199512D01*
X134152467Y-76199509D01*
X134072279Y-76049488D01*
X134053723Y-75988316D01*
X134022896Y-75886695D01*
X134014538Y-75801837D01*
X134010400Y-75759821D01*
X134010400Y-75370180D01*
X134022604Y-75246269D01*
X134022896Y-75243306D01*
X134068017Y-75094563D01*
X134072279Y-75080513D01*
X134152468Y-74930488D01*
X134260388Y-74798988D01*
X134391888Y-74691068D01*
X134541912Y-74610879D01*
X134584273Y-74598029D01*
X134704705Y-74561496D01*
X134817568Y-74550380D01*
X134873999Y-74544822D01*
X134874000Y-74544822D01*
X135043294Y-74561496D01*
X135043294Y-74561496D01*
G37*
G36*
X132503294Y-74561496D02*
X132623726Y-74598029D01*
X132666087Y-74610879D01*
X132816112Y-74691068D01*
X132947612Y-74798988D01*
X133055532Y-74930488D01*
X133135721Y-75080512D01*
X133136844Y-75084215D01*
X133185104Y-75243305D01*
X133185396Y-75246269D01*
X133197600Y-75370179D01*
X133197600Y-75759820D01*
X133197076Y-75765136D01*
X133185104Y-75886694D01*
X133170618Y-75934448D01*
X133135721Y-76049488D01*
X133055532Y-76199512D01*
X132947612Y-76331012D01*
X132816112Y-76438932D01*
X132666088Y-76519121D01*
X132638433Y-76527510D01*
X132503295Y-76568504D01*
X132390432Y-76579620D01*
X132334001Y-76585178D01*
X132334000Y-76585178D01*
X132164706Y-76568504D01*
X132029568Y-76527510D01*
X132001913Y-76519121D01*
X131851889Y-76438932D01*
X131761946Y-76365117D01*
X131720388Y-76331012D01*
X131612469Y-76199512D01*
X131612467Y-76199509D01*
X131532279Y-76049488D01*
X131513723Y-75988316D01*
X131482896Y-75886695D01*
X131474538Y-75801837D01*
X131470400Y-75759821D01*
X131470400Y-75370180D01*
X131482604Y-75246269D01*
X131482896Y-75243306D01*
X131528017Y-75094563D01*
X131532279Y-75080513D01*
X131612468Y-74930488D01*
X131720388Y-74798988D01*
X131851888Y-74691068D01*
X132001912Y-74610879D01*
X132044273Y-74598029D01*
X132164705Y-74561496D01*
X132277568Y-74550380D01*
X132333999Y-74544822D01*
X132334000Y-74544822D01*
X132503294Y-74561496D01*
X132503294Y-74561496D01*
G37*
G36*
X174667294Y-74561496D02*
X174787726Y-74598029D01*
X174830087Y-74610879D01*
X174980112Y-74691068D01*
X175111612Y-74798988D01*
X175219532Y-74930488D01*
X175299721Y-75080512D01*
X175300844Y-75084215D01*
X175349104Y-75243305D01*
X175349396Y-75246269D01*
X175361600Y-75370179D01*
X175361600Y-75759820D01*
X175361076Y-75765136D01*
X175349104Y-75886694D01*
X175334618Y-75934448D01*
X175299721Y-76049488D01*
X175219532Y-76199512D01*
X175111612Y-76331012D01*
X174980112Y-76438932D01*
X174830088Y-76519121D01*
X174802433Y-76527510D01*
X174667295Y-76568504D01*
X174554432Y-76579620D01*
X174498001Y-76585178D01*
X174498000Y-76585178D01*
X174328706Y-76568504D01*
X174193568Y-76527510D01*
X174165913Y-76519121D01*
X174015889Y-76438932D01*
X173925946Y-76365117D01*
X173884388Y-76331012D01*
X173776469Y-76199512D01*
X173776467Y-76199509D01*
X173696279Y-76049488D01*
X173677723Y-75988316D01*
X173646896Y-75886695D01*
X173638538Y-75801837D01*
X173634400Y-75759821D01*
X173634400Y-75370180D01*
X173646604Y-75246269D01*
X173646896Y-75243306D01*
X173692017Y-75094563D01*
X173696279Y-75080513D01*
X173776468Y-74930488D01*
X173884388Y-74798988D01*
X174015888Y-74691068D01*
X174165912Y-74610879D01*
X174208273Y-74598029D01*
X174328705Y-74561496D01*
X174441568Y-74550380D01*
X174497999Y-74544822D01*
X174498000Y-74544822D01*
X174667294Y-74561496D01*
X174667294Y-74561496D01*
G37*
G36*
X150283294Y-74561496D02*
X150403726Y-74598029D01*
X150446087Y-74610879D01*
X150596112Y-74691068D01*
X150727612Y-74798988D01*
X150835532Y-74930488D01*
X150915721Y-75080512D01*
X150916844Y-75084215D01*
X150965104Y-75243305D01*
X150965396Y-75246269D01*
X150977600Y-75370179D01*
X150977600Y-75759820D01*
X150977076Y-75765136D01*
X150965104Y-75886694D01*
X150950618Y-75934448D01*
X150915721Y-76049488D01*
X150835532Y-76199512D01*
X150727612Y-76331012D01*
X150596112Y-76438932D01*
X150446088Y-76519121D01*
X150418433Y-76527510D01*
X150283295Y-76568504D01*
X150170432Y-76579620D01*
X150114001Y-76585178D01*
X150114000Y-76585178D01*
X149944706Y-76568504D01*
X149809568Y-76527510D01*
X149781913Y-76519121D01*
X149631889Y-76438932D01*
X149541946Y-76365117D01*
X149500388Y-76331012D01*
X149392469Y-76199512D01*
X149392467Y-76199509D01*
X149312279Y-76049488D01*
X149293723Y-75988316D01*
X149262896Y-75886695D01*
X149254538Y-75801837D01*
X149250400Y-75759821D01*
X149250400Y-75370180D01*
X149262604Y-75246269D01*
X149262896Y-75243306D01*
X149308017Y-75094563D01*
X149312279Y-75080513D01*
X149392468Y-74930488D01*
X149500388Y-74798988D01*
X149631888Y-74691068D01*
X149781912Y-74610879D01*
X149824273Y-74598029D01*
X149944705Y-74561496D01*
X150057568Y-74550380D01*
X150113999Y-74544822D01*
X150114000Y-74544822D01*
X150283294Y-74561496D01*
X150283294Y-74561496D01*
G37*
G36*
X147743294Y-74561496D02*
X147863726Y-74598029D01*
X147906087Y-74610879D01*
X148056112Y-74691068D01*
X148187612Y-74798988D01*
X148295532Y-74930488D01*
X148375721Y-75080512D01*
X148376844Y-75084215D01*
X148425104Y-75243305D01*
X148425396Y-75246269D01*
X148437600Y-75370179D01*
X148437600Y-75759820D01*
X148437076Y-75765136D01*
X148425104Y-75886694D01*
X148410618Y-75934448D01*
X148375721Y-76049488D01*
X148295532Y-76199512D01*
X148187612Y-76331012D01*
X148056112Y-76438932D01*
X147906088Y-76519121D01*
X147878433Y-76527510D01*
X147743295Y-76568504D01*
X147630432Y-76579620D01*
X147574001Y-76585178D01*
X147574000Y-76585178D01*
X147404706Y-76568504D01*
X147269568Y-76527510D01*
X147241913Y-76519121D01*
X147091889Y-76438932D01*
X147001946Y-76365117D01*
X146960388Y-76331012D01*
X146852469Y-76199512D01*
X146852467Y-76199509D01*
X146772279Y-76049488D01*
X146753723Y-75988316D01*
X146722896Y-75886695D01*
X146714538Y-75801837D01*
X146710400Y-75759821D01*
X146710400Y-75370180D01*
X146722604Y-75246269D01*
X146722896Y-75243306D01*
X146768017Y-75094563D01*
X146772279Y-75080513D01*
X146852468Y-74930488D01*
X146960388Y-74798988D01*
X147091888Y-74691068D01*
X147241912Y-74610879D01*
X147284273Y-74598029D01*
X147404705Y-74561496D01*
X147517568Y-74550380D01*
X147573999Y-74544822D01*
X147574000Y-74544822D01*
X147743294Y-74561496D01*
X147743294Y-74561496D01*
G37*
G36*
X113665229Y-75080512D02*
X113683845Y-75084215D01*
X113770231Y-75119997D01*
X113774839Y-75121906D01*
X113855640Y-75175896D01*
X113856734Y-75176627D01*
X113926373Y-75246266D01*
X113981095Y-75328163D01*
X114018785Y-75419155D01*
X114038000Y-75515755D01*
X114038000Y-75614245D01*
X114018785Y-75710845D01*
X113981095Y-75801837D01*
X113926373Y-75883734D01*
X113856734Y-75953373D01*
X113856731Y-75953375D01*
X113774839Y-76008094D01*
X113774838Y-76008095D01*
X113774837Y-76008095D01*
X113697811Y-76040000D01*
X113683845Y-76045785D01*
X113587246Y-76065000D01*
X113488754Y-76065000D01*
X113392155Y-76045785D01*
X113378189Y-76040000D01*
X113301163Y-76008095D01*
X113301162Y-76008095D01*
X113301161Y-76008094D01*
X113219269Y-75953375D01*
X113219266Y-75953373D01*
X113149627Y-75883734D01*
X113094905Y-75801837D01*
X113057215Y-75710845D01*
X113038000Y-75614245D01*
X113038000Y-75515755D01*
X113057215Y-75419155D01*
X113094905Y-75328163D01*
X113149627Y-75246266D01*
X113219266Y-75176627D01*
X113220360Y-75175896D01*
X113301161Y-75121906D01*
X113305770Y-75119997D01*
X113392155Y-75084215D01*
X113410771Y-75080512D01*
X113488754Y-75065000D01*
X113587246Y-75065000D01*
X113665229Y-75080512D01*
X113665229Y-75080512D01*
G37*
G36*
X118607024Y-75093955D02*
X118639736Y-75103879D01*
X118669890Y-75119997D01*
X118696316Y-75141684D01*
X118718003Y-75168110D01*
X118734121Y-75198264D01*
X118744045Y-75230976D01*
X118748000Y-75271138D01*
X118748000Y-75858862D01*
X118744045Y-75899024D01*
X118734121Y-75931736D01*
X118718003Y-75961890D01*
X118696316Y-75988316D01*
X118669890Y-76010003D01*
X118639736Y-76026121D01*
X118607024Y-76036045D01*
X118566862Y-76040000D01*
X117879138Y-76040000D01*
X117838976Y-76036045D01*
X117806264Y-76026121D01*
X117776110Y-76010003D01*
X117749684Y-75988316D01*
X117727997Y-75961890D01*
X117711879Y-75931736D01*
X117701955Y-75899024D01*
X117698000Y-75858862D01*
X117698000Y-75271138D01*
X117701955Y-75230976D01*
X117711879Y-75198264D01*
X117727997Y-75168110D01*
X117749684Y-75141684D01*
X117776110Y-75119997D01*
X117806264Y-75103879D01*
X117838976Y-75093955D01*
X117879138Y-75090000D01*
X118566862Y-75090000D01*
X118607024Y-75093955D01*
X118607024Y-75093955D01*
G37*
G36*
X116857024Y-75093955D02*
X116889736Y-75103879D01*
X116919890Y-75119997D01*
X116946316Y-75141684D01*
X116968003Y-75168110D01*
X116984121Y-75198264D01*
X116994045Y-75230976D01*
X116998000Y-75271138D01*
X116998000Y-75858862D01*
X116994045Y-75899024D01*
X116984121Y-75931736D01*
X116968003Y-75961890D01*
X116946316Y-75988316D01*
X116919890Y-76010003D01*
X116889736Y-76026121D01*
X116857024Y-76036045D01*
X116816862Y-76040000D01*
X116129138Y-76040000D01*
X116088976Y-76036045D01*
X116056264Y-76026121D01*
X116026110Y-76010003D01*
X115999684Y-75988316D01*
X115977997Y-75961890D01*
X115961879Y-75931736D01*
X115951955Y-75899024D01*
X115948000Y-75858862D01*
X115948000Y-75271138D01*
X115951955Y-75230976D01*
X115961879Y-75198264D01*
X115977997Y-75168110D01*
X115999684Y-75141684D01*
X116026110Y-75119997D01*
X116056264Y-75103879D01*
X116088976Y-75093955D01*
X116129138Y-75090000D01*
X116816862Y-75090000D01*
X116857024Y-75093955D01*
X116857024Y-75093955D01*
G37*
M02*
