G04 #@! TF.GenerationSoftware,KiCad,Pcbnew,5.1.5*
G04 #@! TF.CreationDate,2020-01-02T17:54:48+01:00*
G04 #@! TF.ProjectId,KiCad_Shield,4b694361-645f-4536-9869-656c642e6b69,rev?*
G04 #@! TF.SameCoordinates,Original*
G04 #@! TF.FileFunction,Soldermask,Bot*
G04 #@! TF.FilePolarity,Negative*
%FSLAX46Y46*%
G04 Gerber Fmt 4.6, Leading zero omitted, Abs format (unit mm)*
G04 Created by KiCad (PCBNEW 5.1.5) date 2020-01-02 17:54:48*
%MOMM*%
%LPD*%
G04 APERTURE LIST*
%ADD10C,0.100000*%
G04 APERTURE END LIST*
D10*
G36*
X125560711Y-121871088D02*
G01*
X125560714Y-121871089D01*
X125560713Y-121871089D01*
X125930513Y-122024265D01*
X126263325Y-122246643D01*
X126546357Y-122529675D01*
X126741346Y-122821496D01*
X126768736Y-122862489D01*
X126921912Y-123232289D01*
X127000000Y-123624864D01*
X127000000Y-124025136D01*
X126921912Y-124417711D01*
X126904598Y-124459510D01*
X126768735Y-124787513D01*
X126546357Y-125120325D01*
X126263325Y-125403357D01*
X125930513Y-125625735D01*
X125930512Y-125625736D01*
X125930511Y-125625736D01*
X125560711Y-125778912D01*
X125168136Y-125857000D01*
X124767864Y-125857000D01*
X124375289Y-125778912D01*
X124005489Y-125625736D01*
X124005488Y-125625736D01*
X124005487Y-125625735D01*
X123672675Y-125403357D01*
X123389643Y-125120325D01*
X123167265Y-124787513D01*
X123031402Y-124459510D01*
X123014088Y-124417711D01*
X122936000Y-124025136D01*
X122936000Y-123624864D01*
X123014088Y-123232289D01*
X123167264Y-122862489D01*
X123194655Y-122821496D01*
X123389643Y-122529675D01*
X123672675Y-122246643D01*
X124005487Y-122024265D01*
X124375287Y-121871089D01*
X124375286Y-121871089D01*
X124375289Y-121871088D01*
X124767864Y-121793000D01*
X125168136Y-121793000D01*
X125560711Y-121871088D01*
G37*
G36*
X172127294Y-122821496D02*
G01*
X172247726Y-122858029D01*
X172290087Y-122870879D01*
X172440107Y-122951066D01*
X172440110Y-122951068D01*
X172440111Y-122951069D01*
X172571612Y-123058988D01*
X172679531Y-123190488D01*
X172679533Y-123190492D01*
X172679534Y-123190493D01*
X172759721Y-123340513D01*
X172759722Y-123340516D01*
X172809104Y-123503305D01*
X172809104Y-123503307D01*
X172821600Y-123630179D01*
X172821600Y-124019820D01*
X172821076Y-124025136D01*
X172809104Y-124146694D01*
X172772571Y-124267128D01*
X172759721Y-124309488D01*
X172701874Y-124417711D01*
X172679531Y-124459512D01*
X172571612Y-124591012D01*
X172440112Y-124698931D01*
X172440108Y-124698933D01*
X172440107Y-124698934D01*
X172290087Y-124779121D01*
X172290084Y-124779122D01*
X172127295Y-124828504D01*
X171958000Y-124845178D01*
X171788706Y-124828504D01*
X171625917Y-124779122D01*
X171625914Y-124779121D01*
X171475894Y-124698934D01*
X171475893Y-124698933D01*
X171475889Y-124698931D01*
X171344388Y-124591012D01*
X171236469Y-124459512D01*
X171156280Y-124309488D01*
X171156279Y-124309487D01*
X171156278Y-124309484D01*
X171106896Y-124146695D01*
X171098565Y-124062112D01*
X171094400Y-124019821D01*
X171094400Y-123630180D01*
X171106896Y-123503308D01*
X171106896Y-123503306D01*
X171156278Y-123340517D01*
X171156279Y-123340513D01*
X171236466Y-123190493D01*
X171236470Y-123190488D01*
X171344388Y-123058988D01*
X171475888Y-122951069D01*
X171475892Y-122951067D01*
X171475893Y-122951066D01*
X171625913Y-122870879D01*
X171653571Y-122862489D01*
X171788705Y-122821496D01*
X171958000Y-122804822D01*
X172127294Y-122821496D01*
G37*
G36*
X174667294Y-122821496D02*
G01*
X174787726Y-122858029D01*
X174830087Y-122870879D01*
X174980107Y-122951066D01*
X174980110Y-122951068D01*
X174980111Y-122951069D01*
X175111612Y-123058988D01*
X175219531Y-123190488D01*
X175219533Y-123190492D01*
X175219534Y-123190493D01*
X175299721Y-123340513D01*
X175299722Y-123340516D01*
X175349104Y-123503305D01*
X175349104Y-123503307D01*
X175361600Y-123630179D01*
X175361600Y-124019820D01*
X175361076Y-124025136D01*
X175349104Y-124146694D01*
X175312571Y-124267128D01*
X175299721Y-124309488D01*
X175241874Y-124417711D01*
X175219531Y-124459512D01*
X175111612Y-124591012D01*
X174980112Y-124698931D01*
X174980108Y-124698933D01*
X174980107Y-124698934D01*
X174830087Y-124779121D01*
X174830084Y-124779122D01*
X174667295Y-124828504D01*
X174498000Y-124845178D01*
X174328706Y-124828504D01*
X174165917Y-124779122D01*
X174165914Y-124779121D01*
X174015894Y-124698934D01*
X174015893Y-124698933D01*
X174015889Y-124698931D01*
X173884388Y-124591012D01*
X173776469Y-124459512D01*
X173696280Y-124309488D01*
X173696279Y-124309487D01*
X173696278Y-124309484D01*
X173646896Y-124146695D01*
X173638565Y-124062112D01*
X173634400Y-124019821D01*
X173634400Y-123630180D01*
X173646896Y-123503308D01*
X173646896Y-123503306D01*
X173696278Y-123340517D01*
X173696279Y-123340513D01*
X173776466Y-123190493D01*
X173776470Y-123190488D01*
X173884388Y-123058988D01*
X174015888Y-122951069D01*
X174015892Y-122951067D01*
X174015893Y-122951066D01*
X174165913Y-122870879D01*
X174193571Y-122862489D01*
X174328705Y-122821496D01*
X174498000Y-122804822D01*
X174667294Y-122821496D01*
G37*
G36*
X169587294Y-122821496D02*
G01*
X169707726Y-122858029D01*
X169750087Y-122870879D01*
X169900107Y-122951066D01*
X169900110Y-122951068D01*
X169900111Y-122951069D01*
X170031612Y-123058988D01*
X170139531Y-123190488D01*
X170139533Y-123190492D01*
X170139534Y-123190493D01*
X170219721Y-123340513D01*
X170219722Y-123340516D01*
X170269104Y-123503305D01*
X170269104Y-123503307D01*
X170281600Y-123630179D01*
X170281600Y-124019820D01*
X170281076Y-124025136D01*
X170269104Y-124146694D01*
X170232571Y-124267128D01*
X170219721Y-124309488D01*
X170161874Y-124417711D01*
X170139531Y-124459512D01*
X170031612Y-124591012D01*
X169900112Y-124698931D01*
X169900108Y-124698933D01*
X169900107Y-124698934D01*
X169750087Y-124779121D01*
X169750084Y-124779122D01*
X169587295Y-124828504D01*
X169418000Y-124845178D01*
X169248706Y-124828504D01*
X169085917Y-124779122D01*
X169085914Y-124779121D01*
X168935894Y-124698934D01*
X168935893Y-124698933D01*
X168935889Y-124698931D01*
X168804388Y-124591012D01*
X168696469Y-124459512D01*
X168616280Y-124309488D01*
X168616279Y-124309487D01*
X168616278Y-124309484D01*
X168566896Y-124146695D01*
X168558565Y-124062112D01*
X168554400Y-124019821D01*
X168554400Y-123630180D01*
X168566896Y-123503308D01*
X168566896Y-123503306D01*
X168616278Y-123340517D01*
X168616279Y-123340513D01*
X168696466Y-123190493D01*
X168696470Y-123190488D01*
X168804388Y-123058988D01*
X168935888Y-122951069D01*
X168935892Y-122951067D01*
X168935893Y-122951066D01*
X169085913Y-122870879D01*
X169113571Y-122862489D01*
X169248705Y-122821496D01*
X169418000Y-122804822D01*
X169587294Y-122821496D01*
G37*
G36*
X167047294Y-122821496D02*
G01*
X167167726Y-122858029D01*
X167210087Y-122870879D01*
X167360107Y-122951066D01*
X167360110Y-122951068D01*
X167360111Y-122951069D01*
X167491612Y-123058988D01*
X167599531Y-123190488D01*
X167599533Y-123190492D01*
X167599534Y-123190493D01*
X167679721Y-123340513D01*
X167679722Y-123340516D01*
X167729104Y-123503305D01*
X167729104Y-123503307D01*
X167741600Y-123630179D01*
X167741600Y-124019820D01*
X167741076Y-124025136D01*
X167729104Y-124146694D01*
X167692571Y-124267128D01*
X167679721Y-124309488D01*
X167621874Y-124417711D01*
X167599531Y-124459512D01*
X167491612Y-124591012D01*
X167360112Y-124698931D01*
X167360108Y-124698933D01*
X167360107Y-124698934D01*
X167210087Y-124779121D01*
X167210084Y-124779122D01*
X167047295Y-124828504D01*
X166878000Y-124845178D01*
X166708706Y-124828504D01*
X166545917Y-124779122D01*
X166545914Y-124779121D01*
X166395894Y-124698934D01*
X166395893Y-124698933D01*
X166395889Y-124698931D01*
X166264388Y-124591012D01*
X166156469Y-124459512D01*
X166076280Y-124309488D01*
X166076279Y-124309487D01*
X166076278Y-124309484D01*
X166026896Y-124146695D01*
X166018565Y-124062112D01*
X166014400Y-124019821D01*
X166014400Y-123630180D01*
X166026896Y-123503308D01*
X166026896Y-123503306D01*
X166076278Y-123340517D01*
X166076279Y-123340513D01*
X166156466Y-123190493D01*
X166156470Y-123190488D01*
X166264388Y-123058988D01*
X166395888Y-122951069D01*
X166395892Y-122951067D01*
X166395893Y-122951066D01*
X166545913Y-122870879D01*
X166573571Y-122862489D01*
X166708705Y-122821496D01*
X166878000Y-122804822D01*
X167047294Y-122821496D01*
G37*
G36*
X164507294Y-122821496D02*
G01*
X164627726Y-122858029D01*
X164670087Y-122870879D01*
X164820107Y-122951066D01*
X164820110Y-122951068D01*
X164820111Y-122951069D01*
X164951612Y-123058988D01*
X165059531Y-123190488D01*
X165059533Y-123190492D01*
X165059534Y-123190493D01*
X165139721Y-123340513D01*
X165139722Y-123340516D01*
X165189104Y-123503305D01*
X165189104Y-123503307D01*
X165201600Y-123630179D01*
X165201600Y-124019820D01*
X165201076Y-124025136D01*
X165189104Y-124146694D01*
X165152571Y-124267128D01*
X165139721Y-124309488D01*
X165081874Y-124417711D01*
X165059531Y-124459512D01*
X164951612Y-124591012D01*
X164820112Y-124698931D01*
X164820108Y-124698933D01*
X164820107Y-124698934D01*
X164670087Y-124779121D01*
X164670084Y-124779122D01*
X164507295Y-124828504D01*
X164338000Y-124845178D01*
X164168706Y-124828504D01*
X164005917Y-124779122D01*
X164005914Y-124779121D01*
X163855894Y-124698934D01*
X163855893Y-124698933D01*
X163855889Y-124698931D01*
X163724388Y-124591012D01*
X163616469Y-124459512D01*
X163536280Y-124309488D01*
X163536279Y-124309487D01*
X163536278Y-124309484D01*
X163486896Y-124146695D01*
X163478565Y-124062112D01*
X163474400Y-124019821D01*
X163474400Y-123630180D01*
X163486896Y-123503308D01*
X163486896Y-123503306D01*
X163536278Y-123340517D01*
X163536279Y-123340513D01*
X163616466Y-123190493D01*
X163616470Y-123190488D01*
X163724388Y-123058988D01*
X163855888Y-122951069D01*
X163855892Y-122951067D01*
X163855893Y-122951066D01*
X164005913Y-122870879D01*
X164033571Y-122862489D01*
X164168705Y-122821496D01*
X164338000Y-122804822D01*
X164507294Y-122821496D01*
G37*
G36*
X161967294Y-122821496D02*
G01*
X162087726Y-122858029D01*
X162130087Y-122870879D01*
X162280107Y-122951066D01*
X162280110Y-122951068D01*
X162280111Y-122951069D01*
X162411612Y-123058988D01*
X162519531Y-123190488D01*
X162519533Y-123190492D01*
X162519534Y-123190493D01*
X162599721Y-123340513D01*
X162599722Y-123340516D01*
X162649104Y-123503305D01*
X162649104Y-123503307D01*
X162661600Y-123630179D01*
X162661600Y-124019820D01*
X162661076Y-124025136D01*
X162649104Y-124146694D01*
X162612571Y-124267128D01*
X162599721Y-124309488D01*
X162541874Y-124417711D01*
X162519531Y-124459512D01*
X162411612Y-124591012D01*
X162280112Y-124698931D01*
X162280108Y-124698933D01*
X162280107Y-124698934D01*
X162130087Y-124779121D01*
X162130084Y-124779122D01*
X161967295Y-124828504D01*
X161798000Y-124845178D01*
X161628706Y-124828504D01*
X161465917Y-124779122D01*
X161465914Y-124779121D01*
X161315894Y-124698934D01*
X161315893Y-124698933D01*
X161315889Y-124698931D01*
X161184388Y-124591012D01*
X161076469Y-124459512D01*
X160996280Y-124309488D01*
X160996279Y-124309487D01*
X160996278Y-124309484D01*
X160946896Y-124146695D01*
X160938565Y-124062112D01*
X160934400Y-124019821D01*
X160934400Y-123630180D01*
X160946896Y-123503308D01*
X160946896Y-123503306D01*
X160996278Y-123340517D01*
X160996279Y-123340513D01*
X161076466Y-123190493D01*
X161076470Y-123190488D01*
X161184388Y-123058988D01*
X161315888Y-122951069D01*
X161315892Y-122951067D01*
X161315893Y-122951066D01*
X161465913Y-122870879D01*
X161493571Y-122862489D01*
X161628705Y-122821496D01*
X161798000Y-122804822D01*
X161967294Y-122821496D01*
G37*
G36*
X156887294Y-122821496D02*
G01*
X157007726Y-122858029D01*
X157050087Y-122870879D01*
X157200107Y-122951066D01*
X157200110Y-122951068D01*
X157200111Y-122951069D01*
X157331612Y-123058988D01*
X157439531Y-123190488D01*
X157439533Y-123190492D01*
X157439534Y-123190493D01*
X157519721Y-123340513D01*
X157519722Y-123340516D01*
X157569104Y-123503305D01*
X157569104Y-123503307D01*
X157581600Y-123630179D01*
X157581600Y-124019820D01*
X157581076Y-124025136D01*
X157569104Y-124146694D01*
X157532571Y-124267128D01*
X157519721Y-124309488D01*
X157461874Y-124417711D01*
X157439531Y-124459512D01*
X157331612Y-124591012D01*
X157200112Y-124698931D01*
X157200108Y-124698933D01*
X157200107Y-124698934D01*
X157050087Y-124779121D01*
X157050084Y-124779122D01*
X156887295Y-124828504D01*
X156718000Y-124845178D01*
X156548706Y-124828504D01*
X156385917Y-124779122D01*
X156385914Y-124779121D01*
X156235894Y-124698934D01*
X156235893Y-124698933D01*
X156235889Y-124698931D01*
X156104388Y-124591012D01*
X155996469Y-124459512D01*
X155916280Y-124309488D01*
X155916279Y-124309487D01*
X155916278Y-124309484D01*
X155866896Y-124146695D01*
X155858565Y-124062112D01*
X155854400Y-124019821D01*
X155854400Y-123630180D01*
X155866896Y-123503308D01*
X155866896Y-123503306D01*
X155916278Y-123340517D01*
X155916279Y-123340513D01*
X155996466Y-123190493D01*
X155996470Y-123190488D01*
X156104388Y-123058988D01*
X156235888Y-122951069D01*
X156235892Y-122951067D01*
X156235893Y-122951066D01*
X156385913Y-122870879D01*
X156413571Y-122862489D01*
X156548705Y-122821496D01*
X156718000Y-122804822D01*
X156887294Y-122821496D01*
G37*
G36*
X151807294Y-122821496D02*
G01*
X151927726Y-122858029D01*
X151970087Y-122870879D01*
X152120107Y-122951066D01*
X152120110Y-122951068D01*
X152120111Y-122951069D01*
X152251612Y-123058988D01*
X152359531Y-123190488D01*
X152359533Y-123190492D01*
X152359534Y-123190493D01*
X152439721Y-123340513D01*
X152439722Y-123340516D01*
X152489104Y-123503305D01*
X152489104Y-123503307D01*
X152501600Y-123630179D01*
X152501600Y-124019820D01*
X152501076Y-124025136D01*
X152489104Y-124146694D01*
X152452571Y-124267128D01*
X152439721Y-124309488D01*
X152381874Y-124417711D01*
X152359531Y-124459512D01*
X152251612Y-124591012D01*
X152120112Y-124698931D01*
X152120108Y-124698933D01*
X152120107Y-124698934D01*
X151970087Y-124779121D01*
X151970084Y-124779122D01*
X151807295Y-124828504D01*
X151638000Y-124845178D01*
X151468706Y-124828504D01*
X151305917Y-124779122D01*
X151305914Y-124779121D01*
X151155894Y-124698934D01*
X151155893Y-124698933D01*
X151155889Y-124698931D01*
X151024388Y-124591012D01*
X150916469Y-124459512D01*
X150836280Y-124309488D01*
X150836279Y-124309487D01*
X150836278Y-124309484D01*
X150786896Y-124146695D01*
X150778565Y-124062112D01*
X150774400Y-124019821D01*
X150774400Y-123630180D01*
X150786896Y-123503308D01*
X150786896Y-123503306D01*
X150836278Y-123340517D01*
X150836279Y-123340513D01*
X150916466Y-123190493D01*
X150916470Y-123190488D01*
X151024388Y-123058988D01*
X151155888Y-122951069D01*
X151155892Y-122951067D01*
X151155893Y-122951066D01*
X151305913Y-122870879D01*
X151333571Y-122862489D01*
X151468705Y-122821496D01*
X151638000Y-122804822D01*
X151807294Y-122821496D01*
G37*
G36*
X139107294Y-122821496D02*
G01*
X139227726Y-122858029D01*
X139270087Y-122870879D01*
X139420107Y-122951066D01*
X139420110Y-122951068D01*
X139420111Y-122951069D01*
X139551612Y-123058988D01*
X139659531Y-123190488D01*
X139659533Y-123190492D01*
X139659534Y-123190493D01*
X139739721Y-123340513D01*
X139739722Y-123340516D01*
X139789104Y-123503305D01*
X139789104Y-123503307D01*
X139801600Y-123630179D01*
X139801600Y-124019820D01*
X139801076Y-124025136D01*
X139789104Y-124146694D01*
X139752571Y-124267128D01*
X139739721Y-124309488D01*
X139681874Y-124417711D01*
X139659531Y-124459512D01*
X139551612Y-124591012D01*
X139420112Y-124698931D01*
X139420108Y-124698933D01*
X139420107Y-124698934D01*
X139270087Y-124779121D01*
X139270084Y-124779122D01*
X139107295Y-124828504D01*
X138938000Y-124845178D01*
X138768706Y-124828504D01*
X138605917Y-124779122D01*
X138605914Y-124779121D01*
X138455894Y-124698934D01*
X138455893Y-124698933D01*
X138455889Y-124698931D01*
X138324388Y-124591012D01*
X138216469Y-124459512D01*
X138136280Y-124309488D01*
X138136279Y-124309487D01*
X138136278Y-124309484D01*
X138086896Y-124146695D01*
X138078565Y-124062112D01*
X138074400Y-124019821D01*
X138074400Y-123630180D01*
X138086896Y-123503308D01*
X138086896Y-123503306D01*
X138136278Y-123340517D01*
X138136279Y-123340513D01*
X138216466Y-123190493D01*
X138216470Y-123190488D01*
X138324388Y-123058988D01*
X138455888Y-122951069D01*
X138455892Y-122951067D01*
X138455893Y-122951066D01*
X138605913Y-122870879D01*
X138633571Y-122862489D01*
X138768705Y-122821496D01*
X138938000Y-122804822D01*
X139107294Y-122821496D01*
G37*
G36*
X141647294Y-122821496D02*
G01*
X141767726Y-122858029D01*
X141810087Y-122870879D01*
X141960107Y-122951066D01*
X141960110Y-122951068D01*
X141960111Y-122951069D01*
X142091612Y-123058988D01*
X142199531Y-123190488D01*
X142199533Y-123190492D01*
X142199534Y-123190493D01*
X142279721Y-123340513D01*
X142279722Y-123340516D01*
X142329104Y-123503305D01*
X142329104Y-123503307D01*
X142341600Y-123630179D01*
X142341600Y-124019820D01*
X142341076Y-124025136D01*
X142329104Y-124146694D01*
X142292571Y-124267128D01*
X142279721Y-124309488D01*
X142221874Y-124417711D01*
X142199531Y-124459512D01*
X142091612Y-124591012D01*
X141960112Y-124698931D01*
X141960108Y-124698933D01*
X141960107Y-124698934D01*
X141810087Y-124779121D01*
X141810084Y-124779122D01*
X141647295Y-124828504D01*
X141478000Y-124845178D01*
X141308706Y-124828504D01*
X141145917Y-124779122D01*
X141145914Y-124779121D01*
X140995894Y-124698934D01*
X140995893Y-124698933D01*
X140995889Y-124698931D01*
X140864388Y-124591012D01*
X140756469Y-124459512D01*
X140676280Y-124309488D01*
X140676279Y-124309487D01*
X140676278Y-124309484D01*
X140626896Y-124146695D01*
X140618565Y-124062112D01*
X140614400Y-124019821D01*
X140614400Y-123630180D01*
X140626896Y-123503308D01*
X140626896Y-123503306D01*
X140676278Y-123340517D01*
X140676279Y-123340513D01*
X140756466Y-123190493D01*
X140756470Y-123190488D01*
X140864388Y-123058988D01*
X140995888Y-122951069D01*
X140995892Y-122951067D01*
X140995893Y-122951066D01*
X141145913Y-122870879D01*
X141173571Y-122862489D01*
X141308705Y-122821496D01*
X141478000Y-122804822D01*
X141647294Y-122821496D01*
G37*
G36*
X144187294Y-122821496D02*
G01*
X144307726Y-122858029D01*
X144350087Y-122870879D01*
X144500107Y-122951066D01*
X144500110Y-122951068D01*
X144500111Y-122951069D01*
X144631612Y-123058988D01*
X144739531Y-123190488D01*
X144739533Y-123190492D01*
X144739534Y-123190493D01*
X144819721Y-123340513D01*
X144819722Y-123340516D01*
X144869104Y-123503305D01*
X144869104Y-123503307D01*
X144881600Y-123630179D01*
X144881600Y-124019820D01*
X144881076Y-124025136D01*
X144869104Y-124146694D01*
X144832571Y-124267128D01*
X144819721Y-124309488D01*
X144761874Y-124417711D01*
X144739531Y-124459512D01*
X144631612Y-124591012D01*
X144500112Y-124698931D01*
X144500108Y-124698933D01*
X144500107Y-124698934D01*
X144350087Y-124779121D01*
X144350084Y-124779122D01*
X144187295Y-124828504D01*
X144018000Y-124845178D01*
X143848706Y-124828504D01*
X143685917Y-124779122D01*
X143685914Y-124779121D01*
X143535894Y-124698934D01*
X143535893Y-124698933D01*
X143535889Y-124698931D01*
X143404388Y-124591012D01*
X143296469Y-124459512D01*
X143216280Y-124309488D01*
X143216279Y-124309487D01*
X143216278Y-124309484D01*
X143166896Y-124146695D01*
X143158565Y-124062112D01*
X143154400Y-124019821D01*
X143154400Y-123630180D01*
X143166896Y-123503308D01*
X143166896Y-123503306D01*
X143216278Y-123340517D01*
X143216279Y-123340513D01*
X143296466Y-123190493D01*
X143296470Y-123190488D01*
X143404388Y-123058988D01*
X143535888Y-122951069D01*
X143535892Y-122951067D01*
X143535893Y-122951066D01*
X143685913Y-122870879D01*
X143713571Y-122862489D01*
X143848705Y-122821496D01*
X144018000Y-122804822D01*
X144187294Y-122821496D01*
G37*
G36*
X146727294Y-122821496D02*
G01*
X146847726Y-122858029D01*
X146890087Y-122870879D01*
X147040107Y-122951066D01*
X147040110Y-122951068D01*
X147040111Y-122951069D01*
X147171612Y-123058988D01*
X147279531Y-123190488D01*
X147279533Y-123190492D01*
X147279534Y-123190493D01*
X147359721Y-123340513D01*
X147359722Y-123340516D01*
X147409104Y-123503305D01*
X147409104Y-123503307D01*
X147421600Y-123630179D01*
X147421600Y-124019820D01*
X147421076Y-124025136D01*
X147409104Y-124146694D01*
X147372571Y-124267128D01*
X147359721Y-124309488D01*
X147301874Y-124417711D01*
X147279531Y-124459512D01*
X147171612Y-124591012D01*
X147040112Y-124698931D01*
X147040108Y-124698933D01*
X147040107Y-124698934D01*
X146890087Y-124779121D01*
X146890084Y-124779122D01*
X146727295Y-124828504D01*
X146558000Y-124845178D01*
X146388706Y-124828504D01*
X146225917Y-124779122D01*
X146225914Y-124779121D01*
X146075894Y-124698934D01*
X146075893Y-124698933D01*
X146075889Y-124698931D01*
X145944388Y-124591012D01*
X145836469Y-124459512D01*
X145756280Y-124309488D01*
X145756279Y-124309487D01*
X145756278Y-124309484D01*
X145706896Y-124146695D01*
X145698565Y-124062112D01*
X145694400Y-124019821D01*
X145694400Y-123630180D01*
X145706896Y-123503308D01*
X145706896Y-123503306D01*
X145756278Y-123340517D01*
X145756279Y-123340513D01*
X145836466Y-123190493D01*
X145836470Y-123190488D01*
X145944388Y-123058988D01*
X146075888Y-122951069D01*
X146075892Y-122951067D01*
X146075893Y-122951066D01*
X146225913Y-122870879D01*
X146253571Y-122862489D01*
X146388705Y-122821496D01*
X146558000Y-122804822D01*
X146727294Y-122821496D01*
G37*
G36*
X149267294Y-122821496D02*
G01*
X149387726Y-122858029D01*
X149430087Y-122870879D01*
X149580107Y-122951066D01*
X149580110Y-122951068D01*
X149580111Y-122951069D01*
X149711612Y-123058988D01*
X149819531Y-123190488D01*
X149819533Y-123190492D01*
X149819534Y-123190493D01*
X149899721Y-123340513D01*
X149899722Y-123340516D01*
X149949104Y-123503305D01*
X149949104Y-123503307D01*
X149961600Y-123630179D01*
X149961600Y-124019820D01*
X149961076Y-124025136D01*
X149949104Y-124146694D01*
X149912571Y-124267128D01*
X149899721Y-124309488D01*
X149841874Y-124417711D01*
X149819531Y-124459512D01*
X149711612Y-124591012D01*
X149580112Y-124698931D01*
X149580108Y-124698933D01*
X149580107Y-124698934D01*
X149430087Y-124779121D01*
X149430084Y-124779122D01*
X149267295Y-124828504D01*
X149098000Y-124845178D01*
X148928706Y-124828504D01*
X148765917Y-124779122D01*
X148765914Y-124779121D01*
X148615894Y-124698934D01*
X148615893Y-124698933D01*
X148615889Y-124698931D01*
X148484388Y-124591012D01*
X148376469Y-124459512D01*
X148296280Y-124309488D01*
X148296279Y-124309487D01*
X148296278Y-124309484D01*
X148246896Y-124146695D01*
X148238565Y-124062112D01*
X148234400Y-124019821D01*
X148234400Y-123630180D01*
X148246896Y-123503308D01*
X148246896Y-123503306D01*
X148296278Y-123340517D01*
X148296279Y-123340513D01*
X148376466Y-123190493D01*
X148376470Y-123190488D01*
X148484388Y-123058988D01*
X148615888Y-122951069D01*
X148615892Y-122951067D01*
X148615893Y-122951066D01*
X148765913Y-122870879D01*
X148793571Y-122862489D01*
X148928705Y-122821496D01*
X149098000Y-122804822D01*
X149267294Y-122821496D01*
G37*
G36*
X154347294Y-122821496D02*
G01*
X154467726Y-122858029D01*
X154510087Y-122870879D01*
X154660107Y-122951066D01*
X154660110Y-122951068D01*
X154660111Y-122951069D01*
X154791612Y-123058988D01*
X154899531Y-123190488D01*
X154899533Y-123190492D01*
X154899534Y-123190493D01*
X154979721Y-123340513D01*
X154979722Y-123340516D01*
X155029104Y-123503305D01*
X155029104Y-123503307D01*
X155041600Y-123630179D01*
X155041600Y-124019820D01*
X155041076Y-124025136D01*
X155029104Y-124146694D01*
X154992571Y-124267128D01*
X154979721Y-124309488D01*
X154921874Y-124417711D01*
X154899531Y-124459512D01*
X154791612Y-124591012D01*
X154660112Y-124698931D01*
X154660108Y-124698933D01*
X154660107Y-124698934D01*
X154510087Y-124779121D01*
X154510084Y-124779122D01*
X154347295Y-124828504D01*
X154178000Y-124845178D01*
X154008706Y-124828504D01*
X153845917Y-124779122D01*
X153845914Y-124779121D01*
X153695894Y-124698934D01*
X153695893Y-124698933D01*
X153695889Y-124698931D01*
X153564388Y-124591012D01*
X153456469Y-124459512D01*
X153376280Y-124309488D01*
X153376279Y-124309487D01*
X153376278Y-124309484D01*
X153326896Y-124146695D01*
X153318565Y-124062112D01*
X153314400Y-124019821D01*
X153314400Y-123630180D01*
X153326896Y-123503308D01*
X153326896Y-123503306D01*
X153376278Y-123340517D01*
X153376279Y-123340513D01*
X153456466Y-123190493D01*
X153456470Y-123190488D01*
X153564388Y-123058988D01*
X153695888Y-122951069D01*
X153695892Y-122951067D01*
X153695893Y-122951066D01*
X153845913Y-122870879D01*
X153873571Y-122862489D01*
X154008705Y-122821496D01*
X154178000Y-122804822D01*
X154347294Y-122821496D01*
G37*
G36*
X177630711Y-116791088D02*
G01*
X177630714Y-116791089D01*
X177630713Y-116791089D01*
X178000513Y-116944265D01*
X178168047Y-117056208D01*
X178333324Y-117166642D01*
X178616358Y-117449676D01*
X178838736Y-117782489D01*
X178991912Y-118152289D01*
X179070000Y-118544864D01*
X179070000Y-118945136D01*
X178991912Y-119337711D01*
X178991911Y-119337713D01*
X178838735Y-119707513D01*
X178616357Y-120040325D01*
X178333325Y-120323357D01*
X178000513Y-120545735D01*
X178000512Y-120545736D01*
X178000511Y-120545736D01*
X177630711Y-120698912D01*
X177238136Y-120777000D01*
X176837864Y-120777000D01*
X176445289Y-120698912D01*
X176075489Y-120545736D01*
X176075488Y-120545736D01*
X176075487Y-120545735D01*
X175742675Y-120323357D01*
X175459643Y-120040325D01*
X175237265Y-119707513D01*
X175084089Y-119337713D01*
X175084088Y-119337711D01*
X175006000Y-118945136D01*
X175006000Y-118544864D01*
X175084088Y-118152289D01*
X175237264Y-117782489D01*
X175459642Y-117449676D01*
X175742676Y-117166642D01*
X175907953Y-117056208D01*
X176075487Y-116944265D01*
X176445287Y-116791089D01*
X176445286Y-116791089D01*
X176445289Y-116791088D01*
X176837864Y-116713000D01*
X177238136Y-116713000D01*
X177630711Y-116791088D01*
G37*
G36*
X114554000Y-110718600D02*
G01*
X112522000Y-110718600D01*
X112522000Y-108991400D01*
X114554000Y-108991400D01*
X114554000Y-110718600D01*
G37*
G36*
X113775112Y-106455565D02*
G01*
X113859695Y-106463896D01*
X114022484Y-106513278D01*
X114022487Y-106513279D01*
X114172507Y-106593466D01*
X114172508Y-106593467D01*
X114172512Y-106593469D01*
X114304012Y-106701388D01*
X114411931Y-106832888D01*
X114411933Y-106832892D01*
X114411934Y-106832893D01*
X114492121Y-106982913D01*
X114492122Y-106982916D01*
X114541504Y-107145705D01*
X114558178Y-107315000D01*
X114541504Y-107484295D01*
X114492122Y-107647084D01*
X114492121Y-107647087D01*
X114411934Y-107797107D01*
X114411931Y-107797112D01*
X114304012Y-107928612D01*
X114172512Y-108036531D01*
X114172508Y-108036533D01*
X114172507Y-108036534D01*
X114022487Y-108116721D01*
X114022484Y-108116722D01*
X113859695Y-108166104D01*
X113775112Y-108174435D01*
X113732821Y-108178600D01*
X113343179Y-108178600D01*
X113300888Y-108174435D01*
X113216305Y-108166104D01*
X113053516Y-108116722D01*
X113053513Y-108116721D01*
X112903493Y-108036534D01*
X112903492Y-108036533D01*
X112903488Y-108036531D01*
X112771988Y-107928612D01*
X112664069Y-107797112D01*
X112664066Y-107797107D01*
X112583879Y-107647087D01*
X112583878Y-107647084D01*
X112534496Y-107484295D01*
X112517822Y-107315000D01*
X112534496Y-107145705D01*
X112583878Y-106982916D01*
X112583879Y-106982913D01*
X112664066Y-106832893D01*
X112664067Y-106832892D01*
X112664069Y-106832888D01*
X112771988Y-106701388D01*
X112903488Y-106593469D01*
X112903492Y-106593467D01*
X112903493Y-106593466D01*
X113053513Y-106513279D01*
X113053516Y-106513278D01*
X113216305Y-106463896D01*
X113300888Y-106455565D01*
X113343179Y-106451400D01*
X113732821Y-106451400D01*
X113775112Y-106455565D01*
G37*
G36*
X113775112Y-103915565D02*
G01*
X113859695Y-103923896D01*
X114022484Y-103973278D01*
X114022487Y-103973279D01*
X114172507Y-104053466D01*
X114172508Y-104053467D01*
X114172512Y-104053469D01*
X114304012Y-104161388D01*
X114411931Y-104292888D01*
X114411933Y-104292892D01*
X114411934Y-104292893D01*
X114492121Y-104442913D01*
X114492122Y-104442916D01*
X114541504Y-104605705D01*
X114558178Y-104775000D01*
X114541504Y-104944295D01*
X114492122Y-105107084D01*
X114492121Y-105107087D01*
X114411934Y-105257107D01*
X114411931Y-105257112D01*
X114304012Y-105388612D01*
X114172512Y-105496531D01*
X114172508Y-105496533D01*
X114172507Y-105496534D01*
X114022487Y-105576721D01*
X114022484Y-105576722D01*
X113859695Y-105626104D01*
X113775112Y-105634435D01*
X113732821Y-105638600D01*
X113343179Y-105638600D01*
X113300888Y-105634435D01*
X113216305Y-105626104D01*
X113053516Y-105576722D01*
X113053513Y-105576721D01*
X112903493Y-105496534D01*
X112903492Y-105496533D01*
X112903488Y-105496531D01*
X112771988Y-105388612D01*
X112664069Y-105257112D01*
X112664066Y-105257107D01*
X112583879Y-105107087D01*
X112583878Y-105107084D01*
X112534496Y-104944295D01*
X112517822Y-104775000D01*
X112534496Y-104605705D01*
X112583878Y-104442916D01*
X112583879Y-104442913D01*
X112664066Y-104292893D01*
X112664067Y-104292892D01*
X112664069Y-104292888D01*
X112771988Y-104161388D01*
X112903488Y-104053469D01*
X112903492Y-104053467D01*
X112903493Y-104053466D01*
X113053513Y-103973279D01*
X113053516Y-103973278D01*
X113216305Y-103923896D01*
X113300888Y-103915565D01*
X113343179Y-103911400D01*
X113732821Y-103911400D01*
X113775112Y-103915565D01*
G37*
G36*
X177285935Y-102687664D02*
G01*
X177440624Y-102751739D01*
X177440626Y-102751740D01*
X177579844Y-102844762D01*
X177698238Y-102963156D01*
X177788738Y-103098600D01*
X177791261Y-103102376D01*
X177855336Y-103257065D01*
X177888000Y-103421281D01*
X177888000Y-103588719D01*
X177855336Y-103752935D01*
X177791261Y-103907624D01*
X177791260Y-103907626D01*
X177698238Y-104046844D01*
X177579844Y-104165238D01*
X177440626Y-104258260D01*
X177440625Y-104258261D01*
X177440624Y-104258261D01*
X177285935Y-104322336D01*
X177121719Y-104355000D01*
X176954281Y-104355000D01*
X176790065Y-104322336D01*
X176635376Y-104258261D01*
X176635375Y-104258261D01*
X176635374Y-104258260D01*
X176496156Y-104165238D01*
X176377762Y-104046844D01*
X176284740Y-103907626D01*
X176284739Y-103907624D01*
X176220664Y-103752935D01*
X176188000Y-103588719D01*
X176188000Y-103421281D01*
X176220664Y-103257065D01*
X176284739Y-103102376D01*
X176287262Y-103098600D01*
X176377762Y-102963156D01*
X176496156Y-102844762D01*
X176635374Y-102751740D01*
X176635376Y-102751739D01*
X176790065Y-102687664D01*
X176954281Y-102655000D01*
X177121719Y-102655000D01*
X177285935Y-102687664D01*
G37*
G36*
X113775112Y-101375565D02*
G01*
X113859695Y-101383896D01*
X114022484Y-101433278D01*
X114022487Y-101433279D01*
X114172507Y-101513466D01*
X114172508Y-101513467D01*
X114172512Y-101513469D01*
X114304012Y-101621388D01*
X114411931Y-101752888D01*
X114411933Y-101752892D01*
X114411934Y-101752893D01*
X114492121Y-101902913D01*
X114492122Y-101902916D01*
X114541504Y-102065705D01*
X114558178Y-102235000D01*
X114541504Y-102404295D01*
X114492122Y-102567084D01*
X114492121Y-102567087D01*
X114427671Y-102687665D01*
X114411931Y-102717112D01*
X114304012Y-102848612D01*
X114172512Y-102956531D01*
X114172508Y-102956533D01*
X114172507Y-102956534D01*
X114022487Y-103036721D01*
X114022484Y-103036722D01*
X113859695Y-103086104D01*
X113775112Y-103094435D01*
X113732821Y-103098600D01*
X113343179Y-103098600D01*
X113300888Y-103094435D01*
X113216305Y-103086104D01*
X113053516Y-103036722D01*
X113053513Y-103036721D01*
X112903493Y-102956534D01*
X112903492Y-102956533D01*
X112903488Y-102956531D01*
X112771988Y-102848612D01*
X112664069Y-102717112D01*
X112648329Y-102687665D01*
X112583879Y-102567087D01*
X112583878Y-102567084D01*
X112534496Y-102404295D01*
X112517822Y-102235000D01*
X112534496Y-102065705D01*
X112583878Y-101902916D01*
X112583879Y-101902913D01*
X112664066Y-101752893D01*
X112664067Y-101752892D01*
X112664069Y-101752888D01*
X112771988Y-101621388D01*
X112903488Y-101513469D01*
X112903492Y-101513467D01*
X112903493Y-101513466D01*
X113053513Y-101433279D01*
X113053516Y-101433278D01*
X113216305Y-101383896D01*
X113300888Y-101375565D01*
X113343179Y-101371400D01*
X113732821Y-101371400D01*
X113775112Y-101375565D01*
G37*
G36*
X177285935Y-100147664D02*
G01*
X177440624Y-100211739D01*
X177440626Y-100211740D01*
X177579844Y-100304762D01*
X177698238Y-100423156D01*
X177788738Y-100558600D01*
X177791261Y-100562376D01*
X177855336Y-100717065D01*
X177888000Y-100881281D01*
X177888000Y-101048719D01*
X177855336Y-101212935D01*
X177791261Y-101367624D01*
X177791260Y-101367626D01*
X177698238Y-101506844D01*
X177579844Y-101625238D01*
X177440626Y-101718260D01*
X177440625Y-101718261D01*
X177440624Y-101718261D01*
X177285935Y-101782336D01*
X177121719Y-101815000D01*
X176954281Y-101815000D01*
X176790065Y-101782336D01*
X176635376Y-101718261D01*
X176635375Y-101718261D01*
X176635374Y-101718260D01*
X176496156Y-101625238D01*
X176377762Y-101506844D01*
X176284740Y-101367626D01*
X176284739Y-101367624D01*
X176220664Y-101212935D01*
X176188000Y-101048719D01*
X176188000Y-100881281D01*
X176220664Y-100717065D01*
X176284739Y-100562376D01*
X176287262Y-100558600D01*
X176377762Y-100423156D01*
X176496156Y-100304762D01*
X176635374Y-100211740D01*
X176635376Y-100211739D01*
X176790065Y-100147664D01*
X176954281Y-100115000D01*
X177121719Y-100115000D01*
X177285935Y-100147664D01*
G37*
G36*
X113775112Y-98835565D02*
G01*
X113859695Y-98843896D01*
X114022484Y-98893278D01*
X114022487Y-98893279D01*
X114172507Y-98973466D01*
X114172508Y-98973467D01*
X114172512Y-98973469D01*
X114304012Y-99081388D01*
X114411931Y-99212888D01*
X114411933Y-99212892D01*
X114411934Y-99212893D01*
X114492121Y-99362913D01*
X114492122Y-99362916D01*
X114541504Y-99525705D01*
X114558178Y-99695000D01*
X114541504Y-99864295D01*
X114492122Y-100027084D01*
X114492121Y-100027087D01*
X114427671Y-100147665D01*
X114411931Y-100177112D01*
X114304012Y-100308612D01*
X114172512Y-100416531D01*
X114172508Y-100416533D01*
X114172507Y-100416534D01*
X114022487Y-100496721D01*
X114022484Y-100496722D01*
X113859695Y-100546104D01*
X113775112Y-100554435D01*
X113732821Y-100558600D01*
X113343179Y-100558600D01*
X113300888Y-100554435D01*
X113216305Y-100546104D01*
X113053516Y-100496722D01*
X113053513Y-100496721D01*
X112903493Y-100416534D01*
X112903492Y-100416533D01*
X112903488Y-100416531D01*
X112771988Y-100308612D01*
X112664069Y-100177112D01*
X112648329Y-100147665D01*
X112583879Y-100027087D01*
X112583878Y-100027084D01*
X112534496Y-99864295D01*
X112517822Y-99695000D01*
X112534496Y-99525705D01*
X112583878Y-99362916D01*
X112583879Y-99362913D01*
X112664066Y-99212893D01*
X112664067Y-99212892D01*
X112664069Y-99212888D01*
X112771988Y-99081388D01*
X112903488Y-98973469D01*
X112903492Y-98973467D01*
X112903493Y-98973466D01*
X113053513Y-98893279D01*
X113053516Y-98893278D01*
X113216305Y-98843896D01*
X113300888Y-98835565D01*
X113343179Y-98831400D01*
X113732821Y-98831400D01*
X113775112Y-98835565D01*
G37*
G36*
X177285935Y-97607664D02*
G01*
X177440624Y-97671739D01*
X177440626Y-97671740D01*
X177579844Y-97764762D01*
X177698238Y-97883156D01*
X177788738Y-98018600D01*
X177791261Y-98022376D01*
X177855336Y-98177065D01*
X177888000Y-98341281D01*
X177888000Y-98508719D01*
X177855336Y-98672935D01*
X177791261Y-98827624D01*
X177791260Y-98827626D01*
X177698238Y-98966844D01*
X177579844Y-99085238D01*
X177440626Y-99178260D01*
X177440625Y-99178261D01*
X177440624Y-99178261D01*
X177285935Y-99242336D01*
X177121719Y-99275000D01*
X176954281Y-99275000D01*
X176790065Y-99242336D01*
X176635376Y-99178261D01*
X176635375Y-99178261D01*
X176635374Y-99178260D01*
X176496156Y-99085238D01*
X176377762Y-98966844D01*
X176284740Y-98827626D01*
X176284739Y-98827624D01*
X176220664Y-98672935D01*
X176188000Y-98508719D01*
X176188000Y-98341281D01*
X176220664Y-98177065D01*
X176284739Y-98022376D01*
X176287262Y-98018600D01*
X176377762Y-97883156D01*
X176496156Y-97764762D01*
X176635374Y-97671740D01*
X176635376Y-97671739D01*
X176790065Y-97607664D01*
X176954281Y-97575000D01*
X177121719Y-97575000D01*
X177285935Y-97607664D01*
G37*
G36*
X113775112Y-96295565D02*
G01*
X113859695Y-96303896D01*
X114022484Y-96353278D01*
X114022487Y-96353279D01*
X114172507Y-96433466D01*
X114172508Y-96433467D01*
X114172512Y-96433469D01*
X114304012Y-96541388D01*
X114411931Y-96672888D01*
X114411933Y-96672892D01*
X114411934Y-96672893D01*
X114492121Y-96822913D01*
X114492122Y-96822916D01*
X114541504Y-96985705D01*
X114558178Y-97155000D01*
X114541504Y-97324295D01*
X114492122Y-97487084D01*
X114492121Y-97487087D01*
X114427671Y-97607665D01*
X114411931Y-97637112D01*
X114304012Y-97768612D01*
X114172512Y-97876531D01*
X114172508Y-97876533D01*
X114172507Y-97876534D01*
X114022487Y-97956721D01*
X114022484Y-97956722D01*
X113859695Y-98006104D01*
X113775112Y-98014435D01*
X113732821Y-98018600D01*
X113343179Y-98018600D01*
X113300888Y-98014435D01*
X113216305Y-98006104D01*
X113053516Y-97956722D01*
X113053513Y-97956721D01*
X112903493Y-97876534D01*
X112903492Y-97876533D01*
X112903488Y-97876531D01*
X112771988Y-97768612D01*
X112664069Y-97637112D01*
X112648329Y-97607665D01*
X112583879Y-97487087D01*
X112583878Y-97487084D01*
X112534496Y-97324295D01*
X112517822Y-97155000D01*
X112534496Y-96985705D01*
X112583878Y-96822916D01*
X112583879Y-96822913D01*
X112664066Y-96672893D01*
X112664067Y-96672892D01*
X112664069Y-96672888D01*
X112771988Y-96541388D01*
X112903488Y-96433469D01*
X112903492Y-96433467D01*
X112903493Y-96433466D01*
X113053513Y-96353279D01*
X113053516Y-96353278D01*
X113216305Y-96303896D01*
X113300888Y-96295565D01*
X113343179Y-96291400D01*
X113732821Y-96291400D01*
X113775112Y-96295565D01*
G37*
G36*
X177888000Y-96735000D02*
G01*
X176188000Y-96735000D01*
X176188000Y-95035000D01*
X177888000Y-95035000D01*
X177888000Y-96735000D01*
G37*
G36*
X113775112Y-93755565D02*
G01*
X113859695Y-93763896D01*
X114022484Y-93813278D01*
X114022487Y-93813279D01*
X114172507Y-93893466D01*
X114172508Y-93893467D01*
X114172512Y-93893469D01*
X114304012Y-94001388D01*
X114411931Y-94132888D01*
X114411933Y-94132892D01*
X114411934Y-94132893D01*
X114492121Y-94282913D01*
X114492122Y-94282916D01*
X114541504Y-94445705D01*
X114558178Y-94615000D01*
X114541504Y-94784295D01*
X114492122Y-94947084D01*
X114492121Y-94947087D01*
X114411934Y-95097107D01*
X114411931Y-95097112D01*
X114304012Y-95228612D01*
X114172512Y-95336531D01*
X114172508Y-95336533D01*
X114172507Y-95336534D01*
X114022487Y-95416721D01*
X114022484Y-95416722D01*
X113859695Y-95466104D01*
X113775112Y-95474435D01*
X113732821Y-95478600D01*
X113343179Y-95478600D01*
X113300888Y-95474435D01*
X113216305Y-95466104D01*
X113053516Y-95416722D01*
X113053513Y-95416721D01*
X112903493Y-95336534D01*
X112903492Y-95336533D01*
X112903488Y-95336531D01*
X112771988Y-95228612D01*
X112664069Y-95097112D01*
X112664066Y-95097107D01*
X112583879Y-94947087D01*
X112583878Y-94947084D01*
X112534496Y-94784295D01*
X112517822Y-94615000D01*
X112534496Y-94445705D01*
X112583878Y-94282916D01*
X112583879Y-94282913D01*
X112664066Y-94132893D01*
X112664067Y-94132892D01*
X112664069Y-94132888D01*
X112771988Y-94001388D01*
X112903488Y-93893469D01*
X112903492Y-93893467D01*
X112903493Y-93893466D01*
X113053513Y-93813279D01*
X113053516Y-93813278D01*
X113216305Y-93763896D01*
X113300888Y-93755565D01*
X113343179Y-93751400D01*
X113732821Y-93751400D01*
X113775112Y-93755565D01*
G37*
G36*
X113775112Y-91215565D02*
G01*
X113859695Y-91223896D01*
X114022484Y-91273278D01*
X114022487Y-91273279D01*
X114172507Y-91353466D01*
X114172508Y-91353467D01*
X114172512Y-91353469D01*
X114304012Y-91461388D01*
X114411931Y-91592888D01*
X114411933Y-91592892D01*
X114411934Y-91592893D01*
X114492121Y-91742913D01*
X114492122Y-91742916D01*
X114541504Y-91905705D01*
X114558178Y-92075000D01*
X114541504Y-92244295D01*
X114499319Y-92383358D01*
X114492121Y-92407087D01*
X114411934Y-92557107D01*
X114411931Y-92557112D01*
X114304012Y-92688612D01*
X114172512Y-92796531D01*
X114172508Y-92796533D01*
X114172507Y-92796534D01*
X114022487Y-92876721D01*
X114022484Y-92876722D01*
X113859695Y-92926104D01*
X113775112Y-92934435D01*
X113732821Y-92938600D01*
X113343179Y-92938600D01*
X113300888Y-92934435D01*
X113216305Y-92926104D01*
X113053516Y-92876722D01*
X113053513Y-92876721D01*
X112903493Y-92796534D01*
X112903492Y-92796533D01*
X112903488Y-92796531D01*
X112771988Y-92688612D01*
X112664069Y-92557112D01*
X112664066Y-92557107D01*
X112583879Y-92407087D01*
X112576681Y-92383358D01*
X112534496Y-92244295D01*
X112517822Y-92075000D01*
X112534496Y-91905705D01*
X112583878Y-91742916D01*
X112583879Y-91742913D01*
X112664066Y-91592893D01*
X112664067Y-91592892D01*
X112664069Y-91592888D01*
X112771988Y-91461388D01*
X112903488Y-91353469D01*
X112903492Y-91353467D01*
X112903493Y-91353466D01*
X113053513Y-91273279D01*
X113053516Y-91273278D01*
X113216305Y-91223896D01*
X113300888Y-91215565D01*
X113343179Y-91211400D01*
X113732821Y-91211400D01*
X113775112Y-91215565D01*
G37*
G36*
X177630711Y-88851088D02*
G01*
X178000511Y-89004264D01*
X178000513Y-89004265D01*
X178073282Y-89052888D01*
X178333324Y-89226642D01*
X178616358Y-89509676D01*
X178838736Y-89842489D01*
X178991912Y-90212289D01*
X179070000Y-90604864D01*
X179070000Y-91005136D01*
X178991912Y-91397711D01*
X178838736Y-91767511D01*
X178838735Y-91767513D01*
X178616357Y-92100325D01*
X178333325Y-92383357D01*
X178000513Y-92605735D01*
X178000512Y-92605736D01*
X178000511Y-92605736D01*
X177630711Y-92758912D01*
X177238136Y-92837000D01*
X176837864Y-92837000D01*
X176445289Y-92758912D01*
X176075489Y-92605736D01*
X176075488Y-92605736D01*
X176075487Y-92605735D01*
X175742675Y-92383357D01*
X175459643Y-92100325D01*
X175237265Y-91767513D01*
X175237264Y-91767511D01*
X175084088Y-91397711D01*
X175006000Y-91005136D01*
X175006000Y-90604864D01*
X175084088Y-90212289D01*
X175237264Y-89842489D01*
X175459642Y-89509676D01*
X175742676Y-89226642D01*
X176002718Y-89052888D01*
X176075487Y-89004265D01*
X176075489Y-89004264D01*
X176445289Y-88851088D01*
X176837864Y-88773000D01*
X177238136Y-88773000D01*
X177630711Y-88851088D01*
G37*
G36*
X113775112Y-88675565D02*
G01*
X113859695Y-88683896D01*
X114022484Y-88733278D01*
X114022487Y-88733279D01*
X114172507Y-88813466D01*
X114172508Y-88813467D01*
X114172512Y-88813469D01*
X114304012Y-88921388D01*
X114411931Y-89052888D01*
X114411933Y-89052892D01*
X114411934Y-89052893D01*
X114492121Y-89202913D01*
X114492122Y-89202916D01*
X114541504Y-89365705D01*
X114558178Y-89535000D01*
X114541504Y-89704295D01*
X114499583Y-89842487D01*
X114492121Y-89867087D01*
X114411934Y-90017107D01*
X114411931Y-90017112D01*
X114304012Y-90148612D01*
X114172512Y-90256531D01*
X114172508Y-90256533D01*
X114172507Y-90256534D01*
X114022487Y-90336721D01*
X114022484Y-90336722D01*
X113859695Y-90386104D01*
X113775112Y-90394435D01*
X113732821Y-90398600D01*
X113343179Y-90398600D01*
X113300888Y-90394435D01*
X113216305Y-90386104D01*
X113053516Y-90336722D01*
X113053513Y-90336721D01*
X112903493Y-90256534D01*
X112903492Y-90256533D01*
X112903488Y-90256531D01*
X112771988Y-90148612D01*
X112664069Y-90017112D01*
X112664066Y-90017107D01*
X112583879Y-89867087D01*
X112576417Y-89842487D01*
X112534496Y-89704295D01*
X112517822Y-89535000D01*
X112534496Y-89365705D01*
X112583878Y-89202916D01*
X112583879Y-89202913D01*
X112664066Y-89052893D01*
X112664067Y-89052892D01*
X112664069Y-89052888D01*
X112771988Y-88921388D01*
X112903488Y-88813469D01*
X112903492Y-88813467D01*
X112903493Y-88813466D01*
X113053513Y-88733279D01*
X113053516Y-88733278D01*
X113216305Y-88683896D01*
X113300888Y-88675565D01*
X113343179Y-88671400D01*
X113732821Y-88671400D01*
X113775112Y-88675565D01*
G37*
G36*
X113775112Y-86135565D02*
G01*
X113859695Y-86143896D01*
X114022484Y-86193278D01*
X114022487Y-86193279D01*
X114172507Y-86273466D01*
X114172508Y-86273467D01*
X114172512Y-86273469D01*
X114304012Y-86381388D01*
X114411931Y-86512888D01*
X114411933Y-86512892D01*
X114411934Y-86512893D01*
X114492121Y-86662913D01*
X114492122Y-86662916D01*
X114541504Y-86825705D01*
X114558178Y-86995000D01*
X114541504Y-87164295D01*
X114492122Y-87327084D01*
X114492121Y-87327087D01*
X114411934Y-87477107D01*
X114411931Y-87477112D01*
X114304012Y-87608612D01*
X114172512Y-87716531D01*
X114172508Y-87716533D01*
X114172507Y-87716534D01*
X114022487Y-87796721D01*
X114022484Y-87796722D01*
X113859695Y-87846104D01*
X113775112Y-87854435D01*
X113732821Y-87858600D01*
X113343179Y-87858600D01*
X113300888Y-87854435D01*
X113216305Y-87846104D01*
X113053516Y-87796722D01*
X113053513Y-87796721D01*
X112903493Y-87716534D01*
X112903492Y-87716533D01*
X112903488Y-87716531D01*
X112771988Y-87608612D01*
X112664069Y-87477112D01*
X112664066Y-87477107D01*
X112583879Y-87327087D01*
X112583878Y-87327084D01*
X112534496Y-87164295D01*
X112517822Y-86995000D01*
X112534496Y-86825705D01*
X112583878Y-86662916D01*
X112583879Y-86662913D01*
X112664066Y-86512893D01*
X112664067Y-86512892D01*
X112664069Y-86512888D01*
X112771988Y-86381388D01*
X112903488Y-86273469D01*
X112903492Y-86273467D01*
X112903493Y-86273466D01*
X113053513Y-86193279D01*
X113053516Y-86193278D01*
X113216305Y-86143896D01*
X113300888Y-86135565D01*
X113343179Y-86131400D01*
X113732821Y-86131400D01*
X113775112Y-86135565D01*
G37*
G36*
X126830711Y-73611088D02*
G01*
X126830714Y-73611089D01*
X126830713Y-73611089D01*
X127200513Y-73764265D01*
X127533325Y-73986643D01*
X127816357Y-74269675D01*
X128011346Y-74561496D01*
X128038736Y-74602489D01*
X128191912Y-74972289D01*
X128270000Y-75364864D01*
X128270000Y-75765136D01*
X128191912Y-76157711D01*
X128174598Y-76199510D01*
X128038735Y-76527513D01*
X127816357Y-76860325D01*
X127533325Y-77143357D01*
X127200513Y-77365735D01*
X127200512Y-77365736D01*
X127200511Y-77365736D01*
X126830711Y-77518912D01*
X126438136Y-77597000D01*
X126037864Y-77597000D01*
X125645289Y-77518912D01*
X125275489Y-77365736D01*
X125275488Y-77365736D01*
X125275487Y-77365735D01*
X124942675Y-77143357D01*
X124659643Y-76860325D01*
X124437265Y-76527513D01*
X124301402Y-76199510D01*
X124284088Y-76157711D01*
X124206000Y-75765136D01*
X124206000Y-75364864D01*
X124284088Y-74972289D01*
X124437264Y-74602489D01*
X124464655Y-74561496D01*
X124659643Y-74269675D01*
X124942675Y-73986643D01*
X125275487Y-73764265D01*
X125645287Y-73611089D01*
X125645286Y-73611089D01*
X125645289Y-73611088D01*
X126037864Y-73533000D01*
X126438136Y-73533000D01*
X126830711Y-73611088D01*
G37*
G36*
X152823294Y-74561496D02*
G01*
X152943726Y-74598029D01*
X152986087Y-74610879D01*
X153136107Y-74691066D01*
X153136110Y-74691068D01*
X153136111Y-74691069D01*
X153267612Y-74798988D01*
X153375531Y-74930488D01*
X153375533Y-74930492D01*
X153375534Y-74930493D01*
X153455721Y-75080513D01*
X153455722Y-75080516D01*
X153505104Y-75243305D01*
X153505104Y-75243307D01*
X153517600Y-75370179D01*
X153517600Y-75759820D01*
X153517076Y-75765136D01*
X153505104Y-75886694D01*
X153468571Y-76007128D01*
X153455721Y-76049488D01*
X153397874Y-76157711D01*
X153375531Y-76199512D01*
X153267612Y-76331012D01*
X153136112Y-76438931D01*
X153136108Y-76438933D01*
X153136107Y-76438934D01*
X152986087Y-76519121D01*
X152986084Y-76519122D01*
X152823295Y-76568504D01*
X152654000Y-76585178D01*
X152484706Y-76568504D01*
X152321917Y-76519122D01*
X152321914Y-76519121D01*
X152171894Y-76438934D01*
X152171893Y-76438933D01*
X152171889Y-76438931D01*
X152040388Y-76331012D01*
X151932469Y-76199512D01*
X151852280Y-76049488D01*
X151852279Y-76049487D01*
X151852278Y-76049484D01*
X151802896Y-75886695D01*
X151794565Y-75802112D01*
X151790400Y-75759821D01*
X151790400Y-75370180D01*
X151802896Y-75243308D01*
X151802896Y-75243306D01*
X151852278Y-75080517D01*
X151852279Y-75080513D01*
X151932466Y-74930493D01*
X151932470Y-74930488D01*
X152040388Y-74798988D01*
X152171888Y-74691069D01*
X152171892Y-74691067D01*
X152171893Y-74691066D01*
X152321913Y-74610879D01*
X152349571Y-74602489D01*
X152484705Y-74561496D01*
X152654000Y-74544822D01*
X152823294Y-74561496D01*
G37*
G36*
X132503294Y-74561496D02*
G01*
X132623726Y-74598029D01*
X132666087Y-74610879D01*
X132816107Y-74691066D01*
X132816110Y-74691068D01*
X132816111Y-74691069D01*
X132947612Y-74798988D01*
X133055531Y-74930488D01*
X133055533Y-74930492D01*
X133055534Y-74930493D01*
X133135721Y-75080513D01*
X133135722Y-75080516D01*
X133185104Y-75243305D01*
X133185104Y-75243307D01*
X133197600Y-75370179D01*
X133197600Y-75759820D01*
X133197076Y-75765136D01*
X133185104Y-75886694D01*
X133148571Y-76007128D01*
X133135721Y-76049488D01*
X133077874Y-76157711D01*
X133055531Y-76199512D01*
X132947612Y-76331012D01*
X132816112Y-76438931D01*
X132816108Y-76438933D01*
X132816107Y-76438934D01*
X132666087Y-76519121D01*
X132666084Y-76519122D01*
X132503295Y-76568504D01*
X132334000Y-76585178D01*
X132164706Y-76568504D01*
X132001917Y-76519122D01*
X132001914Y-76519121D01*
X131851894Y-76438934D01*
X131851893Y-76438933D01*
X131851889Y-76438931D01*
X131720388Y-76331012D01*
X131612469Y-76199512D01*
X131532280Y-76049488D01*
X131532279Y-76049487D01*
X131532278Y-76049484D01*
X131482896Y-75886695D01*
X131474565Y-75802112D01*
X131470400Y-75759821D01*
X131470400Y-75370180D01*
X131482896Y-75243308D01*
X131482896Y-75243306D01*
X131532278Y-75080517D01*
X131532279Y-75080513D01*
X131612466Y-74930493D01*
X131612470Y-74930488D01*
X131720388Y-74798988D01*
X131851888Y-74691069D01*
X131851892Y-74691067D01*
X131851893Y-74691066D01*
X132001913Y-74610879D01*
X132029571Y-74602489D01*
X132164705Y-74561496D01*
X132334000Y-74544822D01*
X132503294Y-74561496D01*
G37*
G36*
X135043294Y-74561496D02*
G01*
X135163726Y-74598029D01*
X135206087Y-74610879D01*
X135356107Y-74691066D01*
X135356110Y-74691068D01*
X135356111Y-74691069D01*
X135487612Y-74798988D01*
X135595531Y-74930488D01*
X135595533Y-74930492D01*
X135595534Y-74930493D01*
X135675721Y-75080513D01*
X135675722Y-75080516D01*
X135725104Y-75243305D01*
X135725104Y-75243307D01*
X135737600Y-75370179D01*
X135737600Y-75759820D01*
X135737076Y-75765136D01*
X135725104Y-75886694D01*
X135688571Y-76007128D01*
X135675721Y-76049488D01*
X135617874Y-76157711D01*
X135595531Y-76199512D01*
X135487612Y-76331012D01*
X135356112Y-76438931D01*
X135356108Y-76438933D01*
X135356107Y-76438934D01*
X135206087Y-76519121D01*
X135206084Y-76519122D01*
X135043295Y-76568504D01*
X134874000Y-76585178D01*
X134704706Y-76568504D01*
X134541917Y-76519122D01*
X134541914Y-76519121D01*
X134391894Y-76438934D01*
X134391893Y-76438933D01*
X134391889Y-76438931D01*
X134260388Y-76331012D01*
X134152469Y-76199512D01*
X134072280Y-76049488D01*
X134072279Y-76049487D01*
X134072278Y-76049484D01*
X134022896Y-75886695D01*
X134014565Y-75802112D01*
X134010400Y-75759821D01*
X134010400Y-75370180D01*
X134022896Y-75243308D01*
X134022896Y-75243306D01*
X134072278Y-75080517D01*
X134072279Y-75080513D01*
X134152466Y-74930493D01*
X134152470Y-74930488D01*
X134260388Y-74798988D01*
X134391888Y-74691069D01*
X134391892Y-74691067D01*
X134391893Y-74691066D01*
X134541913Y-74610879D01*
X134569571Y-74602489D01*
X134704705Y-74561496D01*
X134874000Y-74544822D01*
X135043294Y-74561496D01*
G37*
G36*
X137583294Y-74561496D02*
G01*
X137703726Y-74598029D01*
X137746087Y-74610879D01*
X137896107Y-74691066D01*
X137896110Y-74691068D01*
X137896111Y-74691069D01*
X138027612Y-74798988D01*
X138135531Y-74930488D01*
X138135533Y-74930492D01*
X138135534Y-74930493D01*
X138215721Y-75080513D01*
X138215722Y-75080516D01*
X138265104Y-75243305D01*
X138265104Y-75243307D01*
X138277600Y-75370179D01*
X138277600Y-75759820D01*
X138277076Y-75765136D01*
X138265104Y-75886694D01*
X138228571Y-76007128D01*
X138215721Y-76049488D01*
X138157874Y-76157711D01*
X138135531Y-76199512D01*
X138027612Y-76331012D01*
X137896112Y-76438931D01*
X137896108Y-76438933D01*
X137896107Y-76438934D01*
X137746087Y-76519121D01*
X137746084Y-76519122D01*
X137583295Y-76568504D01*
X137414000Y-76585178D01*
X137244706Y-76568504D01*
X137081917Y-76519122D01*
X137081914Y-76519121D01*
X136931894Y-76438934D01*
X136931893Y-76438933D01*
X136931889Y-76438931D01*
X136800388Y-76331012D01*
X136692469Y-76199512D01*
X136612280Y-76049488D01*
X136612279Y-76049487D01*
X136612278Y-76049484D01*
X136562896Y-75886695D01*
X136554565Y-75802112D01*
X136550400Y-75759821D01*
X136550400Y-75370180D01*
X136562896Y-75243308D01*
X136562896Y-75243306D01*
X136612278Y-75080517D01*
X136612279Y-75080513D01*
X136692466Y-74930493D01*
X136692470Y-74930488D01*
X136800388Y-74798988D01*
X136931888Y-74691069D01*
X136931892Y-74691067D01*
X136931893Y-74691066D01*
X137081913Y-74610879D01*
X137109571Y-74602489D01*
X137244705Y-74561496D01*
X137414000Y-74544822D01*
X137583294Y-74561496D01*
G37*
G36*
X140123294Y-74561496D02*
G01*
X140243726Y-74598029D01*
X140286087Y-74610879D01*
X140436107Y-74691066D01*
X140436110Y-74691068D01*
X140436111Y-74691069D01*
X140567612Y-74798988D01*
X140675531Y-74930488D01*
X140675533Y-74930492D01*
X140675534Y-74930493D01*
X140755721Y-75080513D01*
X140755722Y-75080516D01*
X140805104Y-75243305D01*
X140805104Y-75243307D01*
X140817600Y-75370179D01*
X140817600Y-75759820D01*
X140817076Y-75765136D01*
X140805104Y-75886694D01*
X140768571Y-76007128D01*
X140755721Y-76049488D01*
X140697874Y-76157711D01*
X140675531Y-76199512D01*
X140567612Y-76331012D01*
X140436112Y-76438931D01*
X140436108Y-76438933D01*
X140436107Y-76438934D01*
X140286087Y-76519121D01*
X140286084Y-76519122D01*
X140123295Y-76568504D01*
X139954000Y-76585178D01*
X139784706Y-76568504D01*
X139621917Y-76519122D01*
X139621914Y-76519121D01*
X139471894Y-76438934D01*
X139471893Y-76438933D01*
X139471889Y-76438931D01*
X139340388Y-76331012D01*
X139232469Y-76199512D01*
X139152280Y-76049488D01*
X139152279Y-76049487D01*
X139152278Y-76049484D01*
X139102896Y-75886695D01*
X139094565Y-75802112D01*
X139090400Y-75759821D01*
X139090400Y-75370180D01*
X139102896Y-75243308D01*
X139102896Y-75243306D01*
X139152278Y-75080517D01*
X139152279Y-75080513D01*
X139232466Y-74930493D01*
X139232470Y-74930488D01*
X139340388Y-74798988D01*
X139471888Y-74691069D01*
X139471892Y-74691067D01*
X139471893Y-74691066D01*
X139621913Y-74610879D01*
X139649571Y-74602489D01*
X139784705Y-74561496D01*
X139954000Y-74544822D01*
X140123294Y-74561496D01*
G37*
G36*
X145203294Y-74561496D02*
G01*
X145323726Y-74598029D01*
X145366087Y-74610879D01*
X145516107Y-74691066D01*
X145516110Y-74691068D01*
X145516111Y-74691069D01*
X145647612Y-74798988D01*
X145755531Y-74930488D01*
X145755533Y-74930492D01*
X145755534Y-74930493D01*
X145835721Y-75080513D01*
X145835722Y-75080516D01*
X145885104Y-75243305D01*
X145885104Y-75243307D01*
X145897600Y-75370179D01*
X145897600Y-75759820D01*
X145897076Y-75765136D01*
X145885104Y-75886694D01*
X145848571Y-76007128D01*
X145835721Y-76049488D01*
X145777874Y-76157711D01*
X145755531Y-76199512D01*
X145647612Y-76331012D01*
X145516112Y-76438931D01*
X145516108Y-76438933D01*
X145516107Y-76438934D01*
X145366087Y-76519121D01*
X145366084Y-76519122D01*
X145203295Y-76568504D01*
X145034000Y-76585178D01*
X144864706Y-76568504D01*
X144701917Y-76519122D01*
X144701914Y-76519121D01*
X144551894Y-76438934D01*
X144551893Y-76438933D01*
X144551889Y-76438931D01*
X144420388Y-76331012D01*
X144312469Y-76199512D01*
X144232280Y-76049488D01*
X144232279Y-76049487D01*
X144232278Y-76049484D01*
X144182896Y-75886695D01*
X144174565Y-75802112D01*
X144170400Y-75759821D01*
X144170400Y-75370180D01*
X144182896Y-75243308D01*
X144182896Y-75243306D01*
X144232278Y-75080517D01*
X144232279Y-75080513D01*
X144312466Y-74930493D01*
X144312470Y-74930488D01*
X144420388Y-74798988D01*
X144551888Y-74691069D01*
X144551892Y-74691067D01*
X144551893Y-74691066D01*
X144701913Y-74610879D01*
X144729571Y-74602489D01*
X144864705Y-74561496D01*
X145034000Y-74544822D01*
X145203294Y-74561496D01*
G37*
G36*
X147743294Y-74561496D02*
G01*
X147863726Y-74598029D01*
X147906087Y-74610879D01*
X148056107Y-74691066D01*
X148056110Y-74691068D01*
X148056111Y-74691069D01*
X148187612Y-74798988D01*
X148295531Y-74930488D01*
X148295533Y-74930492D01*
X148295534Y-74930493D01*
X148375721Y-75080513D01*
X148375722Y-75080516D01*
X148425104Y-75243305D01*
X148425104Y-75243307D01*
X148437600Y-75370179D01*
X148437600Y-75759820D01*
X148437076Y-75765136D01*
X148425104Y-75886694D01*
X148388571Y-76007128D01*
X148375721Y-76049488D01*
X148317874Y-76157711D01*
X148295531Y-76199512D01*
X148187612Y-76331012D01*
X148056112Y-76438931D01*
X148056108Y-76438933D01*
X148056107Y-76438934D01*
X147906087Y-76519121D01*
X147906084Y-76519122D01*
X147743295Y-76568504D01*
X147574000Y-76585178D01*
X147404706Y-76568504D01*
X147241917Y-76519122D01*
X147241914Y-76519121D01*
X147091894Y-76438934D01*
X147091893Y-76438933D01*
X147091889Y-76438931D01*
X146960388Y-76331012D01*
X146852469Y-76199512D01*
X146772280Y-76049488D01*
X146772279Y-76049487D01*
X146772278Y-76049484D01*
X146722896Y-75886695D01*
X146714565Y-75802112D01*
X146710400Y-75759821D01*
X146710400Y-75370180D01*
X146722896Y-75243308D01*
X146722896Y-75243306D01*
X146772278Y-75080517D01*
X146772279Y-75080513D01*
X146852466Y-74930493D01*
X146852470Y-74930488D01*
X146960388Y-74798988D01*
X147091888Y-74691069D01*
X147091892Y-74691067D01*
X147091893Y-74691066D01*
X147241913Y-74610879D01*
X147269571Y-74602489D01*
X147404705Y-74561496D01*
X147574000Y-74544822D01*
X147743294Y-74561496D01*
G37*
G36*
X150283294Y-74561496D02*
G01*
X150403726Y-74598029D01*
X150446087Y-74610879D01*
X150596107Y-74691066D01*
X150596110Y-74691068D01*
X150596111Y-74691069D01*
X150727612Y-74798988D01*
X150835531Y-74930488D01*
X150835533Y-74930492D01*
X150835534Y-74930493D01*
X150915721Y-75080513D01*
X150915722Y-75080516D01*
X150965104Y-75243305D01*
X150965104Y-75243307D01*
X150977600Y-75370179D01*
X150977600Y-75759820D01*
X150977076Y-75765136D01*
X150965104Y-75886694D01*
X150928571Y-76007128D01*
X150915721Y-76049488D01*
X150857874Y-76157711D01*
X150835531Y-76199512D01*
X150727612Y-76331012D01*
X150596112Y-76438931D01*
X150596108Y-76438933D01*
X150596107Y-76438934D01*
X150446087Y-76519121D01*
X150446084Y-76519122D01*
X150283295Y-76568504D01*
X150114000Y-76585178D01*
X149944706Y-76568504D01*
X149781917Y-76519122D01*
X149781914Y-76519121D01*
X149631894Y-76438934D01*
X149631893Y-76438933D01*
X149631889Y-76438931D01*
X149500388Y-76331012D01*
X149392469Y-76199512D01*
X149312280Y-76049488D01*
X149312279Y-76049487D01*
X149312278Y-76049484D01*
X149262896Y-75886695D01*
X149254565Y-75802112D01*
X149250400Y-75759821D01*
X149250400Y-75370180D01*
X149262896Y-75243308D01*
X149262896Y-75243306D01*
X149312278Y-75080517D01*
X149312279Y-75080513D01*
X149392466Y-74930493D01*
X149392470Y-74930488D01*
X149500388Y-74798988D01*
X149631888Y-74691069D01*
X149631892Y-74691067D01*
X149631893Y-74691066D01*
X149781913Y-74610879D01*
X149809571Y-74602489D01*
X149944705Y-74561496D01*
X150114000Y-74544822D01*
X150283294Y-74561496D01*
G37*
G36*
X129963294Y-74561496D02*
G01*
X130083726Y-74598029D01*
X130126087Y-74610879D01*
X130276107Y-74691066D01*
X130276110Y-74691068D01*
X130276111Y-74691069D01*
X130407612Y-74798988D01*
X130515531Y-74930488D01*
X130515533Y-74930492D01*
X130515534Y-74930493D01*
X130595721Y-75080513D01*
X130595722Y-75080516D01*
X130645104Y-75243305D01*
X130645104Y-75243307D01*
X130657600Y-75370179D01*
X130657600Y-75759820D01*
X130657076Y-75765136D01*
X130645104Y-75886694D01*
X130608571Y-76007128D01*
X130595721Y-76049488D01*
X130537874Y-76157711D01*
X130515531Y-76199512D01*
X130407612Y-76331012D01*
X130276112Y-76438931D01*
X130276108Y-76438933D01*
X130276107Y-76438934D01*
X130126087Y-76519121D01*
X130126084Y-76519122D01*
X129963295Y-76568504D01*
X129794000Y-76585178D01*
X129624706Y-76568504D01*
X129461917Y-76519122D01*
X129461914Y-76519121D01*
X129311894Y-76438934D01*
X129311893Y-76438933D01*
X129311889Y-76438931D01*
X129180388Y-76331012D01*
X129072469Y-76199512D01*
X128992280Y-76049488D01*
X128992279Y-76049487D01*
X128992278Y-76049484D01*
X128942896Y-75886695D01*
X128934565Y-75802112D01*
X128930400Y-75759821D01*
X128930400Y-75370180D01*
X128942896Y-75243308D01*
X128942896Y-75243306D01*
X128992278Y-75080517D01*
X128992279Y-75080513D01*
X129072466Y-74930493D01*
X129072470Y-74930488D01*
X129180388Y-74798988D01*
X129311888Y-74691069D01*
X129311892Y-74691067D01*
X129311893Y-74691066D01*
X129461913Y-74610879D01*
X129489571Y-74602489D01*
X129624705Y-74561496D01*
X129794000Y-74544822D01*
X129963294Y-74561496D01*
G37*
G36*
X156887294Y-74561496D02*
G01*
X157007726Y-74598029D01*
X157050087Y-74610879D01*
X157200107Y-74691066D01*
X157200110Y-74691068D01*
X157200111Y-74691069D01*
X157331612Y-74798988D01*
X157439531Y-74930488D01*
X157439533Y-74930492D01*
X157439534Y-74930493D01*
X157519721Y-75080513D01*
X157519722Y-75080516D01*
X157569104Y-75243305D01*
X157569104Y-75243307D01*
X157581600Y-75370179D01*
X157581600Y-75759820D01*
X157581076Y-75765136D01*
X157569104Y-75886694D01*
X157532571Y-76007128D01*
X157519721Y-76049488D01*
X157461874Y-76157711D01*
X157439531Y-76199512D01*
X157331612Y-76331012D01*
X157200112Y-76438931D01*
X157200108Y-76438933D01*
X157200107Y-76438934D01*
X157050087Y-76519121D01*
X157050084Y-76519122D01*
X156887295Y-76568504D01*
X156718000Y-76585178D01*
X156548706Y-76568504D01*
X156385917Y-76519122D01*
X156385914Y-76519121D01*
X156235894Y-76438934D01*
X156235893Y-76438933D01*
X156235889Y-76438931D01*
X156104388Y-76331012D01*
X155996469Y-76199512D01*
X155916280Y-76049488D01*
X155916279Y-76049487D01*
X155916278Y-76049484D01*
X155866896Y-75886695D01*
X155858565Y-75802112D01*
X155854400Y-75759821D01*
X155854400Y-75370180D01*
X155866896Y-75243308D01*
X155866896Y-75243306D01*
X155916278Y-75080517D01*
X155916279Y-75080513D01*
X155996466Y-74930493D01*
X155996470Y-74930488D01*
X156104388Y-74798988D01*
X156235888Y-74691069D01*
X156235892Y-74691067D01*
X156235893Y-74691066D01*
X156385913Y-74610879D01*
X156413571Y-74602489D01*
X156548705Y-74561496D01*
X156718000Y-74544822D01*
X156887294Y-74561496D01*
G37*
G36*
X159427294Y-74561496D02*
G01*
X159547726Y-74598029D01*
X159590087Y-74610879D01*
X159740107Y-74691066D01*
X159740110Y-74691068D01*
X159740111Y-74691069D01*
X159871612Y-74798988D01*
X159979531Y-74930488D01*
X159979533Y-74930492D01*
X159979534Y-74930493D01*
X160059721Y-75080513D01*
X160059722Y-75080516D01*
X160109104Y-75243305D01*
X160109104Y-75243307D01*
X160121600Y-75370179D01*
X160121600Y-75759820D01*
X160121076Y-75765136D01*
X160109104Y-75886694D01*
X160072571Y-76007128D01*
X160059721Y-76049488D01*
X160001874Y-76157711D01*
X159979531Y-76199512D01*
X159871612Y-76331012D01*
X159740112Y-76438931D01*
X159740108Y-76438933D01*
X159740107Y-76438934D01*
X159590087Y-76519121D01*
X159590084Y-76519122D01*
X159427295Y-76568504D01*
X159258000Y-76585178D01*
X159088706Y-76568504D01*
X158925917Y-76519122D01*
X158925914Y-76519121D01*
X158775894Y-76438934D01*
X158775893Y-76438933D01*
X158775889Y-76438931D01*
X158644388Y-76331012D01*
X158536469Y-76199512D01*
X158456280Y-76049488D01*
X158456279Y-76049487D01*
X158456278Y-76049484D01*
X158406896Y-75886695D01*
X158398565Y-75802112D01*
X158394400Y-75759821D01*
X158394400Y-75370180D01*
X158406896Y-75243308D01*
X158406896Y-75243306D01*
X158456278Y-75080517D01*
X158456279Y-75080513D01*
X158536466Y-74930493D01*
X158536470Y-74930488D01*
X158644388Y-74798988D01*
X158775888Y-74691069D01*
X158775892Y-74691067D01*
X158775893Y-74691066D01*
X158925913Y-74610879D01*
X158953571Y-74602489D01*
X159088705Y-74561496D01*
X159258000Y-74544822D01*
X159427294Y-74561496D01*
G37*
G36*
X161967294Y-74561496D02*
G01*
X162087726Y-74598029D01*
X162130087Y-74610879D01*
X162280107Y-74691066D01*
X162280110Y-74691068D01*
X162280111Y-74691069D01*
X162411612Y-74798988D01*
X162519531Y-74930488D01*
X162519533Y-74930492D01*
X162519534Y-74930493D01*
X162599721Y-75080513D01*
X162599722Y-75080516D01*
X162649104Y-75243305D01*
X162649104Y-75243307D01*
X162661600Y-75370179D01*
X162661600Y-75759820D01*
X162661076Y-75765136D01*
X162649104Y-75886694D01*
X162612571Y-76007128D01*
X162599721Y-76049488D01*
X162541874Y-76157711D01*
X162519531Y-76199512D01*
X162411612Y-76331012D01*
X162280112Y-76438931D01*
X162280108Y-76438933D01*
X162280107Y-76438934D01*
X162130087Y-76519121D01*
X162130084Y-76519122D01*
X161967295Y-76568504D01*
X161798000Y-76585178D01*
X161628706Y-76568504D01*
X161465917Y-76519122D01*
X161465914Y-76519121D01*
X161315894Y-76438934D01*
X161315893Y-76438933D01*
X161315889Y-76438931D01*
X161184388Y-76331012D01*
X161076469Y-76199512D01*
X160996280Y-76049488D01*
X160996279Y-76049487D01*
X160996278Y-76049484D01*
X160946896Y-75886695D01*
X160938565Y-75802112D01*
X160934400Y-75759821D01*
X160934400Y-75370180D01*
X160946896Y-75243308D01*
X160946896Y-75243306D01*
X160996278Y-75080517D01*
X160996279Y-75080513D01*
X161076466Y-74930493D01*
X161076470Y-74930488D01*
X161184388Y-74798988D01*
X161315888Y-74691069D01*
X161315892Y-74691067D01*
X161315893Y-74691066D01*
X161465913Y-74610879D01*
X161493571Y-74602489D01*
X161628705Y-74561496D01*
X161798000Y-74544822D01*
X161967294Y-74561496D01*
G37*
G36*
X164507294Y-74561496D02*
G01*
X164627726Y-74598029D01*
X164670087Y-74610879D01*
X164820107Y-74691066D01*
X164820110Y-74691068D01*
X164820111Y-74691069D01*
X164951612Y-74798988D01*
X165059531Y-74930488D01*
X165059533Y-74930492D01*
X165059534Y-74930493D01*
X165139721Y-75080513D01*
X165139722Y-75080516D01*
X165189104Y-75243305D01*
X165189104Y-75243307D01*
X165201600Y-75370179D01*
X165201600Y-75759820D01*
X165201076Y-75765136D01*
X165189104Y-75886694D01*
X165152571Y-76007128D01*
X165139721Y-76049488D01*
X165081874Y-76157711D01*
X165059531Y-76199512D01*
X164951612Y-76331012D01*
X164820112Y-76438931D01*
X164820108Y-76438933D01*
X164820107Y-76438934D01*
X164670087Y-76519121D01*
X164670084Y-76519122D01*
X164507295Y-76568504D01*
X164338000Y-76585178D01*
X164168706Y-76568504D01*
X164005917Y-76519122D01*
X164005914Y-76519121D01*
X163855894Y-76438934D01*
X163855893Y-76438933D01*
X163855889Y-76438931D01*
X163724388Y-76331012D01*
X163616469Y-76199512D01*
X163536280Y-76049488D01*
X163536279Y-76049487D01*
X163536278Y-76049484D01*
X163486896Y-75886695D01*
X163478565Y-75802112D01*
X163474400Y-75759821D01*
X163474400Y-75370180D01*
X163486896Y-75243308D01*
X163486896Y-75243306D01*
X163536278Y-75080517D01*
X163536279Y-75080513D01*
X163616466Y-74930493D01*
X163616470Y-74930488D01*
X163724388Y-74798988D01*
X163855888Y-74691069D01*
X163855892Y-74691067D01*
X163855893Y-74691066D01*
X164005913Y-74610879D01*
X164033571Y-74602489D01*
X164168705Y-74561496D01*
X164338000Y-74544822D01*
X164507294Y-74561496D01*
G37*
G36*
X167047294Y-74561496D02*
G01*
X167167726Y-74598029D01*
X167210087Y-74610879D01*
X167360107Y-74691066D01*
X167360110Y-74691068D01*
X167360111Y-74691069D01*
X167491612Y-74798988D01*
X167599531Y-74930488D01*
X167599533Y-74930492D01*
X167599534Y-74930493D01*
X167679721Y-75080513D01*
X167679722Y-75080516D01*
X167729104Y-75243305D01*
X167729104Y-75243307D01*
X167741600Y-75370179D01*
X167741600Y-75759820D01*
X167741076Y-75765136D01*
X167729104Y-75886694D01*
X167692571Y-76007128D01*
X167679721Y-76049488D01*
X167621874Y-76157711D01*
X167599531Y-76199512D01*
X167491612Y-76331012D01*
X167360112Y-76438931D01*
X167360108Y-76438933D01*
X167360107Y-76438934D01*
X167210087Y-76519121D01*
X167210084Y-76519122D01*
X167047295Y-76568504D01*
X166878000Y-76585178D01*
X166708706Y-76568504D01*
X166545917Y-76519122D01*
X166545914Y-76519121D01*
X166395894Y-76438934D01*
X166395893Y-76438933D01*
X166395889Y-76438931D01*
X166264388Y-76331012D01*
X166156469Y-76199512D01*
X166076280Y-76049488D01*
X166076279Y-76049487D01*
X166076278Y-76049484D01*
X166026896Y-75886695D01*
X166018565Y-75802112D01*
X166014400Y-75759821D01*
X166014400Y-75370180D01*
X166026896Y-75243308D01*
X166026896Y-75243306D01*
X166076278Y-75080517D01*
X166076279Y-75080513D01*
X166156466Y-74930493D01*
X166156470Y-74930488D01*
X166264388Y-74798988D01*
X166395888Y-74691069D01*
X166395892Y-74691067D01*
X166395893Y-74691066D01*
X166545913Y-74610879D01*
X166573571Y-74602489D01*
X166708705Y-74561496D01*
X166878000Y-74544822D01*
X167047294Y-74561496D01*
G37*
G36*
X169587294Y-74561496D02*
G01*
X169707726Y-74598029D01*
X169750087Y-74610879D01*
X169900107Y-74691066D01*
X169900110Y-74691068D01*
X169900111Y-74691069D01*
X170031612Y-74798988D01*
X170139531Y-74930488D01*
X170139533Y-74930492D01*
X170139534Y-74930493D01*
X170219721Y-75080513D01*
X170219722Y-75080516D01*
X170269104Y-75243305D01*
X170269104Y-75243307D01*
X170281600Y-75370179D01*
X170281600Y-75759820D01*
X170281076Y-75765136D01*
X170269104Y-75886694D01*
X170232571Y-76007128D01*
X170219721Y-76049488D01*
X170161874Y-76157711D01*
X170139531Y-76199512D01*
X170031612Y-76331012D01*
X169900112Y-76438931D01*
X169900108Y-76438933D01*
X169900107Y-76438934D01*
X169750087Y-76519121D01*
X169750084Y-76519122D01*
X169587295Y-76568504D01*
X169418000Y-76585178D01*
X169248706Y-76568504D01*
X169085917Y-76519122D01*
X169085914Y-76519121D01*
X168935894Y-76438934D01*
X168935893Y-76438933D01*
X168935889Y-76438931D01*
X168804388Y-76331012D01*
X168696469Y-76199512D01*
X168616280Y-76049488D01*
X168616279Y-76049487D01*
X168616278Y-76049484D01*
X168566896Y-75886695D01*
X168558565Y-75802112D01*
X168554400Y-75759821D01*
X168554400Y-75370180D01*
X168566896Y-75243308D01*
X168566896Y-75243306D01*
X168616278Y-75080517D01*
X168616279Y-75080513D01*
X168696466Y-74930493D01*
X168696470Y-74930488D01*
X168804388Y-74798988D01*
X168935888Y-74691069D01*
X168935892Y-74691067D01*
X168935893Y-74691066D01*
X169085913Y-74610879D01*
X169113571Y-74602489D01*
X169248705Y-74561496D01*
X169418000Y-74544822D01*
X169587294Y-74561496D01*
G37*
G36*
X172127294Y-74561496D02*
G01*
X172247726Y-74598029D01*
X172290087Y-74610879D01*
X172440107Y-74691066D01*
X172440110Y-74691068D01*
X172440111Y-74691069D01*
X172571612Y-74798988D01*
X172679531Y-74930488D01*
X172679533Y-74930492D01*
X172679534Y-74930493D01*
X172759721Y-75080513D01*
X172759722Y-75080516D01*
X172809104Y-75243305D01*
X172809104Y-75243307D01*
X172821600Y-75370179D01*
X172821600Y-75759820D01*
X172821076Y-75765136D01*
X172809104Y-75886694D01*
X172772571Y-76007128D01*
X172759721Y-76049488D01*
X172701874Y-76157711D01*
X172679531Y-76199512D01*
X172571612Y-76331012D01*
X172440112Y-76438931D01*
X172440108Y-76438933D01*
X172440107Y-76438934D01*
X172290087Y-76519121D01*
X172290084Y-76519122D01*
X172127295Y-76568504D01*
X171958000Y-76585178D01*
X171788706Y-76568504D01*
X171625917Y-76519122D01*
X171625914Y-76519121D01*
X171475894Y-76438934D01*
X171475893Y-76438933D01*
X171475889Y-76438931D01*
X171344388Y-76331012D01*
X171236469Y-76199512D01*
X171156280Y-76049488D01*
X171156279Y-76049487D01*
X171156278Y-76049484D01*
X171106896Y-75886695D01*
X171098565Y-75802112D01*
X171094400Y-75759821D01*
X171094400Y-75370180D01*
X171106896Y-75243308D01*
X171106896Y-75243306D01*
X171156278Y-75080517D01*
X171156279Y-75080513D01*
X171236466Y-74930493D01*
X171236470Y-74930488D01*
X171344388Y-74798988D01*
X171475888Y-74691069D01*
X171475892Y-74691067D01*
X171475893Y-74691066D01*
X171625913Y-74610879D01*
X171653571Y-74602489D01*
X171788705Y-74561496D01*
X171958000Y-74544822D01*
X172127294Y-74561496D01*
G37*
G36*
X174667294Y-74561496D02*
G01*
X174787726Y-74598029D01*
X174830087Y-74610879D01*
X174980107Y-74691066D01*
X174980110Y-74691068D01*
X174980111Y-74691069D01*
X175111612Y-74798988D01*
X175219531Y-74930488D01*
X175219533Y-74930492D01*
X175219534Y-74930493D01*
X175299721Y-75080513D01*
X175299722Y-75080516D01*
X175349104Y-75243305D01*
X175349104Y-75243307D01*
X175361600Y-75370179D01*
X175361600Y-75759820D01*
X175361076Y-75765136D01*
X175349104Y-75886694D01*
X175312571Y-76007128D01*
X175299721Y-76049488D01*
X175241874Y-76157711D01*
X175219531Y-76199512D01*
X175111612Y-76331012D01*
X174980112Y-76438931D01*
X174980108Y-76438933D01*
X174980107Y-76438934D01*
X174830087Y-76519121D01*
X174830084Y-76519122D01*
X174667295Y-76568504D01*
X174498000Y-76585178D01*
X174328706Y-76568504D01*
X174165917Y-76519122D01*
X174165914Y-76519121D01*
X174015894Y-76438934D01*
X174015893Y-76438933D01*
X174015889Y-76438931D01*
X173884388Y-76331012D01*
X173776469Y-76199512D01*
X173696280Y-76049488D01*
X173696279Y-76049487D01*
X173696278Y-76049484D01*
X173646896Y-75886695D01*
X173638565Y-75802112D01*
X173634400Y-75759821D01*
X173634400Y-75370180D01*
X173646896Y-75243308D01*
X173646896Y-75243306D01*
X173696278Y-75080517D01*
X173696279Y-75080513D01*
X173776466Y-74930493D01*
X173776470Y-74930488D01*
X173884388Y-74798988D01*
X174015888Y-74691069D01*
X174015892Y-74691067D01*
X174015893Y-74691066D01*
X174165913Y-74610879D01*
X174193571Y-74602489D01*
X174328705Y-74561496D01*
X174498000Y-74544822D01*
X174667294Y-74561496D01*
G37*
G36*
X142663294Y-74561496D02*
G01*
X142783726Y-74598029D01*
X142826087Y-74610879D01*
X142976107Y-74691066D01*
X142976110Y-74691068D01*
X142976111Y-74691069D01*
X143107612Y-74798988D01*
X143215531Y-74930488D01*
X143215533Y-74930492D01*
X143215534Y-74930493D01*
X143295721Y-75080513D01*
X143295722Y-75080516D01*
X143345104Y-75243305D01*
X143345104Y-75243307D01*
X143357600Y-75370179D01*
X143357600Y-75759820D01*
X143357076Y-75765136D01*
X143345104Y-75886694D01*
X143308571Y-76007128D01*
X143295721Y-76049488D01*
X143237874Y-76157711D01*
X143215531Y-76199512D01*
X143107612Y-76331012D01*
X142976112Y-76438931D01*
X142976108Y-76438933D01*
X142976107Y-76438934D01*
X142826087Y-76519121D01*
X142826084Y-76519122D01*
X142663295Y-76568504D01*
X142494000Y-76585178D01*
X142324706Y-76568504D01*
X142161917Y-76519122D01*
X142161914Y-76519121D01*
X142011894Y-76438934D01*
X142011893Y-76438933D01*
X142011889Y-76438931D01*
X141880388Y-76331012D01*
X141772469Y-76199512D01*
X141692280Y-76049488D01*
X141692279Y-76049487D01*
X141692278Y-76049484D01*
X141642896Y-75886695D01*
X141634565Y-75802112D01*
X141630400Y-75759821D01*
X141630400Y-75370180D01*
X141642896Y-75243308D01*
X141642896Y-75243306D01*
X141692278Y-75080517D01*
X141692279Y-75080513D01*
X141772466Y-74930493D01*
X141772470Y-74930488D01*
X141880388Y-74798988D01*
X142011888Y-74691069D01*
X142011892Y-74691067D01*
X142011893Y-74691066D01*
X142161913Y-74610879D01*
X142189571Y-74602489D01*
X142324705Y-74561496D01*
X142494000Y-74544822D01*
X142663294Y-74561496D01*
G37*
M02*
