G04 #@! TF.GenerationSoftware,KiCad,Pcbnew,5.0.2-bee76a0~70~ubuntu18.04.1*
G04 #@! TF.CreationDate,2019-04-12T14:14:33+02:00*
G04 #@! TF.ProjectId,KiCad_Shield,4b694361-645f-4536-9869-656c642e6b69,rev?*
G04 #@! TF.SameCoordinates,Original*
G04 #@! TF.FileFunction,Copper,L2,Bot*
G04 #@! TF.FilePolarity,Positive*
%FSLAX46Y46*%
G04 Gerber Fmt 4.6, Leading zero omitted, Abs format (unit mm)*
G04 Created by KiCad (PCBNEW 5.0.2-bee76a0~70~ubuntu18.04.1) date Fr 12 Apr 2019 14:14:33 CEST*
%MOMM*%
%LPD*%
G01*
G04 APERTURE LIST*
G04 #@! TA.AperFunction,ComponentPad*
%ADD10O,1.727200X2.032000*%
G04 #@! TD*
G04 #@! TA.AperFunction,ComponentPad*
%ADD11C,4.064000*%
G04 #@! TD*
G04 #@! TA.AperFunction,ComponentPad*
%ADD12R,2.032000X1.727200*%
G04 #@! TD*
G04 #@! TA.AperFunction,ComponentPad*
%ADD13O,2.032000X1.727200*%
G04 #@! TD*
G04 #@! TA.AperFunction,ComponentPad*
%ADD14R,1.700000X1.700000*%
G04 #@! TD*
G04 #@! TA.AperFunction,ComponentPad*
%ADD15O,1.700000X1.700000*%
G04 #@! TD*
G04 #@! TA.AperFunction,ViaPad*
%ADD16C,0.600000*%
G04 #@! TD*
G04 #@! TA.AperFunction,Conductor*
%ADD17C,0.250000*%
G04 #@! TD*
G04 #@! TA.AperFunction,Conductor*
%ADD18C,0.254000*%
G04 #@! TD*
G04 APERTURE END LIST*
D10*
G04 #@! TO.P,P1,1*
G04 #@! TO.N,Net-(P1-Pad1)*
X138938000Y-123825000D03*
G04 #@! TO.P,P1,2*
G04 #@! TO.N,/IOREF*
X141478000Y-123825000D03*
G04 #@! TO.P,P1,3*
G04 #@! TO.N,/Reset*
X144018000Y-123825000D03*
G04 #@! TO.P,P1,4*
G04 #@! TO.N,+3V3*
X146558000Y-123825000D03*
G04 #@! TO.P,P1,5*
G04 #@! TO.N,+5V*
X149098000Y-123825000D03*
G04 #@! TO.P,P1,6*
G04 #@! TO.N,GND*
X151638000Y-123825000D03*
G04 #@! TO.P,P1,7*
X154178000Y-123825000D03*
G04 #@! TO.P,P1,8*
G04 #@! TO.N,/Vin*
X156718000Y-123825000D03*
G04 #@! TD*
G04 #@! TO.P,P2,1*
G04 #@! TO.N,/A0*
X161798000Y-123825000D03*
G04 #@! TO.P,P2,2*
G04 #@! TO.N,/A1*
X164338000Y-123825000D03*
G04 #@! TO.P,P2,3*
G04 #@! TO.N,/A2*
X166878000Y-123825000D03*
G04 #@! TO.P,P2,4*
G04 #@! TO.N,/A3*
X169418000Y-123825000D03*
G04 #@! TO.P,P2,5*
G04 #@! TO.N,/A4(SDA2)*
X171958000Y-123825000D03*
G04 #@! TO.P,P2,6*
G04 #@! TO.N,/A5(SCL2)*
X174498000Y-123825000D03*
G04 #@! TD*
G04 #@! TO.P,P3,1*
G04 #@! TO.N,/A5(SCL)*
X129794000Y-75565000D03*
G04 #@! TO.P,P3,2*
G04 #@! TO.N,/A4(SDA)*
X132334000Y-75565000D03*
G04 #@! TO.P,P3,3*
G04 #@! TO.N,/AREF*
X134874000Y-75565000D03*
G04 #@! TO.P,P3,4*
G04 #@! TO.N,GND*
X137414000Y-75565000D03*
G04 #@! TO.P,P3,5*
G04 #@! TO.N,/13(SCK)*
X139954000Y-75565000D03*
G04 #@! TO.P,P3,6*
G04 #@! TO.N,/12(MISO)*
X142494000Y-75565000D03*
G04 #@! TO.P,P3,7*
G04 #@! TO.N,/11(\002A\002A/MOSI)*
X145034000Y-75565000D03*
G04 #@! TO.P,P3,8*
G04 #@! TO.N,/10(\002A\002A/SS)*
X147574000Y-75565000D03*
G04 #@! TO.P,P3,9*
G04 #@! TO.N,/9(\002A\002A)*
X150114000Y-75565000D03*
G04 #@! TO.P,P3,10*
G04 #@! TO.N,/8*
X152654000Y-75565000D03*
G04 #@! TD*
G04 #@! TO.P,P4,1*
G04 #@! TO.N,/7*
X156718000Y-75565000D03*
G04 #@! TO.P,P4,2*
G04 #@! TO.N,/6(\002A\002A)*
X159258000Y-75565000D03*
G04 #@! TO.P,P4,3*
G04 #@! TO.N,/5(\002A\002A)*
X161798000Y-75565000D03*
G04 #@! TO.P,P4,4*
G04 #@! TO.N,/4*
X164338000Y-75565000D03*
G04 #@! TO.P,P4,5*
G04 #@! TO.N,/3(\002A\002A)*
X166878000Y-75565000D03*
G04 #@! TO.P,P4,6*
G04 #@! TO.N,/2*
X169418000Y-75565000D03*
G04 #@! TO.P,P4,7*
G04 #@! TO.N,/1(Tx)*
X171958000Y-75565000D03*
G04 #@! TO.P,P4,8*
G04 #@! TO.N,/0(Rx)*
X174498000Y-75565000D03*
G04 #@! TD*
D11*
G04 #@! TO.P,P5,1*
G04 #@! TO.N,Net-(P5-Pad1)*
X124968000Y-123825000D03*
G04 #@! TD*
G04 #@! TO.P,P6,1*
G04 #@! TO.N,Net-(P6-Pad1)*
X177038000Y-118745000D03*
G04 #@! TD*
G04 #@! TO.P,P7,1*
G04 #@! TO.N,Net-(P7-Pad1)*
X126238000Y-75565000D03*
G04 #@! TD*
G04 #@! TO.P,P8,1*
G04 #@! TO.N,Net-(P8-Pad1)*
X177038000Y-90805000D03*
G04 #@! TD*
D12*
G04 #@! TO.P,P9,1*
G04 #@! TO.N,Net-(P9-Pad1)*
X113538000Y-109855000D03*
D13*
G04 #@! TO.P,P9,2*
G04 #@! TO.N,Net-(P9-Pad2)*
X113538000Y-107315000D03*
G04 #@! TO.P,P9,3*
G04 #@! TO.N,Net-(P9-Pad3)*
X113538000Y-104775000D03*
G04 #@! TO.P,P9,4*
G04 #@! TO.N,Net-(P9-Pad4)*
X113538000Y-102235000D03*
G04 #@! TO.P,P9,5*
G04 #@! TO.N,Net-(P9-Pad5)*
X113538000Y-99695000D03*
G04 #@! TO.P,P9,6*
G04 #@! TO.N,Net-(P9-Pad6)*
X113538000Y-97155000D03*
G04 #@! TO.P,P9,7*
G04 #@! TO.N,Net-(P9-Pad7)*
X113538000Y-94615000D03*
G04 #@! TO.P,P9,8*
G04 #@! TO.N,Net-(P9-Pad8)*
X113538000Y-92075000D03*
G04 #@! TO.P,P9,9*
G04 #@! TO.N,Net-(P9-Pad9)*
X113538000Y-89535000D03*
G04 #@! TO.P,P9,10*
G04 #@! TO.N,Net-(P9-Pad10)*
X113538000Y-86995000D03*
G04 #@! TD*
D14*
G04 #@! TO.P,J1,1*
G04 #@! TO.N,+3V3*
X177038000Y-95885000D03*
D15*
G04 #@! TO.P,J1,2*
G04 #@! TO.N,GND*
X177038000Y-98425000D03*
G04 #@! TO.P,J1,3*
G04 #@! TO.N,/A5(SCL)*
X177038000Y-100965000D03*
G04 #@! TO.P,J1,4*
G04 #@! TO.N,/A4(SDA)*
X177038000Y-103505000D03*
G04 #@! TD*
D16*
G04 #@! TO.N,+5V*
X135128000Y-85090000D03*
X165608000Y-97155000D03*
X160528000Y-85090000D03*
X155448000Y-85090000D03*
X150368000Y-85090000D03*
X145288000Y-85090000D03*
X140208000Y-85090000D03*
X130048000Y-85090000D03*
X124968000Y-85090000D03*
X142113000Y-97155000D03*
X157988000Y-97155000D03*
X150368000Y-97155000D03*
X122428000Y-75565000D03*
X121158000Y-76835000D03*
X119888000Y-75565000D03*
G04 #@! TO.N,GND*
X163068000Y-85090000D03*
X157988000Y-85090000D03*
X152908000Y-85090000D03*
X147828000Y-85090000D03*
X142748000Y-85090000D03*
X137668000Y-85090000D03*
X132588000Y-85090000D03*
X127508000Y-85090000D03*
X126873000Y-89535000D03*
X150368000Y-99695000D03*
X142113000Y-99695000D03*
X114808000Y-75565000D03*
X114808000Y-83185000D03*
X168148000Y-116205000D03*
X170688000Y-116205000D03*
X173228000Y-116205000D03*
X175768000Y-116205000D03*
X130048000Y-98425000D03*
X130048000Y-95885000D03*
X130048000Y-93345000D03*
X130048000Y-90805000D03*
X136398000Y-109855000D03*
X130048000Y-107315000D03*
X133858000Y-111125000D03*
X126873000Y-108585000D03*
X142113000Y-106045000D03*
X148463000Y-108585000D03*
G04 #@! TO.N,/A4(SDA)*
X122428000Y-81915000D03*
X171958000Y-94615000D03*
G04 #@! TO.N,/A5(SCL)*
X131318000Y-79375000D03*
G04 #@! TO.N,/3(\002A\002A)*
X164338000Y-107315000D03*
X149098000Y-102235000D03*
G04 #@! TO.N,/2*
X168148000Y-104775000D03*
X156718000Y-103505000D03*
G04 #@! TO.N,/1(Tx)*
X169418000Y-103505000D03*
X164338000Y-103505000D03*
G04 #@! TO.N,+3V3*
X173228000Y-98425000D03*
X164338000Y-109855000D03*
G04 #@! TO.N,/24V*
X126873000Y-86995000D03*
X129228010Y-105400000D03*
X131318000Y-116205000D03*
X128778000Y-112395000D03*
X136398000Y-120015000D03*
G04 #@! TO.N,Net-(R12-Pad2)*
X138938000Y-116205000D03*
X138938000Y-114300000D03*
G04 #@! TD*
D17*
G04 #@! TO.N,+5V*
X142113000Y-97155000D02*
X142113000Y-92075000D01*
X142113000Y-92075000D02*
X135128000Y-85090000D01*
X157988000Y-97155000D02*
X165608000Y-97155000D01*
X157988000Y-97155000D02*
X150368000Y-97155000D01*
X150368000Y-97155000D02*
X142113000Y-97155000D01*
G04 #@! TO.N,/A4(SDA)*
X126136400Y-81915000D02*
X132334000Y-75717400D01*
X122428000Y-81915000D02*
X126136400Y-81915000D01*
X132334000Y-75717400D02*
X132334000Y-75565000D01*
X135991600Y-79375000D02*
X132334000Y-75717400D01*
X159258000Y-79375000D02*
X135991600Y-79375000D01*
X159428000Y-79375000D02*
X159258000Y-79375000D01*
X159258000Y-79375000D02*
X165608000Y-79375000D01*
X171958000Y-85725000D02*
X171958000Y-92075000D01*
X165608000Y-79375000D02*
X171958000Y-85725000D01*
X171958000Y-92075000D02*
X171958000Y-94615000D01*
G04 #@! TO.N,/A5(SCL)*
X170688000Y-85725000D02*
X170688000Y-94615000D01*
X165608000Y-80645000D02*
X170688000Y-85725000D01*
X170688000Y-94615000D02*
X177038000Y-100965000D01*
X131318000Y-79375000D02*
X132588000Y-80645000D01*
X132588000Y-80645000D02*
X165608000Y-80645000D01*
G04 #@! TO.N,/3(\002A\002A)*
X151012999Y-104149999D02*
X149098000Y-102235000D01*
X164338000Y-107315000D02*
X154178000Y-107315000D01*
X154178000Y-107315000D02*
X151012999Y-104149999D01*
G04 #@! TO.N,/2*
X157988000Y-104775000D02*
X156718000Y-103505000D01*
X168148000Y-104775000D02*
X157988000Y-104775000D01*
G04 #@! TO.N,/1(Tx)*
X169418000Y-103505000D02*
X164338000Y-103505000D01*
G04 #@! TO.N,+3V3*
X146558000Y-123825000D02*
X146558000Y-123672600D01*
X173228000Y-100620002D02*
X164338000Y-109510002D01*
X173228000Y-98425000D02*
X173228000Y-100620002D01*
X164338000Y-109510002D02*
X164338000Y-109855000D01*
G04 #@! TO.N,/24V*
X129228010Y-89350010D02*
X126873000Y-86995000D01*
X129228010Y-105400000D02*
X129228010Y-89350010D01*
X131318000Y-116205000D02*
X128778000Y-113665000D01*
X128778000Y-113665000D02*
X128778000Y-112395000D01*
X132588000Y-116205000D02*
X131318000Y-116205000D01*
X136398000Y-120015000D02*
X132588000Y-116205000D01*
G04 #@! TO.N,Net-(R12-Pad2)*
X138938000Y-116205000D02*
X138938000Y-114300000D01*
G04 #@! TD*
D18*
G04 #@! TO.N,GND*
G36*
X123977026Y-74054266D02*
X123571000Y-75034501D01*
X123571000Y-76095499D01*
X123977026Y-77075734D01*
X124727266Y-77825974D01*
X125707501Y-78232000D01*
X126768499Y-78232000D01*
X127748734Y-77825974D01*
X128498974Y-77075734D01*
X128652156Y-76705918D01*
X128713570Y-76797830D01*
X129209276Y-77129050D01*
X129741652Y-77234946D01*
X125821599Y-81155000D01*
X122990290Y-81155000D01*
X122957635Y-81122345D01*
X122613983Y-80980000D01*
X122242017Y-80980000D01*
X121898365Y-81122345D01*
X121635345Y-81385365D01*
X121493000Y-81729017D01*
X121493000Y-82100983D01*
X121635345Y-82444635D01*
X121898365Y-82707655D01*
X122242017Y-82850000D01*
X122613983Y-82850000D01*
X122957635Y-82707655D01*
X122990290Y-82675000D01*
X126061553Y-82675000D01*
X126136400Y-82689888D01*
X126211247Y-82675000D01*
X126211252Y-82675000D01*
X126432937Y-82630904D01*
X126684329Y-82462929D01*
X126726731Y-82399470D01*
X131956027Y-77170175D01*
X132334000Y-77245359D01*
X132711974Y-77170175D01*
X135401270Y-79859472D01*
X135418328Y-79885000D01*
X132902802Y-79885000D01*
X132253000Y-79235199D01*
X132253000Y-79189017D01*
X132110655Y-78845365D01*
X131847635Y-78582345D01*
X131503983Y-78440000D01*
X131132017Y-78440000D01*
X130788365Y-78582345D01*
X130525345Y-78845365D01*
X130383000Y-79189017D01*
X130383000Y-79560983D01*
X130525345Y-79904635D01*
X130788365Y-80167655D01*
X131132017Y-80310000D01*
X131178199Y-80310000D01*
X131997670Y-81129472D01*
X132040071Y-81192929D01*
X132291463Y-81360904D01*
X132513148Y-81405000D01*
X132513152Y-81405000D01*
X132587999Y-81419888D01*
X132662846Y-81405000D01*
X165293199Y-81405000D01*
X169928000Y-86039802D01*
X169928001Y-94540148D01*
X169913112Y-94615000D01*
X169928001Y-94689852D01*
X169972097Y-94911537D01*
X170140072Y-95162929D01*
X170203528Y-95205329D01*
X172664454Y-97666256D01*
X172435345Y-97895365D01*
X172293000Y-98239017D01*
X172293000Y-98610983D01*
X172435345Y-98954635D01*
X172468000Y-98987290D01*
X172468001Y-100305199D01*
X170004245Y-102768955D01*
X169947635Y-102712345D01*
X169603983Y-102570000D01*
X169232017Y-102570000D01*
X168888365Y-102712345D01*
X168855710Y-102745000D01*
X164900290Y-102745000D01*
X164867635Y-102712345D01*
X164523983Y-102570000D01*
X164152017Y-102570000D01*
X163808365Y-102712345D01*
X163545345Y-102975365D01*
X163403000Y-103319017D01*
X163403000Y-103690983D01*
X163537212Y-104015000D01*
X158302802Y-104015000D01*
X157653000Y-103365199D01*
X157653000Y-103319017D01*
X157510655Y-102975365D01*
X157247635Y-102712345D01*
X156903983Y-102570000D01*
X156532017Y-102570000D01*
X156188365Y-102712345D01*
X155925345Y-102975365D01*
X155783000Y-103319017D01*
X155783000Y-103690983D01*
X155925345Y-104034635D01*
X156188365Y-104297655D01*
X156532017Y-104440000D01*
X156578199Y-104440000D01*
X157397671Y-105259473D01*
X157440071Y-105322929D01*
X157691463Y-105490904D01*
X157913148Y-105535000D01*
X157913152Y-105535000D01*
X157987999Y-105549888D01*
X158062846Y-105535000D01*
X167238201Y-105535000D01*
X165273000Y-107500201D01*
X165273000Y-107129017D01*
X165130655Y-106785365D01*
X164867635Y-106522345D01*
X164523983Y-106380000D01*
X164152017Y-106380000D01*
X163808365Y-106522345D01*
X163775710Y-106555000D01*
X154492803Y-106555000D01*
X151603330Y-103665529D01*
X151603328Y-103665526D01*
X150033000Y-102095199D01*
X150033000Y-102049017D01*
X149890655Y-101705365D01*
X149627635Y-101442345D01*
X149283983Y-101300000D01*
X148912017Y-101300000D01*
X148568365Y-101442345D01*
X148305345Y-101705365D01*
X148163000Y-102049017D01*
X148163000Y-102420983D01*
X148305345Y-102764635D01*
X148568365Y-103027655D01*
X148912017Y-103170000D01*
X148958199Y-103170000D01*
X150528526Y-104740328D01*
X150528529Y-104740330D01*
X153587673Y-107799476D01*
X153630071Y-107862929D01*
X153693524Y-107905327D01*
X153693526Y-107905329D01*
X153818902Y-107989102D01*
X153881463Y-108030904D01*
X154103148Y-108075000D01*
X154103152Y-108075000D01*
X154177999Y-108089888D01*
X154252846Y-108075000D01*
X163775710Y-108075000D01*
X163808365Y-108107655D01*
X164152017Y-108250000D01*
X164523201Y-108250000D01*
X163853530Y-108919671D01*
X163790071Y-108962073D01*
X163622096Y-109213466D01*
X163613369Y-109257341D01*
X163545345Y-109325365D01*
X163403000Y-109669017D01*
X163403000Y-110040983D01*
X163545345Y-110384635D01*
X163808365Y-110647655D01*
X164152017Y-110790000D01*
X164523983Y-110790000D01*
X164867635Y-110647655D01*
X165130655Y-110384635D01*
X165273000Y-110040983D01*
X165273000Y-109669017D01*
X165267372Y-109655431D01*
X173712473Y-101210331D01*
X173775929Y-101167931D01*
X173943904Y-100916539D01*
X173988000Y-100694854D01*
X173988000Y-100694850D01*
X174002888Y-100620002D01*
X173988000Y-100545154D01*
X173988000Y-98989802D01*
X175596791Y-100598593D01*
X175523908Y-100965000D01*
X175639161Y-101544418D01*
X175967375Y-102035625D01*
X176265761Y-102235000D01*
X175967375Y-102434375D01*
X175639161Y-102925582D01*
X175523908Y-103505000D01*
X175639161Y-104084418D01*
X175967375Y-104575625D01*
X176458582Y-104903839D01*
X176891744Y-104990000D01*
X177184256Y-104990000D01*
X177617418Y-104903839D01*
X178108625Y-104575625D01*
X178436839Y-104084418D01*
X178552092Y-103505000D01*
X178436839Y-102925582D01*
X178108625Y-102434375D01*
X177810239Y-102235000D01*
X178108625Y-102035625D01*
X178436839Y-101544418D01*
X178552092Y-100965000D01*
X178436839Y-100385582D01*
X178108625Y-99894375D01*
X177789522Y-99681157D01*
X177919358Y-99620183D01*
X178309645Y-99191924D01*
X178479476Y-98781890D01*
X178358155Y-98552000D01*
X177165000Y-98552000D01*
X177165000Y-98572000D01*
X176911000Y-98572000D01*
X176911000Y-98552000D01*
X176891000Y-98552000D01*
X176891000Y-98298000D01*
X176911000Y-98298000D01*
X176911000Y-98278000D01*
X177165000Y-98278000D01*
X177165000Y-98298000D01*
X178358155Y-98298000D01*
X178479476Y-98068110D01*
X178309645Y-97658076D01*
X178032292Y-97353739D01*
X178135765Y-97333157D01*
X178345809Y-97192809D01*
X178486157Y-96982765D01*
X178535440Y-96735000D01*
X178535440Y-95035000D01*
X178486157Y-94787235D01*
X178345809Y-94577191D01*
X178135765Y-94436843D01*
X177888000Y-94387560D01*
X176188000Y-94387560D01*
X175940235Y-94436843D01*
X175730191Y-94577191D01*
X175589843Y-94787235D01*
X175540560Y-95035000D01*
X175540560Y-96735000D01*
X175589843Y-96982765D01*
X175730191Y-97192809D01*
X175940235Y-97333157D01*
X176043708Y-97353739D01*
X175766355Y-97658076D01*
X175596524Y-98068110D01*
X175717844Y-98297998D01*
X175553000Y-98297998D01*
X175553000Y-98405198D01*
X172521546Y-95373744D01*
X172750655Y-95144635D01*
X172893000Y-94800983D01*
X172893000Y-94429017D01*
X172750655Y-94085365D01*
X172718000Y-94052710D01*
X172718000Y-85799846D01*
X172732888Y-85724999D01*
X172718000Y-85650152D01*
X172718000Y-85650148D01*
X172673904Y-85428463D01*
X172505929Y-85177071D01*
X172442473Y-85134671D01*
X166198331Y-78890530D01*
X166155929Y-78827071D01*
X165904537Y-78659096D01*
X165682852Y-78615000D01*
X165682847Y-78615000D01*
X165608000Y-78600112D01*
X165533153Y-78615000D01*
X136306402Y-78615000D01*
X134926348Y-77234946D01*
X135458725Y-77129050D01*
X135954430Y-76797830D01*
X136147909Y-76508267D01*
X136511964Y-76915732D01*
X137039209Y-77169709D01*
X137054974Y-77172358D01*
X137287000Y-77051217D01*
X137287000Y-75692000D01*
X137267000Y-75692000D01*
X137267000Y-75438000D01*
X137287000Y-75438000D01*
X137287000Y-74078783D01*
X137541000Y-74078783D01*
X137541000Y-75438000D01*
X137561000Y-75438000D01*
X137561000Y-75692000D01*
X137541000Y-75692000D01*
X137541000Y-77051217D01*
X137773026Y-77172358D01*
X137788791Y-77169709D01*
X138316036Y-76915732D01*
X138680090Y-76508268D01*
X138873570Y-76797830D01*
X139369276Y-77129050D01*
X139954000Y-77245359D01*
X140538725Y-77129050D01*
X141034430Y-76797830D01*
X141224000Y-76514119D01*
X141413570Y-76797830D01*
X141909276Y-77129050D01*
X142494000Y-77245359D01*
X143078725Y-77129050D01*
X143574430Y-76797830D01*
X143764000Y-76514119D01*
X143953570Y-76797830D01*
X144449276Y-77129050D01*
X145034000Y-77245359D01*
X145618725Y-77129050D01*
X146114430Y-76797830D01*
X146304000Y-76514119D01*
X146493570Y-76797830D01*
X146989276Y-77129050D01*
X147574000Y-77245359D01*
X148158725Y-77129050D01*
X148654430Y-76797830D01*
X148844000Y-76514119D01*
X149033570Y-76797830D01*
X149529276Y-77129050D01*
X150114000Y-77245359D01*
X150698725Y-77129050D01*
X151194430Y-76797830D01*
X151384000Y-76514119D01*
X151573570Y-76797830D01*
X152069276Y-77129050D01*
X152654000Y-77245359D01*
X153238725Y-77129050D01*
X153734430Y-76797830D01*
X154065650Y-76302124D01*
X154152600Y-75864997D01*
X154152600Y-75265003D01*
X155219400Y-75265003D01*
X155219400Y-75864998D01*
X155306350Y-76302125D01*
X155637570Y-76797830D01*
X156133276Y-77129050D01*
X156718000Y-77245359D01*
X157302725Y-77129050D01*
X157798430Y-76797830D01*
X157988000Y-76514119D01*
X158177570Y-76797830D01*
X158673276Y-77129050D01*
X159258000Y-77245359D01*
X159842725Y-77129050D01*
X160338430Y-76797830D01*
X160528000Y-76514119D01*
X160717570Y-76797830D01*
X161213276Y-77129050D01*
X161798000Y-77245359D01*
X162382725Y-77129050D01*
X162878430Y-76797830D01*
X163068000Y-76514119D01*
X163257570Y-76797830D01*
X163753276Y-77129050D01*
X164338000Y-77245359D01*
X164922725Y-77129050D01*
X165418430Y-76797830D01*
X165608000Y-76514119D01*
X165797570Y-76797830D01*
X166293276Y-77129050D01*
X166878000Y-77245359D01*
X167462725Y-77129050D01*
X167958430Y-76797830D01*
X168148000Y-76514119D01*
X168337570Y-76797830D01*
X168833276Y-77129050D01*
X169418000Y-77245359D01*
X170002725Y-77129050D01*
X170498430Y-76797830D01*
X170688000Y-76514119D01*
X170877570Y-76797830D01*
X171373276Y-77129050D01*
X171958000Y-77245359D01*
X172542725Y-77129050D01*
X173038430Y-76797830D01*
X173228000Y-76514119D01*
X173417570Y-76797830D01*
X173913276Y-77129050D01*
X174498000Y-77245359D01*
X175082725Y-77129050D01*
X175578430Y-76797830D01*
X175909650Y-76302124D01*
X175996600Y-75864997D01*
X175996600Y-75265002D01*
X175909650Y-74827875D01*
X175578430Y-74332170D01*
X175082724Y-74000950D01*
X174498000Y-73884641D01*
X173913275Y-74000950D01*
X173417570Y-74332170D01*
X173228000Y-74615881D01*
X173038430Y-74332170D01*
X172542724Y-74000950D01*
X171958000Y-73884641D01*
X171373275Y-74000950D01*
X170877570Y-74332170D01*
X170688000Y-74615881D01*
X170498430Y-74332170D01*
X170002724Y-74000950D01*
X169418000Y-73884641D01*
X168833275Y-74000950D01*
X168337570Y-74332170D01*
X168148000Y-74615881D01*
X167958430Y-74332170D01*
X167462724Y-74000950D01*
X166878000Y-73884641D01*
X166293275Y-74000950D01*
X165797570Y-74332170D01*
X165608000Y-74615881D01*
X165418430Y-74332170D01*
X164922724Y-74000950D01*
X164338000Y-73884641D01*
X163753275Y-74000950D01*
X163257570Y-74332170D01*
X163068000Y-74615881D01*
X162878430Y-74332170D01*
X162382724Y-74000950D01*
X161798000Y-73884641D01*
X161213275Y-74000950D01*
X160717570Y-74332170D01*
X160528000Y-74615881D01*
X160338430Y-74332170D01*
X159842724Y-74000950D01*
X159258000Y-73884641D01*
X158673275Y-74000950D01*
X158177570Y-74332170D01*
X157988000Y-74615881D01*
X157798430Y-74332170D01*
X157302724Y-74000950D01*
X156718000Y-73884641D01*
X156133275Y-74000950D01*
X155637570Y-74332170D01*
X155306350Y-74827876D01*
X155219400Y-75265003D01*
X154152600Y-75265003D01*
X154152600Y-75265002D01*
X154065650Y-74827875D01*
X153734430Y-74332170D01*
X153238724Y-74000950D01*
X152654000Y-73884641D01*
X152069275Y-74000950D01*
X151573570Y-74332170D01*
X151384000Y-74615881D01*
X151194430Y-74332170D01*
X150698724Y-74000950D01*
X150114000Y-73884641D01*
X149529275Y-74000950D01*
X149033570Y-74332170D01*
X148844000Y-74615881D01*
X148654430Y-74332170D01*
X148158724Y-74000950D01*
X147574000Y-73884641D01*
X146989275Y-74000950D01*
X146493570Y-74332170D01*
X146304000Y-74615881D01*
X146114430Y-74332170D01*
X145618724Y-74000950D01*
X145034000Y-73884641D01*
X144449275Y-74000950D01*
X143953570Y-74332170D01*
X143764000Y-74615881D01*
X143574430Y-74332170D01*
X143078724Y-74000950D01*
X142494000Y-73884641D01*
X141909275Y-74000950D01*
X141413570Y-74332170D01*
X141224000Y-74615881D01*
X141034430Y-74332170D01*
X140538724Y-74000950D01*
X139954000Y-73884641D01*
X139369275Y-74000950D01*
X138873570Y-74332170D01*
X138680091Y-74621733D01*
X138316036Y-74214268D01*
X137788791Y-73960291D01*
X137773026Y-73957642D01*
X137541000Y-74078783D01*
X137287000Y-74078783D01*
X137054974Y-73957642D01*
X137039209Y-73960291D01*
X136511964Y-74214268D01*
X136147910Y-74621732D01*
X135954430Y-74332170D01*
X135458724Y-74000950D01*
X134874000Y-73884641D01*
X134289275Y-74000950D01*
X133793570Y-74332170D01*
X133604000Y-74615881D01*
X133414430Y-74332170D01*
X132918724Y-74000950D01*
X132334000Y-73884641D01*
X131749275Y-74000950D01*
X131253570Y-74332170D01*
X131064000Y-74615881D01*
X130874430Y-74332170D01*
X130378724Y-74000950D01*
X129794000Y-73884641D01*
X129209275Y-74000950D01*
X128713570Y-74332170D01*
X128652156Y-74424082D01*
X128498974Y-74054266D01*
X128179708Y-73735000D01*
X175219910Y-73735000D01*
X176328001Y-74843092D01*
X176328000Y-85909076D01*
X176314091Y-85979000D01*
X176328000Y-86048924D01*
X176328000Y-86048925D01*
X176369195Y-86256027D01*
X176526119Y-86490880D01*
X176585402Y-86530492D01*
X178868001Y-88813092D01*
X178868001Y-88863293D01*
X178548734Y-88544026D01*
X177568499Y-88138000D01*
X176507501Y-88138000D01*
X175527266Y-88544026D01*
X174777026Y-89294266D01*
X174371000Y-90274501D01*
X174371000Y-91335499D01*
X174777026Y-92315734D01*
X175527266Y-93065974D01*
X176507501Y-93472000D01*
X177568499Y-93472000D01*
X178548734Y-93065974D01*
X178868001Y-92746707D01*
X178868000Y-116803292D01*
X178548734Y-116484026D01*
X177568499Y-116078000D01*
X176507501Y-116078000D01*
X175527266Y-116484026D01*
X174777026Y-117234266D01*
X174371000Y-118214501D01*
X174371000Y-119275499D01*
X174777026Y-120255734D01*
X175527266Y-121005974D01*
X176507501Y-121412000D01*
X177568499Y-121412000D01*
X178548734Y-121005974D01*
X178868000Y-120686708D01*
X178868000Y-120990909D01*
X176585402Y-123273508D01*
X176526120Y-123313119D01*
X176384544Y-123525002D01*
X176369196Y-123547972D01*
X176314091Y-123825000D01*
X176328001Y-123894929D01*
X176328000Y-125655000D01*
X126909708Y-125655000D01*
X127228974Y-125335734D01*
X127635000Y-124355499D01*
X127635000Y-123525003D01*
X137439400Y-123525003D01*
X137439400Y-124124998D01*
X137526350Y-124562125D01*
X137857570Y-125057830D01*
X138353276Y-125389050D01*
X138938000Y-125505359D01*
X139522725Y-125389050D01*
X140018430Y-125057830D01*
X140208000Y-124774119D01*
X140397570Y-125057830D01*
X140893276Y-125389050D01*
X141478000Y-125505359D01*
X142062725Y-125389050D01*
X142558430Y-125057830D01*
X142748000Y-124774119D01*
X142937570Y-125057830D01*
X143433276Y-125389050D01*
X144018000Y-125505359D01*
X144602725Y-125389050D01*
X145098430Y-125057830D01*
X145288000Y-124774119D01*
X145477570Y-125057830D01*
X145973276Y-125389050D01*
X146558000Y-125505359D01*
X147142725Y-125389050D01*
X147638430Y-125057830D01*
X147828000Y-124774119D01*
X148017570Y-125057830D01*
X148513276Y-125389050D01*
X149098000Y-125505359D01*
X149682725Y-125389050D01*
X150178430Y-125057830D01*
X150371909Y-124768267D01*
X150735964Y-125175732D01*
X151263209Y-125429709D01*
X151278974Y-125432358D01*
X151511000Y-125311217D01*
X151511000Y-123952000D01*
X151765000Y-123952000D01*
X151765000Y-125311217D01*
X151997026Y-125432358D01*
X152012791Y-125429709D01*
X152540036Y-125175732D01*
X152908000Y-124763892D01*
X153275964Y-125175732D01*
X153803209Y-125429709D01*
X153818974Y-125432358D01*
X154051000Y-125311217D01*
X154051000Y-123952000D01*
X151765000Y-123952000D01*
X151511000Y-123952000D01*
X151491000Y-123952000D01*
X151491000Y-123698000D01*
X151511000Y-123698000D01*
X151511000Y-122338783D01*
X151765000Y-122338783D01*
X151765000Y-123698000D01*
X154051000Y-123698000D01*
X154051000Y-122338783D01*
X154305000Y-122338783D01*
X154305000Y-123698000D01*
X154325000Y-123698000D01*
X154325000Y-123952000D01*
X154305000Y-123952000D01*
X154305000Y-125311217D01*
X154537026Y-125432358D01*
X154552791Y-125429709D01*
X155080036Y-125175732D01*
X155444090Y-124768268D01*
X155637570Y-125057830D01*
X156133276Y-125389050D01*
X156718000Y-125505359D01*
X157302725Y-125389050D01*
X157798430Y-125057830D01*
X158129650Y-124562124D01*
X158216600Y-124124997D01*
X158216600Y-123525003D01*
X160299400Y-123525003D01*
X160299400Y-124124998D01*
X160386350Y-124562125D01*
X160717570Y-125057830D01*
X161213276Y-125389050D01*
X161798000Y-125505359D01*
X162382725Y-125389050D01*
X162878430Y-125057830D01*
X163068000Y-124774119D01*
X163257570Y-125057830D01*
X163753276Y-125389050D01*
X164338000Y-125505359D01*
X164922725Y-125389050D01*
X165418430Y-125057830D01*
X165608000Y-124774119D01*
X165797570Y-125057830D01*
X166293276Y-125389050D01*
X166878000Y-125505359D01*
X167462725Y-125389050D01*
X167958430Y-125057830D01*
X168148000Y-124774119D01*
X168337570Y-125057830D01*
X168833276Y-125389050D01*
X169418000Y-125505359D01*
X170002725Y-125389050D01*
X170498430Y-125057830D01*
X170688000Y-124774119D01*
X170877570Y-125057830D01*
X171373276Y-125389050D01*
X171958000Y-125505359D01*
X172542725Y-125389050D01*
X173038430Y-125057830D01*
X173228000Y-124774119D01*
X173417570Y-125057830D01*
X173913276Y-125389050D01*
X174498000Y-125505359D01*
X175082725Y-125389050D01*
X175578430Y-125057830D01*
X175909650Y-124562124D01*
X175996600Y-124124997D01*
X175996600Y-123525002D01*
X175909650Y-123087875D01*
X175578430Y-122592170D01*
X175082724Y-122260950D01*
X174498000Y-122144641D01*
X173913275Y-122260950D01*
X173417570Y-122592170D01*
X173228000Y-122875881D01*
X173038430Y-122592170D01*
X172542724Y-122260950D01*
X171958000Y-122144641D01*
X171373275Y-122260950D01*
X170877570Y-122592170D01*
X170688000Y-122875881D01*
X170498430Y-122592170D01*
X170002724Y-122260950D01*
X169418000Y-122144641D01*
X168833275Y-122260950D01*
X168337570Y-122592170D01*
X168148000Y-122875881D01*
X167958430Y-122592170D01*
X167462724Y-122260950D01*
X166878000Y-122144641D01*
X166293275Y-122260950D01*
X165797570Y-122592170D01*
X165608000Y-122875881D01*
X165418430Y-122592170D01*
X164922724Y-122260950D01*
X164338000Y-122144641D01*
X163753275Y-122260950D01*
X163257570Y-122592170D01*
X163068000Y-122875881D01*
X162878430Y-122592170D01*
X162382724Y-122260950D01*
X161798000Y-122144641D01*
X161213275Y-122260950D01*
X160717570Y-122592170D01*
X160386350Y-123087876D01*
X160299400Y-123525003D01*
X158216600Y-123525003D01*
X158216600Y-123525002D01*
X158129650Y-123087875D01*
X157798430Y-122592170D01*
X157302724Y-122260950D01*
X156718000Y-122144641D01*
X156133275Y-122260950D01*
X155637570Y-122592170D01*
X155444091Y-122881733D01*
X155080036Y-122474268D01*
X154552791Y-122220291D01*
X154537026Y-122217642D01*
X154305000Y-122338783D01*
X154051000Y-122338783D01*
X153818974Y-122217642D01*
X153803209Y-122220291D01*
X153275964Y-122474268D01*
X152908000Y-122886108D01*
X152540036Y-122474268D01*
X152012791Y-122220291D01*
X151997026Y-122217642D01*
X151765000Y-122338783D01*
X151511000Y-122338783D01*
X151278974Y-122217642D01*
X151263209Y-122220291D01*
X150735964Y-122474268D01*
X150371910Y-122881732D01*
X150178430Y-122592170D01*
X149682724Y-122260950D01*
X149098000Y-122144641D01*
X148513275Y-122260950D01*
X148017570Y-122592170D01*
X147828000Y-122875881D01*
X147638430Y-122592170D01*
X147142724Y-122260950D01*
X146558000Y-122144641D01*
X145973275Y-122260950D01*
X145477570Y-122592170D01*
X145288000Y-122875881D01*
X145098430Y-122592170D01*
X144602724Y-122260950D01*
X144018000Y-122144641D01*
X143433275Y-122260950D01*
X142937570Y-122592170D01*
X142748000Y-122875881D01*
X142558430Y-122592170D01*
X142062724Y-122260950D01*
X141478000Y-122144641D01*
X140893275Y-122260950D01*
X140397570Y-122592170D01*
X140208000Y-122875881D01*
X140018430Y-122592170D01*
X139522724Y-122260950D01*
X138938000Y-122144641D01*
X138353275Y-122260950D01*
X137857570Y-122592170D01*
X137526350Y-123087876D01*
X137439400Y-123525003D01*
X127635000Y-123525003D01*
X127635000Y-123294501D01*
X127228974Y-122314266D01*
X126478734Y-121564026D01*
X125498499Y-121158000D01*
X124437501Y-121158000D01*
X123457266Y-121564026D01*
X122707026Y-122314266D01*
X122301000Y-123294501D01*
X122301000Y-124355499D01*
X122707026Y-125335734D01*
X123026292Y-125655000D01*
X111708000Y-125655000D01*
X111708000Y-112209017D01*
X127843000Y-112209017D01*
X127843000Y-112580983D01*
X127985345Y-112924635D01*
X128018001Y-112957291D01*
X128018000Y-113590153D01*
X128003112Y-113665000D01*
X128018000Y-113739847D01*
X128018000Y-113739851D01*
X128062096Y-113961536D01*
X128230071Y-114212929D01*
X128293530Y-114255331D01*
X130383000Y-116344803D01*
X130383000Y-116390983D01*
X130525345Y-116734635D01*
X130788365Y-116997655D01*
X131132017Y-117140000D01*
X131503983Y-117140000D01*
X131847635Y-116997655D01*
X131880290Y-116965000D01*
X132273199Y-116965000D01*
X135463000Y-120154802D01*
X135463000Y-120200983D01*
X135605345Y-120544635D01*
X135868365Y-120807655D01*
X136212017Y-120950000D01*
X136583983Y-120950000D01*
X136927635Y-120807655D01*
X137190655Y-120544635D01*
X137333000Y-120200983D01*
X137333000Y-119829017D01*
X137190655Y-119485365D01*
X136927635Y-119222345D01*
X136583983Y-119080000D01*
X136537802Y-119080000D01*
X133178331Y-115720530D01*
X133135929Y-115657071D01*
X132884537Y-115489096D01*
X132662852Y-115445000D01*
X132662847Y-115445000D01*
X132588000Y-115430112D01*
X132513153Y-115445000D01*
X131880290Y-115445000D01*
X131847635Y-115412345D01*
X131503983Y-115270000D01*
X131457803Y-115270000D01*
X130301819Y-114114017D01*
X138003000Y-114114017D01*
X138003000Y-114485983D01*
X138145345Y-114829635D01*
X138178001Y-114862291D01*
X138178000Y-115642710D01*
X138145345Y-115675365D01*
X138003000Y-116019017D01*
X138003000Y-116390983D01*
X138145345Y-116734635D01*
X138408365Y-116997655D01*
X138752017Y-117140000D01*
X139123983Y-117140000D01*
X139467635Y-116997655D01*
X139730655Y-116734635D01*
X139873000Y-116390983D01*
X139873000Y-116019017D01*
X139730655Y-115675365D01*
X139698000Y-115642710D01*
X139698000Y-114862290D01*
X139730655Y-114829635D01*
X139873000Y-114485983D01*
X139873000Y-114114017D01*
X139730655Y-113770365D01*
X139467635Y-113507345D01*
X139123983Y-113365000D01*
X138752017Y-113365000D01*
X138408365Y-113507345D01*
X138145345Y-113770365D01*
X138003000Y-114114017D01*
X130301819Y-114114017D01*
X129538000Y-113350199D01*
X129538000Y-112957290D01*
X129570655Y-112924635D01*
X129713000Y-112580983D01*
X129713000Y-112209017D01*
X129570655Y-111865365D01*
X129307635Y-111602345D01*
X128963983Y-111460000D01*
X128592017Y-111460000D01*
X128248365Y-111602345D01*
X127985345Y-111865365D01*
X127843000Y-112209017D01*
X111708000Y-112209017D01*
X111708000Y-86995000D01*
X111857641Y-86995000D01*
X111973950Y-87579725D01*
X112305170Y-88075430D01*
X112588881Y-88265000D01*
X112305170Y-88454570D01*
X111973950Y-88950275D01*
X111857641Y-89535000D01*
X111973950Y-90119725D01*
X112305170Y-90615430D01*
X112588881Y-90805000D01*
X112305170Y-90994570D01*
X111973950Y-91490275D01*
X111857641Y-92075000D01*
X111973950Y-92659725D01*
X112305170Y-93155430D01*
X112588881Y-93345000D01*
X112305170Y-93534570D01*
X111973950Y-94030275D01*
X111857641Y-94615000D01*
X111973950Y-95199725D01*
X112305170Y-95695430D01*
X112588881Y-95885000D01*
X112305170Y-96074570D01*
X111973950Y-96570275D01*
X111857641Y-97155000D01*
X111973950Y-97739725D01*
X112305170Y-98235430D01*
X112588881Y-98425000D01*
X112305170Y-98614570D01*
X111973950Y-99110275D01*
X111857641Y-99695000D01*
X111973950Y-100279725D01*
X112305170Y-100775430D01*
X112588881Y-100965000D01*
X112305170Y-101154570D01*
X111973950Y-101650275D01*
X111857641Y-102235000D01*
X111973950Y-102819725D01*
X112305170Y-103315430D01*
X112588881Y-103505000D01*
X112305170Y-103694570D01*
X111973950Y-104190275D01*
X111857641Y-104775000D01*
X111973950Y-105359725D01*
X112305170Y-105855430D01*
X112588881Y-106045000D01*
X112305170Y-106234570D01*
X111973950Y-106730275D01*
X111857641Y-107315000D01*
X111973950Y-107899725D01*
X112300251Y-108388068D01*
X112274235Y-108393243D01*
X112064191Y-108533591D01*
X111923843Y-108743635D01*
X111874560Y-108991400D01*
X111874560Y-110718600D01*
X111923843Y-110966365D01*
X112064191Y-111176409D01*
X112274235Y-111316757D01*
X112522000Y-111366040D01*
X114554000Y-111366040D01*
X114801765Y-111316757D01*
X115011809Y-111176409D01*
X115152157Y-110966365D01*
X115201440Y-110718600D01*
X115201440Y-108991400D01*
X115152157Y-108743635D01*
X115011809Y-108533591D01*
X114801765Y-108393243D01*
X114775749Y-108388068D01*
X115102050Y-107899725D01*
X115218359Y-107315000D01*
X115102050Y-106730275D01*
X114770830Y-106234570D01*
X114487119Y-106045000D01*
X114770830Y-105855430D01*
X115102050Y-105359725D01*
X115218359Y-104775000D01*
X115102050Y-104190275D01*
X114770830Y-103694570D01*
X114487119Y-103505000D01*
X114770830Y-103315430D01*
X115102050Y-102819725D01*
X115218359Y-102235000D01*
X115102050Y-101650275D01*
X114770830Y-101154570D01*
X114487119Y-100965000D01*
X114770830Y-100775430D01*
X115102050Y-100279725D01*
X115218359Y-99695000D01*
X115102050Y-99110275D01*
X114770830Y-98614570D01*
X114487119Y-98425000D01*
X114770830Y-98235430D01*
X115102050Y-97739725D01*
X115218359Y-97155000D01*
X115102050Y-96570275D01*
X114770830Y-96074570D01*
X114487119Y-95885000D01*
X114770830Y-95695430D01*
X115102050Y-95199725D01*
X115218359Y-94615000D01*
X115102050Y-94030275D01*
X114770830Y-93534570D01*
X114487119Y-93345000D01*
X114770830Y-93155430D01*
X115102050Y-92659725D01*
X115218359Y-92075000D01*
X115102050Y-91490275D01*
X114770830Y-90994570D01*
X114487119Y-90805000D01*
X114770830Y-90615430D01*
X115102050Y-90119725D01*
X115218359Y-89535000D01*
X115102050Y-88950275D01*
X114770830Y-88454570D01*
X114487119Y-88265000D01*
X114770830Y-88075430D01*
X115102050Y-87579725D01*
X115218359Y-86995000D01*
X115181365Y-86809017D01*
X125938000Y-86809017D01*
X125938000Y-87180983D01*
X126080345Y-87524635D01*
X126343365Y-87787655D01*
X126687017Y-87930000D01*
X126733199Y-87930000D01*
X128468011Y-89664813D01*
X128468010Y-104837710D01*
X128435355Y-104870365D01*
X128293010Y-105214017D01*
X128293010Y-105585983D01*
X128435355Y-105929635D01*
X128698375Y-106192655D01*
X129042027Y-106335000D01*
X129413993Y-106335000D01*
X129757645Y-106192655D01*
X130020665Y-105929635D01*
X130163010Y-105585983D01*
X130163010Y-105214017D01*
X130020665Y-104870365D01*
X129988010Y-104837710D01*
X129988010Y-89424856D01*
X130002898Y-89350009D01*
X129988010Y-89275162D01*
X129988010Y-89275158D01*
X129943914Y-89053473D01*
X129775939Y-88802081D01*
X129712483Y-88759681D01*
X127808000Y-86855199D01*
X127808000Y-86809017D01*
X127665655Y-86465365D01*
X127402635Y-86202345D01*
X127058983Y-86060000D01*
X126687017Y-86060000D01*
X126343365Y-86202345D01*
X126080345Y-86465365D01*
X125938000Y-86809017D01*
X115181365Y-86809017D01*
X115102050Y-86410275D01*
X114770830Y-85914570D01*
X114275125Y-85583350D01*
X113837998Y-85496400D01*
X113238002Y-85496400D01*
X112800875Y-85583350D01*
X112305170Y-85914570D01*
X111973950Y-86410275D01*
X111857641Y-86995000D01*
X111708000Y-86995000D01*
X111708000Y-84904017D01*
X124033000Y-84904017D01*
X124033000Y-85275983D01*
X124175345Y-85619635D01*
X124438365Y-85882655D01*
X124782017Y-86025000D01*
X125153983Y-86025000D01*
X125497635Y-85882655D01*
X125760655Y-85619635D01*
X125903000Y-85275983D01*
X125903000Y-84904017D01*
X129113000Y-84904017D01*
X129113000Y-85275983D01*
X129255345Y-85619635D01*
X129518365Y-85882655D01*
X129862017Y-86025000D01*
X130233983Y-86025000D01*
X130577635Y-85882655D01*
X130840655Y-85619635D01*
X130983000Y-85275983D01*
X130983000Y-84904017D01*
X134193000Y-84904017D01*
X134193000Y-85275983D01*
X134335345Y-85619635D01*
X134598365Y-85882655D01*
X134942017Y-86025000D01*
X134988199Y-86025000D01*
X141353001Y-92389803D01*
X141353000Y-96592710D01*
X141320345Y-96625365D01*
X141178000Y-96969017D01*
X141178000Y-97340983D01*
X141320345Y-97684635D01*
X141583365Y-97947655D01*
X141927017Y-98090000D01*
X142298983Y-98090000D01*
X142642635Y-97947655D01*
X142675290Y-97915000D01*
X149805710Y-97915000D01*
X149838365Y-97947655D01*
X150182017Y-98090000D01*
X150553983Y-98090000D01*
X150897635Y-97947655D01*
X150930290Y-97915000D01*
X157425710Y-97915000D01*
X157458365Y-97947655D01*
X157802017Y-98090000D01*
X158173983Y-98090000D01*
X158517635Y-97947655D01*
X158550290Y-97915000D01*
X165045710Y-97915000D01*
X165078365Y-97947655D01*
X165422017Y-98090000D01*
X165793983Y-98090000D01*
X166137635Y-97947655D01*
X166400655Y-97684635D01*
X166543000Y-97340983D01*
X166543000Y-96969017D01*
X166400655Y-96625365D01*
X166137635Y-96362345D01*
X165793983Y-96220000D01*
X165422017Y-96220000D01*
X165078365Y-96362345D01*
X165045710Y-96395000D01*
X158550290Y-96395000D01*
X158517635Y-96362345D01*
X158173983Y-96220000D01*
X157802017Y-96220000D01*
X157458365Y-96362345D01*
X157425710Y-96395000D01*
X150930290Y-96395000D01*
X150897635Y-96362345D01*
X150553983Y-96220000D01*
X150182017Y-96220000D01*
X149838365Y-96362345D01*
X149805710Y-96395000D01*
X142873000Y-96395000D01*
X142873000Y-92149848D01*
X142887888Y-92075000D01*
X142873000Y-92000152D01*
X142873000Y-92000148D01*
X142828904Y-91778463D01*
X142828904Y-91778462D01*
X142703329Y-91590527D01*
X142660929Y-91527071D01*
X142597473Y-91484671D01*
X136063000Y-84950199D01*
X136063000Y-84904017D01*
X139273000Y-84904017D01*
X139273000Y-85275983D01*
X139415345Y-85619635D01*
X139678365Y-85882655D01*
X140022017Y-86025000D01*
X140393983Y-86025000D01*
X140737635Y-85882655D01*
X141000655Y-85619635D01*
X141143000Y-85275983D01*
X141143000Y-84904017D01*
X144353000Y-84904017D01*
X144353000Y-85275983D01*
X144495345Y-85619635D01*
X144758365Y-85882655D01*
X145102017Y-86025000D01*
X145473983Y-86025000D01*
X145817635Y-85882655D01*
X146080655Y-85619635D01*
X146223000Y-85275983D01*
X146223000Y-84904017D01*
X149433000Y-84904017D01*
X149433000Y-85275983D01*
X149575345Y-85619635D01*
X149838365Y-85882655D01*
X150182017Y-86025000D01*
X150553983Y-86025000D01*
X150897635Y-85882655D01*
X151160655Y-85619635D01*
X151303000Y-85275983D01*
X151303000Y-84904017D01*
X154513000Y-84904017D01*
X154513000Y-85275983D01*
X154655345Y-85619635D01*
X154918365Y-85882655D01*
X155262017Y-86025000D01*
X155633983Y-86025000D01*
X155977635Y-85882655D01*
X156240655Y-85619635D01*
X156383000Y-85275983D01*
X156383000Y-84904017D01*
X159593000Y-84904017D01*
X159593000Y-85275983D01*
X159735345Y-85619635D01*
X159998365Y-85882655D01*
X160342017Y-86025000D01*
X160713983Y-86025000D01*
X161057635Y-85882655D01*
X161320655Y-85619635D01*
X161463000Y-85275983D01*
X161463000Y-84904017D01*
X161320655Y-84560365D01*
X161057635Y-84297345D01*
X160713983Y-84155000D01*
X160342017Y-84155000D01*
X159998365Y-84297345D01*
X159735345Y-84560365D01*
X159593000Y-84904017D01*
X156383000Y-84904017D01*
X156240655Y-84560365D01*
X155977635Y-84297345D01*
X155633983Y-84155000D01*
X155262017Y-84155000D01*
X154918365Y-84297345D01*
X154655345Y-84560365D01*
X154513000Y-84904017D01*
X151303000Y-84904017D01*
X151160655Y-84560365D01*
X150897635Y-84297345D01*
X150553983Y-84155000D01*
X150182017Y-84155000D01*
X149838365Y-84297345D01*
X149575345Y-84560365D01*
X149433000Y-84904017D01*
X146223000Y-84904017D01*
X146080655Y-84560365D01*
X145817635Y-84297345D01*
X145473983Y-84155000D01*
X145102017Y-84155000D01*
X144758365Y-84297345D01*
X144495345Y-84560365D01*
X144353000Y-84904017D01*
X141143000Y-84904017D01*
X141000655Y-84560365D01*
X140737635Y-84297345D01*
X140393983Y-84155000D01*
X140022017Y-84155000D01*
X139678365Y-84297345D01*
X139415345Y-84560365D01*
X139273000Y-84904017D01*
X136063000Y-84904017D01*
X135920655Y-84560365D01*
X135657635Y-84297345D01*
X135313983Y-84155000D01*
X134942017Y-84155000D01*
X134598365Y-84297345D01*
X134335345Y-84560365D01*
X134193000Y-84904017D01*
X130983000Y-84904017D01*
X130840655Y-84560365D01*
X130577635Y-84297345D01*
X130233983Y-84155000D01*
X129862017Y-84155000D01*
X129518365Y-84297345D01*
X129255345Y-84560365D01*
X129113000Y-84904017D01*
X125903000Y-84904017D01*
X125760655Y-84560365D01*
X125497635Y-84297345D01*
X125153983Y-84155000D01*
X124782017Y-84155000D01*
X124438365Y-84297345D01*
X124175345Y-84560365D01*
X124033000Y-84904017D01*
X111708000Y-84904017D01*
X111708000Y-75379017D01*
X118953000Y-75379017D01*
X118953000Y-75750983D01*
X119095345Y-76094635D01*
X119358365Y-76357655D01*
X119702017Y-76500000D01*
X120073983Y-76500000D01*
X120328371Y-76394629D01*
X120223000Y-76649017D01*
X120223000Y-77020983D01*
X120365345Y-77364635D01*
X120628365Y-77627655D01*
X120972017Y-77770000D01*
X121343983Y-77770000D01*
X121687635Y-77627655D01*
X121950655Y-77364635D01*
X122093000Y-77020983D01*
X122093000Y-76649017D01*
X121987629Y-76394629D01*
X122242017Y-76500000D01*
X122613983Y-76500000D01*
X122957635Y-76357655D01*
X123220655Y-76094635D01*
X123363000Y-75750983D01*
X123363000Y-75379017D01*
X123220655Y-75035365D01*
X122957635Y-74772345D01*
X122613983Y-74630000D01*
X122242017Y-74630000D01*
X121898365Y-74772345D01*
X121635345Y-75035365D01*
X121493000Y-75379017D01*
X121493000Y-75750983D01*
X121598371Y-76005371D01*
X121343983Y-75900000D01*
X120972017Y-75900000D01*
X120717629Y-76005371D01*
X120823000Y-75750983D01*
X120823000Y-75379017D01*
X120680655Y-75035365D01*
X120417635Y-74772345D01*
X120073983Y-74630000D01*
X119702017Y-74630000D01*
X119358365Y-74772345D01*
X119095345Y-75035365D01*
X118953000Y-75379017D01*
X111708000Y-75379017D01*
X111708000Y-73735000D01*
X124296292Y-73735000D01*
X123977026Y-74054266D01*
X123977026Y-74054266D01*
G37*
X123977026Y-74054266D02*
X123571000Y-75034501D01*
X123571000Y-76095499D01*
X123977026Y-77075734D01*
X124727266Y-77825974D01*
X125707501Y-78232000D01*
X126768499Y-78232000D01*
X127748734Y-77825974D01*
X128498974Y-77075734D01*
X128652156Y-76705918D01*
X128713570Y-76797830D01*
X129209276Y-77129050D01*
X129741652Y-77234946D01*
X125821599Y-81155000D01*
X122990290Y-81155000D01*
X122957635Y-81122345D01*
X122613983Y-80980000D01*
X122242017Y-80980000D01*
X121898365Y-81122345D01*
X121635345Y-81385365D01*
X121493000Y-81729017D01*
X121493000Y-82100983D01*
X121635345Y-82444635D01*
X121898365Y-82707655D01*
X122242017Y-82850000D01*
X122613983Y-82850000D01*
X122957635Y-82707655D01*
X122990290Y-82675000D01*
X126061553Y-82675000D01*
X126136400Y-82689888D01*
X126211247Y-82675000D01*
X126211252Y-82675000D01*
X126432937Y-82630904D01*
X126684329Y-82462929D01*
X126726731Y-82399470D01*
X131956027Y-77170175D01*
X132334000Y-77245359D01*
X132711974Y-77170175D01*
X135401270Y-79859472D01*
X135418328Y-79885000D01*
X132902802Y-79885000D01*
X132253000Y-79235199D01*
X132253000Y-79189017D01*
X132110655Y-78845365D01*
X131847635Y-78582345D01*
X131503983Y-78440000D01*
X131132017Y-78440000D01*
X130788365Y-78582345D01*
X130525345Y-78845365D01*
X130383000Y-79189017D01*
X130383000Y-79560983D01*
X130525345Y-79904635D01*
X130788365Y-80167655D01*
X131132017Y-80310000D01*
X131178199Y-80310000D01*
X131997670Y-81129472D01*
X132040071Y-81192929D01*
X132291463Y-81360904D01*
X132513148Y-81405000D01*
X132513152Y-81405000D01*
X132587999Y-81419888D01*
X132662846Y-81405000D01*
X165293199Y-81405000D01*
X169928000Y-86039802D01*
X169928001Y-94540148D01*
X169913112Y-94615000D01*
X169928001Y-94689852D01*
X169972097Y-94911537D01*
X170140072Y-95162929D01*
X170203528Y-95205329D01*
X172664454Y-97666256D01*
X172435345Y-97895365D01*
X172293000Y-98239017D01*
X172293000Y-98610983D01*
X172435345Y-98954635D01*
X172468000Y-98987290D01*
X172468001Y-100305199D01*
X170004245Y-102768955D01*
X169947635Y-102712345D01*
X169603983Y-102570000D01*
X169232017Y-102570000D01*
X168888365Y-102712345D01*
X168855710Y-102745000D01*
X164900290Y-102745000D01*
X164867635Y-102712345D01*
X164523983Y-102570000D01*
X164152017Y-102570000D01*
X163808365Y-102712345D01*
X163545345Y-102975365D01*
X163403000Y-103319017D01*
X163403000Y-103690983D01*
X163537212Y-104015000D01*
X158302802Y-104015000D01*
X157653000Y-103365199D01*
X157653000Y-103319017D01*
X157510655Y-102975365D01*
X157247635Y-102712345D01*
X156903983Y-102570000D01*
X156532017Y-102570000D01*
X156188365Y-102712345D01*
X155925345Y-102975365D01*
X155783000Y-103319017D01*
X155783000Y-103690983D01*
X155925345Y-104034635D01*
X156188365Y-104297655D01*
X156532017Y-104440000D01*
X156578199Y-104440000D01*
X157397671Y-105259473D01*
X157440071Y-105322929D01*
X157691463Y-105490904D01*
X157913148Y-105535000D01*
X157913152Y-105535000D01*
X157987999Y-105549888D01*
X158062846Y-105535000D01*
X167238201Y-105535000D01*
X165273000Y-107500201D01*
X165273000Y-107129017D01*
X165130655Y-106785365D01*
X164867635Y-106522345D01*
X164523983Y-106380000D01*
X164152017Y-106380000D01*
X163808365Y-106522345D01*
X163775710Y-106555000D01*
X154492803Y-106555000D01*
X151603330Y-103665529D01*
X151603328Y-103665526D01*
X150033000Y-102095199D01*
X150033000Y-102049017D01*
X149890655Y-101705365D01*
X149627635Y-101442345D01*
X149283983Y-101300000D01*
X148912017Y-101300000D01*
X148568365Y-101442345D01*
X148305345Y-101705365D01*
X148163000Y-102049017D01*
X148163000Y-102420983D01*
X148305345Y-102764635D01*
X148568365Y-103027655D01*
X148912017Y-103170000D01*
X148958199Y-103170000D01*
X150528526Y-104740328D01*
X150528529Y-104740330D01*
X153587673Y-107799476D01*
X153630071Y-107862929D01*
X153693524Y-107905327D01*
X153693526Y-107905329D01*
X153818902Y-107989102D01*
X153881463Y-108030904D01*
X154103148Y-108075000D01*
X154103152Y-108075000D01*
X154177999Y-108089888D01*
X154252846Y-108075000D01*
X163775710Y-108075000D01*
X163808365Y-108107655D01*
X164152017Y-108250000D01*
X164523201Y-108250000D01*
X163853530Y-108919671D01*
X163790071Y-108962073D01*
X163622096Y-109213466D01*
X163613369Y-109257341D01*
X163545345Y-109325365D01*
X163403000Y-109669017D01*
X163403000Y-110040983D01*
X163545345Y-110384635D01*
X163808365Y-110647655D01*
X164152017Y-110790000D01*
X164523983Y-110790000D01*
X164867635Y-110647655D01*
X165130655Y-110384635D01*
X165273000Y-110040983D01*
X165273000Y-109669017D01*
X165267372Y-109655431D01*
X173712473Y-101210331D01*
X173775929Y-101167931D01*
X173943904Y-100916539D01*
X173988000Y-100694854D01*
X173988000Y-100694850D01*
X174002888Y-100620002D01*
X173988000Y-100545154D01*
X173988000Y-98989802D01*
X175596791Y-100598593D01*
X175523908Y-100965000D01*
X175639161Y-101544418D01*
X175967375Y-102035625D01*
X176265761Y-102235000D01*
X175967375Y-102434375D01*
X175639161Y-102925582D01*
X175523908Y-103505000D01*
X175639161Y-104084418D01*
X175967375Y-104575625D01*
X176458582Y-104903839D01*
X176891744Y-104990000D01*
X177184256Y-104990000D01*
X177617418Y-104903839D01*
X178108625Y-104575625D01*
X178436839Y-104084418D01*
X178552092Y-103505000D01*
X178436839Y-102925582D01*
X178108625Y-102434375D01*
X177810239Y-102235000D01*
X178108625Y-102035625D01*
X178436839Y-101544418D01*
X178552092Y-100965000D01*
X178436839Y-100385582D01*
X178108625Y-99894375D01*
X177789522Y-99681157D01*
X177919358Y-99620183D01*
X178309645Y-99191924D01*
X178479476Y-98781890D01*
X178358155Y-98552000D01*
X177165000Y-98552000D01*
X177165000Y-98572000D01*
X176911000Y-98572000D01*
X176911000Y-98552000D01*
X176891000Y-98552000D01*
X176891000Y-98298000D01*
X176911000Y-98298000D01*
X176911000Y-98278000D01*
X177165000Y-98278000D01*
X177165000Y-98298000D01*
X178358155Y-98298000D01*
X178479476Y-98068110D01*
X178309645Y-97658076D01*
X178032292Y-97353739D01*
X178135765Y-97333157D01*
X178345809Y-97192809D01*
X178486157Y-96982765D01*
X178535440Y-96735000D01*
X178535440Y-95035000D01*
X178486157Y-94787235D01*
X178345809Y-94577191D01*
X178135765Y-94436843D01*
X177888000Y-94387560D01*
X176188000Y-94387560D01*
X175940235Y-94436843D01*
X175730191Y-94577191D01*
X175589843Y-94787235D01*
X175540560Y-95035000D01*
X175540560Y-96735000D01*
X175589843Y-96982765D01*
X175730191Y-97192809D01*
X175940235Y-97333157D01*
X176043708Y-97353739D01*
X175766355Y-97658076D01*
X175596524Y-98068110D01*
X175717844Y-98297998D01*
X175553000Y-98297998D01*
X175553000Y-98405198D01*
X172521546Y-95373744D01*
X172750655Y-95144635D01*
X172893000Y-94800983D01*
X172893000Y-94429017D01*
X172750655Y-94085365D01*
X172718000Y-94052710D01*
X172718000Y-85799846D01*
X172732888Y-85724999D01*
X172718000Y-85650152D01*
X172718000Y-85650148D01*
X172673904Y-85428463D01*
X172505929Y-85177071D01*
X172442473Y-85134671D01*
X166198331Y-78890530D01*
X166155929Y-78827071D01*
X165904537Y-78659096D01*
X165682852Y-78615000D01*
X165682847Y-78615000D01*
X165608000Y-78600112D01*
X165533153Y-78615000D01*
X136306402Y-78615000D01*
X134926348Y-77234946D01*
X135458725Y-77129050D01*
X135954430Y-76797830D01*
X136147909Y-76508267D01*
X136511964Y-76915732D01*
X137039209Y-77169709D01*
X137054974Y-77172358D01*
X137287000Y-77051217D01*
X137287000Y-75692000D01*
X137267000Y-75692000D01*
X137267000Y-75438000D01*
X137287000Y-75438000D01*
X137287000Y-74078783D01*
X137541000Y-74078783D01*
X137541000Y-75438000D01*
X137561000Y-75438000D01*
X137561000Y-75692000D01*
X137541000Y-75692000D01*
X137541000Y-77051217D01*
X137773026Y-77172358D01*
X137788791Y-77169709D01*
X138316036Y-76915732D01*
X138680090Y-76508268D01*
X138873570Y-76797830D01*
X139369276Y-77129050D01*
X139954000Y-77245359D01*
X140538725Y-77129050D01*
X141034430Y-76797830D01*
X141224000Y-76514119D01*
X141413570Y-76797830D01*
X141909276Y-77129050D01*
X142494000Y-77245359D01*
X143078725Y-77129050D01*
X143574430Y-76797830D01*
X143764000Y-76514119D01*
X143953570Y-76797830D01*
X144449276Y-77129050D01*
X145034000Y-77245359D01*
X145618725Y-77129050D01*
X146114430Y-76797830D01*
X146304000Y-76514119D01*
X146493570Y-76797830D01*
X146989276Y-77129050D01*
X147574000Y-77245359D01*
X148158725Y-77129050D01*
X148654430Y-76797830D01*
X148844000Y-76514119D01*
X149033570Y-76797830D01*
X149529276Y-77129050D01*
X150114000Y-77245359D01*
X150698725Y-77129050D01*
X151194430Y-76797830D01*
X151384000Y-76514119D01*
X151573570Y-76797830D01*
X152069276Y-77129050D01*
X152654000Y-77245359D01*
X153238725Y-77129050D01*
X153734430Y-76797830D01*
X154065650Y-76302124D01*
X154152600Y-75864997D01*
X154152600Y-75265003D01*
X155219400Y-75265003D01*
X155219400Y-75864998D01*
X155306350Y-76302125D01*
X155637570Y-76797830D01*
X156133276Y-77129050D01*
X156718000Y-77245359D01*
X157302725Y-77129050D01*
X157798430Y-76797830D01*
X157988000Y-76514119D01*
X158177570Y-76797830D01*
X158673276Y-77129050D01*
X159258000Y-77245359D01*
X159842725Y-77129050D01*
X160338430Y-76797830D01*
X160528000Y-76514119D01*
X160717570Y-76797830D01*
X161213276Y-77129050D01*
X161798000Y-77245359D01*
X162382725Y-77129050D01*
X162878430Y-76797830D01*
X163068000Y-76514119D01*
X163257570Y-76797830D01*
X163753276Y-77129050D01*
X164338000Y-77245359D01*
X164922725Y-77129050D01*
X165418430Y-76797830D01*
X165608000Y-76514119D01*
X165797570Y-76797830D01*
X166293276Y-77129050D01*
X166878000Y-77245359D01*
X167462725Y-77129050D01*
X167958430Y-76797830D01*
X168148000Y-76514119D01*
X168337570Y-76797830D01*
X168833276Y-77129050D01*
X169418000Y-77245359D01*
X170002725Y-77129050D01*
X170498430Y-76797830D01*
X170688000Y-76514119D01*
X170877570Y-76797830D01*
X171373276Y-77129050D01*
X171958000Y-77245359D01*
X172542725Y-77129050D01*
X173038430Y-76797830D01*
X173228000Y-76514119D01*
X173417570Y-76797830D01*
X173913276Y-77129050D01*
X174498000Y-77245359D01*
X175082725Y-77129050D01*
X175578430Y-76797830D01*
X175909650Y-76302124D01*
X175996600Y-75864997D01*
X175996600Y-75265002D01*
X175909650Y-74827875D01*
X175578430Y-74332170D01*
X175082724Y-74000950D01*
X174498000Y-73884641D01*
X173913275Y-74000950D01*
X173417570Y-74332170D01*
X173228000Y-74615881D01*
X173038430Y-74332170D01*
X172542724Y-74000950D01*
X171958000Y-73884641D01*
X171373275Y-74000950D01*
X170877570Y-74332170D01*
X170688000Y-74615881D01*
X170498430Y-74332170D01*
X170002724Y-74000950D01*
X169418000Y-73884641D01*
X168833275Y-74000950D01*
X168337570Y-74332170D01*
X168148000Y-74615881D01*
X167958430Y-74332170D01*
X167462724Y-74000950D01*
X166878000Y-73884641D01*
X166293275Y-74000950D01*
X165797570Y-74332170D01*
X165608000Y-74615881D01*
X165418430Y-74332170D01*
X164922724Y-74000950D01*
X164338000Y-73884641D01*
X163753275Y-74000950D01*
X163257570Y-74332170D01*
X163068000Y-74615881D01*
X162878430Y-74332170D01*
X162382724Y-74000950D01*
X161798000Y-73884641D01*
X161213275Y-74000950D01*
X160717570Y-74332170D01*
X160528000Y-74615881D01*
X160338430Y-74332170D01*
X159842724Y-74000950D01*
X159258000Y-73884641D01*
X158673275Y-74000950D01*
X158177570Y-74332170D01*
X157988000Y-74615881D01*
X157798430Y-74332170D01*
X157302724Y-74000950D01*
X156718000Y-73884641D01*
X156133275Y-74000950D01*
X155637570Y-74332170D01*
X155306350Y-74827876D01*
X155219400Y-75265003D01*
X154152600Y-75265003D01*
X154152600Y-75265002D01*
X154065650Y-74827875D01*
X153734430Y-74332170D01*
X153238724Y-74000950D01*
X152654000Y-73884641D01*
X152069275Y-74000950D01*
X151573570Y-74332170D01*
X151384000Y-74615881D01*
X151194430Y-74332170D01*
X150698724Y-74000950D01*
X150114000Y-73884641D01*
X149529275Y-74000950D01*
X149033570Y-74332170D01*
X148844000Y-74615881D01*
X148654430Y-74332170D01*
X148158724Y-74000950D01*
X147574000Y-73884641D01*
X146989275Y-74000950D01*
X146493570Y-74332170D01*
X146304000Y-74615881D01*
X146114430Y-74332170D01*
X145618724Y-74000950D01*
X145034000Y-73884641D01*
X144449275Y-74000950D01*
X143953570Y-74332170D01*
X143764000Y-74615881D01*
X143574430Y-74332170D01*
X143078724Y-74000950D01*
X142494000Y-73884641D01*
X141909275Y-74000950D01*
X141413570Y-74332170D01*
X141224000Y-74615881D01*
X141034430Y-74332170D01*
X140538724Y-74000950D01*
X139954000Y-73884641D01*
X139369275Y-74000950D01*
X138873570Y-74332170D01*
X138680091Y-74621733D01*
X138316036Y-74214268D01*
X137788791Y-73960291D01*
X137773026Y-73957642D01*
X137541000Y-74078783D01*
X137287000Y-74078783D01*
X137054974Y-73957642D01*
X137039209Y-73960291D01*
X136511964Y-74214268D01*
X136147910Y-74621732D01*
X135954430Y-74332170D01*
X135458724Y-74000950D01*
X134874000Y-73884641D01*
X134289275Y-74000950D01*
X133793570Y-74332170D01*
X133604000Y-74615881D01*
X133414430Y-74332170D01*
X132918724Y-74000950D01*
X132334000Y-73884641D01*
X131749275Y-74000950D01*
X131253570Y-74332170D01*
X131064000Y-74615881D01*
X130874430Y-74332170D01*
X130378724Y-74000950D01*
X129794000Y-73884641D01*
X129209275Y-74000950D01*
X128713570Y-74332170D01*
X128652156Y-74424082D01*
X128498974Y-74054266D01*
X128179708Y-73735000D01*
X175219910Y-73735000D01*
X176328001Y-74843092D01*
X176328000Y-85909076D01*
X176314091Y-85979000D01*
X176328000Y-86048924D01*
X176328000Y-86048925D01*
X176369195Y-86256027D01*
X176526119Y-86490880D01*
X176585402Y-86530492D01*
X178868001Y-88813092D01*
X178868001Y-88863293D01*
X178548734Y-88544026D01*
X177568499Y-88138000D01*
X176507501Y-88138000D01*
X175527266Y-88544026D01*
X174777026Y-89294266D01*
X174371000Y-90274501D01*
X174371000Y-91335499D01*
X174777026Y-92315734D01*
X175527266Y-93065974D01*
X176507501Y-93472000D01*
X177568499Y-93472000D01*
X178548734Y-93065974D01*
X178868001Y-92746707D01*
X178868000Y-116803292D01*
X178548734Y-116484026D01*
X177568499Y-116078000D01*
X176507501Y-116078000D01*
X175527266Y-116484026D01*
X174777026Y-117234266D01*
X174371000Y-118214501D01*
X174371000Y-119275499D01*
X174777026Y-120255734D01*
X175527266Y-121005974D01*
X176507501Y-121412000D01*
X177568499Y-121412000D01*
X178548734Y-121005974D01*
X178868000Y-120686708D01*
X178868000Y-120990909D01*
X176585402Y-123273508D01*
X176526120Y-123313119D01*
X176384544Y-123525002D01*
X176369196Y-123547972D01*
X176314091Y-123825000D01*
X176328001Y-123894929D01*
X176328000Y-125655000D01*
X126909708Y-125655000D01*
X127228974Y-125335734D01*
X127635000Y-124355499D01*
X127635000Y-123525003D01*
X137439400Y-123525003D01*
X137439400Y-124124998D01*
X137526350Y-124562125D01*
X137857570Y-125057830D01*
X138353276Y-125389050D01*
X138938000Y-125505359D01*
X139522725Y-125389050D01*
X140018430Y-125057830D01*
X140208000Y-124774119D01*
X140397570Y-125057830D01*
X140893276Y-125389050D01*
X141478000Y-125505359D01*
X142062725Y-125389050D01*
X142558430Y-125057830D01*
X142748000Y-124774119D01*
X142937570Y-125057830D01*
X143433276Y-125389050D01*
X144018000Y-125505359D01*
X144602725Y-125389050D01*
X145098430Y-125057830D01*
X145288000Y-124774119D01*
X145477570Y-125057830D01*
X145973276Y-125389050D01*
X146558000Y-125505359D01*
X147142725Y-125389050D01*
X147638430Y-125057830D01*
X147828000Y-124774119D01*
X148017570Y-125057830D01*
X148513276Y-125389050D01*
X149098000Y-125505359D01*
X149682725Y-125389050D01*
X150178430Y-125057830D01*
X150371909Y-124768267D01*
X150735964Y-125175732D01*
X151263209Y-125429709D01*
X151278974Y-125432358D01*
X151511000Y-125311217D01*
X151511000Y-123952000D01*
X151765000Y-123952000D01*
X151765000Y-125311217D01*
X151997026Y-125432358D01*
X152012791Y-125429709D01*
X152540036Y-125175732D01*
X152908000Y-124763892D01*
X153275964Y-125175732D01*
X153803209Y-125429709D01*
X153818974Y-125432358D01*
X154051000Y-125311217D01*
X154051000Y-123952000D01*
X151765000Y-123952000D01*
X151511000Y-123952000D01*
X151491000Y-123952000D01*
X151491000Y-123698000D01*
X151511000Y-123698000D01*
X151511000Y-122338783D01*
X151765000Y-122338783D01*
X151765000Y-123698000D01*
X154051000Y-123698000D01*
X154051000Y-122338783D01*
X154305000Y-122338783D01*
X154305000Y-123698000D01*
X154325000Y-123698000D01*
X154325000Y-123952000D01*
X154305000Y-123952000D01*
X154305000Y-125311217D01*
X154537026Y-125432358D01*
X154552791Y-125429709D01*
X155080036Y-125175732D01*
X155444090Y-124768268D01*
X155637570Y-125057830D01*
X156133276Y-125389050D01*
X156718000Y-125505359D01*
X157302725Y-125389050D01*
X157798430Y-125057830D01*
X158129650Y-124562124D01*
X158216600Y-124124997D01*
X158216600Y-123525003D01*
X160299400Y-123525003D01*
X160299400Y-124124998D01*
X160386350Y-124562125D01*
X160717570Y-125057830D01*
X161213276Y-125389050D01*
X161798000Y-125505359D01*
X162382725Y-125389050D01*
X162878430Y-125057830D01*
X163068000Y-124774119D01*
X163257570Y-125057830D01*
X163753276Y-125389050D01*
X164338000Y-125505359D01*
X164922725Y-125389050D01*
X165418430Y-125057830D01*
X165608000Y-124774119D01*
X165797570Y-125057830D01*
X166293276Y-125389050D01*
X166878000Y-125505359D01*
X167462725Y-125389050D01*
X167958430Y-125057830D01*
X168148000Y-124774119D01*
X168337570Y-125057830D01*
X168833276Y-125389050D01*
X169418000Y-125505359D01*
X170002725Y-125389050D01*
X170498430Y-125057830D01*
X170688000Y-124774119D01*
X170877570Y-125057830D01*
X171373276Y-125389050D01*
X171958000Y-125505359D01*
X172542725Y-125389050D01*
X173038430Y-125057830D01*
X173228000Y-124774119D01*
X173417570Y-125057830D01*
X173913276Y-125389050D01*
X174498000Y-125505359D01*
X175082725Y-125389050D01*
X175578430Y-125057830D01*
X175909650Y-124562124D01*
X175996600Y-124124997D01*
X175996600Y-123525002D01*
X175909650Y-123087875D01*
X175578430Y-122592170D01*
X175082724Y-122260950D01*
X174498000Y-122144641D01*
X173913275Y-122260950D01*
X173417570Y-122592170D01*
X173228000Y-122875881D01*
X173038430Y-122592170D01*
X172542724Y-122260950D01*
X171958000Y-122144641D01*
X171373275Y-122260950D01*
X170877570Y-122592170D01*
X170688000Y-122875881D01*
X170498430Y-122592170D01*
X170002724Y-122260950D01*
X169418000Y-122144641D01*
X168833275Y-122260950D01*
X168337570Y-122592170D01*
X168148000Y-122875881D01*
X167958430Y-122592170D01*
X167462724Y-122260950D01*
X166878000Y-122144641D01*
X166293275Y-122260950D01*
X165797570Y-122592170D01*
X165608000Y-122875881D01*
X165418430Y-122592170D01*
X164922724Y-122260950D01*
X164338000Y-122144641D01*
X163753275Y-122260950D01*
X163257570Y-122592170D01*
X163068000Y-122875881D01*
X162878430Y-122592170D01*
X162382724Y-122260950D01*
X161798000Y-122144641D01*
X161213275Y-122260950D01*
X160717570Y-122592170D01*
X160386350Y-123087876D01*
X160299400Y-123525003D01*
X158216600Y-123525003D01*
X158216600Y-123525002D01*
X158129650Y-123087875D01*
X157798430Y-122592170D01*
X157302724Y-122260950D01*
X156718000Y-122144641D01*
X156133275Y-122260950D01*
X155637570Y-122592170D01*
X155444091Y-122881733D01*
X155080036Y-122474268D01*
X154552791Y-122220291D01*
X154537026Y-122217642D01*
X154305000Y-122338783D01*
X154051000Y-122338783D01*
X153818974Y-122217642D01*
X153803209Y-122220291D01*
X153275964Y-122474268D01*
X152908000Y-122886108D01*
X152540036Y-122474268D01*
X152012791Y-122220291D01*
X151997026Y-122217642D01*
X151765000Y-122338783D01*
X151511000Y-122338783D01*
X151278974Y-122217642D01*
X151263209Y-122220291D01*
X150735964Y-122474268D01*
X150371910Y-122881732D01*
X150178430Y-122592170D01*
X149682724Y-122260950D01*
X149098000Y-122144641D01*
X148513275Y-122260950D01*
X148017570Y-122592170D01*
X147828000Y-122875881D01*
X147638430Y-122592170D01*
X147142724Y-122260950D01*
X146558000Y-122144641D01*
X145973275Y-122260950D01*
X145477570Y-122592170D01*
X145288000Y-122875881D01*
X145098430Y-122592170D01*
X144602724Y-122260950D01*
X144018000Y-122144641D01*
X143433275Y-122260950D01*
X142937570Y-122592170D01*
X142748000Y-122875881D01*
X142558430Y-122592170D01*
X142062724Y-122260950D01*
X141478000Y-122144641D01*
X140893275Y-122260950D01*
X140397570Y-122592170D01*
X140208000Y-122875881D01*
X140018430Y-122592170D01*
X139522724Y-122260950D01*
X138938000Y-122144641D01*
X138353275Y-122260950D01*
X137857570Y-122592170D01*
X137526350Y-123087876D01*
X137439400Y-123525003D01*
X127635000Y-123525003D01*
X127635000Y-123294501D01*
X127228974Y-122314266D01*
X126478734Y-121564026D01*
X125498499Y-121158000D01*
X124437501Y-121158000D01*
X123457266Y-121564026D01*
X122707026Y-122314266D01*
X122301000Y-123294501D01*
X122301000Y-124355499D01*
X122707026Y-125335734D01*
X123026292Y-125655000D01*
X111708000Y-125655000D01*
X111708000Y-112209017D01*
X127843000Y-112209017D01*
X127843000Y-112580983D01*
X127985345Y-112924635D01*
X128018001Y-112957291D01*
X128018000Y-113590153D01*
X128003112Y-113665000D01*
X128018000Y-113739847D01*
X128018000Y-113739851D01*
X128062096Y-113961536D01*
X128230071Y-114212929D01*
X128293530Y-114255331D01*
X130383000Y-116344803D01*
X130383000Y-116390983D01*
X130525345Y-116734635D01*
X130788365Y-116997655D01*
X131132017Y-117140000D01*
X131503983Y-117140000D01*
X131847635Y-116997655D01*
X131880290Y-116965000D01*
X132273199Y-116965000D01*
X135463000Y-120154802D01*
X135463000Y-120200983D01*
X135605345Y-120544635D01*
X135868365Y-120807655D01*
X136212017Y-120950000D01*
X136583983Y-120950000D01*
X136927635Y-120807655D01*
X137190655Y-120544635D01*
X137333000Y-120200983D01*
X137333000Y-119829017D01*
X137190655Y-119485365D01*
X136927635Y-119222345D01*
X136583983Y-119080000D01*
X136537802Y-119080000D01*
X133178331Y-115720530D01*
X133135929Y-115657071D01*
X132884537Y-115489096D01*
X132662852Y-115445000D01*
X132662847Y-115445000D01*
X132588000Y-115430112D01*
X132513153Y-115445000D01*
X131880290Y-115445000D01*
X131847635Y-115412345D01*
X131503983Y-115270000D01*
X131457803Y-115270000D01*
X130301819Y-114114017D01*
X138003000Y-114114017D01*
X138003000Y-114485983D01*
X138145345Y-114829635D01*
X138178001Y-114862291D01*
X138178000Y-115642710D01*
X138145345Y-115675365D01*
X138003000Y-116019017D01*
X138003000Y-116390983D01*
X138145345Y-116734635D01*
X138408365Y-116997655D01*
X138752017Y-117140000D01*
X139123983Y-117140000D01*
X139467635Y-116997655D01*
X139730655Y-116734635D01*
X139873000Y-116390983D01*
X139873000Y-116019017D01*
X139730655Y-115675365D01*
X139698000Y-115642710D01*
X139698000Y-114862290D01*
X139730655Y-114829635D01*
X139873000Y-114485983D01*
X139873000Y-114114017D01*
X139730655Y-113770365D01*
X139467635Y-113507345D01*
X139123983Y-113365000D01*
X138752017Y-113365000D01*
X138408365Y-113507345D01*
X138145345Y-113770365D01*
X138003000Y-114114017D01*
X130301819Y-114114017D01*
X129538000Y-113350199D01*
X129538000Y-112957290D01*
X129570655Y-112924635D01*
X129713000Y-112580983D01*
X129713000Y-112209017D01*
X129570655Y-111865365D01*
X129307635Y-111602345D01*
X128963983Y-111460000D01*
X128592017Y-111460000D01*
X128248365Y-111602345D01*
X127985345Y-111865365D01*
X127843000Y-112209017D01*
X111708000Y-112209017D01*
X111708000Y-86995000D01*
X111857641Y-86995000D01*
X111973950Y-87579725D01*
X112305170Y-88075430D01*
X112588881Y-88265000D01*
X112305170Y-88454570D01*
X111973950Y-88950275D01*
X111857641Y-89535000D01*
X111973950Y-90119725D01*
X112305170Y-90615430D01*
X112588881Y-90805000D01*
X112305170Y-90994570D01*
X111973950Y-91490275D01*
X111857641Y-92075000D01*
X111973950Y-92659725D01*
X112305170Y-93155430D01*
X112588881Y-93345000D01*
X112305170Y-93534570D01*
X111973950Y-94030275D01*
X111857641Y-94615000D01*
X111973950Y-95199725D01*
X112305170Y-95695430D01*
X112588881Y-95885000D01*
X112305170Y-96074570D01*
X111973950Y-96570275D01*
X111857641Y-97155000D01*
X111973950Y-97739725D01*
X112305170Y-98235430D01*
X112588881Y-98425000D01*
X112305170Y-98614570D01*
X111973950Y-99110275D01*
X111857641Y-99695000D01*
X111973950Y-100279725D01*
X112305170Y-100775430D01*
X112588881Y-100965000D01*
X112305170Y-101154570D01*
X111973950Y-101650275D01*
X111857641Y-102235000D01*
X111973950Y-102819725D01*
X112305170Y-103315430D01*
X112588881Y-103505000D01*
X112305170Y-103694570D01*
X111973950Y-104190275D01*
X111857641Y-104775000D01*
X111973950Y-105359725D01*
X112305170Y-105855430D01*
X112588881Y-106045000D01*
X112305170Y-106234570D01*
X111973950Y-106730275D01*
X111857641Y-107315000D01*
X111973950Y-107899725D01*
X112300251Y-108388068D01*
X112274235Y-108393243D01*
X112064191Y-108533591D01*
X111923843Y-108743635D01*
X111874560Y-108991400D01*
X111874560Y-110718600D01*
X111923843Y-110966365D01*
X112064191Y-111176409D01*
X112274235Y-111316757D01*
X112522000Y-111366040D01*
X114554000Y-111366040D01*
X114801765Y-111316757D01*
X115011809Y-111176409D01*
X115152157Y-110966365D01*
X115201440Y-110718600D01*
X115201440Y-108991400D01*
X115152157Y-108743635D01*
X115011809Y-108533591D01*
X114801765Y-108393243D01*
X114775749Y-108388068D01*
X115102050Y-107899725D01*
X115218359Y-107315000D01*
X115102050Y-106730275D01*
X114770830Y-106234570D01*
X114487119Y-106045000D01*
X114770830Y-105855430D01*
X115102050Y-105359725D01*
X115218359Y-104775000D01*
X115102050Y-104190275D01*
X114770830Y-103694570D01*
X114487119Y-103505000D01*
X114770830Y-103315430D01*
X115102050Y-102819725D01*
X115218359Y-102235000D01*
X115102050Y-101650275D01*
X114770830Y-101154570D01*
X114487119Y-100965000D01*
X114770830Y-100775430D01*
X115102050Y-100279725D01*
X115218359Y-99695000D01*
X115102050Y-99110275D01*
X114770830Y-98614570D01*
X114487119Y-98425000D01*
X114770830Y-98235430D01*
X115102050Y-97739725D01*
X115218359Y-97155000D01*
X115102050Y-96570275D01*
X114770830Y-96074570D01*
X114487119Y-95885000D01*
X114770830Y-95695430D01*
X115102050Y-95199725D01*
X115218359Y-94615000D01*
X115102050Y-94030275D01*
X114770830Y-93534570D01*
X114487119Y-93345000D01*
X114770830Y-93155430D01*
X115102050Y-92659725D01*
X115218359Y-92075000D01*
X115102050Y-91490275D01*
X114770830Y-90994570D01*
X114487119Y-90805000D01*
X114770830Y-90615430D01*
X115102050Y-90119725D01*
X115218359Y-89535000D01*
X115102050Y-88950275D01*
X114770830Y-88454570D01*
X114487119Y-88265000D01*
X114770830Y-88075430D01*
X115102050Y-87579725D01*
X115218359Y-86995000D01*
X115181365Y-86809017D01*
X125938000Y-86809017D01*
X125938000Y-87180983D01*
X126080345Y-87524635D01*
X126343365Y-87787655D01*
X126687017Y-87930000D01*
X126733199Y-87930000D01*
X128468011Y-89664813D01*
X128468010Y-104837710D01*
X128435355Y-104870365D01*
X128293010Y-105214017D01*
X128293010Y-105585983D01*
X128435355Y-105929635D01*
X128698375Y-106192655D01*
X129042027Y-106335000D01*
X129413993Y-106335000D01*
X129757645Y-106192655D01*
X130020665Y-105929635D01*
X130163010Y-105585983D01*
X130163010Y-105214017D01*
X130020665Y-104870365D01*
X129988010Y-104837710D01*
X129988010Y-89424856D01*
X130002898Y-89350009D01*
X129988010Y-89275162D01*
X129988010Y-89275158D01*
X129943914Y-89053473D01*
X129775939Y-88802081D01*
X129712483Y-88759681D01*
X127808000Y-86855199D01*
X127808000Y-86809017D01*
X127665655Y-86465365D01*
X127402635Y-86202345D01*
X127058983Y-86060000D01*
X126687017Y-86060000D01*
X126343365Y-86202345D01*
X126080345Y-86465365D01*
X125938000Y-86809017D01*
X115181365Y-86809017D01*
X115102050Y-86410275D01*
X114770830Y-85914570D01*
X114275125Y-85583350D01*
X113837998Y-85496400D01*
X113238002Y-85496400D01*
X112800875Y-85583350D01*
X112305170Y-85914570D01*
X111973950Y-86410275D01*
X111857641Y-86995000D01*
X111708000Y-86995000D01*
X111708000Y-84904017D01*
X124033000Y-84904017D01*
X124033000Y-85275983D01*
X124175345Y-85619635D01*
X124438365Y-85882655D01*
X124782017Y-86025000D01*
X125153983Y-86025000D01*
X125497635Y-85882655D01*
X125760655Y-85619635D01*
X125903000Y-85275983D01*
X125903000Y-84904017D01*
X129113000Y-84904017D01*
X129113000Y-85275983D01*
X129255345Y-85619635D01*
X129518365Y-85882655D01*
X129862017Y-86025000D01*
X130233983Y-86025000D01*
X130577635Y-85882655D01*
X130840655Y-85619635D01*
X130983000Y-85275983D01*
X130983000Y-84904017D01*
X134193000Y-84904017D01*
X134193000Y-85275983D01*
X134335345Y-85619635D01*
X134598365Y-85882655D01*
X134942017Y-86025000D01*
X134988199Y-86025000D01*
X141353001Y-92389803D01*
X141353000Y-96592710D01*
X141320345Y-96625365D01*
X141178000Y-96969017D01*
X141178000Y-97340983D01*
X141320345Y-97684635D01*
X141583365Y-97947655D01*
X141927017Y-98090000D01*
X142298983Y-98090000D01*
X142642635Y-97947655D01*
X142675290Y-97915000D01*
X149805710Y-97915000D01*
X149838365Y-97947655D01*
X150182017Y-98090000D01*
X150553983Y-98090000D01*
X150897635Y-97947655D01*
X150930290Y-97915000D01*
X157425710Y-97915000D01*
X157458365Y-97947655D01*
X157802017Y-98090000D01*
X158173983Y-98090000D01*
X158517635Y-97947655D01*
X158550290Y-97915000D01*
X165045710Y-97915000D01*
X165078365Y-97947655D01*
X165422017Y-98090000D01*
X165793983Y-98090000D01*
X166137635Y-97947655D01*
X166400655Y-97684635D01*
X166543000Y-97340983D01*
X166543000Y-96969017D01*
X166400655Y-96625365D01*
X166137635Y-96362345D01*
X165793983Y-96220000D01*
X165422017Y-96220000D01*
X165078365Y-96362345D01*
X165045710Y-96395000D01*
X158550290Y-96395000D01*
X158517635Y-96362345D01*
X158173983Y-96220000D01*
X157802017Y-96220000D01*
X157458365Y-96362345D01*
X157425710Y-96395000D01*
X150930290Y-96395000D01*
X150897635Y-96362345D01*
X150553983Y-96220000D01*
X150182017Y-96220000D01*
X149838365Y-96362345D01*
X149805710Y-96395000D01*
X142873000Y-96395000D01*
X142873000Y-92149848D01*
X142887888Y-92075000D01*
X142873000Y-92000152D01*
X142873000Y-92000148D01*
X142828904Y-91778463D01*
X142828904Y-91778462D01*
X142703329Y-91590527D01*
X142660929Y-91527071D01*
X142597473Y-91484671D01*
X136063000Y-84950199D01*
X136063000Y-84904017D01*
X139273000Y-84904017D01*
X139273000Y-85275983D01*
X139415345Y-85619635D01*
X139678365Y-85882655D01*
X140022017Y-86025000D01*
X140393983Y-86025000D01*
X140737635Y-85882655D01*
X141000655Y-85619635D01*
X141143000Y-85275983D01*
X141143000Y-84904017D01*
X144353000Y-84904017D01*
X144353000Y-85275983D01*
X144495345Y-85619635D01*
X144758365Y-85882655D01*
X145102017Y-86025000D01*
X145473983Y-86025000D01*
X145817635Y-85882655D01*
X146080655Y-85619635D01*
X146223000Y-85275983D01*
X146223000Y-84904017D01*
X149433000Y-84904017D01*
X149433000Y-85275983D01*
X149575345Y-85619635D01*
X149838365Y-85882655D01*
X150182017Y-86025000D01*
X150553983Y-86025000D01*
X150897635Y-85882655D01*
X151160655Y-85619635D01*
X151303000Y-85275983D01*
X151303000Y-84904017D01*
X154513000Y-84904017D01*
X154513000Y-85275983D01*
X154655345Y-85619635D01*
X154918365Y-85882655D01*
X155262017Y-86025000D01*
X155633983Y-86025000D01*
X155977635Y-85882655D01*
X156240655Y-85619635D01*
X156383000Y-85275983D01*
X156383000Y-84904017D01*
X159593000Y-84904017D01*
X159593000Y-85275983D01*
X159735345Y-85619635D01*
X159998365Y-85882655D01*
X160342017Y-86025000D01*
X160713983Y-86025000D01*
X161057635Y-85882655D01*
X161320655Y-85619635D01*
X161463000Y-85275983D01*
X161463000Y-84904017D01*
X161320655Y-84560365D01*
X161057635Y-84297345D01*
X160713983Y-84155000D01*
X160342017Y-84155000D01*
X159998365Y-84297345D01*
X159735345Y-84560365D01*
X159593000Y-84904017D01*
X156383000Y-84904017D01*
X156240655Y-84560365D01*
X155977635Y-84297345D01*
X155633983Y-84155000D01*
X155262017Y-84155000D01*
X154918365Y-84297345D01*
X154655345Y-84560365D01*
X154513000Y-84904017D01*
X151303000Y-84904017D01*
X151160655Y-84560365D01*
X150897635Y-84297345D01*
X150553983Y-84155000D01*
X150182017Y-84155000D01*
X149838365Y-84297345D01*
X149575345Y-84560365D01*
X149433000Y-84904017D01*
X146223000Y-84904017D01*
X146080655Y-84560365D01*
X145817635Y-84297345D01*
X145473983Y-84155000D01*
X145102017Y-84155000D01*
X144758365Y-84297345D01*
X144495345Y-84560365D01*
X144353000Y-84904017D01*
X141143000Y-84904017D01*
X141000655Y-84560365D01*
X140737635Y-84297345D01*
X140393983Y-84155000D01*
X140022017Y-84155000D01*
X139678365Y-84297345D01*
X139415345Y-84560365D01*
X139273000Y-84904017D01*
X136063000Y-84904017D01*
X135920655Y-84560365D01*
X135657635Y-84297345D01*
X135313983Y-84155000D01*
X134942017Y-84155000D01*
X134598365Y-84297345D01*
X134335345Y-84560365D01*
X134193000Y-84904017D01*
X130983000Y-84904017D01*
X130840655Y-84560365D01*
X130577635Y-84297345D01*
X130233983Y-84155000D01*
X129862017Y-84155000D01*
X129518365Y-84297345D01*
X129255345Y-84560365D01*
X129113000Y-84904017D01*
X125903000Y-84904017D01*
X125760655Y-84560365D01*
X125497635Y-84297345D01*
X125153983Y-84155000D01*
X124782017Y-84155000D01*
X124438365Y-84297345D01*
X124175345Y-84560365D01*
X124033000Y-84904017D01*
X111708000Y-84904017D01*
X111708000Y-75379017D01*
X118953000Y-75379017D01*
X118953000Y-75750983D01*
X119095345Y-76094635D01*
X119358365Y-76357655D01*
X119702017Y-76500000D01*
X120073983Y-76500000D01*
X120328371Y-76394629D01*
X120223000Y-76649017D01*
X120223000Y-77020983D01*
X120365345Y-77364635D01*
X120628365Y-77627655D01*
X120972017Y-77770000D01*
X121343983Y-77770000D01*
X121687635Y-77627655D01*
X121950655Y-77364635D01*
X122093000Y-77020983D01*
X122093000Y-76649017D01*
X121987629Y-76394629D01*
X122242017Y-76500000D01*
X122613983Y-76500000D01*
X122957635Y-76357655D01*
X123220655Y-76094635D01*
X123363000Y-75750983D01*
X123363000Y-75379017D01*
X123220655Y-75035365D01*
X122957635Y-74772345D01*
X122613983Y-74630000D01*
X122242017Y-74630000D01*
X121898365Y-74772345D01*
X121635345Y-75035365D01*
X121493000Y-75379017D01*
X121493000Y-75750983D01*
X121598371Y-76005371D01*
X121343983Y-75900000D01*
X120972017Y-75900000D01*
X120717629Y-76005371D01*
X120823000Y-75750983D01*
X120823000Y-75379017D01*
X120680655Y-75035365D01*
X120417635Y-74772345D01*
X120073983Y-74630000D01*
X119702017Y-74630000D01*
X119358365Y-74772345D01*
X119095345Y-75035365D01*
X118953000Y-75379017D01*
X111708000Y-75379017D01*
X111708000Y-73735000D01*
X124296292Y-73735000D01*
X123977026Y-74054266D01*
G04 #@! TD*
M02*
