G04 #@! TF.GenerationSoftware,KiCad,Pcbnew,5.1.5*
G04 #@! TF.CreationDate,2020-01-02T17:54:48+01:00*
G04 #@! TF.ProjectId,KiCad_Shield,4b694361-645f-4536-9869-656c642e6b69,rev?*
G04 #@! TF.SameCoordinates,Original*
G04 #@! TF.FileFunction,Soldermask,Top*
G04 #@! TF.FilePolarity,Negative*
%FSLAX46Y46*%
G04 Gerber Fmt 4.6, Leading zero omitted, Abs format (unit mm)*
G04 Created by KiCad (PCBNEW 5.1.5) date 2020-01-02 17:54:48*
%MOMM*%
%LPD*%
G04 APERTURE LIST*
%ADD10C,0.100000*%
G04 APERTURE END LIST*
D10*
G36*
X125560711Y-121871088D02*
G01*
X125560714Y-121871089D01*
X125560713Y-121871089D01*
X125930513Y-122024265D01*
X126263325Y-122246643D01*
X126546357Y-122529675D01*
X126741346Y-122821496D01*
X126768736Y-122862489D01*
X126921912Y-123232289D01*
X127000000Y-123624864D01*
X127000000Y-124025136D01*
X126921912Y-124417711D01*
X126904598Y-124459510D01*
X126768735Y-124787513D01*
X126546357Y-125120325D01*
X126263325Y-125403357D01*
X125930513Y-125625735D01*
X125930512Y-125625736D01*
X125930511Y-125625736D01*
X125560711Y-125778912D01*
X125168136Y-125857000D01*
X124767864Y-125857000D01*
X124375289Y-125778912D01*
X124005489Y-125625736D01*
X124005488Y-125625736D01*
X124005487Y-125625735D01*
X123672675Y-125403357D01*
X123389643Y-125120325D01*
X123167265Y-124787513D01*
X123031402Y-124459510D01*
X123014088Y-124417711D01*
X122936000Y-124025136D01*
X122936000Y-123624864D01*
X123014088Y-123232289D01*
X123167264Y-122862489D01*
X123194655Y-122821496D01*
X123389643Y-122529675D01*
X123672675Y-122246643D01*
X124005487Y-122024265D01*
X124375287Y-121871089D01*
X124375286Y-121871089D01*
X124375289Y-121871088D01*
X124767864Y-121793000D01*
X125168136Y-121793000D01*
X125560711Y-121871088D01*
G37*
G36*
X139107294Y-122821496D02*
G01*
X139227726Y-122858029D01*
X139270087Y-122870879D01*
X139420107Y-122951066D01*
X139420110Y-122951068D01*
X139420111Y-122951069D01*
X139551612Y-123058988D01*
X139659531Y-123190488D01*
X139659533Y-123190492D01*
X139659534Y-123190493D01*
X139739721Y-123340513D01*
X139739722Y-123340516D01*
X139789104Y-123503305D01*
X139789104Y-123503307D01*
X139801600Y-123630179D01*
X139801600Y-124019820D01*
X139801076Y-124025136D01*
X139789104Y-124146694D01*
X139768876Y-124213375D01*
X139739721Y-124309488D01*
X139681874Y-124417711D01*
X139659531Y-124459512D01*
X139551612Y-124591012D01*
X139420112Y-124698931D01*
X139420108Y-124698933D01*
X139420107Y-124698934D01*
X139270087Y-124779121D01*
X139270084Y-124779122D01*
X139107295Y-124828504D01*
X138938000Y-124845178D01*
X138768706Y-124828504D01*
X138605917Y-124779122D01*
X138605914Y-124779121D01*
X138455894Y-124698934D01*
X138455893Y-124698933D01*
X138455889Y-124698931D01*
X138324388Y-124591012D01*
X138216469Y-124459512D01*
X138136280Y-124309488D01*
X138136279Y-124309487D01*
X138123723Y-124268095D01*
X138086896Y-124146695D01*
X138078538Y-124061837D01*
X138074400Y-124019821D01*
X138074400Y-123630180D01*
X138086896Y-123503308D01*
X138086896Y-123503306D01*
X138135156Y-123344215D01*
X138136279Y-123340513D01*
X138216466Y-123190493D01*
X138216470Y-123190488D01*
X138324388Y-123058988D01*
X138455888Y-122951069D01*
X138455892Y-122951067D01*
X138455893Y-122951066D01*
X138605913Y-122870879D01*
X138633571Y-122862489D01*
X138768705Y-122821496D01*
X138938000Y-122804822D01*
X139107294Y-122821496D01*
G37*
G36*
X174667294Y-122821496D02*
G01*
X174787726Y-122858029D01*
X174830087Y-122870879D01*
X174980107Y-122951066D01*
X174980110Y-122951068D01*
X174980111Y-122951069D01*
X175111612Y-123058988D01*
X175219531Y-123190488D01*
X175219533Y-123190492D01*
X175219534Y-123190493D01*
X175299721Y-123340513D01*
X175299722Y-123340516D01*
X175349104Y-123503305D01*
X175349104Y-123503307D01*
X175361600Y-123630179D01*
X175361600Y-124019820D01*
X175361076Y-124025136D01*
X175349104Y-124146694D01*
X175328876Y-124213375D01*
X175299721Y-124309488D01*
X175241874Y-124417711D01*
X175219531Y-124459512D01*
X175111612Y-124591012D01*
X174980112Y-124698931D01*
X174980108Y-124698933D01*
X174980107Y-124698934D01*
X174830087Y-124779121D01*
X174830084Y-124779122D01*
X174667295Y-124828504D01*
X174498000Y-124845178D01*
X174328706Y-124828504D01*
X174165917Y-124779122D01*
X174165914Y-124779121D01*
X174015894Y-124698934D01*
X174015893Y-124698933D01*
X174015889Y-124698931D01*
X173884388Y-124591012D01*
X173776469Y-124459512D01*
X173696280Y-124309488D01*
X173696279Y-124309487D01*
X173683723Y-124268095D01*
X173646896Y-124146695D01*
X173638538Y-124061837D01*
X173634400Y-124019821D01*
X173634400Y-123630180D01*
X173646896Y-123503308D01*
X173646896Y-123503306D01*
X173695156Y-123344215D01*
X173696279Y-123340513D01*
X173776466Y-123190493D01*
X173776470Y-123190488D01*
X173884388Y-123058988D01*
X174015888Y-122951069D01*
X174015892Y-122951067D01*
X174015893Y-122951066D01*
X174165913Y-122870879D01*
X174193571Y-122862489D01*
X174328705Y-122821496D01*
X174498000Y-122804822D01*
X174667294Y-122821496D01*
G37*
G36*
X172127294Y-122821496D02*
G01*
X172247726Y-122858029D01*
X172290087Y-122870879D01*
X172440107Y-122951066D01*
X172440110Y-122951068D01*
X172440111Y-122951069D01*
X172571612Y-123058988D01*
X172679531Y-123190488D01*
X172679533Y-123190492D01*
X172679534Y-123190493D01*
X172759721Y-123340513D01*
X172759722Y-123340516D01*
X172809104Y-123503305D01*
X172809104Y-123503307D01*
X172821600Y-123630179D01*
X172821600Y-124019820D01*
X172821076Y-124025136D01*
X172809104Y-124146694D01*
X172788876Y-124213375D01*
X172759721Y-124309488D01*
X172701874Y-124417711D01*
X172679531Y-124459512D01*
X172571612Y-124591012D01*
X172440112Y-124698931D01*
X172440108Y-124698933D01*
X172440107Y-124698934D01*
X172290087Y-124779121D01*
X172290084Y-124779122D01*
X172127295Y-124828504D01*
X171958000Y-124845178D01*
X171788706Y-124828504D01*
X171625917Y-124779122D01*
X171625914Y-124779121D01*
X171475894Y-124698934D01*
X171475893Y-124698933D01*
X171475889Y-124698931D01*
X171344388Y-124591012D01*
X171236469Y-124459512D01*
X171156280Y-124309488D01*
X171156279Y-124309487D01*
X171143723Y-124268095D01*
X171106896Y-124146695D01*
X171098538Y-124061837D01*
X171094400Y-124019821D01*
X171094400Y-123630180D01*
X171106896Y-123503308D01*
X171106896Y-123503306D01*
X171155156Y-123344215D01*
X171156279Y-123340513D01*
X171236466Y-123190493D01*
X171236470Y-123190488D01*
X171344388Y-123058988D01*
X171475888Y-122951069D01*
X171475892Y-122951067D01*
X171475893Y-122951066D01*
X171625913Y-122870879D01*
X171653571Y-122862489D01*
X171788705Y-122821496D01*
X171958000Y-122804822D01*
X172127294Y-122821496D01*
G37*
G36*
X169587294Y-122821496D02*
G01*
X169707726Y-122858029D01*
X169750087Y-122870879D01*
X169900107Y-122951066D01*
X169900110Y-122951068D01*
X169900111Y-122951069D01*
X170031612Y-123058988D01*
X170139531Y-123190488D01*
X170139533Y-123190492D01*
X170139534Y-123190493D01*
X170219721Y-123340513D01*
X170219722Y-123340516D01*
X170269104Y-123503305D01*
X170269104Y-123503307D01*
X170281600Y-123630179D01*
X170281600Y-124019820D01*
X170281076Y-124025136D01*
X170269104Y-124146694D01*
X170248876Y-124213375D01*
X170219721Y-124309488D01*
X170161874Y-124417711D01*
X170139531Y-124459512D01*
X170031612Y-124591012D01*
X169900112Y-124698931D01*
X169900108Y-124698933D01*
X169900107Y-124698934D01*
X169750087Y-124779121D01*
X169750084Y-124779122D01*
X169587295Y-124828504D01*
X169418000Y-124845178D01*
X169248706Y-124828504D01*
X169085917Y-124779122D01*
X169085914Y-124779121D01*
X168935894Y-124698934D01*
X168935893Y-124698933D01*
X168935889Y-124698931D01*
X168804388Y-124591012D01*
X168696469Y-124459512D01*
X168616280Y-124309488D01*
X168616279Y-124309487D01*
X168603723Y-124268095D01*
X168566896Y-124146695D01*
X168558538Y-124061837D01*
X168554400Y-124019821D01*
X168554400Y-123630180D01*
X168566896Y-123503308D01*
X168566896Y-123503306D01*
X168615156Y-123344215D01*
X168616279Y-123340513D01*
X168696466Y-123190493D01*
X168696470Y-123190488D01*
X168804388Y-123058988D01*
X168935888Y-122951069D01*
X168935892Y-122951067D01*
X168935893Y-122951066D01*
X169085913Y-122870879D01*
X169113571Y-122862489D01*
X169248705Y-122821496D01*
X169418000Y-122804822D01*
X169587294Y-122821496D01*
G37*
G36*
X167047294Y-122821496D02*
G01*
X167167726Y-122858029D01*
X167210087Y-122870879D01*
X167360107Y-122951066D01*
X167360110Y-122951068D01*
X167360111Y-122951069D01*
X167491612Y-123058988D01*
X167599531Y-123190488D01*
X167599533Y-123190492D01*
X167599534Y-123190493D01*
X167679721Y-123340513D01*
X167679722Y-123340516D01*
X167729104Y-123503305D01*
X167729104Y-123503307D01*
X167741600Y-123630179D01*
X167741600Y-124019820D01*
X167741076Y-124025136D01*
X167729104Y-124146694D01*
X167708876Y-124213375D01*
X167679721Y-124309488D01*
X167621874Y-124417711D01*
X167599531Y-124459512D01*
X167491612Y-124591012D01*
X167360112Y-124698931D01*
X167360108Y-124698933D01*
X167360107Y-124698934D01*
X167210087Y-124779121D01*
X167210084Y-124779122D01*
X167047295Y-124828504D01*
X166878000Y-124845178D01*
X166708706Y-124828504D01*
X166545917Y-124779122D01*
X166545914Y-124779121D01*
X166395894Y-124698934D01*
X166395893Y-124698933D01*
X166395889Y-124698931D01*
X166264388Y-124591012D01*
X166156469Y-124459512D01*
X166076280Y-124309488D01*
X166076279Y-124309487D01*
X166063723Y-124268095D01*
X166026896Y-124146695D01*
X166018538Y-124061837D01*
X166014400Y-124019821D01*
X166014400Y-123630180D01*
X166026896Y-123503308D01*
X166026896Y-123503306D01*
X166075156Y-123344215D01*
X166076279Y-123340513D01*
X166156466Y-123190493D01*
X166156470Y-123190488D01*
X166264388Y-123058988D01*
X166395888Y-122951069D01*
X166395892Y-122951067D01*
X166395893Y-122951066D01*
X166545913Y-122870879D01*
X166573571Y-122862489D01*
X166708705Y-122821496D01*
X166878000Y-122804822D01*
X167047294Y-122821496D01*
G37*
G36*
X164507294Y-122821496D02*
G01*
X164627726Y-122858029D01*
X164670087Y-122870879D01*
X164820107Y-122951066D01*
X164820110Y-122951068D01*
X164820111Y-122951069D01*
X164951612Y-123058988D01*
X165059531Y-123190488D01*
X165059533Y-123190492D01*
X165059534Y-123190493D01*
X165139721Y-123340513D01*
X165139722Y-123340516D01*
X165189104Y-123503305D01*
X165189104Y-123503307D01*
X165201600Y-123630179D01*
X165201600Y-124019820D01*
X165201076Y-124025136D01*
X165189104Y-124146694D01*
X165168876Y-124213375D01*
X165139721Y-124309488D01*
X165081874Y-124417711D01*
X165059531Y-124459512D01*
X164951612Y-124591012D01*
X164820112Y-124698931D01*
X164820108Y-124698933D01*
X164820107Y-124698934D01*
X164670087Y-124779121D01*
X164670084Y-124779122D01*
X164507295Y-124828504D01*
X164338000Y-124845178D01*
X164168706Y-124828504D01*
X164005917Y-124779122D01*
X164005914Y-124779121D01*
X163855894Y-124698934D01*
X163855893Y-124698933D01*
X163855889Y-124698931D01*
X163724388Y-124591012D01*
X163616469Y-124459512D01*
X163536280Y-124309488D01*
X163536279Y-124309487D01*
X163523723Y-124268095D01*
X163486896Y-124146695D01*
X163478538Y-124061837D01*
X163474400Y-124019821D01*
X163474400Y-123630180D01*
X163486896Y-123503308D01*
X163486896Y-123503306D01*
X163535156Y-123344215D01*
X163536279Y-123340513D01*
X163616466Y-123190493D01*
X163616470Y-123190488D01*
X163724388Y-123058988D01*
X163855888Y-122951069D01*
X163855892Y-122951067D01*
X163855893Y-122951066D01*
X164005913Y-122870879D01*
X164033571Y-122862489D01*
X164168705Y-122821496D01*
X164338000Y-122804822D01*
X164507294Y-122821496D01*
G37*
G36*
X161967294Y-122821496D02*
G01*
X162087726Y-122858029D01*
X162130087Y-122870879D01*
X162280107Y-122951066D01*
X162280110Y-122951068D01*
X162280111Y-122951069D01*
X162411612Y-123058988D01*
X162519531Y-123190488D01*
X162519533Y-123190492D01*
X162519534Y-123190493D01*
X162599721Y-123340513D01*
X162599722Y-123340516D01*
X162649104Y-123503305D01*
X162649104Y-123503307D01*
X162661600Y-123630179D01*
X162661600Y-124019820D01*
X162661076Y-124025136D01*
X162649104Y-124146694D01*
X162628876Y-124213375D01*
X162599721Y-124309488D01*
X162541874Y-124417711D01*
X162519531Y-124459512D01*
X162411612Y-124591012D01*
X162280112Y-124698931D01*
X162280108Y-124698933D01*
X162280107Y-124698934D01*
X162130087Y-124779121D01*
X162130084Y-124779122D01*
X161967295Y-124828504D01*
X161798000Y-124845178D01*
X161628706Y-124828504D01*
X161465917Y-124779122D01*
X161465914Y-124779121D01*
X161315894Y-124698934D01*
X161315893Y-124698933D01*
X161315889Y-124698931D01*
X161184388Y-124591012D01*
X161076469Y-124459512D01*
X160996280Y-124309488D01*
X160996279Y-124309487D01*
X160983723Y-124268095D01*
X160946896Y-124146695D01*
X160938538Y-124061837D01*
X160934400Y-124019821D01*
X160934400Y-123630180D01*
X160946896Y-123503308D01*
X160946896Y-123503306D01*
X160995156Y-123344215D01*
X160996279Y-123340513D01*
X161076466Y-123190493D01*
X161076470Y-123190488D01*
X161184388Y-123058988D01*
X161315888Y-122951069D01*
X161315892Y-122951067D01*
X161315893Y-122951066D01*
X161465913Y-122870879D01*
X161493571Y-122862489D01*
X161628705Y-122821496D01*
X161798000Y-122804822D01*
X161967294Y-122821496D01*
G37*
G36*
X154347294Y-122821496D02*
G01*
X154467726Y-122858029D01*
X154510087Y-122870879D01*
X154660107Y-122951066D01*
X154660110Y-122951068D01*
X154660111Y-122951069D01*
X154791612Y-123058988D01*
X154899531Y-123190488D01*
X154899533Y-123190492D01*
X154899534Y-123190493D01*
X154979721Y-123340513D01*
X154979722Y-123340516D01*
X155029104Y-123503305D01*
X155029104Y-123503307D01*
X155041600Y-123630179D01*
X155041600Y-124019820D01*
X155041076Y-124025136D01*
X155029104Y-124146694D01*
X155008876Y-124213375D01*
X154979721Y-124309488D01*
X154921874Y-124417711D01*
X154899531Y-124459512D01*
X154791612Y-124591012D01*
X154660112Y-124698931D01*
X154660108Y-124698933D01*
X154660107Y-124698934D01*
X154510087Y-124779121D01*
X154510084Y-124779122D01*
X154347295Y-124828504D01*
X154178000Y-124845178D01*
X154008706Y-124828504D01*
X153845917Y-124779122D01*
X153845914Y-124779121D01*
X153695894Y-124698934D01*
X153695893Y-124698933D01*
X153695889Y-124698931D01*
X153564388Y-124591012D01*
X153456469Y-124459512D01*
X153376280Y-124309488D01*
X153376279Y-124309487D01*
X153363723Y-124268095D01*
X153326896Y-124146695D01*
X153318538Y-124061837D01*
X153314400Y-124019821D01*
X153314400Y-123630180D01*
X153326896Y-123503308D01*
X153326896Y-123503306D01*
X153375156Y-123344215D01*
X153376279Y-123340513D01*
X153456466Y-123190493D01*
X153456470Y-123190488D01*
X153564388Y-123058988D01*
X153695888Y-122951069D01*
X153695892Y-122951067D01*
X153695893Y-122951066D01*
X153845913Y-122870879D01*
X153873571Y-122862489D01*
X154008705Y-122821496D01*
X154178000Y-122804822D01*
X154347294Y-122821496D01*
G37*
G36*
X156887294Y-122821496D02*
G01*
X157007726Y-122858029D01*
X157050087Y-122870879D01*
X157200107Y-122951066D01*
X157200110Y-122951068D01*
X157200111Y-122951069D01*
X157331612Y-123058988D01*
X157439531Y-123190488D01*
X157439533Y-123190492D01*
X157439534Y-123190493D01*
X157519721Y-123340513D01*
X157519722Y-123340516D01*
X157569104Y-123503305D01*
X157569104Y-123503307D01*
X157581600Y-123630179D01*
X157581600Y-124019820D01*
X157581076Y-124025136D01*
X157569104Y-124146694D01*
X157548876Y-124213375D01*
X157519721Y-124309488D01*
X157461874Y-124417711D01*
X157439531Y-124459512D01*
X157331612Y-124591012D01*
X157200112Y-124698931D01*
X157200108Y-124698933D01*
X157200107Y-124698934D01*
X157050087Y-124779121D01*
X157050084Y-124779122D01*
X156887295Y-124828504D01*
X156718000Y-124845178D01*
X156548706Y-124828504D01*
X156385917Y-124779122D01*
X156385914Y-124779121D01*
X156235894Y-124698934D01*
X156235893Y-124698933D01*
X156235889Y-124698931D01*
X156104388Y-124591012D01*
X155996469Y-124459512D01*
X155916280Y-124309488D01*
X155916279Y-124309487D01*
X155903723Y-124268095D01*
X155866896Y-124146695D01*
X155858538Y-124061837D01*
X155854400Y-124019821D01*
X155854400Y-123630180D01*
X155866896Y-123503308D01*
X155866896Y-123503306D01*
X155915156Y-123344215D01*
X155916279Y-123340513D01*
X155996466Y-123190493D01*
X155996470Y-123190488D01*
X156104388Y-123058988D01*
X156235888Y-122951069D01*
X156235892Y-122951067D01*
X156235893Y-122951066D01*
X156385913Y-122870879D01*
X156413571Y-122862489D01*
X156548705Y-122821496D01*
X156718000Y-122804822D01*
X156887294Y-122821496D01*
G37*
G36*
X141647294Y-122821496D02*
G01*
X141767726Y-122858029D01*
X141810087Y-122870879D01*
X141960107Y-122951066D01*
X141960110Y-122951068D01*
X141960111Y-122951069D01*
X142091612Y-123058988D01*
X142199531Y-123190488D01*
X142199533Y-123190492D01*
X142199534Y-123190493D01*
X142279721Y-123340513D01*
X142279722Y-123340516D01*
X142329104Y-123503305D01*
X142329104Y-123503307D01*
X142341600Y-123630179D01*
X142341600Y-124019820D01*
X142341076Y-124025136D01*
X142329104Y-124146694D01*
X142308876Y-124213375D01*
X142279721Y-124309488D01*
X142221874Y-124417711D01*
X142199531Y-124459512D01*
X142091612Y-124591012D01*
X141960112Y-124698931D01*
X141960108Y-124698933D01*
X141960107Y-124698934D01*
X141810087Y-124779121D01*
X141810084Y-124779122D01*
X141647295Y-124828504D01*
X141478000Y-124845178D01*
X141308706Y-124828504D01*
X141145917Y-124779122D01*
X141145914Y-124779121D01*
X140995894Y-124698934D01*
X140995893Y-124698933D01*
X140995889Y-124698931D01*
X140864388Y-124591012D01*
X140756469Y-124459512D01*
X140676280Y-124309488D01*
X140676279Y-124309487D01*
X140663723Y-124268095D01*
X140626896Y-124146695D01*
X140618538Y-124061837D01*
X140614400Y-124019821D01*
X140614400Y-123630180D01*
X140626896Y-123503308D01*
X140626896Y-123503306D01*
X140675156Y-123344215D01*
X140676279Y-123340513D01*
X140756466Y-123190493D01*
X140756470Y-123190488D01*
X140864388Y-123058988D01*
X140995888Y-122951069D01*
X140995892Y-122951067D01*
X140995893Y-122951066D01*
X141145913Y-122870879D01*
X141173571Y-122862489D01*
X141308705Y-122821496D01*
X141478000Y-122804822D01*
X141647294Y-122821496D01*
G37*
G36*
X144187294Y-122821496D02*
G01*
X144307726Y-122858029D01*
X144350087Y-122870879D01*
X144500107Y-122951066D01*
X144500110Y-122951068D01*
X144500111Y-122951069D01*
X144631612Y-123058988D01*
X144739531Y-123190488D01*
X144739533Y-123190492D01*
X144739534Y-123190493D01*
X144819721Y-123340513D01*
X144819722Y-123340516D01*
X144869104Y-123503305D01*
X144869104Y-123503307D01*
X144881600Y-123630179D01*
X144881600Y-124019820D01*
X144881076Y-124025136D01*
X144869104Y-124146694D01*
X144848876Y-124213375D01*
X144819721Y-124309488D01*
X144761874Y-124417711D01*
X144739531Y-124459512D01*
X144631612Y-124591012D01*
X144500112Y-124698931D01*
X144500108Y-124698933D01*
X144500107Y-124698934D01*
X144350087Y-124779121D01*
X144350084Y-124779122D01*
X144187295Y-124828504D01*
X144018000Y-124845178D01*
X143848706Y-124828504D01*
X143685917Y-124779122D01*
X143685914Y-124779121D01*
X143535894Y-124698934D01*
X143535893Y-124698933D01*
X143535889Y-124698931D01*
X143404388Y-124591012D01*
X143296469Y-124459512D01*
X143216280Y-124309488D01*
X143216279Y-124309487D01*
X143203723Y-124268095D01*
X143166896Y-124146695D01*
X143158538Y-124061837D01*
X143154400Y-124019821D01*
X143154400Y-123630180D01*
X143166896Y-123503308D01*
X143166896Y-123503306D01*
X143215156Y-123344215D01*
X143216279Y-123340513D01*
X143296466Y-123190493D01*
X143296470Y-123190488D01*
X143404388Y-123058988D01*
X143535888Y-122951069D01*
X143535892Y-122951067D01*
X143535893Y-122951066D01*
X143685913Y-122870879D01*
X143713571Y-122862489D01*
X143848705Y-122821496D01*
X144018000Y-122804822D01*
X144187294Y-122821496D01*
G37*
G36*
X149267294Y-122821496D02*
G01*
X149387726Y-122858029D01*
X149430087Y-122870879D01*
X149580107Y-122951066D01*
X149580110Y-122951068D01*
X149580111Y-122951069D01*
X149711612Y-123058988D01*
X149819531Y-123190488D01*
X149819533Y-123190492D01*
X149819534Y-123190493D01*
X149899721Y-123340513D01*
X149899722Y-123340516D01*
X149949104Y-123503305D01*
X149949104Y-123503307D01*
X149961600Y-123630179D01*
X149961600Y-124019820D01*
X149961076Y-124025136D01*
X149949104Y-124146694D01*
X149928876Y-124213375D01*
X149899721Y-124309488D01*
X149841874Y-124417711D01*
X149819531Y-124459512D01*
X149711612Y-124591012D01*
X149580112Y-124698931D01*
X149580108Y-124698933D01*
X149580107Y-124698934D01*
X149430087Y-124779121D01*
X149430084Y-124779122D01*
X149267295Y-124828504D01*
X149098000Y-124845178D01*
X148928706Y-124828504D01*
X148765917Y-124779122D01*
X148765914Y-124779121D01*
X148615894Y-124698934D01*
X148615893Y-124698933D01*
X148615889Y-124698931D01*
X148484388Y-124591012D01*
X148376469Y-124459512D01*
X148296280Y-124309488D01*
X148296279Y-124309487D01*
X148283723Y-124268095D01*
X148246896Y-124146695D01*
X148238538Y-124061837D01*
X148234400Y-124019821D01*
X148234400Y-123630180D01*
X148246896Y-123503308D01*
X148246896Y-123503306D01*
X148295156Y-123344215D01*
X148296279Y-123340513D01*
X148376466Y-123190493D01*
X148376470Y-123190488D01*
X148484388Y-123058988D01*
X148615888Y-122951069D01*
X148615892Y-122951067D01*
X148615893Y-122951066D01*
X148765913Y-122870879D01*
X148793571Y-122862489D01*
X148928705Y-122821496D01*
X149098000Y-122804822D01*
X149267294Y-122821496D01*
G37*
G36*
X146727294Y-122821496D02*
G01*
X146847726Y-122858029D01*
X146890087Y-122870879D01*
X147040107Y-122951066D01*
X147040110Y-122951068D01*
X147040111Y-122951069D01*
X147171612Y-123058988D01*
X147279531Y-123190488D01*
X147279533Y-123190492D01*
X147279534Y-123190493D01*
X147359721Y-123340513D01*
X147359722Y-123340516D01*
X147409104Y-123503305D01*
X147409104Y-123503307D01*
X147421600Y-123630179D01*
X147421600Y-124019820D01*
X147421076Y-124025136D01*
X147409104Y-124146694D01*
X147388876Y-124213375D01*
X147359721Y-124309488D01*
X147301874Y-124417711D01*
X147279531Y-124459512D01*
X147171612Y-124591012D01*
X147040112Y-124698931D01*
X147040108Y-124698933D01*
X147040107Y-124698934D01*
X146890087Y-124779121D01*
X146890084Y-124779122D01*
X146727295Y-124828504D01*
X146558000Y-124845178D01*
X146388706Y-124828504D01*
X146225917Y-124779122D01*
X146225914Y-124779121D01*
X146075894Y-124698934D01*
X146075893Y-124698933D01*
X146075889Y-124698931D01*
X145944388Y-124591012D01*
X145836469Y-124459512D01*
X145756280Y-124309488D01*
X145756279Y-124309487D01*
X145743723Y-124268095D01*
X145706896Y-124146695D01*
X145698538Y-124061837D01*
X145694400Y-124019821D01*
X145694400Y-123630180D01*
X145706896Y-123503308D01*
X145706896Y-123503306D01*
X145755156Y-123344215D01*
X145756279Y-123340513D01*
X145836466Y-123190493D01*
X145836470Y-123190488D01*
X145944388Y-123058988D01*
X146075888Y-122951069D01*
X146075892Y-122951067D01*
X146075893Y-122951066D01*
X146225913Y-122870879D01*
X146253571Y-122862489D01*
X146388705Y-122821496D01*
X146558000Y-122804822D01*
X146727294Y-122821496D01*
G37*
G36*
X151807294Y-122821496D02*
G01*
X151927726Y-122858029D01*
X151970087Y-122870879D01*
X152120107Y-122951066D01*
X152120110Y-122951068D01*
X152120111Y-122951069D01*
X152251612Y-123058988D01*
X152359531Y-123190488D01*
X152359533Y-123190492D01*
X152359534Y-123190493D01*
X152439721Y-123340513D01*
X152439722Y-123340516D01*
X152489104Y-123503305D01*
X152489104Y-123503307D01*
X152501600Y-123630179D01*
X152501600Y-124019820D01*
X152501076Y-124025136D01*
X152489104Y-124146694D01*
X152468876Y-124213375D01*
X152439721Y-124309488D01*
X152381874Y-124417711D01*
X152359531Y-124459512D01*
X152251612Y-124591012D01*
X152120112Y-124698931D01*
X152120108Y-124698933D01*
X152120107Y-124698934D01*
X151970087Y-124779121D01*
X151970084Y-124779122D01*
X151807295Y-124828504D01*
X151638000Y-124845178D01*
X151468706Y-124828504D01*
X151305917Y-124779122D01*
X151305914Y-124779121D01*
X151155894Y-124698934D01*
X151155893Y-124698933D01*
X151155889Y-124698931D01*
X151024388Y-124591012D01*
X150916469Y-124459512D01*
X150836280Y-124309488D01*
X150836279Y-124309487D01*
X150823723Y-124268095D01*
X150786896Y-124146695D01*
X150778538Y-124061837D01*
X150774400Y-124019821D01*
X150774400Y-123630180D01*
X150786896Y-123503308D01*
X150786896Y-123503306D01*
X150835156Y-123344215D01*
X150836279Y-123340513D01*
X150916466Y-123190493D01*
X150916470Y-123190488D01*
X151024388Y-123058988D01*
X151155888Y-122951069D01*
X151155892Y-122951067D01*
X151155893Y-122951066D01*
X151305913Y-122870879D01*
X151333571Y-122862489D01*
X151468705Y-122821496D01*
X151638000Y-122804822D01*
X151807294Y-122821496D01*
G37*
G36*
X113683843Y-123344214D02*
G01*
X113683846Y-123344215D01*
X113683845Y-123344215D01*
X113774839Y-123381906D01*
X113816063Y-123409451D01*
X113856730Y-123436624D01*
X113926376Y-123506270D01*
X113981095Y-123588163D01*
X114018786Y-123679157D01*
X114038000Y-123775753D01*
X114038000Y-123874247D01*
X114018786Y-123970843D01*
X113996297Y-124025135D01*
X113981094Y-124061839D01*
X113926375Y-124143731D01*
X113856731Y-124213375D01*
X113774839Y-124268094D01*
X113774838Y-124268095D01*
X113774837Y-124268095D01*
X113683843Y-124305786D01*
X113587247Y-124325000D01*
X113488753Y-124325000D01*
X113392157Y-124305786D01*
X113301163Y-124268095D01*
X113301162Y-124268095D01*
X113301161Y-124268094D01*
X113219269Y-124213375D01*
X113149625Y-124143731D01*
X113094906Y-124061839D01*
X113079703Y-124025135D01*
X113057214Y-123970843D01*
X113038000Y-123874247D01*
X113038000Y-123775753D01*
X113057214Y-123679157D01*
X113094905Y-123588163D01*
X113149624Y-123506270D01*
X113219270Y-123436624D01*
X113259937Y-123409451D01*
X113301161Y-123381906D01*
X113392155Y-123344215D01*
X113392154Y-123344215D01*
X113392157Y-123344214D01*
X113488753Y-123325000D01*
X113587247Y-123325000D01*
X113683843Y-123344214D01*
G37*
G36*
X138017116Y-120368595D02*
G01*
X138046311Y-120377452D01*
X138073223Y-120391837D01*
X138096808Y-120411192D01*
X138116163Y-120434777D01*
X138130548Y-120461689D01*
X138139405Y-120490884D01*
X138143000Y-120527390D01*
X138143000Y-121077610D01*
X138139405Y-121114116D01*
X138130548Y-121143311D01*
X138116163Y-121170223D01*
X138096808Y-121193808D01*
X138073223Y-121213163D01*
X138046311Y-121227548D01*
X138017116Y-121236405D01*
X137980610Y-121240000D01*
X137355390Y-121240000D01*
X137318884Y-121236405D01*
X137289689Y-121227548D01*
X137262777Y-121213163D01*
X137239192Y-121193808D01*
X137219837Y-121170223D01*
X137205452Y-121143311D01*
X137196595Y-121114116D01*
X137193000Y-121077610D01*
X137193000Y-120527390D01*
X137196595Y-120490884D01*
X137205452Y-120461689D01*
X137219837Y-120434777D01*
X137239192Y-120411192D01*
X137262777Y-120391837D01*
X137289689Y-120377452D01*
X137318884Y-120368595D01*
X137355390Y-120365000D01*
X137980610Y-120365000D01*
X138017116Y-120368595D01*
G37*
G36*
X177630711Y-116791088D02*
G01*
X178000511Y-116944264D01*
X178000513Y-116944265D01*
X178168047Y-117056208D01*
X178333324Y-117166642D01*
X178616358Y-117449676D01*
X178838736Y-117782489D01*
X178991912Y-118152289D01*
X179070000Y-118544864D01*
X179070000Y-118945136D01*
X178991912Y-119337711D01*
X178838736Y-119707511D01*
X178616358Y-120040324D01*
X178333324Y-120323358D01*
X178215828Y-120401866D01*
X178000513Y-120545735D01*
X178000512Y-120545736D01*
X178000511Y-120545736D01*
X177630711Y-120698912D01*
X177238136Y-120777000D01*
X176837864Y-120777000D01*
X176445289Y-120698912D01*
X176075489Y-120545736D01*
X176075488Y-120545736D01*
X176075487Y-120545735D01*
X175860172Y-120401866D01*
X175742676Y-120323358D01*
X175459642Y-120040324D01*
X175237264Y-119707511D01*
X175084088Y-119337711D01*
X175006000Y-118945136D01*
X175006000Y-118544864D01*
X175084088Y-118152289D01*
X175237264Y-117782489D01*
X175459642Y-117449676D01*
X175742676Y-117166642D01*
X175907953Y-117056208D01*
X176075487Y-116944265D01*
X176075489Y-116944264D01*
X176445289Y-116791088D01*
X176837864Y-116713000D01*
X177238136Y-116713000D01*
X177630711Y-116791088D01*
G37*
G36*
X170833843Y-119534214D02*
G01*
X170916160Y-119568311D01*
X170924839Y-119571906D01*
X170959735Y-119595223D01*
X171006730Y-119626624D01*
X171076376Y-119696270D01*
X171131095Y-119778163D01*
X171168786Y-119869157D01*
X171188000Y-119965753D01*
X171188000Y-120064247D01*
X171168786Y-120160843D01*
X171168785Y-120160845D01*
X171131094Y-120251839D01*
X171076375Y-120333731D01*
X171006731Y-120403375D01*
X170924839Y-120458094D01*
X170924838Y-120458095D01*
X170924837Y-120458095D01*
X170833843Y-120495786D01*
X170737247Y-120515000D01*
X170638753Y-120515000D01*
X170542157Y-120495786D01*
X170451163Y-120458095D01*
X170451162Y-120458095D01*
X170451161Y-120458094D01*
X170369269Y-120403375D01*
X170299625Y-120333731D01*
X170244906Y-120251839D01*
X170207215Y-120160845D01*
X170207214Y-120160843D01*
X170188000Y-120064247D01*
X170188000Y-119965753D01*
X170207214Y-119869157D01*
X170244905Y-119778163D01*
X170299624Y-119696270D01*
X170369270Y-119626624D01*
X170416265Y-119595223D01*
X170451161Y-119571906D01*
X170459840Y-119568311D01*
X170542157Y-119534214D01*
X170638753Y-119515000D01*
X170737247Y-119515000D01*
X170833843Y-119534214D01*
G37*
G36*
X138017116Y-118793595D02*
G01*
X138046311Y-118802452D01*
X138073223Y-118816837D01*
X138096808Y-118836192D01*
X138116163Y-118859777D01*
X138130548Y-118886689D01*
X138139405Y-118915884D01*
X138143000Y-118952390D01*
X138143000Y-119502610D01*
X138139405Y-119539116D01*
X138130548Y-119568311D01*
X138116163Y-119595223D01*
X138096808Y-119618808D01*
X138073223Y-119638163D01*
X138046311Y-119652548D01*
X138017116Y-119661405D01*
X137980610Y-119665000D01*
X137355390Y-119665000D01*
X137318884Y-119661405D01*
X137289689Y-119652548D01*
X137262777Y-119638163D01*
X137239192Y-119618808D01*
X137219837Y-119595223D01*
X137205452Y-119568311D01*
X137196595Y-119539116D01*
X137193000Y-119502610D01*
X137193000Y-118952390D01*
X137196595Y-118915884D01*
X137205452Y-118886689D01*
X137219837Y-118859777D01*
X137239192Y-118836192D01*
X137262777Y-118816837D01*
X137289689Y-118802452D01*
X137318884Y-118793595D01*
X137355390Y-118790000D01*
X137980610Y-118790000D01*
X138017116Y-118793595D01*
G37*
G36*
X135528000Y-118925000D02*
G01*
X134728000Y-118925000D01*
X134728000Y-118025000D01*
X135528000Y-118025000D01*
X135528000Y-118925000D01*
G37*
G36*
X138017116Y-116558595D02*
G01*
X138046311Y-116567452D01*
X138073223Y-116581837D01*
X138096808Y-116601192D01*
X138116163Y-116624777D01*
X138130548Y-116651689D01*
X138139405Y-116680884D01*
X138143000Y-116717390D01*
X138143000Y-117267610D01*
X138139405Y-117304116D01*
X138130548Y-117333311D01*
X138116163Y-117360223D01*
X138096808Y-117383808D01*
X138073223Y-117403163D01*
X138046311Y-117417548D01*
X138017116Y-117426405D01*
X137980610Y-117430000D01*
X137355390Y-117430000D01*
X137318884Y-117426405D01*
X137289689Y-117417548D01*
X137262777Y-117403163D01*
X137239192Y-117383808D01*
X137219837Y-117360223D01*
X137205452Y-117333311D01*
X137196595Y-117304116D01*
X137193000Y-117267610D01*
X137193000Y-116717390D01*
X137196595Y-116680884D01*
X137205452Y-116651689D01*
X137219837Y-116624777D01*
X137239192Y-116601192D01*
X137262777Y-116581837D01*
X137289689Y-116567452D01*
X137318884Y-116558595D01*
X137355390Y-116555000D01*
X137980610Y-116555000D01*
X138017116Y-116558595D01*
G37*
G36*
X136478000Y-116925000D02*
G01*
X135678000Y-116925000D01*
X135678000Y-116025000D01*
X136478000Y-116025000D01*
X136478000Y-116925000D01*
G37*
G36*
X134578000Y-116925000D02*
G01*
X133778000Y-116925000D01*
X133778000Y-116025000D01*
X134578000Y-116025000D01*
X134578000Y-116925000D01*
G37*
G36*
X129178000Y-116385000D02*
G01*
X128378000Y-116385000D01*
X128378000Y-115485000D01*
X129178000Y-115485000D01*
X129178000Y-116385000D01*
G37*
G36*
X138017116Y-114983595D02*
G01*
X138046311Y-114992452D01*
X138073223Y-115006837D01*
X138096808Y-115026192D01*
X138116163Y-115049777D01*
X138130548Y-115076689D01*
X138139405Y-115105884D01*
X138143000Y-115142390D01*
X138143000Y-115692610D01*
X138139405Y-115729116D01*
X138130548Y-115758311D01*
X138116163Y-115785223D01*
X138096808Y-115808808D01*
X138073223Y-115828163D01*
X138046311Y-115842548D01*
X138017116Y-115851405D01*
X137980610Y-115855000D01*
X137355390Y-115855000D01*
X137318884Y-115851405D01*
X137289689Y-115842548D01*
X137262777Y-115828163D01*
X137239192Y-115808808D01*
X137219837Y-115785223D01*
X137205452Y-115758311D01*
X137196595Y-115729116D01*
X137193000Y-115692610D01*
X137193000Y-115142390D01*
X137196595Y-115105884D01*
X137205452Y-115076689D01*
X137219837Y-115049777D01*
X137239192Y-115026192D01*
X137262777Y-115006837D01*
X137289689Y-114992452D01*
X137318884Y-114983595D01*
X137355390Y-114980000D01*
X137980610Y-114980000D01*
X138017116Y-114983595D01*
G37*
G36*
X131667116Y-114018595D02*
G01*
X131696311Y-114027452D01*
X131723223Y-114041837D01*
X131746808Y-114061192D01*
X131766163Y-114084777D01*
X131780548Y-114111689D01*
X131789405Y-114140884D01*
X131793000Y-114177390D01*
X131793000Y-114727610D01*
X131789405Y-114764116D01*
X131780548Y-114793311D01*
X131766163Y-114820223D01*
X131746808Y-114843808D01*
X131723223Y-114863163D01*
X131696311Y-114877548D01*
X131667116Y-114886405D01*
X131630610Y-114890000D01*
X131005390Y-114890000D01*
X130968884Y-114886405D01*
X130939689Y-114877548D01*
X130912777Y-114863163D01*
X130889192Y-114843808D01*
X130869837Y-114820223D01*
X130855452Y-114793311D01*
X130846595Y-114764116D01*
X130843000Y-114727610D01*
X130843000Y-114177390D01*
X130846595Y-114140884D01*
X130855452Y-114111689D01*
X130869837Y-114084777D01*
X130889192Y-114061192D01*
X130912777Y-114041837D01*
X130939689Y-114027452D01*
X130968884Y-114018595D01*
X131005390Y-114015000D01*
X131630610Y-114015000D01*
X131667116Y-114018595D01*
G37*
G36*
X171037116Y-114018595D02*
G01*
X171066311Y-114027452D01*
X171093223Y-114041837D01*
X171116808Y-114061192D01*
X171136163Y-114084777D01*
X171150548Y-114111689D01*
X171159405Y-114140884D01*
X171163000Y-114177390D01*
X171163000Y-114727610D01*
X171159405Y-114764116D01*
X171150548Y-114793311D01*
X171136163Y-114820223D01*
X171116808Y-114843808D01*
X171093223Y-114863163D01*
X171066311Y-114877548D01*
X171037116Y-114886405D01*
X171000610Y-114890000D01*
X170375390Y-114890000D01*
X170338884Y-114886405D01*
X170309689Y-114877548D01*
X170282777Y-114863163D01*
X170259192Y-114843808D01*
X170239837Y-114820223D01*
X170225452Y-114793311D01*
X170216595Y-114764116D01*
X170213000Y-114727610D01*
X170213000Y-114177390D01*
X170216595Y-114140884D01*
X170225452Y-114111689D01*
X170239837Y-114084777D01*
X170259192Y-114061192D01*
X170282777Y-114041837D01*
X170309689Y-114027452D01*
X170338884Y-114018595D01*
X170375390Y-114015000D01*
X171000610Y-114015000D01*
X171037116Y-114018595D01*
G37*
G36*
X168497116Y-114018595D02*
G01*
X168526311Y-114027452D01*
X168553223Y-114041837D01*
X168576808Y-114061192D01*
X168596163Y-114084777D01*
X168610548Y-114111689D01*
X168619405Y-114140884D01*
X168623000Y-114177390D01*
X168623000Y-114727610D01*
X168619405Y-114764116D01*
X168610548Y-114793311D01*
X168596163Y-114820223D01*
X168576808Y-114843808D01*
X168553223Y-114863163D01*
X168526311Y-114877548D01*
X168497116Y-114886405D01*
X168460610Y-114890000D01*
X167835390Y-114890000D01*
X167798884Y-114886405D01*
X167769689Y-114877548D01*
X167742777Y-114863163D01*
X167719192Y-114843808D01*
X167699837Y-114820223D01*
X167685452Y-114793311D01*
X167676595Y-114764116D01*
X167673000Y-114727610D01*
X167673000Y-114177390D01*
X167676595Y-114140884D01*
X167685452Y-114111689D01*
X167699837Y-114084777D01*
X167719192Y-114061192D01*
X167742777Y-114041837D01*
X167769689Y-114027452D01*
X167798884Y-114018595D01*
X167835390Y-114015000D01*
X168460610Y-114015000D01*
X168497116Y-114018595D01*
G37*
G36*
X134207116Y-114018595D02*
G01*
X134236311Y-114027452D01*
X134263223Y-114041837D01*
X134286808Y-114061192D01*
X134306163Y-114084777D01*
X134320548Y-114111689D01*
X134329405Y-114140884D01*
X134333000Y-114177390D01*
X134333000Y-114727610D01*
X134329405Y-114764116D01*
X134320548Y-114793311D01*
X134306163Y-114820223D01*
X134286808Y-114843808D01*
X134263223Y-114863163D01*
X134236311Y-114877548D01*
X134207116Y-114886405D01*
X134170610Y-114890000D01*
X133545390Y-114890000D01*
X133508884Y-114886405D01*
X133479689Y-114877548D01*
X133452777Y-114863163D01*
X133429192Y-114843808D01*
X133409837Y-114820223D01*
X133395452Y-114793311D01*
X133386595Y-114764116D01*
X133383000Y-114727610D01*
X133383000Y-114177390D01*
X133386595Y-114140884D01*
X133395452Y-114111689D01*
X133409837Y-114084777D01*
X133429192Y-114061192D01*
X133452777Y-114041837D01*
X133479689Y-114027452D01*
X133508884Y-114018595D01*
X133545390Y-114015000D01*
X134170610Y-114015000D01*
X134207116Y-114018595D01*
G37*
G36*
X173577116Y-114018595D02*
G01*
X173606311Y-114027452D01*
X173633223Y-114041837D01*
X173656808Y-114061192D01*
X173676163Y-114084777D01*
X173690548Y-114111689D01*
X173699405Y-114140884D01*
X173703000Y-114177390D01*
X173703000Y-114727610D01*
X173699405Y-114764116D01*
X173690548Y-114793311D01*
X173676163Y-114820223D01*
X173656808Y-114843808D01*
X173633223Y-114863163D01*
X173606311Y-114877548D01*
X173577116Y-114886405D01*
X173540610Y-114890000D01*
X172915390Y-114890000D01*
X172878884Y-114886405D01*
X172849689Y-114877548D01*
X172822777Y-114863163D01*
X172799192Y-114843808D01*
X172779837Y-114820223D01*
X172765452Y-114793311D01*
X172756595Y-114764116D01*
X172753000Y-114727610D01*
X172753000Y-114177390D01*
X172756595Y-114140884D01*
X172765452Y-114111689D01*
X172779837Y-114084777D01*
X172799192Y-114061192D01*
X172822777Y-114041837D01*
X172849689Y-114027452D01*
X172878884Y-114018595D01*
X172915390Y-114015000D01*
X173540610Y-114015000D01*
X173577116Y-114018595D01*
G37*
G36*
X176117116Y-114018595D02*
G01*
X176146311Y-114027452D01*
X176173223Y-114041837D01*
X176196808Y-114061192D01*
X176216163Y-114084777D01*
X176230548Y-114111689D01*
X176239405Y-114140884D01*
X176243000Y-114177390D01*
X176243000Y-114727610D01*
X176239405Y-114764116D01*
X176230548Y-114793311D01*
X176216163Y-114820223D01*
X176196808Y-114843808D01*
X176173223Y-114863163D01*
X176146311Y-114877548D01*
X176117116Y-114886405D01*
X176080610Y-114890000D01*
X175455390Y-114890000D01*
X175418884Y-114886405D01*
X175389689Y-114877548D01*
X175362777Y-114863163D01*
X175339192Y-114843808D01*
X175319837Y-114820223D01*
X175305452Y-114793311D01*
X175296595Y-114764116D01*
X175293000Y-114727610D01*
X175293000Y-114177390D01*
X175296595Y-114140884D01*
X175305452Y-114111689D01*
X175319837Y-114084777D01*
X175339192Y-114061192D01*
X175362777Y-114041837D01*
X175389689Y-114027452D01*
X175418884Y-114018595D01*
X175455390Y-114015000D01*
X176080610Y-114015000D01*
X176117116Y-114018595D01*
G37*
G36*
X130128000Y-114385000D02*
G01*
X129328000Y-114385000D01*
X129328000Y-113485000D01*
X130128000Y-113485000D01*
X130128000Y-114385000D01*
G37*
G36*
X128228000Y-114385000D02*
G01*
X127428000Y-114385000D01*
X127428000Y-113485000D01*
X128228000Y-113485000D01*
X128228000Y-114385000D01*
G37*
G36*
X137192116Y-113193595D02*
G01*
X137221311Y-113202452D01*
X137248223Y-113216837D01*
X137271808Y-113236192D01*
X137291163Y-113259777D01*
X137305548Y-113286689D01*
X137314405Y-113315884D01*
X137318000Y-113352390D01*
X137318000Y-113977610D01*
X137314405Y-114014116D01*
X137305548Y-114043311D01*
X137291163Y-114070223D01*
X137271808Y-114093808D01*
X137248223Y-114113163D01*
X137221311Y-114127548D01*
X137192116Y-114136405D01*
X137155610Y-114140000D01*
X136605390Y-114140000D01*
X136568884Y-114136405D01*
X136539689Y-114127548D01*
X136512777Y-114113163D01*
X136489192Y-114093808D01*
X136469837Y-114070223D01*
X136455452Y-114043311D01*
X136446595Y-114014116D01*
X136443000Y-113977610D01*
X136443000Y-113352390D01*
X136446595Y-113315884D01*
X136455452Y-113286689D01*
X136469837Y-113259777D01*
X136489192Y-113236192D01*
X136512777Y-113216837D01*
X136539689Y-113202452D01*
X136568884Y-113193595D01*
X136605390Y-113190000D01*
X137155610Y-113190000D01*
X137192116Y-113193595D01*
G37*
G36*
X138767116Y-113193595D02*
G01*
X138796311Y-113202452D01*
X138823223Y-113216837D01*
X138846808Y-113236192D01*
X138866163Y-113259777D01*
X138880548Y-113286689D01*
X138889405Y-113315884D01*
X138893000Y-113352390D01*
X138893000Y-113977610D01*
X138889405Y-114014116D01*
X138880548Y-114043311D01*
X138866163Y-114070223D01*
X138846808Y-114093808D01*
X138823223Y-114113163D01*
X138796311Y-114127548D01*
X138767116Y-114136405D01*
X138730610Y-114140000D01*
X138180390Y-114140000D01*
X138143884Y-114136405D01*
X138114689Y-114127548D01*
X138087777Y-114113163D01*
X138064192Y-114093808D01*
X138044837Y-114070223D01*
X138030452Y-114043311D01*
X138021595Y-114014116D01*
X138018000Y-113977610D01*
X138018000Y-113352390D01*
X138021595Y-113315884D01*
X138030452Y-113286689D01*
X138044837Y-113259777D01*
X138064192Y-113236192D01*
X138087777Y-113216837D01*
X138114689Y-113202452D01*
X138143884Y-113193595D01*
X138180390Y-113190000D01*
X138730610Y-113190000D01*
X138767116Y-113193595D01*
G37*
G36*
X134207116Y-112443595D02*
G01*
X134236311Y-112452452D01*
X134263223Y-112466837D01*
X134286808Y-112486192D01*
X134306163Y-112509777D01*
X134320548Y-112536689D01*
X134329405Y-112565884D01*
X134333000Y-112602390D01*
X134333000Y-113152610D01*
X134329405Y-113189116D01*
X134320548Y-113218311D01*
X134306163Y-113245223D01*
X134286808Y-113268808D01*
X134263223Y-113288163D01*
X134236311Y-113302548D01*
X134207116Y-113311405D01*
X134170610Y-113315000D01*
X133545390Y-113315000D01*
X133508884Y-113311405D01*
X133479689Y-113302548D01*
X133452777Y-113288163D01*
X133429192Y-113268808D01*
X133409837Y-113245223D01*
X133395452Y-113218311D01*
X133386595Y-113189116D01*
X133383000Y-113152610D01*
X133383000Y-112602390D01*
X133386595Y-112565884D01*
X133395452Y-112536689D01*
X133409837Y-112509777D01*
X133429192Y-112486192D01*
X133452777Y-112466837D01*
X133479689Y-112452452D01*
X133508884Y-112443595D01*
X133545390Y-112440000D01*
X134170610Y-112440000D01*
X134207116Y-112443595D01*
G37*
G36*
X131667116Y-112443595D02*
G01*
X131696311Y-112452452D01*
X131723223Y-112466837D01*
X131746808Y-112486192D01*
X131766163Y-112509777D01*
X131780548Y-112536689D01*
X131789405Y-112565884D01*
X131793000Y-112602390D01*
X131793000Y-113152610D01*
X131789405Y-113189116D01*
X131780548Y-113218311D01*
X131766163Y-113245223D01*
X131746808Y-113268808D01*
X131723223Y-113288163D01*
X131696311Y-113302548D01*
X131667116Y-113311405D01*
X131630610Y-113315000D01*
X131005390Y-113315000D01*
X130968884Y-113311405D01*
X130939689Y-113302548D01*
X130912777Y-113288163D01*
X130889192Y-113268808D01*
X130869837Y-113245223D01*
X130855452Y-113218311D01*
X130846595Y-113189116D01*
X130843000Y-113152610D01*
X130843000Y-112602390D01*
X130846595Y-112565884D01*
X130855452Y-112536689D01*
X130869837Y-112509777D01*
X130889192Y-112486192D01*
X130912777Y-112466837D01*
X130939689Y-112452452D01*
X130968884Y-112443595D01*
X131005390Y-112440000D01*
X131630610Y-112440000D01*
X131667116Y-112443595D01*
G37*
G36*
X176117116Y-112443595D02*
G01*
X176146311Y-112452452D01*
X176173223Y-112466837D01*
X176196808Y-112486192D01*
X176216163Y-112509777D01*
X176230548Y-112536689D01*
X176239405Y-112565884D01*
X176243000Y-112602390D01*
X176243000Y-113152610D01*
X176239405Y-113189116D01*
X176230548Y-113218311D01*
X176216163Y-113245223D01*
X176196808Y-113268808D01*
X176173223Y-113288163D01*
X176146311Y-113302548D01*
X176117116Y-113311405D01*
X176080610Y-113315000D01*
X175455390Y-113315000D01*
X175418884Y-113311405D01*
X175389689Y-113302548D01*
X175362777Y-113288163D01*
X175339192Y-113268808D01*
X175319837Y-113245223D01*
X175305452Y-113218311D01*
X175296595Y-113189116D01*
X175293000Y-113152610D01*
X175293000Y-112602390D01*
X175296595Y-112565884D01*
X175305452Y-112536689D01*
X175319837Y-112509777D01*
X175339192Y-112486192D01*
X175362777Y-112466837D01*
X175389689Y-112452452D01*
X175418884Y-112443595D01*
X175455390Y-112440000D01*
X176080610Y-112440000D01*
X176117116Y-112443595D01*
G37*
G36*
X171037116Y-112443595D02*
G01*
X171066311Y-112452452D01*
X171093223Y-112466837D01*
X171116808Y-112486192D01*
X171136163Y-112509777D01*
X171150548Y-112536689D01*
X171159405Y-112565884D01*
X171163000Y-112602390D01*
X171163000Y-113152610D01*
X171159405Y-113189116D01*
X171150548Y-113218311D01*
X171136163Y-113245223D01*
X171116808Y-113268808D01*
X171093223Y-113288163D01*
X171066311Y-113302548D01*
X171037116Y-113311405D01*
X171000610Y-113315000D01*
X170375390Y-113315000D01*
X170338884Y-113311405D01*
X170309689Y-113302548D01*
X170282777Y-113288163D01*
X170259192Y-113268808D01*
X170239837Y-113245223D01*
X170225452Y-113218311D01*
X170216595Y-113189116D01*
X170213000Y-113152610D01*
X170213000Y-112602390D01*
X170216595Y-112565884D01*
X170225452Y-112536689D01*
X170239837Y-112509777D01*
X170259192Y-112486192D01*
X170282777Y-112466837D01*
X170309689Y-112452452D01*
X170338884Y-112443595D01*
X170375390Y-112440000D01*
X171000610Y-112440000D01*
X171037116Y-112443595D01*
G37*
G36*
X173577116Y-112443595D02*
G01*
X173606311Y-112452452D01*
X173633223Y-112466837D01*
X173656808Y-112486192D01*
X173676163Y-112509777D01*
X173690548Y-112536689D01*
X173699405Y-112565884D01*
X173703000Y-112602390D01*
X173703000Y-113152610D01*
X173699405Y-113189116D01*
X173690548Y-113218311D01*
X173676163Y-113245223D01*
X173656808Y-113268808D01*
X173633223Y-113288163D01*
X173606311Y-113302548D01*
X173577116Y-113311405D01*
X173540610Y-113315000D01*
X172915390Y-113315000D01*
X172878884Y-113311405D01*
X172849689Y-113302548D01*
X172822777Y-113288163D01*
X172799192Y-113268808D01*
X172779837Y-113245223D01*
X172765452Y-113218311D01*
X172756595Y-113189116D01*
X172753000Y-113152610D01*
X172753000Y-112602390D01*
X172756595Y-112565884D01*
X172765452Y-112536689D01*
X172779837Y-112509777D01*
X172799192Y-112486192D01*
X172822777Y-112466837D01*
X172849689Y-112452452D01*
X172878884Y-112443595D01*
X172915390Y-112440000D01*
X173540610Y-112440000D01*
X173577116Y-112443595D01*
G37*
G36*
X168497116Y-112443595D02*
G01*
X168526311Y-112452452D01*
X168553223Y-112466837D01*
X168576808Y-112486192D01*
X168596163Y-112509777D01*
X168610548Y-112536689D01*
X168619405Y-112565884D01*
X168623000Y-112602390D01*
X168623000Y-113152610D01*
X168619405Y-113189116D01*
X168610548Y-113218311D01*
X168596163Y-113245223D01*
X168576808Y-113268808D01*
X168553223Y-113288163D01*
X168526311Y-113302548D01*
X168497116Y-113311405D01*
X168460610Y-113315000D01*
X167835390Y-113315000D01*
X167798884Y-113311405D01*
X167769689Y-113302548D01*
X167742777Y-113288163D01*
X167719192Y-113268808D01*
X167699837Y-113245223D01*
X167685452Y-113218311D01*
X167676595Y-113189116D01*
X167673000Y-113152610D01*
X167673000Y-112602390D01*
X167676595Y-112565884D01*
X167685452Y-112536689D01*
X167699837Y-112509777D01*
X167719192Y-112486192D01*
X167742777Y-112466837D01*
X167769689Y-112452452D01*
X167798884Y-112443595D01*
X167835390Y-112440000D01*
X168460610Y-112440000D01*
X168497116Y-112443595D01*
G37*
G36*
X139338000Y-112575000D02*
G01*
X138538000Y-112575000D01*
X138538000Y-111675000D01*
X139338000Y-111675000D01*
X139338000Y-112575000D01*
G37*
G36*
X127857116Y-111478595D02*
G01*
X127886311Y-111487452D01*
X127913223Y-111501837D01*
X127936808Y-111521192D01*
X127956163Y-111544777D01*
X127970548Y-111571689D01*
X127979405Y-111600884D01*
X127983000Y-111637390D01*
X127983000Y-112187610D01*
X127979405Y-112224116D01*
X127970548Y-112253311D01*
X127956163Y-112280223D01*
X127936808Y-112303808D01*
X127913223Y-112323163D01*
X127886311Y-112337548D01*
X127857116Y-112346405D01*
X127820610Y-112350000D01*
X127195390Y-112350000D01*
X127158884Y-112346405D01*
X127129689Y-112337548D01*
X127102777Y-112323163D01*
X127079192Y-112303808D01*
X127059837Y-112280223D01*
X127045452Y-112253311D01*
X127036595Y-112224116D01*
X127033000Y-112187610D01*
X127033000Y-111637390D01*
X127036595Y-111600884D01*
X127045452Y-111571689D01*
X127059837Y-111544777D01*
X127079192Y-111521192D01*
X127102777Y-111501837D01*
X127129689Y-111487452D01*
X127158884Y-111478595D01*
X127195390Y-111475000D01*
X127820610Y-111475000D01*
X127857116Y-111478595D01*
G37*
G36*
X132417116Y-110653595D02*
G01*
X132446311Y-110662452D01*
X132473223Y-110676837D01*
X132496808Y-110696192D01*
X132516163Y-110719777D01*
X132530548Y-110746689D01*
X132539405Y-110775884D01*
X132543000Y-110812390D01*
X132543000Y-111437610D01*
X132539405Y-111474116D01*
X132530548Y-111503311D01*
X132516163Y-111530223D01*
X132496808Y-111553808D01*
X132473223Y-111573163D01*
X132446311Y-111587548D01*
X132417116Y-111596405D01*
X132380610Y-111600000D01*
X131830390Y-111600000D01*
X131793884Y-111596405D01*
X131764689Y-111587548D01*
X131737777Y-111573163D01*
X131714192Y-111553808D01*
X131694837Y-111530223D01*
X131680452Y-111503311D01*
X131671595Y-111474116D01*
X131668000Y-111437610D01*
X131668000Y-110812390D01*
X131671595Y-110775884D01*
X131680452Y-110746689D01*
X131694837Y-110719777D01*
X131714192Y-110696192D01*
X131737777Y-110676837D01*
X131764689Y-110662452D01*
X131793884Y-110653595D01*
X131830390Y-110650000D01*
X132380610Y-110650000D01*
X132417116Y-110653595D01*
G37*
G36*
X130842116Y-110653595D02*
G01*
X130871311Y-110662452D01*
X130898223Y-110676837D01*
X130921808Y-110696192D01*
X130941163Y-110719777D01*
X130955548Y-110746689D01*
X130964405Y-110775884D01*
X130968000Y-110812390D01*
X130968000Y-111437610D01*
X130964405Y-111474116D01*
X130955548Y-111503311D01*
X130941163Y-111530223D01*
X130921808Y-111553808D01*
X130898223Y-111573163D01*
X130871311Y-111587548D01*
X130842116Y-111596405D01*
X130805610Y-111600000D01*
X130255390Y-111600000D01*
X130218884Y-111596405D01*
X130189689Y-111587548D01*
X130162777Y-111573163D01*
X130139192Y-111553808D01*
X130119837Y-111530223D01*
X130105452Y-111503311D01*
X130096595Y-111474116D01*
X130093000Y-111437610D01*
X130093000Y-110812390D01*
X130096595Y-110775884D01*
X130105452Y-110746689D01*
X130119837Y-110719777D01*
X130139192Y-110696192D01*
X130162777Y-110676837D01*
X130189689Y-110662452D01*
X130218884Y-110653595D01*
X130255390Y-110650000D01*
X130805610Y-110650000D01*
X130842116Y-110653595D01*
G37*
G36*
X171022024Y-110208955D02*
G01*
X171054738Y-110218879D01*
X171084885Y-110234993D01*
X171111315Y-110256685D01*
X171133007Y-110283115D01*
X171149121Y-110313262D01*
X171159045Y-110345976D01*
X171163000Y-110386138D01*
X171163000Y-111073862D01*
X171159045Y-111114024D01*
X171149121Y-111146738D01*
X171133007Y-111176885D01*
X171111315Y-111203315D01*
X171084885Y-111225007D01*
X171054738Y-111241121D01*
X171022024Y-111251045D01*
X170981862Y-111255000D01*
X170394138Y-111255000D01*
X170353976Y-111251045D01*
X170321262Y-111241121D01*
X170291115Y-111225007D01*
X170264685Y-111203315D01*
X170242993Y-111176885D01*
X170226879Y-111146738D01*
X170216955Y-111114024D01*
X170213000Y-111073862D01*
X170213000Y-110386138D01*
X170216955Y-110345976D01*
X170226879Y-110313262D01*
X170242993Y-110283115D01*
X170264685Y-110256685D01*
X170291115Y-110234993D01*
X170321262Y-110218879D01*
X170353976Y-110208955D01*
X170394138Y-110205000D01*
X170981862Y-110205000D01*
X171022024Y-110208955D01*
G37*
G36*
X168482024Y-110208955D02*
G01*
X168514738Y-110218879D01*
X168544885Y-110234993D01*
X168571315Y-110256685D01*
X168593007Y-110283115D01*
X168609121Y-110313262D01*
X168619045Y-110345976D01*
X168623000Y-110386138D01*
X168623000Y-111073862D01*
X168619045Y-111114024D01*
X168609121Y-111146738D01*
X168593007Y-111176885D01*
X168571315Y-111203315D01*
X168544885Y-111225007D01*
X168514738Y-111241121D01*
X168482024Y-111251045D01*
X168441862Y-111255000D01*
X167854138Y-111255000D01*
X167813976Y-111251045D01*
X167781262Y-111241121D01*
X167751115Y-111225007D01*
X167724685Y-111203315D01*
X167702993Y-111176885D01*
X167686879Y-111146738D01*
X167676955Y-111114024D01*
X167673000Y-111073862D01*
X167673000Y-110386138D01*
X167676955Y-110345976D01*
X167686879Y-110313262D01*
X167702993Y-110283115D01*
X167724685Y-110256685D01*
X167751115Y-110234993D01*
X167781262Y-110218879D01*
X167813976Y-110208955D01*
X167854138Y-110205000D01*
X168441862Y-110205000D01*
X168482024Y-110208955D01*
G37*
G36*
X176102024Y-110208955D02*
G01*
X176134738Y-110218879D01*
X176164885Y-110234993D01*
X176191315Y-110256685D01*
X176213007Y-110283115D01*
X176229121Y-110313262D01*
X176239045Y-110345976D01*
X176243000Y-110386138D01*
X176243000Y-111073862D01*
X176239045Y-111114024D01*
X176229121Y-111146738D01*
X176213007Y-111176885D01*
X176191315Y-111203315D01*
X176164885Y-111225007D01*
X176134738Y-111241121D01*
X176102024Y-111251045D01*
X176061862Y-111255000D01*
X175474138Y-111255000D01*
X175433976Y-111251045D01*
X175401262Y-111241121D01*
X175371115Y-111225007D01*
X175344685Y-111203315D01*
X175322993Y-111176885D01*
X175306879Y-111146738D01*
X175296955Y-111114024D01*
X175293000Y-111073862D01*
X175293000Y-110386138D01*
X175296955Y-110345976D01*
X175306879Y-110313262D01*
X175322993Y-110283115D01*
X175344685Y-110256685D01*
X175371115Y-110234993D01*
X175401262Y-110218879D01*
X175433976Y-110208955D01*
X175474138Y-110205000D01*
X176061862Y-110205000D01*
X176102024Y-110208955D01*
G37*
G36*
X173562024Y-110208955D02*
G01*
X173594738Y-110218879D01*
X173624885Y-110234993D01*
X173651315Y-110256685D01*
X173673007Y-110283115D01*
X173689121Y-110313262D01*
X173699045Y-110345976D01*
X173703000Y-110386138D01*
X173703000Y-111073862D01*
X173699045Y-111114024D01*
X173689121Y-111146738D01*
X173673007Y-111176885D01*
X173651315Y-111203315D01*
X173624885Y-111225007D01*
X173594738Y-111241121D01*
X173562024Y-111251045D01*
X173521862Y-111255000D01*
X172934138Y-111255000D01*
X172893976Y-111251045D01*
X172861262Y-111241121D01*
X172831115Y-111225007D01*
X172804685Y-111203315D01*
X172782993Y-111176885D01*
X172766879Y-111146738D01*
X172756955Y-111114024D01*
X172753000Y-111073862D01*
X172753000Y-110386138D01*
X172756955Y-110345976D01*
X172766879Y-110313262D01*
X172782993Y-110283115D01*
X172804685Y-110256685D01*
X172831115Y-110234993D01*
X172861262Y-110218879D01*
X172893976Y-110208955D01*
X172934138Y-110205000D01*
X173521862Y-110205000D01*
X173562024Y-110208955D01*
G37*
G36*
X127857116Y-109903595D02*
G01*
X127886311Y-109912452D01*
X127913223Y-109926837D01*
X127936808Y-109946192D01*
X127956163Y-109969777D01*
X127970548Y-109996689D01*
X127979405Y-110025884D01*
X127983000Y-110062390D01*
X127983000Y-110612610D01*
X127979405Y-110649116D01*
X127970548Y-110678311D01*
X127956163Y-110705223D01*
X127936808Y-110728808D01*
X127913223Y-110748163D01*
X127886311Y-110762548D01*
X127857116Y-110771405D01*
X127820610Y-110775000D01*
X127195390Y-110775000D01*
X127158884Y-110771405D01*
X127129689Y-110762548D01*
X127102777Y-110748163D01*
X127079192Y-110728808D01*
X127059837Y-110705223D01*
X127045452Y-110678311D01*
X127036595Y-110649116D01*
X127033000Y-110612610D01*
X127033000Y-110062390D01*
X127036595Y-110025884D01*
X127045452Y-109996689D01*
X127059837Y-109969777D01*
X127079192Y-109946192D01*
X127102777Y-109926837D01*
X127129689Y-109912452D01*
X127158884Y-109903595D01*
X127195390Y-109900000D01*
X127820610Y-109900000D01*
X127857116Y-109903595D01*
G37*
G36*
X114554000Y-110718600D02*
G01*
X112522000Y-110718600D01*
X112522000Y-108991400D01*
X114554000Y-108991400D01*
X114554000Y-110718600D01*
G37*
G36*
X140288000Y-110575000D02*
G01*
X139488000Y-110575000D01*
X139488000Y-109675000D01*
X140288000Y-109675000D01*
X140288000Y-110575000D01*
G37*
G36*
X138388000Y-110575000D02*
G01*
X137588000Y-110575000D01*
X137588000Y-109675000D01*
X138388000Y-109675000D01*
X138388000Y-110575000D01*
G37*
G36*
X145370002Y-109199928D02*
G01*
X145399197Y-109208785D01*
X145426109Y-109223170D01*
X145454458Y-109246435D01*
X145494305Y-109286282D01*
X145494316Y-109286291D01*
X145856709Y-109648684D01*
X145856718Y-109648695D01*
X145896565Y-109688542D01*
X145919830Y-109716891D01*
X145934215Y-109743803D01*
X145943072Y-109772998D01*
X145946062Y-109803364D01*
X145943072Y-109833730D01*
X145934215Y-109862925D01*
X145919830Y-109889837D01*
X145896565Y-109918186D01*
X145856718Y-109958033D01*
X145856709Y-109958044D01*
X145547350Y-110267403D01*
X145547339Y-110267412D01*
X145507492Y-110307259D01*
X145479143Y-110330524D01*
X145452231Y-110344909D01*
X145423036Y-110353766D01*
X145392670Y-110356756D01*
X145362304Y-110353766D01*
X145333109Y-110344909D01*
X145306197Y-110330524D01*
X145277848Y-110307259D01*
X145238001Y-110267412D01*
X145237990Y-110267403D01*
X144875597Y-109905010D01*
X144875588Y-109904999D01*
X144835741Y-109865152D01*
X144812476Y-109836803D01*
X144798091Y-109809891D01*
X144789234Y-109780696D01*
X144786244Y-109750330D01*
X144789234Y-109719964D01*
X144798091Y-109690769D01*
X144812476Y-109663857D01*
X144835741Y-109635508D01*
X144875588Y-109595661D01*
X144875597Y-109595650D01*
X145184956Y-109286291D01*
X145184967Y-109286282D01*
X145224814Y-109246435D01*
X145253163Y-109223170D01*
X145280075Y-109208785D01*
X145309270Y-109199928D01*
X145339636Y-109196938D01*
X145370002Y-109199928D01*
G37*
G36*
X124797116Y-109383595D02*
G01*
X124826311Y-109392452D01*
X124853223Y-109406837D01*
X124876808Y-109426192D01*
X124896163Y-109449777D01*
X124910548Y-109476689D01*
X124919405Y-109505884D01*
X124923000Y-109542390D01*
X124923000Y-110167610D01*
X124919405Y-110204116D01*
X124910548Y-110233311D01*
X124896163Y-110260223D01*
X124876808Y-110283808D01*
X124853223Y-110303163D01*
X124826311Y-110317548D01*
X124797116Y-110326405D01*
X124760610Y-110330000D01*
X124210390Y-110330000D01*
X124173884Y-110326405D01*
X124144689Y-110317548D01*
X124117777Y-110303163D01*
X124094192Y-110283808D01*
X124074837Y-110260223D01*
X124060452Y-110233311D01*
X124051595Y-110204116D01*
X124048000Y-110167610D01*
X124048000Y-109542390D01*
X124051595Y-109505884D01*
X124060452Y-109476689D01*
X124074837Y-109449777D01*
X124094192Y-109426192D01*
X124117777Y-109406837D01*
X124144689Y-109392452D01*
X124173884Y-109383595D01*
X124210390Y-109380000D01*
X124760610Y-109380000D01*
X124797116Y-109383595D01*
G37*
G36*
X123222116Y-109383595D02*
G01*
X123251311Y-109392452D01*
X123278223Y-109406837D01*
X123301808Y-109426192D01*
X123321163Y-109449777D01*
X123335548Y-109476689D01*
X123344405Y-109505884D01*
X123348000Y-109542390D01*
X123348000Y-110167610D01*
X123344405Y-110204116D01*
X123335548Y-110233311D01*
X123321163Y-110260223D01*
X123301808Y-110283808D01*
X123278223Y-110303163D01*
X123251311Y-110317548D01*
X123222116Y-110326405D01*
X123185610Y-110330000D01*
X122635390Y-110330000D01*
X122598884Y-110326405D01*
X122569689Y-110317548D01*
X122542777Y-110303163D01*
X122519192Y-110283808D01*
X122499837Y-110260223D01*
X122485452Y-110233311D01*
X122476595Y-110204116D01*
X122473000Y-110167610D01*
X122473000Y-109542390D01*
X122476595Y-109505884D01*
X122485452Y-109476689D01*
X122499837Y-109449777D01*
X122519192Y-109426192D01*
X122542777Y-109406837D01*
X122569689Y-109392452D01*
X122598884Y-109383595D01*
X122635390Y-109380000D01*
X123185610Y-109380000D01*
X123222116Y-109383595D01*
G37*
G36*
X143364616Y-109383595D02*
G01*
X143393811Y-109392452D01*
X143420723Y-109406837D01*
X143444308Y-109426192D01*
X143463663Y-109449777D01*
X143478048Y-109476689D01*
X143486905Y-109505884D01*
X143490500Y-109542390D01*
X143490500Y-110167610D01*
X143486905Y-110204116D01*
X143478048Y-110233311D01*
X143463663Y-110260223D01*
X143444308Y-110283808D01*
X143420723Y-110303163D01*
X143393811Y-110317548D01*
X143364616Y-110326405D01*
X143328110Y-110330000D01*
X142777890Y-110330000D01*
X142741384Y-110326405D01*
X142712189Y-110317548D01*
X142685277Y-110303163D01*
X142661692Y-110283808D01*
X142642337Y-110260223D01*
X142627952Y-110233311D01*
X142619095Y-110204116D01*
X142615500Y-110167610D01*
X142615500Y-109542390D01*
X142619095Y-109505884D01*
X142627952Y-109476689D01*
X142642337Y-109449777D01*
X142661692Y-109426192D01*
X142685277Y-109406837D01*
X142712189Y-109392452D01*
X142741384Y-109383595D01*
X142777890Y-109380000D01*
X143328110Y-109380000D01*
X143364616Y-109383595D01*
G37*
G36*
X141789616Y-109383595D02*
G01*
X141818811Y-109392452D01*
X141845723Y-109406837D01*
X141869308Y-109426192D01*
X141888663Y-109449777D01*
X141903048Y-109476689D01*
X141911905Y-109505884D01*
X141915500Y-109542390D01*
X141915500Y-110167610D01*
X141911905Y-110204116D01*
X141903048Y-110233311D01*
X141888663Y-110260223D01*
X141869308Y-110283808D01*
X141845723Y-110303163D01*
X141818811Y-110317548D01*
X141789616Y-110326405D01*
X141753110Y-110330000D01*
X141202890Y-110330000D01*
X141166384Y-110326405D01*
X141137189Y-110317548D01*
X141110277Y-110303163D01*
X141086692Y-110283808D01*
X141067337Y-110260223D01*
X141052952Y-110233311D01*
X141044095Y-110204116D01*
X141040500Y-110167610D01*
X141040500Y-109542390D01*
X141044095Y-109505884D01*
X141052952Y-109476689D01*
X141067337Y-109449777D01*
X141086692Y-109426192D01*
X141110277Y-109406837D01*
X141137189Y-109392452D01*
X141166384Y-109383595D01*
X141202890Y-109380000D01*
X141753110Y-109380000D01*
X141789616Y-109383595D01*
G37*
G36*
X132988000Y-110035000D02*
G01*
X132188000Y-110035000D01*
X132188000Y-109135000D01*
X132988000Y-109135000D01*
X132988000Y-110035000D01*
G37*
G36*
X176102024Y-108458955D02*
G01*
X176134738Y-108468879D01*
X176164885Y-108484993D01*
X176191315Y-108506685D01*
X176213007Y-108533115D01*
X176229121Y-108563262D01*
X176239045Y-108595976D01*
X176243000Y-108636138D01*
X176243000Y-109323862D01*
X176239045Y-109364024D01*
X176229121Y-109396738D01*
X176213007Y-109426885D01*
X176191315Y-109453315D01*
X176164885Y-109475007D01*
X176134738Y-109491121D01*
X176102024Y-109501045D01*
X176061862Y-109505000D01*
X175474138Y-109505000D01*
X175433976Y-109501045D01*
X175401262Y-109491121D01*
X175371115Y-109475007D01*
X175344685Y-109453315D01*
X175322993Y-109426885D01*
X175306879Y-109396738D01*
X175296955Y-109364024D01*
X175293000Y-109323862D01*
X175293000Y-108636138D01*
X175296955Y-108595976D01*
X175306879Y-108563262D01*
X175322993Y-108533115D01*
X175344685Y-108506685D01*
X175371115Y-108484993D01*
X175401262Y-108468879D01*
X175433976Y-108458955D01*
X175474138Y-108455000D01*
X176061862Y-108455000D01*
X176102024Y-108458955D01*
G37*
G36*
X168482024Y-108458955D02*
G01*
X168514738Y-108468879D01*
X168544885Y-108484993D01*
X168571315Y-108506685D01*
X168593007Y-108533115D01*
X168609121Y-108563262D01*
X168619045Y-108595976D01*
X168623000Y-108636138D01*
X168623000Y-109323862D01*
X168619045Y-109364024D01*
X168609121Y-109396738D01*
X168593007Y-109426885D01*
X168571315Y-109453315D01*
X168544885Y-109475007D01*
X168514738Y-109491121D01*
X168482024Y-109501045D01*
X168441862Y-109505000D01*
X167854138Y-109505000D01*
X167813976Y-109501045D01*
X167781262Y-109491121D01*
X167751115Y-109475007D01*
X167724685Y-109453315D01*
X167702993Y-109426885D01*
X167686879Y-109396738D01*
X167676955Y-109364024D01*
X167673000Y-109323862D01*
X167673000Y-108636138D01*
X167676955Y-108595976D01*
X167686879Y-108563262D01*
X167702993Y-108533115D01*
X167724685Y-108506685D01*
X167751115Y-108484993D01*
X167781262Y-108468879D01*
X167813976Y-108458955D01*
X167854138Y-108455000D01*
X168441862Y-108455000D01*
X168482024Y-108458955D01*
G37*
G36*
X171022024Y-108458955D02*
G01*
X171054738Y-108468879D01*
X171084885Y-108484993D01*
X171111315Y-108506685D01*
X171133007Y-108533115D01*
X171149121Y-108563262D01*
X171159045Y-108595976D01*
X171163000Y-108636138D01*
X171163000Y-109323862D01*
X171159045Y-109364024D01*
X171149121Y-109396738D01*
X171133007Y-109426885D01*
X171111315Y-109453315D01*
X171084885Y-109475007D01*
X171054738Y-109491121D01*
X171022024Y-109501045D01*
X170981862Y-109505000D01*
X170394138Y-109505000D01*
X170353976Y-109501045D01*
X170321262Y-109491121D01*
X170291115Y-109475007D01*
X170264685Y-109453315D01*
X170242993Y-109426885D01*
X170226879Y-109396738D01*
X170216955Y-109364024D01*
X170213000Y-109323862D01*
X170213000Y-108636138D01*
X170216955Y-108595976D01*
X170226879Y-108563262D01*
X170242993Y-108533115D01*
X170264685Y-108506685D01*
X170291115Y-108484993D01*
X170321262Y-108468879D01*
X170353976Y-108458955D01*
X170394138Y-108455000D01*
X170981862Y-108455000D01*
X171022024Y-108458955D01*
G37*
G36*
X173562024Y-108458955D02*
G01*
X173594738Y-108468879D01*
X173624885Y-108484993D01*
X173651315Y-108506685D01*
X173673007Y-108533115D01*
X173689121Y-108563262D01*
X173699045Y-108595976D01*
X173703000Y-108636138D01*
X173703000Y-109323862D01*
X173699045Y-109364024D01*
X173689121Y-109396738D01*
X173673007Y-109426885D01*
X173651315Y-109453315D01*
X173624885Y-109475007D01*
X173594738Y-109491121D01*
X173562024Y-109501045D01*
X173521862Y-109505000D01*
X172934138Y-109505000D01*
X172893976Y-109501045D01*
X172861262Y-109491121D01*
X172831115Y-109475007D01*
X172804685Y-109453315D01*
X172782993Y-109426885D01*
X172766879Y-109396738D01*
X172756955Y-109364024D01*
X172753000Y-109323862D01*
X172753000Y-108636138D01*
X172756955Y-108595976D01*
X172766879Y-108563262D01*
X172782993Y-108533115D01*
X172804685Y-108506685D01*
X172831115Y-108484993D01*
X172861262Y-108468879D01*
X172893976Y-108458955D01*
X172934138Y-108455000D01*
X173521862Y-108455000D01*
X173562024Y-108458955D01*
G37*
G36*
X146483696Y-108086234D02*
G01*
X146512891Y-108095091D01*
X146539803Y-108109476D01*
X146568152Y-108132741D01*
X146607999Y-108172588D01*
X146608010Y-108172597D01*
X146970403Y-108534990D01*
X146970412Y-108535001D01*
X147010259Y-108574848D01*
X147033524Y-108603197D01*
X147047909Y-108630109D01*
X147056766Y-108659304D01*
X147059756Y-108689670D01*
X147056766Y-108720036D01*
X147047909Y-108749231D01*
X147033524Y-108776143D01*
X147010259Y-108804492D01*
X146970412Y-108844339D01*
X146970403Y-108844350D01*
X146661044Y-109153709D01*
X146661033Y-109153718D01*
X146621186Y-109193565D01*
X146592837Y-109216830D01*
X146565925Y-109231215D01*
X146536730Y-109240072D01*
X146506364Y-109243062D01*
X146475998Y-109240072D01*
X146446803Y-109231215D01*
X146419891Y-109216830D01*
X146391542Y-109193565D01*
X146351695Y-109153718D01*
X146351684Y-109153709D01*
X145989291Y-108791316D01*
X145989282Y-108791305D01*
X145949435Y-108751458D01*
X145926170Y-108723109D01*
X145911785Y-108696197D01*
X145902928Y-108667002D01*
X145899938Y-108636636D01*
X145902928Y-108606270D01*
X145911785Y-108577075D01*
X145926170Y-108550163D01*
X145949435Y-108521814D01*
X145989282Y-108481967D01*
X145989291Y-108481956D01*
X146298650Y-108172597D01*
X146298661Y-108172588D01*
X146338508Y-108132741D01*
X146366857Y-108109476D01*
X146393769Y-108095091D01*
X146422964Y-108086234D01*
X146453330Y-108083244D01*
X146483696Y-108086234D01*
G37*
G36*
X128302116Y-108113595D02*
G01*
X128331311Y-108122452D01*
X128358223Y-108136837D01*
X128381808Y-108156192D01*
X128401163Y-108179777D01*
X128415548Y-108206689D01*
X128424405Y-108235884D01*
X128428000Y-108272390D01*
X128428000Y-108897610D01*
X128424405Y-108934116D01*
X128415548Y-108963311D01*
X128401163Y-108990223D01*
X128381808Y-109013808D01*
X128358223Y-109033163D01*
X128331311Y-109047548D01*
X128302116Y-109056405D01*
X128265610Y-109060000D01*
X127715390Y-109060000D01*
X127678884Y-109056405D01*
X127649689Y-109047548D01*
X127622777Y-109033163D01*
X127599192Y-109013808D01*
X127579837Y-108990223D01*
X127565452Y-108963311D01*
X127556595Y-108934116D01*
X127553000Y-108897610D01*
X127553000Y-108272390D01*
X127556595Y-108235884D01*
X127565452Y-108206689D01*
X127579837Y-108179777D01*
X127599192Y-108156192D01*
X127622777Y-108136837D01*
X127649689Y-108122452D01*
X127678884Y-108113595D01*
X127715390Y-108110000D01*
X128265610Y-108110000D01*
X128302116Y-108113595D01*
G37*
G36*
X129877116Y-108113595D02*
G01*
X129906311Y-108122452D01*
X129933223Y-108136837D01*
X129956808Y-108156192D01*
X129976163Y-108179777D01*
X129990548Y-108206689D01*
X129999405Y-108235884D01*
X130003000Y-108272390D01*
X130003000Y-108897610D01*
X129999405Y-108934116D01*
X129990548Y-108963311D01*
X129976163Y-108990223D01*
X129956808Y-109013808D01*
X129933223Y-109033163D01*
X129906311Y-109047548D01*
X129877116Y-109056405D01*
X129840610Y-109060000D01*
X129290390Y-109060000D01*
X129253884Y-109056405D01*
X129224689Y-109047548D01*
X129197777Y-109033163D01*
X129174192Y-109013808D01*
X129154837Y-108990223D01*
X129140452Y-108963311D01*
X129131595Y-108934116D01*
X129128000Y-108897610D01*
X129128000Y-108272390D01*
X129131595Y-108235884D01*
X129140452Y-108206689D01*
X129154837Y-108179777D01*
X129174192Y-108156192D01*
X129197777Y-108136837D01*
X129224689Y-108122452D01*
X129253884Y-108113595D01*
X129290390Y-108110000D01*
X129840610Y-108110000D01*
X129877116Y-108113595D01*
G37*
G36*
X113775112Y-106455565D02*
G01*
X113859695Y-106463896D01*
X114022484Y-106513278D01*
X114022487Y-106513279D01*
X114172507Y-106593466D01*
X114172508Y-106593467D01*
X114172512Y-106593469D01*
X114304012Y-106701388D01*
X114411931Y-106832888D01*
X114411933Y-106832892D01*
X114411934Y-106832893D01*
X114492121Y-106982913D01*
X114492122Y-106982916D01*
X114541504Y-107145705D01*
X114558178Y-107315000D01*
X114541504Y-107484295D01*
X114515126Y-107571250D01*
X114492121Y-107647087D01*
X114414945Y-107791473D01*
X114411931Y-107797112D01*
X114304012Y-107928612D01*
X114172512Y-108036531D01*
X114172508Y-108036533D01*
X114172507Y-108036534D01*
X114022487Y-108116721D01*
X114022484Y-108116722D01*
X113859695Y-108166104D01*
X113793770Y-108172597D01*
X113732821Y-108178600D01*
X113343179Y-108178600D01*
X113282230Y-108172597D01*
X113216305Y-108166104D01*
X113053516Y-108116722D01*
X113053513Y-108116721D01*
X112903493Y-108036534D01*
X112903492Y-108036533D01*
X112903488Y-108036531D01*
X112771988Y-107928612D01*
X112664069Y-107797112D01*
X112661055Y-107791473D01*
X112583879Y-107647087D01*
X112560874Y-107571250D01*
X112534496Y-107484295D01*
X112517822Y-107315000D01*
X112534496Y-107145705D01*
X112583878Y-106982916D01*
X112583879Y-106982913D01*
X112664066Y-106832893D01*
X112664067Y-106832892D01*
X112664069Y-106832888D01*
X112771988Y-106701388D01*
X112903488Y-106593469D01*
X112903492Y-106593467D01*
X112903493Y-106593466D01*
X113053513Y-106513279D01*
X113053516Y-106513278D01*
X113216305Y-106463896D01*
X113300888Y-106455565D01*
X113343179Y-106451400D01*
X113732821Y-106451400D01*
X113775112Y-106455565D01*
G37*
G36*
X132038000Y-108035000D02*
G01*
X131238000Y-108035000D01*
X131238000Y-107135000D01*
X132038000Y-107135000D01*
X132038000Y-108035000D01*
G37*
G36*
X133938000Y-108035000D02*
G01*
X133138000Y-108035000D01*
X133138000Y-107135000D01*
X133938000Y-107135000D01*
X133938000Y-108035000D01*
G37*
G36*
X139655002Y-106659928D02*
G01*
X139684197Y-106668785D01*
X139711109Y-106683170D01*
X139739458Y-106706435D01*
X139779305Y-106746282D01*
X139779316Y-106746291D01*
X140141709Y-107108684D01*
X140141718Y-107108695D01*
X140181565Y-107148542D01*
X140204830Y-107176891D01*
X140219215Y-107203803D01*
X140228072Y-107232998D01*
X140231062Y-107263364D01*
X140228072Y-107293730D01*
X140219215Y-107322925D01*
X140204830Y-107349837D01*
X140181565Y-107378186D01*
X140141718Y-107418033D01*
X140141709Y-107418044D01*
X139832350Y-107727403D01*
X139832339Y-107727412D01*
X139792492Y-107767259D01*
X139764143Y-107790524D01*
X139737231Y-107804909D01*
X139708036Y-107813766D01*
X139677670Y-107816756D01*
X139647304Y-107813766D01*
X139618109Y-107804909D01*
X139591197Y-107790524D01*
X139562848Y-107767259D01*
X139523001Y-107727412D01*
X139522990Y-107727403D01*
X139160597Y-107365010D01*
X139160588Y-107364999D01*
X139120741Y-107325152D01*
X139097476Y-107296803D01*
X139083091Y-107269891D01*
X139074234Y-107240696D01*
X139071244Y-107210330D01*
X139074234Y-107179964D01*
X139083091Y-107150769D01*
X139097476Y-107123857D01*
X139120741Y-107095508D01*
X139160588Y-107055661D01*
X139160597Y-107055650D01*
X139469956Y-106746291D01*
X139469967Y-106746282D01*
X139509814Y-106706435D01*
X139538163Y-106683170D01*
X139565075Y-106668785D01*
X139594270Y-106659928D01*
X139624636Y-106656938D01*
X139655002Y-106659928D01*
G37*
G36*
X137497116Y-106843595D02*
G01*
X137526311Y-106852452D01*
X137553223Y-106866837D01*
X137576808Y-106886192D01*
X137596163Y-106909777D01*
X137610548Y-106936689D01*
X137619405Y-106965884D01*
X137623000Y-107002390D01*
X137623000Y-107627610D01*
X137619405Y-107664116D01*
X137610548Y-107693311D01*
X137596163Y-107720223D01*
X137576808Y-107743808D01*
X137553223Y-107763163D01*
X137526311Y-107777548D01*
X137497116Y-107786405D01*
X137460610Y-107790000D01*
X136910390Y-107790000D01*
X136873884Y-107786405D01*
X136844689Y-107777548D01*
X136817777Y-107763163D01*
X136794192Y-107743808D01*
X136774837Y-107720223D01*
X136760452Y-107693311D01*
X136751595Y-107664116D01*
X136748000Y-107627610D01*
X136748000Y-107002390D01*
X136751595Y-106965884D01*
X136760452Y-106936689D01*
X136774837Y-106909777D01*
X136794192Y-106886192D01*
X136817777Y-106866837D01*
X136844689Y-106852452D01*
X136873884Y-106843595D01*
X136910390Y-106840000D01*
X137460610Y-106840000D01*
X137497116Y-106843595D01*
G37*
G36*
X135922116Y-106843595D02*
G01*
X135951311Y-106852452D01*
X135978223Y-106866837D01*
X136001808Y-106886192D01*
X136021163Y-106909777D01*
X136035548Y-106936689D01*
X136044405Y-106965884D01*
X136048000Y-107002390D01*
X136048000Y-107627610D01*
X136044405Y-107664116D01*
X136035548Y-107693311D01*
X136021163Y-107720223D01*
X136001808Y-107743808D01*
X135978223Y-107763163D01*
X135951311Y-107777548D01*
X135922116Y-107786405D01*
X135885610Y-107790000D01*
X135335390Y-107790000D01*
X135298884Y-107786405D01*
X135269689Y-107777548D01*
X135242777Y-107763163D01*
X135219192Y-107743808D01*
X135199837Y-107720223D01*
X135185452Y-107693311D01*
X135176595Y-107664116D01*
X135173000Y-107627610D01*
X135173000Y-107002390D01*
X135176595Y-106965884D01*
X135185452Y-106936689D01*
X135199837Y-106909777D01*
X135219192Y-106886192D01*
X135242777Y-106866837D01*
X135269689Y-106852452D01*
X135298884Y-106843595D01*
X135335390Y-106840000D01*
X135885610Y-106840000D01*
X135922116Y-106843595D01*
G37*
G36*
X123222116Y-106843595D02*
G01*
X123251311Y-106852452D01*
X123278223Y-106866837D01*
X123301808Y-106886192D01*
X123321163Y-106909777D01*
X123335548Y-106936689D01*
X123344405Y-106965884D01*
X123348000Y-107002390D01*
X123348000Y-107627610D01*
X123344405Y-107664116D01*
X123335548Y-107693311D01*
X123321163Y-107720223D01*
X123301808Y-107743808D01*
X123278223Y-107763163D01*
X123251311Y-107777548D01*
X123222116Y-107786405D01*
X123185610Y-107790000D01*
X122635390Y-107790000D01*
X122598884Y-107786405D01*
X122569689Y-107777548D01*
X122542777Y-107763163D01*
X122519192Y-107743808D01*
X122499837Y-107720223D01*
X122485452Y-107693311D01*
X122476595Y-107664116D01*
X122473000Y-107627610D01*
X122473000Y-107002390D01*
X122476595Y-106965884D01*
X122485452Y-106936689D01*
X122499837Y-106909777D01*
X122519192Y-106886192D01*
X122542777Y-106866837D01*
X122569689Y-106852452D01*
X122598884Y-106843595D01*
X122635390Y-106840000D01*
X123185610Y-106840000D01*
X123222116Y-106843595D01*
G37*
G36*
X124797116Y-106843595D02*
G01*
X124826311Y-106852452D01*
X124853223Y-106866837D01*
X124876808Y-106886192D01*
X124896163Y-106909777D01*
X124910548Y-106936689D01*
X124919405Y-106965884D01*
X124923000Y-107002390D01*
X124923000Y-107627610D01*
X124919405Y-107664116D01*
X124910548Y-107693311D01*
X124896163Y-107720223D01*
X124876808Y-107743808D01*
X124853223Y-107763163D01*
X124826311Y-107777548D01*
X124797116Y-107786405D01*
X124760610Y-107790000D01*
X124210390Y-107790000D01*
X124173884Y-107786405D01*
X124144689Y-107777548D01*
X124117777Y-107763163D01*
X124094192Y-107743808D01*
X124074837Y-107720223D01*
X124060452Y-107693311D01*
X124051595Y-107664116D01*
X124048000Y-107627610D01*
X124048000Y-107002390D01*
X124051595Y-106965884D01*
X124060452Y-106936689D01*
X124074837Y-106909777D01*
X124094192Y-106886192D01*
X124117777Y-106866837D01*
X124144689Y-106852452D01*
X124173884Y-106843595D01*
X124210390Y-106840000D01*
X124760610Y-106840000D01*
X124797116Y-106843595D01*
G37*
G36*
X140768696Y-105546234D02*
G01*
X140797891Y-105555091D01*
X140824803Y-105569476D01*
X140853152Y-105592741D01*
X140892999Y-105632588D01*
X140893010Y-105632597D01*
X141255403Y-105994990D01*
X141255412Y-105995001D01*
X141295259Y-106034848D01*
X141318524Y-106063197D01*
X141332909Y-106090109D01*
X141341766Y-106119304D01*
X141344756Y-106149670D01*
X141341766Y-106180036D01*
X141332909Y-106209231D01*
X141318524Y-106236143D01*
X141295259Y-106264492D01*
X141255412Y-106304339D01*
X141255403Y-106304350D01*
X140946044Y-106613709D01*
X140946033Y-106613718D01*
X140906186Y-106653565D01*
X140877837Y-106676830D01*
X140850925Y-106691215D01*
X140821730Y-106700072D01*
X140791364Y-106703062D01*
X140760998Y-106700072D01*
X140731803Y-106691215D01*
X140704891Y-106676830D01*
X140676542Y-106653565D01*
X140636695Y-106613718D01*
X140636684Y-106613709D01*
X140274291Y-106251316D01*
X140274282Y-106251305D01*
X140234435Y-106211458D01*
X140211170Y-106183109D01*
X140196785Y-106156197D01*
X140187928Y-106127002D01*
X140184938Y-106096636D01*
X140187928Y-106066270D01*
X140196785Y-106037075D01*
X140211170Y-106010163D01*
X140234435Y-105981814D01*
X140274282Y-105941967D01*
X140274291Y-105941956D01*
X140583650Y-105632597D01*
X140583661Y-105632588D01*
X140623508Y-105592741D01*
X140651857Y-105569476D01*
X140678769Y-105555091D01*
X140707964Y-105546234D01*
X140738330Y-105543244D01*
X140768696Y-105546234D01*
G37*
G36*
X113775112Y-103915565D02*
G01*
X113859695Y-103923896D01*
X114022484Y-103973278D01*
X114022487Y-103973279D01*
X114172507Y-104053466D01*
X114172508Y-104053467D01*
X114172512Y-104053469D01*
X114304012Y-104161388D01*
X114411931Y-104292888D01*
X114411933Y-104292892D01*
X114411934Y-104292893D01*
X114492121Y-104442913D01*
X114492122Y-104442916D01*
X114541504Y-104605705D01*
X114558178Y-104775000D01*
X114541504Y-104944295D01*
X114515126Y-105031250D01*
X114492121Y-105107087D01*
X114411934Y-105257107D01*
X114411931Y-105257112D01*
X114304012Y-105388612D01*
X114172512Y-105496531D01*
X114172508Y-105496533D01*
X114172507Y-105496534D01*
X114022487Y-105576721D01*
X114022484Y-105576722D01*
X113859695Y-105626104D01*
X113793770Y-105632597D01*
X113732821Y-105638600D01*
X113343179Y-105638600D01*
X113282230Y-105632597D01*
X113216305Y-105626104D01*
X113053516Y-105576722D01*
X113053513Y-105576721D01*
X112903493Y-105496534D01*
X112903492Y-105496533D01*
X112903488Y-105496531D01*
X112771988Y-105388612D01*
X112664069Y-105257112D01*
X112664066Y-105257107D01*
X112583879Y-105107087D01*
X112560874Y-105031250D01*
X112534496Y-104944295D01*
X112517822Y-104775000D01*
X112534496Y-104605705D01*
X112583878Y-104442916D01*
X112583879Y-104442913D01*
X112664066Y-104292893D01*
X112664067Y-104292892D01*
X112664069Y-104292888D01*
X112771988Y-104161388D01*
X112903488Y-104053469D01*
X112903492Y-104053467D01*
X112903493Y-104053466D01*
X113053513Y-103973279D01*
X113053516Y-103973278D01*
X113216305Y-103923896D01*
X113300888Y-103915565D01*
X113343179Y-103911400D01*
X113732821Y-103911400D01*
X113775112Y-103915565D01*
G37*
G36*
X123222116Y-104303595D02*
G01*
X123251311Y-104312452D01*
X123278223Y-104326837D01*
X123301808Y-104346192D01*
X123321163Y-104369777D01*
X123335548Y-104396689D01*
X123344405Y-104425884D01*
X123348000Y-104462390D01*
X123348000Y-105087610D01*
X123344405Y-105124116D01*
X123335548Y-105153311D01*
X123321163Y-105180223D01*
X123301808Y-105203808D01*
X123278223Y-105223163D01*
X123251311Y-105237548D01*
X123222116Y-105246405D01*
X123185610Y-105250000D01*
X122635390Y-105250000D01*
X122598884Y-105246405D01*
X122569689Y-105237548D01*
X122542777Y-105223163D01*
X122519192Y-105203808D01*
X122499837Y-105180223D01*
X122485452Y-105153311D01*
X122476595Y-105124116D01*
X122473000Y-105087610D01*
X122473000Y-104462390D01*
X122476595Y-104425884D01*
X122485452Y-104396689D01*
X122499837Y-104369777D01*
X122519192Y-104346192D01*
X122542777Y-104326837D01*
X122569689Y-104312452D01*
X122598884Y-104303595D01*
X122635390Y-104300000D01*
X123185610Y-104300000D01*
X123222116Y-104303595D01*
G37*
G36*
X124797116Y-104303595D02*
G01*
X124826311Y-104312452D01*
X124853223Y-104326837D01*
X124876808Y-104346192D01*
X124896163Y-104369777D01*
X124910548Y-104396689D01*
X124919405Y-104425884D01*
X124923000Y-104462390D01*
X124923000Y-105087610D01*
X124919405Y-105124116D01*
X124910548Y-105153311D01*
X124896163Y-105180223D01*
X124876808Y-105203808D01*
X124853223Y-105223163D01*
X124826311Y-105237548D01*
X124797116Y-105246405D01*
X124760610Y-105250000D01*
X124210390Y-105250000D01*
X124173884Y-105246405D01*
X124144689Y-105237548D01*
X124117777Y-105223163D01*
X124094192Y-105203808D01*
X124074837Y-105180223D01*
X124060452Y-105153311D01*
X124051595Y-105124116D01*
X124048000Y-105087610D01*
X124048000Y-104462390D01*
X124051595Y-104425884D01*
X124060452Y-104396689D01*
X124074837Y-104369777D01*
X124094192Y-104346192D01*
X124117777Y-104326837D01*
X124144689Y-104312452D01*
X124173884Y-104303595D01*
X124210390Y-104300000D01*
X124760610Y-104300000D01*
X124797116Y-104303595D01*
G37*
G36*
X177285935Y-102687664D02*
G01*
X177440624Y-102751739D01*
X177440626Y-102751740D01*
X177579844Y-102844762D01*
X177698238Y-102963156D01*
X177788738Y-103098600D01*
X177791261Y-103102376D01*
X177855336Y-103257065D01*
X177888000Y-103421281D01*
X177888000Y-103588719D01*
X177855336Y-103752935D01*
X177791261Y-103907624D01*
X177791260Y-103907626D01*
X177698238Y-104046844D01*
X177579844Y-104165238D01*
X177440626Y-104258260D01*
X177440625Y-104258261D01*
X177440624Y-104258261D01*
X177285935Y-104322336D01*
X177121719Y-104355000D01*
X176954281Y-104355000D01*
X176790065Y-104322336D01*
X176635376Y-104258261D01*
X176635375Y-104258261D01*
X176635374Y-104258260D01*
X176496156Y-104165238D01*
X176377762Y-104046844D01*
X176284740Y-103907626D01*
X176284739Y-103907624D01*
X176220664Y-103752935D01*
X176188000Y-103588719D01*
X176188000Y-103421281D01*
X176220664Y-103257065D01*
X176284739Y-103102376D01*
X176287262Y-103098600D01*
X176377762Y-102963156D01*
X176496156Y-102844762D01*
X176635374Y-102751740D01*
X176635376Y-102751739D01*
X176790065Y-102687664D01*
X176954281Y-102655000D01*
X177121719Y-102655000D01*
X177285935Y-102687664D01*
G37*
G36*
X113775112Y-101375565D02*
G01*
X113859695Y-101383896D01*
X114022484Y-101433278D01*
X114022487Y-101433279D01*
X114172507Y-101513466D01*
X114172508Y-101513467D01*
X114172512Y-101513469D01*
X114304012Y-101621388D01*
X114411931Y-101752888D01*
X114411933Y-101752892D01*
X114411934Y-101752893D01*
X114492121Y-101902913D01*
X114492122Y-101902916D01*
X114541504Y-102065705D01*
X114558178Y-102235000D01*
X114541504Y-102404295D01*
X114515126Y-102491250D01*
X114492121Y-102567087D01*
X114411934Y-102717107D01*
X114411931Y-102717112D01*
X114304012Y-102848612D01*
X114172512Y-102956531D01*
X114172508Y-102956533D01*
X114172507Y-102956534D01*
X114022487Y-103036721D01*
X114022484Y-103036722D01*
X113859695Y-103086104D01*
X113775112Y-103094435D01*
X113732821Y-103098600D01*
X113343179Y-103098600D01*
X113300888Y-103094435D01*
X113216305Y-103086104D01*
X113053516Y-103036722D01*
X113053513Y-103036721D01*
X112903493Y-102956534D01*
X112903492Y-102956533D01*
X112903488Y-102956531D01*
X112771988Y-102848612D01*
X112664069Y-102717112D01*
X112664066Y-102717107D01*
X112583879Y-102567087D01*
X112560874Y-102491250D01*
X112534496Y-102404295D01*
X112517822Y-102235000D01*
X112534496Y-102065705D01*
X112583878Y-101902916D01*
X112583879Y-101902913D01*
X112664066Y-101752893D01*
X112664067Y-101752892D01*
X112664069Y-101752888D01*
X112771988Y-101621388D01*
X112903488Y-101513469D01*
X112903492Y-101513467D01*
X112903493Y-101513466D01*
X113053513Y-101433279D01*
X113053516Y-101433278D01*
X113216305Y-101383896D01*
X113300888Y-101375565D01*
X113343179Y-101371400D01*
X113732821Y-101371400D01*
X113775112Y-101375565D01*
G37*
G36*
X123222116Y-101763595D02*
G01*
X123251311Y-101772452D01*
X123278223Y-101786837D01*
X123301808Y-101806192D01*
X123321163Y-101829777D01*
X123335548Y-101856689D01*
X123344405Y-101885884D01*
X123348000Y-101922390D01*
X123348000Y-102547610D01*
X123344405Y-102584116D01*
X123335548Y-102613311D01*
X123321163Y-102640223D01*
X123301808Y-102663808D01*
X123278223Y-102683163D01*
X123251311Y-102697548D01*
X123222116Y-102706405D01*
X123185610Y-102710000D01*
X122635390Y-102710000D01*
X122598884Y-102706405D01*
X122569689Y-102697548D01*
X122542777Y-102683163D01*
X122519192Y-102663808D01*
X122499837Y-102640223D01*
X122485452Y-102613311D01*
X122476595Y-102584116D01*
X122473000Y-102547610D01*
X122473000Y-101922390D01*
X122476595Y-101885884D01*
X122485452Y-101856689D01*
X122499837Y-101829777D01*
X122519192Y-101806192D01*
X122542777Y-101786837D01*
X122569689Y-101772452D01*
X122598884Y-101763595D01*
X122635390Y-101760000D01*
X123185610Y-101760000D01*
X123222116Y-101763595D01*
G37*
G36*
X124797116Y-101763595D02*
G01*
X124826311Y-101772452D01*
X124853223Y-101786837D01*
X124876808Y-101806192D01*
X124896163Y-101829777D01*
X124910548Y-101856689D01*
X124919405Y-101885884D01*
X124923000Y-101922390D01*
X124923000Y-102547610D01*
X124919405Y-102584116D01*
X124910548Y-102613311D01*
X124896163Y-102640223D01*
X124876808Y-102663808D01*
X124853223Y-102683163D01*
X124826311Y-102697548D01*
X124797116Y-102706405D01*
X124760610Y-102710000D01*
X124210390Y-102710000D01*
X124173884Y-102706405D01*
X124144689Y-102697548D01*
X124117777Y-102683163D01*
X124094192Y-102663808D01*
X124074837Y-102640223D01*
X124060452Y-102613311D01*
X124051595Y-102584116D01*
X124048000Y-102547610D01*
X124048000Y-101922390D01*
X124051595Y-101885884D01*
X124060452Y-101856689D01*
X124074837Y-101829777D01*
X124094192Y-101806192D01*
X124117777Y-101786837D01*
X124144689Y-101772452D01*
X124173884Y-101763595D01*
X124210390Y-101760000D01*
X124760610Y-101760000D01*
X124797116Y-101763595D01*
G37*
G36*
X177285935Y-100147664D02*
G01*
X177404452Y-100196756D01*
X177440626Y-100211740D01*
X177579844Y-100304762D01*
X177698238Y-100423156D01*
X177788738Y-100558600D01*
X177791261Y-100562376D01*
X177855336Y-100717065D01*
X177888000Y-100881281D01*
X177888000Y-101048719D01*
X177855336Y-101212935D01*
X177791261Y-101367624D01*
X177791260Y-101367626D01*
X177698238Y-101506844D01*
X177579844Y-101625238D01*
X177440626Y-101718260D01*
X177440625Y-101718261D01*
X177440624Y-101718261D01*
X177285935Y-101782336D01*
X177121719Y-101815000D01*
X176954281Y-101815000D01*
X176790065Y-101782336D01*
X176635376Y-101718261D01*
X176635375Y-101718261D01*
X176635374Y-101718260D01*
X176496156Y-101625238D01*
X176377762Y-101506844D01*
X176284740Y-101367626D01*
X176284739Y-101367624D01*
X176220664Y-101212935D01*
X176188000Y-101048719D01*
X176188000Y-100881281D01*
X176220664Y-100717065D01*
X176284739Y-100562376D01*
X176287262Y-100558600D01*
X176377762Y-100423156D01*
X176496156Y-100304762D01*
X176635374Y-100211740D01*
X176671548Y-100196756D01*
X176790065Y-100147664D01*
X176954281Y-100115000D01*
X177121719Y-100115000D01*
X177285935Y-100147664D01*
G37*
G36*
X113775112Y-98835565D02*
G01*
X113859695Y-98843896D01*
X114022484Y-98893278D01*
X114022487Y-98893279D01*
X114172507Y-98973466D01*
X114172508Y-98973467D01*
X114172512Y-98973469D01*
X114304012Y-99081388D01*
X114411931Y-99212888D01*
X114411933Y-99212892D01*
X114411934Y-99212893D01*
X114492121Y-99362913D01*
X114492122Y-99362916D01*
X114541504Y-99525705D01*
X114558178Y-99695000D01*
X114541504Y-99864295D01*
X114515126Y-99951250D01*
X114492121Y-100027087D01*
X114414945Y-100171473D01*
X114411931Y-100177112D01*
X114304012Y-100308612D01*
X114172512Y-100416531D01*
X114172508Y-100416533D01*
X114172507Y-100416534D01*
X114022487Y-100496721D01*
X114022484Y-100496722D01*
X113859695Y-100546104D01*
X113775112Y-100554435D01*
X113732821Y-100558600D01*
X113343179Y-100558600D01*
X113300888Y-100554435D01*
X113216305Y-100546104D01*
X113053516Y-100496722D01*
X113053513Y-100496721D01*
X112903493Y-100416534D01*
X112903492Y-100416533D01*
X112903488Y-100416531D01*
X112771988Y-100308612D01*
X112664069Y-100177112D01*
X112661055Y-100171473D01*
X112583879Y-100027087D01*
X112560874Y-99951250D01*
X112534496Y-99864295D01*
X112517822Y-99695000D01*
X112534496Y-99525705D01*
X112583878Y-99362916D01*
X112583879Y-99362913D01*
X112664066Y-99212893D01*
X112664067Y-99212892D01*
X112664069Y-99212888D01*
X112771988Y-99081388D01*
X112903488Y-98973469D01*
X112903492Y-98973467D01*
X112903493Y-98973466D01*
X113053513Y-98893279D01*
X113053516Y-98893278D01*
X113216305Y-98843896D01*
X113300888Y-98835565D01*
X113343179Y-98831400D01*
X113732821Y-98831400D01*
X113775112Y-98835565D01*
G37*
G36*
X126955002Y-99039928D02*
G01*
X126984197Y-99048785D01*
X127011109Y-99063170D01*
X127039458Y-99086435D01*
X127079305Y-99126282D01*
X127079316Y-99126291D01*
X127441709Y-99488684D01*
X127441718Y-99488695D01*
X127481565Y-99528542D01*
X127504830Y-99556891D01*
X127519215Y-99583803D01*
X127528072Y-99612998D01*
X127531062Y-99643364D01*
X127528072Y-99673730D01*
X127519215Y-99702925D01*
X127504830Y-99729837D01*
X127481565Y-99758186D01*
X127441718Y-99798033D01*
X127441709Y-99798044D01*
X127132350Y-100107403D01*
X127132339Y-100107412D01*
X127092492Y-100147259D01*
X127064143Y-100170524D01*
X127037231Y-100184909D01*
X127008036Y-100193766D01*
X126977670Y-100196756D01*
X126947304Y-100193766D01*
X126918109Y-100184909D01*
X126891197Y-100170524D01*
X126862848Y-100147259D01*
X126823001Y-100107412D01*
X126822990Y-100107403D01*
X126460597Y-99745010D01*
X126460588Y-99744999D01*
X126420741Y-99705152D01*
X126397476Y-99676803D01*
X126383091Y-99649891D01*
X126374234Y-99620696D01*
X126371244Y-99590330D01*
X126374234Y-99559964D01*
X126383091Y-99530769D01*
X126397476Y-99503857D01*
X126420741Y-99475508D01*
X126460588Y-99435661D01*
X126460597Y-99435650D01*
X126769956Y-99126291D01*
X126769967Y-99126282D01*
X126809814Y-99086435D01*
X126838163Y-99063170D01*
X126865075Y-99048785D01*
X126894270Y-99039928D01*
X126924636Y-99036938D01*
X126955002Y-99039928D01*
G37*
G36*
X155277116Y-99223595D02*
G01*
X155306311Y-99232452D01*
X155333223Y-99246837D01*
X155356808Y-99266192D01*
X155376163Y-99289777D01*
X155390548Y-99316689D01*
X155399405Y-99345884D01*
X155403000Y-99382390D01*
X155403000Y-100007610D01*
X155399405Y-100044116D01*
X155390548Y-100073311D01*
X155376163Y-100100223D01*
X155356808Y-100123808D01*
X155333223Y-100143163D01*
X155306311Y-100157548D01*
X155277116Y-100166405D01*
X155240610Y-100170000D01*
X154690390Y-100170000D01*
X154653884Y-100166405D01*
X154624689Y-100157548D01*
X154597777Y-100143163D01*
X154574192Y-100123808D01*
X154554837Y-100100223D01*
X154540452Y-100073311D01*
X154531595Y-100044116D01*
X154528000Y-100007610D01*
X154528000Y-99382390D01*
X154531595Y-99345884D01*
X154540452Y-99316689D01*
X154554837Y-99289777D01*
X154574192Y-99266192D01*
X154597777Y-99246837D01*
X154624689Y-99232452D01*
X154653884Y-99223595D01*
X154690390Y-99220000D01*
X155240610Y-99220000D01*
X155277116Y-99223595D01*
G37*
G36*
X153702116Y-99223595D02*
G01*
X153731311Y-99232452D01*
X153758223Y-99246837D01*
X153781808Y-99266192D01*
X153801163Y-99289777D01*
X153815548Y-99316689D01*
X153824405Y-99345884D01*
X153828000Y-99382390D01*
X153828000Y-100007610D01*
X153824405Y-100044116D01*
X153815548Y-100073311D01*
X153801163Y-100100223D01*
X153781808Y-100123808D01*
X153758223Y-100143163D01*
X153731311Y-100157548D01*
X153702116Y-100166405D01*
X153665610Y-100170000D01*
X153115390Y-100170000D01*
X153078884Y-100166405D01*
X153049689Y-100157548D01*
X153022777Y-100143163D01*
X152999192Y-100123808D01*
X152979837Y-100100223D01*
X152965452Y-100073311D01*
X152956595Y-100044116D01*
X152953000Y-100007610D01*
X152953000Y-99382390D01*
X152956595Y-99345884D01*
X152965452Y-99316689D01*
X152979837Y-99289777D01*
X152999192Y-99266192D01*
X153022777Y-99246837D01*
X153049689Y-99232452D01*
X153078884Y-99223595D01*
X153115390Y-99220000D01*
X153665610Y-99220000D01*
X153702116Y-99223595D01*
G37*
G36*
X147657116Y-99223595D02*
G01*
X147686311Y-99232452D01*
X147713223Y-99246837D01*
X147736808Y-99266192D01*
X147756163Y-99289777D01*
X147770548Y-99316689D01*
X147779405Y-99345884D01*
X147783000Y-99382390D01*
X147783000Y-100007610D01*
X147779405Y-100044116D01*
X147770548Y-100073311D01*
X147756163Y-100100223D01*
X147736808Y-100123808D01*
X147713223Y-100143163D01*
X147686311Y-100157548D01*
X147657116Y-100166405D01*
X147620610Y-100170000D01*
X147070390Y-100170000D01*
X147033884Y-100166405D01*
X147004689Y-100157548D01*
X146977777Y-100143163D01*
X146954192Y-100123808D01*
X146934837Y-100100223D01*
X146920452Y-100073311D01*
X146911595Y-100044116D01*
X146908000Y-100007610D01*
X146908000Y-99382390D01*
X146911595Y-99345884D01*
X146920452Y-99316689D01*
X146934837Y-99289777D01*
X146954192Y-99266192D01*
X146977777Y-99246837D01*
X147004689Y-99232452D01*
X147033884Y-99223595D01*
X147070390Y-99220000D01*
X147620610Y-99220000D01*
X147657116Y-99223595D01*
G37*
G36*
X146082116Y-99223595D02*
G01*
X146111311Y-99232452D01*
X146138223Y-99246837D01*
X146161808Y-99266192D01*
X146181163Y-99289777D01*
X146195548Y-99316689D01*
X146204405Y-99345884D01*
X146208000Y-99382390D01*
X146208000Y-100007610D01*
X146204405Y-100044116D01*
X146195548Y-100073311D01*
X146181163Y-100100223D01*
X146161808Y-100123808D01*
X146138223Y-100143163D01*
X146111311Y-100157548D01*
X146082116Y-100166405D01*
X146045610Y-100170000D01*
X145495390Y-100170000D01*
X145458884Y-100166405D01*
X145429689Y-100157548D01*
X145402777Y-100143163D01*
X145379192Y-100123808D01*
X145359837Y-100100223D01*
X145345452Y-100073311D01*
X145336595Y-100044116D01*
X145333000Y-100007610D01*
X145333000Y-99382390D01*
X145336595Y-99345884D01*
X145345452Y-99316689D01*
X145359837Y-99289777D01*
X145379192Y-99266192D01*
X145402777Y-99246837D01*
X145429689Y-99232452D01*
X145458884Y-99223595D01*
X145495390Y-99220000D01*
X146045610Y-99220000D01*
X146082116Y-99223595D01*
G37*
G36*
X124797116Y-99223595D02*
G01*
X124826311Y-99232452D01*
X124853223Y-99246837D01*
X124876808Y-99266192D01*
X124896163Y-99289777D01*
X124910548Y-99316689D01*
X124919405Y-99345884D01*
X124923000Y-99382390D01*
X124923000Y-100007610D01*
X124919405Y-100044116D01*
X124910548Y-100073311D01*
X124896163Y-100100223D01*
X124876808Y-100123808D01*
X124853223Y-100143163D01*
X124826311Y-100157548D01*
X124797116Y-100166405D01*
X124760610Y-100170000D01*
X124210390Y-100170000D01*
X124173884Y-100166405D01*
X124144689Y-100157548D01*
X124117777Y-100143163D01*
X124094192Y-100123808D01*
X124074837Y-100100223D01*
X124060452Y-100073311D01*
X124051595Y-100044116D01*
X124048000Y-100007610D01*
X124048000Y-99382390D01*
X124051595Y-99345884D01*
X124060452Y-99316689D01*
X124074837Y-99289777D01*
X124094192Y-99266192D01*
X124117777Y-99246837D01*
X124144689Y-99232452D01*
X124173884Y-99223595D01*
X124210390Y-99220000D01*
X124760610Y-99220000D01*
X124797116Y-99223595D01*
G37*
G36*
X123222116Y-99223595D02*
G01*
X123251311Y-99232452D01*
X123278223Y-99246837D01*
X123301808Y-99266192D01*
X123321163Y-99289777D01*
X123335548Y-99316689D01*
X123344405Y-99345884D01*
X123348000Y-99382390D01*
X123348000Y-100007610D01*
X123344405Y-100044116D01*
X123335548Y-100073311D01*
X123321163Y-100100223D01*
X123301808Y-100123808D01*
X123278223Y-100143163D01*
X123251311Y-100157548D01*
X123222116Y-100166405D01*
X123185610Y-100170000D01*
X122635390Y-100170000D01*
X122598884Y-100166405D01*
X122569689Y-100157548D01*
X122542777Y-100143163D01*
X122519192Y-100123808D01*
X122499837Y-100100223D01*
X122485452Y-100073311D01*
X122476595Y-100044116D01*
X122473000Y-100007610D01*
X122473000Y-99382390D01*
X122476595Y-99345884D01*
X122485452Y-99316689D01*
X122499837Y-99289777D01*
X122519192Y-99266192D01*
X122542777Y-99246837D01*
X122569689Y-99232452D01*
X122598884Y-99223595D01*
X122635390Y-99220000D01*
X123185610Y-99220000D01*
X123222116Y-99223595D01*
G37*
G36*
X177285935Y-97607664D02*
G01*
X177377413Y-97645556D01*
X177440626Y-97671740D01*
X177579844Y-97764762D01*
X177698238Y-97883156D01*
X177784727Y-98012597D01*
X177791261Y-98022376D01*
X177855336Y-98177065D01*
X177888000Y-98341281D01*
X177888000Y-98508719D01*
X177855336Y-98672935D01*
X177791261Y-98827624D01*
X177791260Y-98827626D01*
X177698238Y-98966844D01*
X177579844Y-99085238D01*
X177440626Y-99178260D01*
X177440625Y-99178261D01*
X177440624Y-99178261D01*
X177285935Y-99242336D01*
X177121719Y-99275000D01*
X176954281Y-99275000D01*
X176790065Y-99242336D01*
X176635376Y-99178261D01*
X176635375Y-99178261D01*
X176635374Y-99178260D01*
X176496156Y-99085238D01*
X176377762Y-98966844D01*
X176284740Y-98827626D01*
X176284739Y-98827624D01*
X176220664Y-98672935D01*
X176188000Y-98508719D01*
X176188000Y-98341281D01*
X176220664Y-98177065D01*
X176284739Y-98022376D01*
X176291273Y-98012597D01*
X176377762Y-97883156D01*
X176496156Y-97764762D01*
X176635374Y-97671740D01*
X176698587Y-97645556D01*
X176790065Y-97607664D01*
X176954281Y-97575000D01*
X177121719Y-97575000D01*
X177285935Y-97607664D01*
G37*
G36*
X128068696Y-97926234D02*
G01*
X128097891Y-97935091D01*
X128124803Y-97949476D01*
X128153152Y-97972741D01*
X128192999Y-98012588D01*
X128193010Y-98012597D01*
X128555403Y-98374990D01*
X128555412Y-98375001D01*
X128595259Y-98414848D01*
X128618524Y-98443197D01*
X128632909Y-98470109D01*
X128641766Y-98499304D01*
X128644756Y-98529670D01*
X128641766Y-98560036D01*
X128632909Y-98589231D01*
X128618524Y-98616143D01*
X128595259Y-98644492D01*
X128555412Y-98684339D01*
X128555403Y-98684350D01*
X128246044Y-98993709D01*
X128246033Y-98993718D01*
X128206186Y-99033565D01*
X128177837Y-99056830D01*
X128150925Y-99071215D01*
X128121730Y-99080072D01*
X128091364Y-99083062D01*
X128060998Y-99080072D01*
X128031803Y-99071215D01*
X128004891Y-99056830D01*
X127976542Y-99033565D01*
X127936695Y-98993718D01*
X127936684Y-98993709D01*
X127574291Y-98631316D01*
X127574282Y-98631305D01*
X127534435Y-98591458D01*
X127511170Y-98563109D01*
X127496785Y-98536197D01*
X127487928Y-98507002D01*
X127484938Y-98476636D01*
X127487928Y-98446270D01*
X127496785Y-98417075D01*
X127511170Y-98390163D01*
X127534435Y-98361814D01*
X127574282Y-98321967D01*
X127574291Y-98321956D01*
X127883650Y-98012597D01*
X127883661Y-98012588D01*
X127923508Y-97972741D01*
X127951857Y-97949476D01*
X127978769Y-97935091D01*
X128007964Y-97926234D01*
X128038330Y-97923244D01*
X128068696Y-97926234D01*
G37*
G36*
X113775112Y-96295565D02*
G01*
X113859695Y-96303896D01*
X114022484Y-96353278D01*
X114022487Y-96353279D01*
X114172507Y-96433466D01*
X114172508Y-96433467D01*
X114172512Y-96433469D01*
X114304012Y-96541388D01*
X114411931Y-96672888D01*
X114411933Y-96672892D01*
X114411934Y-96672893D01*
X114492121Y-96822913D01*
X114492122Y-96822916D01*
X114541504Y-96985705D01*
X114558178Y-97155000D01*
X114541504Y-97324295D01*
X114515126Y-97411250D01*
X114492121Y-97487087D01*
X114411934Y-97637107D01*
X114411931Y-97637112D01*
X114304012Y-97768612D01*
X114172512Y-97876531D01*
X114172508Y-97876533D01*
X114172507Y-97876534D01*
X114022487Y-97956721D01*
X114022484Y-97956722D01*
X113859695Y-98006104D01*
X113793770Y-98012597D01*
X113732821Y-98018600D01*
X113343179Y-98018600D01*
X113282230Y-98012597D01*
X113216305Y-98006104D01*
X113053516Y-97956722D01*
X113053513Y-97956721D01*
X112903493Y-97876534D01*
X112903492Y-97876533D01*
X112903488Y-97876531D01*
X112771988Y-97768612D01*
X112664069Y-97637112D01*
X112664066Y-97637107D01*
X112583879Y-97487087D01*
X112560874Y-97411250D01*
X112534496Y-97324295D01*
X112517822Y-97155000D01*
X112534496Y-96985705D01*
X112583878Y-96822916D01*
X112583879Y-96822913D01*
X112664066Y-96672893D01*
X112664067Y-96672892D01*
X112664069Y-96672888D01*
X112771988Y-96541388D01*
X112903488Y-96433469D01*
X112903492Y-96433467D01*
X112903493Y-96433466D01*
X113053513Y-96353279D01*
X113053516Y-96353278D01*
X113216305Y-96303896D01*
X113300888Y-96295565D01*
X113343179Y-96291400D01*
X113732821Y-96291400D01*
X113775112Y-96295565D01*
G37*
G36*
X126955002Y-96578081D02*
G01*
X126984197Y-96586938D01*
X127011109Y-96601323D01*
X127039458Y-96624588D01*
X127079305Y-96664435D01*
X127079316Y-96664444D01*
X127441709Y-97026837D01*
X127441718Y-97026848D01*
X127481565Y-97066695D01*
X127504830Y-97095044D01*
X127519215Y-97121956D01*
X127528072Y-97151151D01*
X127531062Y-97181517D01*
X127528072Y-97211883D01*
X127519215Y-97241078D01*
X127504830Y-97267990D01*
X127481565Y-97296339D01*
X127441718Y-97336186D01*
X127441709Y-97336197D01*
X127132350Y-97645556D01*
X127132339Y-97645565D01*
X127092492Y-97685412D01*
X127064143Y-97708677D01*
X127037231Y-97723062D01*
X127008036Y-97731919D01*
X126977670Y-97734909D01*
X126947304Y-97731919D01*
X126918109Y-97723062D01*
X126891197Y-97708677D01*
X126862848Y-97685412D01*
X126823001Y-97645565D01*
X126822990Y-97645556D01*
X126460597Y-97283163D01*
X126460588Y-97283152D01*
X126420741Y-97243305D01*
X126397476Y-97214956D01*
X126383091Y-97188044D01*
X126374234Y-97158849D01*
X126371244Y-97128483D01*
X126374234Y-97098117D01*
X126383091Y-97068922D01*
X126397476Y-97042010D01*
X126420741Y-97013661D01*
X126460588Y-96973814D01*
X126460597Y-96973803D01*
X126769956Y-96664444D01*
X126769967Y-96664435D01*
X126809814Y-96624588D01*
X126838163Y-96601323D01*
X126865075Y-96586938D01*
X126894270Y-96578081D01*
X126924636Y-96575091D01*
X126955002Y-96578081D01*
G37*
G36*
X146082116Y-96683595D02*
G01*
X146111311Y-96692452D01*
X146138223Y-96706837D01*
X146161808Y-96726192D01*
X146181163Y-96749777D01*
X146195548Y-96776689D01*
X146204405Y-96805884D01*
X146208000Y-96842390D01*
X146208000Y-97467610D01*
X146204405Y-97504116D01*
X146195548Y-97533311D01*
X146181163Y-97560223D01*
X146161808Y-97583808D01*
X146138223Y-97603163D01*
X146111311Y-97617548D01*
X146082116Y-97626405D01*
X146045610Y-97630000D01*
X145495390Y-97630000D01*
X145458884Y-97626405D01*
X145429689Y-97617548D01*
X145402777Y-97603163D01*
X145379192Y-97583808D01*
X145359837Y-97560223D01*
X145345452Y-97533311D01*
X145336595Y-97504116D01*
X145333000Y-97467610D01*
X145333000Y-96842390D01*
X145336595Y-96805884D01*
X145345452Y-96776689D01*
X145359837Y-96749777D01*
X145379192Y-96726192D01*
X145402777Y-96706837D01*
X145429689Y-96692452D01*
X145458884Y-96683595D01*
X145495390Y-96680000D01*
X146045610Y-96680000D01*
X146082116Y-96683595D01*
G37*
G36*
X123222116Y-96683595D02*
G01*
X123251311Y-96692452D01*
X123278223Y-96706837D01*
X123301808Y-96726192D01*
X123321163Y-96749777D01*
X123335548Y-96776689D01*
X123344405Y-96805884D01*
X123348000Y-96842390D01*
X123348000Y-97467610D01*
X123344405Y-97504116D01*
X123335548Y-97533311D01*
X123321163Y-97560223D01*
X123301808Y-97583808D01*
X123278223Y-97603163D01*
X123251311Y-97617548D01*
X123222116Y-97626405D01*
X123185610Y-97630000D01*
X122635390Y-97630000D01*
X122598884Y-97626405D01*
X122569689Y-97617548D01*
X122542777Y-97603163D01*
X122519192Y-97583808D01*
X122499837Y-97560223D01*
X122485452Y-97533311D01*
X122476595Y-97504116D01*
X122473000Y-97467610D01*
X122473000Y-96842390D01*
X122476595Y-96805884D01*
X122485452Y-96776689D01*
X122499837Y-96749777D01*
X122519192Y-96726192D01*
X122542777Y-96706837D01*
X122569689Y-96692452D01*
X122598884Y-96683595D01*
X122635390Y-96680000D01*
X123185610Y-96680000D01*
X123222116Y-96683595D01*
G37*
G36*
X124797116Y-96683595D02*
G01*
X124826311Y-96692452D01*
X124853223Y-96706837D01*
X124876808Y-96726192D01*
X124896163Y-96749777D01*
X124910548Y-96776689D01*
X124919405Y-96805884D01*
X124923000Y-96842390D01*
X124923000Y-97467610D01*
X124919405Y-97504116D01*
X124910548Y-97533311D01*
X124896163Y-97560223D01*
X124876808Y-97583808D01*
X124853223Y-97603163D01*
X124826311Y-97617548D01*
X124797116Y-97626405D01*
X124760610Y-97630000D01*
X124210390Y-97630000D01*
X124173884Y-97626405D01*
X124144689Y-97617548D01*
X124117777Y-97603163D01*
X124094192Y-97583808D01*
X124074837Y-97560223D01*
X124060452Y-97533311D01*
X124051595Y-97504116D01*
X124048000Y-97467610D01*
X124048000Y-96842390D01*
X124051595Y-96805884D01*
X124060452Y-96776689D01*
X124074837Y-96749777D01*
X124094192Y-96726192D01*
X124117777Y-96706837D01*
X124144689Y-96692452D01*
X124173884Y-96683595D01*
X124210390Y-96680000D01*
X124760610Y-96680000D01*
X124797116Y-96683595D01*
G37*
G36*
X153702116Y-96683595D02*
G01*
X153731311Y-96692452D01*
X153758223Y-96706837D01*
X153781808Y-96726192D01*
X153801163Y-96749777D01*
X153815548Y-96776689D01*
X153824405Y-96805884D01*
X153828000Y-96842390D01*
X153828000Y-97467610D01*
X153824405Y-97504116D01*
X153815548Y-97533311D01*
X153801163Y-97560223D01*
X153781808Y-97583808D01*
X153758223Y-97603163D01*
X153731311Y-97617548D01*
X153702116Y-97626405D01*
X153665610Y-97630000D01*
X153115390Y-97630000D01*
X153078884Y-97626405D01*
X153049689Y-97617548D01*
X153022777Y-97603163D01*
X152999192Y-97583808D01*
X152979837Y-97560223D01*
X152965452Y-97533311D01*
X152956595Y-97504116D01*
X152953000Y-97467610D01*
X152953000Y-96842390D01*
X152956595Y-96805884D01*
X152965452Y-96776689D01*
X152979837Y-96749777D01*
X152999192Y-96726192D01*
X153022777Y-96706837D01*
X153049689Y-96692452D01*
X153078884Y-96683595D01*
X153115390Y-96680000D01*
X153665610Y-96680000D01*
X153702116Y-96683595D01*
G37*
G36*
X147657116Y-96683595D02*
G01*
X147686311Y-96692452D01*
X147713223Y-96706837D01*
X147736808Y-96726192D01*
X147756163Y-96749777D01*
X147770548Y-96776689D01*
X147779405Y-96805884D01*
X147783000Y-96842390D01*
X147783000Y-97467610D01*
X147779405Y-97504116D01*
X147770548Y-97533311D01*
X147756163Y-97560223D01*
X147736808Y-97583808D01*
X147713223Y-97603163D01*
X147686311Y-97617548D01*
X147657116Y-97626405D01*
X147620610Y-97630000D01*
X147070390Y-97630000D01*
X147033884Y-97626405D01*
X147004689Y-97617548D01*
X146977777Y-97603163D01*
X146954192Y-97583808D01*
X146934837Y-97560223D01*
X146920452Y-97533311D01*
X146911595Y-97504116D01*
X146908000Y-97467610D01*
X146908000Y-96842390D01*
X146911595Y-96805884D01*
X146920452Y-96776689D01*
X146934837Y-96749777D01*
X146954192Y-96726192D01*
X146977777Y-96706837D01*
X147004689Y-96692452D01*
X147033884Y-96683595D01*
X147070390Y-96680000D01*
X147620610Y-96680000D01*
X147657116Y-96683595D01*
G37*
G36*
X155277116Y-96683595D02*
G01*
X155306311Y-96692452D01*
X155333223Y-96706837D01*
X155356808Y-96726192D01*
X155376163Y-96749777D01*
X155390548Y-96776689D01*
X155399405Y-96805884D01*
X155403000Y-96842390D01*
X155403000Y-97467610D01*
X155399405Y-97504116D01*
X155390548Y-97533311D01*
X155376163Y-97560223D01*
X155356808Y-97583808D01*
X155333223Y-97603163D01*
X155306311Y-97617548D01*
X155277116Y-97626405D01*
X155240610Y-97630000D01*
X154690390Y-97630000D01*
X154653884Y-97626405D01*
X154624689Y-97617548D01*
X154597777Y-97603163D01*
X154574192Y-97583808D01*
X154554837Y-97560223D01*
X154540452Y-97533311D01*
X154531595Y-97504116D01*
X154528000Y-97467610D01*
X154528000Y-96842390D01*
X154531595Y-96805884D01*
X154540452Y-96776689D01*
X154554837Y-96749777D01*
X154574192Y-96726192D01*
X154597777Y-96706837D01*
X154624689Y-96692452D01*
X154653884Y-96683595D01*
X154690390Y-96680000D01*
X155240610Y-96680000D01*
X155277116Y-96683595D01*
G37*
G36*
X177888000Y-96735000D02*
G01*
X176188000Y-96735000D01*
X176188000Y-95035000D01*
X177888000Y-95035000D01*
X177888000Y-96735000D01*
G37*
G36*
X128068696Y-95464387D02*
G01*
X128097891Y-95473244D01*
X128124803Y-95487629D01*
X128153152Y-95510894D01*
X128192999Y-95550741D01*
X128193010Y-95550750D01*
X128555403Y-95913143D01*
X128555412Y-95913154D01*
X128595259Y-95953001D01*
X128618524Y-95981350D01*
X128632909Y-96008262D01*
X128641766Y-96037457D01*
X128644756Y-96067823D01*
X128641766Y-96098189D01*
X128632909Y-96127384D01*
X128618524Y-96154296D01*
X128595259Y-96182645D01*
X128555412Y-96222492D01*
X128555403Y-96222503D01*
X128246044Y-96531862D01*
X128246033Y-96531871D01*
X128206186Y-96571718D01*
X128177837Y-96594983D01*
X128150925Y-96609368D01*
X128121730Y-96618225D01*
X128091364Y-96621215D01*
X128060998Y-96618225D01*
X128031803Y-96609368D01*
X128004891Y-96594983D01*
X127976542Y-96571718D01*
X127936695Y-96531871D01*
X127936684Y-96531862D01*
X127574291Y-96169469D01*
X127574282Y-96169458D01*
X127534435Y-96129611D01*
X127511170Y-96101262D01*
X127496785Y-96074350D01*
X127487928Y-96045155D01*
X127484938Y-96014789D01*
X127487928Y-95984423D01*
X127496785Y-95955228D01*
X127511170Y-95928316D01*
X127534435Y-95899967D01*
X127574282Y-95860120D01*
X127574291Y-95860109D01*
X127883650Y-95550750D01*
X127883661Y-95550741D01*
X127923508Y-95510894D01*
X127951857Y-95487629D01*
X127978769Y-95473244D01*
X128007964Y-95464387D01*
X128038330Y-95461397D01*
X128068696Y-95464387D01*
G37*
G36*
X113775112Y-93755565D02*
G01*
X113859695Y-93763896D01*
X114022484Y-93813278D01*
X114022487Y-93813279D01*
X114172507Y-93893466D01*
X114172508Y-93893467D01*
X114172512Y-93893469D01*
X114304012Y-94001388D01*
X114411931Y-94132888D01*
X114411933Y-94132892D01*
X114411934Y-94132893D01*
X114492121Y-94282913D01*
X114492122Y-94282916D01*
X114541504Y-94445705D01*
X114558178Y-94615000D01*
X114541504Y-94784295D01*
X114515126Y-94871250D01*
X114492121Y-94947087D01*
X114411934Y-95097107D01*
X114411931Y-95097112D01*
X114304012Y-95228612D01*
X114172512Y-95336531D01*
X114172508Y-95336533D01*
X114172507Y-95336534D01*
X114022487Y-95416721D01*
X114022484Y-95416722D01*
X113859695Y-95466104D01*
X113787201Y-95473244D01*
X113732821Y-95478600D01*
X113343179Y-95478600D01*
X113288799Y-95473244D01*
X113216305Y-95466104D01*
X113053516Y-95416722D01*
X113053513Y-95416721D01*
X112903493Y-95336534D01*
X112903492Y-95336533D01*
X112903488Y-95336531D01*
X112771988Y-95228612D01*
X112664069Y-95097112D01*
X112664066Y-95097107D01*
X112583879Y-94947087D01*
X112560874Y-94871250D01*
X112534496Y-94784295D01*
X112517822Y-94615000D01*
X112534496Y-94445705D01*
X112583878Y-94282916D01*
X112583879Y-94282913D01*
X112664066Y-94132893D01*
X112664067Y-94132892D01*
X112664069Y-94132888D01*
X112771988Y-94001388D01*
X112903488Y-93893469D01*
X112903492Y-93893467D01*
X112903493Y-93893466D01*
X113053513Y-93813279D01*
X113053516Y-93813278D01*
X113216305Y-93763896D01*
X113300888Y-93755565D01*
X113343179Y-93751400D01*
X113732821Y-93751400D01*
X113775112Y-93755565D01*
G37*
G36*
X124797116Y-94143595D02*
G01*
X124826311Y-94152452D01*
X124853223Y-94166837D01*
X124876808Y-94186192D01*
X124896163Y-94209777D01*
X124910548Y-94236689D01*
X124919405Y-94265884D01*
X124923000Y-94302390D01*
X124923000Y-94927610D01*
X124919405Y-94964116D01*
X124910548Y-94993311D01*
X124896163Y-95020223D01*
X124876808Y-95043808D01*
X124853223Y-95063163D01*
X124826311Y-95077548D01*
X124797116Y-95086405D01*
X124760610Y-95090000D01*
X124210390Y-95090000D01*
X124173884Y-95086405D01*
X124144689Y-95077548D01*
X124117777Y-95063163D01*
X124094192Y-95043808D01*
X124074837Y-95020223D01*
X124060452Y-94993311D01*
X124051595Y-94964116D01*
X124048000Y-94927610D01*
X124048000Y-94302390D01*
X124051595Y-94265884D01*
X124060452Y-94236689D01*
X124074837Y-94209777D01*
X124094192Y-94186192D01*
X124117777Y-94166837D01*
X124144689Y-94152452D01*
X124173884Y-94143595D01*
X124210390Y-94140000D01*
X124760610Y-94140000D01*
X124797116Y-94143595D01*
G37*
G36*
X123222116Y-94143595D02*
G01*
X123251311Y-94152452D01*
X123278223Y-94166837D01*
X123301808Y-94186192D01*
X123321163Y-94209777D01*
X123335548Y-94236689D01*
X123344405Y-94265884D01*
X123348000Y-94302390D01*
X123348000Y-94927610D01*
X123344405Y-94964116D01*
X123335548Y-94993311D01*
X123321163Y-95020223D01*
X123301808Y-95043808D01*
X123278223Y-95063163D01*
X123251311Y-95077548D01*
X123222116Y-95086405D01*
X123185610Y-95090000D01*
X122635390Y-95090000D01*
X122598884Y-95086405D01*
X122569689Y-95077548D01*
X122542777Y-95063163D01*
X122519192Y-95043808D01*
X122499837Y-95020223D01*
X122485452Y-94993311D01*
X122476595Y-94964116D01*
X122473000Y-94927610D01*
X122473000Y-94302390D01*
X122476595Y-94265884D01*
X122485452Y-94236689D01*
X122499837Y-94209777D01*
X122519192Y-94186192D01*
X122542777Y-94166837D01*
X122569689Y-94152452D01*
X122598884Y-94143595D01*
X122635390Y-94140000D01*
X123185610Y-94140000D01*
X123222116Y-94143595D01*
G37*
G36*
X126398155Y-93881775D02*
G01*
X126427350Y-93890632D01*
X126454262Y-93905017D01*
X126482611Y-93928282D01*
X126522458Y-93968129D01*
X126522469Y-93968138D01*
X126884862Y-94330531D01*
X126884871Y-94330542D01*
X126924718Y-94370389D01*
X126947983Y-94398738D01*
X126962368Y-94425650D01*
X126971225Y-94454845D01*
X126974215Y-94485211D01*
X126971225Y-94515577D01*
X126962368Y-94544772D01*
X126947983Y-94571684D01*
X126924718Y-94600033D01*
X126884871Y-94639880D01*
X126884862Y-94639891D01*
X126575503Y-94949250D01*
X126575492Y-94949259D01*
X126535645Y-94989106D01*
X126507296Y-95012371D01*
X126480384Y-95026756D01*
X126451189Y-95035613D01*
X126420823Y-95038603D01*
X126390457Y-95035613D01*
X126361262Y-95026756D01*
X126334350Y-95012371D01*
X126306001Y-94989106D01*
X126266154Y-94949259D01*
X126266143Y-94949250D01*
X125903750Y-94586857D01*
X125903741Y-94586846D01*
X125863894Y-94546999D01*
X125840629Y-94518650D01*
X125826244Y-94491738D01*
X125817387Y-94462543D01*
X125814397Y-94432177D01*
X125817387Y-94401811D01*
X125826244Y-94372616D01*
X125840629Y-94345704D01*
X125863894Y-94317355D01*
X125903741Y-94277508D01*
X125903750Y-94277497D01*
X126213109Y-93968138D01*
X126213120Y-93968129D01*
X126252967Y-93928282D01*
X126281316Y-93905017D01*
X126308228Y-93890632D01*
X126337423Y-93881775D01*
X126367789Y-93878785D01*
X126398155Y-93881775D01*
G37*
G36*
X127511849Y-92768081D02*
G01*
X127541044Y-92776938D01*
X127567956Y-92791323D01*
X127596305Y-92814588D01*
X127636152Y-92854435D01*
X127636163Y-92854444D01*
X127998556Y-93216837D01*
X127998565Y-93216848D01*
X128038412Y-93256695D01*
X128061677Y-93285044D01*
X128076062Y-93311956D01*
X128084919Y-93341151D01*
X128087909Y-93371517D01*
X128084919Y-93401883D01*
X128076062Y-93431078D01*
X128061677Y-93457990D01*
X128038412Y-93486339D01*
X127998565Y-93526186D01*
X127998556Y-93526197D01*
X127689197Y-93835556D01*
X127689186Y-93835565D01*
X127649339Y-93875412D01*
X127620990Y-93898677D01*
X127594078Y-93913062D01*
X127564883Y-93921919D01*
X127534517Y-93924909D01*
X127504151Y-93921919D01*
X127474956Y-93913062D01*
X127448044Y-93898677D01*
X127419695Y-93875412D01*
X127379848Y-93835565D01*
X127379837Y-93835556D01*
X127017444Y-93473163D01*
X127017435Y-93473152D01*
X126977588Y-93433305D01*
X126954323Y-93404956D01*
X126939938Y-93378044D01*
X126931081Y-93348849D01*
X126928091Y-93318483D01*
X126931081Y-93288117D01*
X126939938Y-93258922D01*
X126954323Y-93232010D01*
X126977588Y-93203661D01*
X127017435Y-93163814D01*
X127017444Y-93163803D01*
X127326803Y-92854444D01*
X127326814Y-92854435D01*
X127366661Y-92814588D01*
X127395010Y-92791323D01*
X127421922Y-92776938D01*
X127451117Y-92768081D01*
X127481483Y-92765091D01*
X127511849Y-92768081D01*
G37*
G36*
X113775112Y-91215565D02*
G01*
X113859695Y-91223896D01*
X114022484Y-91273278D01*
X114022487Y-91273279D01*
X114172507Y-91353466D01*
X114172508Y-91353467D01*
X114172512Y-91353469D01*
X114304012Y-91461388D01*
X114411931Y-91592888D01*
X114411933Y-91592892D01*
X114411934Y-91592893D01*
X114492121Y-91742913D01*
X114492122Y-91742916D01*
X114541504Y-91905705D01*
X114558178Y-92075000D01*
X114541504Y-92244295D01*
X114499319Y-92383358D01*
X114492121Y-92407087D01*
X114411934Y-92557107D01*
X114411931Y-92557112D01*
X114304012Y-92688612D01*
X114172512Y-92796531D01*
X114172508Y-92796533D01*
X114172507Y-92796534D01*
X114022487Y-92876721D01*
X114022484Y-92876722D01*
X113859695Y-92926104D01*
X113775112Y-92934435D01*
X113732821Y-92938600D01*
X113343179Y-92938600D01*
X113300888Y-92934435D01*
X113216305Y-92926104D01*
X113053516Y-92876722D01*
X113053513Y-92876721D01*
X112903493Y-92796534D01*
X112903492Y-92796533D01*
X112903488Y-92796531D01*
X112771988Y-92688612D01*
X112664069Y-92557112D01*
X112664066Y-92557107D01*
X112583879Y-92407087D01*
X112576681Y-92383358D01*
X112534496Y-92244295D01*
X112517822Y-92075000D01*
X112534496Y-91905705D01*
X112583878Y-91742916D01*
X112583879Y-91742913D01*
X112664066Y-91592893D01*
X112664067Y-91592892D01*
X112664069Y-91592888D01*
X112771988Y-91461388D01*
X112903488Y-91353469D01*
X112903492Y-91353467D01*
X112903493Y-91353466D01*
X113053513Y-91273279D01*
X113053516Y-91273278D01*
X113216305Y-91223896D01*
X113300888Y-91215565D01*
X113343179Y-91211400D01*
X113732821Y-91211400D01*
X113775112Y-91215565D01*
G37*
G36*
X177630711Y-88851088D02*
G01*
X178000511Y-89004264D01*
X178000513Y-89004265D01*
X178333325Y-89226643D01*
X178616357Y-89509675D01*
X178833015Y-89833926D01*
X178838736Y-89842489D01*
X178991912Y-90212289D01*
X179070000Y-90604864D01*
X179070000Y-91005136D01*
X178991912Y-91397711D01*
X178840857Y-91762390D01*
X178838735Y-91767513D01*
X178754351Y-91893803D01*
X178635851Y-92071151D01*
X178616357Y-92100325D01*
X178333325Y-92383357D01*
X178000513Y-92605735D01*
X178000512Y-92605736D01*
X178000511Y-92605736D01*
X177630711Y-92758912D01*
X177238136Y-92837000D01*
X176837864Y-92837000D01*
X176445289Y-92758912D01*
X176075489Y-92605736D01*
X176075488Y-92605736D01*
X176075487Y-92605735D01*
X175742675Y-92383357D01*
X175459643Y-92100325D01*
X175440150Y-92071151D01*
X175321649Y-91893803D01*
X175237265Y-91767513D01*
X175235143Y-91762390D01*
X175084088Y-91397711D01*
X175006000Y-91005136D01*
X175006000Y-90604864D01*
X175084088Y-90212289D01*
X175237264Y-89842489D01*
X175242986Y-89833926D01*
X175459643Y-89509675D01*
X175742675Y-89226643D01*
X176075487Y-89004265D01*
X176075489Y-89004264D01*
X176445289Y-88851088D01*
X176837864Y-88773000D01*
X177238136Y-88773000D01*
X177630711Y-88851088D01*
G37*
G36*
X126241849Y-91498081D02*
G01*
X126271044Y-91506938D01*
X126297956Y-91521323D01*
X126326305Y-91544588D01*
X126366152Y-91584435D01*
X126366163Y-91584444D01*
X126728556Y-91946837D01*
X126728565Y-91946848D01*
X126768412Y-91986695D01*
X126791677Y-92015044D01*
X126806062Y-92041956D01*
X126814919Y-92071151D01*
X126817909Y-92101517D01*
X126814919Y-92131883D01*
X126806062Y-92161078D01*
X126791677Y-92187990D01*
X126768412Y-92216339D01*
X126728565Y-92256186D01*
X126728556Y-92256197D01*
X126419197Y-92565556D01*
X126419186Y-92565565D01*
X126379339Y-92605412D01*
X126350990Y-92628677D01*
X126324078Y-92643062D01*
X126294883Y-92651919D01*
X126264517Y-92654909D01*
X126234151Y-92651919D01*
X126204956Y-92643062D01*
X126178044Y-92628677D01*
X126149695Y-92605412D01*
X126109848Y-92565565D01*
X126109837Y-92565556D01*
X125747444Y-92203163D01*
X125747435Y-92203152D01*
X125707588Y-92163305D01*
X125684323Y-92134956D01*
X125669938Y-92108044D01*
X125661081Y-92078849D01*
X125658091Y-92048483D01*
X125661081Y-92018117D01*
X125669938Y-91988922D01*
X125684323Y-91962010D01*
X125707588Y-91933661D01*
X125747435Y-91893814D01*
X125747444Y-91893803D01*
X126056803Y-91584444D01*
X126056814Y-91584435D01*
X126096661Y-91544588D01*
X126125010Y-91521323D01*
X126151922Y-91506938D01*
X126181117Y-91498081D01*
X126211483Y-91495091D01*
X126241849Y-91498081D01*
G37*
G36*
X124797116Y-91603595D02*
G01*
X124826311Y-91612452D01*
X124853223Y-91626837D01*
X124876808Y-91646192D01*
X124896163Y-91669777D01*
X124910548Y-91696689D01*
X124919405Y-91725884D01*
X124923000Y-91762390D01*
X124923000Y-92387610D01*
X124919405Y-92424116D01*
X124910548Y-92453311D01*
X124896163Y-92480223D01*
X124876808Y-92503808D01*
X124853223Y-92523163D01*
X124826311Y-92537548D01*
X124797116Y-92546405D01*
X124760610Y-92550000D01*
X124210390Y-92550000D01*
X124173884Y-92546405D01*
X124144689Y-92537548D01*
X124117777Y-92523163D01*
X124094192Y-92503808D01*
X124074837Y-92480223D01*
X124060452Y-92453311D01*
X124051595Y-92424116D01*
X124048000Y-92387610D01*
X124048000Y-91762390D01*
X124051595Y-91725884D01*
X124060452Y-91696689D01*
X124074837Y-91669777D01*
X124094192Y-91646192D01*
X124117777Y-91626837D01*
X124144689Y-91612452D01*
X124173884Y-91603595D01*
X124210390Y-91600000D01*
X124760610Y-91600000D01*
X124797116Y-91603595D01*
G37*
G36*
X123222116Y-91603595D02*
G01*
X123251311Y-91612452D01*
X123278223Y-91626837D01*
X123301808Y-91646192D01*
X123321163Y-91669777D01*
X123335548Y-91696689D01*
X123344405Y-91725884D01*
X123348000Y-91762390D01*
X123348000Y-92387610D01*
X123344405Y-92424116D01*
X123335548Y-92453311D01*
X123321163Y-92480223D01*
X123301808Y-92503808D01*
X123278223Y-92523163D01*
X123251311Y-92537548D01*
X123222116Y-92546405D01*
X123185610Y-92550000D01*
X122635390Y-92550000D01*
X122598884Y-92546405D01*
X122569689Y-92537548D01*
X122542777Y-92523163D01*
X122519192Y-92503808D01*
X122499837Y-92480223D01*
X122485452Y-92453311D01*
X122476595Y-92424116D01*
X122473000Y-92387610D01*
X122473000Y-91762390D01*
X122476595Y-91725884D01*
X122485452Y-91696689D01*
X122499837Y-91669777D01*
X122519192Y-91646192D01*
X122542777Y-91626837D01*
X122569689Y-91612452D01*
X122598884Y-91603595D01*
X122635390Y-91600000D01*
X123185610Y-91600000D01*
X123222116Y-91603595D01*
G37*
G36*
X127355543Y-90384387D02*
G01*
X127384738Y-90393244D01*
X127411650Y-90407629D01*
X127439999Y-90430894D01*
X127479846Y-90470741D01*
X127479857Y-90470750D01*
X127842250Y-90833143D01*
X127842259Y-90833154D01*
X127882106Y-90873001D01*
X127905371Y-90901350D01*
X127919756Y-90928262D01*
X127928613Y-90957457D01*
X127931603Y-90987823D01*
X127928613Y-91018189D01*
X127919756Y-91047384D01*
X127905371Y-91074296D01*
X127882106Y-91102645D01*
X127842259Y-91142492D01*
X127842250Y-91142503D01*
X127532891Y-91451862D01*
X127532880Y-91451871D01*
X127493033Y-91491718D01*
X127464684Y-91514983D01*
X127437772Y-91529368D01*
X127408577Y-91538225D01*
X127378211Y-91541215D01*
X127347845Y-91538225D01*
X127318650Y-91529368D01*
X127291738Y-91514983D01*
X127263389Y-91491718D01*
X127223542Y-91451871D01*
X127223531Y-91451862D01*
X126861138Y-91089469D01*
X126861129Y-91089458D01*
X126821282Y-91049611D01*
X126798017Y-91021262D01*
X126783632Y-90994350D01*
X126774775Y-90965155D01*
X126771785Y-90934789D01*
X126774775Y-90904423D01*
X126783632Y-90875228D01*
X126798017Y-90848316D01*
X126821282Y-90819967D01*
X126861129Y-90780120D01*
X126861138Y-90780109D01*
X127170497Y-90470750D01*
X127170508Y-90470741D01*
X127210355Y-90430894D01*
X127238704Y-90407629D01*
X127265616Y-90393244D01*
X127294811Y-90384387D01*
X127325177Y-90381397D01*
X127355543Y-90384387D01*
G37*
G36*
X113775112Y-88675565D02*
G01*
X113859695Y-88683896D01*
X114022484Y-88733278D01*
X114022487Y-88733279D01*
X114172507Y-88813466D01*
X114172508Y-88813467D01*
X114172512Y-88813469D01*
X114304012Y-88921388D01*
X114411931Y-89052888D01*
X114411933Y-89052892D01*
X114411934Y-89052893D01*
X114492121Y-89202913D01*
X114492122Y-89202916D01*
X114541504Y-89365705D01*
X114558178Y-89535000D01*
X114541504Y-89704295D01*
X114515126Y-89791250D01*
X114492121Y-89867087D01*
X114411934Y-90017107D01*
X114411931Y-90017112D01*
X114304012Y-90148612D01*
X114172512Y-90256531D01*
X114172508Y-90256533D01*
X114172507Y-90256534D01*
X114022487Y-90336721D01*
X114022484Y-90336722D01*
X113859695Y-90386104D01*
X113787201Y-90393244D01*
X113732821Y-90398600D01*
X113343179Y-90398600D01*
X113288799Y-90393244D01*
X113216305Y-90386104D01*
X113053516Y-90336722D01*
X113053513Y-90336721D01*
X112903493Y-90256534D01*
X112903492Y-90256533D01*
X112903488Y-90256531D01*
X112771988Y-90148612D01*
X112664069Y-90017112D01*
X112664066Y-90017107D01*
X112583879Y-89867087D01*
X112560874Y-89791250D01*
X112534496Y-89704295D01*
X112517822Y-89535000D01*
X112534496Y-89365705D01*
X112583878Y-89202916D01*
X112583879Y-89202913D01*
X112664066Y-89052893D01*
X112664067Y-89052892D01*
X112664069Y-89052888D01*
X112771988Y-88921388D01*
X112903488Y-88813469D01*
X112903492Y-88813467D01*
X112903493Y-88813466D01*
X113053513Y-88733279D01*
X113053516Y-88733278D01*
X113216305Y-88683896D01*
X113300888Y-88675565D01*
X113343179Y-88671400D01*
X113732821Y-88671400D01*
X113775112Y-88675565D01*
G37*
G36*
X123222116Y-89063595D02*
G01*
X123251311Y-89072452D01*
X123278223Y-89086837D01*
X123301808Y-89106192D01*
X123321163Y-89129777D01*
X123335548Y-89156689D01*
X123344405Y-89185884D01*
X123348000Y-89222390D01*
X123348000Y-89847610D01*
X123344405Y-89884116D01*
X123335548Y-89913311D01*
X123321163Y-89940223D01*
X123301808Y-89963808D01*
X123278223Y-89983163D01*
X123251311Y-89997548D01*
X123222116Y-90006405D01*
X123185610Y-90010000D01*
X122635390Y-90010000D01*
X122598884Y-90006405D01*
X122569689Y-89997548D01*
X122542777Y-89983163D01*
X122519192Y-89963808D01*
X122499837Y-89940223D01*
X122485452Y-89913311D01*
X122476595Y-89884116D01*
X122473000Y-89847610D01*
X122473000Y-89222390D01*
X122476595Y-89185884D01*
X122485452Y-89156689D01*
X122499837Y-89129777D01*
X122519192Y-89106192D01*
X122542777Y-89086837D01*
X122569689Y-89072452D01*
X122598884Y-89063595D01*
X122635390Y-89060000D01*
X123185610Y-89060000D01*
X123222116Y-89063595D01*
G37*
G36*
X124797116Y-89063595D02*
G01*
X124826311Y-89072452D01*
X124853223Y-89086837D01*
X124876808Y-89106192D01*
X124896163Y-89129777D01*
X124910548Y-89156689D01*
X124919405Y-89185884D01*
X124923000Y-89222390D01*
X124923000Y-89847610D01*
X124919405Y-89884116D01*
X124910548Y-89913311D01*
X124896163Y-89940223D01*
X124876808Y-89963808D01*
X124853223Y-89983163D01*
X124826311Y-89997548D01*
X124797116Y-90006405D01*
X124760610Y-90010000D01*
X124210390Y-90010000D01*
X124173884Y-90006405D01*
X124144689Y-89997548D01*
X124117777Y-89983163D01*
X124094192Y-89963808D01*
X124074837Y-89940223D01*
X124060452Y-89913311D01*
X124051595Y-89884116D01*
X124048000Y-89847610D01*
X124048000Y-89222390D01*
X124051595Y-89185884D01*
X124060452Y-89156689D01*
X124074837Y-89129777D01*
X124094192Y-89106192D01*
X124117777Y-89086837D01*
X124144689Y-89072452D01*
X124173884Y-89063595D01*
X124210390Y-89060000D01*
X124760610Y-89060000D01*
X124797116Y-89063595D01*
G37*
G36*
X113775112Y-86135565D02*
G01*
X113859695Y-86143896D01*
X114022484Y-86193278D01*
X114022487Y-86193279D01*
X114172507Y-86273466D01*
X114172508Y-86273467D01*
X114172512Y-86273469D01*
X114304012Y-86381388D01*
X114411931Y-86512888D01*
X114411933Y-86512892D01*
X114411934Y-86512893D01*
X114492121Y-86662913D01*
X114492122Y-86662916D01*
X114541504Y-86825705D01*
X114558178Y-86995000D01*
X114541504Y-87164295D01*
X114515126Y-87251250D01*
X114492121Y-87327087D01*
X114411934Y-87477107D01*
X114411931Y-87477112D01*
X114304012Y-87608612D01*
X114172512Y-87716531D01*
X114172508Y-87716533D01*
X114172507Y-87716534D01*
X114022487Y-87796721D01*
X114022484Y-87796722D01*
X113859695Y-87846104D01*
X113775112Y-87854435D01*
X113732821Y-87858600D01*
X113343179Y-87858600D01*
X113300888Y-87854435D01*
X113216305Y-87846104D01*
X113053516Y-87796722D01*
X113053513Y-87796721D01*
X112903493Y-87716534D01*
X112903492Y-87716533D01*
X112903488Y-87716531D01*
X112771988Y-87608612D01*
X112664069Y-87477112D01*
X112664066Y-87477107D01*
X112583879Y-87327087D01*
X112560874Y-87251250D01*
X112534496Y-87164295D01*
X112517822Y-86995000D01*
X112534496Y-86825705D01*
X112583878Y-86662916D01*
X112583879Y-86662913D01*
X112664066Y-86512893D01*
X112664067Y-86512892D01*
X112664069Y-86512888D01*
X112771988Y-86381388D01*
X112903488Y-86273469D01*
X112903492Y-86273467D01*
X112903493Y-86273466D01*
X113053513Y-86193279D01*
X113053516Y-86193278D01*
X113216305Y-86143896D01*
X113300888Y-86135565D01*
X113343179Y-86131400D01*
X113732821Y-86131400D01*
X113775112Y-86135565D01*
G37*
G36*
X124797116Y-86523595D02*
G01*
X124826311Y-86532452D01*
X124853223Y-86546837D01*
X124876808Y-86566192D01*
X124896163Y-86589777D01*
X124910548Y-86616689D01*
X124919405Y-86645884D01*
X124923000Y-86682390D01*
X124923000Y-87307610D01*
X124919405Y-87344116D01*
X124910548Y-87373311D01*
X124896163Y-87400223D01*
X124876808Y-87423808D01*
X124853223Y-87443163D01*
X124826311Y-87457548D01*
X124797116Y-87466405D01*
X124760610Y-87470000D01*
X124210390Y-87470000D01*
X124173884Y-87466405D01*
X124144689Y-87457548D01*
X124117777Y-87443163D01*
X124094192Y-87423808D01*
X124074837Y-87400223D01*
X124060452Y-87373311D01*
X124051595Y-87344116D01*
X124048000Y-87307610D01*
X124048000Y-86682390D01*
X124051595Y-86645884D01*
X124060452Y-86616689D01*
X124074837Y-86589777D01*
X124094192Y-86566192D01*
X124117777Y-86546837D01*
X124144689Y-86532452D01*
X124173884Y-86523595D01*
X124210390Y-86520000D01*
X124760610Y-86520000D01*
X124797116Y-86523595D01*
G37*
G36*
X123222116Y-86523595D02*
G01*
X123251311Y-86532452D01*
X123278223Y-86546837D01*
X123301808Y-86566192D01*
X123321163Y-86589777D01*
X123335548Y-86616689D01*
X123344405Y-86645884D01*
X123348000Y-86682390D01*
X123348000Y-87307610D01*
X123344405Y-87344116D01*
X123335548Y-87373311D01*
X123321163Y-87400223D01*
X123301808Y-87423808D01*
X123278223Y-87443163D01*
X123251311Y-87457548D01*
X123222116Y-87466405D01*
X123185610Y-87470000D01*
X122635390Y-87470000D01*
X122598884Y-87466405D01*
X122569689Y-87457548D01*
X122542777Y-87443163D01*
X122519192Y-87423808D01*
X122499837Y-87400223D01*
X122485452Y-87373311D01*
X122476595Y-87344116D01*
X122473000Y-87307610D01*
X122473000Y-86682390D01*
X122476595Y-86645884D01*
X122485452Y-86616689D01*
X122499837Y-86589777D01*
X122519192Y-86566192D01*
X122542777Y-86546837D01*
X122569689Y-86532452D01*
X122598884Y-86523595D01*
X122635390Y-86520000D01*
X123185610Y-86520000D01*
X123222116Y-86523595D01*
G37*
G36*
X117697116Y-84808595D02*
G01*
X117726311Y-84817452D01*
X117753223Y-84831837D01*
X117776808Y-84851192D01*
X117796163Y-84874777D01*
X117810548Y-84901689D01*
X117819405Y-84930884D01*
X117823000Y-84967390D01*
X117823000Y-85517610D01*
X117819405Y-85554116D01*
X117810548Y-85583311D01*
X117796163Y-85610223D01*
X117776808Y-85633808D01*
X117753223Y-85653163D01*
X117726311Y-85667548D01*
X117697116Y-85676405D01*
X117660610Y-85680000D01*
X117035390Y-85680000D01*
X116998884Y-85676405D01*
X116969689Y-85667548D01*
X116942777Y-85653163D01*
X116919192Y-85633808D01*
X116899837Y-85610223D01*
X116885452Y-85583311D01*
X116876595Y-85554116D01*
X116873000Y-85517610D01*
X116873000Y-84967390D01*
X116876595Y-84930884D01*
X116885452Y-84901689D01*
X116899837Y-84874777D01*
X116919192Y-84851192D01*
X116942777Y-84831837D01*
X116969689Y-84817452D01*
X116998884Y-84808595D01*
X117035390Y-84805000D01*
X117660610Y-84805000D01*
X117697116Y-84808595D01*
G37*
G36*
X117697116Y-83233595D02*
G01*
X117726311Y-83242452D01*
X117753223Y-83256837D01*
X117776808Y-83276192D01*
X117796163Y-83299777D01*
X117810548Y-83326689D01*
X117819405Y-83355884D01*
X117823000Y-83392390D01*
X117823000Y-83942610D01*
X117819405Y-83979116D01*
X117810548Y-84008311D01*
X117796163Y-84035223D01*
X117776808Y-84058808D01*
X117753223Y-84078163D01*
X117726311Y-84092548D01*
X117697116Y-84101405D01*
X117660610Y-84105000D01*
X117035390Y-84105000D01*
X116998884Y-84101405D01*
X116969689Y-84092548D01*
X116942777Y-84078163D01*
X116919192Y-84058808D01*
X116899837Y-84035223D01*
X116885452Y-84008311D01*
X116876595Y-83979116D01*
X116873000Y-83942610D01*
X116873000Y-83392390D01*
X116876595Y-83355884D01*
X116885452Y-83326689D01*
X116899837Y-83299777D01*
X116919192Y-83276192D01*
X116942777Y-83256837D01*
X116969689Y-83242452D01*
X116998884Y-83233595D01*
X117035390Y-83230000D01*
X117660610Y-83230000D01*
X117697116Y-83233595D01*
G37*
G36*
X130397116Y-82268595D02*
G01*
X130426311Y-82277452D01*
X130453223Y-82291837D01*
X130476808Y-82311192D01*
X130496163Y-82334777D01*
X130510548Y-82361689D01*
X130519405Y-82390884D01*
X130523000Y-82427390D01*
X130523000Y-82977610D01*
X130519405Y-83014116D01*
X130510548Y-83043311D01*
X130496163Y-83070223D01*
X130476808Y-83093808D01*
X130453223Y-83113163D01*
X130426311Y-83127548D01*
X130397116Y-83136405D01*
X130360610Y-83140000D01*
X129735390Y-83140000D01*
X129698884Y-83136405D01*
X129669689Y-83127548D01*
X129642777Y-83113163D01*
X129619192Y-83093808D01*
X129599837Y-83070223D01*
X129585452Y-83043311D01*
X129576595Y-83014116D01*
X129573000Y-82977610D01*
X129573000Y-82427390D01*
X129576595Y-82390884D01*
X129585452Y-82361689D01*
X129599837Y-82334777D01*
X129619192Y-82311192D01*
X129642777Y-82291837D01*
X129669689Y-82277452D01*
X129698884Y-82268595D01*
X129735390Y-82265000D01*
X130360610Y-82265000D01*
X130397116Y-82268595D01*
G37*
G36*
X150717116Y-82268595D02*
G01*
X150746311Y-82277452D01*
X150773223Y-82291837D01*
X150796808Y-82311192D01*
X150816163Y-82334777D01*
X150830548Y-82361689D01*
X150839405Y-82390884D01*
X150843000Y-82427390D01*
X150843000Y-82977610D01*
X150839405Y-83014116D01*
X150830548Y-83043311D01*
X150816163Y-83070223D01*
X150796808Y-83093808D01*
X150773223Y-83113163D01*
X150746311Y-83127548D01*
X150717116Y-83136405D01*
X150680610Y-83140000D01*
X150055390Y-83140000D01*
X150018884Y-83136405D01*
X149989689Y-83127548D01*
X149962777Y-83113163D01*
X149939192Y-83093808D01*
X149919837Y-83070223D01*
X149905452Y-83043311D01*
X149896595Y-83014116D01*
X149893000Y-82977610D01*
X149893000Y-82427390D01*
X149896595Y-82390884D01*
X149905452Y-82361689D01*
X149919837Y-82334777D01*
X149939192Y-82311192D01*
X149962777Y-82291837D01*
X149989689Y-82277452D01*
X150018884Y-82268595D01*
X150055390Y-82265000D01*
X150680610Y-82265000D01*
X150717116Y-82268595D01*
G37*
G36*
X148177116Y-82268595D02*
G01*
X148206311Y-82277452D01*
X148233223Y-82291837D01*
X148256808Y-82311192D01*
X148276163Y-82334777D01*
X148290548Y-82361689D01*
X148299405Y-82390884D01*
X148303000Y-82427390D01*
X148303000Y-82977610D01*
X148299405Y-83014116D01*
X148290548Y-83043311D01*
X148276163Y-83070223D01*
X148256808Y-83093808D01*
X148233223Y-83113163D01*
X148206311Y-83127548D01*
X148177116Y-83136405D01*
X148140610Y-83140000D01*
X147515390Y-83140000D01*
X147478884Y-83136405D01*
X147449689Y-83127548D01*
X147422777Y-83113163D01*
X147399192Y-83093808D01*
X147379837Y-83070223D01*
X147365452Y-83043311D01*
X147356595Y-83014116D01*
X147353000Y-82977610D01*
X147353000Y-82427390D01*
X147356595Y-82390884D01*
X147365452Y-82361689D01*
X147379837Y-82334777D01*
X147399192Y-82311192D01*
X147422777Y-82291837D01*
X147449689Y-82277452D01*
X147478884Y-82268595D01*
X147515390Y-82265000D01*
X148140610Y-82265000D01*
X148177116Y-82268595D01*
G37*
G36*
X132937116Y-82268595D02*
G01*
X132966311Y-82277452D01*
X132993223Y-82291837D01*
X133016808Y-82311192D01*
X133036163Y-82334777D01*
X133050548Y-82361689D01*
X133059405Y-82390884D01*
X133063000Y-82427390D01*
X133063000Y-82977610D01*
X133059405Y-83014116D01*
X133050548Y-83043311D01*
X133036163Y-83070223D01*
X133016808Y-83093808D01*
X132993223Y-83113163D01*
X132966311Y-83127548D01*
X132937116Y-83136405D01*
X132900610Y-83140000D01*
X132275390Y-83140000D01*
X132238884Y-83136405D01*
X132209689Y-83127548D01*
X132182777Y-83113163D01*
X132159192Y-83093808D01*
X132139837Y-83070223D01*
X132125452Y-83043311D01*
X132116595Y-83014116D01*
X132113000Y-82977610D01*
X132113000Y-82427390D01*
X132116595Y-82390884D01*
X132125452Y-82361689D01*
X132139837Y-82334777D01*
X132159192Y-82311192D01*
X132182777Y-82291837D01*
X132209689Y-82277452D01*
X132238884Y-82268595D01*
X132275390Y-82265000D01*
X132900610Y-82265000D01*
X132937116Y-82268595D01*
G37*
G36*
X155797116Y-82268595D02*
G01*
X155826311Y-82277452D01*
X155853223Y-82291837D01*
X155876808Y-82311192D01*
X155896163Y-82334777D01*
X155910548Y-82361689D01*
X155919405Y-82390884D01*
X155923000Y-82427390D01*
X155923000Y-82977610D01*
X155919405Y-83014116D01*
X155910548Y-83043311D01*
X155896163Y-83070223D01*
X155876808Y-83093808D01*
X155853223Y-83113163D01*
X155826311Y-83127548D01*
X155797116Y-83136405D01*
X155760610Y-83140000D01*
X155135390Y-83140000D01*
X155098884Y-83136405D01*
X155069689Y-83127548D01*
X155042777Y-83113163D01*
X155019192Y-83093808D01*
X154999837Y-83070223D01*
X154985452Y-83043311D01*
X154976595Y-83014116D01*
X154973000Y-82977610D01*
X154973000Y-82427390D01*
X154976595Y-82390884D01*
X154985452Y-82361689D01*
X154999837Y-82334777D01*
X155019192Y-82311192D01*
X155042777Y-82291837D01*
X155069689Y-82277452D01*
X155098884Y-82268595D01*
X155135390Y-82265000D01*
X155760610Y-82265000D01*
X155797116Y-82268595D01*
G37*
G36*
X135477116Y-82268595D02*
G01*
X135506311Y-82277452D01*
X135533223Y-82291837D01*
X135556808Y-82311192D01*
X135576163Y-82334777D01*
X135590548Y-82361689D01*
X135599405Y-82390884D01*
X135603000Y-82427390D01*
X135603000Y-82977610D01*
X135599405Y-83014116D01*
X135590548Y-83043311D01*
X135576163Y-83070223D01*
X135556808Y-83093808D01*
X135533223Y-83113163D01*
X135506311Y-83127548D01*
X135477116Y-83136405D01*
X135440610Y-83140000D01*
X134815390Y-83140000D01*
X134778884Y-83136405D01*
X134749689Y-83127548D01*
X134722777Y-83113163D01*
X134699192Y-83093808D01*
X134679837Y-83070223D01*
X134665452Y-83043311D01*
X134656595Y-83014116D01*
X134653000Y-82977610D01*
X134653000Y-82427390D01*
X134656595Y-82390884D01*
X134665452Y-82361689D01*
X134679837Y-82334777D01*
X134699192Y-82311192D01*
X134722777Y-82291837D01*
X134749689Y-82277452D01*
X134778884Y-82268595D01*
X134815390Y-82265000D01*
X135440610Y-82265000D01*
X135477116Y-82268595D01*
G37*
G36*
X153257116Y-82268595D02*
G01*
X153286311Y-82277452D01*
X153313223Y-82291837D01*
X153336808Y-82311192D01*
X153356163Y-82334777D01*
X153370548Y-82361689D01*
X153379405Y-82390884D01*
X153383000Y-82427390D01*
X153383000Y-82977610D01*
X153379405Y-83014116D01*
X153370548Y-83043311D01*
X153356163Y-83070223D01*
X153336808Y-83093808D01*
X153313223Y-83113163D01*
X153286311Y-83127548D01*
X153257116Y-83136405D01*
X153220610Y-83140000D01*
X152595390Y-83140000D01*
X152558884Y-83136405D01*
X152529689Y-83127548D01*
X152502777Y-83113163D01*
X152479192Y-83093808D01*
X152459837Y-83070223D01*
X152445452Y-83043311D01*
X152436595Y-83014116D01*
X152433000Y-82977610D01*
X152433000Y-82427390D01*
X152436595Y-82390884D01*
X152445452Y-82361689D01*
X152459837Y-82334777D01*
X152479192Y-82311192D01*
X152502777Y-82291837D01*
X152529689Y-82277452D01*
X152558884Y-82268595D01*
X152595390Y-82265000D01*
X153220610Y-82265000D01*
X153257116Y-82268595D01*
G37*
G36*
X138017116Y-82268595D02*
G01*
X138046311Y-82277452D01*
X138073223Y-82291837D01*
X138096808Y-82311192D01*
X138116163Y-82334777D01*
X138130548Y-82361689D01*
X138139405Y-82390884D01*
X138143000Y-82427390D01*
X138143000Y-82977610D01*
X138139405Y-83014116D01*
X138130548Y-83043311D01*
X138116163Y-83070223D01*
X138096808Y-83093808D01*
X138073223Y-83113163D01*
X138046311Y-83127548D01*
X138017116Y-83136405D01*
X137980610Y-83140000D01*
X137355390Y-83140000D01*
X137318884Y-83136405D01*
X137289689Y-83127548D01*
X137262777Y-83113163D01*
X137239192Y-83093808D01*
X137219837Y-83070223D01*
X137205452Y-83043311D01*
X137196595Y-83014116D01*
X137193000Y-82977610D01*
X137193000Y-82427390D01*
X137196595Y-82390884D01*
X137205452Y-82361689D01*
X137219837Y-82334777D01*
X137239192Y-82311192D01*
X137262777Y-82291837D01*
X137289689Y-82277452D01*
X137318884Y-82268595D01*
X137355390Y-82265000D01*
X137980610Y-82265000D01*
X138017116Y-82268595D01*
G37*
G36*
X140557116Y-82268595D02*
G01*
X140586311Y-82277452D01*
X140613223Y-82291837D01*
X140636808Y-82311192D01*
X140656163Y-82334777D01*
X140670548Y-82361689D01*
X140679405Y-82390884D01*
X140683000Y-82427390D01*
X140683000Y-82977610D01*
X140679405Y-83014116D01*
X140670548Y-83043311D01*
X140656163Y-83070223D01*
X140636808Y-83093808D01*
X140613223Y-83113163D01*
X140586311Y-83127548D01*
X140557116Y-83136405D01*
X140520610Y-83140000D01*
X139895390Y-83140000D01*
X139858884Y-83136405D01*
X139829689Y-83127548D01*
X139802777Y-83113163D01*
X139779192Y-83093808D01*
X139759837Y-83070223D01*
X139745452Y-83043311D01*
X139736595Y-83014116D01*
X139733000Y-82977610D01*
X139733000Y-82427390D01*
X139736595Y-82390884D01*
X139745452Y-82361689D01*
X139759837Y-82334777D01*
X139779192Y-82311192D01*
X139802777Y-82291837D01*
X139829689Y-82277452D01*
X139858884Y-82268595D01*
X139895390Y-82265000D01*
X140520610Y-82265000D01*
X140557116Y-82268595D01*
G37*
G36*
X158337116Y-82268595D02*
G01*
X158366311Y-82277452D01*
X158393223Y-82291837D01*
X158416808Y-82311192D01*
X158436163Y-82334777D01*
X158450548Y-82361689D01*
X158459405Y-82390884D01*
X158463000Y-82427390D01*
X158463000Y-82977610D01*
X158459405Y-83014116D01*
X158450548Y-83043311D01*
X158436163Y-83070223D01*
X158416808Y-83093808D01*
X158393223Y-83113163D01*
X158366311Y-83127548D01*
X158337116Y-83136405D01*
X158300610Y-83140000D01*
X157675390Y-83140000D01*
X157638884Y-83136405D01*
X157609689Y-83127548D01*
X157582777Y-83113163D01*
X157559192Y-83093808D01*
X157539837Y-83070223D01*
X157525452Y-83043311D01*
X157516595Y-83014116D01*
X157513000Y-82977610D01*
X157513000Y-82427390D01*
X157516595Y-82390884D01*
X157525452Y-82361689D01*
X157539837Y-82334777D01*
X157559192Y-82311192D01*
X157582777Y-82291837D01*
X157609689Y-82277452D01*
X157638884Y-82268595D01*
X157675390Y-82265000D01*
X158300610Y-82265000D01*
X158337116Y-82268595D01*
G37*
G36*
X160877116Y-82268595D02*
G01*
X160906311Y-82277452D01*
X160933223Y-82291837D01*
X160956808Y-82311192D01*
X160976163Y-82334777D01*
X160990548Y-82361689D01*
X160999405Y-82390884D01*
X161003000Y-82427390D01*
X161003000Y-82977610D01*
X160999405Y-83014116D01*
X160990548Y-83043311D01*
X160976163Y-83070223D01*
X160956808Y-83093808D01*
X160933223Y-83113163D01*
X160906311Y-83127548D01*
X160877116Y-83136405D01*
X160840610Y-83140000D01*
X160215390Y-83140000D01*
X160178884Y-83136405D01*
X160149689Y-83127548D01*
X160122777Y-83113163D01*
X160099192Y-83093808D01*
X160079837Y-83070223D01*
X160065452Y-83043311D01*
X160056595Y-83014116D01*
X160053000Y-82977610D01*
X160053000Y-82427390D01*
X160056595Y-82390884D01*
X160065452Y-82361689D01*
X160079837Y-82334777D01*
X160099192Y-82311192D01*
X160122777Y-82291837D01*
X160149689Y-82277452D01*
X160178884Y-82268595D01*
X160215390Y-82265000D01*
X160840610Y-82265000D01*
X160877116Y-82268595D01*
G37*
G36*
X125317116Y-82268595D02*
G01*
X125346311Y-82277452D01*
X125373223Y-82291837D01*
X125396808Y-82311192D01*
X125416163Y-82334777D01*
X125430548Y-82361689D01*
X125439405Y-82390884D01*
X125443000Y-82427390D01*
X125443000Y-82977610D01*
X125439405Y-83014116D01*
X125430548Y-83043311D01*
X125416163Y-83070223D01*
X125396808Y-83093808D01*
X125373223Y-83113163D01*
X125346311Y-83127548D01*
X125317116Y-83136405D01*
X125280610Y-83140000D01*
X124655390Y-83140000D01*
X124618884Y-83136405D01*
X124589689Y-83127548D01*
X124562777Y-83113163D01*
X124539192Y-83093808D01*
X124519837Y-83070223D01*
X124505452Y-83043311D01*
X124496595Y-83014116D01*
X124493000Y-82977610D01*
X124493000Y-82427390D01*
X124496595Y-82390884D01*
X124505452Y-82361689D01*
X124519837Y-82334777D01*
X124539192Y-82311192D01*
X124562777Y-82291837D01*
X124589689Y-82277452D01*
X124618884Y-82268595D01*
X124655390Y-82265000D01*
X125280610Y-82265000D01*
X125317116Y-82268595D01*
G37*
G36*
X143097116Y-82268595D02*
G01*
X143126311Y-82277452D01*
X143153223Y-82291837D01*
X143176808Y-82311192D01*
X143196163Y-82334777D01*
X143210548Y-82361689D01*
X143219405Y-82390884D01*
X143223000Y-82427390D01*
X143223000Y-82977610D01*
X143219405Y-83014116D01*
X143210548Y-83043311D01*
X143196163Y-83070223D01*
X143176808Y-83093808D01*
X143153223Y-83113163D01*
X143126311Y-83127548D01*
X143097116Y-83136405D01*
X143060610Y-83140000D01*
X142435390Y-83140000D01*
X142398884Y-83136405D01*
X142369689Y-83127548D01*
X142342777Y-83113163D01*
X142319192Y-83093808D01*
X142299837Y-83070223D01*
X142285452Y-83043311D01*
X142276595Y-83014116D01*
X142273000Y-82977610D01*
X142273000Y-82427390D01*
X142276595Y-82390884D01*
X142285452Y-82361689D01*
X142299837Y-82334777D01*
X142319192Y-82311192D01*
X142342777Y-82291837D01*
X142369689Y-82277452D01*
X142398884Y-82268595D01*
X142435390Y-82265000D01*
X143060610Y-82265000D01*
X143097116Y-82268595D01*
G37*
G36*
X145637116Y-82268595D02*
G01*
X145666311Y-82277452D01*
X145693223Y-82291837D01*
X145716808Y-82311192D01*
X145736163Y-82334777D01*
X145750548Y-82361689D01*
X145759405Y-82390884D01*
X145763000Y-82427390D01*
X145763000Y-82977610D01*
X145759405Y-83014116D01*
X145750548Y-83043311D01*
X145736163Y-83070223D01*
X145716808Y-83093808D01*
X145693223Y-83113163D01*
X145666311Y-83127548D01*
X145637116Y-83136405D01*
X145600610Y-83140000D01*
X144975390Y-83140000D01*
X144938884Y-83136405D01*
X144909689Y-83127548D01*
X144882777Y-83113163D01*
X144859192Y-83093808D01*
X144839837Y-83070223D01*
X144825452Y-83043311D01*
X144816595Y-83014116D01*
X144813000Y-82977610D01*
X144813000Y-82427390D01*
X144816595Y-82390884D01*
X144825452Y-82361689D01*
X144839837Y-82334777D01*
X144859192Y-82311192D01*
X144882777Y-82291837D01*
X144909689Y-82277452D01*
X144938884Y-82268595D01*
X144975390Y-82265000D01*
X145600610Y-82265000D01*
X145637116Y-82268595D01*
G37*
G36*
X163417116Y-82268595D02*
G01*
X163446311Y-82277452D01*
X163473223Y-82291837D01*
X163496808Y-82311192D01*
X163516163Y-82334777D01*
X163530548Y-82361689D01*
X163539405Y-82390884D01*
X163543000Y-82427390D01*
X163543000Y-82977610D01*
X163539405Y-83014116D01*
X163530548Y-83043311D01*
X163516163Y-83070223D01*
X163496808Y-83093808D01*
X163473223Y-83113163D01*
X163446311Y-83127548D01*
X163417116Y-83136405D01*
X163380610Y-83140000D01*
X162755390Y-83140000D01*
X162718884Y-83136405D01*
X162689689Y-83127548D01*
X162662777Y-83113163D01*
X162639192Y-83093808D01*
X162619837Y-83070223D01*
X162605452Y-83043311D01*
X162596595Y-83014116D01*
X162593000Y-82977610D01*
X162593000Y-82427390D01*
X162596595Y-82390884D01*
X162605452Y-82361689D01*
X162619837Y-82334777D01*
X162639192Y-82311192D01*
X162662777Y-82291837D01*
X162689689Y-82277452D01*
X162718884Y-82268595D01*
X162755390Y-82265000D01*
X163380610Y-82265000D01*
X163417116Y-82268595D01*
G37*
G36*
X127857116Y-82268595D02*
G01*
X127886311Y-82277452D01*
X127913223Y-82291837D01*
X127936808Y-82311192D01*
X127956163Y-82334777D01*
X127970548Y-82361689D01*
X127979405Y-82390884D01*
X127983000Y-82427390D01*
X127983000Y-82977610D01*
X127979405Y-83014116D01*
X127970548Y-83043311D01*
X127956163Y-83070223D01*
X127936808Y-83093808D01*
X127913223Y-83113163D01*
X127886311Y-83127548D01*
X127857116Y-83136405D01*
X127820610Y-83140000D01*
X127195390Y-83140000D01*
X127158884Y-83136405D01*
X127129689Y-83127548D01*
X127102777Y-83113163D01*
X127079192Y-83093808D01*
X127059837Y-83070223D01*
X127045452Y-83043311D01*
X127036595Y-83014116D01*
X127033000Y-82977610D01*
X127033000Y-82427390D01*
X127036595Y-82390884D01*
X127045452Y-82361689D01*
X127059837Y-82334777D01*
X127079192Y-82311192D01*
X127102777Y-82291837D01*
X127129689Y-82277452D01*
X127158884Y-82268595D01*
X127195390Y-82265000D01*
X127820610Y-82265000D01*
X127857116Y-82268595D01*
G37*
G36*
X120823000Y-81580000D02*
G01*
X119273000Y-81580000D01*
X119273000Y-80980000D01*
X120823000Y-80980000D01*
X120823000Y-81580000D01*
G37*
G36*
X115423000Y-81580000D02*
G01*
X113873000Y-81580000D01*
X113873000Y-80980000D01*
X115423000Y-80980000D01*
X115423000Y-81580000D01*
G37*
G36*
X148177116Y-80693595D02*
G01*
X148206311Y-80702452D01*
X148233223Y-80716837D01*
X148256808Y-80736192D01*
X148276163Y-80759777D01*
X148290548Y-80786689D01*
X148299405Y-80815884D01*
X148303000Y-80852390D01*
X148303000Y-81402610D01*
X148299405Y-81439116D01*
X148290548Y-81468311D01*
X148276163Y-81495223D01*
X148256808Y-81518808D01*
X148233223Y-81538163D01*
X148206311Y-81552548D01*
X148177116Y-81561405D01*
X148140610Y-81565000D01*
X147515390Y-81565000D01*
X147478884Y-81561405D01*
X147449689Y-81552548D01*
X147422777Y-81538163D01*
X147399192Y-81518808D01*
X147379837Y-81495223D01*
X147365452Y-81468311D01*
X147356595Y-81439116D01*
X147353000Y-81402610D01*
X147353000Y-80852390D01*
X147356595Y-80815884D01*
X147365452Y-80786689D01*
X147379837Y-80759777D01*
X147399192Y-80736192D01*
X147422777Y-80716837D01*
X147449689Y-80702452D01*
X147478884Y-80693595D01*
X147515390Y-80690000D01*
X148140610Y-80690000D01*
X148177116Y-80693595D01*
G37*
G36*
X153257116Y-80693595D02*
G01*
X153286311Y-80702452D01*
X153313223Y-80716837D01*
X153336808Y-80736192D01*
X153356163Y-80759777D01*
X153370548Y-80786689D01*
X153379405Y-80815884D01*
X153383000Y-80852390D01*
X153383000Y-81402610D01*
X153379405Y-81439116D01*
X153370548Y-81468311D01*
X153356163Y-81495223D01*
X153336808Y-81518808D01*
X153313223Y-81538163D01*
X153286311Y-81552548D01*
X153257116Y-81561405D01*
X153220610Y-81565000D01*
X152595390Y-81565000D01*
X152558884Y-81561405D01*
X152529689Y-81552548D01*
X152502777Y-81538163D01*
X152479192Y-81518808D01*
X152459837Y-81495223D01*
X152445452Y-81468311D01*
X152436595Y-81439116D01*
X152433000Y-81402610D01*
X152433000Y-80852390D01*
X152436595Y-80815884D01*
X152445452Y-80786689D01*
X152459837Y-80759777D01*
X152479192Y-80736192D01*
X152502777Y-80716837D01*
X152529689Y-80702452D01*
X152558884Y-80693595D01*
X152595390Y-80690000D01*
X153220610Y-80690000D01*
X153257116Y-80693595D01*
G37*
G36*
X158337116Y-80693595D02*
G01*
X158366311Y-80702452D01*
X158393223Y-80716837D01*
X158416808Y-80736192D01*
X158436163Y-80759777D01*
X158450548Y-80786689D01*
X158459405Y-80815884D01*
X158463000Y-80852390D01*
X158463000Y-81402610D01*
X158459405Y-81439116D01*
X158450548Y-81468311D01*
X158436163Y-81495223D01*
X158416808Y-81518808D01*
X158393223Y-81538163D01*
X158366311Y-81552548D01*
X158337116Y-81561405D01*
X158300610Y-81565000D01*
X157675390Y-81565000D01*
X157638884Y-81561405D01*
X157609689Y-81552548D01*
X157582777Y-81538163D01*
X157559192Y-81518808D01*
X157539837Y-81495223D01*
X157525452Y-81468311D01*
X157516595Y-81439116D01*
X157513000Y-81402610D01*
X157513000Y-80852390D01*
X157516595Y-80815884D01*
X157525452Y-80786689D01*
X157539837Y-80759777D01*
X157559192Y-80736192D01*
X157582777Y-80716837D01*
X157609689Y-80702452D01*
X157638884Y-80693595D01*
X157675390Y-80690000D01*
X158300610Y-80690000D01*
X158337116Y-80693595D01*
G37*
G36*
X160877116Y-80693595D02*
G01*
X160906311Y-80702452D01*
X160933223Y-80716837D01*
X160956808Y-80736192D01*
X160976163Y-80759777D01*
X160990548Y-80786689D01*
X160999405Y-80815884D01*
X161003000Y-80852390D01*
X161003000Y-81402610D01*
X160999405Y-81439116D01*
X160990548Y-81468311D01*
X160976163Y-81495223D01*
X160956808Y-81518808D01*
X160933223Y-81538163D01*
X160906311Y-81552548D01*
X160877116Y-81561405D01*
X160840610Y-81565000D01*
X160215390Y-81565000D01*
X160178884Y-81561405D01*
X160149689Y-81552548D01*
X160122777Y-81538163D01*
X160099192Y-81518808D01*
X160079837Y-81495223D01*
X160065452Y-81468311D01*
X160056595Y-81439116D01*
X160053000Y-81402610D01*
X160053000Y-80852390D01*
X160056595Y-80815884D01*
X160065452Y-80786689D01*
X160079837Y-80759777D01*
X160099192Y-80736192D01*
X160122777Y-80716837D01*
X160149689Y-80702452D01*
X160178884Y-80693595D01*
X160215390Y-80690000D01*
X160840610Y-80690000D01*
X160877116Y-80693595D01*
G37*
G36*
X163417116Y-80693595D02*
G01*
X163446311Y-80702452D01*
X163473223Y-80716837D01*
X163496808Y-80736192D01*
X163516163Y-80759777D01*
X163530548Y-80786689D01*
X163539405Y-80815884D01*
X163543000Y-80852390D01*
X163543000Y-81402610D01*
X163539405Y-81439116D01*
X163530548Y-81468311D01*
X163516163Y-81495223D01*
X163496808Y-81518808D01*
X163473223Y-81538163D01*
X163446311Y-81552548D01*
X163417116Y-81561405D01*
X163380610Y-81565000D01*
X162755390Y-81565000D01*
X162718884Y-81561405D01*
X162689689Y-81552548D01*
X162662777Y-81538163D01*
X162639192Y-81518808D01*
X162619837Y-81495223D01*
X162605452Y-81468311D01*
X162596595Y-81439116D01*
X162593000Y-81402610D01*
X162593000Y-80852390D01*
X162596595Y-80815884D01*
X162605452Y-80786689D01*
X162619837Y-80759777D01*
X162639192Y-80736192D01*
X162662777Y-80716837D01*
X162689689Y-80702452D01*
X162718884Y-80693595D01*
X162755390Y-80690000D01*
X163380610Y-80690000D01*
X163417116Y-80693595D01*
G37*
G36*
X150717116Y-80693595D02*
G01*
X150746311Y-80702452D01*
X150773223Y-80716837D01*
X150796808Y-80736192D01*
X150816163Y-80759777D01*
X150830548Y-80786689D01*
X150839405Y-80815884D01*
X150843000Y-80852390D01*
X150843000Y-81402610D01*
X150839405Y-81439116D01*
X150830548Y-81468311D01*
X150816163Y-81495223D01*
X150796808Y-81518808D01*
X150773223Y-81538163D01*
X150746311Y-81552548D01*
X150717116Y-81561405D01*
X150680610Y-81565000D01*
X150055390Y-81565000D01*
X150018884Y-81561405D01*
X149989689Y-81552548D01*
X149962777Y-81538163D01*
X149939192Y-81518808D01*
X149919837Y-81495223D01*
X149905452Y-81468311D01*
X149896595Y-81439116D01*
X149893000Y-81402610D01*
X149893000Y-80852390D01*
X149896595Y-80815884D01*
X149905452Y-80786689D01*
X149919837Y-80759777D01*
X149939192Y-80736192D01*
X149962777Y-80716837D01*
X149989689Y-80702452D01*
X150018884Y-80693595D01*
X150055390Y-80690000D01*
X150680610Y-80690000D01*
X150717116Y-80693595D01*
G37*
G36*
X145637116Y-80693595D02*
G01*
X145666311Y-80702452D01*
X145693223Y-80716837D01*
X145716808Y-80736192D01*
X145736163Y-80759777D01*
X145750548Y-80786689D01*
X145759405Y-80815884D01*
X145763000Y-80852390D01*
X145763000Y-81402610D01*
X145759405Y-81439116D01*
X145750548Y-81468311D01*
X145736163Y-81495223D01*
X145716808Y-81518808D01*
X145693223Y-81538163D01*
X145666311Y-81552548D01*
X145637116Y-81561405D01*
X145600610Y-81565000D01*
X144975390Y-81565000D01*
X144938884Y-81561405D01*
X144909689Y-81552548D01*
X144882777Y-81538163D01*
X144859192Y-81518808D01*
X144839837Y-81495223D01*
X144825452Y-81468311D01*
X144816595Y-81439116D01*
X144813000Y-81402610D01*
X144813000Y-80852390D01*
X144816595Y-80815884D01*
X144825452Y-80786689D01*
X144839837Y-80759777D01*
X144859192Y-80736192D01*
X144882777Y-80716837D01*
X144909689Y-80702452D01*
X144938884Y-80693595D01*
X144975390Y-80690000D01*
X145600610Y-80690000D01*
X145637116Y-80693595D01*
G37*
G36*
X143097116Y-80693595D02*
G01*
X143126311Y-80702452D01*
X143153223Y-80716837D01*
X143176808Y-80736192D01*
X143196163Y-80759777D01*
X143210548Y-80786689D01*
X143219405Y-80815884D01*
X143223000Y-80852390D01*
X143223000Y-81402610D01*
X143219405Y-81439116D01*
X143210548Y-81468311D01*
X143196163Y-81495223D01*
X143176808Y-81518808D01*
X143153223Y-81538163D01*
X143126311Y-81552548D01*
X143097116Y-81561405D01*
X143060610Y-81565000D01*
X142435390Y-81565000D01*
X142398884Y-81561405D01*
X142369689Y-81552548D01*
X142342777Y-81538163D01*
X142319192Y-81518808D01*
X142299837Y-81495223D01*
X142285452Y-81468311D01*
X142276595Y-81439116D01*
X142273000Y-81402610D01*
X142273000Y-80852390D01*
X142276595Y-80815884D01*
X142285452Y-80786689D01*
X142299837Y-80759777D01*
X142319192Y-80736192D01*
X142342777Y-80716837D01*
X142369689Y-80702452D01*
X142398884Y-80693595D01*
X142435390Y-80690000D01*
X143060610Y-80690000D01*
X143097116Y-80693595D01*
G37*
G36*
X140557116Y-80693595D02*
G01*
X140586311Y-80702452D01*
X140613223Y-80716837D01*
X140636808Y-80736192D01*
X140656163Y-80759777D01*
X140670548Y-80786689D01*
X140679405Y-80815884D01*
X140683000Y-80852390D01*
X140683000Y-81402610D01*
X140679405Y-81439116D01*
X140670548Y-81468311D01*
X140656163Y-81495223D01*
X140636808Y-81518808D01*
X140613223Y-81538163D01*
X140586311Y-81552548D01*
X140557116Y-81561405D01*
X140520610Y-81565000D01*
X139895390Y-81565000D01*
X139858884Y-81561405D01*
X139829689Y-81552548D01*
X139802777Y-81538163D01*
X139779192Y-81518808D01*
X139759837Y-81495223D01*
X139745452Y-81468311D01*
X139736595Y-81439116D01*
X139733000Y-81402610D01*
X139733000Y-80852390D01*
X139736595Y-80815884D01*
X139745452Y-80786689D01*
X139759837Y-80759777D01*
X139779192Y-80736192D01*
X139802777Y-80716837D01*
X139829689Y-80702452D01*
X139858884Y-80693595D01*
X139895390Y-80690000D01*
X140520610Y-80690000D01*
X140557116Y-80693595D01*
G37*
G36*
X138017116Y-80693595D02*
G01*
X138046311Y-80702452D01*
X138073223Y-80716837D01*
X138096808Y-80736192D01*
X138116163Y-80759777D01*
X138130548Y-80786689D01*
X138139405Y-80815884D01*
X138143000Y-80852390D01*
X138143000Y-81402610D01*
X138139405Y-81439116D01*
X138130548Y-81468311D01*
X138116163Y-81495223D01*
X138096808Y-81518808D01*
X138073223Y-81538163D01*
X138046311Y-81552548D01*
X138017116Y-81561405D01*
X137980610Y-81565000D01*
X137355390Y-81565000D01*
X137318884Y-81561405D01*
X137289689Y-81552548D01*
X137262777Y-81538163D01*
X137239192Y-81518808D01*
X137219837Y-81495223D01*
X137205452Y-81468311D01*
X137196595Y-81439116D01*
X137193000Y-81402610D01*
X137193000Y-80852390D01*
X137196595Y-80815884D01*
X137205452Y-80786689D01*
X137219837Y-80759777D01*
X137239192Y-80736192D01*
X137262777Y-80716837D01*
X137289689Y-80702452D01*
X137318884Y-80693595D01*
X137355390Y-80690000D01*
X137980610Y-80690000D01*
X138017116Y-80693595D01*
G37*
G36*
X135477116Y-80693595D02*
G01*
X135506311Y-80702452D01*
X135533223Y-80716837D01*
X135556808Y-80736192D01*
X135576163Y-80759777D01*
X135590548Y-80786689D01*
X135599405Y-80815884D01*
X135603000Y-80852390D01*
X135603000Y-81402610D01*
X135599405Y-81439116D01*
X135590548Y-81468311D01*
X135576163Y-81495223D01*
X135556808Y-81518808D01*
X135533223Y-81538163D01*
X135506311Y-81552548D01*
X135477116Y-81561405D01*
X135440610Y-81565000D01*
X134815390Y-81565000D01*
X134778884Y-81561405D01*
X134749689Y-81552548D01*
X134722777Y-81538163D01*
X134699192Y-81518808D01*
X134679837Y-81495223D01*
X134665452Y-81468311D01*
X134656595Y-81439116D01*
X134653000Y-81402610D01*
X134653000Y-80852390D01*
X134656595Y-80815884D01*
X134665452Y-80786689D01*
X134679837Y-80759777D01*
X134699192Y-80736192D01*
X134722777Y-80716837D01*
X134749689Y-80702452D01*
X134778884Y-80693595D01*
X134815390Y-80690000D01*
X135440610Y-80690000D01*
X135477116Y-80693595D01*
G37*
G36*
X132937116Y-80693595D02*
G01*
X132966311Y-80702452D01*
X132993223Y-80716837D01*
X133016808Y-80736192D01*
X133036163Y-80759777D01*
X133050548Y-80786689D01*
X133059405Y-80815884D01*
X133063000Y-80852390D01*
X133063000Y-81402610D01*
X133059405Y-81439116D01*
X133050548Y-81468311D01*
X133036163Y-81495223D01*
X133016808Y-81518808D01*
X132993223Y-81538163D01*
X132966311Y-81552548D01*
X132937116Y-81561405D01*
X132900610Y-81565000D01*
X132275390Y-81565000D01*
X132238884Y-81561405D01*
X132209689Y-81552548D01*
X132182777Y-81538163D01*
X132159192Y-81518808D01*
X132139837Y-81495223D01*
X132125452Y-81468311D01*
X132116595Y-81439116D01*
X132113000Y-81402610D01*
X132113000Y-80852390D01*
X132116595Y-80815884D01*
X132125452Y-80786689D01*
X132139837Y-80759777D01*
X132159192Y-80736192D01*
X132182777Y-80716837D01*
X132209689Y-80702452D01*
X132238884Y-80693595D01*
X132275390Y-80690000D01*
X132900610Y-80690000D01*
X132937116Y-80693595D01*
G37*
G36*
X130397116Y-80693595D02*
G01*
X130426311Y-80702452D01*
X130453223Y-80716837D01*
X130476808Y-80736192D01*
X130496163Y-80759777D01*
X130510548Y-80786689D01*
X130519405Y-80815884D01*
X130523000Y-80852390D01*
X130523000Y-81402610D01*
X130519405Y-81439116D01*
X130510548Y-81468311D01*
X130496163Y-81495223D01*
X130476808Y-81518808D01*
X130453223Y-81538163D01*
X130426311Y-81552548D01*
X130397116Y-81561405D01*
X130360610Y-81565000D01*
X129735390Y-81565000D01*
X129698884Y-81561405D01*
X129669689Y-81552548D01*
X129642777Y-81538163D01*
X129619192Y-81518808D01*
X129599837Y-81495223D01*
X129585452Y-81468311D01*
X129576595Y-81439116D01*
X129573000Y-81402610D01*
X129573000Y-80852390D01*
X129576595Y-80815884D01*
X129585452Y-80786689D01*
X129599837Y-80759777D01*
X129619192Y-80736192D01*
X129642777Y-80716837D01*
X129669689Y-80702452D01*
X129698884Y-80693595D01*
X129735390Y-80690000D01*
X130360610Y-80690000D01*
X130397116Y-80693595D01*
G37*
G36*
X155797116Y-80693595D02*
G01*
X155826311Y-80702452D01*
X155853223Y-80716837D01*
X155876808Y-80736192D01*
X155896163Y-80759777D01*
X155910548Y-80786689D01*
X155919405Y-80815884D01*
X155923000Y-80852390D01*
X155923000Y-81402610D01*
X155919405Y-81439116D01*
X155910548Y-81468311D01*
X155896163Y-81495223D01*
X155876808Y-81518808D01*
X155853223Y-81538163D01*
X155826311Y-81552548D01*
X155797116Y-81561405D01*
X155760610Y-81565000D01*
X155135390Y-81565000D01*
X155098884Y-81561405D01*
X155069689Y-81552548D01*
X155042777Y-81538163D01*
X155019192Y-81518808D01*
X154999837Y-81495223D01*
X154985452Y-81468311D01*
X154976595Y-81439116D01*
X154973000Y-81402610D01*
X154973000Y-80852390D01*
X154976595Y-80815884D01*
X154985452Y-80786689D01*
X154999837Y-80759777D01*
X155019192Y-80736192D01*
X155042777Y-80716837D01*
X155069689Y-80702452D01*
X155098884Y-80693595D01*
X155135390Y-80690000D01*
X155760610Y-80690000D01*
X155797116Y-80693595D01*
G37*
G36*
X127857116Y-80693595D02*
G01*
X127886311Y-80702452D01*
X127913223Y-80716837D01*
X127936808Y-80736192D01*
X127956163Y-80759777D01*
X127970548Y-80786689D01*
X127979405Y-80815884D01*
X127983000Y-80852390D01*
X127983000Y-81402610D01*
X127979405Y-81439116D01*
X127970548Y-81468311D01*
X127956163Y-81495223D01*
X127936808Y-81518808D01*
X127913223Y-81538163D01*
X127886311Y-81552548D01*
X127857116Y-81561405D01*
X127820610Y-81565000D01*
X127195390Y-81565000D01*
X127158884Y-81561405D01*
X127129689Y-81552548D01*
X127102777Y-81538163D01*
X127079192Y-81518808D01*
X127059837Y-81495223D01*
X127045452Y-81468311D01*
X127036595Y-81439116D01*
X127033000Y-81402610D01*
X127033000Y-80852390D01*
X127036595Y-80815884D01*
X127045452Y-80786689D01*
X127059837Y-80759777D01*
X127079192Y-80736192D01*
X127102777Y-80716837D01*
X127129689Y-80702452D01*
X127158884Y-80693595D01*
X127195390Y-80690000D01*
X127820610Y-80690000D01*
X127857116Y-80693595D01*
G37*
G36*
X125317116Y-80693595D02*
G01*
X125346311Y-80702452D01*
X125373223Y-80716837D01*
X125396808Y-80736192D01*
X125416163Y-80759777D01*
X125430548Y-80786689D01*
X125439405Y-80815884D01*
X125443000Y-80852390D01*
X125443000Y-81402610D01*
X125439405Y-81439116D01*
X125430548Y-81468311D01*
X125416163Y-81495223D01*
X125396808Y-81518808D01*
X125373223Y-81538163D01*
X125346311Y-81552548D01*
X125317116Y-81561405D01*
X125280610Y-81565000D01*
X124655390Y-81565000D01*
X124618884Y-81561405D01*
X124589689Y-81552548D01*
X124562777Y-81538163D01*
X124539192Y-81518808D01*
X124519837Y-81495223D01*
X124505452Y-81468311D01*
X124496595Y-81439116D01*
X124493000Y-81402610D01*
X124493000Y-80852390D01*
X124496595Y-80815884D01*
X124505452Y-80786689D01*
X124519837Y-80759777D01*
X124539192Y-80736192D01*
X124562777Y-80716837D01*
X124589689Y-80702452D01*
X124618884Y-80693595D01*
X124655390Y-80690000D01*
X125280610Y-80690000D01*
X125317116Y-80693595D01*
G37*
G36*
X115423000Y-80310000D02*
G01*
X113873000Y-80310000D01*
X113873000Y-79710000D01*
X115423000Y-79710000D01*
X115423000Y-80310000D01*
G37*
G36*
X120823000Y-80310000D02*
G01*
X119273000Y-80310000D01*
X119273000Y-79710000D01*
X120823000Y-79710000D01*
X120823000Y-80310000D01*
G37*
G36*
X120823000Y-79040000D02*
G01*
X119273000Y-79040000D01*
X119273000Y-78440000D01*
X120823000Y-78440000D01*
X120823000Y-79040000D01*
G37*
G36*
X115423000Y-79040000D02*
G01*
X113873000Y-79040000D01*
X113873000Y-78440000D01*
X115423000Y-78440000D01*
X115423000Y-79040000D01*
G37*
G36*
X122777116Y-77671095D02*
G01*
X122806311Y-77679952D01*
X122833223Y-77694337D01*
X122856808Y-77713692D01*
X122876163Y-77737277D01*
X122890548Y-77764189D01*
X122899405Y-77793384D01*
X122903000Y-77829890D01*
X122903000Y-78380110D01*
X122899405Y-78416616D01*
X122890548Y-78445811D01*
X122876163Y-78472723D01*
X122856808Y-78496308D01*
X122833223Y-78515663D01*
X122806311Y-78530048D01*
X122777116Y-78538905D01*
X122740610Y-78542500D01*
X122115390Y-78542500D01*
X122078884Y-78538905D01*
X122049689Y-78530048D01*
X122022777Y-78515663D01*
X121999192Y-78496308D01*
X121979837Y-78472723D01*
X121965452Y-78445811D01*
X121956595Y-78416616D01*
X121953000Y-78380110D01*
X121953000Y-77829890D01*
X121956595Y-77793384D01*
X121965452Y-77764189D01*
X121979837Y-77737277D01*
X121999192Y-77713692D01*
X122022777Y-77694337D01*
X122049689Y-77679952D01*
X122078884Y-77671095D01*
X122115390Y-77667500D01*
X122740610Y-77667500D01*
X122777116Y-77671095D01*
G37*
G36*
X115423000Y-77770000D02*
G01*
X113873000Y-77770000D01*
X113873000Y-77170000D01*
X115423000Y-77170000D01*
X115423000Y-77770000D01*
G37*
G36*
X120823000Y-77770000D02*
G01*
X119273000Y-77770000D01*
X119273000Y-77170000D01*
X120823000Y-77170000D01*
X120823000Y-77770000D01*
G37*
G36*
X126830711Y-73611088D02*
G01*
X126830714Y-73611089D01*
X126830713Y-73611089D01*
X127200513Y-73764265D01*
X127533325Y-73986643D01*
X127816357Y-74269675D01*
X128011346Y-74561496D01*
X128038736Y-74602489D01*
X128191912Y-74972289D01*
X128270000Y-75364864D01*
X128270000Y-75765136D01*
X128191912Y-76157711D01*
X128174598Y-76199510D01*
X128038735Y-76527513D01*
X128000204Y-76585178D01*
X127834975Y-76832462D01*
X127816357Y-76860325D01*
X127533325Y-77143357D01*
X127200513Y-77365735D01*
X127200512Y-77365736D01*
X127200511Y-77365736D01*
X126830711Y-77518912D01*
X126438136Y-77597000D01*
X126037864Y-77597000D01*
X125645289Y-77518912D01*
X125275489Y-77365736D01*
X125275488Y-77365736D01*
X125275487Y-77365735D01*
X124942675Y-77143357D01*
X124659643Y-76860325D01*
X124641026Y-76832462D01*
X124475796Y-76585178D01*
X124437265Y-76527513D01*
X124301402Y-76199510D01*
X124284088Y-76157711D01*
X124206000Y-75765136D01*
X124206000Y-75364864D01*
X124284088Y-74972289D01*
X124437264Y-74602489D01*
X124464655Y-74561496D01*
X124659643Y-74269675D01*
X124942675Y-73986643D01*
X125275487Y-73764265D01*
X125645287Y-73611089D01*
X125645286Y-73611089D01*
X125645289Y-73611088D01*
X126037864Y-73533000D01*
X126438136Y-73533000D01*
X126830711Y-73611088D01*
G37*
G36*
X122777116Y-76096095D02*
G01*
X122806311Y-76104952D01*
X122833223Y-76119337D01*
X122856808Y-76138692D01*
X122876163Y-76162277D01*
X122890548Y-76189189D01*
X122899405Y-76218384D01*
X122903000Y-76254890D01*
X122903000Y-76805110D01*
X122899405Y-76841616D01*
X122890548Y-76870811D01*
X122876163Y-76897723D01*
X122856808Y-76921308D01*
X122833223Y-76940663D01*
X122806311Y-76955048D01*
X122777116Y-76963905D01*
X122740610Y-76967500D01*
X122115390Y-76967500D01*
X122078884Y-76963905D01*
X122049689Y-76955048D01*
X122022777Y-76940663D01*
X121999192Y-76921308D01*
X121979837Y-76897723D01*
X121965452Y-76870811D01*
X121956595Y-76841616D01*
X121953000Y-76805110D01*
X121953000Y-76254890D01*
X121956595Y-76218384D01*
X121965452Y-76189189D01*
X121979837Y-76162277D01*
X121999192Y-76138692D01*
X122022777Y-76119337D01*
X122049689Y-76104952D01*
X122078884Y-76096095D01*
X122115390Y-76092500D01*
X122740610Y-76092500D01*
X122777116Y-76096095D01*
G37*
G36*
X152823294Y-74561496D02*
G01*
X152943726Y-74598029D01*
X152986087Y-74610879D01*
X153136107Y-74691066D01*
X153136110Y-74691068D01*
X153136111Y-74691069D01*
X153267612Y-74798988D01*
X153375531Y-74930488D01*
X153375533Y-74930492D01*
X153375534Y-74930493D01*
X153455721Y-75080513D01*
X153455722Y-75080516D01*
X153505104Y-75243305D01*
X153505104Y-75243307D01*
X153517600Y-75370179D01*
X153517600Y-75759820D01*
X153517076Y-75765136D01*
X153505104Y-75886694D01*
X153491440Y-75931738D01*
X153455721Y-76049488D01*
X153375534Y-76199507D01*
X153375531Y-76199512D01*
X153267612Y-76331012D01*
X153136112Y-76438931D01*
X153136108Y-76438933D01*
X153136107Y-76438934D01*
X152986087Y-76519121D01*
X152986084Y-76519122D01*
X152823295Y-76568504D01*
X152654000Y-76585178D01*
X152484706Y-76568504D01*
X152321917Y-76519122D01*
X152321914Y-76519121D01*
X152171894Y-76438934D01*
X152171893Y-76438933D01*
X152171889Y-76438931D01*
X152040388Y-76331012D01*
X151932469Y-76199512D01*
X151881926Y-76104952D01*
X151852279Y-76049487D01*
X151839723Y-76008095D01*
X151802896Y-75886695D01*
X151794538Y-75801837D01*
X151790400Y-75759821D01*
X151790400Y-75370180D01*
X151802896Y-75243308D01*
X151802896Y-75243306D01*
X151848017Y-75094563D01*
X151852279Y-75080513D01*
X151932466Y-74930493D01*
X151932470Y-74930488D01*
X152040388Y-74798988D01*
X152171888Y-74691069D01*
X152171892Y-74691067D01*
X152171893Y-74691066D01*
X152321913Y-74610879D01*
X152349571Y-74602489D01*
X152484705Y-74561496D01*
X152654000Y-74544822D01*
X152823294Y-74561496D01*
G37*
G36*
X172127294Y-74561496D02*
G01*
X172247726Y-74598029D01*
X172290087Y-74610879D01*
X172440107Y-74691066D01*
X172440110Y-74691068D01*
X172440111Y-74691069D01*
X172571612Y-74798988D01*
X172679531Y-74930488D01*
X172679533Y-74930492D01*
X172679534Y-74930493D01*
X172759721Y-75080513D01*
X172759722Y-75080516D01*
X172809104Y-75243305D01*
X172809104Y-75243307D01*
X172821600Y-75370179D01*
X172821600Y-75759820D01*
X172821076Y-75765136D01*
X172809104Y-75886694D01*
X172795440Y-75931738D01*
X172759721Y-76049488D01*
X172679534Y-76199507D01*
X172679531Y-76199512D01*
X172571612Y-76331012D01*
X172440112Y-76438931D01*
X172440108Y-76438933D01*
X172440107Y-76438934D01*
X172290087Y-76519121D01*
X172290084Y-76519122D01*
X172127295Y-76568504D01*
X171958000Y-76585178D01*
X171788706Y-76568504D01*
X171625917Y-76519122D01*
X171625914Y-76519121D01*
X171475894Y-76438934D01*
X171475893Y-76438933D01*
X171475889Y-76438931D01*
X171344388Y-76331012D01*
X171236469Y-76199512D01*
X171185926Y-76104952D01*
X171156279Y-76049487D01*
X171143723Y-76008095D01*
X171106896Y-75886695D01*
X171098538Y-75801837D01*
X171094400Y-75759821D01*
X171094400Y-75370180D01*
X171106896Y-75243308D01*
X171106896Y-75243306D01*
X171152017Y-75094563D01*
X171156279Y-75080513D01*
X171236466Y-74930493D01*
X171236470Y-74930488D01*
X171344388Y-74798988D01*
X171475888Y-74691069D01*
X171475892Y-74691067D01*
X171475893Y-74691066D01*
X171625913Y-74610879D01*
X171653571Y-74602489D01*
X171788705Y-74561496D01*
X171958000Y-74544822D01*
X172127294Y-74561496D01*
G37*
G36*
X169587294Y-74561496D02*
G01*
X169707726Y-74598029D01*
X169750087Y-74610879D01*
X169900107Y-74691066D01*
X169900110Y-74691068D01*
X169900111Y-74691069D01*
X170031612Y-74798988D01*
X170139531Y-74930488D01*
X170139533Y-74930492D01*
X170139534Y-74930493D01*
X170219721Y-75080513D01*
X170219722Y-75080516D01*
X170269104Y-75243305D01*
X170269104Y-75243307D01*
X170281600Y-75370179D01*
X170281600Y-75759820D01*
X170281076Y-75765136D01*
X170269104Y-75886694D01*
X170255440Y-75931738D01*
X170219721Y-76049488D01*
X170139534Y-76199507D01*
X170139531Y-76199512D01*
X170031612Y-76331012D01*
X169900112Y-76438931D01*
X169900108Y-76438933D01*
X169900107Y-76438934D01*
X169750087Y-76519121D01*
X169750084Y-76519122D01*
X169587295Y-76568504D01*
X169418000Y-76585178D01*
X169248706Y-76568504D01*
X169085917Y-76519122D01*
X169085914Y-76519121D01*
X168935894Y-76438934D01*
X168935893Y-76438933D01*
X168935889Y-76438931D01*
X168804388Y-76331012D01*
X168696469Y-76199512D01*
X168645926Y-76104952D01*
X168616279Y-76049487D01*
X168603723Y-76008095D01*
X168566896Y-75886695D01*
X168558538Y-75801837D01*
X168554400Y-75759821D01*
X168554400Y-75370180D01*
X168566896Y-75243308D01*
X168566896Y-75243306D01*
X168612017Y-75094563D01*
X168616279Y-75080513D01*
X168696466Y-74930493D01*
X168696470Y-74930488D01*
X168804388Y-74798988D01*
X168935888Y-74691069D01*
X168935892Y-74691067D01*
X168935893Y-74691066D01*
X169085913Y-74610879D01*
X169113571Y-74602489D01*
X169248705Y-74561496D01*
X169418000Y-74544822D01*
X169587294Y-74561496D01*
G37*
G36*
X167047294Y-74561496D02*
G01*
X167167726Y-74598029D01*
X167210087Y-74610879D01*
X167360107Y-74691066D01*
X167360110Y-74691068D01*
X167360111Y-74691069D01*
X167491612Y-74798988D01*
X167599531Y-74930488D01*
X167599533Y-74930492D01*
X167599534Y-74930493D01*
X167679721Y-75080513D01*
X167679722Y-75080516D01*
X167729104Y-75243305D01*
X167729104Y-75243307D01*
X167741600Y-75370179D01*
X167741600Y-75759820D01*
X167741076Y-75765136D01*
X167729104Y-75886694D01*
X167715440Y-75931738D01*
X167679721Y-76049488D01*
X167599534Y-76199507D01*
X167599531Y-76199512D01*
X167491612Y-76331012D01*
X167360112Y-76438931D01*
X167360108Y-76438933D01*
X167360107Y-76438934D01*
X167210087Y-76519121D01*
X167210084Y-76519122D01*
X167047295Y-76568504D01*
X166878000Y-76585178D01*
X166708706Y-76568504D01*
X166545917Y-76519122D01*
X166545914Y-76519121D01*
X166395894Y-76438934D01*
X166395893Y-76438933D01*
X166395889Y-76438931D01*
X166264388Y-76331012D01*
X166156469Y-76199512D01*
X166105926Y-76104952D01*
X166076279Y-76049487D01*
X166063723Y-76008095D01*
X166026896Y-75886695D01*
X166018538Y-75801837D01*
X166014400Y-75759821D01*
X166014400Y-75370180D01*
X166026896Y-75243308D01*
X166026896Y-75243306D01*
X166072017Y-75094563D01*
X166076279Y-75080513D01*
X166156466Y-74930493D01*
X166156470Y-74930488D01*
X166264388Y-74798988D01*
X166395888Y-74691069D01*
X166395892Y-74691067D01*
X166395893Y-74691066D01*
X166545913Y-74610879D01*
X166573571Y-74602489D01*
X166708705Y-74561496D01*
X166878000Y-74544822D01*
X167047294Y-74561496D01*
G37*
G36*
X164507294Y-74561496D02*
G01*
X164627726Y-74598029D01*
X164670087Y-74610879D01*
X164820107Y-74691066D01*
X164820110Y-74691068D01*
X164820111Y-74691069D01*
X164951612Y-74798988D01*
X165059531Y-74930488D01*
X165059533Y-74930492D01*
X165059534Y-74930493D01*
X165139721Y-75080513D01*
X165139722Y-75080516D01*
X165189104Y-75243305D01*
X165189104Y-75243307D01*
X165201600Y-75370179D01*
X165201600Y-75759820D01*
X165201076Y-75765136D01*
X165189104Y-75886694D01*
X165175440Y-75931738D01*
X165139721Y-76049488D01*
X165059534Y-76199507D01*
X165059531Y-76199512D01*
X164951612Y-76331012D01*
X164820112Y-76438931D01*
X164820108Y-76438933D01*
X164820107Y-76438934D01*
X164670087Y-76519121D01*
X164670084Y-76519122D01*
X164507295Y-76568504D01*
X164338000Y-76585178D01*
X164168706Y-76568504D01*
X164005917Y-76519122D01*
X164005914Y-76519121D01*
X163855894Y-76438934D01*
X163855893Y-76438933D01*
X163855889Y-76438931D01*
X163724388Y-76331012D01*
X163616469Y-76199512D01*
X163565926Y-76104952D01*
X163536279Y-76049487D01*
X163523723Y-76008095D01*
X163486896Y-75886695D01*
X163478538Y-75801837D01*
X163474400Y-75759821D01*
X163474400Y-75370180D01*
X163486896Y-75243308D01*
X163486896Y-75243306D01*
X163532017Y-75094563D01*
X163536279Y-75080513D01*
X163616466Y-74930493D01*
X163616470Y-74930488D01*
X163724388Y-74798988D01*
X163855888Y-74691069D01*
X163855892Y-74691067D01*
X163855893Y-74691066D01*
X164005913Y-74610879D01*
X164033571Y-74602489D01*
X164168705Y-74561496D01*
X164338000Y-74544822D01*
X164507294Y-74561496D01*
G37*
G36*
X161967294Y-74561496D02*
G01*
X162087726Y-74598029D01*
X162130087Y-74610879D01*
X162280107Y-74691066D01*
X162280110Y-74691068D01*
X162280111Y-74691069D01*
X162411612Y-74798988D01*
X162519531Y-74930488D01*
X162519533Y-74930492D01*
X162519534Y-74930493D01*
X162599721Y-75080513D01*
X162599722Y-75080516D01*
X162649104Y-75243305D01*
X162649104Y-75243307D01*
X162661600Y-75370179D01*
X162661600Y-75759820D01*
X162661076Y-75765136D01*
X162649104Y-75886694D01*
X162635440Y-75931738D01*
X162599721Y-76049488D01*
X162519534Y-76199507D01*
X162519531Y-76199512D01*
X162411612Y-76331012D01*
X162280112Y-76438931D01*
X162280108Y-76438933D01*
X162280107Y-76438934D01*
X162130087Y-76519121D01*
X162130084Y-76519122D01*
X161967295Y-76568504D01*
X161798000Y-76585178D01*
X161628706Y-76568504D01*
X161465917Y-76519122D01*
X161465914Y-76519121D01*
X161315894Y-76438934D01*
X161315893Y-76438933D01*
X161315889Y-76438931D01*
X161184388Y-76331012D01*
X161076469Y-76199512D01*
X161025926Y-76104952D01*
X160996279Y-76049487D01*
X160983723Y-76008095D01*
X160946896Y-75886695D01*
X160938538Y-75801837D01*
X160934400Y-75759821D01*
X160934400Y-75370180D01*
X160946896Y-75243308D01*
X160946896Y-75243306D01*
X160992017Y-75094563D01*
X160996279Y-75080513D01*
X161076466Y-74930493D01*
X161076470Y-74930488D01*
X161184388Y-74798988D01*
X161315888Y-74691069D01*
X161315892Y-74691067D01*
X161315893Y-74691066D01*
X161465913Y-74610879D01*
X161493571Y-74602489D01*
X161628705Y-74561496D01*
X161798000Y-74544822D01*
X161967294Y-74561496D01*
G37*
G36*
X159427294Y-74561496D02*
G01*
X159547726Y-74598029D01*
X159590087Y-74610879D01*
X159740107Y-74691066D01*
X159740110Y-74691068D01*
X159740111Y-74691069D01*
X159871612Y-74798988D01*
X159979531Y-74930488D01*
X159979533Y-74930492D01*
X159979534Y-74930493D01*
X160059721Y-75080513D01*
X160059722Y-75080516D01*
X160109104Y-75243305D01*
X160109104Y-75243307D01*
X160121600Y-75370179D01*
X160121600Y-75759820D01*
X160121076Y-75765136D01*
X160109104Y-75886694D01*
X160095440Y-75931738D01*
X160059721Y-76049488D01*
X159979534Y-76199507D01*
X159979531Y-76199512D01*
X159871612Y-76331012D01*
X159740112Y-76438931D01*
X159740108Y-76438933D01*
X159740107Y-76438934D01*
X159590087Y-76519121D01*
X159590084Y-76519122D01*
X159427295Y-76568504D01*
X159258000Y-76585178D01*
X159088706Y-76568504D01*
X158925917Y-76519122D01*
X158925914Y-76519121D01*
X158775894Y-76438934D01*
X158775893Y-76438933D01*
X158775889Y-76438931D01*
X158644388Y-76331012D01*
X158536469Y-76199512D01*
X158485926Y-76104952D01*
X158456279Y-76049487D01*
X158443723Y-76008095D01*
X158406896Y-75886695D01*
X158398538Y-75801837D01*
X158394400Y-75759821D01*
X158394400Y-75370180D01*
X158406896Y-75243308D01*
X158406896Y-75243306D01*
X158452017Y-75094563D01*
X158456279Y-75080513D01*
X158536466Y-74930493D01*
X158536470Y-74930488D01*
X158644388Y-74798988D01*
X158775888Y-74691069D01*
X158775892Y-74691067D01*
X158775893Y-74691066D01*
X158925913Y-74610879D01*
X158953571Y-74602489D01*
X159088705Y-74561496D01*
X159258000Y-74544822D01*
X159427294Y-74561496D01*
G37*
G36*
X156887294Y-74561496D02*
G01*
X157007726Y-74598029D01*
X157050087Y-74610879D01*
X157200107Y-74691066D01*
X157200110Y-74691068D01*
X157200111Y-74691069D01*
X157331612Y-74798988D01*
X157439531Y-74930488D01*
X157439533Y-74930492D01*
X157439534Y-74930493D01*
X157519721Y-75080513D01*
X157519722Y-75080516D01*
X157569104Y-75243305D01*
X157569104Y-75243307D01*
X157581600Y-75370179D01*
X157581600Y-75759820D01*
X157581076Y-75765136D01*
X157569104Y-75886694D01*
X157555440Y-75931738D01*
X157519721Y-76049488D01*
X157439534Y-76199507D01*
X157439531Y-76199512D01*
X157331612Y-76331012D01*
X157200112Y-76438931D01*
X157200108Y-76438933D01*
X157200107Y-76438934D01*
X157050087Y-76519121D01*
X157050084Y-76519122D01*
X156887295Y-76568504D01*
X156718000Y-76585178D01*
X156548706Y-76568504D01*
X156385917Y-76519122D01*
X156385914Y-76519121D01*
X156235894Y-76438934D01*
X156235893Y-76438933D01*
X156235889Y-76438931D01*
X156104388Y-76331012D01*
X155996469Y-76199512D01*
X155945926Y-76104952D01*
X155916279Y-76049487D01*
X155903723Y-76008095D01*
X155866896Y-75886695D01*
X155858538Y-75801837D01*
X155854400Y-75759821D01*
X155854400Y-75370180D01*
X155866896Y-75243308D01*
X155866896Y-75243306D01*
X155912017Y-75094563D01*
X155916279Y-75080513D01*
X155996466Y-74930493D01*
X155996470Y-74930488D01*
X156104388Y-74798988D01*
X156235888Y-74691069D01*
X156235892Y-74691067D01*
X156235893Y-74691066D01*
X156385913Y-74610879D01*
X156413571Y-74602489D01*
X156548705Y-74561496D01*
X156718000Y-74544822D01*
X156887294Y-74561496D01*
G37*
G36*
X129963294Y-74561496D02*
G01*
X130083726Y-74598029D01*
X130126087Y-74610879D01*
X130276107Y-74691066D01*
X130276110Y-74691068D01*
X130276111Y-74691069D01*
X130407612Y-74798988D01*
X130515531Y-74930488D01*
X130515533Y-74930492D01*
X130515534Y-74930493D01*
X130595721Y-75080513D01*
X130595722Y-75080516D01*
X130645104Y-75243305D01*
X130645104Y-75243307D01*
X130657600Y-75370179D01*
X130657600Y-75759820D01*
X130657076Y-75765136D01*
X130645104Y-75886694D01*
X130631440Y-75931738D01*
X130595721Y-76049488D01*
X130515534Y-76199507D01*
X130515531Y-76199512D01*
X130407612Y-76331012D01*
X130276112Y-76438931D01*
X130276108Y-76438933D01*
X130276107Y-76438934D01*
X130126087Y-76519121D01*
X130126084Y-76519122D01*
X129963295Y-76568504D01*
X129794000Y-76585178D01*
X129624706Y-76568504D01*
X129461917Y-76519122D01*
X129461914Y-76519121D01*
X129311894Y-76438934D01*
X129311893Y-76438933D01*
X129311889Y-76438931D01*
X129180388Y-76331012D01*
X129072469Y-76199512D01*
X129021926Y-76104952D01*
X128992279Y-76049487D01*
X128979723Y-76008095D01*
X128942896Y-75886695D01*
X128934538Y-75801837D01*
X128930400Y-75759821D01*
X128930400Y-75370180D01*
X128942896Y-75243308D01*
X128942896Y-75243306D01*
X128988017Y-75094563D01*
X128992279Y-75080513D01*
X129072466Y-74930493D01*
X129072470Y-74930488D01*
X129180388Y-74798988D01*
X129311888Y-74691069D01*
X129311892Y-74691067D01*
X129311893Y-74691066D01*
X129461913Y-74610879D01*
X129489571Y-74602489D01*
X129624705Y-74561496D01*
X129794000Y-74544822D01*
X129963294Y-74561496D01*
G37*
G36*
X145203294Y-74561496D02*
G01*
X145323726Y-74598029D01*
X145366087Y-74610879D01*
X145516107Y-74691066D01*
X145516110Y-74691068D01*
X145516111Y-74691069D01*
X145647612Y-74798988D01*
X145755531Y-74930488D01*
X145755533Y-74930492D01*
X145755534Y-74930493D01*
X145835721Y-75080513D01*
X145835722Y-75080516D01*
X145885104Y-75243305D01*
X145885104Y-75243307D01*
X145897600Y-75370179D01*
X145897600Y-75759820D01*
X145897076Y-75765136D01*
X145885104Y-75886694D01*
X145871440Y-75931738D01*
X145835721Y-76049488D01*
X145755534Y-76199507D01*
X145755531Y-76199512D01*
X145647612Y-76331012D01*
X145516112Y-76438931D01*
X145516108Y-76438933D01*
X145516107Y-76438934D01*
X145366087Y-76519121D01*
X145366084Y-76519122D01*
X145203295Y-76568504D01*
X145034000Y-76585178D01*
X144864706Y-76568504D01*
X144701917Y-76519122D01*
X144701914Y-76519121D01*
X144551894Y-76438934D01*
X144551893Y-76438933D01*
X144551889Y-76438931D01*
X144420388Y-76331012D01*
X144312469Y-76199512D01*
X144261926Y-76104952D01*
X144232279Y-76049487D01*
X144219723Y-76008095D01*
X144182896Y-75886695D01*
X144174538Y-75801837D01*
X144170400Y-75759821D01*
X144170400Y-75370180D01*
X144182896Y-75243308D01*
X144182896Y-75243306D01*
X144228017Y-75094563D01*
X144232279Y-75080513D01*
X144312466Y-74930493D01*
X144312470Y-74930488D01*
X144420388Y-74798988D01*
X144551888Y-74691069D01*
X144551892Y-74691067D01*
X144551893Y-74691066D01*
X144701913Y-74610879D01*
X144729571Y-74602489D01*
X144864705Y-74561496D01*
X145034000Y-74544822D01*
X145203294Y-74561496D01*
G37*
G36*
X142663294Y-74561496D02*
G01*
X142783726Y-74598029D01*
X142826087Y-74610879D01*
X142976107Y-74691066D01*
X142976110Y-74691068D01*
X142976111Y-74691069D01*
X143107612Y-74798988D01*
X143215531Y-74930488D01*
X143215533Y-74930492D01*
X143215534Y-74930493D01*
X143295721Y-75080513D01*
X143295722Y-75080516D01*
X143345104Y-75243305D01*
X143345104Y-75243307D01*
X143357600Y-75370179D01*
X143357600Y-75759820D01*
X143357076Y-75765136D01*
X143345104Y-75886694D01*
X143331440Y-75931738D01*
X143295721Y-76049488D01*
X143215534Y-76199507D01*
X143215531Y-76199512D01*
X143107612Y-76331012D01*
X142976112Y-76438931D01*
X142976108Y-76438933D01*
X142976107Y-76438934D01*
X142826087Y-76519121D01*
X142826084Y-76519122D01*
X142663295Y-76568504D01*
X142494000Y-76585178D01*
X142324706Y-76568504D01*
X142161917Y-76519122D01*
X142161914Y-76519121D01*
X142011894Y-76438934D01*
X142011893Y-76438933D01*
X142011889Y-76438931D01*
X141880388Y-76331012D01*
X141772469Y-76199512D01*
X141721926Y-76104952D01*
X141692279Y-76049487D01*
X141679723Y-76008095D01*
X141642896Y-75886695D01*
X141634538Y-75801837D01*
X141630400Y-75759821D01*
X141630400Y-75370180D01*
X141642896Y-75243308D01*
X141642896Y-75243306D01*
X141688017Y-75094563D01*
X141692279Y-75080513D01*
X141772466Y-74930493D01*
X141772470Y-74930488D01*
X141880388Y-74798988D01*
X142011888Y-74691069D01*
X142011892Y-74691067D01*
X142011893Y-74691066D01*
X142161913Y-74610879D01*
X142189571Y-74602489D01*
X142324705Y-74561496D01*
X142494000Y-74544822D01*
X142663294Y-74561496D01*
G37*
G36*
X140123294Y-74561496D02*
G01*
X140243726Y-74598029D01*
X140286087Y-74610879D01*
X140436107Y-74691066D01*
X140436110Y-74691068D01*
X140436111Y-74691069D01*
X140567612Y-74798988D01*
X140675531Y-74930488D01*
X140675533Y-74930492D01*
X140675534Y-74930493D01*
X140755721Y-75080513D01*
X140755722Y-75080516D01*
X140805104Y-75243305D01*
X140805104Y-75243307D01*
X140817600Y-75370179D01*
X140817600Y-75759820D01*
X140817076Y-75765136D01*
X140805104Y-75886694D01*
X140791440Y-75931738D01*
X140755721Y-76049488D01*
X140675534Y-76199507D01*
X140675531Y-76199512D01*
X140567612Y-76331012D01*
X140436112Y-76438931D01*
X140436108Y-76438933D01*
X140436107Y-76438934D01*
X140286087Y-76519121D01*
X140286084Y-76519122D01*
X140123295Y-76568504D01*
X139954000Y-76585178D01*
X139784706Y-76568504D01*
X139621917Y-76519122D01*
X139621914Y-76519121D01*
X139471894Y-76438934D01*
X139471893Y-76438933D01*
X139471889Y-76438931D01*
X139340388Y-76331012D01*
X139232469Y-76199512D01*
X139181926Y-76104952D01*
X139152279Y-76049487D01*
X139139723Y-76008095D01*
X139102896Y-75886695D01*
X139094538Y-75801837D01*
X139090400Y-75759821D01*
X139090400Y-75370180D01*
X139102896Y-75243308D01*
X139102896Y-75243306D01*
X139148017Y-75094563D01*
X139152279Y-75080513D01*
X139232466Y-74930493D01*
X139232470Y-74930488D01*
X139340388Y-74798988D01*
X139471888Y-74691069D01*
X139471892Y-74691067D01*
X139471893Y-74691066D01*
X139621913Y-74610879D01*
X139649571Y-74602489D01*
X139784705Y-74561496D01*
X139954000Y-74544822D01*
X140123294Y-74561496D01*
G37*
G36*
X137583294Y-74561496D02*
G01*
X137703726Y-74598029D01*
X137746087Y-74610879D01*
X137896107Y-74691066D01*
X137896110Y-74691068D01*
X137896111Y-74691069D01*
X138027612Y-74798988D01*
X138135531Y-74930488D01*
X138135533Y-74930492D01*
X138135534Y-74930493D01*
X138215721Y-75080513D01*
X138215722Y-75080516D01*
X138265104Y-75243305D01*
X138265104Y-75243307D01*
X138277600Y-75370179D01*
X138277600Y-75759820D01*
X138277076Y-75765136D01*
X138265104Y-75886694D01*
X138251440Y-75931738D01*
X138215721Y-76049488D01*
X138135534Y-76199507D01*
X138135531Y-76199512D01*
X138027612Y-76331012D01*
X137896112Y-76438931D01*
X137896108Y-76438933D01*
X137896107Y-76438934D01*
X137746087Y-76519121D01*
X137746084Y-76519122D01*
X137583295Y-76568504D01*
X137414000Y-76585178D01*
X137244706Y-76568504D01*
X137081917Y-76519122D01*
X137081914Y-76519121D01*
X136931894Y-76438934D01*
X136931893Y-76438933D01*
X136931889Y-76438931D01*
X136800388Y-76331012D01*
X136692469Y-76199512D01*
X136641926Y-76104952D01*
X136612279Y-76049487D01*
X136599723Y-76008095D01*
X136562896Y-75886695D01*
X136554538Y-75801837D01*
X136550400Y-75759821D01*
X136550400Y-75370180D01*
X136562896Y-75243308D01*
X136562896Y-75243306D01*
X136608017Y-75094563D01*
X136612279Y-75080513D01*
X136692466Y-74930493D01*
X136692470Y-74930488D01*
X136800388Y-74798988D01*
X136931888Y-74691069D01*
X136931892Y-74691067D01*
X136931893Y-74691066D01*
X137081913Y-74610879D01*
X137109571Y-74602489D01*
X137244705Y-74561496D01*
X137414000Y-74544822D01*
X137583294Y-74561496D01*
G37*
G36*
X135043294Y-74561496D02*
G01*
X135163726Y-74598029D01*
X135206087Y-74610879D01*
X135356107Y-74691066D01*
X135356110Y-74691068D01*
X135356111Y-74691069D01*
X135487612Y-74798988D01*
X135595531Y-74930488D01*
X135595533Y-74930492D01*
X135595534Y-74930493D01*
X135675721Y-75080513D01*
X135675722Y-75080516D01*
X135725104Y-75243305D01*
X135725104Y-75243307D01*
X135737600Y-75370179D01*
X135737600Y-75759820D01*
X135737076Y-75765136D01*
X135725104Y-75886694D01*
X135711440Y-75931738D01*
X135675721Y-76049488D01*
X135595534Y-76199507D01*
X135595531Y-76199512D01*
X135487612Y-76331012D01*
X135356112Y-76438931D01*
X135356108Y-76438933D01*
X135356107Y-76438934D01*
X135206087Y-76519121D01*
X135206084Y-76519122D01*
X135043295Y-76568504D01*
X134874000Y-76585178D01*
X134704706Y-76568504D01*
X134541917Y-76519122D01*
X134541914Y-76519121D01*
X134391894Y-76438934D01*
X134391893Y-76438933D01*
X134391889Y-76438931D01*
X134260388Y-76331012D01*
X134152469Y-76199512D01*
X134101926Y-76104952D01*
X134072279Y-76049487D01*
X134059723Y-76008095D01*
X134022896Y-75886695D01*
X134014538Y-75801837D01*
X134010400Y-75759821D01*
X134010400Y-75370180D01*
X134022896Y-75243308D01*
X134022896Y-75243306D01*
X134068017Y-75094563D01*
X134072279Y-75080513D01*
X134152466Y-74930493D01*
X134152470Y-74930488D01*
X134260388Y-74798988D01*
X134391888Y-74691069D01*
X134391892Y-74691067D01*
X134391893Y-74691066D01*
X134541913Y-74610879D01*
X134569571Y-74602489D01*
X134704705Y-74561496D01*
X134874000Y-74544822D01*
X135043294Y-74561496D01*
G37*
G36*
X132503294Y-74561496D02*
G01*
X132623726Y-74598029D01*
X132666087Y-74610879D01*
X132816107Y-74691066D01*
X132816110Y-74691068D01*
X132816111Y-74691069D01*
X132947612Y-74798988D01*
X133055531Y-74930488D01*
X133055533Y-74930492D01*
X133055534Y-74930493D01*
X133135721Y-75080513D01*
X133135722Y-75080516D01*
X133185104Y-75243305D01*
X133185104Y-75243307D01*
X133197600Y-75370179D01*
X133197600Y-75759820D01*
X133197076Y-75765136D01*
X133185104Y-75886694D01*
X133171440Y-75931738D01*
X133135721Y-76049488D01*
X133055534Y-76199507D01*
X133055531Y-76199512D01*
X132947612Y-76331012D01*
X132816112Y-76438931D01*
X132816108Y-76438933D01*
X132816107Y-76438934D01*
X132666087Y-76519121D01*
X132666084Y-76519122D01*
X132503295Y-76568504D01*
X132334000Y-76585178D01*
X132164706Y-76568504D01*
X132001917Y-76519122D01*
X132001914Y-76519121D01*
X131851894Y-76438934D01*
X131851893Y-76438933D01*
X131851889Y-76438931D01*
X131720388Y-76331012D01*
X131612469Y-76199512D01*
X131561926Y-76104952D01*
X131532279Y-76049487D01*
X131519723Y-76008095D01*
X131482896Y-75886695D01*
X131474538Y-75801837D01*
X131470400Y-75759821D01*
X131470400Y-75370180D01*
X131482896Y-75243308D01*
X131482896Y-75243306D01*
X131528017Y-75094563D01*
X131532279Y-75080513D01*
X131612466Y-74930493D01*
X131612470Y-74930488D01*
X131720388Y-74798988D01*
X131851888Y-74691069D01*
X131851892Y-74691067D01*
X131851893Y-74691066D01*
X132001913Y-74610879D01*
X132029571Y-74602489D01*
X132164705Y-74561496D01*
X132334000Y-74544822D01*
X132503294Y-74561496D01*
G37*
G36*
X174667294Y-74561496D02*
G01*
X174787726Y-74598029D01*
X174830087Y-74610879D01*
X174980107Y-74691066D01*
X174980110Y-74691068D01*
X174980111Y-74691069D01*
X175111612Y-74798988D01*
X175219531Y-74930488D01*
X175219533Y-74930492D01*
X175219534Y-74930493D01*
X175299721Y-75080513D01*
X175299722Y-75080516D01*
X175349104Y-75243305D01*
X175349104Y-75243307D01*
X175361600Y-75370179D01*
X175361600Y-75759820D01*
X175361076Y-75765136D01*
X175349104Y-75886694D01*
X175335440Y-75931738D01*
X175299721Y-76049488D01*
X175219534Y-76199507D01*
X175219531Y-76199512D01*
X175111612Y-76331012D01*
X174980112Y-76438931D01*
X174980108Y-76438933D01*
X174980107Y-76438934D01*
X174830087Y-76519121D01*
X174830084Y-76519122D01*
X174667295Y-76568504D01*
X174498000Y-76585178D01*
X174328706Y-76568504D01*
X174165917Y-76519122D01*
X174165914Y-76519121D01*
X174015894Y-76438934D01*
X174015893Y-76438933D01*
X174015889Y-76438931D01*
X173884388Y-76331012D01*
X173776469Y-76199512D01*
X173725926Y-76104952D01*
X173696279Y-76049487D01*
X173683723Y-76008095D01*
X173646896Y-75886695D01*
X173638538Y-75801837D01*
X173634400Y-75759821D01*
X173634400Y-75370180D01*
X173646896Y-75243308D01*
X173646896Y-75243306D01*
X173692017Y-75094563D01*
X173696279Y-75080513D01*
X173776466Y-74930493D01*
X173776470Y-74930488D01*
X173884388Y-74798988D01*
X174015888Y-74691069D01*
X174015892Y-74691067D01*
X174015893Y-74691066D01*
X174165913Y-74610879D01*
X174193571Y-74602489D01*
X174328705Y-74561496D01*
X174498000Y-74544822D01*
X174667294Y-74561496D01*
G37*
G36*
X150283294Y-74561496D02*
G01*
X150403726Y-74598029D01*
X150446087Y-74610879D01*
X150596107Y-74691066D01*
X150596110Y-74691068D01*
X150596111Y-74691069D01*
X150727612Y-74798988D01*
X150835531Y-74930488D01*
X150835533Y-74930492D01*
X150835534Y-74930493D01*
X150915721Y-75080513D01*
X150915722Y-75080516D01*
X150965104Y-75243305D01*
X150965104Y-75243307D01*
X150977600Y-75370179D01*
X150977600Y-75759820D01*
X150977076Y-75765136D01*
X150965104Y-75886694D01*
X150951440Y-75931738D01*
X150915721Y-76049488D01*
X150835534Y-76199507D01*
X150835531Y-76199512D01*
X150727612Y-76331012D01*
X150596112Y-76438931D01*
X150596108Y-76438933D01*
X150596107Y-76438934D01*
X150446087Y-76519121D01*
X150446084Y-76519122D01*
X150283295Y-76568504D01*
X150114000Y-76585178D01*
X149944706Y-76568504D01*
X149781917Y-76519122D01*
X149781914Y-76519121D01*
X149631894Y-76438934D01*
X149631893Y-76438933D01*
X149631889Y-76438931D01*
X149500388Y-76331012D01*
X149392469Y-76199512D01*
X149341926Y-76104952D01*
X149312279Y-76049487D01*
X149299723Y-76008095D01*
X149262896Y-75886695D01*
X149254538Y-75801837D01*
X149250400Y-75759821D01*
X149250400Y-75370180D01*
X149262896Y-75243308D01*
X149262896Y-75243306D01*
X149308017Y-75094563D01*
X149312279Y-75080513D01*
X149392466Y-74930493D01*
X149392470Y-74930488D01*
X149500388Y-74798988D01*
X149631888Y-74691069D01*
X149631892Y-74691067D01*
X149631893Y-74691066D01*
X149781913Y-74610879D01*
X149809571Y-74602489D01*
X149944705Y-74561496D01*
X150114000Y-74544822D01*
X150283294Y-74561496D01*
G37*
G36*
X147743294Y-74561496D02*
G01*
X147863726Y-74598029D01*
X147906087Y-74610879D01*
X148056107Y-74691066D01*
X148056110Y-74691068D01*
X148056111Y-74691069D01*
X148187612Y-74798988D01*
X148295531Y-74930488D01*
X148295533Y-74930492D01*
X148295534Y-74930493D01*
X148375721Y-75080513D01*
X148375722Y-75080516D01*
X148425104Y-75243305D01*
X148425104Y-75243307D01*
X148437600Y-75370179D01*
X148437600Y-75759820D01*
X148437076Y-75765136D01*
X148425104Y-75886694D01*
X148411440Y-75931738D01*
X148375721Y-76049488D01*
X148295534Y-76199507D01*
X148295531Y-76199512D01*
X148187612Y-76331012D01*
X148056112Y-76438931D01*
X148056108Y-76438933D01*
X148056107Y-76438934D01*
X147906087Y-76519121D01*
X147906084Y-76519122D01*
X147743295Y-76568504D01*
X147574000Y-76585178D01*
X147404706Y-76568504D01*
X147241917Y-76519122D01*
X147241914Y-76519121D01*
X147091894Y-76438934D01*
X147091893Y-76438933D01*
X147091889Y-76438931D01*
X146960388Y-76331012D01*
X146852469Y-76199512D01*
X146801926Y-76104952D01*
X146772279Y-76049487D01*
X146759723Y-76008095D01*
X146722896Y-75886695D01*
X146714538Y-75801837D01*
X146710400Y-75759821D01*
X146710400Y-75370180D01*
X146722896Y-75243308D01*
X146722896Y-75243306D01*
X146768017Y-75094563D01*
X146772279Y-75080513D01*
X146852466Y-74930493D01*
X146852470Y-74930488D01*
X146960388Y-74798988D01*
X147091888Y-74691069D01*
X147091892Y-74691067D01*
X147091893Y-74691066D01*
X147241913Y-74610879D01*
X147269571Y-74602489D01*
X147404705Y-74561496D01*
X147574000Y-74544822D01*
X147743294Y-74561496D01*
G37*
G36*
X113683843Y-75084214D02*
G01*
X113731318Y-75103879D01*
X113774839Y-75121906D01*
X113786991Y-75130026D01*
X113856730Y-75176624D01*
X113926376Y-75246270D01*
X113981095Y-75328163D01*
X114018786Y-75419157D01*
X114038000Y-75515753D01*
X114038000Y-75614247D01*
X114018786Y-75710843D01*
X113996297Y-75765135D01*
X113981094Y-75801839D01*
X113926375Y-75883731D01*
X113856731Y-75953375D01*
X113774839Y-76008094D01*
X113774838Y-76008095D01*
X113774837Y-76008095D01*
X113683843Y-76045786D01*
X113587247Y-76065000D01*
X113488753Y-76065000D01*
X113392157Y-76045786D01*
X113301163Y-76008095D01*
X113301162Y-76008095D01*
X113301161Y-76008094D01*
X113219269Y-75953375D01*
X113149625Y-75883731D01*
X113094906Y-75801839D01*
X113079703Y-75765135D01*
X113057214Y-75710843D01*
X113038000Y-75614247D01*
X113038000Y-75515753D01*
X113057214Y-75419157D01*
X113094905Y-75328163D01*
X113149624Y-75246270D01*
X113219270Y-75176624D01*
X113289009Y-75130026D01*
X113301161Y-75121906D01*
X113344682Y-75103879D01*
X113392157Y-75084214D01*
X113488753Y-75065000D01*
X113587247Y-75065000D01*
X113683843Y-75084214D01*
G37*
G36*
X118607024Y-75093955D02*
G01*
X118639738Y-75103879D01*
X118669885Y-75119993D01*
X118696315Y-75141685D01*
X118718007Y-75168115D01*
X118734121Y-75198262D01*
X118744045Y-75230976D01*
X118748000Y-75271138D01*
X118748000Y-75858862D01*
X118744045Y-75899024D01*
X118734121Y-75931738D01*
X118718007Y-75961885D01*
X118696315Y-75988315D01*
X118669885Y-76010007D01*
X118639738Y-76026121D01*
X118607024Y-76036045D01*
X118566862Y-76040000D01*
X117879138Y-76040000D01*
X117838976Y-76036045D01*
X117806262Y-76026121D01*
X117776115Y-76010007D01*
X117749685Y-75988315D01*
X117727993Y-75961885D01*
X117711879Y-75931738D01*
X117701955Y-75899024D01*
X117698000Y-75858862D01*
X117698000Y-75271138D01*
X117701955Y-75230976D01*
X117711879Y-75198262D01*
X117727993Y-75168115D01*
X117749685Y-75141685D01*
X117776115Y-75119993D01*
X117806262Y-75103879D01*
X117838976Y-75093955D01*
X117879138Y-75090000D01*
X118566862Y-75090000D01*
X118607024Y-75093955D01*
G37*
G36*
X116857024Y-75093955D02*
G01*
X116889738Y-75103879D01*
X116919885Y-75119993D01*
X116946315Y-75141685D01*
X116968007Y-75168115D01*
X116984121Y-75198262D01*
X116994045Y-75230976D01*
X116998000Y-75271138D01*
X116998000Y-75858862D01*
X116994045Y-75899024D01*
X116984121Y-75931738D01*
X116968007Y-75961885D01*
X116946315Y-75988315D01*
X116919885Y-76010007D01*
X116889738Y-76026121D01*
X116857024Y-76036045D01*
X116816862Y-76040000D01*
X116129138Y-76040000D01*
X116088976Y-76036045D01*
X116056262Y-76026121D01*
X116026115Y-76010007D01*
X115999685Y-75988315D01*
X115977993Y-75961885D01*
X115961879Y-75931738D01*
X115951955Y-75899024D01*
X115948000Y-75858862D01*
X115948000Y-75271138D01*
X115951955Y-75230976D01*
X115961879Y-75198262D01*
X115977993Y-75168115D01*
X115999685Y-75141685D01*
X116026115Y-75119993D01*
X116056262Y-75103879D01*
X116088976Y-75093955D01*
X116129138Y-75090000D01*
X116816862Y-75090000D01*
X116857024Y-75093955D01*
G37*
M02*
