M48
;DRILL file {KiCad 5.0.2-bee76a0~70~ubuntu18.04.1} date Fr 12 Apr 2019 14:14:12 CEST
;FORMAT={-:-/ absolute / inch / decimal}
FMAT,2
INCH,TZ
T1C0.0157
T2C0.0394
T3C0.0400
T4C0.1200
%
G90
G05
T1
X4.52Y-2.975
X4.52Y-3.275
X4.72Y-2.975
X4.77Y-3.025
X4.82Y-2.975
X4.82Y-3.225
X4.92Y-3.35
X4.995Y-3.425
X4.995Y-3.525
X4.995Y-4.275
X5.02Y-3.35
X5.07Y-4.425
X5.0877Y-4.1496
X5.12Y-3.35
X5.12Y-3.575
X5.12Y-3.675
X5.12Y-3.775
X5.12Y-3.875
X5.12Y-4.225
X5.17Y-3.125
X5.17Y-4.575
X5.22Y-3.35
X5.27Y-4.375
X5.32Y-3.35
X5.37Y-4.325
X5.37Y-4.725
X5.42Y-3.35
X5.47Y-4.5
X5.47Y-4.575
X5.52Y-3.35
X5.595Y-3.825
X5.595Y-3.925
X5.595Y-4.175
X5.62Y-3.35
X5.72Y-3.35
X5.82Y-3.35
X5.845Y-4.275
X5.87Y-4.025
X5.92Y-3.35
X5.92Y-3.825
X5.92Y-3.925
X6.02Y-3.35
X6.12Y-3.35
X6.17Y-4.075
X6.22Y-3.35
X6.22Y-3.825
X6.32Y-3.35
X6.42Y-3.35
X6.47Y-4.075
X6.47Y-4.225
X6.47Y-4.325
X6.52Y-3.825
X6.62Y-4.125
X6.62Y-4.575
X6.67Y-4.075
X6.72Y-4.575
X6.77Y-3.725
X6.82Y-3.875
X6.82Y-4.575
X6.92Y-4.575
T2
X6.97Y-3.775
X6.97Y-3.875
X6.97Y-3.975
X6.97Y-4.075
T3
X6.37Y-4.875
X6.47Y-4.875
X6.57Y-4.875
X6.67Y-4.875
X6.77Y-4.875
X6.87Y-4.875
X5.11Y-2.975
X5.21Y-2.975
X5.31Y-2.975
X5.41Y-2.975
X5.51Y-2.975
X5.61Y-2.975
X5.71Y-2.975
X5.81Y-2.975
X5.91Y-2.975
X6.01Y-2.975
X5.47Y-4.875
X5.57Y-4.875
X5.67Y-4.875
X5.77Y-4.875
X5.87Y-4.875
X5.97Y-4.875
X6.07Y-4.875
X6.17Y-4.875
X4.47Y-3.425
X4.47Y-3.525
X4.47Y-3.625
X4.47Y-3.725
X4.47Y-3.825
X4.47Y-3.925
X4.47Y-4.025
X4.47Y-4.125
X4.47Y-4.225
X4.47Y-4.325
X6.17Y-2.975
X6.27Y-2.975
X6.37Y-2.975
X6.47Y-2.975
X6.57Y-2.975
X6.67Y-2.975
X6.77Y-2.975
X6.87Y-2.975
T4
X6.97Y-4.675
X4.97Y-2.975
X6.97Y-3.575
X4.92Y-4.875
T0
M30
