G04 #@! TF.GenerationSoftware,KiCad,Pcbnew,5.0.2-bee76a0~70~ubuntu18.04.1*
G04 #@! TF.CreationDate,2019-04-12T14:14:33+02:00*
G04 #@! TF.ProjectId,KiCad_Shield,4b694361-645f-4536-9869-656c642e6b69,rev?*
G04 #@! TF.SameCoordinates,Original*
G04 #@! TF.FileFunction,Soldermask,Bot*
G04 #@! TF.FilePolarity,Negative*
%FSLAX46Y46*%
G04 Gerber Fmt 4.6, Leading zero omitted, Abs format (unit mm)*
G04 Created by KiCad (PCBNEW 5.0.2-bee76a0~70~ubuntu18.04.1) date Fr 12 Apr 2019 14:14:33 CEST*
%MOMM*%
%LPD*%
G01*
G04 APERTURE LIST*
%ADD10C,0.100000*%
G04 APERTURE END LIST*
D10*
G36*
X125560712Y-121871088D02*
X125930510Y-122024263D01*
X125930513Y-122024265D01*
X126263325Y-122246643D01*
X126546357Y-122529675D01*
X126730204Y-122804822D01*
X126768737Y-122862490D01*
X126921912Y-123232288D01*
X127000000Y-123624864D01*
X127000000Y-124025136D01*
X126921912Y-124417712D01*
X126768737Y-124787510D01*
X126768735Y-124787513D01*
X126546357Y-125120325D01*
X126263325Y-125403357D01*
X125930513Y-125625735D01*
X125930510Y-125625737D01*
X125560712Y-125778912D01*
X125168136Y-125857000D01*
X124767864Y-125857000D01*
X124375288Y-125778912D01*
X124005490Y-125625737D01*
X124005487Y-125625735D01*
X123672675Y-125403357D01*
X123389643Y-125120325D01*
X123167265Y-124787513D01*
X123167263Y-124787510D01*
X123014088Y-124417712D01*
X122936000Y-124025136D01*
X122936000Y-123624864D01*
X123014088Y-123232288D01*
X123167263Y-122862490D01*
X123205796Y-122804822D01*
X123389643Y-122529675D01*
X123672675Y-122246643D01*
X124005487Y-122024265D01*
X124005490Y-122024263D01*
X124375288Y-121871088D01*
X124767864Y-121793000D01*
X125168136Y-121793000D01*
X125560712Y-121871088D01*
X125560712Y-121871088D01*
G37*
G36*
X172127294Y-122821496D02*
X172247726Y-122858029D01*
X172290087Y-122870879D01*
X172440112Y-122951068D01*
X172571612Y-123058988D01*
X172679532Y-123190488D01*
X172759721Y-123340512D01*
X172772571Y-123382873D01*
X172809104Y-123503305D01*
X172809104Y-123503307D01*
X172821600Y-123630179D01*
X172821600Y-124019820D01*
X172821076Y-124025136D01*
X172809104Y-124146694D01*
X172772571Y-124267128D01*
X172759721Y-124309488D01*
X172679532Y-124459512D01*
X172571612Y-124591012D01*
X172440112Y-124698932D01*
X172290088Y-124779121D01*
X172262433Y-124787510D01*
X172127295Y-124828504D01*
X172014432Y-124839620D01*
X171958001Y-124845178D01*
X171958000Y-124845178D01*
X171788706Y-124828504D01*
X171653568Y-124787510D01*
X171625913Y-124779121D01*
X171475889Y-124698932D01*
X171385946Y-124625117D01*
X171344388Y-124591012D01*
X171236469Y-124459512D01*
X171214127Y-124417713D01*
X171156279Y-124309488D01*
X171143429Y-124267127D01*
X171106896Y-124146695D01*
X171098565Y-124062112D01*
X171094400Y-124019821D01*
X171094400Y-123630180D01*
X171106896Y-123503308D01*
X171106896Y-123503306D01*
X171156278Y-123340517D01*
X171156279Y-123340513D01*
X171236468Y-123190488D01*
X171344388Y-123058988D01*
X171475888Y-122951068D01*
X171625912Y-122870879D01*
X171668273Y-122858029D01*
X171788705Y-122821496D01*
X171901568Y-122810380D01*
X171957999Y-122804822D01*
X171958000Y-122804822D01*
X172127294Y-122821496D01*
X172127294Y-122821496D01*
G37*
G36*
X174667294Y-122821496D02*
X174787726Y-122858029D01*
X174830087Y-122870879D01*
X174980112Y-122951068D01*
X175111612Y-123058988D01*
X175219532Y-123190488D01*
X175299721Y-123340512D01*
X175312571Y-123382873D01*
X175349104Y-123503305D01*
X175349104Y-123503307D01*
X175361600Y-123630179D01*
X175361600Y-124019820D01*
X175361076Y-124025136D01*
X175349104Y-124146694D01*
X175312571Y-124267128D01*
X175299721Y-124309488D01*
X175219532Y-124459512D01*
X175111612Y-124591012D01*
X174980112Y-124698932D01*
X174830088Y-124779121D01*
X174802433Y-124787510D01*
X174667295Y-124828504D01*
X174554432Y-124839620D01*
X174498001Y-124845178D01*
X174498000Y-124845178D01*
X174328706Y-124828504D01*
X174193568Y-124787510D01*
X174165913Y-124779121D01*
X174015889Y-124698932D01*
X173925946Y-124625117D01*
X173884388Y-124591012D01*
X173776469Y-124459512D01*
X173754127Y-124417713D01*
X173696279Y-124309488D01*
X173683429Y-124267127D01*
X173646896Y-124146695D01*
X173638565Y-124062112D01*
X173634400Y-124019821D01*
X173634400Y-123630180D01*
X173646896Y-123503308D01*
X173646896Y-123503306D01*
X173696278Y-123340517D01*
X173696279Y-123340513D01*
X173776468Y-123190488D01*
X173884388Y-123058988D01*
X174015888Y-122951068D01*
X174165912Y-122870879D01*
X174208273Y-122858029D01*
X174328705Y-122821496D01*
X174441568Y-122810380D01*
X174497999Y-122804822D01*
X174498000Y-122804822D01*
X174667294Y-122821496D01*
X174667294Y-122821496D01*
G37*
G36*
X169587294Y-122821496D02*
X169707726Y-122858029D01*
X169750087Y-122870879D01*
X169900112Y-122951068D01*
X170031612Y-123058988D01*
X170139532Y-123190488D01*
X170219721Y-123340512D01*
X170232571Y-123382873D01*
X170269104Y-123503305D01*
X170269104Y-123503307D01*
X170281600Y-123630179D01*
X170281600Y-124019820D01*
X170281076Y-124025136D01*
X170269104Y-124146694D01*
X170232571Y-124267128D01*
X170219721Y-124309488D01*
X170139532Y-124459512D01*
X170031612Y-124591012D01*
X169900112Y-124698932D01*
X169750088Y-124779121D01*
X169722433Y-124787510D01*
X169587295Y-124828504D01*
X169474432Y-124839620D01*
X169418001Y-124845178D01*
X169418000Y-124845178D01*
X169248706Y-124828504D01*
X169113568Y-124787510D01*
X169085913Y-124779121D01*
X168935889Y-124698932D01*
X168845946Y-124625117D01*
X168804388Y-124591012D01*
X168696469Y-124459512D01*
X168674127Y-124417713D01*
X168616279Y-124309488D01*
X168603429Y-124267127D01*
X168566896Y-124146695D01*
X168558565Y-124062112D01*
X168554400Y-124019821D01*
X168554400Y-123630180D01*
X168566896Y-123503308D01*
X168566896Y-123503306D01*
X168616278Y-123340517D01*
X168616279Y-123340513D01*
X168696468Y-123190488D01*
X168804388Y-123058988D01*
X168935888Y-122951068D01*
X169085912Y-122870879D01*
X169128273Y-122858029D01*
X169248705Y-122821496D01*
X169361568Y-122810380D01*
X169417999Y-122804822D01*
X169418000Y-122804822D01*
X169587294Y-122821496D01*
X169587294Y-122821496D01*
G37*
G36*
X167047294Y-122821496D02*
X167167726Y-122858029D01*
X167210087Y-122870879D01*
X167360112Y-122951068D01*
X167491612Y-123058988D01*
X167599532Y-123190488D01*
X167679721Y-123340512D01*
X167692571Y-123382873D01*
X167729104Y-123503305D01*
X167729104Y-123503307D01*
X167741600Y-123630179D01*
X167741600Y-124019820D01*
X167741076Y-124025136D01*
X167729104Y-124146694D01*
X167692571Y-124267128D01*
X167679721Y-124309488D01*
X167599532Y-124459512D01*
X167491612Y-124591012D01*
X167360112Y-124698932D01*
X167210088Y-124779121D01*
X167182433Y-124787510D01*
X167047295Y-124828504D01*
X166934432Y-124839620D01*
X166878001Y-124845178D01*
X166878000Y-124845178D01*
X166708706Y-124828504D01*
X166573568Y-124787510D01*
X166545913Y-124779121D01*
X166395889Y-124698932D01*
X166305946Y-124625117D01*
X166264388Y-124591012D01*
X166156469Y-124459512D01*
X166134127Y-124417713D01*
X166076279Y-124309488D01*
X166063429Y-124267127D01*
X166026896Y-124146695D01*
X166018565Y-124062112D01*
X166014400Y-124019821D01*
X166014400Y-123630180D01*
X166026896Y-123503308D01*
X166026896Y-123503306D01*
X166076278Y-123340517D01*
X166076279Y-123340513D01*
X166156468Y-123190488D01*
X166264388Y-123058988D01*
X166395888Y-122951068D01*
X166545912Y-122870879D01*
X166588273Y-122858029D01*
X166708705Y-122821496D01*
X166821568Y-122810380D01*
X166877999Y-122804822D01*
X166878000Y-122804822D01*
X167047294Y-122821496D01*
X167047294Y-122821496D01*
G37*
G36*
X164507294Y-122821496D02*
X164627726Y-122858029D01*
X164670087Y-122870879D01*
X164820112Y-122951068D01*
X164951612Y-123058988D01*
X165059532Y-123190488D01*
X165139721Y-123340512D01*
X165152571Y-123382873D01*
X165189104Y-123503305D01*
X165189104Y-123503307D01*
X165201600Y-123630179D01*
X165201600Y-124019820D01*
X165201076Y-124025136D01*
X165189104Y-124146694D01*
X165152571Y-124267128D01*
X165139721Y-124309488D01*
X165059532Y-124459512D01*
X164951612Y-124591012D01*
X164820112Y-124698932D01*
X164670088Y-124779121D01*
X164642433Y-124787510D01*
X164507295Y-124828504D01*
X164394432Y-124839620D01*
X164338001Y-124845178D01*
X164338000Y-124845178D01*
X164168706Y-124828504D01*
X164033568Y-124787510D01*
X164005913Y-124779121D01*
X163855889Y-124698932D01*
X163765946Y-124625117D01*
X163724388Y-124591012D01*
X163616469Y-124459512D01*
X163594127Y-124417713D01*
X163536279Y-124309488D01*
X163523429Y-124267127D01*
X163486896Y-124146695D01*
X163478565Y-124062112D01*
X163474400Y-124019821D01*
X163474400Y-123630180D01*
X163486896Y-123503308D01*
X163486896Y-123503306D01*
X163536278Y-123340517D01*
X163536279Y-123340513D01*
X163616468Y-123190488D01*
X163724388Y-123058988D01*
X163855888Y-122951068D01*
X164005912Y-122870879D01*
X164048273Y-122858029D01*
X164168705Y-122821496D01*
X164281568Y-122810380D01*
X164337999Y-122804822D01*
X164338000Y-122804822D01*
X164507294Y-122821496D01*
X164507294Y-122821496D01*
G37*
G36*
X161967294Y-122821496D02*
X162087726Y-122858029D01*
X162130087Y-122870879D01*
X162280112Y-122951068D01*
X162411612Y-123058988D01*
X162519532Y-123190488D01*
X162599721Y-123340512D01*
X162612571Y-123382873D01*
X162649104Y-123503305D01*
X162649104Y-123503307D01*
X162661600Y-123630179D01*
X162661600Y-124019820D01*
X162661076Y-124025136D01*
X162649104Y-124146694D01*
X162612571Y-124267128D01*
X162599721Y-124309488D01*
X162519532Y-124459512D01*
X162411612Y-124591012D01*
X162280112Y-124698932D01*
X162130088Y-124779121D01*
X162102433Y-124787510D01*
X161967295Y-124828504D01*
X161854432Y-124839620D01*
X161798001Y-124845178D01*
X161798000Y-124845178D01*
X161628706Y-124828504D01*
X161493568Y-124787510D01*
X161465913Y-124779121D01*
X161315889Y-124698932D01*
X161225946Y-124625117D01*
X161184388Y-124591012D01*
X161076469Y-124459512D01*
X161054127Y-124417713D01*
X160996279Y-124309488D01*
X160983429Y-124267127D01*
X160946896Y-124146695D01*
X160938565Y-124062112D01*
X160934400Y-124019821D01*
X160934400Y-123630180D01*
X160946896Y-123503308D01*
X160946896Y-123503306D01*
X160996278Y-123340517D01*
X160996279Y-123340513D01*
X161076468Y-123190488D01*
X161184388Y-123058988D01*
X161315888Y-122951068D01*
X161465912Y-122870879D01*
X161508273Y-122858029D01*
X161628705Y-122821496D01*
X161741568Y-122810380D01*
X161797999Y-122804822D01*
X161798000Y-122804822D01*
X161967294Y-122821496D01*
X161967294Y-122821496D01*
G37*
G36*
X156887294Y-122821496D02*
X157007726Y-122858029D01*
X157050087Y-122870879D01*
X157200112Y-122951068D01*
X157331612Y-123058988D01*
X157439532Y-123190488D01*
X157519721Y-123340512D01*
X157532571Y-123382873D01*
X157569104Y-123503305D01*
X157569104Y-123503307D01*
X157581600Y-123630179D01*
X157581600Y-124019820D01*
X157581076Y-124025136D01*
X157569104Y-124146694D01*
X157532571Y-124267128D01*
X157519721Y-124309488D01*
X157439532Y-124459512D01*
X157331612Y-124591012D01*
X157200112Y-124698932D01*
X157050088Y-124779121D01*
X157022433Y-124787510D01*
X156887295Y-124828504D01*
X156774432Y-124839620D01*
X156718001Y-124845178D01*
X156718000Y-124845178D01*
X156548706Y-124828504D01*
X156413568Y-124787510D01*
X156385913Y-124779121D01*
X156235889Y-124698932D01*
X156145946Y-124625117D01*
X156104388Y-124591012D01*
X155996469Y-124459512D01*
X155974127Y-124417713D01*
X155916279Y-124309488D01*
X155903429Y-124267127D01*
X155866896Y-124146695D01*
X155858565Y-124062112D01*
X155854400Y-124019821D01*
X155854400Y-123630180D01*
X155866896Y-123503308D01*
X155866896Y-123503306D01*
X155916278Y-123340517D01*
X155916279Y-123340513D01*
X155996468Y-123190488D01*
X156104388Y-123058988D01*
X156235888Y-122951068D01*
X156385912Y-122870879D01*
X156428273Y-122858029D01*
X156548705Y-122821496D01*
X156661568Y-122810380D01*
X156717999Y-122804822D01*
X156718000Y-122804822D01*
X156887294Y-122821496D01*
X156887294Y-122821496D01*
G37*
G36*
X151807294Y-122821496D02*
X151927726Y-122858029D01*
X151970087Y-122870879D01*
X152120112Y-122951068D01*
X152251612Y-123058988D01*
X152359532Y-123190488D01*
X152439721Y-123340512D01*
X152452571Y-123382873D01*
X152489104Y-123503305D01*
X152489104Y-123503307D01*
X152501600Y-123630179D01*
X152501600Y-124019820D01*
X152501076Y-124025136D01*
X152489104Y-124146694D01*
X152452571Y-124267128D01*
X152439721Y-124309488D01*
X152359532Y-124459512D01*
X152251612Y-124591012D01*
X152120112Y-124698932D01*
X151970088Y-124779121D01*
X151942433Y-124787510D01*
X151807295Y-124828504D01*
X151694432Y-124839620D01*
X151638001Y-124845178D01*
X151638000Y-124845178D01*
X151468706Y-124828504D01*
X151333568Y-124787510D01*
X151305913Y-124779121D01*
X151155889Y-124698932D01*
X151065946Y-124625117D01*
X151024388Y-124591012D01*
X150916469Y-124459512D01*
X150894127Y-124417713D01*
X150836279Y-124309488D01*
X150823429Y-124267127D01*
X150786896Y-124146695D01*
X150778565Y-124062112D01*
X150774400Y-124019821D01*
X150774400Y-123630180D01*
X150786896Y-123503308D01*
X150786896Y-123503306D01*
X150836278Y-123340517D01*
X150836279Y-123340513D01*
X150916468Y-123190488D01*
X151024388Y-123058988D01*
X151155888Y-122951068D01*
X151305912Y-122870879D01*
X151348273Y-122858029D01*
X151468705Y-122821496D01*
X151581568Y-122810380D01*
X151637999Y-122804822D01*
X151638000Y-122804822D01*
X151807294Y-122821496D01*
X151807294Y-122821496D01*
G37*
G36*
X139107294Y-122821496D02*
X139227726Y-122858029D01*
X139270087Y-122870879D01*
X139420112Y-122951068D01*
X139551612Y-123058988D01*
X139659532Y-123190488D01*
X139739721Y-123340512D01*
X139752571Y-123382873D01*
X139789104Y-123503305D01*
X139789104Y-123503307D01*
X139801600Y-123630179D01*
X139801600Y-124019820D01*
X139801076Y-124025136D01*
X139789104Y-124146694D01*
X139752571Y-124267128D01*
X139739721Y-124309488D01*
X139659532Y-124459512D01*
X139551612Y-124591012D01*
X139420112Y-124698932D01*
X139270088Y-124779121D01*
X139242433Y-124787510D01*
X139107295Y-124828504D01*
X138994432Y-124839620D01*
X138938001Y-124845178D01*
X138938000Y-124845178D01*
X138768706Y-124828504D01*
X138633568Y-124787510D01*
X138605913Y-124779121D01*
X138455889Y-124698932D01*
X138365946Y-124625117D01*
X138324388Y-124591012D01*
X138216469Y-124459512D01*
X138194127Y-124417713D01*
X138136279Y-124309488D01*
X138123429Y-124267127D01*
X138086896Y-124146695D01*
X138078565Y-124062112D01*
X138074400Y-124019821D01*
X138074400Y-123630180D01*
X138086896Y-123503308D01*
X138086896Y-123503306D01*
X138136278Y-123340517D01*
X138136279Y-123340513D01*
X138216468Y-123190488D01*
X138324388Y-123058988D01*
X138455888Y-122951068D01*
X138605912Y-122870879D01*
X138648273Y-122858029D01*
X138768705Y-122821496D01*
X138881568Y-122810380D01*
X138937999Y-122804822D01*
X138938000Y-122804822D01*
X139107294Y-122821496D01*
X139107294Y-122821496D01*
G37*
G36*
X141647294Y-122821496D02*
X141767726Y-122858029D01*
X141810087Y-122870879D01*
X141960112Y-122951068D01*
X142091612Y-123058988D01*
X142199532Y-123190488D01*
X142279721Y-123340512D01*
X142292571Y-123382873D01*
X142329104Y-123503305D01*
X142329104Y-123503307D01*
X142341600Y-123630179D01*
X142341600Y-124019820D01*
X142341076Y-124025136D01*
X142329104Y-124146694D01*
X142292571Y-124267128D01*
X142279721Y-124309488D01*
X142199532Y-124459512D01*
X142091612Y-124591012D01*
X141960112Y-124698932D01*
X141810088Y-124779121D01*
X141782433Y-124787510D01*
X141647295Y-124828504D01*
X141534432Y-124839620D01*
X141478001Y-124845178D01*
X141478000Y-124845178D01*
X141308706Y-124828504D01*
X141173568Y-124787510D01*
X141145913Y-124779121D01*
X140995889Y-124698932D01*
X140905946Y-124625117D01*
X140864388Y-124591012D01*
X140756469Y-124459512D01*
X140734127Y-124417713D01*
X140676279Y-124309488D01*
X140663429Y-124267127D01*
X140626896Y-124146695D01*
X140618565Y-124062112D01*
X140614400Y-124019821D01*
X140614400Y-123630180D01*
X140626896Y-123503308D01*
X140626896Y-123503306D01*
X140676278Y-123340517D01*
X140676279Y-123340513D01*
X140756468Y-123190488D01*
X140864388Y-123058988D01*
X140995888Y-122951068D01*
X141145912Y-122870879D01*
X141188273Y-122858029D01*
X141308705Y-122821496D01*
X141421568Y-122810380D01*
X141477999Y-122804822D01*
X141478000Y-122804822D01*
X141647294Y-122821496D01*
X141647294Y-122821496D01*
G37*
G36*
X144187294Y-122821496D02*
X144307726Y-122858029D01*
X144350087Y-122870879D01*
X144500112Y-122951068D01*
X144631612Y-123058988D01*
X144739532Y-123190488D01*
X144819721Y-123340512D01*
X144832571Y-123382873D01*
X144869104Y-123503305D01*
X144869104Y-123503307D01*
X144881600Y-123630179D01*
X144881600Y-124019820D01*
X144881076Y-124025136D01*
X144869104Y-124146694D01*
X144832571Y-124267128D01*
X144819721Y-124309488D01*
X144739532Y-124459512D01*
X144631612Y-124591012D01*
X144500112Y-124698932D01*
X144350088Y-124779121D01*
X144322433Y-124787510D01*
X144187295Y-124828504D01*
X144074432Y-124839620D01*
X144018001Y-124845178D01*
X144018000Y-124845178D01*
X143848706Y-124828504D01*
X143713568Y-124787510D01*
X143685913Y-124779121D01*
X143535889Y-124698932D01*
X143445946Y-124625117D01*
X143404388Y-124591012D01*
X143296469Y-124459512D01*
X143274127Y-124417713D01*
X143216279Y-124309488D01*
X143203429Y-124267127D01*
X143166896Y-124146695D01*
X143158565Y-124062112D01*
X143154400Y-124019821D01*
X143154400Y-123630180D01*
X143166896Y-123503308D01*
X143166896Y-123503306D01*
X143216278Y-123340517D01*
X143216279Y-123340513D01*
X143296468Y-123190488D01*
X143404388Y-123058988D01*
X143535888Y-122951068D01*
X143685912Y-122870879D01*
X143728273Y-122858029D01*
X143848705Y-122821496D01*
X143961568Y-122810380D01*
X144017999Y-122804822D01*
X144018000Y-122804822D01*
X144187294Y-122821496D01*
X144187294Y-122821496D01*
G37*
G36*
X146727294Y-122821496D02*
X146847726Y-122858029D01*
X146890087Y-122870879D01*
X147040112Y-122951068D01*
X147171612Y-123058988D01*
X147279532Y-123190488D01*
X147359721Y-123340512D01*
X147372571Y-123382873D01*
X147409104Y-123503305D01*
X147409104Y-123503307D01*
X147421600Y-123630179D01*
X147421600Y-124019820D01*
X147421076Y-124025136D01*
X147409104Y-124146694D01*
X147372571Y-124267128D01*
X147359721Y-124309488D01*
X147279532Y-124459512D01*
X147171612Y-124591012D01*
X147040112Y-124698932D01*
X146890088Y-124779121D01*
X146862433Y-124787510D01*
X146727295Y-124828504D01*
X146614432Y-124839620D01*
X146558001Y-124845178D01*
X146558000Y-124845178D01*
X146388706Y-124828504D01*
X146253568Y-124787510D01*
X146225913Y-124779121D01*
X146075889Y-124698932D01*
X145985946Y-124625117D01*
X145944388Y-124591012D01*
X145836469Y-124459512D01*
X145814127Y-124417713D01*
X145756279Y-124309488D01*
X145743429Y-124267127D01*
X145706896Y-124146695D01*
X145698565Y-124062112D01*
X145694400Y-124019821D01*
X145694400Y-123630180D01*
X145706896Y-123503308D01*
X145706896Y-123503306D01*
X145756278Y-123340517D01*
X145756279Y-123340513D01*
X145836468Y-123190488D01*
X145944388Y-123058988D01*
X146075888Y-122951068D01*
X146225912Y-122870879D01*
X146268273Y-122858029D01*
X146388705Y-122821496D01*
X146501568Y-122810380D01*
X146557999Y-122804822D01*
X146558000Y-122804822D01*
X146727294Y-122821496D01*
X146727294Y-122821496D01*
G37*
G36*
X149267294Y-122821496D02*
X149387726Y-122858029D01*
X149430087Y-122870879D01*
X149580112Y-122951068D01*
X149711612Y-123058988D01*
X149819532Y-123190488D01*
X149899721Y-123340512D01*
X149912571Y-123382873D01*
X149949104Y-123503305D01*
X149949104Y-123503307D01*
X149961600Y-123630179D01*
X149961600Y-124019820D01*
X149961076Y-124025136D01*
X149949104Y-124146694D01*
X149912571Y-124267128D01*
X149899721Y-124309488D01*
X149819532Y-124459512D01*
X149711612Y-124591012D01*
X149580112Y-124698932D01*
X149430088Y-124779121D01*
X149402433Y-124787510D01*
X149267295Y-124828504D01*
X149154432Y-124839620D01*
X149098001Y-124845178D01*
X149098000Y-124845178D01*
X148928706Y-124828504D01*
X148793568Y-124787510D01*
X148765913Y-124779121D01*
X148615889Y-124698932D01*
X148525946Y-124625117D01*
X148484388Y-124591012D01*
X148376469Y-124459512D01*
X148354127Y-124417713D01*
X148296279Y-124309488D01*
X148283429Y-124267127D01*
X148246896Y-124146695D01*
X148238565Y-124062112D01*
X148234400Y-124019821D01*
X148234400Y-123630180D01*
X148246896Y-123503308D01*
X148246896Y-123503306D01*
X148296278Y-123340517D01*
X148296279Y-123340513D01*
X148376468Y-123190488D01*
X148484388Y-123058988D01*
X148615888Y-122951068D01*
X148765912Y-122870879D01*
X148808273Y-122858029D01*
X148928705Y-122821496D01*
X149041568Y-122810380D01*
X149097999Y-122804822D01*
X149098000Y-122804822D01*
X149267294Y-122821496D01*
X149267294Y-122821496D01*
G37*
G36*
X154347294Y-122821496D02*
X154467726Y-122858029D01*
X154510087Y-122870879D01*
X154660112Y-122951068D01*
X154791612Y-123058988D01*
X154899532Y-123190488D01*
X154979721Y-123340512D01*
X154992571Y-123382873D01*
X155029104Y-123503305D01*
X155029104Y-123503307D01*
X155041600Y-123630179D01*
X155041600Y-124019820D01*
X155041076Y-124025136D01*
X155029104Y-124146694D01*
X154992571Y-124267128D01*
X154979721Y-124309488D01*
X154899532Y-124459512D01*
X154791612Y-124591012D01*
X154660112Y-124698932D01*
X154510088Y-124779121D01*
X154482433Y-124787510D01*
X154347295Y-124828504D01*
X154234432Y-124839620D01*
X154178001Y-124845178D01*
X154178000Y-124845178D01*
X154008706Y-124828504D01*
X153873568Y-124787510D01*
X153845913Y-124779121D01*
X153695889Y-124698932D01*
X153605946Y-124625117D01*
X153564388Y-124591012D01*
X153456469Y-124459512D01*
X153434127Y-124417713D01*
X153376279Y-124309488D01*
X153363429Y-124267127D01*
X153326896Y-124146695D01*
X153318565Y-124062112D01*
X153314400Y-124019821D01*
X153314400Y-123630180D01*
X153326896Y-123503308D01*
X153326896Y-123503306D01*
X153376278Y-123340517D01*
X153376279Y-123340513D01*
X153456468Y-123190488D01*
X153564388Y-123058988D01*
X153695888Y-122951068D01*
X153845912Y-122870879D01*
X153888273Y-122858029D01*
X154008705Y-122821496D01*
X154121568Y-122810380D01*
X154177999Y-122804822D01*
X154178000Y-122804822D01*
X154347294Y-122821496D01*
X154347294Y-122821496D01*
G37*
G36*
X177630712Y-116791088D02*
X178000510Y-116944263D01*
X178000513Y-116944265D01*
X178333325Y-117166643D01*
X178616357Y-117449675D01*
X178838735Y-117782487D01*
X178838737Y-117782490D01*
X178991912Y-118152288D01*
X179070000Y-118544864D01*
X179070000Y-118945136D01*
X178991912Y-119337712D01*
X178838737Y-119707510D01*
X178838735Y-119707513D01*
X178616357Y-120040325D01*
X178333325Y-120323357D01*
X178000513Y-120545735D01*
X178000510Y-120545737D01*
X177630712Y-120698912D01*
X177238136Y-120777000D01*
X176837864Y-120777000D01*
X176445288Y-120698912D01*
X176075490Y-120545737D01*
X176075487Y-120545735D01*
X175742675Y-120323357D01*
X175459643Y-120040325D01*
X175237265Y-119707513D01*
X175237263Y-119707510D01*
X175084088Y-119337712D01*
X175006000Y-118945136D01*
X175006000Y-118544864D01*
X175084088Y-118152288D01*
X175237263Y-117782490D01*
X175237265Y-117782487D01*
X175459643Y-117449675D01*
X175742675Y-117166643D01*
X176075487Y-116944265D01*
X176075490Y-116944263D01*
X176445288Y-116791088D01*
X176837864Y-116713000D01*
X177238136Y-116713000D01*
X177630712Y-116791088D01*
X177630712Y-116791088D01*
G37*
G36*
X114554000Y-110718600D02*
X112522000Y-110718600D01*
X112522000Y-108991400D01*
X114554000Y-108991400D01*
X114554000Y-110718600D01*
X114554000Y-110718600D01*
G37*
G36*
X113775112Y-106455565D02*
X113859695Y-106463896D01*
X113980127Y-106500429D01*
X114022488Y-106513279D01*
X114172512Y-106593468D01*
X114304012Y-106701388D01*
X114411932Y-106832888D01*
X114492121Y-106982912D01*
X114492122Y-106982916D01*
X114541504Y-107145705D01*
X114558178Y-107315000D01*
X114541504Y-107484295D01*
X114504971Y-107604727D01*
X114492121Y-107647088D01*
X114411932Y-107797112D01*
X114304012Y-107928612D01*
X114172512Y-108036532D01*
X114022488Y-108116721D01*
X113980127Y-108129571D01*
X113859695Y-108166104D01*
X113775112Y-108174435D01*
X113732821Y-108178600D01*
X113343179Y-108178600D01*
X113300888Y-108174435D01*
X113216305Y-108166104D01*
X113095873Y-108129571D01*
X113053512Y-108116721D01*
X112903488Y-108036532D01*
X112771988Y-107928612D01*
X112664068Y-107797112D01*
X112583879Y-107647088D01*
X112571029Y-107604727D01*
X112534496Y-107484295D01*
X112517822Y-107315000D01*
X112534496Y-107145705D01*
X112583878Y-106982916D01*
X112583879Y-106982912D01*
X112664068Y-106832888D01*
X112771988Y-106701388D01*
X112903488Y-106593468D01*
X113053512Y-106513279D01*
X113095873Y-106500429D01*
X113216305Y-106463896D01*
X113300888Y-106455565D01*
X113343179Y-106451400D01*
X113732821Y-106451400D01*
X113775112Y-106455565D01*
X113775112Y-106455565D01*
G37*
G36*
X113775112Y-103915565D02*
X113859695Y-103923896D01*
X113980127Y-103960429D01*
X114022488Y-103973279D01*
X114172512Y-104053468D01*
X114304012Y-104161388D01*
X114411932Y-104292888D01*
X114492121Y-104442912D01*
X114492122Y-104442916D01*
X114541504Y-104605705D01*
X114558178Y-104775000D01*
X114541504Y-104944295D01*
X114504971Y-105064727D01*
X114492121Y-105107088D01*
X114411932Y-105257112D01*
X114304012Y-105388612D01*
X114172512Y-105496532D01*
X114022488Y-105576721D01*
X113980127Y-105589571D01*
X113859695Y-105626104D01*
X113775112Y-105634435D01*
X113732821Y-105638600D01*
X113343179Y-105638600D01*
X113300888Y-105634435D01*
X113216305Y-105626104D01*
X113095873Y-105589571D01*
X113053512Y-105576721D01*
X112903488Y-105496532D01*
X112771988Y-105388612D01*
X112664068Y-105257112D01*
X112583879Y-105107088D01*
X112571029Y-105064727D01*
X112534496Y-104944295D01*
X112517822Y-104775000D01*
X112534496Y-104605705D01*
X112583878Y-104442916D01*
X112583879Y-104442912D01*
X112664068Y-104292888D01*
X112771988Y-104161388D01*
X112903488Y-104053468D01*
X113053512Y-103973279D01*
X113095873Y-103960429D01*
X113216305Y-103923896D01*
X113300888Y-103915565D01*
X113343179Y-103911400D01*
X113732821Y-103911400D01*
X113775112Y-103915565D01*
X113775112Y-103915565D01*
G37*
G36*
X177204630Y-102667299D02*
X177364855Y-102715903D01*
X177512520Y-102794831D01*
X177641949Y-102901051D01*
X177748169Y-103030480D01*
X177827097Y-103178145D01*
X177875701Y-103338370D01*
X177892112Y-103505000D01*
X177875701Y-103671630D01*
X177827097Y-103831855D01*
X177748169Y-103979520D01*
X177641949Y-104108949D01*
X177512520Y-104215169D01*
X177364855Y-104294097D01*
X177204630Y-104342701D01*
X177079752Y-104355000D01*
X176996248Y-104355000D01*
X176871370Y-104342701D01*
X176711145Y-104294097D01*
X176563480Y-104215169D01*
X176434051Y-104108949D01*
X176327831Y-103979520D01*
X176248903Y-103831855D01*
X176200299Y-103671630D01*
X176183888Y-103505000D01*
X176200299Y-103338370D01*
X176248903Y-103178145D01*
X176327831Y-103030480D01*
X176434051Y-102901051D01*
X176563480Y-102794831D01*
X176711145Y-102715903D01*
X176871370Y-102667299D01*
X176996248Y-102655000D01*
X177079752Y-102655000D01*
X177204630Y-102667299D01*
X177204630Y-102667299D01*
G37*
G36*
X113775112Y-101375565D02*
X113859695Y-101383896D01*
X113980127Y-101420429D01*
X114022488Y-101433279D01*
X114172512Y-101513468D01*
X114304012Y-101621388D01*
X114411932Y-101752888D01*
X114492121Y-101902912D01*
X114492122Y-101902916D01*
X114541504Y-102065705D01*
X114558178Y-102235000D01*
X114541504Y-102404295D01*
X114504971Y-102524727D01*
X114492121Y-102567088D01*
X114411932Y-102717112D01*
X114304012Y-102848612D01*
X114172512Y-102956532D01*
X114022488Y-103036721D01*
X113980127Y-103049571D01*
X113859695Y-103086104D01*
X113775112Y-103094435D01*
X113732821Y-103098600D01*
X113343179Y-103098600D01*
X113300888Y-103094435D01*
X113216305Y-103086104D01*
X113095873Y-103049571D01*
X113053512Y-103036721D01*
X112903488Y-102956532D01*
X112771988Y-102848612D01*
X112664068Y-102717112D01*
X112583879Y-102567088D01*
X112571029Y-102524727D01*
X112534496Y-102404295D01*
X112517822Y-102235000D01*
X112534496Y-102065705D01*
X112583878Y-101902916D01*
X112583879Y-101902912D01*
X112664068Y-101752888D01*
X112771988Y-101621388D01*
X112903488Y-101513468D01*
X113053512Y-101433279D01*
X113095873Y-101420429D01*
X113216305Y-101383896D01*
X113300888Y-101375565D01*
X113343179Y-101371400D01*
X113732821Y-101371400D01*
X113775112Y-101375565D01*
X113775112Y-101375565D01*
G37*
G36*
X177204630Y-100127299D02*
X177364855Y-100175903D01*
X177512520Y-100254831D01*
X177641949Y-100361051D01*
X177748169Y-100490480D01*
X177827097Y-100638145D01*
X177875701Y-100798370D01*
X177892112Y-100965000D01*
X177875701Y-101131630D01*
X177827097Y-101291855D01*
X177748169Y-101439520D01*
X177641949Y-101568949D01*
X177512520Y-101675169D01*
X177364855Y-101754097D01*
X177204630Y-101802701D01*
X177079752Y-101815000D01*
X176996248Y-101815000D01*
X176871370Y-101802701D01*
X176711145Y-101754097D01*
X176563480Y-101675169D01*
X176434051Y-101568949D01*
X176327831Y-101439520D01*
X176248903Y-101291855D01*
X176200299Y-101131630D01*
X176183888Y-100965000D01*
X176200299Y-100798370D01*
X176248903Y-100638145D01*
X176327831Y-100490480D01*
X176434051Y-100361051D01*
X176563480Y-100254831D01*
X176711145Y-100175903D01*
X176871370Y-100127299D01*
X176996248Y-100115000D01*
X177079752Y-100115000D01*
X177204630Y-100127299D01*
X177204630Y-100127299D01*
G37*
G36*
X113775112Y-98835565D02*
X113859695Y-98843896D01*
X113980127Y-98880429D01*
X114022488Y-98893279D01*
X114172512Y-98973468D01*
X114304012Y-99081388D01*
X114411932Y-99212888D01*
X114492121Y-99362912D01*
X114492122Y-99362916D01*
X114541504Y-99525705D01*
X114558178Y-99695000D01*
X114541504Y-99864295D01*
X114504971Y-99984727D01*
X114492121Y-100027088D01*
X114411932Y-100177112D01*
X114304012Y-100308612D01*
X114172512Y-100416532D01*
X114022488Y-100496721D01*
X113980127Y-100509571D01*
X113859695Y-100546104D01*
X113775112Y-100554435D01*
X113732821Y-100558600D01*
X113343179Y-100558600D01*
X113300888Y-100554435D01*
X113216305Y-100546104D01*
X113095873Y-100509571D01*
X113053512Y-100496721D01*
X112903488Y-100416532D01*
X112771988Y-100308612D01*
X112664068Y-100177112D01*
X112583879Y-100027088D01*
X112571029Y-99984727D01*
X112534496Y-99864295D01*
X112517822Y-99695000D01*
X112534496Y-99525705D01*
X112583878Y-99362916D01*
X112583879Y-99362912D01*
X112664068Y-99212888D01*
X112771988Y-99081388D01*
X112903488Y-98973468D01*
X113053512Y-98893279D01*
X113095873Y-98880429D01*
X113216305Y-98843896D01*
X113300888Y-98835565D01*
X113343179Y-98831400D01*
X113732821Y-98831400D01*
X113775112Y-98835565D01*
X113775112Y-98835565D01*
G37*
G36*
X177204630Y-97587299D02*
X177364855Y-97635903D01*
X177512520Y-97714831D01*
X177641949Y-97821051D01*
X177748169Y-97950480D01*
X177827097Y-98098145D01*
X177875701Y-98258370D01*
X177892112Y-98425000D01*
X177875701Y-98591630D01*
X177827097Y-98751855D01*
X177748169Y-98899520D01*
X177641949Y-99028949D01*
X177512520Y-99135169D01*
X177364855Y-99214097D01*
X177204630Y-99262701D01*
X177079752Y-99275000D01*
X176996248Y-99275000D01*
X176871370Y-99262701D01*
X176711145Y-99214097D01*
X176563480Y-99135169D01*
X176434051Y-99028949D01*
X176327831Y-98899520D01*
X176248903Y-98751855D01*
X176200299Y-98591630D01*
X176183888Y-98425000D01*
X176200299Y-98258370D01*
X176248903Y-98098145D01*
X176327831Y-97950480D01*
X176434051Y-97821051D01*
X176563480Y-97714831D01*
X176711145Y-97635903D01*
X176871370Y-97587299D01*
X176996248Y-97575000D01*
X177079752Y-97575000D01*
X177204630Y-97587299D01*
X177204630Y-97587299D01*
G37*
G36*
X113775112Y-96295565D02*
X113859695Y-96303896D01*
X113980127Y-96340429D01*
X114022488Y-96353279D01*
X114172512Y-96433468D01*
X114304012Y-96541388D01*
X114411932Y-96672888D01*
X114492121Y-96822912D01*
X114492122Y-96822916D01*
X114541504Y-96985705D01*
X114558178Y-97155000D01*
X114541504Y-97324295D01*
X114504971Y-97444727D01*
X114492121Y-97487088D01*
X114411932Y-97637112D01*
X114304012Y-97768612D01*
X114172512Y-97876532D01*
X114022488Y-97956721D01*
X113980127Y-97969571D01*
X113859695Y-98006104D01*
X113775112Y-98014435D01*
X113732821Y-98018600D01*
X113343179Y-98018600D01*
X113300888Y-98014435D01*
X113216305Y-98006104D01*
X113095873Y-97969571D01*
X113053512Y-97956721D01*
X112903488Y-97876532D01*
X112771988Y-97768612D01*
X112664068Y-97637112D01*
X112583879Y-97487088D01*
X112571029Y-97444727D01*
X112534496Y-97324295D01*
X112517822Y-97155000D01*
X112534496Y-96985705D01*
X112583878Y-96822916D01*
X112583879Y-96822912D01*
X112664068Y-96672888D01*
X112771988Y-96541388D01*
X112903488Y-96433468D01*
X113053512Y-96353279D01*
X113095873Y-96340429D01*
X113216305Y-96303896D01*
X113300888Y-96295565D01*
X113343179Y-96291400D01*
X113732821Y-96291400D01*
X113775112Y-96295565D01*
X113775112Y-96295565D01*
G37*
G36*
X177888000Y-96735000D02*
X176188000Y-96735000D01*
X176188000Y-95035000D01*
X177888000Y-95035000D01*
X177888000Y-96735000D01*
X177888000Y-96735000D01*
G37*
G36*
X113775112Y-93755565D02*
X113859695Y-93763896D01*
X113980127Y-93800429D01*
X114022488Y-93813279D01*
X114172512Y-93893468D01*
X114304012Y-94001388D01*
X114411932Y-94132888D01*
X114492121Y-94282912D01*
X114492122Y-94282916D01*
X114541504Y-94445705D01*
X114558178Y-94615000D01*
X114541504Y-94784295D01*
X114504971Y-94904727D01*
X114492121Y-94947088D01*
X114411932Y-95097112D01*
X114304012Y-95228612D01*
X114172512Y-95336532D01*
X114022488Y-95416721D01*
X113980127Y-95429571D01*
X113859695Y-95466104D01*
X113775112Y-95474435D01*
X113732821Y-95478600D01*
X113343179Y-95478600D01*
X113300888Y-95474435D01*
X113216305Y-95466104D01*
X113095873Y-95429571D01*
X113053512Y-95416721D01*
X112903488Y-95336532D01*
X112771988Y-95228612D01*
X112664068Y-95097112D01*
X112583879Y-94947088D01*
X112571029Y-94904727D01*
X112534496Y-94784295D01*
X112517822Y-94615000D01*
X112534496Y-94445705D01*
X112583878Y-94282916D01*
X112583879Y-94282912D01*
X112664068Y-94132888D01*
X112771988Y-94001388D01*
X112903488Y-93893468D01*
X113053512Y-93813279D01*
X113095873Y-93800429D01*
X113216305Y-93763896D01*
X113300888Y-93755565D01*
X113343179Y-93751400D01*
X113732821Y-93751400D01*
X113775112Y-93755565D01*
X113775112Y-93755565D01*
G37*
G36*
X113775112Y-91215565D02*
X113859695Y-91223896D01*
X113980127Y-91260429D01*
X114022488Y-91273279D01*
X114172512Y-91353468D01*
X114304012Y-91461388D01*
X114411932Y-91592888D01*
X114492121Y-91742912D01*
X114504971Y-91785273D01*
X114541504Y-91905705D01*
X114558178Y-92075000D01*
X114541504Y-92244295D01*
X114504971Y-92364727D01*
X114492121Y-92407088D01*
X114411932Y-92557112D01*
X114304012Y-92688612D01*
X114172512Y-92796532D01*
X114022488Y-92876721D01*
X113980127Y-92889571D01*
X113859695Y-92926104D01*
X113775112Y-92934435D01*
X113732821Y-92938600D01*
X113343179Y-92938600D01*
X113300888Y-92934435D01*
X113216305Y-92926104D01*
X113095873Y-92889571D01*
X113053512Y-92876721D01*
X112903488Y-92796532D01*
X112771988Y-92688612D01*
X112664068Y-92557112D01*
X112583879Y-92407088D01*
X112571029Y-92364727D01*
X112534496Y-92244295D01*
X112517822Y-92075000D01*
X112534496Y-91905705D01*
X112571029Y-91785273D01*
X112583879Y-91742912D01*
X112664068Y-91592888D01*
X112771988Y-91461388D01*
X112903488Y-91353468D01*
X113053512Y-91273279D01*
X113095873Y-91260429D01*
X113216305Y-91223896D01*
X113300888Y-91215565D01*
X113343179Y-91211400D01*
X113732821Y-91211400D01*
X113775112Y-91215565D01*
X113775112Y-91215565D01*
G37*
G36*
X177630712Y-88851088D02*
X178000510Y-89004263D01*
X178000513Y-89004265D01*
X178333325Y-89226643D01*
X178616357Y-89509675D01*
X178746398Y-89704295D01*
X178838737Y-89842490D01*
X178991912Y-90212288D01*
X179070000Y-90604864D01*
X179070000Y-91005136D01*
X178991912Y-91397712D01*
X178838737Y-91767510D01*
X178838735Y-91767513D01*
X178616357Y-92100325D01*
X178333325Y-92383357D01*
X178073282Y-92557112D01*
X178000510Y-92605737D01*
X177630712Y-92758912D01*
X177238136Y-92837000D01*
X176837864Y-92837000D01*
X176445288Y-92758912D01*
X176075490Y-92605737D01*
X176002718Y-92557112D01*
X175742675Y-92383357D01*
X175459643Y-92100325D01*
X175237265Y-91767513D01*
X175237263Y-91767510D01*
X175084088Y-91397712D01*
X175006000Y-91005136D01*
X175006000Y-90604864D01*
X175084088Y-90212288D01*
X175237263Y-89842490D01*
X175329602Y-89704295D01*
X175459643Y-89509675D01*
X175742675Y-89226643D01*
X176075487Y-89004265D01*
X176075490Y-89004263D01*
X176445288Y-88851088D01*
X176837864Y-88773000D01*
X177238136Y-88773000D01*
X177630712Y-88851088D01*
X177630712Y-88851088D01*
G37*
G36*
X113775112Y-88675565D02*
X113859695Y-88683896D01*
X113980127Y-88720429D01*
X114022488Y-88733279D01*
X114172512Y-88813468D01*
X114304012Y-88921388D01*
X114411932Y-89052888D01*
X114492121Y-89202912D01*
X114504971Y-89245273D01*
X114541504Y-89365705D01*
X114558178Y-89535000D01*
X114541504Y-89704295D01*
X114504971Y-89824727D01*
X114492121Y-89867088D01*
X114411932Y-90017112D01*
X114304012Y-90148612D01*
X114172512Y-90256532D01*
X114022488Y-90336721D01*
X113980127Y-90349571D01*
X113859695Y-90386104D01*
X113775112Y-90394435D01*
X113732821Y-90398600D01*
X113343179Y-90398600D01*
X113300888Y-90394435D01*
X113216305Y-90386104D01*
X113095873Y-90349571D01*
X113053512Y-90336721D01*
X112903488Y-90256532D01*
X112771988Y-90148612D01*
X112664068Y-90017112D01*
X112583879Y-89867088D01*
X112571029Y-89824727D01*
X112534496Y-89704295D01*
X112517822Y-89535000D01*
X112534496Y-89365705D01*
X112571029Y-89245273D01*
X112583879Y-89202912D01*
X112664068Y-89052888D01*
X112771988Y-88921388D01*
X112903488Y-88813468D01*
X113053512Y-88733279D01*
X113095873Y-88720429D01*
X113216305Y-88683896D01*
X113300888Y-88675565D01*
X113343179Y-88671400D01*
X113732821Y-88671400D01*
X113775112Y-88675565D01*
X113775112Y-88675565D01*
G37*
G36*
X113775112Y-86135565D02*
X113859695Y-86143896D01*
X113980127Y-86180429D01*
X114022488Y-86193279D01*
X114172512Y-86273468D01*
X114304012Y-86381388D01*
X114411932Y-86512888D01*
X114492121Y-86662912D01*
X114492122Y-86662916D01*
X114541504Y-86825705D01*
X114558178Y-86995000D01*
X114541504Y-87164295D01*
X114504971Y-87284727D01*
X114492121Y-87327088D01*
X114411932Y-87477112D01*
X114304012Y-87608612D01*
X114172512Y-87716532D01*
X114022488Y-87796721D01*
X113980127Y-87809571D01*
X113859695Y-87846104D01*
X113775112Y-87854435D01*
X113732821Y-87858600D01*
X113343179Y-87858600D01*
X113300888Y-87854435D01*
X113216305Y-87846104D01*
X113095873Y-87809571D01*
X113053512Y-87796721D01*
X112903488Y-87716532D01*
X112771988Y-87608612D01*
X112664068Y-87477112D01*
X112583879Y-87327088D01*
X112571029Y-87284727D01*
X112534496Y-87164295D01*
X112517822Y-86995000D01*
X112534496Y-86825705D01*
X112583878Y-86662916D01*
X112583879Y-86662912D01*
X112664068Y-86512888D01*
X112771988Y-86381388D01*
X112903488Y-86273468D01*
X113053512Y-86193279D01*
X113095873Y-86180429D01*
X113216305Y-86143896D01*
X113300888Y-86135565D01*
X113343179Y-86131400D01*
X113732821Y-86131400D01*
X113775112Y-86135565D01*
X113775112Y-86135565D01*
G37*
G36*
X126830712Y-73611088D02*
X127200510Y-73764263D01*
X127200513Y-73764265D01*
X127533325Y-73986643D01*
X127816357Y-74269675D01*
X128000204Y-74544822D01*
X128038737Y-74602490D01*
X128191912Y-74972288D01*
X128270000Y-75364864D01*
X128270000Y-75765136D01*
X128191912Y-76157712D01*
X128038737Y-76527510D01*
X128038735Y-76527513D01*
X127816357Y-76860325D01*
X127533325Y-77143357D01*
X127200513Y-77365735D01*
X127200510Y-77365737D01*
X126830712Y-77518912D01*
X126438136Y-77597000D01*
X126037864Y-77597000D01*
X125645288Y-77518912D01*
X125275490Y-77365737D01*
X125275487Y-77365735D01*
X124942675Y-77143357D01*
X124659643Y-76860325D01*
X124437265Y-76527513D01*
X124437263Y-76527510D01*
X124284088Y-76157712D01*
X124206000Y-75765136D01*
X124206000Y-75364864D01*
X124284088Y-74972288D01*
X124437263Y-74602490D01*
X124475796Y-74544822D01*
X124659643Y-74269675D01*
X124942675Y-73986643D01*
X125275487Y-73764265D01*
X125275490Y-73764263D01*
X125645288Y-73611088D01*
X126037864Y-73533000D01*
X126438136Y-73533000D01*
X126830712Y-73611088D01*
X126830712Y-73611088D01*
G37*
G36*
X152823294Y-74561496D02*
X152943726Y-74598029D01*
X152986087Y-74610879D01*
X153136112Y-74691068D01*
X153267612Y-74798988D01*
X153375532Y-74930488D01*
X153455721Y-75080512D01*
X153468571Y-75122873D01*
X153505104Y-75243305D01*
X153505104Y-75243307D01*
X153517600Y-75370179D01*
X153517600Y-75759820D01*
X153517076Y-75765136D01*
X153505104Y-75886694D01*
X153468571Y-76007128D01*
X153455721Y-76049488D01*
X153375532Y-76199512D01*
X153267612Y-76331012D01*
X153136112Y-76438932D01*
X152986088Y-76519121D01*
X152958433Y-76527510D01*
X152823295Y-76568504D01*
X152710432Y-76579620D01*
X152654001Y-76585178D01*
X152654000Y-76585178D01*
X152484706Y-76568504D01*
X152349568Y-76527510D01*
X152321913Y-76519121D01*
X152171889Y-76438932D01*
X152081946Y-76365117D01*
X152040388Y-76331012D01*
X151932469Y-76199512D01*
X151910127Y-76157713D01*
X151852279Y-76049488D01*
X151839429Y-76007127D01*
X151802896Y-75886695D01*
X151794565Y-75802112D01*
X151790400Y-75759821D01*
X151790400Y-75370180D01*
X151802896Y-75243308D01*
X151802896Y-75243306D01*
X151852278Y-75080517D01*
X151852279Y-75080513D01*
X151932468Y-74930488D01*
X152040388Y-74798988D01*
X152171888Y-74691068D01*
X152321912Y-74610879D01*
X152364273Y-74598029D01*
X152484705Y-74561496D01*
X152597568Y-74550380D01*
X152653999Y-74544822D01*
X152654000Y-74544822D01*
X152823294Y-74561496D01*
X152823294Y-74561496D01*
G37*
G36*
X132503294Y-74561496D02*
X132623726Y-74598029D01*
X132666087Y-74610879D01*
X132816112Y-74691068D01*
X132947612Y-74798988D01*
X133055532Y-74930488D01*
X133135721Y-75080512D01*
X133148571Y-75122873D01*
X133185104Y-75243305D01*
X133185104Y-75243307D01*
X133197600Y-75370179D01*
X133197600Y-75759820D01*
X133197076Y-75765136D01*
X133185104Y-75886694D01*
X133148571Y-76007128D01*
X133135721Y-76049488D01*
X133055532Y-76199512D01*
X132947612Y-76331012D01*
X132816112Y-76438932D01*
X132666088Y-76519121D01*
X132638433Y-76527510D01*
X132503295Y-76568504D01*
X132390432Y-76579620D01*
X132334001Y-76585178D01*
X132334000Y-76585178D01*
X132164706Y-76568504D01*
X132029568Y-76527510D01*
X132001913Y-76519121D01*
X131851889Y-76438932D01*
X131761946Y-76365117D01*
X131720388Y-76331012D01*
X131612469Y-76199512D01*
X131590127Y-76157713D01*
X131532279Y-76049488D01*
X131519429Y-76007127D01*
X131482896Y-75886695D01*
X131474565Y-75802112D01*
X131470400Y-75759821D01*
X131470400Y-75370180D01*
X131482896Y-75243308D01*
X131482896Y-75243306D01*
X131532278Y-75080517D01*
X131532279Y-75080513D01*
X131612468Y-74930488D01*
X131720388Y-74798988D01*
X131851888Y-74691068D01*
X132001912Y-74610879D01*
X132044273Y-74598029D01*
X132164705Y-74561496D01*
X132277568Y-74550380D01*
X132333999Y-74544822D01*
X132334000Y-74544822D01*
X132503294Y-74561496D01*
X132503294Y-74561496D01*
G37*
G36*
X135043294Y-74561496D02*
X135163726Y-74598029D01*
X135206087Y-74610879D01*
X135356112Y-74691068D01*
X135487612Y-74798988D01*
X135595532Y-74930488D01*
X135675721Y-75080512D01*
X135688571Y-75122873D01*
X135725104Y-75243305D01*
X135725104Y-75243307D01*
X135737600Y-75370179D01*
X135737600Y-75759820D01*
X135737076Y-75765136D01*
X135725104Y-75886694D01*
X135688571Y-76007128D01*
X135675721Y-76049488D01*
X135595532Y-76199512D01*
X135487612Y-76331012D01*
X135356112Y-76438932D01*
X135206088Y-76519121D01*
X135178433Y-76527510D01*
X135043295Y-76568504D01*
X134930432Y-76579620D01*
X134874001Y-76585178D01*
X134874000Y-76585178D01*
X134704706Y-76568504D01*
X134569568Y-76527510D01*
X134541913Y-76519121D01*
X134391889Y-76438932D01*
X134301946Y-76365117D01*
X134260388Y-76331012D01*
X134152469Y-76199512D01*
X134130127Y-76157713D01*
X134072279Y-76049488D01*
X134059429Y-76007127D01*
X134022896Y-75886695D01*
X134014565Y-75802112D01*
X134010400Y-75759821D01*
X134010400Y-75370180D01*
X134022896Y-75243308D01*
X134022896Y-75243306D01*
X134072278Y-75080517D01*
X134072279Y-75080513D01*
X134152468Y-74930488D01*
X134260388Y-74798988D01*
X134391888Y-74691068D01*
X134541912Y-74610879D01*
X134584273Y-74598029D01*
X134704705Y-74561496D01*
X134817568Y-74550380D01*
X134873999Y-74544822D01*
X134874000Y-74544822D01*
X135043294Y-74561496D01*
X135043294Y-74561496D01*
G37*
G36*
X137583294Y-74561496D02*
X137703726Y-74598029D01*
X137746087Y-74610879D01*
X137896112Y-74691068D01*
X138027612Y-74798988D01*
X138135532Y-74930488D01*
X138215721Y-75080512D01*
X138228571Y-75122873D01*
X138265104Y-75243305D01*
X138265104Y-75243307D01*
X138277600Y-75370179D01*
X138277600Y-75759820D01*
X138277076Y-75765136D01*
X138265104Y-75886694D01*
X138228571Y-76007128D01*
X138215721Y-76049488D01*
X138135532Y-76199512D01*
X138027612Y-76331012D01*
X137896112Y-76438932D01*
X137746088Y-76519121D01*
X137718433Y-76527510D01*
X137583295Y-76568504D01*
X137470432Y-76579620D01*
X137414001Y-76585178D01*
X137414000Y-76585178D01*
X137244706Y-76568504D01*
X137109568Y-76527510D01*
X137081913Y-76519121D01*
X136931889Y-76438932D01*
X136841946Y-76365117D01*
X136800388Y-76331012D01*
X136692469Y-76199512D01*
X136670127Y-76157713D01*
X136612279Y-76049488D01*
X136599429Y-76007127D01*
X136562896Y-75886695D01*
X136554565Y-75802112D01*
X136550400Y-75759821D01*
X136550400Y-75370180D01*
X136562896Y-75243308D01*
X136562896Y-75243306D01*
X136612278Y-75080517D01*
X136612279Y-75080513D01*
X136692468Y-74930488D01*
X136800388Y-74798988D01*
X136931888Y-74691068D01*
X137081912Y-74610879D01*
X137124273Y-74598029D01*
X137244705Y-74561496D01*
X137357568Y-74550380D01*
X137413999Y-74544822D01*
X137414000Y-74544822D01*
X137583294Y-74561496D01*
X137583294Y-74561496D01*
G37*
G36*
X140123294Y-74561496D02*
X140243726Y-74598029D01*
X140286087Y-74610879D01*
X140436112Y-74691068D01*
X140567612Y-74798988D01*
X140675532Y-74930488D01*
X140755721Y-75080512D01*
X140768571Y-75122873D01*
X140805104Y-75243305D01*
X140805104Y-75243307D01*
X140817600Y-75370179D01*
X140817600Y-75759820D01*
X140817076Y-75765136D01*
X140805104Y-75886694D01*
X140768571Y-76007128D01*
X140755721Y-76049488D01*
X140675532Y-76199512D01*
X140567612Y-76331012D01*
X140436112Y-76438932D01*
X140286088Y-76519121D01*
X140258433Y-76527510D01*
X140123295Y-76568504D01*
X140010432Y-76579620D01*
X139954001Y-76585178D01*
X139954000Y-76585178D01*
X139784706Y-76568504D01*
X139649568Y-76527510D01*
X139621913Y-76519121D01*
X139471889Y-76438932D01*
X139381946Y-76365117D01*
X139340388Y-76331012D01*
X139232469Y-76199512D01*
X139210127Y-76157713D01*
X139152279Y-76049488D01*
X139139429Y-76007127D01*
X139102896Y-75886695D01*
X139094565Y-75802112D01*
X139090400Y-75759821D01*
X139090400Y-75370180D01*
X139102896Y-75243308D01*
X139102896Y-75243306D01*
X139152278Y-75080517D01*
X139152279Y-75080513D01*
X139232468Y-74930488D01*
X139340388Y-74798988D01*
X139471888Y-74691068D01*
X139621912Y-74610879D01*
X139664273Y-74598029D01*
X139784705Y-74561496D01*
X139897568Y-74550380D01*
X139953999Y-74544822D01*
X139954000Y-74544822D01*
X140123294Y-74561496D01*
X140123294Y-74561496D01*
G37*
G36*
X145203294Y-74561496D02*
X145323726Y-74598029D01*
X145366087Y-74610879D01*
X145516112Y-74691068D01*
X145647612Y-74798988D01*
X145755532Y-74930488D01*
X145835721Y-75080512D01*
X145848571Y-75122873D01*
X145885104Y-75243305D01*
X145885104Y-75243307D01*
X145897600Y-75370179D01*
X145897600Y-75759820D01*
X145897076Y-75765136D01*
X145885104Y-75886694D01*
X145848571Y-76007128D01*
X145835721Y-76049488D01*
X145755532Y-76199512D01*
X145647612Y-76331012D01*
X145516112Y-76438932D01*
X145366088Y-76519121D01*
X145338433Y-76527510D01*
X145203295Y-76568504D01*
X145090432Y-76579620D01*
X145034001Y-76585178D01*
X145034000Y-76585178D01*
X144864706Y-76568504D01*
X144729568Y-76527510D01*
X144701913Y-76519121D01*
X144551889Y-76438932D01*
X144461946Y-76365117D01*
X144420388Y-76331012D01*
X144312469Y-76199512D01*
X144290127Y-76157713D01*
X144232279Y-76049488D01*
X144219429Y-76007127D01*
X144182896Y-75886695D01*
X144174565Y-75802112D01*
X144170400Y-75759821D01*
X144170400Y-75370180D01*
X144182896Y-75243308D01*
X144182896Y-75243306D01*
X144232278Y-75080517D01*
X144232279Y-75080513D01*
X144312468Y-74930488D01*
X144420388Y-74798988D01*
X144551888Y-74691068D01*
X144701912Y-74610879D01*
X144744273Y-74598029D01*
X144864705Y-74561496D01*
X144977568Y-74550380D01*
X145033999Y-74544822D01*
X145034000Y-74544822D01*
X145203294Y-74561496D01*
X145203294Y-74561496D01*
G37*
G36*
X147743294Y-74561496D02*
X147863726Y-74598029D01*
X147906087Y-74610879D01*
X148056112Y-74691068D01*
X148187612Y-74798988D01*
X148295532Y-74930488D01*
X148375721Y-75080512D01*
X148388571Y-75122873D01*
X148425104Y-75243305D01*
X148425104Y-75243307D01*
X148437600Y-75370179D01*
X148437600Y-75759820D01*
X148437076Y-75765136D01*
X148425104Y-75886694D01*
X148388571Y-76007128D01*
X148375721Y-76049488D01*
X148295532Y-76199512D01*
X148187612Y-76331012D01*
X148056112Y-76438932D01*
X147906088Y-76519121D01*
X147878433Y-76527510D01*
X147743295Y-76568504D01*
X147630432Y-76579620D01*
X147574001Y-76585178D01*
X147574000Y-76585178D01*
X147404706Y-76568504D01*
X147269568Y-76527510D01*
X147241913Y-76519121D01*
X147091889Y-76438932D01*
X147001946Y-76365117D01*
X146960388Y-76331012D01*
X146852469Y-76199512D01*
X146830127Y-76157713D01*
X146772279Y-76049488D01*
X146759429Y-76007127D01*
X146722896Y-75886695D01*
X146714565Y-75802112D01*
X146710400Y-75759821D01*
X146710400Y-75370180D01*
X146722896Y-75243308D01*
X146722896Y-75243306D01*
X146772278Y-75080517D01*
X146772279Y-75080513D01*
X146852468Y-74930488D01*
X146960388Y-74798988D01*
X147091888Y-74691068D01*
X147241912Y-74610879D01*
X147284273Y-74598029D01*
X147404705Y-74561496D01*
X147517568Y-74550380D01*
X147573999Y-74544822D01*
X147574000Y-74544822D01*
X147743294Y-74561496D01*
X147743294Y-74561496D01*
G37*
G36*
X150283294Y-74561496D02*
X150403726Y-74598029D01*
X150446087Y-74610879D01*
X150596112Y-74691068D01*
X150727612Y-74798988D01*
X150835532Y-74930488D01*
X150915721Y-75080512D01*
X150928571Y-75122873D01*
X150965104Y-75243305D01*
X150965104Y-75243307D01*
X150977600Y-75370179D01*
X150977600Y-75759820D01*
X150977076Y-75765136D01*
X150965104Y-75886694D01*
X150928571Y-76007128D01*
X150915721Y-76049488D01*
X150835532Y-76199512D01*
X150727612Y-76331012D01*
X150596112Y-76438932D01*
X150446088Y-76519121D01*
X150418433Y-76527510D01*
X150283295Y-76568504D01*
X150170432Y-76579620D01*
X150114001Y-76585178D01*
X150114000Y-76585178D01*
X149944706Y-76568504D01*
X149809568Y-76527510D01*
X149781913Y-76519121D01*
X149631889Y-76438932D01*
X149541946Y-76365117D01*
X149500388Y-76331012D01*
X149392469Y-76199512D01*
X149370127Y-76157713D01*
X149312279Y-76049488D01*
X149299429Y-76007127D01*
X149262896Y-75886695D01*
X149254565Y-75802112D01*
X149250400Y-75759821D01*
X149250400Y-75370180D01*
X149262896Y-75243308D01*
X149262896Y-75243306D01*
X149312278Y-75080517D01*
X149312279Y-75080513D01*
X149392468Y-74930488D01*
X149500388Y-74798988D01*
X149631888Y-74691068D01*
X149781912Y-74610879D01*
X149824273Y-74598029D01*
X149944705Y-74561496D01*
X150057568Y-74550380D01*
X150113999Y-74544822D01*
X150114000Y-74544822D01*
X150283294Y-74561496D01*
X150283294Y-74561496D01*
G37*
G36*
X129963294Y-74561496D02*
X130083726Y-74598029D01*
X130126087Y-74610879D01*
X130276112Y-74691068D01*
X130407612Y-74798988D01*
X130515532Y-74930488D01*
X130595721Y-75080512D01*
X130608571Y-75122873D01*
X130645104Y-75243305D01*
X130645104Y-75243307D01*
X130657600Y-75370179D01*
X130657600Y-75759820D01*
X130657076Y-75765136D01*
X130645104Y-75886694D01*
X130608571Y-76007128D01*
X130595721Y-76049488D01*
X130515532Y-76199512D01*
X130407612Y-76331012D01*
X130276112Y-76438932D01*
X130126088Y-76519121D01*
X130098433Y-76527510D01*
X129963295Y-76568504D01*
X129850432Y-76579620D01*
X129794001Y-76585178D01*
X129794000Y-76585178D01*
X129624706Y-76568504D01*
X129489568Y-76527510D01*
X129461913Y-76519121D01*
X129311889Y-76438932D01*
X129221946Y-76365117D01*
X129180388Y-76331012D01*
X129072469Y-76199512D01*
X129050127Y-76157713D01*
X128992279Y-76049488D01*
X128979429Y-76007127D01*
X128942896Y-75886695D01*
X128934565Y-75802112D01*
X128930400Y-75759821D01*
X128930400Y-75370180D01*
X128942896Y-75243308D01*
X128942896Y-75243306D01*
X128992278Y-75080517D01*
X128992279Y-75080513D01*
X129072468Y-74930488D01*
X129180388Y-74798988D01*
X129311888Y-74691068D01*
X129461912Y-74610879D01*
X129504273Y-74598029D01*
X129624705Y-74561496D01*
X129737568Y-74550380D01*
X129793999Y-74544822D01*
X129794000Y-74544822D01*
X129963294Y-74561496D01*
X129963294Y-74561496D01*
G37*
G36*
X156887294Y-74561496D02*
X157007726Y-74598029D01*
X157050087Y-74610879D01*
X157200112Y-74691068D01*
X157331612Y-74798988D01*
X157439532Y-74930488D01*
X157519721Y-75080512D01*
X157532571Y-75122873D01*
X157569104Y-75243305D01*
X157569104Y-75243307D01*
X157581600Y-75370179D01*
X157581600Y-75759820D01*
X157581076Y-75765136D01*
X157569104Y-75886694D01*
X157532571Y-76007128D01*
X157519721Y-76049488D01*
X157439532Y-76199512D01*
X157331612Y-76331012D01*
X157200112Y-76438932D01*
X157050088Y-76519121D01*
X157022433Y-76527510D01*
X156887295Y-76568504D01*
X156774432Y-76579620D01*
X156718001Y-76585178D01*
X156718000Y-76585178D01*
X156548706Y-76568504D01*
X156413568Y-76527510D01*
X156385913Y-76519121D01*
X156235889Y-76438932D01*
X156145946Y-76365117D01*
X156104388Y-76331012D01*
X155996469Y-76199512D01*
X155974127Y-76157713D01*
X155916279Y-76049488D01*
X155903429Y-76007127D01*
X155866896Y-75886695D01*
X155858565Y-75802112D01*
X155854400Y-75759821D01*
X155854400Y-75370180D01*
X155866896Y-75243308D01*
X155866896Y-75243306D01*
X155916278Y-75080517D01*
X155916279Y-75080513D01*
X155996468Y-74930488D01*
X156104388Y-74798988D01*
X156235888Y-74691068D01*
X156385912Y-74610879D01*
X156428273Y-74598029D01*
X156548705Y-74561496D01*
X156661568Y-74550380D01*
X156717999Y-74544822D01*
X156718000Y-74544822D01*
X156887294Y-74561496D01*
X156887294Y-74561496D01*
G37*
G36*
X159427294Y-74561496D02*
X159547726Y-74598029D01*
X159590087Y-74610879D01*
X159740112Y-74691068D01*
X159871612Y-74798988D01*
X159979532Y-74930488D01*
X160059721Y-75080512D01*
X160072571Y-75122873D01*
X160109104Y-75243305D01*
X160109104Y-75243307D01*
X160121600Y-75370179D01*
X160121600Y-75759820D01*
X160121076Y-75765136D01*
X160109104Y-75886694D01*
X160072571Y-76007128D01*
X160059721Y-76049488D01*
X159979532Y-76199512D01*
X159871612Y-76331012D01*
X159740112Y-76438932D01*
X159590088Y-76519121D01*
X159562433Y-76527510D01*
X159427295Y-76568504D01*
X159314432Y-76579620D01*
X159258001Y-76585178D01*
X159258000Y-76585178D01*
X159088706Y-76568504D01*
X158953568Y-76527510D01*
X158925913Y-76519121D01*
X158775889Y-76438932D01*
X158685946Y-76365117D01*
X158644388Y-76331012D01*
X158536469Y-76199512D01*
X158514127Y-76157713D01*
X158456279Y-76049488D01*
X158443429Y-76007127D01*
X158406896Y-75886695D01*
X158398565Y-75802112D01*
X158394400Y-75759821D01*
X158394400Y-75370180D01*
X158406896Y-75243308D01*
X158406896Y-75243306D01*
X158456278Y-75080517D01*
X158456279Y-75080513D01*
X158536468Y-74930488D01*
X158644388Y-74798988D01*
X158775888Y-74691068D01*
X158925912Y-74610879D01*
X158968273Y-74598029D01*
X159088705Y-74561496D01*
X159201568Y-74550380D01*
X159257999Y-74544822D01*
X159258000Y-74544822D01*
X159427294Y-74561496D01*
X159427294Y-74561496D01*
G37*
G36*
X161967294Y-74561496D02*
X162087726Y-74598029D01*
X162130087Y-74610879D01*
X162280112Y-74691068D01*
X162411612Y-74798988D01*
X162519532Y-74930488D01*
X162599721Y-75080512D01*
X162612571Y-75122873D01*
X162649104Y-75243305D01*
X162649104Y-75243307D01*
X162661600Y-75370179D01*
X162661600Y-75759820D01*
X162661076Y-75765136D01*
X162649104Y-75886694D01*
X162612571Y-76007128D01*
X162599721Y-76049488D01*
X162519532Y-76199512D01*
X162411612Y-76331012D01*
X162280112Y-76438932D01*
X162130088Y-76519121D01*
X162102433Y-76527510D01*
X161967295Y-76568504D01*
X161854432Y-76579620D01*
X161798001Y-76585178D01*
X161798000Y-76585178D01*
X161628706Y-76568504D01*
X161493568Y-76527510D01*
X161465913Y-76519121D01*
X161315889Y-76438932D01*
X161225946Y-76365117D01*
X161184388Y-76331012D01*
X161076469Y-76199512D01*
X161054127Y-76157713D01*
X160996279Y-76049488D01*
X160983429Y-76007127D01*
X160946896Y-75886695D01*
X160938565Y-75802112D01*
X160934400Y-75759821D01*
X160934400Y-75370180D01*
X160946896Y-75243308D01*
X160946896Y-75243306D01*
X160996278Y-75080517D01*
X160996279Y-75080513D01*
X161076468Y-74930488D01*
X161184388Y-74798988D01*
X161315888Y-74691068D01*
X161465912Y-74610879D01*
X161508273Y-74598029D01*
X161628705Y-74561496D01*
X161741568Y-74550380D01*
X161797999Y-74544822D01*
X161798000Y-74544822D01*
X161967294Y-74561496D01*
X161967294Y-74561496D01*
G37*
G36*
X164507294Y-74561496D02*
X164627726Y-74598029D01*
X164670087Y-74610879D01*
X164820112Y-74691068D01*
X164951612Y-74798988D01*
X165059532Y-74930488D01*
X165139721Y-75080512D01*
X165152571Y-75122873D01*
X165189104Y-75243305D01*
X165189104Y-75243307D01*
X165201600Y-75370179D01*
X165201600Y-75759820D01*
X165201076Y-75765136D01*
X165189104Y-75886694D01*
X165152571Y-76007128D01*
X165139721Y-76049488D01*
X165059532Y-76199512D01*
X164951612Y-76331012D01*
X164820112Y-76438932D01*
X164670088Y-76519121D01*
X164642433Y-76527510D01*
X164507295Y-76568504D01*
X164394432Y-76579620D01*
X164338001Y-76585178D01*
X164338000Y-76585178D01*
X164168706Y-76568504D01*
X164033568Y-76527510D01*
X164005913Y-76519121D01*
X163855889Y-76438932D01*
X163765946Y-76365117D01*
X163724388Y-76331012D01*
X163616469Y-76199512D01*
X163594127Y-76157713D01*
X163536279Y-76049488D01*
X163523429Y-76007127D01*
X163486896Y-75886695D01*
X163478565Y-75802112D01*
X163474400Y-75759821D01*
X163474400Y-75370180D01*
X163486896Y-75243308D01*
X163486896Y-75243306D01*
X163536278Y-75080517D01*
X163536279Y-75080513D01*
X163616468Y-74930488D01*
X163724388Y-74798988D01*
X163855888Y-74691068D01*
X164005912Y-74610879D01*
X164048273Y-74598029D01*
X164168705Y-74561496D01*
X164281568Y-74550380D01*
X164337999Y-74544822D01*
X164338000Y-74544822D01*
X164507294Y-74561496D01*
X164507294Y-74561496D01*
G37*
G36*
X167047294Y-74561496D02*
X167167726Y-74598029D01*
X167210087Y-74610879D01*
X167360112Y-74691068D01*
X167491612Y-74798988D01*
X167599532Y-74930488D01*
X167679721Y-75080512D01*
X167692571Y-75122873D01*
X167729104Y-75243305D01*
X167729104Y-75243307D01*
X167741600Y-75370179D01*
X167741600Y-75759820D01*
X167741076Y-75765136D01*
X167729104Y-75886694D01*
X167692571Y-76007128D01*
X167679721Y-76049488D01*
X167599532Y-76199512D01*
X167491612Y-76331012D01*
X167360112Y-76438932D01*
X167210088Y-76519121D01*
X167182433Y-76527510D01*
X167047295Y-76568504D01*
X166934432Y-76579620D01*
X166878001Y-76585178D01*
X166878000Y-76585178D01*
X166708706Y-76568504D01*
X166573568Y-76527510D01*
X166545913Y-76519121D01*
X166395889Y-76438932D01*
X166305946Y-76365117D01*
X166264388Y-76331012D01*
X166156469Y-76199512D01*
X166134127Y-76157713D01*
X166076279Y-76049488D01*
X166063429Y-76007127D01*
X166026896Y-75886695D01*
X166018565Y-75802112D01*
X166014400Y-75759821D01*
X166014400Y-75370180D01*
X166026896Y-75243308D01*
X166026896Y-75243306D01*
X166076278Y-75080517D01*
X166076279Y-75080513D01*
X166156468Y-74930488D01*
X166264388Y-74798988D01*
X166395888Y-74691068D01*
X166545912Y-74610879D01*
X166588273Y-74598029D01*
X166708705Y-74561496D01*
X166821568Y-74550380D01*
X166877999Y-74544822D01*
X166878000Y-74544822D01*
X167047294Y-74561496D01*
X167047294Y-74561496D01*
G37*
G36*
X169587294Y-74561496D02*
X169707726Y-74598029D01*
X169750087Y-74610879D01*
X169900112Y-74691068D01*
X170031612Y-74798988D01*
X170139532Y-74930488D01*
X170219721Y-75080512D01*
X170232571Y-75122873D01*
X170269104Y-75243305D01*
X170269104Y-75243307D01*
X170281600Y-75370179D01*
X170281600Y-75759820D01*
X170281076Y-75765136D01*
X170269104Y-75886694D01*
X170232571Y-76007128D01*
X170219721Y-76049488D01*
X170139532Y-76199512D01*
X170031612Y-76331012D01*
X169900112Y-76438932D01*
X169750088Y-76519121D01*
X169722433Y-76527510D01*
X169587295Y-76568504D01*
X169474432Y-76579620D01*
X169418001Y-76585178D01*
X169418000Y-76585178D01*
X169248706Y-76568504D01*
X169113568Y-76527510D01*
X169085913Y-76519121D01*
X168935889Y-76438932D01*
X168845946Y-76365117D01*
X168804388Y-76331012D01*
X168696469Y-76199512D01*
X168674127Y-76157713D01*
X168616279Y-76049488D01*
X168603429Y-76007127D01*
X168566896Y-75886695D01*
X168558565Y-75802112D01*
X168554400Y-75759821D01*
X168554400Y-75370180D01*
X168566896Y-75243308D01*
X168566896Y-75243306D01*
X168616278Y-75080517D01*
X168616279Y-75080513D01*
X168696468Y-74930488D01*
X168804388Y-74798988D01*
X168935888Y-74691068D01*
X169085912Y-74610879D01*
X169128273Y-74598029D01*
X169248705Y-74561496D01*
X169361568Y-74550380D01*
X169417999Y-74544822D01*
X169418000Y-74544822D01*
X169587294Y-74561496D01*
X169587294Y-74561496D01*
G37*
G36*
X172127294Y-74561496D02*
X172247726Y-74598029D01*
X172290087Y-74610879D01*
X172440112Y-74691068D01*
X172571612Y-74798988D01*
X172679532Y-74930488D01*
X172759721Y-75080512D01*
X172772571Y-75122873D01*
X172809104Y-75243305D01*
X172809104Y-75243307D01*
X172821600Y-75370179D01*
X172821600Y-75759820D01*
X172821076Y-75765136D01*
X172809104Y-75886694D01*
X172772571Y-76007128D01*
X172759721Y-76049488D01*
X172679532Y-76199512D01*
X172571612Y-76331012D01*
X172440112Y-76438932D01*
X172290088Y-76519121D01*
X172262433Y-76527510D01*
X172127295Y-76568504D01*
X172014432Y-76579620D01*
X171958001Y-76585178D01*
X171958000Y-76585178D01*
X171788706Y-76568504D01*
X171653568Y-76527510D01*
X171625913Y-76519121D01*
X171475889Y-76438932D01*
X171385946Y-76365117D01*
X171344388Y-76331012D01*
X171236469Y-76199512D01*
X171214127Y-76157713D01*
X171156279Y-76049488D01*
X171143429Y-76007127D01*
X171106896Y-75886695D01*
X171098565Y-75802112D01*
X171094400Y-75759821D01*
X171094400Y-75370180D01*
X171106896Y-75243308D01*
X171106896Y-75243306D01*
X171156278Y-75080517D01*
X171156279Y-75080513D01*
X171236468Y-74930488D01*
X171344388Y-74798988D01*
X171475888Y-74691068D01*
X171625912Y-74610879D01*
X171668273Y-74598029D01*
X171788705Y-74561496D01*
X171901568Y-74550380D01*
X171957999Y-74544822D01*
X171958000Y-74544822D01*
X172127294Y-74561496D01*
X172127294Y-74561496D01*
G37*
G36*
X174667294Y-74561496D02*
X174787726Y-74598029D01*
X174830087Y-74610879D01*
X174980112Y-74691068D01*
X175111612Y-74798988D01*
X175219532Y-74930488D01*
X175299721Y-75080512D01*
X175312571Y-75122873D01*
X175349104Y-75243305D01*
X175349104Y-75243307D01*
X175361600Y-75370179D01*
X175361600Y-75759820D01*
X175361076Y-75765136D01*
X175349104Y-75886694D01*
X175312571Y-76007128D01*
X175299721Y-76049488D01*
X175219532Y-76199512D01*
X175111612Y-76331012D01*
X174980112Y-76438932D01*
X174830088Y-76519121D01*
X174802433Y-76527510D01*
X174667295Y-76568504D01*
X174554432Y-76579620D01*
X174498001Y-76585178D01*
X174498000Y-76585178D01*
X174328706Y-76568504D01*
X174193568Y-76527510D01*
X174165913Y-76519121D01*
X174015889Y-76438932D01*
X173925946Y-76365117D01*
X173884388Y-76331012D01*
X173776469Y-76199512D01*
X173754127Y-76157713D01*
X173696279Y-76049488D01*
X173683429Y-76007127D01*
X173646896Y-75886695D01*
X173638565Y-75802112D01*
X173634400Y-75759821D01*
X173634400Y-75370180D01*
X173646896Y-75243308D01*
X173646896Y-75243306D01*
X173696278Y-75080517D01*
X173696279Y-75080513D01*
X173776468Y-74930488D01*
X173884388Y-74798988D01*
X174015888Y-74691068D01*
X174165912Y-74610879D01*
X174208273Y-74598029D01*
X174328705Y-74561496D01*
X174441568Y-74550380D01*
X174497999Y-74544822D01*
X174498000Y-74544822D01*
X174667294Y-74561496D01*
X174667294Y-74561496D01*
G37*
G36*
X142663294Y-74561496D02*
X142783726Y-74598029D01*
X142826087Y-74610879D01*
X142976112Y-74691068D01*
X143107612Y-74798988D01*
X143215532Y-74930488D01*
X143295721Y-75080512D01*
X143308571Y-75122873D01*
X143345104Y-75243305D01*
X143345104Y-75243307D01*
X143357600Y-75370179D01*
X143357600Y-75759820D01*
X143357076Y-75765136D01*
X143345104Y-75886694D01*
X143308571Y-76007128D01*
X143295721Y-76049488D01*
X143215532Y-76199512D01*
X143107612Y-76331012D01*
X142976112Y-76438932D01*
X142826088Y-76519121D01*
X142798433Y-76527510D01*
X142663295Y-76568504D01*
X142550432Y-76579620D01*
X142494001Y-76585178D01*
X142494000Y-76585178D01*
X142324706Y-76568504D01*
X142189568Y-76527510D01*
X142161913Y-76519121D01*
X142011889Y-76438932D01*
X141921946Y-76365117D01*
X141880388Y-76331012D01*
X141772469Y-76199512D01*
X141750127Y-76157713D01*
X141692279Y-76049488D01*
X141679429Y-76007127D01*
X141642896Y-75886695D01*
X141634565Y-75802112D01*
X141630400Y-75759821D01*
X141630400Y-75370180D01*
X141642896Y-75243308D01*
X141642896Y-75243306D01*
X141692278Y-75080517D01*
X141692279Y-75080513D01*
X141772468Y-74930488D01*
X141880388Y-74798988D01*
X142011888Y-74691068D01*
X142161912Y-74610879D01*
X142204273Y-74598029D01*
X142324705Y-74561496D01*
X142437568Y-74550380D01*
X142493999Y-74544822D01*
X142494000Y-74544822D01*
X142663294Y-74561496D01*
X142663294Y-74561496D01*
G37*
M02*
