G04 #@! TF.GenerationSoftware,KiCad,Pcbnew,5.1.5+dfsg1-2*
G04 #@! TF.CreationDate,2019-12-04T16:26:49+01:00*
G04 #@! TF.ProjectId,KiCad_Shield,4b694361-645f-4536-9869-656c642e6b69,rev?*
G04 #@! TF.SameCoordinates,Original*
G04 #@! TF.FileFunction,Legend,Top*
G04 #@! TF.FilePolarity,Positive*
%FSLAX46Y46*%
G04 Gerber Fmt 4.6, Leading zero omitted, Abs format (unit mm)*
G04 Created by KiCad (PCBNEW 5.1.5+dfsg1-2) date 2019-12-04 16:26:49*
%MOMM*%
%LPD*%
G04 APERTURE LIST*
%ADD10C,0.300000*%
%ADD11C,0.150000*%
%ADD12C,0.120000*%
%ADD13C,0.010000*%
G04 APERTURE END LIST*
D10*
X118745142Y-88785000D02*
X118602285Y-88713571D01*
X118388000Y-88713571D01*
X118173714Y-88785000D01*
X118030857Y-88927857D01*
X117959428Y-89070714D01*
X117888000Y-89356428D01*
X117888000Y-89570714D01*
X117959428Y-89856428D01*
X118030857Y-89999285D01*
X118173714Y-90142142D01*
X118388000Y-90213571D01*
X118530857Y-90213571D01*
X118745142Y-90142142D01*
X118816571Y-90070714D01*
X118816571Y-89570714D01*
X118530857Y-89570714D01*
X119459428Y-90213571D02*
X119459428Y-88713571D01*
X120316571Y-90213571D01*
X120316571Y-88713571D01*
X121030857Y-90213571D02*
X121030857Y-88713571D01*
X121388000Y-88713571D01*
X121602285Y-88785000D01*
X121745142Y-88927857D01*
X121816571Y-89070714D01*
X121888000Y-89356428D01*
X121888000Y-89570714D01*
X121816571Y-89856428D01*
X121745142Y-89999285D01*
X121602285Y-90142142D01*
X121388000Y-90213571D01*
X121030857Y-90213571D01*
X117888000Y-86173571D02*
X118388000Y-87673571D01*
X118888000Y-86173571D01*
X120245142Y-87530714D02*
X120173714Y-87602142D01*
X119959428Y-87673571D01*
X119816571Y-87673571D01*
X119602285Y-87602142D01*
X119459428Y-87459285D01*
X119388000Y-87316428D01*
X119316571Y-87030714D01*
X119316571Y-86816428D01*
X119388000Y-86530714D01*
X119459428Y-86387857D01*
X119602285Y-86245000D01*
X119816571Y-86173571D01*
X119959428Y-86173571D01*
X120173714Y-86245000D01*
X120245142Y-86316428D01*
X121745142Y-87530714D02*
X121673714Y-87602142D01*
X121459428Y-87673571D01*
X121316571Y-87673571D01*
X121102285Y-87602142D01*
X120959428Y-87459285D01*
X120888000Y-87316428D01*
X120816571Y-87030714D01*
X120816571Y-86816428D01*
X120888000Y-86530714D01*
X120959428Y-86387857D01*
X121102285Y-86245000D01*
X121316571Y-86173571D01*
X121459428Y-86173571D01*
X121673714Y-86245000D01*
X121745142Y-86316428D01*
X115792285Y-87673571D02*
X114935142Y-87673571D01*
X115363714Y-87673571D02*
X115363714Y-86173571D01*
X115220857Y-86387857D01*
X115078000Y-86530714D01*
X114935142Y-86602142D01*
X116720857Y-86173571D02*
X116863714Y-86173571D01*
X117006571Y-86245000D01*
X117078000Y-86316428D01*
X117149428Y-86459285D01*
X117220857Y-86745000D01*
X117220857Y-87102142D01*
X117149428Y-87387857D01*
X117078000Y-87530714D01*
X117006571Y-87602142D01*
X116863714Y-87673571D01*
X116720857Y-87673571D01*
X116578000Y-87602142D01*
X116506571Y-87530714D01*
X116435142Y-87387857D01*
X116363714Y-87102142D01*
X116363714Y-86745000D01*
X116435142Y-86459285D01*
X116506571Y-86316428D01*
X116578000Y-86245000D01*
X116720857Y-86173571D01*
D11*
X172386809Y-95337380D02*
X173005857Y-95337380D01*
X172672523Y-95718333D01*
X172815380Y-95718333D01*
X172910619Y-95765952D01*
X172958238Y-95813571D01*
X173005857Y-95908809D01*
X173005857Y-96146904D01*
X172958238Y-96242142D01*
X172910619Y-96289761D01*
X172815380Y-96337380D01*
X172529666Y-96337380D01*
X172434428Y-96289761D01*
X172386809Y-96242142D01*
X173434428Y-96242142D02*
X173482047Y-96289761D01*
X173434428Y-96337380D01*
X173386809Y-96289761D01*
X173434428Y-96242142D01*
X173434428Y-96337380D01*
X173815380Y-95337380D02*
X174434428Y-95337380D01*
X174101095Y-95718333D01*
X174243952Y-95718333D01*
X174339190Y-95765952D01*
X174386809Y-95813571D01*
X174434428Y-95908809D01*
X174434428Y-96146904D01*
X174386809Y-96242142D01*
X174339190Y-96289761D01*
X174243952Y-96337380D01*
X173958238Y-96337380D01*
X173863000Y-96289761D01*
X173815380Y-96242142D01*
X174720142Y-95337380D02*
X175053476Y-96337380D01*
X175386809Y-95337380D01*
X173101095Y-97925000D02*
X173005857Y-97877380D01*
X172863000Y-97877380D01*
X172720142Y-97925000D01*
X172624904Y-98020238D01*
X172577285Y-98115476D01*
X172529666Y-98305952D01*
X172529666Y-98448809D01*
X172577285Y-98639285D01*
X172624904Y-98734523D01*
X172720142Y-98829761D01*
X172863000Y-98877380D01*
X172958238Y-98877380D01*
X173101095Y-98829761D01*
X173148714Y-98782142D01*
X173148714Y-98448809D01*
X172958238Y-98448809D01*
X173577285Y-98877380D02*
X173577285Y-97877380D01*
X174148714Y-98877380D01*
X174148714Y-97877380D01*
X174624904Y-98877380D02*
X174624904Y-97877380D01*
X174863000Y-97877380D01*
X175005857Y-97925000D01*
X175101095Y-98020238D01*
X175148714Y-98115476D01*
X175196333Y-98305952D01*
X175196333Y-98448809D01*
X175148714Y-98639285D01*
X175101095Y-98734523D01*
X175005857Y-98829761D01*
X174863000Y-98877380D01*
X174624904Y-98877380D01*
X172672523Y-101369761D02*
X172815380Y-101417380D01*
X173053476Y-101417380D01*
X173148714Y-101369761D01*
X173196333Y-101322142D01*
X173243952Y-101226904D01*
X173243952Y-101131666D01*
X173196333Y-101036428D01*
X173148714Y-100988809D01*
X173053476Y-100941190D01*
X172863000Y-100893571D01*
X172767761Y-100845952D01*
X172720142Y-100798333D01*
X172672523Y-100703095D01*
X172672523Y-100607857D01*
X172720142Y-100512619D01*
X172767761Y-100465000D01*
X172863000Y-100417380D01*
X173101095Y-100417380D01*
X173243952Y-100465000D01*
X174243952Y-101322142D02*
X174196333Y-101369761D01*
X174053476Y-101417380D01*
X173958238Y-101417380D01*
X173815380Y-101369761D01*
X173720142Y-101274523D01*
X173672523Y-101179285D01*
X173624904Y-100988809D01*
X173624904Y-100845952D01*
X173672523Y-100655476D01*
X173720142Y-100560238D01*
X173815380Y-100465000D01*
X173958238Y-100417380D01*
X174053476Y-100417380D01*
X174196333Y-100465000D01*
X174243952Y-100512619D01*
X175148714Y-101417380D02*
X174672523Y-101417380D01*
X174672523Y-100417380D01*
X172648714Y-103909761D02*
X172791571Y-103957380D01*
X173029666Y-103957380D01*
X173124904Y-103909761D01*
X173172523Y-103862142D01*
X173220142Y-103766904D01*
X173220142Y-103671666D01*
X173172523Y-103576428D01*
X173124904Y-103528809D01*
X173029666Y-103481190D01*
X172839190Y-103433571D01*
X172743952Y-103385952D01*
X172696333Y-103338333D01*
X172648714Y-103243095D01*
X172648714Y-103147857D01*
X172696333Y-103052619D01*
X172743952Y-103005000D01*
X172839190Y-102957380D01*
X173077285Y-102957380D01*
X173220142Y-103005000D01*
X173648714Y-103957380D02*
X173648714Y-102957380D01*
X173886809Y-102957380D01*
X174029666Y-103005000D01*
X174124904Y-103100238D01*
X174172523Y-103195476D01*
X174220142Y-103385952D01*
X174220142Y-103528809D01*
X174172523Y-103719285D01*
X174124904Y-103814523D01*
X174029666Y-103909761D01*
X173886809Y-103957380D01*
X173648714Y-103957380D01*
X174601095Y-103671666D02*
X175077285Y-103671666D01*
X174505857Y-103957380D02*
X174839190Y-102957380D01*
X175172523Y-103957380D01*
D10*
X147010857Y-119423571D02*
X146296571Y-119423571D01*
X146296571Y-117923571D01*
X147510857Y-119423571D02*
X147510857Y-117923571D01*
X149082285Y-119280714D02*
X149010857Y-119352142D01*
X148796571Y-119423571D01*
X148653714Y-119423571D01*
X148439428Y-119352142D01*
X148296571Y-119209285D01*
X148225142Y-119066428D01*
X148153714Y-118780714D01*
X148153714Y-118566428D01*
X148225142Y-118280714D01*
X148296571Y-118137857D01*
X148439428Y-117995000D01*
X148653714Y-117923571D01*
X148796571Y-117923571D01*
X149010857Y-117995000D01*
X149082285Y-118066428D01*
X149653714Y-119352142D02*
X149868000Y-119423571D01*
X150225142Y-119423571D01*
X150368000Y-119352142D01*
X150439428Y-119280714D01*
X150510857Y-119137857D01*
X150510857Y-118995000D01*
X150439428Y-118852142D01*
X150368000Y-118780714D01*
X150225142Y-118709285D01*
X149939428Y-118637857D01*
X149796571Y-118566428D01*
X149725142Y-118495000D01*
X149653714Y-118352142D01*
X149653714Y-118209285D01*
X149725142Y-118066428D01*
X149796571Y-117995000D01*
X149939428Y-117923571D01*
X150296571Y-117923571D01*
X150510857Y-117995000D01*
X150939428Y-117923571D02*
X151796571Y-117923571D01*
X151368000Y-119423571D02*
X151368000Y-117923571D01*
X152296571Y-118637857D02*
X152796571Y-118637857D01*
X153010857Y-119423571D02*
X152296571Y-119423571D01*
X152296571Y-117923571D01*
X153010857Y-117923571D01*
X154510857Y-119423571D02*
X154010857Y-118709285D01*
X153653714Y-119423571D02*
X153653714Y-117923571D01*
X154225142Y-117923571D01*
X154368000Y-117995000D01*
X154439428Y-118066428D01*
X154510857Y-118209285D01*
X154510857Y-118423571D01*
X154439428Y-118566428D01*
X154368000Y-118637857D01*
X154225142Y-118709285D01*
X153653714Y-118709285D01*
X158385142Y-113343571D02*
X158742285Y-114343571D01*
X159099428Y-113343571D01*
X160456571Y-114343571D02*
X159599428Y-114343571D01*
X160028000Y-114343571D02*
X160028000Y-112843571D01*
X159885142Y-113057857D01*
X159742285Y-113200714D01*
X159599428Y-113272142D01*
X161099428Y-114200714D02*
X161170857Y-114272142D01*
X161099428Y-114343571D01*
X161028000Y-114272142D01*
X161099428Y-114200714D01*
X161099428Y-114343571D01*
X162528000Y-112843571D02*
X161813714Y-112843571D01*
X161742285Y-113557857D01*
X161813714Y-113486428D01*
X161956571Y-113415000D01*
X162313714Y-113415000D01*
X162456571Y-113486428D01*
X162528000Y-113557857D01*
X162599428Y-113700714D01*
X162599428Y-114057857D01*
X162528000Y-114200714D01*
X162456571Y-114272142D01*
X162313714Y-114343571D01*
X161956571Y-114343571D01*
X161813714Y-114272142D01*
X161742285Y-114200714D01*
X143740857Y-114343571D02*
X143740857Y-112843571D01*
X143740857Y-113557857D02*
X144598000Y-113557857D01*
X144598000Y-114343571D02*
X144598000Y-112843571D01*
X145240857Y-114272142D02*
X145455142Y-114343571D01*
X145812285Y-114343571D01*
X145955142Y-114272142D01*
X146026571Y-114200714D01*
X146098000Y-114057857D01*
X146098000Y-113915000D01*
X146026571Y-113772142D01*
X145955142Y-113700714D01*
X145812285Y-113629285D01*
X145526571Y-113557857D01*
X145383714Y-113486428D01*
X145312285Y-113415000D01*
X145240857Y-113272142D01*
X145240857Y-113129285D01*
X145312285Y-112986428D01*
X145383714Y-112915000D01*
X145526571Y-112843571D01*
X145883714Y-112843571D01*
X146098000Y-112915000D01*
X146669428Y-113915000D02*
X147383714Y-113915000D01*
X146526571Y-114343571D02*
X147026571Y-112843571D01*
X147526571Y-114343571D01*
X147669428Y-114486428D02*
X148812285Y-114486428D01*
X149169428Y-114343571D02*
X149169428Y-113343571D01*
X149169428Y-112843571D02*
X149098000Y-112915000D01*
X149169428Y-112986428D01*
X149240857Y-112915000D01*
X149169428Y-112843571D01*
X149169428Y-112986428D01*
X149883714Y-113343571D02*
X149883714Y-114343571D01*
X149883714Y-113486428D02*
X149955142Y-113415000D01*
X150098000Y-113343571D01*
X150312285Y-113343571D01*
X150455142Y-113415000D01*
X150526571Y-113557857D01*
X150526571Y-114343571D01*
X151240857Y-113343571D02*
X151240857Y-114343571D01*
X151240857Y-113486428D02*
X151312285Y-113415000D01*
X151455142Y-113343571D01*
X151669428Y-113343571D01*
X151812285Y-113415000D01*
X151883714Y-113557857D01*
X151883714Y-114343571D01*
X152812285Y-114343571D02*
X152669428Y-114272142D01*
X152598000Y-114200714D01*
X152526571Y-114057857D01*
X152526571Y-113629285D01*
X152598000Y-113486428D01*
X152669428Y-113415000D01*
X152812285Y-113343571D01*
X153026571Y-113343571D01*
X153169428Y-113415000D01*
X153240857Y-113486428D01*
X153312285Y-113629285D01*
X153312285Y-114057857D01*
X153240857Y-114200714D01*
X153169428Y-114272142D01*
X153026571Y-114343571D01*
X152812285Y-114343571D01*
X153883714Y-114272142D02*
X154026571Y-114343571D01*
X154312285Y-114343571D01*
X154455142Y-114272142D01*
X154526571Y-114129285D01*
X154526571Y-114057857D01*
X154455142Y-113915000D01*
X154312285Y-113843571D01*
X154098000Y-113843571D01*
X153955142Y-113772142D01*
X153883714Y-113629285D01*
X153883714Y-113557857D01*
X153955142Y-113415000D01*
X154098000Y-113343571D01*
X154312285Y-113343571D01*
X154455142Y-113415000D01*
X116427285Y-90213571D02*
X116713000Y-90213571D01*
X116855857Y-90142142D01*
X116927285Y-90070714D01*
X117070142Y-89856428D01*
X117141571Y-89570714D01*
X117141571Y-88999285D01*
X117070142Y-88856428D01*
X116998714Y-88785000D01*
X116855857Y-88713571D01*
X116570142Y-88713571D01*
X116427285Y-88785000D01*
X116355857Y-88856428D01*
X116284428Y-88999285D01*
X116284428Y-89356428D01*
X116355857Y-89499285D01*
X116427285Y-89570714D01*
X116570142Y-89642142D01*
X116855857Y-89642142D01*
X116998714Y-89570714D01*
X117070142Y-89499285D01*
X117141571Y-89356428D01*
X116570142Y-91896428D02*
X116427285Y-91825000D01*
X116355857Y-91753571D01*
X116284428Y-91610714D01*
X116284428Y-91539285D01*
X116355857Y-91396428D01*
X116427285Y-91325000D01*
X116570142Y-91253571D01*
X116855857Y-91253571D01*
X116998714Y-91325000D01*
X117070142Y-91396428D01*
X117141571Y-91539285D01*
X117141571Y-91610714D01*
X117070142Y-91753571D01*
X116998714Y-91825000D01*
X116855857Y-91896428D01*
X116570142Y-91896428D01*
X116427285Y-91967857D01*
X116355857Y-92039285D01*
X116284428Y-92182142D01*
X116284428Y-92467857D01*
X116355857Y-92610714D01*
X116427285Y-92682142D01*
X116570142Y-92753571D01*
X116855857Y-92753571D01*
X116998714Y-92682142D01*
X117070142Y-92610714D01*
X117141571Y-92467857D01*
X117141571Y-92182142D01*
X117070142Y-92039285D01*
X116998714Y-91967857D01*
X116855857Y-91896428D01*
X116213000Y-93793571D02*
X117213000Y-93793571D01*
X116570142Y-95293571D01*
X116998714Y-96333571D02*
X116713000Y-96333571D01*
X116570142Y-96405000D01*
X116498714Y-96476428D01*
X116355857Y-96690714D01*
X116284428Y-96976428D01*
X116284428Y-97547857D01*
X116355857Y-97690714D01*
X116427285Y-97762142D01*
X116570142Y-97833571D01*
X116855857Y-97833571D01*
X116998714Y-97762142D01*
X117070142Y-97690714D01*
X117141571Y-97547857D01*
X117141571Y-97190714D01*
X117070142Y-97047857D01*
X116998714Y-96976428D01*
X116855857Y-96905000D01*
X116570142Y-96905000D01*
X116427285Y-96976428D01*
X116355857Y-97047857D01*
X116284428Y-97190714D01*
X117070142Y-98873571D02*
X116355857Y-98873571D01*
X116284428Y-99587857D01*
X116355857Y-99516428D01*
X116498714Y-99445000D01*
X116855857Y-99445000D01*
X116998714Y-99516428D01*
X117070142Y-99587857D01*
X117141571Y-99730714D01*
X117141571Y-100087857D01*
X117070142Y-100230714D01*
X116998714Y-100302142D01*
X116855857Y-100373571D01*
X116498714Y-100373571D01*
X116355857Y-100302142D01*
X116284428Y-100230714D01*
X116998714Y-101913571D02*
X116998714Y-102913571D01*
X116641571Y-101342142D02*
X116284428Y-102413571D01*
X117213000Y-102413571D01*
X116213000Y-103953571D02*
X117141571Y-103953571D01*
X116641571Y-104525000D01*
X116855857Y-104525000D01*
X116998714Y-104596428D01*
X117070142Y-104667857D01*
X117141571Y-104810714D01*
X117141571Y-105167857D01*
X117070142Y-105310714D01*
X116998714Y-105382142D01*
X116855857Y-105453571D01*
X116427285Y-105453571D01*
X116284428Y-105382142D01*
X116213000Y-105310714D01*
X116284428Y-106636428D02*
X116355857Y-106565000D01*
X116498714Y-106493571D01*
X116855857Y-106493571D01*
X116998714Y-106565000D01*
X117070142Y-106636428D01*
X117141571Y-106779285D01*
X117141571Y-106922142D01*
X117070142Y-107136428D01*
X116213000Y-107993571D01*
X117141571Y-107993571D01*
X117141571Y-110533571D02*
X116284428Y-110533571D01*
X116713000Y-110533571D02*
X116713000Y-109033571D01*
X116570142Y-109247857D01*
X116427285Y-109390714D01*
X116284428Y-109462142D01*
D11*
X139390380Y-120999285D02*
X139390380Y-121570714D01*
X139390380Y-121285000D02*
X138390380Y-121285000D01*
X138533238Y-121380238D01*
X138628476Y-121475476D01*
X138676095Y-121570714D01*
D12*
X127198000Y-115695000D02*
X127198000Y-114235000D01*
X130358000Y-115695000D02*
X130358000Y-113535000D01*
X130358000Y-115695000D02*
X129428000Y-115695000D01*
X127198000Y-115695000D02*
X128128000Y-115695000D01*
D11*
X140208000Y-125095000D02*
X157988000Y-125095000D01*
X157988000Y-125095000D02*
X157988000Y-122555000D01*
X157988000Y-122555000D02*
X140208000Y-122555000D01*
X137388000Y-125375000D02*
X138938000Y-125375000D01*
X140208000Y-125095000D02*
X140208000Y-122555000D01*
X138938000Y-122275000D02*
X137388000Y-122275000D01*
X137388000Y-122275000D02*
X137388000Y-125375000D01*
X163068000Y-125095000D02*
X175768000Y-125095000D01*
X175768000Y-125095000D02*
X175768000Y-122555000D01*
X175768000Y-122555000D02*
X163068000Y-122555000D01*
X160248000Y-125375000D02*
X161798000Y-125375000D01*
X163068000Y-125095000D02*
X163068000Y-122555000D01*
X161798000Y-122275000D02*
X160248000Y-122275000D01*
X160248000Y-122275000D02*
X160248000Y-125375000D01*
X131064000Y-76835000D02*
X153924000Y-76835000D01*
X153924000Y-76835000D02*
X153924000Y-74295000D01*
X153924000Y-74295000D02*
X131064000Y-74295000D01*
X128244000Y-77115000D02*
X129794000Y-77115000D01*
X131064000Y-76835000D02*
X131064000Y-74295000D01*
X129794000Y-74015000D02*
X128244000Y-74015000D01*
X128244000Y-74015000D02*
X128244000Y-77115000D01*
X157988000Y-76835000D02*
X175768000Y-76835000D01*
X175768000Y-76835000D02*
X175768000Y-74295000D01*
X175768000Y-74295000D02*
X157988000Y-74295000D01*
X155168000Y-77115000D02*
X156718000Y-77115000D01*
X157988000Y-76835000D02*
X157988000Y-74295000D01*
X156718000Y-74015000D02*
X155168000Y-74015000D01*
X155168000Y-74015000D02*
X155168000Y-77115000D01*
X127254000Y-123825000D02*
G75*
G03X127254000Y-123825000I-2286000J0D01*
G01*
X179324000Y-118745000D02*
G75*
G03X179324000Y-118745000I-2286000J0D01*
G01*
X128524000Y-75565000D02*
G75*
G03X128524000Y-75565000I-2286000J0D01*
G01*
X179324000Y-90805000D02*
G75*
G03X179324000Y-90805000I-2286000J0D01*
G01*
X112268000Y-108585000D02*
X112268000Y-85725000D01*
X112268000Y-85725000D02*
X114808000Y-85725000D01*
X114808000Y-85725000D02*
X114808000Y-108585000D01*
X111988000Y-111405000D02*
X111988000Y-109855000D01*
X112268000Y-108585000D02*
X114808000Y-108585000D01*
X115088000Y-109855000D02*
X115088000Y-111405000D01*
X115088000Y-111405000D02*
X111988000Y-111405000D01*
D12*
X117519267Y-76075000D02*
X117176733Y-76075000D01*
X117519267Y-75055000D02*
X117176733Y-75055000D01*
D11*
X115273000Y-76800000D02*
X115273000Y-76850000D01*
X119423000Y-76800000D02*
X119423000Y-76945000D01*
X119423000Y-81950000D02*
X119423000Y-81805000D01*
X115273000Y-81950000D02*
X115273000Y-81805000D01*
X115273000Y-76800000D02*
X119423000Y-76800000D01*
X115273000Y-81950000D02*
X119423000Y-81950000D01*
X115273000Y-76850000D02*
X113873000Y-76850000D01*
D12*
X116838000Y-84292221D02*
X116838000Y-84617779D01*
X117858000Y-84292221D02*
X117858000Y-84617779D01*
X121918000Y-77480279D02*
X121918000Y-77154721D01*
X122938000Y-77480279D02*
X122938000Y-77154721D01*
X178478000Y-94555000D02*
X178478000Y-104835000D01*
X178478000Y-104835000D02*
X181138000Y-104835000D01*
X181138000Y-104835000D02*
X181138000Y-94555000D01*
X181138000Y-94555000D02*
X178478000Y-94555000D01*
X181138000Y-95505000D02*
X187138000Y-95505000D01*
X187138000Y-95505000D02*
X187138000Y-96265000D01*
X187138000Y-96265000D02*
X181138000Y-96265000D01*
X181138000Y-95565000D02*
X187138000Y-95565000D01*
X181138000Y-95685000D02*
X187138000Y-95685000D01*
X181138000Y-95805000D02*
X187138000Y-95805000D01*
X181138000Y-95925000D02*
X187138000Y-95925000D01*
X181138000Y-96045000D02*
X187138000Y-96045000D01*
X181138000Y-96165000D02*
X187138000Y-96165000D01*
X178148000Y-95505000D02*
X178478000Y-95505000D01*
X178148000Y-96265000D02*
X178478000Y-96265000D01*
X178478000Y-97155000D02*
X181138000Y-97155000D01*
X181138000Y-98045000D02*
X187138000Y-98045000D01*
X187138000Y-98045000D02*
X187138000Y-98805000D01*
X187138000Y-98805000D02*
X181138000Y-98805000D01*
X178080929Y-98045000D02*
X178478000Y-98045000D01*
X178080929Y-98805000D02*
X178478000Y-98805000D01*
X178478000Y-99695000D02*
X181138000Y-99695000D01*
X181138000Y-100585000D02*
X187138000Y-100585000D01*
X187138000Y-100585000D02*
X187138000Y-101345000D01*
X187138000Y-101345000D02*
X181138000Y-101345000D01*
X178080929Y-100585000D02*
X178478000Y-100585000D01*
X178080929Y-101345000D02*
X178478000Y-101345000D01*
X178478000Y-102235000D02*
X181138000Y-102235000D01*
X181138000Y-103125000D02*
X187138000Y-103125000D01*
X187138000Y-103125000D02*
X187138000Y-103885000D01*
X187138000Y-103885000D02*
X181138000Y-103885000D01*
X178080929Y-103125000D02*
X178478000Y-103125000D01*
X178080929Y-103885000D02*
X178478000Y-103885000D01*
X175768000Y-95885000D02*
X175768000Y-94615000D01*
X175768000Y-94615000D02*
X177038000Y-94615000D01*
X167413000Y-112865000D02*
X167413000Y-115150000D01*
X167413000Y-115150000D02*
X168883000Y-115150000D01*
X168883000Y-115150000D02*
X168883000Y-112865000D01*
X171423000Y-115150000D02*
X171423000Y-112865000D01*
X169953000Y-115150000D02*
X171423000Y-115150000D01*
X169953000Y-112865000D02*
X169953000Y-115150000D01*
X172493000Y-112865000D02*
X172493000Y-115150000D01*
X172493000Y-115150000D02*
X173963000Y-115150000D01*
X173963000Y-115150000D02*
X173963000Y-112865000D01*
X176503000Y-115150000D02*
X176503000Y-112865000D01*
X175033000Y-115150000D02*
X176503000Y-115150000D01*
X175033000Y-112865000D02*
X175033000Y-115150000D01*
X168658000Y-110026267D02*
X168658000Y-109683733D01*
X167638000Y-110026267D02*
X167638000Y-109683733D01*
X170178000Y-110026267D02*
X170178000Y-109683733D01*
X171198000Y-110026267D02*
X171198000Y-109683733D01*
X173738000Y-110026267D02*
X173738000Y-109683733D01*
X172718000Y-110026267D02*
X172718000Y-109683733D01*
X175258000Y-110026267D02*
X175258000Y-109683733D01*
X176278000Y-110026267D02*
X176278000Y-109683733D01*
X123860779Y-87505000D02*
X123535221Y-87505000D01*
X123860779Y-86485000D02*
X123535221Y-86485000D01*
X123860779Y-89025000D02*
X123535221Y-89025000D01*
X123860779Y-90045000D02*
X123535221Y-90045000D01*
X123860779Y-92585000D02*
X123535221Y-92585000D01*
X123860779Y-91565000D02*
X123535221Y-91565000D01*
X123860779Y-94105000D02*
X123535221Y-94105000D01*
X123860779Y-95125000D02*
X123535221Y-95125000D01*
X123860779Y-96645000D02*
X123535221Y-96645000D01*
X123860779Y-97665000D02*
X123535221Y-97665000D01*
X123860779Y-99185000D02*
X123535221Y-99185000D01*
X123860779Y-100205000D02*
X123535221Y-100205000D01*
X123860779Y-102745000D02*
X123535221Y-102745000D01*
X123860779Y-101725000D02*
X123535221Y-101725000D01*
X123860779Y-104265000D02*
X123535221Y-104265000D01*
X123860779Y-105285000D02*
X123535221Y-105285000D01*
X123860779Y-107825000D02*
X123535221Y-107825000D01*
X123860779Y-106805000D02*
X123535221Y-106805000D01*
X123860779Y-109345000D02*
X123535221Y-109345000D01*
X123860779Y-110365000D02*
X123535221Y-110365000D01*
X154340779Y-96645000D02*
X154015221Y-96645000D01*
X154340779Y-97665000D02*
X154015221Y-97665000D01*
X154015221Y-100205000D02*
X154340779Y-100205000D01*
X154015221Y-99185000D02*
X154340779Y-99185000D01*
X146720779Y-97665000D02*
X146395221Y-97665000D01*
X146720779Y-96645000D02*
X146395221Y-96645000D01*
X146395221Y-99185000D02*
X146720779Y-99185000D01*
X146395221Y-100205000D02*
X146720779Y-100205000D01*
X125478000Y-81752221D02*
X125478000Y-82077779D01*
X124458000Y-81752221D02*
X124458000Y-82077779D01*
X126998000Y-81752221D02*
X126998000Y-82077779D01*
X128018000Y-81752221D02*
X128018000Y-82077779D01*
X130558000Y-81752221D02*
X130558000Y-82077779D01*
X129538000Y-81752221D02*
X129538000Y-82077779D01*
X132078000Y-81752221D02*
X132078000Y-82077779D01*
X133098000Y-81752221D02*
X133098000Y-82077779D01*
X135638000Y-81752221D02*
X135638000Y-82077779D01*
X134618000Y-81752221D02*
X134618000Y-82077779D01*
X138178000Y-81752221D02*
X138178000Y-82077779D01*
X137158000Y-81752221D02*
X137158000Y-82077779D01*
X139698000Y-81752221D02*
X139698000Y-82077779D01*
X140718000Y-81752221D02*
X140718000Y-82077779D01*
X143258000Y-81752221D02*
X143258000Y-82077779D01*
X142238000Y-81752221D02*
X142238000Y-82077779D01*
X144778000Y-81752221D02*
X144778000Y-82077779D01*
X145798000Y-81752221D02*
X145798000Y-82077779D01*
X148338000Y-81752221D02*
X148338000Y-82077779D01*
X147318000Y-81752221D02*
X147318000Y-82077779D01*
X149858000Y-81752221D02*
X149858000Y-82077779D01*
X150878000Y-81752221D02*
X150878000Y-82077779D01*
X153418000Y-81752221D02*
X153418000Y-82077779D01*
X152398000Y-81752221D02*
X152398000Y-82077779D01*
X154938000Y-81752221D02*
X154938000Y-82077779D01*
X155958000Y-81752221D02*
X155958000Y-82077779D01*
X158498000Y-81752221D02*
X158498000Y-82077779D01*
X157478000Y-81752221D02*
X157478000Y-82077779D01*
X160018000Y-81752221D02*
X160018000Y-82077779D01*
X161038000Y-81752221D02*
X161038000Y-82077779D01*
X163578000Y-81752221D02*
X163578000Y-82077779D01*
X162558000Y-81752221D02*
X162558000Y-82077779D01*
X137358000Y-111885000D02*
X138288000Y-111885000D01*
X140518000Y-111885000D02*
X139588000Y-111885000D01*
X140518000Y-111885000D02*
X140518000Y-109725000D01*
X137358000Y-111885000D02*
X137358000Y-110425000D01*
X133548000Y-118235000D02*
X133548000Y-116775000D01*
X136708000Y-118235000D02*
X136708000Y-116075000D01*
X136708000Y-118235000D02*
X135778000Y-118235000D01*
X133548000Y-118235000D02*
X134478000Y-118235000D01*
X131008000Y-109345000D02*
X131938000Y-109345000D01*
X134168000Y-109345000D02*
X133238000Y-109345000D01*
X134168000Y-109345000D02*
X134168000Y-107185000D01*
X131008000Y-109345000D02*
X131008000Y-107885000D01*
X127262478Y-98584273D02*
X127032273Y-98814478D01*
X127983727Y-99305522D02*
X127753522Y-99535727D01*
X127983727Y-96843675D02*
X127753522Y-97073880D01*
X127262478Y-96122426D02*
X127032273Y-96352631D01*
X126705631Y-93426120D02*
X126475426Y-93656325D01*
X127426880Y-94147369D02*
X127196675Y-94377574D01*
X127270574Y-91763675D02*
X127040369Y-91993880D01*
X126549325Y-91042426D02*
X126319120Y-91272631D01*
X142428279Y-109345000D02*
X142102721Y-109345000D01*
X142428279Y-110365000D02*
X142102721Y-110365000D01*
X138178000Y-116367779D02*
X138178000Y-116042221D01*
X137158000Y-116367779D02*
X137158000Y-116042221D01*
X137830779Y-114175000D02*
X137505221Y-114175000D01*
X137830779Y-113155000D02*
X137505221Y-113155000D01*
X133348000Y-113827779D02*
X133348000Y-113502221D01*
X134368000Y-113827779D02*
X134368000Y-113502221D01*
X136560779Y-106805000D02*
X136235221Y-106805000D01*
X136560779Y-107825000D02*
X136235221Y-107825000D01*
X131155221Y-111635000D02*
X131480779Y-111635000D01*
X131155221Y-110615000D02*
X131480779Y-110615000D01*
X131828000Y-113502221D02*
X131828000Y-113827779D01*
X130808000Y-113502221D02*
X130808000Y-113827779D01*
X126998000Y-111287779D02*
X126998000Y-110962221D01*
X128018000Y-111287779D02*
X128018000Y-110962221D01*
X146168522Y-109695727D02*
X146398727Y-109465522D01*
X145447273Y-108974478D02*
X145677478Y-108744273D01*
X138178000Y-120177779D02*
X138178000Y-119852221D01*
X137158000Y-120177779D02*
X137158000Y-119852221D01*
X139732273Y-106434478D02*
X139962478Y-106204273D01*
X140453522Y-107155727D02*
X140683727Y-106925522D01*
X128615221Y-108075000D02*
X128940779Y-108075000D01*
X128615221Y-109095000D02*
X128940779Y-109095000D01*
D13*
G36*
X117487878Y-113762776D02*
G01*
X117593612Y-113763355D01*
X117670132Y-113764922D01*
X117722372Y-113767972D01*
X117755263Y-113772996D01*
X117773737Y-113780489D01*
X117782727Y-113790944D01*
X117787163Y-113804853D01*
X117787594Y-113806654D01*
X117794333Y-113839145D01*
X117806808Y-113903252D01*
X117823719Y-113992151D01*
X117843771Y-114099019D01*
X117865664Y-114217033D01*
X117866429Y-114221178D01*
X117888359Y-114336831D01*
X117908877Y-114439014D01*
X117926659Y-114521598D01*
X117940381Y-114578456D01*
X117948718Y-114603458D01*
X117949116Y-114603901D01*
X117973677Y-114616110D01*
X118024315Y-114636456D01*
X118090095Y-114660545D01*
X118090461Y-114660674D01*
X118173317Y-114691818D01*
X118271000Y-114731491D01*
X118363077Y-114771381D01*
X118367434Y-114773353D01*
X118517407Y-114841420D01*
X118849498Y-114614639D01*
X118951374Y-114545504D01*
X119043657Y-114483697D01*
X119121003Y-114432733D01*
X119178064Y-114396127D01*
X119209495Y-114377394D01*
X119212479Y-114376004D01*
X119235321Y-114382190D01*
X119277982Y-114412035D01*
X119342128Y-114466947D01*
X119429421Y-114548334D01*
X119518535Y-114634922D01*
X119604441Y-114720247D01*
X119681327Y-114798108D01*
X119744564Y-114863697D01*
X119789523Y-114912205D01*
X119811576Y-114938825D01*
X119812396Y-114940195D01*
X119814834Y-114958463D01*
X119805650Y-114988295D01*
X119782574Y-115033721D01*
X119743337Y-115098770D01*
X119685670Y-115187470D01*
X119608795Y-115301657D01*
X119540570Y-115402162D01*
X119479582Y-115492303D01*
X119429356Y-115566849D01*
X119393416Y-115620565D01*
X119375287Y-115648218D01*
X119374146Y-115650095D01*
X119376359Y-115676590D01*
X119393138Y-115728086D01*
X119421142Y-115794851D01*
X119431122Y-115816172D01*
X119474672Y-115911159D01*
X119521134Y-116018937D01*
X119558877Y-116112192D01*
X119586073Y-116181406D01*
X119607675Y-116234006D01*
X119620158Y-116261497D01*
X119621709Y-116263616D01*
X119644668Y-116267124D01*
X119698786Y-116276738D01*
X119776868Y-116291089D01*
X119871719Y-116308807D01*
X119976143Y-116328525D01*
X120082944Y-116348874D01*
X120184926Y-116368486D01*
X120274894Y-116385991D01*
X120345653Y-116400022D01*
X120390006Y-116409209D01*
X120400885Y-116411807D01*
X120412122Y-116418218D01*
X120420605Y-116432697D01*
X120426714Y-116460133D01*
X120430832Y-116505411D01*
X120433341Y-116573420D01*
X120434621Y-116669047D01*
X120435054Y-116797180D01*
X120435077Y-116849701D01*
X120435077Y-117276845D01*
X120332500Y-117297091D01*
X120275431Y-117308070D01*
X120190269Y-117324095D01*
X120087372Y-117343233D01*
X119977096Y-117363551D01*
X119946615Y-117369132D01*
X119844855Y-117388917D01*
X119756205Y-117408373D01*
X119688108Y-117425697D01*
X119648004Y-117439088D01*
X119641323Y-117443079D01*
X119624919Y-117471342D01*
X119601399Y-117526109D01*
X119575316Y-117596588D01*
X119570142Y-117611769D01*
X119535956Y-117705896D01*
X119493523Y-117812101D01*
X119451997Y-117907473D01*
X119451792Y-117907916D01*
X119382640Y-118057525D01*
X119837512Y-118726617D01*
X119545500Y-119019116D01*
X119457180Y-119106170D01*
X119376625Y-119182909D01*
X119308360Y-119245237D01*
X119256908Y-119289056D01*
X119226794Y-119310270D01*
X119222474Y-119311616D01*
X119197111Y-119301016D01*
X119145358Y-119271547D01*
X119072868Y-119226705D01*
X118985294Y-119169984D01*
X118890612Y-119106462D01*
X118794516Y-119041668D01*
X118708837Y-118985287D01*
X118639016Y-118940788D01*
X118590494Y-118911639D01*
X118568782Y-118901308D01*
X118542293Y-118910050D01*
X118492062Y-118933087D01*
X118428451Y-118965631D01*
X118421708Y-118969249D01*
X118336046Y-119012210D01*
X118277306Y-119033279D01*
X118240772Y-119033503D01*
X118221731Y-119013928D01*
X118221620Y-119013654D01*
X118212102Y-118990472D01*
X118189403Y-118935441D01*
X118155282Y-118852822D01*
X118111500Y-118746872D01*
X118059816Y-118621852D01*
X118001992Y-118482020D01*
X117945991Y-118346637D01*
X117884447Y-118197234D01*
X117827939Y-118058832D01*
X117778161Y-117935673D01*
X117736806Y-117832002D01*
X117705568Y-117752059D01*
X117686141Y-117700088D01*
X117680154Y-117680692D01*
X117695168Y-117658443D01*
X117734439Y-117622982D01*
X117786807Y-117583887D01*
X117935941Y-117460245D01*
X118052511Y-117318522D01*
X118135118Y-117161704D01*
X118182366Y-116992775D01*
X118192857Y-116814722D01*
X118185231Y-116732539D01*
X118143682Y-116562031D01*
X118072123Y-116411459D01*
X117974995Y-116282309D01*
X117856734Y-116176064D01*
X117721780Y-116094210D01*
X117574571Y-116038232D01*
X117419544Y-116009615D01*
X117261139Y-116009844D01*
X117103794Y-116040405D01*
X116951946Y-116102782D01*
X116810035Y-116198460D01*
X116750803Y-116252572D01*
X116637203Y-116391520D01*
X116558106Y-116543361D01*
X116512986Y-116703667D01*
X116501316Y-116868012D01*
X116522569Y-117031971D01*
X116576220Y-117191118D01*
X116661740Y-117341025D01*
X116778605Y-117477267D01*
X116909193Y-117583887D01*
X116963588Y-117624642D01*
X117002014Y-117659718D01*
X117015846Y-117680726D01*
X117008603Y-117703635D01*
X116988005Y-117758365D01*
X116955746Y-117840672D01*
X116913521Y-117946315D01*
X116863023Y-118071050D01*
X116805948Y-118210636D01*
X116749854Y-118346670D01*
X116687967Y-118496201D01*
X116630644Y-118634767D01*
X116579644Y-118758107D01*
X116536727Y-118861964D01*
X116503653Y-118942080D01*
X116482181Y-118994195D01*
X116474225Y-119013654D01*
X116455429Y-119033423D01*
X116419074Y-119033365D01*
X116360479Y-119012441D01*
X116274968Y-118969613D01*
X116274292Y-118969249D01*
X116209907Y-118936012D01*
X116157861Y-118911802D01*
X116128512Y-118901404D01*
X116127217Y-118901308D01*
X116105124Y-118911855D01*
X116056348Y-118941184D01*
X115986331Y-118985827D01*
X115900514Y-119042314D01*
X115805388Y-119106462D01*
X115708540Y-119171411D01*
X115621253Y-119227896D01*
X115549181Y-119272421D01*
X115497977Y-119301490D01*
X115473526Y-119311616D01*
X115451010Y-119298307D01*
X115405742Y-119261112D01*
X115342244Y-119204128D01*
X115265039Y-119131449D01*
X115178651Y-119047171D01*
X115150399Y-119019016D01*
X114858287Y-118726416D01*
X115080631Y-118400104D01*
X115148202Y-118299897D01*
X115207507Y-118209963D01*
X115255217Y-118135510D01*
X115288007Y-118081751D01*
X115302548Y-118053894D01*
X115302974Y-118051912D01*
X115295308Y-118025655D01*
X115274689Y-117972837D01*
X115244685Y-117902310D01*
X115223625Y-117855093D01*
X115184248Y-117764694D01*
X115147165Y-117673366D01*
X115118415Y-117596200D01*
X115110605Y-117572692D01*
X115088417Y-117509916D01*
X115066727Y-117461411D01*
X115054813Y-117443079D01*
X115028523Y-117431859D01*
X114971142Y-117415954D01*
X114890118Y-117397167D01*
X114792895Y-117377299D01*
X114749385Y-117369132D01*
X114638896Y-117348829D01*
X114532916Y-117329170D01*
X114441801Y-117312088D01*
X114375908Y-117299518D01*
X114363500Y-117297091D01*
X114260923Y-117276845D01*
X114260923Y-116849701D01*
X114261153Y-116709246D01*
X114262099Y-116602979D01*
X114264141Y-116526013D01*
X114267662Y-116473460D01*
X114273043Y-116440433D01*
X114280666Y-116422045D01*
X114290912Y-116413408D01*
X114295115Y-116411807D01*
X114320470Y-116406127D01*
X114376484Y-116394795D01*
X114455964Y-116379179D01*
X114551712Y-116360647D01*
X114656533Y-116340569D01*
X114763232Y-116320312D01*
X114864613Y-116301246D01*
X114953479Y-116284739D01*
X115022637Y-116272159D01*
X115064889Y-116264875D01*
X115074290Y-116263616D01*
X115082807Y-116246763D01*
X115101660Y-116201870D01*
X115127324Y-116137430D01*
X115137123Y-116112192D01*
X115176648Y-116014686D01*
X115223192Y-115906959D01*
X115264877Y-115816172D01*
X115295550Y-115746753D01*
X115315956Y-115689710D01*
X115322768Y-115654777D01*
X115321682Y-115650095D01*
X115307285Y-115627991D01*
X115274412Y-115578831D01*
X115226590Y-115507848D01*
X115167348Y-115420278D01*
X115100215Y-115321357D01*
X115086941Y-115301830D01*
X115009046Y-115186140D01*
X114951787Y-115098044D01*
X114912881Y-115033486D01*
X114890044Y-114988411D01*
X114880994Y-114958763D01*
X114883448Y-114940485D01*
X114883511Y-114940369D01*
X114902827Y-114916361D01*
X114945551Y-114869947D01*
X115007051Y-114805937D01*
X115082698Y-114729145D01*
X115167861Y-114644382D01*
X115177465Y-114634922D01*
X115284790Y-114530989D01*
X115367615Y-114454675D01*
X115427605Y-114404571D01*
X115466423Y-114379270D01*
X115483520Y-114376004D01*
X115508473Y-114390250D01*
X115560255Y-114423156D01*
X115633520Y-114471208D01*
X115722920Y-114530890D01*
X115823111Y-114598688D01*
X115846501Y-114614639D01*
X116178593Y-114841420D01*
X116328565Y-114773353D01*
X116419770Y-114733685D01*
X116517669Y-114693791D01*
X116601831Y-114661983D01*
X116605538Y-114660674D01*
X116671369Y-114636576D01*
X116722116Y-114616200D01*
X116746842Y-114603936D01*
X116746884Y-114603901D01*
X116754729Y-114581734D01*
X116768066Y-114527217D01*
X116785570Y-114446480D01*
X116805917Y-114345650D01*
X116827782Y-114230856D01*
X116829571Y-114221178D01*
X116851504Y-114102904D01*
X116871640Y-113995542D01*
X116888680Y-113905917D01*
X116901328Y-113840851D01*
X116908284Y-113807168D01*
X116908406Y-113806654D01*
X116912639Y-113792325D01*
X116920871Y-113781507D01*
X116938033Y-113773706D01*
X116969058Y-113768429D01*
X117018878Y-113765182D01*
X117092424Y-113763472D01*
X117194629Y-113762807D01*
X117330425Y-113762693D01*
X117348000Y-113762692D01*
X117487878Y-113762776D01*
G37*
X117487878Y-113762776D02*
X117593612Y-113763355D01*
X117670132Y-113764922D01*
X117722372Y-113767972D01*
X117755263Y-113772996D01*
X117773737Y-113780489D01*
X117782727Y-113790944D01*
X117787163Y-113804853D01*
X117787594Y-113806654D01*
X117794333Y-113839145D01*
X117806808Y-113903252D01*
X117823719Y-113992151D01*
X117843771Y-114099019D01*
X117865664Y-114217033D01*
X117866429Y-114221178D01*
X117888359Y-114336831D01*
X117908877Y-114439014D01*
X117926659Y-114521598D01*
X117940381Y-114578456D01*
X117948718Y-114603458D01*
X117949116Y-114603901D01*
X117973677Y-114616110D01*
X118024315Y-114636456D01*
X118090095Y-114660545D01*
X118090461Y-114660674D01*
X118173317Y-114691818D01*
X118271000Y-114731491D01*
X118363077Y-114771381D01*
X118367434Y-114773353D01*
X118517407Y-114841420D01*
X118849498Y-114614639D01*
X118951374Y-114545504D01*
X119043657Y-114483697D01*
X119121003Y-114432733D01*
X119178064Y-114396127D01*
X119209495Y-114377394D01*
X119212479Y-114376004D01*
X119235321Y-114382190D01*
X119277982Y-114412035D01*
X119342128Y-114466947D01*
X119429421Y-114548334D01*
X119518535Y-114634922D01*
X119604441Y-114720247D01*
X119681327Y-114798108D01*
X119744564Y-114863697D01*
X119789523Y-114912205D01*
X119811576Y-114938825D01*
X119812396Y-114940195D01*
X119814834Y-114958463D01*
X119805650Y-114988295D01*
X119782574Y-115033721D01*
X119743337Y-115098770D01*
X119685670Y-115187470D01*
X119608795Y-115301657D01*
X119540570Y-115402162D01*
X119479582Y-115492303D01*
X119429356Y-115566849D01*
X119393416Y-115620565D01*
X119375287Y-115648218D01*
X119374146Y-115650095D01*
X119376359Y-115676590D01*
X119393138Y-115728086D01*
X119421142Y-115794851D01*
X119431122Y-115816172D01*
X119474672Y-115911159D01*
X119521134Y-116018937D01*
X119558877Y-116112192D01*
X119586073Y-116181406D01*
X119607675Y-116234006D01*
X119620158Y-116261497D01*
X119621709Y-116263616D01*
X119644668Y-116267124D01*
X119698786Y-116276738D01*
X119776868Y-116291089D01*
X119871719Y-116308807D01*
X119976143Y-116328525D01*
X120082944Y-116348874D01*
X120184926Y-116368486D01*
X120274894Y-116385991D01*
X120345653Y-116400022D01*
X120390006Y-116409209D01*
X120400885Y-116411807D01*
X120412122Y-116418218D01*
X120420605Y-116432697D01*
X120426714Y-116460133D01*
X120430832Y-116505411D01*
X120433341Y-116573420D01*
X120434621Y-116669047D01*
X120435054Y-116797180D01*
X120435077Y-116849701D01*
X120435077Y-117276845D01*
X120332500Y-117297091D01*
X120275431Y-117308070D01*
X120190269Y-117324095D01*
X120087372Y-117343233D01*
X119977096Y-117363551D01*
X119946615Y-117369132D01*
X119844855Y-117388917D01*
X119756205Y-117408373D01*
X119688108Y-117425697D01*
X119648004Y-117439088D01*
X119641323Y-117443079D01*
X119624919Y-117471342D01*
X119601399Y-117526109D01*
X119575316Y-117596588D01*
X119570142Y-117611769D01*
X119535956Y-117705896D01*
X119493523Y-117812101D01*
X119451997Y-117907473D01*
X119451792Y-117907916D01*
X119382640Y-118057525D01*
X119837512Y-118726617D01*
X119545500Y-119019116D01*
X119457180Y-119106170D01*
X119376625Y-119182909D01*
X119308360Y-119245237D01*
X119256908Y-119289056D01*
X119226794Y-119310270D01*
X119222474Y-119311616D01*
X119197111Y-119301016D01*
X119145358Y-119271547D01*
X119072868Y-119226705D01*
X118985294Y-119169984D01*
X118890612Y-119106462D01*
X118794516Y-119041668D01*
X118708837Y-118985287D01*
X118639016Y-118940788D01*
X118590494Y-118911639D01*
X118568782Y-118901308D01*
X118542293Y-118910050D01*
X118492062Y-118933087D01*
X118428451Y-118965631D01*
X118421708Y-118969249D01*
X118336046Y-119012210D01*
X118277306Y-119033279D01*
X118240772Y-119033503D01*
X118221731Y-119013928D01*
X118221620Y-119013654D01*
X118212102Y-118990472D01*
X118189403Y-118935441D01*
X118155282Y-118852822D01*
X118111500Y-118746872D01*
X118059816Y-118621852D01*
X118001992Y-118482020D01*
X117945991Y-118346637D01*
X117884447Y-118197234D01*
X117827939Y-118058832D01*
X117778161Y-117935673D01*
X117736806Y-117832002D01*
X117705568Y-117752059D01*
X117686141Y-117700088D01*
X117680154Y-117680692D01*
X117695168Y-117658443D01*
X117734439Y-117622982D01*
X117786807Y-117583887D01*
X117935941Y-117460245D01*
X118052511Y-117318522D01*
X118135118Y-117161704D01*
X118182366Y-116992775D01*
X118192857Y-116814722D01*
X118185231Y-116732539D01*
X118143682Y-116562031D01*
X118072123Y-116411459D01*
X117974995Y-116282309D01*
X117856734Y-116176064D01*
X117721780Y-116094210D01*
X117574571Y-116038232D01*
X117419544Y-116009615D01*
X117261139Y-116009844D01*
X117103794Y-116040405D01*
X116951946Y-116102782D01*
X116810035Y-116198460D01*
X116750803Y-116252572D01*
X116637203Y-116391520D01*
X116558106Y-116543361D01*
X116512986Y-116703667D01*
X116501316Y-116868012D01*
X116522569Y-117031971D01*
X116576220Y-117191118D01*
X116661740Y-117341025D01*
X116778605Y-117477267D01*
X116909193Y-117583887D01*
X116963588Y-117624642D01*
X117002014Y-117659718D01*
X117015846Y-117680726D01*
X117008603Y-117703635D01*
X116988005Y-117758365D01*
X116955746Y-117840672D01*
X116913521Y-117946315D01*
X116863023Y-118071050D01*
X116805948Y-118210636D01*
X116749854Y-118346670D01*
X116687967Y-118496201D01*
X116630644Y-118634767D01*
X116579644Y-118758107D01*
X116536727Y-118861964D01*
X116503653Y-118942080D01*
X116482181Y-118994195D01*
X116474225Y-119013654D01*
X116455429Y-119033423D01*
X116419074Y-119033365D01*
X116360479Y-119012441D01*
X116274968Y-118969613D01*
X116274292Y-118969249D01*
X116209907Y-118936012D01*
X116157861Y-118911802D01*
X116128512Y-118901404D01*
X116127217Y-118901308D01*
X116105124Y-118911855D01*
X116056348Y-118941184D01*
X115986331Y-118985827D01*
X115900514Y-119042314D01*
X115805388Y-119106462D01*
X115708540Y-119171411D01*
X115621253Y-119227896D01*
X115549181Y-119272421D01*
X115497977Y-119301490D01*
X115473526Y-119311616D01*
X115451010Y-119298307D01*
X115405742Y-119261112D01*
X115342244Y-119204128D01*
X115265039Y-119131449D01*
X115178651Y-119047171D01*
X115150399Y-119019016D01*
X114858287Y-118726416D01*
X115080631Y-118400104D01*
X115148202Y-118299897D01*
X115207507Y-118209963D01*
X115255217Y-118135510D01*
X115288007Y-118081751D01*
X115302548Y-118053894D01*
X115302974Y-118051912D01*
X115295308Y-118025655D01*
X115274689Y-117972837D01*
X115244685Y-117902310D01*
X115223625Y-117855093D01*
X115184248Y-117764694D01*
X115147165Y-117673366D01*
X115118415Y-117596200D01*
X115110605Y-117572692D01*
X115088417Y-117509916D01*
X115066727Y-117461411D01*
X115054813Y-117443079D01*
X115028523Y-117431859D01*
X114971142Y-117415954D01*
X114890118Y-117397167D01*
X114792895Y-117377299D01*
X114749385Y-117369132D01*
X114638896Y-117348829D01*
X114532916Y-117329170D01*
X114441801Y-117312088D01*
X114375908Y-117299518D01*
X114363500Y-117297091D01*
X114260923Y-117276845D01*
X114260923Y-116849701D01*
X114261153Y-116709246D01*
X114262099Y-116602979D01*
X114264141Y-116526013D01*
X114267662Y-116473460D01*
X114273043Y-116440433D01*
X114280666Y-116422045D01*
X114290912Y-116413408D01*
X114295115Y-116411807D01*
X114320470Y-116406127D01*
X114376484Y-116394795D01*
X114455964Y-116379179D01*
X114551712Y-116360647D01*
X114656533Y-116340569D01*
X114763232Y-116320312D01*
X114864613Y-116301246D01*
X114953479Y-116284739D01*
X115022637Y-116272159D01*
X115064889Y-116264875D01*
X115074290Y-116263616D01*
X115082807Y-116246763D01*
X115101660Y-116201870D01*
X115127324Y-116137430D01*
X115137123Y-116112192D01*
X115176648Y-116014686D01*
X115223192Y-115906959D01*
X115264877Y-115816172D01*
X115295550Y-115746753D01*
X115315956Y-115689710D01*
X115322768Y-115654777D01*
X115321682Y-115650095D01*
X115307285Y-115627991D01*
X115274412Y-115578831D01*
X115226590Y-115507848D01*
X115167348Y-115420278D01*
X115100215Y-115321357D01*
X115086941Y-115301830D01*
X115009046Y-115186140D01*
X114951787Y-115098044D01*
X114912881Y-115033486D01*
X114890044Y-114988411D01*
X114880994Y-114958763D01*
X114883448Y-114940485D01*
X114883511Y-114940369D01*
X114902827Y-114916361D01*
X114945551Y-114869947D01*
X115007051Y-114805937D01*
X115082698Y-114729145D01*
X115167861Y-114644382D01*
X115177465Y-114634922D01*
X115284790Y-114530989D01*
X115367615Y-114454675D01*
X115427605Y-114404571D01*
X115466423Y-114379270D01*
X115483520Y-114376004D01*
X115508473Y-114390250D01*
X115560255Y-114423156D01*
X115633520Y-114471208D01*
X115722920Y-114530890D01*
X115823111Y-114598688D01*
X115846501Y-114614639D01*
X116178593Y-114841420D01*
X116328565Y-114773353D01*
X116419770Y-114733685D01*
X116517669Y-114693791D01*
X116601831Y-114661983D01*
X116605538Y-114660674D01*
X116671369Y-114636576D01*
X116722116Y-114616200D01*
X116746842Y-114603936D01*
X116746884Y-114603901D01*
X116754729Y-114581734D01*
X116768066Y-114527217D01*
X116785570Y-114446480D01*
X116805917Y-114345650D01*
X116827782Y-114230856D01*
X116829571Y-114221178D01*
X116851504Y-114102904D01*
X116871640Y-113995542D01*
X116888680Y-113905917D01*
X116901328Y-113840851D01*
X116908284Y-113807168D01*
X116908406Y-113806654D01*
X116912639Y-113792325D01*
X116920871Y-113781507D01*
X116938033Y-113773706D01*
X116969058Y-113768429D01*
X117018878Y-113765182D01*
X117092424Y-113763472D01*
X117194629Y-113762807D01*
X117330425Y-113762693D01*
X117348000Y-113762692D01*
X117487878Y-113762776D01*
G36*
X121593224Y-120122838D02*
G01*
X121670528Y-120173361D01*
X121707814Y-120218590D01*
X121737353Y-120300663D01*
X121739699Y-120365607D01*
X121734385Y-120452445D01*
X121534115Y-120540103D01*
X121436739Y-120584887D01*
X121373113Y-120620913D01*
X121340029Y-120652117D01*
X121334280Y-120682436D01*
X121352658Y-120715805D01*
X121372923Y-120737923D01*
X121431889Y-120773393D01*
X121496024Y-120775879D01*
X121554926Y-120748235D01*
X121598197Y-120693320D01*
X121605936Y-120673928D01*
X121643006Y-120613364D01*
X121685654Y-120587552D01*
X121744154Y-120565471D01*
X121744154Y-120649184D01*
X121738982Y-120706150D01*
X121718723Y-120754189D01*
X121676262Y-120809346D01*
X121669951Y-120816514D01*
X121622720Y-120865585D01*
X121582121Y-120891920D01*
X121531328Y-120904035D01*
X121489220Y-120908003D01*
X121413902Y-120908991D01*
X121360286Y-120896466D01*
X121326838Y-120877869D01*
X121274268Y-120836975D01*
X121237879Y-120792748D01*
X121214850Y-120737126D01*
X121202359Y-120662047D01*
X121197587Y-120559449D01*
X121197206Y-120507376D01*
X121198501Y-120444948D01*
X121316471Y-120444948D01*
X121317839Y-120478438D01*
X121321249Y-120483923D01*
X121343753Y-120476472D01*
X121392182Y-120456753D01*
X121456908Y-120428718D01*
X121470443Y-120422692D01*
X121552244Y-120381096D01*
X121597312Y-120344538D01*
X121607217Y-120310296D01*
X121583526Y-120275648D01*
X121563960Y-120260339D01*
X121493360Y-120229721D01*
X121427280Y-120234780D01*
X121371959Y-120272151D01*
X121333636Y-120338473D01*
X121321349Y-120391116D01*
X121316471Y-120444948D01*
X121198501Y-120444948D01*
X121199730Y-120385720D01*
X121209032Y-120295710D01*
X121227460Y-120230167D01*
X121257360Y-120181912D01*
X121301080Y-120143767D01*
X121320141Y-120131440D01*
X121406726Y-120099336D01*
X121501522Y-120097316D01*
X121593224Y-120122838D01*
G37*
X121593224Y-120122838D02*
X121670528Y-120173361D01*
X121707814Y-120218590D01*
X121737353Y-120300663D01*
X121739699Y-120365607D01*
X121734385Y-120452445D01*
X121534115Y-120540103D01*
X121436739Y-120584887D01*
X121373113Y-120620913D01*
X121340029Y-120652117D01*
X121334280Y-120682436D01*
X121352658Y-120715805D01*
X121372923Y-120737923D01*
X121431889Y-120773393D01*
X121496024Y-120775879D01*
X121554926Y-120748235D01*
X121598197Y-120693320D01*
X121605936Y-120673928D01*
X121643006Y-120613364D01*
X121685654Y-120587552D01*
X121744154Y-120565471D01*
X121744154Y-120649184D01*
X121738982Y-120706150D01*
X121718723Y-120754189D01*
X121676262Y-120809346D01*
X121669951Y-120816514D01*
X121622720Y-120865585D01*
X121582121Y-120891920D01*
X121531328Y-120904035D01*
X121489220Y-120908003D01*
X121413902Y-120908991D01*
X121360286Y-120896466D01*
X121326838Y-120877869D01*
X121274268Y-120836975D01*
X121237879Y-120792748D01*
X121214850Y-120737126D01*
X121202359Y-120662047D01*
X121197587Y-120559449D01*
X121197206Y-120507376D01*
X121198501Y-120444948D01*
X121316471Y-120444948D01*
X121317839Y-120478438D01*
X121321249Y-120483923D01*
X121343753Y-120476472D01*
X121392182Y-120456753D01*
X121456908Y-120428718D01*
X121470443Y-120422692D01*
X121552244Y-120381096D01*
X121597312Y-120344538D01*
X121607217Y-120310296D01*
X121583526Y-120275648D01*
X121563960Y-120260339D01*
X121493360Y-120229721D01*
X121427280Y-120234780D01*
X121371959Y-120272151D01*
X121333636Y-120338473D01*
X121321349Y-120391116D01*
X121316471Y-120444948D01*
X121198501Y-120444948D01*
X121199730Y-120385720D01*
X121209032Y-120295710D01*
X121227460Y-120230167D01*
X121257360Y-120181912D01*
X121301080Y-120143767D01*
X121320141Y-120131440D01*
X121406726Y-120099336D01*
X121501522Y-120097316D01*
X121593224Y-120122838D01*
G36*
X120918807Y-120111782D02*
G01*
X120942161Y-120121988D01*
X120997902Y-120166134D01*
X121045569Y-120229967D01*
X121075048Y-120298087D01*
X121079846Y-120331670D01*
X121063760Y-120378556D01*
X121028475Y-120403365D01*
X120990644Y-120418387D01*
X120973321Y-120421155D01*
X120964886Y-120401066D01*
X120948230Y-120357351D01*
X120940923Y-120337598D01*
X120899948Y-120269271D01*
X120840622Y-120235191D01*
X120764552Y-120236239D01*
X120758918Y-120237581D01*
X120718305Y-120256836D01*
X120688448Y-120294375D01*
X120668055Y-120354809D01*
X120655836Y-120442751D01*
X120650500Y-120562813D01*
X120650000Y-120626698D01*
X120649752Y-120727403D01*
X120648126Y-120796054D01*
X120643801Y-120839673D01*
X120635454Y-120865282D01*
X120621765Y-120879903D01*
X120601411Y-120890558D01*
X120600234Y-120891095D01*
X120561038Y-120907667D01*
X120541619Y-120913769D01*
X120538635Y-120895319D01*
X120536081Y-120844323D01*
X120534140Y-120767308D01*
X120532997Y-120670805D01*
X120532769Y-120600184D01*
X120533932Y-120463525D01*
X120538479Y-120359851D01*
X120547999Y-120283108D01*
X120564081Y-120227246D01*
X120588313Y-120186212D01*
X120622286Y-120153954D01*
X120655833Y-120131440D01*
X120736499Y-120101476D01*
X120830381Y-120094718D01*
X120918807Y-120111782D01*
G37*
X120918807Y-120111782D02*
X120942161Y-120121988D01*
X120997902Y-120166134D01*
X121045569Y-120229967D01*
X121075048Y-120298087D01*
X121079846Y-120331670D01*
X121063760Y-120378556D01*
X121028475Y-120403365D01*
X120990644Y-120418387D01*
X120973321Y-120421155D01*
X120964886Y-120401066D01*
X120948230Y-120357351D01*
X120940923Y-120337598D01*
X120899948Y-120269271D01*
X120840622Y-120235191D01*
X120764552Y-120236239D01*
X120758918Y-120237581D01*
X120718305Y-120256836D01*
X120688448Y-120294375D01*
X120668055Y-120354809D01*
X120655836Y-120442751D01*
X120650500Y-120562813D01*
X120650000Y-120626698D01*
X120649752Y-120727403D01*
X120648126Y-120796054D01*
X120643801Y-120839673D01*
X120635454Y-120865282D01*
X120621765Y-120879903D01*
X120601411Y-120890558D01*
X120600234Y-120891095D01*
X120561038Y-120907667D01*
X120541619Y-120913769D01*
X120538635Y-120895319D01*
X120536081Y-120844323D01*
X120534140Y-120767308D01*
X120532997Y-120670805D01*
X120532769Y-120600184D01*
X120533932Y-120463525D01*
X120538479Y-120359851D01*
X120547999Y-120283108D01*
X120564081Y-120227246D01*
X120588313Y-120186212D01*
X120622286Y-120153954D01*
X120655833Y-120131440D01*
X120736499Y-120101476D01*
X120830381Y-120094718D01*
X120918807Y-120111782D01*
G36*
X120235333Y-120108528D02*
G01*
X120291590Y-120134117D01*
X120335747Y-120165124D01*
X120368101Y-120199795D01*
X120390438Y-120244520D01*
X120404546Y-120305692D01*
X120412211Y-120389701D01*
X120415220Y-120502940D01*
X120415538Y-120577509D01*
X120415538Y-120868420D01*
X120365773Y-120891095D01*
X120326576Y-120907667D01*
X120307157Y-120913769D01*
X120303442Y-120895610D01*
X120300495Y-120846648D01*
X120298691Y-120775153D01*
X120298308Y-120718385D01*
X120296661Y-120636371D01*
X120292222Y-120571309D01*
X120285740Y-120531467D01*
X120280590Y-120523000D01*
X120245977Y-120531646D01*
X120191640Y-120553823D01*
X120128722Y-120583886D01*
X120068368Y-120616192D01*
X120021721Y-120645098D01*
X119999926Y-120664961D01*
X119999839Y-120665175D01*
X120001714Y-120701935D01*
X120018525Y-120737026D01*
X120048039Y-120765528D01*
X120091116Y-120775061D01*
X120127932Y-120773950D01*
X120180074Y-120773133D01*
X120207444Y-120785349D01*
X120223882Y-120817624D01*
X120225955Y-120823710D01*
X120233081Y-120869739D01*
X120214024Y-120897687D01*
X120164353Y-120911007D01*
X120110697Y-120913470D01*
X120014142Y-120895210D01*
X119964159Y-120869131D01*
X119902429Y-120807868D01*
X119869690Y-120732670D01*
X119866753Y-120653211D01*
X119894424Y-120579167D01*
X119936047Y-120532769D01*
X119977604Y-120506793D01*
X120042922Y-120473907D01*
X120119038Y-120440557D01*
X120131726Y-120435461D01*
X120215333Y-120398565D01*
X120263530Y-120366046D01*
X120279030Y-120333718D01*
X120264550Y-120297394D01*
X120239692Y-120269000D01*
X120180939Y-120234039D01*
X120116293Y-120231417D01*
X120057008Y-120258358D01*
X120014339Y-120312088D01*
X120008739Y-120325950D01*
X119976133Y-120376936D01*
X119928530Y-120414787D01*
X119868461Y-120445850D01*
X119868461Y-120357768D01*
X119871997Y-120303951D01*
X119887156Y-120261534D01*
X119920768Y-120216279D01*
X119953035Y-120181420D01*
X120003209Y-120132062D01*
X120042193Y-120105547D01*
X120084064Y-120094911D01*
X120131460Y-120093154D01*
X120235333Y-120108528D01*
G37*
X120235333Y-120108528D02*
X120291590Y-120134117D01*
X120335747Y-120165124D01*
X120368101Y-120199795D01*
X120390438Y-120244520D01*
X120404546Y-120305692D01*
X120412211Y-120389701D01*
X120415220Y-120502940D01*
X120415538Y-120577509D01*
X120415538Y-120868420D01*
X120365773Y-120891095D01*
X120326576Y-120907667D01*
X120307157Y-120913769D01*
X120303442Y-120895610D01*
X120300495Y-120846648D01*
X120298691Y-120775153D01*
X120298308Y-120718385D01*
X120296661Y-120636371D01*
X120292222Y-120571309D01*
X120285740Y-120531467D01*
X120280590Y-120523000D01*
X120245977Y-120531646D01*
X120191640Y-120553823D01*
X120128722Y-120583886D01*
X120068368Y-120616192D01*
X120021721Y-120645098D01*
X119999926Y-120664961D01*
X119999839Y-120665175D01*
X120001714Y-120701935D01*
X120018525Y-120737026D01*
X120048039Y-120765528D01*
X120091116Y-120775061D01*
X120127932Y-120773950D01*
X120180074Y-120773133D01*
X120207444Y-120785349D01*
X120223882Y-120817624D01*
X120225955Y-120823710D01*
X120233081Y-120869739D01*
X120214024Y-120897687D01*
X120164353Y-120911007D01*
X120110697Y-120913470D01*
X120014142Y-120895210D01*
X119964159Y-120869131D01*
X119902429Y-120807868D01*
X119869690Y-120732670D01*
X119866753Y-120653211D01*
X119894424Y-120579167D01*
X119936047Y-120532769D01*
X119977604Y-120506793D01*
X120042922Y-120473907D01*
X120119038Y-120440557D01*
X120131726Y-120435461D01*
X120215333Y-120398565D01*
X120263530Y-120366046D01*
X120279030Y-120333718D01*
X120264550Y-120297394D01*
X120239692Y-120269000D01*
X120180939Y-120234039D01*
X120116293Y-120231417D01*
X120057008Y-120258358D01*
X120014339Y-120312088D01*
X120008739Y-120325950D01*
X119976133Y-120376936D01*
X119928530Y-120414787D01*
X119868461Y-120445850D01*
X119868461Y-120357768D01*
X119871997Y-120303951D01*
X119887156Y-120261534D01*
X119920768Y-120216279D01*
X119953035Y-120181420D01*
X120003209Y-120132062D01*
X120042193Y-120105547D01*
X120084064Y-120094911D01*
X120131460Y-120093154D01*
X120235333Y-120108528D01*
G36*
X119743929Y-120111662D02*
G01*
X119746911Y-120163068D01*
X119749247Y-120241192D01*
X119750749Y-120339857D01*
X119751231Y-120443343D01*
X119751231Y-120793533D01*
X119689401Y-120855363D01*
X119646793Y-120893462D01*
X119609390Y-120908895D01*
X119558270Y-120907918D01*
X119537978Y-120905433D01*
X119474554Y-120898200D01*
X119422095Y-120894055D01*
X119409308Y-120893672D01*
X119366199Y-120896176D01*
X119304544Y-120902462D01*
X119280638Y-120905433D01*
X119221922Y-120910028D01*
X119182464Y-120900046D01*
X119143338Y-120869228D01*
X119129215Y-120855363D01*
X119067385Y-120793533D01*
X119067385Y-120138503D01*
X119117150Y-120115829D01*
X119160002Y-120099034D01*
X119185073Y-120093154D01*
X119191501Y-120111736D01*
X119197509Y-120163655D01*
X119202697Y-120243172D01*
X119206664Y-120344546D01*
X119208577Y-120430192D01*
X119213923Y-120767231D01*
X119260560Y-120773825D01*
X119302976Y-120769214D01*
X119323760Y-120754287D01*
X119329570Y-120726377D01*
X119334530Y-120666925D01*
X119338246Y-120583466D01*
X119340324Y-120483532D01*
X119340624Y-120432104D01*
X119340923Y-120136054D01*
X119402454Y-120114604D01*
X119446004Y-120100020D01*
X119469694Y-120093219D01*
X119470377Y-120093154D01*
X119472754Y-120111642D01*
X119475366Y-120162906D01*
X119477995Y-120240649D01*
X119480421Y-120338574D01*
X119482115Y-120430192D01*
X119487461Y-120767231D01*
X119604692Y-120767231D01*
X119610072Y-120459746D01*
X119615451Y-120152261D01*
X119672601Y-120122707D01*
X119714797Y-120102413D01*
X119739770Y-120093204D01*
X119740491Y-120093154D01*
X119743929Y-120111662D01*
G37*
X119743929Y-120111662D02*
X119746911Y-120163068D01*
X119749247Y-120241192D01*
X119750749Y-120339857D01*
X119751231Y-120443343D01*
X119751231Y-120793533D01*
X119689401Y-120855363D01*
X119646793Y-120893462D01*
X119609390Y-120908895D01*
X119558270Y-120907918D01*
X119537978Y-120905433D01*
X119474554Y-120898200D01*
X119422095Y-120894055D01*
X119409308Y-120893672D01*
X119366199Y-120896176D01*
X119304544Y-120902462D01*
X119280638Y-120905433D01*
X119221922Y-120910028D01*
X119182464Y-120900046D01*
X119143338Y-120869228D01*
X119129215Y-120855363D01*
X119067385Y-120793533D01*
X119067385Y-120138503D01*
X119117150Y-120115829D01*
X119160002Y-120099034D01*
X119185073Y-120093154D01*
X119191501Y-120111736D01*
X119197509Y-120163655D01*
X119202697Y-120243172D01*
X119206664Y-120344546D01*
X119208577Y-120430192D01*
X119213923Y-120767231D01*
X119260560Y-120773825D01*
X119302976Y-120769214D01*
X119323760Y-120754287D01*
X119329570Y-120726377D01*
X119334530Y-120666925D01*
X119338246Y-120583466D01*
X119340324Y-120483532D01*
X119340624Y-120432104D01*
X119340923Y-120136054D01*
X119402454Y-120114604D01*
X119446004Y-120100020D01*
X119469694Y-120093219D01*
X119470377Y-120093154D01*
X119472754Y-120111642D01*
X119475366Y-120162906D01*
X119477995Y-120240649D01*
X119480421Y-120338574D01*
X119482115Y-120430192D01*
X119487461Y-120767231D01*
X119604692Y-120767231D01*
X119610072Y-120459746D01*
X119615451Y-120152261D01*
X119672601Y-120122707D01*
X119714797Y-120102413D01*
X119739770Y-120093204D01*
X119740491Y-120093154D01*
X119743929Y-120111662D01*
G36*
X118950081Y-120255289D02*
G01*
X118949833Y-120401320D01*
X118948872Y-120513655D01*
X118946794Y-120597678D01*
X118943193Y-120658769D01*
X118937665Y-120702309D01*
X118929804Y-120733679D01*
X118919207Y-120758262D01*
X118911182Y-120772294D01*
X118844728Y-120848388D01*
X118760470Y-120896084D01*
X118667249Y-120913199D01*
X118573900Y-120897546D01*
X118518312Y-120869418D01*
X118459957Y-120820760D01*
X118420186Y-120761333D01*
X118396190Y-120683507D01*
X118385161Y-120579652D01*
X118383599Y-120503462D01*
X118383809Y-120497986D01*
X118520308Y-120497986D01*
X118521141Y-120585355D01*
X118524961Y-120643192D01*
X118533746Y-120681029D01*
X118549474Y-120708398D01*
X118568266Y-120729042D01*
X118631375Y-120768890D01*
X118699137Y-120772295D01*
X118763179Y-120739025D01*
X118768164Y-120734517D01*
X118789439Y-120711067D01*
X118802779Y-120683166D01*
X118810001Y-120641641D01*
X118812923Y-120577316D01*
X118813385Y-120506200D01*
X118812383Y-120416858D01*
X118808238Y-120357258D01*
X118799236Y-120318089D01*
X118783667Y-120290040D01*
X118770902Y-120275144D01*
X118711600Y-120237575D01*
X118643301Y-120233057D01*
X118578110Y-120261753D01*
X118565528Y-120272406D01*
X118544111Y-120296063D01*
X118530744Y-120324251D01*
X118523566Y-120366245D01*
X118520719Y-120431319D01*
X118520308Y-120497986D01*
X118383809Y-120497986D01*
X118388322Y-120380765D01*
X118404362Y-120288577D01*
X118434528Y-120219269D01*
X118481629Y-120165211D01*
X118518312Y-120137505D01*
X118584990Y-120107572D01*
X118662272Y-120093678D01*
X118734110Y-120097397D01*
X118774308Y-120112400D01*
X118790082Y-120116670D01*
X118800550Y-120100750D01*
X118807856Y-120058089D01*
X118813385Y-119993106D01*
X118819437Y-119920732D01*
X118827844Y-119877187D01*
X118843141Y-119852287D01*
X118869864Y-119835845D01*
X118886654Y-119828564D01*
X118950154Y-119801963D01*
X118950081Y-120255289D01*
G37*
X118950081Y-120255289D02*
X118949833Y-120401320D01*
X118948872Y-120513655D01*
X118946794Y-120597678D01*
X118943193Y-120658769D01*
X118937665Y-120702309D01*
X118929804Y-120733679D01*
X118919207Y-120758262D01*
X118911182Y-120772294D01*
X118844728Y-120848388D01*
X118760470Y-120896084D01*
X118667249Y-120913199D01*
X118573900Y-120897546D01*
X118518312Y-120869418D01*
X118459957Y-120820760D01*
X118420186Y-120761333D01*
X118396190Y-120683507D01*
X118385161Y-120579652D01*
X118383599Y-120503462D01*
X118383809Y-120497986D01*
X118520308Y-120497986D01*
X118521141Y-120585355D01*
X118524961Y-120643192D01*
X118533746Y-120681029D01*
X118549474Y-120708398D01*
X118568266Y-120729042D01*
X118631375Y-120768890D01*
X118699137Y-120772295D01*
X118763179Y-120739025D01*
X118768164Y-120734517D01*
X118789439Y-120711067D01*
X118802779Y-120683166D01*
X118810001Y-120641641D01*
X118812923Y-120577316D01*
X118813385Y-120506200D01*
X118812383Y-120416858D01*
X118808238Y-120357258D01*
X118799236Y-120318089D01*
X118783667Y-120290040D01*
X118770902Y-120275144D01*
X118711600Y-120237575D01*
X118643301Y-120233057D01*
X118578110Y-120261753D01*
X118565528Y-120272406D01*
X118544111Y-120296063D01*
X118530744Y-120324251D01*
X118523566Y-120366245D01*
X118520719Y-120431319D01*
X118520308Y-120497986D01*
X118383809Y-120497986D01*
X118388322Y-120380765D01*
X118404362Y-120288577D01*
X118434528Y-120219269D01*
X118481629Y-120165211D01*
X118518312Y-120137505D01*
X118584990Y-120107572D01*
X118662272Y-120093678D01*
X118734110Y-120097397D01*
X118774308Y-120112400D01*
X118790082Y-120116670D01*
X118800550Y-120100750D01*
X118807856Y-120058089D01*
X118813385Y-119993106D01*
X118819437Y-119920732D01*
X118827844Y-119877187D01*
X118843141Y-119852287D01*
X118869864Y-119835845D01*
X118886654Y-119828564D01*
X118950154Y-119801963D01*
X118950081Y-120255289D01*
G36*
X118061362Y-120099670D02*
G01*
X118150117Y-120132421D01*
X118222022Y-120190350D01*
X118250144Y-120231128D01*
X118280802Y-120305954D01*
X118280165Y-120360058D01*
X118247987Y-120396446D01*
X118236081Y-120402633D01*
X118184675Y-120421925D01*
X118158422Y-120416982D01*
X118149530Y-120384587D01*
X118149077Y-120366692D01*
X118132797Y-120300859D01*
X118090365Y-120254807D01*
X118031388Y-120232564D01*
X117965475Y-120238161D01*
X117911895Y-120267229D01*
X117893798Y-120283810D01*
X117880971Y-120303925D01*
X117872306Y-120334332D01*
X117866696Y-120381788D01*
X117863035Y-120453050D01*
X117860215Y-120554875D01*
X117859484Y-120587115D01*
X117856820Y-120697410D01*
X117853792Y-120775036D01*
X117849250Y-120826396D01*
X117842046Y-120857890D01*
X117831033Y-120875920D01*
X117815060Y-120886888D01*
X117804834Y-120891733D01*
X117761406Y-120908301D01*
X117735842Y-120913769D01*
X117727395Y-120895507D01*
X117722239Y-120840296D01*
X117720346Y-120747499D01*
X117721689Y-120616478D01*
X117722107Y-120596269D01*
X117725058Y-120476733D01*
X117728548Y-120389449D01*
X117733514Y-120327591D01*
X117740893Y-120284336D01*
X117751624Y-120252860D01*
X117766645Y-120226339D01*
X117774502Y-120214975D01*
X117819553Y-120164692D01*
X117869940Y-120125581D01*
X117876108Y-120122167D01*
X117966458Y-120095212D01*
X118061362Y-120099670D01*
G37*
X118061362Y-120099670D02*
X118150117Y-120132421D01*
X118222022Y-120190350D01*
X118250144Y-120231128D01*
X118280802Y-120305954D01*
X118280165Y-120360058D01*
X118247987Y-120396446D01*
X118236081Y-120402633D01*
X118184675Y-120421925D01*
X118158422Y-120416982D01*
X118149530Y-120384587D01*
X118149077Y-120366692D01*
X118132797Y-120300859D01*
X118090365Y-120254807D01*
X118031388Y-120232564D01*
X117965475Y-120238161D01*
X117911895Y-120267229D01*
X117893798Y-120283810D01*
X117880971Y-120303925D01*
X117872306Y-120334332D01*
X117866696Y-120381788D01*
X117863035Y-120453050D01*
X117860215Y-120554875D01*
X117859484Y-120587115D01*
X117856820Y-120697410D01*
X117853792Y-120775036D01*
X117849250Y-120826396D01*
X117842046Y-120857890D01*
X117831033Y-120875920D01*
X117815060Y-120886888D01*
X117804834Y-120891733D01*
X117761406Y-120908301D01*
X117735842Y-120913769D01*
X117727395Y-120895507D01*
X117722239Y-120840296D01*
X117720346Y-120747499D01*
X117721689Y-120616478D01*
X117722107Y-120596269D01*
X117725058Y-120476733D01*
X117728548Y-120389449D01*
X117733514Y-120327591D01*
X117740893Y-120284336D01*
X117751624Y-120252860D01*
X117766645Y-120226339D01*
X117774502Y-120214975D01*
X117819553Y-120164692D01*
X117869940Y-120125581D01*
X117876108Y-120122167D01*
X117966458Y-120095212D01*
X118061362Y-120099670D01*
G36*
X117401501Y-120101303D02*
G01*
X117478060Y-120129733D01*
X117478936Y-120130279D01*
X117526285Y-120165127D01*
X117561241Y-120205852D01*
X117585825Y-120258925D01*
X117602062Y-120330814D01*
X117611975Y-120427992D01*
X117617586Y-120556928D01*
X117618077Y-120575298D01*
X117625141Y-120852287D01*
X117565695Y-120883028D01*
X117522681Y-120903802D01*
X117496710Y-120913646D01*
X117495509Y-120913769D01*
X117491014Y-120895606D01*
X117487444Y-120846612D01*
X117485248Y-120775031D01*
X117484769Y-120717068D01*
X117484758Y-120623170D01*
X117480466Y-120564203D01*
X117465503Y-120536079D01*
X117433482Y-120534706D01*
X117378014Y-120555998D01*
X117294269Y-120595136D01*
X117232689Y-120627643D01*
X117201017Y-120655845D01*
X117191706Y-120686582D01*
X117191692Y-120688104D01*
X117207057Y-120741054D01*
X117252547Y-120769660D01*
X117322166Y-120773803D01*
X117372313Y-120773084D01*
X117398754Y-120787527D01*
X117415243Y-120822218D01*
X117424733Y-120866416D01*
X117411057Y-120891493D01*
X117405907Y-120895082D01*
X117357425Y-120909496D01*
X117289531Y-120911537D01*
X117219612Y-120901983D01*
X117170068Y-120884522D01*
X117101570Y-120826364D01*
X117062634Y-120745408D01*
X117054923Y-120682160D01*
X117060807Y-120625111D01*
X117082101Y-120578542D01*
X117124265Y-120537181D01*
X117192759Y-120495755D01*
X117293044Y-120448993D01*
X117299154Y-120446350D01*
X117389490Y-120404617D01*
X117445235Y-120370391D01*
X117469129Y-120339635D01*
X117463913Y-120308311D01*
X117432328Y-120272383D01*
X117422883Y-120264116D01*
X117359617Y-120232058D01*
X117294064Y-120233407D01*
X117236972Y-120264838D01*
X117199093Y-120323024D01*
X117195574Y-120334446D01*
X117161300Y-120389837D01*
X117117809Y-120416518D01*
X117054923Y-120442960D01*
X117054923Y-120374548D01*
X117074052Y-120275110D01*
X117130831Y-120183902D01*
X117160378Y-120153389D01*
X117227542Y-120114228D01*
X117312956Y-120096500D01*
X117401501Y-120101303D01*
G37*
X117401501Y-120101303D02*
X117478060Y-120129733D01*
X117478936Y-120130279D01*
X117526285Y-120165127D01*
X117561241Y-120205852D01*
X117585825Y-120258925D01*
X117602062Y-120330814D01*
X117611975Y-120427992D01*
X117617586Y-120556928D01*
X117618077Y-120575298D01*
X117625141Y-120852287D01*
X117565695Y-120883028D01*
X117522681Y-120903802D01*
X117496710Y-120913646D01*
X117495509Y-120913769D01*
X117491014Y-120895606D01*
X117487444Y-120846612D01*
X117485248Y-120775031D01*
X117484769Y-120717068D01*
X117484758Y-120623170D01*
X117480466Y-120564203D01*
X117465503Y-120536079D01*
X117433482Y-120534706D01*
X117378014Y-120555998D01*
X117294269Y-120595136D01*
X117232689Y-120627643D01*
X117201017Y-120655845D01*
X117191706Y-120686582D01*
X117191692Y-120688104D01*
X117207057Y-120741054D01*
X117252547Y-120769660D01*
X117322166Y-120773803D01*
X117372313Y-120773084D01*
X117398754Y-120787527D01*
X117415243Y-120822218D01*
X117424733Y-120866416D01*
X117411057Y-120891493D01*
X117405907Y-120895082D01*
X117357425Y-120909496D01*
X117289531Y-120911537D01*
X117219612Y-120901983D01*
X117170068Y-120884522D01*
X117101570Y-120826364D01*
X117062634Y-120745408D01*
X117054923Y-120682160D01*
X117060807Y-120625111D01*
X117082101Y-120578542D01*
X117124265Y-120537181D01*
X117192759Y-120495755D01*
X117293044Y-120448993D01*
X117299154Y-120446350D01*
X117389490Y-120404617D01*
X117445235Y-120370391D01*
X117469129Y-120339635D01*
X117463913Y-120308311D01*
X117432328Y-120272383D01*
X117422883Y-120264116D01*
X117359617Y-120232058D01*
X117294064Y-120233407D01*
X117236972Y-120264838D01*
X117199093Y-120323024D01*
X117195574Y-120334446D01*
X117161300Y-120389837D01*
X117117809Y-120416518D01*
X117054923Y-120442960D01*
X117054923Y-120374548D01*
X117074052Y-120275110D01*
X117130831Y-120183902D01*
X117160378Y-120153389D01*
X117227542Y-120114228D01*
X117312956Y-120096500D01*
X117401501Y-120101303D01*
G36*
X116507846Y-119967120D02*
G01*
X116513572Y-120046980D01*
X116520149Y-120094039D01*
X116529262Y-120114566D01*
X116542598Y-120114829D01*
X116546923Y-120112378D01*
X116604444Y-120094636D01*
X116679268Y-120095672D01*
X116755339Y-120113910D01*
X116802918Y-120137505D01*
X116851702Y-120175198D01*
X116887364Y-120217855D01*
X116911845Y-120272057D01*
X116927087Y-120344384D01*
X116935030Y-120441419D01*
X116937616Y-120569742D01*
X116937662Y-120594358D01*
X116937692Y-120870870D01*
X116876161Y-120892320D01*
X116832459Y-120906912D01*
X116808482Y-120913706D01*
X116807777Y-120913769D01*
X116805415Y-120895345D01*
X116803406Y-120844526D01*
X116801901Y-120767993D01*
X116801053Y-120672430D01*
X116800923Y-120614329D01*
X116800651Y-120499771D01*
X116799252Y-120417667D01*
X116795849Y-120361393D01*
X116789567Y-120324326D01*
X116779529Y-120299844D01*
X116764861Y-120281325D01*
X116755702Y-120272406D01*
X116692789Y-120236466D01*
X116624136Y-120233775D01*
X116561848Y-120264170D01*
X116550329Y-120275144D01*
X116533433Y-120295779D01*
X116521714Y-120320256D01*
X116514233Y-120355647D01*
X116510054Y-120409026D01*
X116508237Y-120487466D01*
X116507846Y-120595617D01*
X116507846Y-120870870D01*
X116446315Y-120892320D01*
X116402613Y-120906912D01*
X116378636Y-120913706D01*
X116377930Y-120913769D01*
X116376126Y-120895069D01*
X116374500Y-120842322D01*
X116373117Y-120760557D01*
X116372042Y-120654805D01*
X116371340Y-120530094D01*
X116371077Y-120391455D01*
X116371077Y-119856806D01*
X116498077Y-119803236D01*
X116507846Y-119967120D01*
G37*
X116507846Y-119967120D02*
X116513572Y-120046980D01*
X116520149Y-120094039D01*
X116529262Y-120114566D01*
X116542598Y-120114829D01*
X116546923Y-120112378D01*
X116604444Y-120094636D01*
X116679268Y-120095672D01*
X116755339Y-120113910D01*
X116802918Y-120137505D01*
X116851702Y-120175198D01*
X116887364Y-120217855D01*
X116911845Y-120272057D01*
X116927087Y-120344384D01*
X116935030Y-120441419D01*
X116937616Y-120569742D01*
X116937662Y-120594358D01*
X116937692Y-120870870D01*
X116876161Y-120892320D01*
X116832459Y-120906912D01*
X116808482Y-120913706D01*
X116807777Y-120913769D01*
X116805415Y-120895345D01*
X116803406Y-120844526D01*
X116801901Y-120767993D01*
X116801053Y-120672430D01*
X116800923Y-120614329D01*
X116800651Y-120499771D01*
X116799252Y-120417667D01*
X116795849Y-120361393D01*
X116789567Y-120324326D01*
X116779529Y-120299844D01*
X116764861Y-120281325D01*
X116755702Y-120272406D01*
X116692789Y-120236466D01*
X116624136Y-120233775D01*
X116561848Y-120264170D01*
X116550329Y-120275144D01*
X116533433Y-120295779D01*
X116521714Y-120320256D01*
X116514233Y-120355647D01*
X116510054Y-120409026D01*
X116508237Y-120487466D01*
X116507846Y-120595617D01*
X116507846Y-120870870D01*
X116446315Y-120892320D01*
X116402613Y-120906912D01*
X116378636Y-120913706D01*
X116377930Y-120913769D01*
X116376126Y-120895069D01*
X116374500Y-120842322D01*
X116373117Y-120760557D01*
X116372042Y-120654805D01*
X116371340Y-120530094D01*
X116371077Y-120391455D01*
X116371077Y-119856806D01*
X116498077Y-119803236D01*
X116507846Y-119967120D01*
G36*
X114882254Y-120074745D02*
G01*
X114959286Y-120126567D01*
X115018816Y-120201412D01*
X115054378Y-120296654D01*
X115061571Y-120366756D01*
X115060754Y-120396009D01*
X115053914Y-120418407D01*
X115035112Y-120438474D01*
X114998408Y-120460733D01*
X114937862Y-120489709D01*
X114847534Y-120529927D01*
X114847077Y-120530129D01*
X114763933Y-120568210D01*
X114695753Y-120602025D01*
X114649505Y-120627933D01*
X114632158Y-120642295D01*
X114632154Y-120642411D01*
X114647443Y-120673685D01*
X114683196Y-120708157D01*
X114724242Y-120732990D01*
X114745037Y-120737923D01*
X114801770Y-120720862D01*
X114850627Y-120678133D01*
X114874465Y-120631155D01*
X114897397Y-120596522D01*
X114942318Y-120557081D01*
X114995123Y-120523009D01*
X115041710Y-120504480D01*
X115051452Y-120503462D01*
X115062418Y-120520215D01*
X115063079Y-120563039D01*
X115055020Y-120620781D01*
X115039827Y-120682289D01*
X115019086Y-120736409D01*
X115018038Y-120738510D01*
X114955621Y-120825660D01*
X114874726Y-120884939D01*
X114782856Y-120914034D01*
X114687513Y-120910634D01*
X114596198Y-120872428D01*
X114592138Y-120869741D01*
X114520306Y-120804642D01*
X114473073Y-120719705D01*
X114446934Y-120608021D01*
X114443426Y-120576643D01*
X114437213Y-120428536D01*
X114444661Y-120359468D01*
X114632154Y-120359468D01*
X114634590Y-120402552D01*
X114647914Y-120415126D01*
X114681132Y-120405719D01*
X114733494Y-120383483D01*
X114792024Y-120355610D01*
X114793479Y-120354872D01*
X114843089Y-120328777D01*
X114863000Y-120311363D01*
X114858090Y-120293107D01*
X114837416Y-120269120D01*
X114784819Y-120234406D01*
X114728177Y-120231856D01*
X114677369Y-120257119D01*
X114642276Y-120305847D01*
X114632154Y-120359468D01*
X114444661Y-120359468D01*
X114449992Y-120310036D01*
X114482778Y-120216055D01*
X114528421Y-120150215D01*
X114610802Y-120083681D01*
X114701546Y-120050676D01*
X114794185Y-120048573D01*
X114882254Y-120074745D01*
G37*
X114882254Y-120074745D02*
X114959286Y-120126567D01*
X115018816Y-120201412D01*
X115054378Y-120296654D01*
X115061571Y-120366756D01*
X115060754Y-120396009D01*
X115053914Y-120418407D01*
X115035112Y-120438474D01*
X114998408Y-120460733D01*
X114937862Y-120489709D01*
X114847534Y-120529927D01*
X114847077Y-120530129D01*
X114763933Y-120568210D01*
X114695753Y-120602025D01*
X114649505Y-120627933D01*
X114632158Y-120642295D01*
X114632154Y-120642411D01*
X114647443Y-120673685D01*
X114683196Y-120708157D01*
X114724242Y-120732990D01*
X114745037Y-120737923D01*
X114801770Y-120720862D01*
X114850627Y-120678133D01*
X114874465Y-120631155D01*
X114897397Y-120596522D01*
X114942318Y-120557081D01*
X114995123Y-120523009D01*
X115041710Y-120504480D01*
X115051452Y-120503462D01*
X115062418Y-120520215D01*
X115063079Y-120563039D01*
X115055020Y-120620781D01*
X115039827Y-120682289D01*
X115019086Y-120736409D01*
X115018038Y-120738510D01*
X114955621Y-120825660D01*
X114874726Y-120884939D01*
X114782856Y-120914034D01*
X114687513Y-120910634D01*
X114596198Y-120872428D01*
X114592138Y-120869741D01*
X114520306Y-120804642D01*
X114473073Y-120719705D01*
X114446934Y-120608021D01*
X114443426Y-120576643D01*
X114437213Y-120428536D01*
X114444661Y-120359468D01*
X114632154Y-120359468D01*
X114634590Y-120402552D01*
X114647914Y-120415126D01*
X114681132Y-120405719D01*
X114733494Y-120383483D01*
X114792024Y-120355610D01*
X114793479Y-120354872D01*
X114843089Y-120328777D01*
X114863000Y-120311363D01*
X114858090Y-120293107D01*
X114837416Y-120269120D01*
X114784819Y-120234406D01*
X114728177Y-120231856D01*
X114677369Y-120257119D01*
X114642276Y-120305847D01*
X114632154Y-120359468D01*
X114444661Y-120359468D01*
X114449992Y-120310036D01*
X114482778Y-120216055D01*
X114528421Y-120150215D01*
X114610802Y-120083681D01*
X114701546Y-120050676D01*
X114794185Y-120048573D01*
X114882254Y-120074745D01*
G36*
X113364886Y-120062256D02*
G01*
X113456464Y-120110409D01*
X113524049Y-120187905D01*
X113548057Y-120237727D01*
X113566738Y-120312533D01*
X113576301Y-120407052D01*
X113577208Y-120510210D01*
X113569921Y-120610935D01*
X113554903Y-120698153D01*
X113532615Y-120760791D01*
X113525765Y-120771579D01*
X113444632Y-120852105D01*
X113348266Y-120900336D01*
X113243701Y-120914450D01*
X113137968Y-120892629D01*
X113108543Y-120879547D01*
X113051241Y-120839231D01*
X113000950Y-120785775D01*
X112996197Y-120778995D01*
X112976878Y-120746321D01*
X112964108Y-120711394D01*
X112956564Y-120665414D01*
X112952924Y-120599584D01*
X112951865Y-120505105D01*
X112951846Y-120483923D01*
X112951894Y-120477182D01*
X113147231Y-120477182D01*
X113148368Y-120566349D01*
X113152841Y-120625520D01*
X113162246Y-120663741D01*
X113178176Y-120690053D01*
X113186308Y-120698846D01*
X113233058Y-120732261D01*
X113278447Y-120730737D01*
X113324340Y-120701752D01*
X113351712Y-120670809D01*
X113367923Y-120625643D01*
X113377026Y-120554420D01*
X113377651Y-120546114D01*
X113379204Y-120417037D01*
X113362965Y-120321172D01*
X113329152Y-120259107D01*
X113277984Y-120231432D01*
X113259720Y-120229923D01*
X113211760Y-120237513D01*
X113178953Y-120263808D01*
X113158895Y-120314095D01*
X113149178Y-120393664D01*
X113147231Y-120477182D01*
X112951894Y-120477182D01*
X112952574Y-120383249D01*
X112955629Y-120312906D01*
X112962322Y-120264163D01*
X112973960Y-120228288D01*
X112991853Y-120196548D01*
X112995808Y-120190648D01*
X113062267Y-120111104D01*
X113134685Y-120064929D01*
X113222849Y-120046599D01*
X113252787Y-120045703D01*
X113364886Y-120062256D01*
G37*
X113364886Y-120062256D02*
X113456464Y-120110409D01*
X113524049Y-120187905D01*
X113548057Y-120237727D01*
X113566738Y-120312533D01*
X113576301Y-120407052D01*
X113577208Y-120510210D01*
X113569921Y-120610935D01*
X113554903Y-120698153D01*
X113532615Y-120760791D01*
X113525765Y-120771579D01*
X113444632Y-120852105D01*
X113348266Y-120900336D01*
X113243701Y-120914450D01*
X113137968Y-120892629D01*
X113108543Y-120879547D01*
X113051241Y-120839231D01*
X113000950Y-120785775D01*
X112996197Y-120778995D01*
X112976878Y-120746321D01*
X112964108Y-120711394D01*
X112956564Y-120665414D01*
X112952924Y-120599584D01*
X112951865Y-120505105D01*
X112951846Y-120483923D01*
X112951894Y-120477182D01*
X113147231Y-120477182D01*
X113148368Y-120566349D01*
X113152841Y-120625520D01*
X113162246Y-120663741D01*
X113178176Y-120690053D01*
X113186308Y-120698846D01*
X113233058Y-120732261D01*
X113278447Y-120730737D01*
X113324340Y-120701752D01*
X113351712Y-120670809D01*
X113367923Y-120625643D01*
X113377026Y-120554420D01*
X113377651Y-120546114D01*
X113379204Y-120417037D01*
X113362965Y-120321172D01*
X113329152Y-120259107D01*
X113277984Y-120231432D01*
X113259720Y-120229923D01*
X113211760Y-120237513D01*
X113178953Y-120263808D01*
X113158895Y-120314095D01*
X113149178Y-120393664D01*
X113147231Y-120477182D01*
X112951894Y-120477182D01*
X112952574Y-120383249D01*
X112955629Y-120312906D01*
X112962322Y-120264163D01*
X112973960Y-120228288D01*
X112991853Y-120196548D01*
X112995808Y-120190648D01*
X113062267Y-120111104D01*
X113134685Y-120064929D01*
X113222849Y-120046599D01*
X113252787Y-120045703D01*
X113364886Y-120062256D01*
G36*
X115619664Y-120070089D02*
G01*
X115682367Y-120106358D01*
X115725961Y-120142358D01*
X115757845Y-120180075D01*
X115779810Y-120226199D01*
X115793649Y-120287421D01*
X115801153Y-120370431D01*
X115804117Y-120481919D01*
X115804461Y-120562062D01*
X115804461Y-120857065D01*
X115638385Y-120931515D01*
X115628615Y-120608402D01*
X115624579Y-120487729D01*
X115620344Y-120400141D01*
X115615097Y-120339650D01*
X115608025Y-120300268D01*
X115598311Y-120276007D01*
X115585144Y-120260880D01*
X115580919Y-120257606D01*
X115516909Y-120232034D01*
X115452208Y-120242153D01*
X115413692Y-120269000D01*
X115398025Y-120288024D01*
X115387180Y-120312988D01*
X115380288Y-120350834D01*
X115376479Y-120408502D01*
X115374883Y-120492935D01*
X115374615Y-120580928D01*
X115374563Y-120691323D01*
X115372672Y-120769463D01*
X115366345Y-120822165D01*
X115352983Y-120856242D01*
X115329985Y-120878511D01*
X115294754Y-120895787D01*
X115247697Y-120913738D01*
X115196303Y-120933278D01*
X115202421Y-120586485D01*
X115204884Y-120461468D01*
X115207767Y-120369082D01*
X115211898Y-120302881D01*
X115218107Y-120256420D01*
X115227226Y-120223256D01*
X115240083Y-120196944D01*
X115255584Y-120173729D01*
X115330371Y-120099569D01*
X115421628Y-120056684D01*
X115520883Y-120046412D01*
X115619664Y-120070089D01*
G37*
X115619664Y-120070089D02*
X115682367Y-120106358D01*
X115725961Y-120142358D01*
X115757845Y-120180075D01*
X115779810Y-120226199D01*
X115793649Y-120287421D01*
X115801153Y-120370431D01*
X115804117Y-120481919D01*
X115804461Y-120562062D01*
X115804461Y-120857065D01*
X115638385Y-120931515D01*
X115628615Y-120608402D01*
X115624579Y-120487729D01*
X115620344Y-120400141D01*
X115615097Y-120339650D01*
X115608025Y-120300268D01*
X115598311Y-120276007D01*
X115585144Y-120260880D01*
X115580919Y-120257606D01*
X115516909Y-120232034D01*
X115452208Y-120242153D01*
X115413692Y-120269000D01*
X115398025Y-120288024D01*
X115387180Y-120312988D01*
X115380288Y-120350834D01*
X115376479Y-120408502D01*
X115374883Y-120492935D01*
X115374615Y-120580928D01*
X115374563Y-120691323D01*
X115372672Y-120769463D01*
X115366345Y-120822165D01*
X115352983Y-120856242D01*
X115329985Y-120878511D01*
X115294754Y-120895787D01*
X115247697Y-120913738D01*
X115196303Y-120933278D01*
X115202421Y-120586485D01*
X115204884Y-120461468D01*
X115207767Y-120369082D01*
X115211898Y-120302881D01*
X115218107Y-120256420D01*
X115227226Y-120223256D01*
X115240083Y-120196944D01*
X115255584Y-120173729D01*
X115330371Y-120099569D01*
X115421628Y-120056684D01*
X115520883Y-120046412D01*
X115619664Y-120070089D01*
G36*
X114116886Y-120059505D02*
G01*
X114191539Y-120096727D01*
X114257431Y-120165261D01*
X114275577Y-120190648D01*
X114295345Y-120223866D01*
X114308172Y-120259945D01*
X114315510Y-120308098D01*
X114318813Y-120377536D01*
X114319538Y-120469206D01*
X114316263Y-120594830D01*
X114304877Y-120689154D01*
X114283041Y-120759523D01*
X114248419Y-120813286D01*
X114198670Y-120857788D01*
X114195014Y-120860423D01*
X114145985Y-120887377D01*
X114086945Y-120900712D01*
X114011859Y-120904000D01*
X113889795Y-120904000D01*
X113889744Y-121022497D01*
X113888608Y-121088492D01*
X113881686Y-121127202D01*
X113863598Y-121150419D01*
X113828962Y-121169933D01*
X113820645Y-121173920D01*
X113781720Y-121192603D01*
X113751583Y-121204403D01*
X113729174Y-121205422D01*
X113713433Y-121191761D01*
X113703302Y-121159522D01*
X113697723Y-121104804D01*
X113695635Y-121023711D01*
X113695981Y-120912344D01*
X113697700Y-120766802D01*
X113698237Y-120723269D01*
X113700172Y-120573205D01*
X113701904Y-120475042D01*
X113889692Y-120475042D01*
X113890748Y-120558364D01*
X113895438Y-120612880D01*
X113906051Y-120648837D01*
X113924872Y-120676482D01*
X113937650Y-120689965D01*
X113989890Y-120729417D01*
X114036142Y-120732628D01*
X114083867Y-120700049D01*
X114085077Y-120698846D01*
X114104494Y-120673668D01*
X114116307Y-120639447D01*
X114122265Y-120586748D01*
X114124120Y-120506131D01*
X114124154Y-120488271D01*
X114119670Y-120377175D01*
X114105074Y-120300161D01*
X114078650Y-120253147D01*
X114038683Y-120232050D01*
X114015584Y-120229923D01*
X113960762Y-120239900D01*
X113923158Y-120272752D01*
X113900523Y-120332857D01*
X113890606Y-120424598D01*
X113889692Y-120475042D01*
X113701904Y-120475042D01*
X113702222Y-120457060D01*
X113704873Y-120369679D01*
X113708606Y-120305905D01*
X113713907Y-120260582D01*
X113721258Y-120228555D01*
X113731143Y-120204668D01*
X113744046Y-120183764D01*
X113749579Y-120175898D01*
X113822969Y-120101595D01*
X113915760Y-120059467D01*
X114023096Y-120047722D01*
X114116886Y-120059505D01*
G37*
X114116886Y-120059505D02*
X114191539Y-120096727D01*
X114257431Y-120165261D01*
X114275577Y-120190648D01*
X114295345Y-120223866D01*
X114308172Y-120259945D01*
X114315510Y-120308098D01*
X114318813Y-120377536D01*
X114319538Y-120469206D01*
X114316263Y-120594830D01*
X114304877Y-120689154D01*
X114283041Y-120759523D01*
X114248419Y-120813286D01*
X114198670Y-120857788D01*
X114195014Y-120860423D01*
X114145985Y-120887377D01*
X114086945Y-120900712D01*
X114011859Y-120904000D01*
X113889795Y-120904000D01*
X113889744Y-121022497D01*
X113888608Y-121088492D01*
X113881686Y-121127202D01*
X113863598Y-121150419D01*
X113828962Y-121169933D01*
X113820645Y-121173920D01*
X113781720Y-121192603D01*
X113751583Y-121204403D01*
X113729174Y-121205422D01*
X113713433Y-121191761D01*
X113703302Y-121159522D01*
X113697723Y-121104804D01*
X113695635Y-121023711D01*
X113695981Y-120912344D01*
X113697700Y-120766802D01*
X113698237Y-120723269D01*
X113700172Y-120573205D01*
X113701904Y-120475042D01*
X113889692Y-120475042D01*
X113890748Y-120558364D01*
X113895438Y-120612880D01*
X113906051Y-120648837D01*
X113924872Y-120676482D01*
X113937650Y-120689965D01*
X113989890Y-120729417D01*
X114036142Y-120732628D01*
X114083867Y-120700049D01*
X114085077Y-120698846D01*
X114104494Y-120673668D01*
X114116307Y-120639447D01*
X114122265Y-120586748D01*
X114124120Y-120506131D01*
X114124154Y-120488271D01*
X114119670Y-120377175D01*
X114105074Y-120300161D01*
X114078650Y-120253147D01*
X114038683Y-120232050D01*
X114015584Y-120229923D01*
X113960762Y-120239900D01*
X113923158Y-120272752D01*
X113900523Y-120332857D01*
X113890606Y-120424598D01*
X113889692Y-120475042D01*
X113701904Y-120475042D01*
X113702222Y-120457060D01*
X113704873Y-120369679D01*
X113708606Y-120305905D01*
X113713907Y-120260582D01*
X113721258Y-120228555D01*
X113731143Y-120204668D01*
X113744046Y-120183764D01*
X113749579Y-120175898D01*
X113822969Y-120101595D01*
X113915760Y-120059467D01*
X114023096Y-120047722D01*
X114116886Y-120059505D01*
D11*
X128682761Y-118022619D02*
X128587523Y-117975000D01*
X128492285Y-117879761D01*
X128349428Y-117736904D01*
X128254190Y-117689285D01*
X128158952Y-117689285D01*
X128206571Y-117927380D02*
X128111333Y-117879761D01*
X128016095Y-117784523D01*
X127968476Y-117594047D01*
X127968476Y-117260714D01*
X128016095Y-117070238D01*
X128111333Y-116975000D01*
X128206571Y-116927380D01*
X128397047Y-116927380D01*
X128492285Y-116975000D01*
X128587523Y-117070238D01*
X128635142Y-117260714D01*
X128635142Y-117594047D01*
X128587523Y-117784523D01*
X128492285Y-117879761D01*
X128397047Y-117927380D01*
X128206571Y-117927380D01*
X129492285Y-117260714D02*
X129492285Y-117927380D01*
X129254190Y-116879761D02*
X129016095Y-117594047D01*
X129635142Y-117594047D01*
X147089904Y-121737380D02*
X147089904Y-120737380D01*
X147470857Y-120737380D01*
X147566095Y-120785000D01*
X147613714Y-120832619D01*
X147661333Y-120927857D01*
X147661333Y-121070714D01*
X147613714Y-121165952D01*
X147566095Y-121213571D01*
X147470857Y-121261190D01*
X147089904Y-121261190D01*
X148613714Y-121737380D02*
X148042285Y-121737380D01*
X148328000Y-121737380D02*
X148328000Y-120737380D01*
X148232761Y-120880238D01*
X148137523Y-120975476D01*
X148042285Y-121023095D01*
X167663904Y-121737380D02*
X167663904Y-120737380D01*
X168044857Y-120737380D01*
X168140095Y-120785000D01*
X168187714Y-120832619D01*
X168235333Y-120927857D01*
X168235333Y-121070714D01*
X168187714Y-121165952D01*
X168140095Y-121213571D01*
X168044857Y-121261190D01*
X167663904Y-121261190D01*
X168616285Y-120832619D02*
X168663904Y-120785000D01*
X168759142Y-120737380D01*
X168997238Y-120737380D01*
X169092476Y-120785000D01*
X169140095Y-120832619D01*
X169187714Y-120927857D01*
X169187714Y-121023095D01*
X169140095Y-121165952D01*
X168568666Y-121737380D01*
X169187714Y-121737380D01*
X140485904Y-78811380D02*
X140485904Y-77811380D01*
X140866857Y-77811380D01*
X140962095Y-77859000D01*
X141009714Y-77906619D01*
X141057333Y-78001857D01*
X141057333Y-78144714D01*
X141009714Y-78239952D01*
X140962095Y-78287571D01*
X140866857Y-78335190D01*
X140485904Y-78335190D01*
X141390666Y-77811380D02*
X142009714Y-77811380D01*
X141676380Y-78192333D01*
X141819238Y-78192333D01*
X141914476Y-78239952D01*
X141962095Y-78287571D01*
X142009714Y-78382809D01*
X142009714Y-78620904D01*
X141962095Y-78716142D01*
X141914476Y-78763761D01*
X141819238Y-78811380D01*
X141533523Y-78811380D01*
X141438285Y-78763761D01*
X141390666Y-78716142D01*
X164869904Y-78811380D02*
X164869904Y-77811380D01*
X165250857Y-77811380D01*
X165346095Y-77859000D01*
X165393714Y-77906619D01*
X165441333Y-78001857D01*
X165441333Y-78144714D01*
X165393714Y-78239952D01*
X165346095Y-78287571D01*
X165250857Y-78335190D01*
X164869904Y-78335190D01*
X166298476Y-78144714D02*
X166298476Y-78811380D01*
X166060380Y-77763761D02*
X165822285Y-78478047D01*
X166441333Y-78478047D01*
X112799904Y-115407380D02*
X112799904Y-114407380D01*
X113180857Y-114407380D01*
X113276095Y-114455000D01*
X113323714Y-114502619D01*
X113371333Y-114597857D01*
X113371333Y-114740714D01*
X113323714Y-114835952D01*
X113276095Y-114883571D01*
X113180857Y-114931190D01*
X112799904Y-114931190D01*
X113847523Y-115407380D02*
X114038000Y-115407380D01*
X114133238Y-115359761D01*
X114180857Y-115312142D01*
X114276095Y-115169285D01*
X114323714Y-114978809D01*
X114323714Y-114597857D01*
X114276095Y-114502619D01*
X114228476Y-114455000D01*
X114133238Y-114407380D01*
X113942761Y-114407380D01*
X113847523Y-114455000D01*
X113799904Y-114502619D01*
X113752285Y-114597857D01*
X113752285Y-114835952D01*
X113799904Y-114931190D01*
X113847523Y-114978809D01*
X113942761Y-115026428D01*
X114133238Y-115026428D01*
X114228476Y-114978809D01*
X114276095Y-114931190D01*
X114323714Y-114835952D01*
X115911333Y-74652142D02*
X115863714Y-74699761D01*
X115720857Y-74747380D01*
X115625619Y-74747380D01*
X115482761Y-74699761D01*
X115387523Y-74604523D01*
X115339904Y-74509285D01*
X115292285Y-74318809D01*
X115292285Y-74175952D01*
X115339904Y-73985476D01*
X115387523Y-73890238D01*
X115482761Y-73795000D01*
X115625619Y-73747380D01*
X115720857Y-73747380D01*
X115863714Y-73795000D01*
X115911333Y-73842619D01*
X116863714Y-74747380D02*
X116292285Y-74747380D01*
X116578000Y-74747380D02*
X116578000Y-73747380D01*
X116482761Y-73890238D01*
X116387523Y-73985476D01*
X116292285Y-74033095D01*
X113831809Y-83637380D02*
X113831809Y-82637380D01*
X114879428Y-83542142D02*
X114831809Y-83589761D01*
X114688952Y-83637380D01*
X114593714Y-83637380D01*
X114450857Y-83589761D01*
X114355619Y-83494523D01*
X114308000Y-83399285D01*
X114260380Y-83208809D01*
X114260380Y-83065952D01*
X114308000Y-82875476D01*
X114355619Y-82780238D01*
X114450857Y-82685000D01*
X114593714Y-82637380D01*
X114688952Y-82637380D01*
X114831809Y-82685000D01*
X114879428Y-82732619D01*
X115831809Y-83637380D02*
X115260380Y-83637380D01*
X115546095Y-83637380D02*
X115546095Y-82637380D01*
X115450857Y-82780238D01*
X115355619Y-82875476D01*
X115260380Y-82923095D01*
X119230380Y-85097857D02*
X118754190Y-85431190D01*
X119230380Y-85669285D02*
X118230380Y-85669285D01*
X118230380Y-85288333D01*
X118278000Y-85193095D01*
X118325619Y-85145476D01*
X118420857Y-85097857D01*
X118563714Y-85097857D01*
X118658952Y-85145476D01*
X118706571Y-85193095D01*
X118754190Y-85288333D01*
X118754190Y-85669285D01*
X119230380Y-84145476D02*
X119230380Y-84716904D01*
X119230380Y-84431190D02*
X118230380Y-84431190D01*
X118373238Y-84526428D01*
X118468476Y-84621666D01*
X118516095Y-84716904D01*
X119230380Y-83669285D02*
X119230380Y-83478809D01*
X119182761Y-83383571D01*
X119135142Y-83335952D01*
X118992285Y-83240714D01*
X118801809Y-83193095D01*
X118420857Y-83193095D01*
X118325619Y-83240714D01*
X118278000Y-83288333D01*
X118230380Y-83383571D01*
X118230380Y-83574047D01*
X118278000Y-83669285D01*
X118325619Y-83716904D01*
X118420857Y-83764523D01*
X118658952Y-83764523D01*
X118754190Y-83716904D01*
X118801809Y-83669285D01*
X118849428Y-83574047D01*
X118849428Y-83383571D01*
X118801809Y-83288333D01*
X118754190Y-83240714D01*
X118658952Y-83193095D01*
X121785142Y-75382380D02*
X121451809Y-74906190D01*
X121213714Y-75382380D02*
X121213714Y-74382380D01*
X121594666Y-74382380D01*
X121689904Y-74430000D01*
X121737523Y-74477619D01*
X121785142Y-74572857D01*
X121785142Y-74715714D01*
X121737523Y-74810952D01*
X121689904Y-74858571D01*
X121594666Y-74906190D01*
X121213714Y-74906190D01*
X122166095Y-74477619D02*
X122213714Y-74430000D01*
X122308952Y-74382380D01*
X122547047Y-74382380D01*
X122642285Y-74430000D01*
X122689904Y-74477619D01*
X122737523Y-74572857D01*
X122737523Y-74668095D01*
X122689904Y-74810952D01*
X122118476Y-75382380D01*
X122737523Y-75382380D01*
X123356571Y-74382380D02*
X123451809Y-74382380D01*
X123547047Y-74430000D01*
X123594666Y-74477619D01*
X123642285Y-74572857D01*
X123689904Y-74763333D01*
X123689904Y-75001428D01*
X123642285Y-75191904D01*
X123594666Y-75287142D01*
X123547047Y-75334761D01*
X123451809Y-75382380D01*
X123356571Y-75382380D01*
X123261333Y-75334761D01*
X123213714Y-75287142D01*
X123166095Y-75191904D01*
X123118476Y-75001428D01*
X123118476Y-74763333D01*
X123166095Y-74572857D01*
X123213714Y-74477619D01*
X123261333Y-74430000D01*
X123356571Y-74382380D01*
X181089666Y-93067380D02*
X181089666Y-93781666D01*
X181042047Y-93924523D01*
X180946809Y-94019761D01*
X180803952Y-94067380D01*
X180708714Y-94067380D01*
X182089666Y-94067380D02*
X181518238Y-94067380D01*
X181803952Y-94067380D02*
X181803952Y-93067380D01*
X181708714Y-93210238D01*
X181613476Y-93305476D01*
X181518238Y-93353095D01*
X168600380Y-118213095D02*
X167600380Y-118213095D01*
X167600380Y-117975000D01*
X167648000Y-117832142D01*
X167743238Y-117736904D01*
X167838476Y-117689285D01*
X168028952Y-117641666D01*
X168171809Y-117641666D01*
X168362285Y-117689285D01*
X168457523Y-117736904D01*
X168552761Y-117832142D01*
X168600380Y-117975000D01*
X168600380Y-118213095D01*
X168600380Y-116689285D02*
X168600380Y-117260714D01*
X168600380Y-116975000D02*
X167600380Y-116975000D01*
X167743238Y-117070238D01*
X167838476Y-117165476D01*
X167886095Y-117260714D01*
X171140380Y-118213095D02*
X170140380Y-118213095D01*
X170140380Y-117975000D01*
X170188000Y-117832142D01*
X170283238Y-117736904D01*
X170378476Y-117689285D01*
X170568952Y-117641666D01*
X170711809Y-117641666D01*
X170902285Y-117689285D01*
X170997523Y-117736904D01*
X171092761Y-117832142D01*
X171140380Y-117975000D01*
X171140380Y-118213095D01*
X170235619Y-117260714D02*
X170188000Y-117213095D01*
X170140380Y-117117857D01*
X170140380Y-116879761D01*
X170188000Y-116784523D01*
X170235619Y-116736904D01*
X170330857Y-116689285D01*
X170426095Y-116689285D01*
X170568952Y-116736904D01*
X171140380Y-117308333D01*
X171140380Y-116689285D01*
X173680380Y-118213095D02*
X172680380Y-118213095D01*
X172680380Y-117975000D01*
X172728000Y-117832142D01*
X172823238Y-117736904D01*
X172918476Y-117689285D01*
X173108952Y-117641666D01*
X173251809Y-117641666D01*
X173442285Y-117689285D01*
X173537523Y-117736904D01*
X173632761Y-117832142D01*
X173680380Y-117975000D01*
X173680380Y-118213095D01*
X172680380Y-117308333D02*
X172680380Y-116689285D01*
X173061333Y-117022619D01*
X173061333Y-116879761D01*
X173108952Y-116784523D01*
X173156571Y-116736904D01*
X173251809Y-116689285D01*
X173489904Y-116689285D01*
X173585142Y-116736904D01*
X173632761Y-116784523D01*
X173680380Y-116879761D01*
X173680380Y-117165476D01*
X173632761Y-117260714D01*
X173585142Y-117308333D01*
X177744380Y-114403095D02*
X176744380Y-114403095D01*
X176744380Y-114165000D01*
X176792000Y-114022142D01*
X176887238Y-113926904D01*
X176982476Y-113879285D01*
X177172952Y-113831666D01*
X177315809Y-113831666D01*
X177506285Y-113879285D01*
X177601523Y-113926904D01*
X177696761Y-114022142D01*
X177744380Y-114165000D01*
X177744380Y-114403095D01*
X177077714Y-112974523D02*
X177744380Y-112974523D01*
X176696761Y-113212619D02*
X177411047Y-113450714D01*
X177411047Y-112831666D01*
X168600380Y-106687857D02*
X168124190Y-107021190D01*
X168600380Y-107259285D02*
X167600380Y-107259285D01*
X167600380Y-106878333D01*
X167648000Y-106783095D01*
X167695619Y-106735476D01*
X167790857Y-106687857D01*
X167933714Y-106687857D01*
X168028952Y-106735476D01*
X168076571Y-106783095D01*
X168124190Y-106878333D01*
X168124190Y-107259285D01*
X167695619Y-106306904D02*
X167648000Y-106259285D01*
X167600380Y-106164047D01*
X167600380Y-105925952D01*
X167648000Y-105830714D01*
X167695619Y-105783095D01*
X167790857Y-105735476D01*
X167886095Y-105735476D01*
X168028952Y-105783095D01*
X168600380Y-106354523D01*
X168600380Y-105735476D01*
X168600380Y-104783095D02*
X168600380Y-105354523D01*
X168600380Y-105068809D02*
X167600380Y-105068809D01*
X167743238Y-105164047D01*
X167838476Y-105259285D01*
X167886095Y-105354523D01*
X171140380Y-106687857D02*
X170664190Y-107021190D01*
X171140380Y-107259285D02*
X170140380Y-107259285D01*
X170140380Y-106878333D01*
X170188000Y-106783095D01*
X170235619Y-106735476D01*
X170330857Y-106687857D01*
X170473714Y-106687857D01*
X170568952Y-106735476D01*
X170616571Y-106783095D01*
X170664190Y-106878333D01*
X170664190Y-107259285D01*
X170235619Y-106306904D02*
X170188000Y-106259285D01*
X170140380Y-106164047D01*
X170140380Y-105925952D01*
X170188000Y-105830714D01*
X170235619Y-105783095D01*
X170330857Y-105735476D01*
X170426095Y-105735476D01*
X170568952Y-105783095D01*
X171140380Y-106354523D01*
X171140380Y-105735476D01*
X170235619Y-105354523D02*
X170188000Y-105306904D01*
X170140380Y-105211666D01*
X170140380Y-104973571D01*
X170188000Y-104878333D01*
X170235619Y-104830714D01*
X170330857Y-104783095D01*
X170426095Y-104783095D01*
X170568952Y-104830714D01*
X171140380Y-105402142D01*
X171140380Y-104783095D01*
X173680380Y-106687857D02*
X173204190Y-107021190D01*
X173680380Y-107259285D02*
X172680380Y-107259285D01*
X172680380Y-106878333D01*
X172728000Y-106783095D01*
X172775619Y-106735476D01*
X172870857Y-106687857D01*
X173013714Y-106687857D01*
X173108952Y-106735476D01*
X173156571Y-106783095D01*
X173204190Y-106878333D01*
X173204190Y-107259285D01*
X172775619Y-106306904D02*
X172728000Y-106259285D01*
X172680380Y-106164047D01*
X172680380Y-105925952D01*
X172728000Y-105830714D01*
X172775619Y-105783095D01*
X172870857Y-105735476D01*
X172966095Y-105735476D01*
X173108952Y-105783095D01*
X173680380Y-106354523D01*
X173680380Y-105735476D01*
X172680380Y-105402142D02*
X172680380Y-104783095D01*
X173061333Y-105116428D01*
X173061333Y-104973571D01*
X173108952Y-104878333D01*
X173156571Y-104830714D01*
X173251809Y-104783095D01*
X173489904Y-104783095D01*
X173585142Y-104830714D01*
X173632761Y-104878333D01*
X173680380Y-104973571D01*
X173680380Y-105259285D01*
X173632761Y-105354523D01*
X173585142Y-105402142D01*
X176220380Y-106687857D02*
X175744190Y-107021190D01*
X176220380Y-107259285D02*
X175220380Y-107259285D01*
X175220380Y-106878333D01*
X175268000Y-106783095D01*
X175315619Y-106735476D01*
X175410857Y-106687857D01*
X175553714Y-106687857D01*
X175648952Y-106735476D01*
X175696571Y-106783095D01*
X175744190Y-106878333D01*
X175744190Y-107259285D01*
X175315619Y-106306904D02*
X175268000Y-106259285D01*
X175220380Y-106164047D01*
X175220380Y-105925952D01*
X175268000Y-105830714D01*
X175315619Y-105783095D01*
X175410857Y-105735476D01*
X175506095Y-105735476D01*
X175648952Y-105783095D01*
X176220380Y-106354523D01*
X176220380Y-105735476D01*
X175553714Y-104878333D02*
X176220380Y-104878333D01*
X175172761Y-105116428D02*
X175887047Y-105354523D01*
X175887047Y-104735476D01*
X123531333Y-88877380D02*
X123198000Y-88401190D01*
X122959904Y-88877380D02*
X122959904Y-87877380D01*
X123340857Y-87877380D01*
X123436095Y-87925000D01*
X123483714Y-87972619D01*
X123531333Y-88067857D01*
X123531333Y-88210714D01*
X123483714Y-88305952D01*
X123436095Y-88353571D01*
X123340857Y-88401190D01*
X122959904Y-88401190D01*
X124483714Y-88877380D02*
X123912285Y-88877380D01*
X124198000Y-88877380D02*
X124198000Y-87877380D01*
X124102761Y-88020238D01*
X124007523Y-88115476D01*
X123912285Y-88163095D01*
X123531333Y-91417380D02*
X123198000Y-90941190D01*
X122959904Y-91417380D02*
X122959904Y-90417380D01*
X123340857Y-90417380D01*
X123436095Y-90465000D01*
X123483714Y-90512619D01*
X123531333Y-90607857D01*
X123531333Y-90750714D01*
X123483714Y-90845952D01*
X123436095Y-90893571D01*
X123340857Y-90941190D01*
X122959904Y-90941190D01*
X123912285Y-90512619D02*
X123959904Y-90465000D01*
X124055142Y-90417380D01*
X124293238Y-90417380D01*
X124388476Y-90465000D01*
X124436095Y-90512619D01*
X124483714Y-90607857D01*
X124483714Y-90703095D01*
X124436095Y-90845952D01*
X123864666Y-91417380D01*
X124483714Y-91417380D01*
X123531333Y-93957380D02*
X123198000Y-93481190D01*
X122959904Y-93957380D02*
X122959904Y-92957380D01*
X123340857Y-92957380D01*
X123436095Y-93005000D01*
X123483714Y-93052619D01*
X123531333Y-93147857D01*
X123531333Y-93290714D01*
X123483714Y-93385952D01*
X123436095Y-93433571D01*
X123340857Y-93481190D01*
X122959904Y-93481190D01*
X123864666Y-92957380D02*
X124483714Y-92957380D01*
X124150380Y-93338333D01*
X124293238Y-93338333D01*
X124388476Y-93385952D01*
X124436095Y-93433571D01*
X124483714Y-93528809D01*
X124483714Y-93766904D01*
X124436095Y-93862142D01*
X124388476Y-93909761D01*
X124293238Y-93957380D01*
X124007523Y-93957380D01*
X123912285Y-93909761D01*
X123864666Y-93862142D01*
X123531333Y-96497380D02*
X123198000Y-96021190D01*
X122959904Y-96497380D02*
X122959904Y-95497380D01*
X123340857Y-95497380D01*
X123436095Y-95545000D01*
X123483714Y-95592619D01*
X123531333Y-95687857D01*
X123531333Y-95830714D01*
X123483714Y-95925952D01*
X123436095Y-95973571D01*
X123340857Y-96021190D01*
X122959904Y-96021190D01*
X124388476Y-95830714D02*
X124388476Y-96497380D01*
X124150380Y-95449761D02*
X123912285Y-96164047D01*
X124531333Y-96164047D01*
X123531333Y-99037380D02*
X123198000Y-98561190D01*
X122959904Y-99037380D02*
X122959904Y-98037380D01*
X123340857Y-98037380D01*
X123436095Y-98085000D01*
X123483714Y-98132619D01*
X123531333Y-98227857D01*
X123531333Y-98370714D01*
X123483714Y-98465952D01*
X123436095Y-98513571D01*
X123340857Y-98561190D01*
X122959904Y-98561190D01*
X124436095Y-98037380D02*
X123959904Y-98037380D01*
X123912285Y-98513571D01*
X123959904Y-98465952D01*
X124055142Y-98418333D01*
X124293238Y-98418333D01*
X124388476Y-98465952D01*
X124436095Y-98513571D01*
X124483714Y-98608809D01*
X124483714Y-98846904D01*
X124436095Y-98942142D01*
X124388476Y-98989761D01*
X124293238Y-99037380D01*
X124055142Y-99037380D01*
X123959904Y-98989761D01*
X123912285Y-98942142D01*
X123531333Y-101577380D02*
X123198000Y-101101190D01*
X122959904Y-101577380D02*
X122959904Y-100577380D01*
X123340857Y-100577380D01*
X123436095Y-100625000D01*
X123483714Y-100672619D01*
X123531333Y-100767857D01*
X123531333Y-100910714D01*
X123483714Y-101005952D01*
X123436095Y-101053571D01*
X123340857Y-101101190D01*
X122959904Y-101101190D01*
X124388476Y-100577380D02*
X124198000Y-100577380D01*
X124102761Y-100625000D01*
X124055142Y-100672619D01*
X123959904Y-100815476D01*
X123912285Y-101005952D01*
X123912285Y-101386904D01*
X123959904Y-101482142D01*
X124007523Y-101529761D01*
X124102761Y-101577380D01*
X124293238Y-101577380D01*
X124388476Y-101529761D01*
X124436095Y-101482142D01*
X124483714Y-101386904D01*
X124483714Y-101148809D01*
X124436095Y-101053571D01*
X124388476Y-101005952D01*
X124293238Y-100958333D01*
X124102761Y-100958333D01*
X124007523Y-101005952D01*
X123959904Y-101053571D01*
X123912285Y-101148809D01*
X123531333Y-104117380D02*
X123198000Y-103641190D01*
X122959904Y-104117380D02*
X122959904Y-103117380D01*
X123340857Y-103117380D01*
X123436095Y-103165000D01*
X123483714Y-103212619D01*
X123531333Y-103307857D01*
X123531333Y-103450714D01*
X123483714Y-103545952D01*
X123436095Y-103593571D01*
X123340857Y-103641190D01*
X122959904Y-103641190D01*
X123864666Y-103117380D02*
X124531333Y-103117380D01*
X124102761Y-104117380D01*
X123531333Y-106657380D02*
X123198000Y-106181190D01*
X122959904Y-106657380D02*
X122959904Y-105657380D01*
X123340857Y-105657380D01*
X123436095Y-105705000D01*
X123483714Y-105752619D01*
X123531333Y-105847857D01*
X123531333Y-105990714D01*
X123483714Y-106085952D01*
X123436095Y-106133571D01*
X123340857Y-106181190D01*
X122959904Y-106181190D01*
X124102761Y-106085952D02*
X124007523Y-106038333D01*
X123959904Y-105990714D01*
X123912285Y-105895476D01*
X123912285Y-105847857D01*
X123959904Y-105752619D01*
X124007523Y-105705000D01*
X124102761Y-105657380D01*
X124293238Y-105657380D01*
X124388476Y-105705000D01*
X124436095Y-105752619D01*
X124483714Y-105847857D01*
X124483714Y-105895476D01*
X124436095Y-105990714D01*
X124388476Y-106038333D01*
X124293238Y-106085952D01*
X124102761Y-106085952D01*
X124007523Y-106133571D01*
X123959904Y-106181190D01*
X123912285Y-106276428D01*
X123912285Y-106466904D01*
X123959904Y-106562142D01*
X124007523Y-106609761D01*
X124102761Y-106657380D01*
X124293238Y-106657380D01*
X124388476Y-106609761D01*
X124436095Y-106562142D01*
X124483714Y-106466904D01*
X124483714Y-106276428D01*
X124436095Y-106181190D01*
X124388476Y-106133571D01*
X124293238Y-106085952D01*
X123531333Y-109197380D02*
X123198000Y-108721190D01*
X122959904Y-109197380D02*
X122959904Y-108197380D01*
X123340857Y-108197380D01*
X123436095Y-108245000D01*
X123483714Y-108292619D01*
X123531333Y-108387857D01*
X123531333Y-108530714D01*
X123483714Y-108625952D01*
X123436095Y-108673571D01*
X123340857Y-108721190D01*
X122959904Y-108721190D01*
X124007523Y-109197380D02*
X124198000Y-109197380D01*
X124293238Y-109149761D01*
X124340857Y-109102142D01*
X124436095Y-108959285D01*
X124483714Y-108768809D01*
X124483714Y-108387857D01*
X124436095Y-108292619D01*
X124388476Y-108245000D01*
X124293238Y-108197380D01*
X124102761Y-108197380D01*
X124007523Y-108245000D01*
X123959904Y-108292619D01*
X123912285Y-108387857D01*
X123912285Y-108625952D01*
X123959904Y-108721190D01*
X124007523Y-108768809D01*
X124102761Y-108816428D01*
X124293238Y-108816428D01*
X124388476Y-108768809D01*
X124436095Y-108721190D01*
X124483714Y-108625952D01*
X123055142Y-111737380D02*
X122721809Y-111261190D01*
X122483714Y-111737380D02*
X122483714Y-110737380D01*
X122864666Y-110737380D01*
X122959904Y-110785000D01*
X123007523Y-110832619D01*
X123055142Y-110927857D01*
X123055142Y-111070714D01*
X123007523Y-111165952D01*
X122959904Y-111213571D01*
X122864666Y-111261190D01*
X122483714Y-111261190D01*
X124007523Y-111737380D02*
X123436095Y-111737380D01*
X123721809Y-111737380D02*
X123721809Y-110737380D01*
X123626571Y-110880238D01*
X123531333Y-110975476D01*
X123436095Y-111023095D01*
X124626571Y-110737380D02*
X124721809Y-110737380D01*
X124817047Y-110785000D01*
X124864666Y-110832619D01*
X124912285Y-110927857D01*
X124959904Y-111118333D01*
X124959904Y-111356428D01*
X124912285Y-111546904D01*
X124864666Y-111642142D01*
X124817047Y-111689761D01*
X124721809Y-111737380D01*
X124626571Y-111737380D01*
X124531333Y-111689761D01*
X124483714Y-111642142D01*
X124436095Y-111546904D01*
X124388476Y-111356428D01*
X124388476Y-111118333D01*
X124436095Y-110927857D01*
X124483714Y-110832619D01*
X124531333Y-110785000D01*
X124626571Y-110737380D01*
X153535142Y-96337380D02*
X153201809Y-95861190D01*
X152963714Y-96337380D02*
X152963714Y-95337380D01*
X153344666Y-95337380D01*
X153439904Y-95385000D01*
X153487523Y-95432619D01*
X153535142Y-95527857D01*
X153535142Y-95670714D01*
X153487523Y-95765952D01*
X153439904Y-95813571D01*
X153344666Y-95861190D01*
X152963714Y-95861190D01*
X154487523Y-96337380D02*
X153916095Y-96337380D01*
X154201809Y-96337380D02*
X154201809Y-95337380D01*
X154106571Y-95480238D01*
X154011333Y-95575476D01*
X153916095Y-95623095D01*
X155392285Y-95337380D02*
X154916095Y-95337380D01*
X154868476Y-95813571D01*
X154916095Y-95765952D01*
X155011333Y-95718333D01*
X155249428Y-95718333D01*
X155344666Y-95765952D01*
X155392285Y-95813571D01*
X155439904Y-95908809D01*
X155439904Y-96146904D01*
X155392285Y-96242142D01*
X155344666Y-96289761D01*
X155249428Y-96337380D01*
X155011333Y-96337380D01*
X154916095Y-96289761D01*
X154868476Y-96242142D01*
X153535142Y-101417380D02*
X153201809Y-100941190D01*
X152963714Y-101417380D02*
X152963714Y-100417380D01*
X153344666Y-100417380D01*
X153439904Y-100465000D01*
X153487523Y-100512619D01*
X153535142Y-100607857D01*
X153535142Y-100750714D01*
X153487523Y-100845952D01*
X153439904Y-100893571D01*
X153344666Y-100941190D01*
X152963714Y-100941190D01*
X154487523Y-101417380D02*
X153916095Y-101417380D01*
X154201809Y-101417380D02*
X154201809Y-100417380D01*
X154106571Y-100560238D01*
X154011333Y-100655476D01*
X153916095Y-100703095D01*
X155344666Y-100417380D02*
X155154190Y-100417380D01*
X155058952Y-100465000D01*
X155011333Y-100512619D01*
X154916095Y-100655476D01*
X154868476Y-100845952D01*
X154868476Y-101226904D01*
X154916095Y-101322142D01*
X154963714Y-101369761D01*
X155058952Y-101417380D01*
X155249428Y-101417380D01*
X155344666Y-101369761D01*
X155392285Y-101322142D01*
X155439904Y-101226904D01*
X155439904Y-100988809D01*
X155392285Y-100893571D01*
X155344666Y-100845952D01*
X155249428Y-100798333D01*
X155058952Y-100798333D01*
X154963714Y-100845952D01*
X154916095Y-100893571D01*
X154868476Y-100988809D01*
X145915142Y-96337380D02*
X145581809Y-95861190D01*
X145343714Y-96337380D02*
X145343714Y-95337380D01*
X145724666Y-95337380D01*
X145819904Y-95385000D01*
X145867523Y-95432619D01*
X145915142Y-95527857D01*
X145915142Y-95670714D01*
X145867523Y-95765952D01*
X145819904Y-95813571D01*
X145724666Y-95861190D01*
X145343714Y-95861190D01*
X146867523Y-96337380D02*
X146296095Y-96337380D01*
X146581809Y-96337380D02*
X146581809Y-95337380D01*
X146486571Y-95480238D01*
X146391333Y-95575476D01*
X146296095Y-95623095D01*
X147200857Y-95337380D02*
X147867523Y-95337380D01*
X147438952Y-96337380D01*
X145915142Y-101417380D02*
X145581809Y-100941190D01*
X145343714Y-101417380D02*
X145343714Y-100417380D01*
X145724666Y-100417380D01*
X145819904Y-100465000D01*
X145867523Y-100512619D01*
X145915142Y-100607857D01*
X145915142Y-100750714D01*
X145867523Y-100845952D01*
X145819904Y-100893571D01*
X145724666Y-100941190D01*
X145343714Y-100941190D01*
X146867523Y-101417380D02*
X146296095Y-101417380D01*
X146581809Y-101417380D02*
X146581809Y-100417380D01*
X146486571Y-100560238D01*
X146391333Y-100655476D01*
X146296095Y-100703095D01*
X147438952Y-100845952D02*
X147343714Y-100798333D01*
X147296095Y-100750714D01*
X147248476Y-100655476D01*
X147248476Y-100607857D01*
X147296095Y-100512619D01*
X147343714Y-100465000D01*
X147438952Y-100417380D01*
X147629428Y-100417380D01*
X147724666Y-100465000D01*
X147772285Y-100512619D01*
X147819904Y-100607857D01*
X147819904Y-100655476D01*
X147772285Y-100750714D01*
X147724666Y-100798333D01*
X147629428Y-100845952D01*
X147438952Y-100845952D01*
X147343714Y-100893571D01*
X147296095Y-100941190D01*
X147248476Y-101036428D01*
X147248476Y-101226904D01*
X147296095Y-101322142D01*
X147343714Y-101369761D01*
X147438952Y-101417380D01*
X147629428Y-101417380D01*
X147724666Y-101369761D01*
X147772285Y-101322142D01*
X147819904Y-101226904D01*
X147819904Y-101036428D01*
X147772285Y-100941190D01*
X147724666Y-100893571D01*
X147629428Y-100845952D01*
X126850380Y-82557857D02*
X126374190Y-82891190D01*
X126850380Y-83129285D02*
X125850380Y-83129285D01*
X125850380Y-82748333D01*
X125898000Y-82653095D01*
X125945619Y-82605476D01*
X126040857Y-82557857D01*
X126183714Y-82557857D01*
X126278952Y-82605476D01*
X126326571Y-82653095D01*
X126374190Y-82748333D01*
X126374190Y-83129285D01*
X125945619Y-82176904D02*
X125898000Y-82129285D01*
X125850380Y-82034047D01*
X125850380Y-81795952D01*
X125898000Y-81700714D01*
X125945619Y-81653095D01*
X126040857Y-81605476D01*
X126136095Y-81605476D01*
X126278952Y-81653095D01*
X126850380Y-82224523D01*
X126850380Y-81605476D01*
X125850380Y-81272142D02*
X125850380Y-80605476D01*
X126850380Y-81034047D01*
X129390380Y-82557857D02*
X128914190Y-82891190D01*
X129390380Y-83129285D02*
X128390380Y-83129285D01*
X128390380Y-82748333D01*
X128438000Y-82653095D01*
X128485619Y-82605476D01*
X128580857Y-82557857D01*
X128723714Y-82557857D01*
X128818952Y-82605476D01*
X128866571Y-82653095D01*
X128914190Y-82748333D01*
X128914190Y-83129285D01*
X128485619Y-82176904D02*
X128438000Y-82129285D01*
X128390380Y-82034047D01*
X128390380Y-81795952D01*
X128438000Y-81700714D01*
X128485619Y-81653095D01*
X128580857Y-81605476D01*
X128676095Y-81605476D01*
X128818952Y-81653095D01*
X129390380Y-82224523D01*
X129390380Y-81605476D01*
X128818952Y-81034047D02*
X128771333Y-81129285D01*
X128723714Y-81176904D01*
X128628476Y-81224523D01*
X128580857Y-81224523D01*
X128485619Y-81176904D01*
X128438000Y-81129285D01*
X128390380Y-81034047D01*
X128390380Y-80843571D01*
X128438000Y-80748333D01*
X128485619Y-80700714D01*
X128580857Y-80653095D01*
X128628476Y-80653095D01*
X128723714Y-80700714D01*
X128771333Y-80748333D01*
X128818952Y-80843571D01*
X128818952Y-81034047D01*
X128866571Y-81129285D01*
X128914190Y-81176904D01*
X129009428Y-81224523D01*
X129199904Y-81224523D01*
X129295142Y-81176904D01*
X129342761Y-81129285D01*
X129390380Y-81034047D01*
X129390380Y-80843571D01*
X129342761Y-80748333D01*
X129295142Y-80700714D01*
X129199904Y-80653095D01*
X129009428Y-80653095D01*
X128914190Y-80700714D01*
X128866571Y-80748333D01*
X128818952Y-80843571D01*
X131930380Y-82557857D02*
X131454190Y-82891190D01*
X131930380Y-83129285D02*
X130930380Y-83129285D01*
X130930380Y-82748333D01*
X130978000Y-82653095D01*
X131025619Y-82605476D01*
X131120857Y-82557857D01*
X131263714Y-82557857D01*
X131358952Y-82605476D01*
X131406571Y-82653095D01*
X131454190Y-82748333D01*
X131454190Y-83129285D01*
X131025619Y-82176904D02*
X130978000Y-82129285D01*
X130930380Y-82034047D01*
X130930380Y-81795952D01*
X130978000Y-81700714D01*
X131025619Y-81653095D01*
X131120857Y-81605476D01*
X131216095Y-81605476D01*
X131358952Y-81653095D01*
X131930380Y-82224523D01*
X131930380Y-81605476D01*
X131930380Y-81129285D02*
X131930380Y-80938809D01*
X131882761Y-80843571D01*
X131835142Y-80795952D01*
X131692285Y-80700714D01*
X131501809Y-80653095D01*
X131120857Y-80653095D01*
X131025619Y-80700714D01*
X130978000Y-80748333D01*
X130930380Y-80843571D01*
X130930380Y-81034047D01*
X130978000Y-81129285D01*
X131025619Y-81176904D01*
X131120857Y-81224523D01*
X131358952Y-81224523D01*
X131454190Y-81176904D01*
X131501809Y-81129285D01*
X131549428Y-81034047D01*
X131549428Y-80843571D01*
X131501809Y-80748333D01*
X131454190Y-80700714D01*
X131358952Y-80653095D01*
X134470380Y-82557857D02*
X133994190Y-82891190D01*
X134470380Y-83129285D02*
X133470380Y-83129285D01*
X133470380Y-82748333D01*
X133518000Y-82653095D01*
X133565619Y-82605476D01*
X133660857Y-82557857D01*
X133803714Y-82557857D01*
X133898952Y-82605476D01*
X133946571Y-82653095D01*
X133994190Y-82748333D01*
X133994190Y-83129285D01*
X133470380Y-82224523D02*
X133470380Y-81605476D01*
X133851333Y-81938809D01*
X133851333Y-81795952D01*
X133898952Y-81700714D01*
X133946571Y-81653095D01*
X134041809Y-81605476D01*
X134279904Y-81605476D01*
X134375142Y-81653095D01*
X134422761Y-81700714D01*
X134470380Y-81795952D01*
X134470380Y-82081666D01*
X134422761Y-82176904D01*
X134375142Y-82224523D01*
X133470380Y-80986428D02*
X133470380Y-80891190D01*
X133518000Y-80795952D01*
X133565619Y-80748333D01*
X133660857Y-80700714D01*
X133851333Y-80653095D01*
X134089428Y-80653095D01*
X134279904Y-80700714D01*
X134375142Y-80748333D01*
X134422761Y-80795952D01*
X134470380Y-80891190D01*
X134470380Y-80986428D01*
X134422761Y-81081666D01*
X134375142Y-81129285D01*
X134279904Y-81176904D01*
X134089428Y-81224523D01*
X133851333Y-81224523D01*
X133660857Y-81176904D01*
X133565619Y-81129285D01*
X133518000Y-81081666D01*
X133470380Y-80986428D01*
X137010380Y-82557857D02*
X136534190Y-82891190D01*
X137010380Y-83129285D02*
X136010380Y-83129285D01*
X136010380Y-82748333D01*
X136058000Y-82653095D01*
X136105619Y-82605476D01*
X136200857Y-82557857D01*
X136343714Y-82557857D01*
X136438952Y-82605476D01*
X136486571Y-82653095D01*
X136534190Y-82748333D01*
X136534190Y-83129285D01*
X136010380Y-82224523D02*
X136010380Y-81605476D01*
X136391333Y-81938809D01*
X136391333Y-81795952D01*
X136438952Y-81700714D01*
X136486571Y-81653095D01*
X136581809Y-81605476D01*
X136819904Y-81605476D01*
X136915142Y-81653095D01*
X136962761Y-81700714D01*
X137010380Y-81795952D01*
X137010380Y-82081666D01*
X136962761Y-82176904D01*
X136915142Y-82224523D01*
X137010380Y-80653095D02*
X137010380Y-81224523D01*
X137010380Y-80938809D02*
X136010380Y-80938809D01*
X136153238Y-81034047D01*
X136248476Y-81129285D01*
X136296095Y-81224523D01*
X139550380Y-82557857D02*
X139074190Y-82891190D01*
X139550380Y-83129285D02*
X138550380Y-83129285D01*
X138550380Y-82748333D01*
X138598000Y-82653095D01*
X138645619Y-82605476D01*
X138740857Y-82557857D01*
X138883714Y-82557857D01*
X138978952Y-82605476D01*
X139026571Y-82653095D01*
X139074190Y-82748333D01*
X139074190Y-83129285D01*
X138550380Y-82224523D02*
X138550380Y-81605476D01*
X138931333Y-81938809D01*
X138931333Y-81795952D01*
X138978952Y-81700714D01*
X139026571Y-81653095D01*
X139121809Y-81605476D01*
X139359904Y-81605476D01*
X139455142Y-81653095D01*
X139502761Y-81700714D01*
X139550380Y-81795952D01*
X139550380Y-82081666D01*
X139502761Y-82176904D01*
X139455142Y-82224523D01*
X138645619Y-81224523D02*
X138598000Y-81176904D01*
X138550380Y-81081666D01*
X138550380Y-80843571D01*
X138598000Y-80748333D01*
X138645619Y-80700714D01*
X138740857Y-80653095D01*
X138836095Y-80653095D01*
X138978952Y-80700714D01*
X139550380Y-81272142D01*
X139550380Y-80653095D01*
X142090380Y-82557857D02*
X141614190Y-82891190D01*
X142090380Y-83129285D02*
X141090380Y-83129285D01*
X141090380Y-82748333D01*
X141138000Y-82653095D01*
X141185619Y-82605476D01*
X141280857Y-82557857D01*
X141423714Y-82557857D01*
X141518952Y-82605476D01*
X141566571Y-82653095D01*
X141614190Y-82748333D01*
X141614190Y-83129285D01*
X141090380Y-82224523D02*
X141090380Y-81605476D01*
X141471333Y-81938809D01*
X141471333Y-81795952D01*
X141518952Y-81700714D01*
X141566571Y-81653095D01*
X141661809Y-81605476D01*
X141899904Y-81605476D01*
X141995142Y-81653095D01*
X142042761Y-81700714D01*
X142090380Y-81795952D01*
X142090380Y-82081666D01*
X142042761Y-82176904D01*
X141995142Y-82224523D01*
X141090380Y-81272142D02*
X141090380Y-80653095D01*
X141471333Y-80986428D01*
X141471333Y-80843571D01*
X141518952Y-80748333D01*
X141566571Y-80700714D01*
X141661809Y-80653095D01*
X141899904Y-80653095D01*
X141995142Y-80700714D01*
X142042761Y-80748333D01*
X142090380Y-80843571D01*
X142090380Y-81129285D01*
X142042761Y-81224523D01*
X141995142Y-81272142D01*
X144630380Y-82557857D02*
X144154190Y-82891190D01*
X144630380Y-83129285D02*
X143630380Y-83129285D01*
X143630380Y-82748333D01*
X143678000Y-82653095D01*
X143725619Y-82605476D01*
X143820857Y-82557857D01*
X143963714Y-82557857D01*
X144058952Y-82605476D01*
X144106571Y-82653095D01*
X144154190Y-82748333D01*
X144154190Y-83129285D01*
X143630380Y-82224523D02*
X143630380Y-81605476D01*
X144011333Y-81938809D01*
X144011333Y-81795952D01*
X144058952Y-81700714D01*
X144106571Y-81653095D01*
X144201809Y-81605476D01*
X144439904Y-81605476D01*
X144535142Y-81653095D01*
X144582761Y-81700714D01*
X144630380Y-81795952D01*
X144630380Y-82081666D01*
X144582761Y-82176904D01*
X144535142Y-82224523D01*
X143963714Y-80748333D02*
X144630380Y-80748333D01*
X143582761Y-80986428D02*
X144297047Y-81224523D01*
X144297047Y-80605476D01*
X147170380Y-82557857D02*
X146694190Y-82891190D01*
X147170380Y-83129285D02*
X146170380Y-83129285D01*
X146170380Y-82748333D01*
X146218000Y-82653095D01*
X146265619Y-82605476D01*
X146360857Y-82557857D01*
X146503714Y-82557857D01*
X146598952Y-82605476D01*
X146646571Y-82653095D01*
X146694190Y-82748333D01*
X146694190Y-83129285D01*
X146170380Y-82224523D02*
X146170380Y-81605476D01*
X146551333Y-81938809D01*
X146551333Y-81795952D01*
X146598952Y-81700714D01*
X146646571Y-81653095D01*
X146741809Y-81605476D01*
X146979904Y-81605476D01*
X147075142Y-81653095D01*
X147122761Y-81700714D01*
X147170380Y-81795952D01*
X147170380Y-82081666D01*
X147122761Y-82176904D01*
X147075142Y-82224523D01*
X146170380Y-80700714D02*
X146170380Y-81176904D01*
X146646571Y-81224523D01*
X146598952Y-81176904D01*
X146551333Y-81081666D01*
X146551333Y-80843571D01*
X146598952Y-80748333D01*
X146646571Y-80700714D01*
X146741809Y-80653095D01*
X146979904Y-80653095D01*
X147075142Y-80700714D01*
X147122761Y-80748333D01*
X147170380Y-80843571D01*
X147170380Y-81081666D01*
X147122761Y-81176904D01*
X147075142Y-81224523D01*
X149710380Y-82557857D02*
X149234190Y-82891190D01*
X149710380Y-83129285D02*
X148710380Y-83129285D01*
X148710380Y-82748333D01*
X148758000Y-82653095D01*
X148805619Y-82605476D01*
X148900857Y-82557857D01*
X149043714Y-82557857D01*
X149138952Y-82605476D01*
X149186571Y-82653095D01*
X149234190Y-82748333D01*
X149234190Y-83129285D01*
X148710380Y-82224523D02*
X148710380Y-81605476D01*
X149091333Y-81938809D01*
X149091333Y-81795952D01*
X149138952Y-81700714D01*
X149186571Y-81653095D01*
X149281809Y-81605476D01*
X149519904Y-81605476D01*
X149615142Y-81653095D01*
X149662761Y-81700714D01*
X149710380Y-81795952D01*
X149710380Y-82081666D01*
X149662761Y-82176904D01*
X149615142Y-82224523D01*
X148710380Y-80748333D02*
X148710380Y-80938809D01*
X148758000Y-81034047D01*
X148805619Y-81081666D01*
X148948476Y-81176904D01*
X149138952Y-81224523D01*
X149519904Y-81224523D01*
X149615142Y-81176904D01*
X149662761Y-81129285D01*
X149710380Y-81034047D01*
X149710380Y-80843571D01*
X149662761Y-80748333D01*
X149615142Y-80700714D01*
X149519904Y-80653095D01*
X149281809Y-80653095D01*
X149186571Y-80700714D01*
X149138952Y-80748333D01*
X149091333Y-80843571D01*
X149091333Y-81034047D01*
X149138952Y-81129285D01*
X149186571Y-81176904D01*
X149281809Y-81224523D01*
X152250380Y-82557857D02*
X151774190Y-82891190D01*
X152250380Y-83129285D02*
X151250380Y-83129285D01*
X151250380Y-82748333D01*
X151298000Y-82653095D01*
X151345619Y-82605476D01*
X151440857Y-82557857D01*
X151583714Y-82557857D01*
X151678952Y-82605476D01*
X151726571Y-82653095D01*
X151774190Y-82748333D01*
X151774190Y-83129285D01*
X151250380Y-82224523D02*
X151250380Y-81605476D01*
X151631333Y-81938809D01*
X151631333Y-81795952D01*
X151678952Y-81700714D01*
X151726571Y-81653095D01*
X151821809Y-81605476D01*
X152059904Y-81605476D01*
X152155142Y-81653095D01*
X152202761Y-81700714D01*
X152250380Y-81795952D01*
X152250380Y-82081666D01*
X152202761Y-82176904D01*
X152155142Y-82224523D01*
X151250380Y-81272142D02*
X151250380Y-80605476D01*
X152250380Y-81034047D01*
X154790380Y-82557857D02*
X154314190Y-82891190D01*
X154790380Y-83129285D02*
X153790380Y-83129285D01*
X153790380Y-82748333D01*
X153838000Y-82653095D01*
X153885619Y-82605476D01*
X153980857Y-82557857D01*
X154123714Y-82557857D01*
X154218952Y-82605476D01*
X154266571Y-82653095D01*
X154314190Y-82748333D01*
X154314190Y-83129285D01*
X153790380Y-82224523D02*
X153790380Y-81605476D01*
X154171333Y-81938809D01*
X154171333Y-81795952D01*
X154218952Y-81700714D01*
X154266571Y-81653095D01*
X154361809Y-81605476D01*
X154599904Y-81605476D01*
X154695142Y-81653095D01*
X154742761Y-81700714D01*
X154790380Y-81795952D01*
X154790380Y-82081666D01*
X154742761Y-82176904D01*
X154695142Y-82224523D01*
X154218952Y-81034047D02*
X154171333Y-81129285D01*
X154123714Y-81176904D01*
X154028476Y-81224523D01*
X153980857Y-81224523D01*
X153885619Y-81176904D01*
X153838000Y-81129285D01*
X153790380Y-81034047D01*
X153790380Y-80843571D01*
X153838000Y-80748333D01*
X153885619Y-80700714D01*
X153980857Y-80653095D01*
X154028476Y-80653095D01*
X154123714Y-80700714D01*
X154171333Y-80748333D01*
X154218952Y-80843571D01*
X154218952Y-81034047D01*
X154266571Y-81129285D01*
X154314190Y-81176904D01*
X154409428Y-81224523D01*
X154599904Y-81224523D01*
X154695142Y-81176904D01*
X154742761Y-81129285D01*
X154790380Y-81034047D01*
X154790380Y-80843571D01*
X154742761Y-80748333D01*
X154695142Y-80700714D01*
X154599904Y-80653095D01*
X154409428Y-80653095D01*
X154314190Y-80700714D01*
X154266571Y-80748333D01*
X154218952Y-80843571D01*
X157330380Y-82557857D02*
X156854190Y-82891190D01*
X157330380Y-83129285D02*
X156330380Y-83129285D01*
X156330380Y-82748333D01*
X156378000Y-82653095D01*
X156425619Y-82605476D01*
X156520857Y-82557857D01*
X156663714Y-82557857D01*
X156758952Y-82605476D01*
X156806571Y-82653095D01*
X156854190Y-82748333D01*
X156854190Y-83129285D01*
X156330380Y-82224523D02*
X156330380Y-81605476D01*
X156711333Y-81938809D01*
X156711333Y-81795952D01*
X156758952Y-81700714D01*
X156806571Y-81653095D01*
X156901809Y-81605476D01*
X157139904Y-81605476D01*
X157235142Y-81653095D01*
X157282761Y-81700714D01*
X157330380Y-81795952D01*
X157330380Y-82081666D01*
X157282761Y-82176904D01*
X157235142Y-82224523D01*
X157330380Y-81129285D02*
X157330380Y-80938809D01*
X157282761Y-80843571D01*
X157235142Y-80795952D01*
X157092285Y-80700714D01*
X156901809Y-80653095D01*
X156520857Y-80653095D01*
X156425619Y-80700714D01*
X156378000Y-80748333D01*
X156330380Y-80843571D01*
X156330380Y-81034047D01*
X156378000Y-81129285D01*
X156425619Y-81176904D01*
X156520857Y-81224523D01*
X156758952Y-81224523D01*
X156854190Y-81176904D01*
X156901809Y-81129285D01*
X156949428Y-81034047D01*
X156949428Y-80843571D01*
X156901809Y-80748333D01*
X156854190Y-80700714D01*
X156758952Y-80653095D01*
X159870380Y-82557857D02*
X159394190Y-82891190D01*
X159870380Y-83129285D02*
X158870380Y-83129285D01*
X158870380Y-82748333D01*
X158918000Y-82653095D01*
X158965619Y-82605476D01*
X159060857Y-82557857D01*
X159203714Y-82557857D01*
X159298952Y-82605476D01*
X159346571Y-82653095D01*
X159394190Y-82748333D01*
X159394190Y-83129285D01*
X159203714Y-81700714D02*
X159870380Y-81700714D01*
X158822761Y-81938809D02*
X159537047Y-82176904D01*
X159537047Y-81557857D01*
X158870380Y-80986428D02*
X158870380Y-80891190D01*
X158918000Y-80795952D01*
X158965619Y-80748333D01*
X159060857Y-80700714D01*
X159251333Y-80653095D01*
X159489428Y-80653095D01*
X159679904Y-80700714D01*
X159775142Y-80748333D01*
X159822761Y-80795952D01*
X159870380Y-80891190D01*
X159870380Y-80986428D01*
X159822761Y-81081666D01*
X159775142Y-81129285D01*
X159679904Y-81176904D01*
X159489428Y-81224523D01*
X159251333Y-81224523D01*
X159060857Y-81176904D01*
X158965619Y-81129285D01*
X158918000Y-81081666D01*
X158870380Y-80986428D01*
X162410380Y-82557857D02*
X161934190Y-82891190D01*
X162410380Y-83129285D02*
X161410380Y-83129285D01*
X161410380Y-82748333D01*
X161458000Y-82653095D01*
X161505619Y-82605476D01*
X161600857Y-82557857D01*
X161743714Y-82557857D01*
X161838952Y-82605476D01*
X161886571Y-82653095D01*
X161934190Y-82748333D01*
X161934190Y-83129285D01*
X161743714Y-81700714D02*
X162410380Y-81700714D01*
X161362761Y-81938809D02*
X162077047Y-82176904D01*
X162077047Y-81557857D01*
X162410380Y-80653095D02*
X162410380Y-81224523D01*
X162410380Y-80938809D02*
X161410380Y-80938809D01*
X161553238Y-81034047D01*
X161648476Y-81129285D01*
X161696095Y-81224523D01*
X164950380Y-82557857D02*
X164474190Y-82891190D01*
X164950380Y-83129285D02*
X163950380Y-83129285D01*
X163950380Y-82748333D01*
X163998000Y-82653095D01*
X164045619Y-82605476D01*
X164140857Y-82557857D01*
X164283714Y-82557857D01*
X164378952Y-82605476D01*
X164426571Y-82653095D01*
X164474190Y-82748333D01*
X164474190Y-83129285D01*
X164283714Y-81700714D02*
X164950380Y-81700714D01*
X163902761Y-81938809D02*
X164617047Y-82176904D01*
X164617047Y-81557857D01*
X164045619Y-81224523D02*
X163998000Y-81176904D01*
X163950380Y-81081666D01*
X163950380Y-80843571D01*
X163998000Y-80748333D01*
X164045619Y-80700714D01*
X164140857Y-80653095D01*
X164236095Y-80653095D01*
X164378952Y-80700714D01*
X164950380Y-81272142D01*
X164950380Y-80653095D01*
X138842761Y-109132619D02*
X138747523Y-109085000D01*
X138652285Y-108989761D01*
X138509428Y-108846904D01*
X138414190Y-108799285D01*
X138318952Y-108799285D01*
X138366571Y-109037380D02*
X138271333Y-108989761D01*
X138176095Y-108894523D01*
X138128476Y-108704047D01*
X138128476Y-108370714D01*
X138176095Y-108180238D01*
X138271333Y-108085000D01*
X138366571Y-108037380D01*
X138557047Y-108037380D01*
X138652285Y-108085000D01*
X138747523Y-108180238D01*
X138795142Y-108370714D01*
X138795142Y-108704047D01*
X138747523Y-108894523D01*
X138652285Y-108989761D01*
X138557047Y-109037380D01*
X138366571Y-109037380D01*
X139747523Y-109037380D02*
X139176095Y-109037380D01*
X139461809Y-109037380D02*
X139461809Y-108037380D01*
X139366571Y-108180238D01*
X139271333Y-108275476D01*
X139176095Y-108323095D01*
X134402761Y-120512619D02*
X134307523Y-120465000D01*
X134212285Y-120369761D01*
X134069428Y-120226904D01*
X133974190Y-120179285D01*
X133878952Y-120179285D01*
X133926571Y-120417380D02*
X133831333Y-120369761D01*
X133736095Y-120274523D01*
X133688476Y-120084047D01*
X133688476Y-119750714D01*
X133736095Y-119560238D01*
X133831333Y-119465000D01*
X133926571Y-119417380D01*
X134117047Y-119417380D01*
X134212285Y-119465000D01*
X134307523Y-119560238D01*
X134355142Y-119750714D01*
X134355142Y-120084047D01*
X134307523Y-120274523D01*
X134212285Y-120369761D01*
X134117047Y-120417380D01*
X133926571Y-120417380D01*
X134736095Y-119512619D02*
X134783714Y-119465000D01*
X134878952Y-119417380D01*
X135117047Y-119417380D01*
X135212285Y-119465000D01*
X135259904Y-119512619D01*
X135307523Y-119607857D01*
X135307523Y-119703095D01*
X135259904Y-119845952D01*
X134688476Y-120417380D01*
X135307523Y-120417380D01*
X132492761Y-106592619D02*
X132397523Y-106545000D01*
X132302285Y-106449761D01*
X132159428Y-106306904D01*
X132064190Y-106259285D01*
X131968952Y-106259285D01*
X132016571Y-106497380D02*
X131921333Y-106449761D01*
X131826095Y-106354523D01*
X131778476Y-106164047D01*
X131778476Y-105830714D01*
X131826095Y-105640238D01*
X131921333Y-105545000D01*
X132016571Y-105497380D01*
X132207047Y-105497380D01*
X132302285Y-105545000D01*
X132397523Y-105640238D01*
X132445142Y-105830714D01*
X132445142Y-106164047D01*
X132397523Y-106354523D01*
X132302285Y-106449761D01*
X132207047Y-106497380D01*
X132016571Y-106497380D01*
X132778476Y-105497380D02*
X133397523Y-105497380D01*
X133064190Y-105878333D01*
X133207047Y-105878333D01*
X133302285Y-105925952D01*
X133349904Y-105973571D01*
X133397523Y-106068809D01*
X133397523Y-106306904D01*
X133349904Y-106402142D01*
X133302285Y-106449761D01*
X133207047Y-106497380D01*
X132921333Y-106497380D01*
X132826095Y-106449761D01*
X132778476Y-106402142D01*
X129913312Y-99199450D02*
X129340893Y-99098435D01*
X129509251Y-99603511D02*
X128802145Y-98896404D01*
X129071519Y-98627030D01*
X129172534Y-98593358D01*
X129239877Y-98593358D01*
X129340893Y-98627030D01*
X129441908Y-98728045D01*
X129475580Y-98829061D01*
X129475580Y-98896404D01*
X129441908Y-98997419D01*
X129172534Y-99266793D01*
X129542923Y-98290312D02*
X129542923Y-98222969D01*
X129576595Y-98121954D01*
X129744954Y-97953595D01*
X129845969Y-97919923D01*
X129913312Y-97919923D01*
X130014328Y-97953595D01*
X130081671Y-98020938D01*
X130149015Y-98155625D01*
X130149015Y-98963748D01*
X130586748Y-98526015D01*
X130519404Y-97179145D02*
X130182687Y-97515862D01*
X130485732Y-97886251D01*
X130485732Y-97818908D01*
X130519404Y-97717893D01*
X130687763Y-97549534D01*
X130788778Y-97515862D01*
X130856122Y-97515862D01*
X130957137Y-97549534D01*
X131125496Y-97717893D01*
X131159167Y-97818908D01*
X131159167Y-97886251D01*
X131125496Y-97987267D01*
X130957137Y-98155625D01*
X130856122Y-98189297D01*
X130788778Y-98189297D01*
X129913312Y-96659450D02*
X129340893Y-96558435D01*
X129509251Y-97063511D02*
X128802145Y-96356404D01*
X129071519Y-96087030D01*
X129172534Y-96053358D01*
X129239877Y-96053358D01*
X129340893Y-96087030D01*
X129441908Y-96188045D01*
X129475580Y-96289061D01*
X129475580Y-96356404D01*
X129441908Y-96457419D01*
X129172534Y-96726793D01*
X129542923Y-95750312D02*
X129542923Y-95682969D01*
X129576595Y-95581954D01*
X129744954Y-95413595D01*
X129845969Y-95379923D01*
X129913312Y-95379923D01*
X130014328Y-95413595D01*
X130081671Y-95480938D01*
X130149015Y-95615625D01*
X130149015Y-96423748D01*
X130586748Y-95986015D01*
X130485732Y-94672816D02*
X130351045Y-94807503D01*
X130317374Y-94908519D01*
X130317374Y-94975862D01*
X130351045Y-95144221D01*
X130452061Y-95312580D01*
X130721435Y-95581954D01*
X130822450Y-95615625D01*
X130889793Y-95615625D01*
X130990809Y-95581954D01*
X131125496Y-95447267D01*
X131159167Y-95346251D01*
X131159167Y-95278908D01*
X131125496Y-95177893D01*
X130957137Y-95009534D01*
X130856122Y-94975862D01*
X130788778Y-94975862D01*
X130687763Y-95009534D01*
X130553076Y-95144221D01*
X130519404Y-95245236D01*
X130519404Y-95312580D01*
X130553076Y-95413595D01*
X129913312Y-94119450D02*
X129340893Y-94018435D01*
X129509251Y-94523511D02*
X128802145Y-93816404D01*
X129071519Y-93547030D01*
X129172534Y-93513358D01*
X129239877Y-93513358D01*
X129340893Y-93547030D01*
X129441908Y-93648045D01*
X129475580Y-93749061D01*
X129475580Y-93816404D01*
X129441908Y-93917419D01*
X129172534Y-94186793D01*
X130048000Y-93041954D02*
X130519404Y-93513358D01*
X129610267Y-92940938D02*
X129946984Y-93614374D01*
X130384717Y-93176641D01*
X130115343Y-92503206D02*
X130553076Y-92065473D01*
X130586748Y-92570549D01*
X130687763Y-92469534D01*
X130788778Y-92435862D01*
X130856122Y-92435862D01*
X130957137Y-92469534D01*
X131125496Y-92637893D01*
X131159167Y-92738908D01*
X131159167Y-92806251D01*
X131125496Y-92907267D01*
X130923465Y-93109297D01*
X130822450Y-93142969D01*
X130755106Y-93142969D01*
X129913312Y-91579450D02*
X129340893Y-91478435D01*
X129509251Y-91983511D02*
X128802145Y-91276404D01*
X129071519Y-91007030D01*
X129172534Y-90973358D01*
X129239877Y-90973358D01*
X129340893Y-91007030D01*
X129441908Y-91108045D01*
X129475580Y-91209061D01*
X129475580Y-91276404D01*
X129441908Y-91377419D01*
X129172534Y-91646793D01*
X130048000Y-90501954D02*
X130519404Y-90973358D01*
X129610267Y-90400938D02*
X129946984Y-91074374D01*
X130384717Y-90636641D01*
X130721435Y-89828519D02*
X131192839Y-90299923D01*
X130283702Y-89727503D02*
X130620419Y-90400938D01*
X131058152Y-89963206D01*
X141622642Y-111737380D02*
X141289309Y-111261190D01*
X141051214Y-111737380D02*
X141051214Y-110737380D01*
X141432166Y-110737380D01*
X141527404Y-110785000D01*
X141575023Y-110832619D01*
X141622642Y-110927857D01*
X141622642Y-111070714D01*
X141575023Y-111165952D01*
X141527404Y-111213571D01*
X141432166Y-111261190D01*
X141051214Y-111261190D01*
X142479785Y-111070714D02*
X142479785Y-111737380D01*
X142241690Y-110689761D02*
X142003595Y-111404047D01*
X142622642Y-111404047D01*
X143479785Y-110737380D02*
X143003595Y-110737380D01*
X142955976Y-111213571D01*
X143003595Y-111165952D01*
X143098833Y-111118333D01*
X143336928Y-111118333D01*
X143432166Y-111165952D01*
X143479785Y-111213571D01*
X143527404Y-111308809D01*
X143527404Y-111546904D01*
X143479785Y-111642142D01*
X143432166Y-111689761D01*
X143336928Y-111737380D01*
X143098833Y-111737380D01*
X143003595Y-111689761D01*
X142955976Y-111642142D01*
X139390380Y-116847857D02*
X138914190Y-117181190D01*
X139390380Y-117419285D02*
X138390380Y-117419285D01*
X138390380Y-117038333D01*
X138438000Y-116943095D01*
X138485619Y-116895476D01*
X138580857Y-116847857D01*
X138723714Y-116847857D01*
X138818952Y-116895476D01*
X138866571Y-116943095D01*
X138914190Y-117038333D01*
X138914190Y-117419285D01*
X138723714Y-115990714D02*
X139390380Y-115990714D01*
X138342761Y-116228809D02*
X139057047Y-116466904D01*
X139057047Y-115847857D01*
X138390380Y-115038333D02*
X138390380Y-115228809D01*
X138438000Y-115324047D01*
X138485619Y-115371666D01*
X138628476Y-115466904D01*
X138818952Y-115514523D01*
X139199904Y-115514523D01*
X139295142Y-115466904D01*
X139342761Y-115419285D01*
X139390380Y-115324047D01*
X139390380Y-115133571D01*
X139342761Y-115038333D01*
X139295142Y-114990714D01*
X139199904Y-114943095D01*
X138961809Y-114943095D01*
X138866571Y-114990714D01*
X138818952Y-115038333D01*
X138771333Y-115133571D01*
X138771333Y-115324047D01*
X138818952Y-115419285D01*
X138866571Y-115466904D01*
X138961809Y-115514523D01*
X139565142Y-114117380D02*
X139231809Y-113641190D01*
X138993714Y-114117380D02*
X138993714Y-113117380D01*
X139374666Y-113117380D01*
X139469904Y-113165000D01*
X139517523Y-113212619D01*
X139565142Y-113307857D01*
X139565142Y-113450714D01*
X139517523Y-113545952D01*
X139469904Y-113593571D01*
X139374666Y-113641190D01*
X138993714Y-113641190D01*
X140422285Y-113450714D02*
X140422285Y-114117380D01*
X140184190Y-113069761D02*
X139946095Y-113784047D01*
X140565142Y-113784047D01*
X140850857Y-113117380D02*
X141517523Y-113117380D01*
X141088952Y-114117380D01*
X133040380Y-114307857D02*
X132564190Y-114641190D01*
X133040380Y-114879285D02*
X132040380Y-114879285D01*
X132040380Y-114498333D01*
X132088000Y-114403095D01*
X132135619Y-114355476D01*
X132230857Y-114307857D01*
X132373714Y-114307857D01*
X132468952Y-114355476D01*
X132516571Y-114403095D01*
X132564190Y-114498333D01*
X132564190Y-114879285D01*
X132373714Y-113450714D02*
X133040380Y-113450714D01*
X131992761Y-113688809D02*
X132707047Y-113926904D01*
X132707047Y-113307857D01*
X132468952Y-112784047D02*
X132421333Y-112879285D01*
X132373714Y-112926904D01*
X132278476Y-112974523D01*
X132230857Y-112974523D01*
X132135619Y-112926904D01*
X132088000Y-112879285D01*
X132040380Y-112784047D01*
X132040380Y-112593571D01*
X132088000Y-112498333D01*
X132135619Y-112450714D01*
X132230857Y-112403095D01*
X132278476Y-112403095D01*
X132373714Y-112450714D01*
X132421333Y-112498333D01*
X132468952Y-112593571D01*
X132468952Y-112784047D01*
X132516571Y-112879285D01*
X132564190Y-112926904D01*
X132659428Y-112974523D01*
X132849904Y-112974523D01*
X132945142Y-112926904D01*
X132992761Y-112879285D01*
X133040380Y-112784047D01*
X133040380Y-112593571D01*
X132992761Y-112498333D01*
X132945142Y-112450714D01*
X132849904Y-112403095D01*
X132659428Y-112403095D01*
X132564190Y-112450714D01*
X132516571Y-112498333D01*
X132468952Y-112593571D01*
X135755142Y-109197380D02*
X135421809Y-108721190D01*
X135183714Y-109197380D02*
X135183714Y-108197380D01*
X135564666Y-108197380D01*
X135659904Y-108245000D01*
X135707523Y-108292619D01*
X135755142Y-108387857D01*
X135755142Y-108530714D01*
X135707523Y-108625952D01*
X135659904Y-108673571D01*
X135564666Y-108721190D01*
X135183714Y-108721190D01*
X136612285Y-108530714D02*
X136612285Y-109197380D01*
X136374190Y-108149761D02*
X136136095Y-108864047D01*
X136755142Y-108864047D01*
X137183714Y-109197380D02*
X137374190Y-109197380D01*
X137469428Y-109149761D01*
X137517047Y-109102142D01*
X137612285Y-108959285D01*
X137659904Y-108768809D01*
X137659904Y-108387857D01*
X137612285Y-108292619D01*
X137564666Y-108245000D01*
X137469428Y-108197380D01*
X137278952Y-108197380D01*
X137183714Y-108245000D01*
X137136095Y-108292619D01*
X137088476Y-108387857D01*
X137088476Y-108625952D01*
X137136095Y-108721190D01*
X137183714Y-108768809D01*
X137278952Y-108816428D01*
X137469428Y-108816428D01*
X137564666Y-108768809D01*
X137612285Y-108721190D01*
X137659904Y-108625952D01*
X129299428Y-110342142D02*
X128999428Y-109913571D01*
X128785142Y-110342142D02*
X128785142Y-109442142D01*
X129128000Y-109442142D01*
X129213714Y-109485000D01*
X129256571Y-109527857D01*
X129299428Y-109613571D01*
X129299428Y-109742142D01*
X129256571Y-109827857D01*
X129213714Y-109870714D01*
X129128000Y-109913571D01*
X128785142Y-109913571D01*
X130113714Y-109442142D02*
X129685142Y-109442142D01*
X129642285Y-109870714D01*
X129685142Y-109827857D01*
X129770857Y-109785000D01*
X129985142Y-109785000D01*
X130070857Y-109827857D01*
X130113714Y-109870714D01*
X130156571Y-109956428D01*
X130156571Y-110170714D01*
X130113714Y-110256428D01*
X130070857Y-110299285D01*
X129985142Y-110342142D01*
X129770857Y-110342142D01*
X129685142Y-110299285D01*
X129642285Y-110256428D01*
X130713714Y-109442142D02*
X130799428Y-109442142D01*
X130885142Y-109485000D01*
X130928000Y-109527857D01*
X130970857Y-109613571D01*
X131013714Y-109785000D01*
X131013714Y-109999285D01*
X130970857Y-110170714D01*
X130928000Y-110256428D01*
X130885142Y-110299285D01*
X130799428Y-110342142D01*
X130713714Y-110342142D01*
X130628000Y-110299285D01*
X130585142Y-110256428D01*
X130542285Y-110170714D01*
X130499428Y-109999285D01*
X130499428Y-109785000D01*
X130542285Y-109613571D01*
X130585142Y-109527857D01*
X130628000Y-109485000D01*
X130713714Y-109442142D01*
X135580380Y-114307857D02*
X135104190Y-114641190D01*
X135580380Y-114879285D02*
X134580380Y-114879285D01*
X134580380Y-114498333D01*
X134628000Y-114403095D01*
X134675619Y-114355476D01*
X134770857Y-114307857D01*
X134913714Y-114307857D01*
X135008952Y-114355476D01*
X135056571Y-114403095D01*
X135104190Y-114498333D01*
X135104190Y-114879285D01*
X134580380Y-113403095D02*
X134580380Y-113879285D01*
X135056571Y-113926904D01*
X135008952Y-113879285D01*
X134961333Y-113784047D01*
X134961333Y-113545952D01*
X135008952Y-113450714D01*
X135056571Y-113403095D01*
X135151809Y-113355476D01*
X135389904Y-113355476D01*
X135485142Y-113403095D01*
X135532761Y-113450714D01*
X135580380Y-113545952D01*
X135580380Y-113784047D01*
X135532761Y-113879285D01*
X135485142Y-113926904D01*
X135580380Y-112403095D02*
X135580380Y-112974523D01*
X135580380Y-112688809D02*
X134580380Y-112688809D01*
X134723238Y-112784047D01*
X134818476Y-112879285D01*
X134866095Y-112974523D01*
X126530380Y-111767857D02*
X126054190Y-112101190D01*
X126530380Y-112339285D02*
X125530380Y-112339285D01*
X125530380Y-111958333D01*
X125578000Y-111863095D01*
X125625619Y-111815476D01*
X125720857Y-111767857D01*
X125863714Y-111767857D01*
X125958952Y-111815476D01*
X126006571Y-111863095D01*
X126054190Y-111958333D01*
X126054190Y-112339285D01*
X125530380Y-110863095D02*
X125530380Y-111339285D01*
X126006571Y-111386904D01*
X125958952Y-111339285D01*
X125911333Y-111244047D01*
X125911333Y-111005952D01*
X125958952Y-110910714D01*
X126006571Y-110863095D01*
X126101809Y-110815476D01*
X126339904Y-110815476D01*
X126435142Y-110863095D01*
X126482761Y-110910714D01*
X126530380Y-111005952D01*
X126530380Y-111244047D01*
X126482761Y-111339285D01*
X126435142Y-111386904D01*
X125625619Y-110434523D02*
X125578000Y-110386904D01*
X125530380Y-110291666D01*
X125530380Y-110053571D01*
X125578000Y-109958333D01*
X125625619Y-109910714D01*
X125720857Y-109863095D01*
X125816095Y-109863095D01*
X125958952Y-109910714D01*
X126530380Y-110482142D01*
X126530380Y-109863095D01*
X144777149Y-108983287D02*
X144204730Y-108882272D01*
X144373088Y-109387348D02*
X143665982Y-108680241D01*
X143935356Y-108410867D01*
X144036371Y-108377195D01*
X144103714Y-108377195D01*
X144204730Y-108410867D01*
X144305745Y-108511882D01*
X144339417Y-108612898D01*
X144339417Y-108680241D01*
X144305745Y-108781256D01*
X144036371Y-109050630D01*
X145450585Y-108309852D02*
X145046524Y-108713913D01*
X145248554Y-108511882D02*
X144541447Y-107804775D01*
X144575119Y-107973134D01*
X144575119Y-108107821D01*
X144541447Y-108208837D01*
X146124020Y-107636417D02*
X145719959Y-108040478D01*
X145921989Y-107838447D02*
X145214882Y-107131340D01*
X145248554Y-107299699D01*
X145248554Y-107434386D01*
X145214882Y-107535401D01*
X136690380Y-120657857D02*
X136214190Y-120991190D01*
X136690380Y-121229285D02*
X135690380Y-121229285D01*
X135690380Y-120848333D01*
X135738000Y-120753095D01*
X135785619Y-120705476D01*
X135880857Y-120657857D01*
X136023714Y-120657857D01*
X136118952Y-120705476D01*
X136166571Y-120753095D01*
X136214190Y-120848333D01*
X136214190Y-121229285D01*
X136690380Y-119705476D02*
X136690380Y-120276904D01*
X136690380Y-119991190D02*
X135690380Y-119991190D01*
X135833238Y-120086428D01*
X135928476Y-120181666D01*
X135976095Y-120276904D01*
X135785619Y-119324523D02*
X135738000Y-119276904D01*
X135690380Y-119181666D01*
X135690380Y-118943571D01*
X135738000Y-118848333D01*
X135785619Y-118800714D01*
X135880857Y-118753095D01*
X135976095Y-118753095D01*
X136118952Y-118800714D01*
X136690380Y-119372142D01*
X136690380Y-118753095D01*
X139062149Y-106443287D02*
X138489730Y-106342272D01*
X138658088Y-106847348D02*
X137950982Y-106140241D01*
X138220356Y-105870867D01*
X138321371Y-105837195D01*
X138388714Y-105837195D01*
X138489730Y-105870867D01*
X138590745Y-105971882D01*
X138624417Y-106072898D01*
X138624417Y-106140241D01*
X138590745Y-106241256D01*
X138321371Y-106510630D01*
X139735585Y-105769852D02*
X139331524Y-106173913D01*
X139533554Y-105971882D02*
X138826447Y-105264775D01*
X138860119Y-105433134D01*
X138860119Y-105567821D01*
X138826447Y-105668837D01*
X139264180Y-104827043D02*
X139701913Y-104389310D01*
X139735585Y-104894386D01*
X139836600Y-104793371D01*
X139937615Y-104759699D01*
X140004959Y-104759699D01*
X140105974Y-104793371D01*
X140274333Y-104961730D01*
X140308004Y-105062745D01*
X140308004Y-105130088D01*
X140274333Y-105231104D01*
X140072302Y-105433134D01*
X139971287Y-105466806D01*
X139903943Y-105466806D01*
X128135142Y-107607380D02*
X127801809Y-107131190D01*
X127563714Y-107607380D02*
X127563714Y-106607380D01*
X127944666Y-106607380D01*
X128039904Y-106655000D01*
X128087523Y-106702619D01*
X128135142Y-106797857D01*
X128135142Y-106940714D01*
X128087523Y-107035952D01*
X128039904Y-107083571D01*
X127944666Y-107131190D01*
X127563714Y-107131190D01*
X129087523Y-107607380D02*
X128516095Y-107607380D01*
X128801809Y-107607380D02*
X128801809Y-106607380D01*
X128706571Y-106750238D01*
X128611333Y-106845476D01*
X128516095Y-106893095D01*
X129944666Y-106940714D02*
X129944666Y-107607380D01*
X129706571Y-106559761D02*
X129468476Y-107274047D01*
X130087523Y-107274047D01*
M02*
