G04 #@! TF.GenerationSoftware,KiCad,Pcbnew,5.0.2-bee76a0~70~ubuntu18.04.1*
G04 #@! TF.CreationDate,2019-04-12T14:14:33+02:00*
G04 #@! TF.ProjectId,KiCad_Shield,4b694361-645f-4536-9869-656c642e6b69,rev?*
G04 #@! TF.SameCoordinates,Original*
G04 #@! TF.FileFunction,Glue,Top*
G04 #@! TF.FilePolarity,Positive*
%FSLAX46Y46*%
G04 Gerber Fmt 4.6, Leading zero omitted, Abs format (unit mm)*
G04 Created by KiCad (PCBNEW 5.0.2-bee76a0~70~ubuntu18.04.1) date Fr 12 Apr 2019 14:14:33 CEST*
%MOMM*%
%LPD*%
G01*
G04 APERTURE LIST*
%ADD10C,0.300000*%
G04 APERTURE END LIST*
D10*
X138725142Y-119423571D02*
X138725142Y-117923571D01*
X139225142Y-118995000D01*
X139725142Y-117923571D01*
X139725142Y-119423571D01*
X141082285Y-119423571D02*
X141082285Y-118637857D01*
X141010857Y-118495000D01*
X140868000Y-118423571D01*
X140582285Y-118423571D01*
X140439428Y-118495000D01*
X141082285Y-119352142D02*
X140939428Y-119423571D01*
X140582285Y-119423571D01*
X140439428Y-119352142D01*
X140368000Y-119209285D01*
X140368000Y-119066428D01*
X140439428Y-118923571D01*
X140582285Y-118852142D01*
X140939428Y-118852142D01*
X141082285Y-118780714D01*
X141582285Y-118423571D02*
X142153714Y-118423571D01*
X141796571Y-117923571D02*
X141796571Y-119209285D01*
X141868000Y-119352142D01*
X142010857Y-119423571D01*
X142153714Y-119423571D01*
X142439428Y-118423571D02*
X143010857Y-118423571D01*
X142653714Y-117923571D02*
X142653714Y-119209285D01*
X142725142Y-119352142D01*
X142868000Y-119423571D01*
X143010857Y-119423571D01*
X143510857Y-119423571D02*
X143510857Y-117923571D01*
X144153714Y-119423571D02*
X144153714Y-118637857D01*
X144082285Y-118495000D01*
X143939428Y-118423571D01*
X143725142Y-118423571D01*
X143582285Y-118495000D01*
X143510857Y-118566428D01*
X144868000Y-119423571D02*
X144868000Y-118423571D01*
X144868000Y-117923571D02*
X144796571Y-117995000D01*
X144868000Y-118066428D01*
X144939428Y-117995000D01*
X144868000Y-117923571D01*
X144868000Y-118066428D01*
X146225142Y-119423571D02*
X146225142Y-118637857D01*
X146153714Y-118495000D01*
X146010857Y-118423571D01*
X145725142Y-118423571D01*
X145582285Y-118495000D01*
X146225142Y-119352142D02*
X146082285Y-119423571D01*
X145725142Y-119423571D01*
X145582285Y-119352142D01*
X145510857Y-119209285D01*
X145510857Y-119066428D01*
X145582285Y-118923571D01*
X145725142Y-118852142D01*
X146082285Y-118852142D01*
X146225142Y-118780714D01*
X146868000Y-119352142D02*
X147010857Y-119423571D01*
X147296571Y-119423571D01*
X147439428Y-119352142D01*
X147510857Y-119209285D01*
X147510857Y-119137857D01*
X147439428Y-118995000D01*
X147296571Y-118923571D01*
X147082285Y-118923571D01*
X146939428Y-118852142D01*
X146868000Y-118709285D01*
X146868000Y-118637857D01*
X146939428Y-118495000D01*
X147082285Y-118423571D01*
X147296571Y-118423571D01*
X147439428Y-118495000D01*
X149296571Y-119423571D02*
X149296571Y-117923571D01*
X150153714Y-119423571D01*
X150153714Y-117923571D01*
X150868000Y-119423571D02*
X150868000Y-118423571D01*
X150868000Y-117923571D02*
X150796571Y-117995000D01*
X150868000Y-118066428D01*
X150939428Y-117995000D01*
X150868000Y-117923571D01*
X150868000Y-118066428D01*
X152153714Y-119352142D02*
X152010857Y-119423571D01*
X151725142Y-119423571D01*
X151582285Y-119352142D01*
X151510857Y-119209285D01*
X151510857Y-118637857D01*
X151582285Y-118495000D01*
X151725142Y-118423571D01*
X152010857Y-118423571D01*
X152153714Y-118495000D01*
X152225142Y-118637857D01*
X152225142Y-118780714D01*
X151510857Y-118923571D01*
X153510857Y-119423571D02*
X153510857Y-117923571D01*
X153510857Y-119352142D02*
X153368000Y-119423571D01*
X153082285Y-119423571D01*
X152939428Y-119352142D01*
X152868000Y-119280714D01*
X152796571Y-119137857D01*
X152796571Y-118709285D01*
X152868000Y-118566428D01*
X152939428Y-118495000D01*
X153082285Y-118423571D01*
X153368000Y-118423571D01*
X153510857Y-118495000D01*
X154796571Y-119352142D02*
X154653714Y-119423571D01*
X154368000Y-119423571D01*
X154225142Y-119352142D01*
X154153714Y-119209285D01*
X154153714Y-118637857D01*
X154225142Y-118495000D01*
X154368000Y-118423571D01*
X154653714Y-118423571D01*
X154796571Y-118495000D01*
X154868000Y-118637857D01*
X154868000Y-118780714D01*
X154153714Y-118923571D01*
X155510857Y-119423571D02*
X155510857Y-118423571D01*
X155510857Y-118709285D02*
X155582285Y-118566428D01*
X155653714Y-118495000D01*
X155796571Y-118423571D01*
X155939428Y-118423571D01*
X156439428Y-119423571D02*
X156439428Y-118423571D01*
X156439428Y-118566428D02*
X156510857Y-118495000D01*
X156653714Y-118423571D01*
X156868000Y-118423571D01*
X157010857Y-118495000D01*
X157082285Y-118637857D01*
X157082285Y-119423571D01*
X157082285Y-118637857D02*
X157153714Y-118495000D01*
X157296571Y-118423571D01*
X157510857Y-118423571D01*
X157653714Y-118495000D01*
X157725142Y-118637857D01*
X157725142Y-119423571D01*
X159082285Y-119423571D02*
X159082285Y-118637857D01*
X159010857Y-118495000D01*
X158868000Y-118423571D01*
X158582285Y-118423571D01*
X158439428Y-118495000D01*
X159082285Y-119352142D02*
X158939428Y-119423571D01*
X158582285Y-119423571D01*
X158439428Y-119352142D01*
X158368000Y-119209285D01*
X158368000Y-119066428D01*
X158439428Y-118923571D01*
X158582285Y-118852142D01*
X158939428Y-118852142D01*
X159082285Y-118780714D01*
X159796571Y-119423571D02*
X159796571Y-118423571D01*
X159796571Y-117923571D02*
X159725142Y-117995000D01*
X159796571Y-118066428D01*
X159868000Y-117995000D01*
X159796571Y-117923571D01*
X159796571Y-118066428D01*
X161082285Y-119352142D02*
X160939428Y-119423571D01*
X160653714Y-119423571D01*
X160510857Y-119352142D01*
X160439428Y-119209285D01*
X160439428Y-118637857D01*
X160510857Y-118495000D01*
X160653714Y-118423571D01*
X160939428Y-118423571D01*
X161082285Y-118495000D01*
X161153714Y-118637857D01*
X161153714Y-118780714D01*
X160439428Y-118923571D01*
X161796571Y-119423571D02*
X161796571Y-118423571D01*
X161796571Y-118709285D02*
X161868000Y-118566428D01*
X161939428Y-118495000D01*
X162082285Y-118423571D01*
X162225142Y-118423571D01*
X158385142Y-113343571D02*
X158742285Y-114343571D01*
X159099428Y-113343571D01*
X160456571Y-114343571D02*
X159599428Y-114343571D01*
X160028000Y-114343571D02*
X160028000Y-112843571D01*
X159885142Y-113057857D01*
X159742285Y-113200714D01*
X159599428Y-113272142D01*
X161099428Y-114200714D02*
X161170857Y-114272142D01*
X161099428Y-114343571D01*
X161028000Y-114272142D01*
X161099428Y-114200714D01*
X161099428Y-114343571D01*
X162528000Y-112843571D02*
X161813714Y-112843571D01*
X161742285Y-113557857D01*
X161813714Y-113486428D01*
X161956571Y-113415000D01*
X162313714Y-113415000D01*
X162456571Y-113486428D01*
X162528000Y-113557857D01*
X162599428Y-113700714D01*
X162599428Y-114057857D01*
X162528000Y-114200714D01*
X162456571Y-114272142D01*
X162313714Y-114343571D01*
X161956571Y-114343571D01*
X161813714Y-114272142D01*
X161742285Y-114200714D01*
X143740857Y-114343571D02*
X143740857Y-112843571D01*
X143740857Y-113557857D02*
X144598000Y-113557857D01*
X144598000Y-114343571D02*
X144598000Y-112843571D01*
X145240857Y-114272142D02*
X145455142Y-114343571D01*
X145812285Y-114343571D01*
X145955142Y-114272142D01*
X146026571Y-114200714D01*
X146098000Y-114057857D01*
X146098000Y-113915000D01*
X146026571Y-113772142D01*
X145955142Y-113700714D01*
X145812285Y-113629285D01*
X145526571Y-113557857D01*
X145383714Y-113486428D01*
X145312285Y-113415000D01*
X145240857Y-113272142D01*
X145240857Y-113129285D01*
X145312285Y-112986428D01*
X145383714Y-112915000D01*
X145526571Y-112843571D01*
X145883714Y-112843571D01*
X146098000Y-112915000D01*
X146669428Y-113915000D02*
X147383714Y-113915000D01*
X146526571Y-114343571D02*
X147026571Y-112843571D01*
X147526571Y-114343571D01*
X147669428Y-114486428D02*
X148812285Y-114486428D01*
X149169428Y-114343571D02*
X149169428Y-113343571D01*
X149169428Y-112843571D02*
X149098000Y-112915000D01*
X149169428Y-112986428D01*
X149240857Y-112915000D01*
X149169428Y-112843571D01*
X149169428Y-112986428D01*
X149883714Y-113343571D02*
X149883714Y-114343571D01*
X149883714Y-113486428D02*
X149955142Y-113415000D01*
X150098000Y-113343571D01*
X150312285Y-113343571D01*
X150455142Y-113415000D01*
X150526571Y-113557857D01*
X150526571Y-114343571D01*
X151240857Y-113343571D02*
X151240857Y-114343571D01*
X151240857Y-113486428D02*
X151312285Y-113415000D01*
X151455142Y-113343571D01*
X151669428Y-113343571D01*
X151812285Y-113415000D01*
X151883714Y-113557857D01*
X151883714Y-114343571D01*
X152812285Y-114343571D02*
X152669428Y-114272142D01*
X152598000Y-114200714D01*
X152526571Y-114057857D01*
X152526571Y-113629285D01*
X152598000Y-113486428D01*
X152669428Y-113415000D01*
X152812285Y-113343571D01*
X153026571Y-113343571D01*
X153169428Y-113415000D01*
X153240857Y-113486428D01*
X153312285Y-113629285D01*
X153312285Y-114057857D01*
X153240857Y-114200714D01*
X153169428Y-114272142D01*
X153026571Y-114343571D01*
X152812285Y-114343571D01*
X153883714Y-114272142D02*
X154026571Y-114343571D01*
X154312285Y-114343571D01*
X154455142Y-114272142D01*
X154526571Y-114129285D01*
X154526571Y-114057857D01*
X154455142Y-113915000D01*
X154312285Y-113843571D01*
X154098000Y-113843571D01*
X153955142Y-113772142D01*
X153883714Y-113629285D01*
X153883714Y-113557857D01*
X153955142Y-113415000D01*
X154098000Y-113343571D01*
X154312285Y-113343571D01*
X154455142Y-113415000D01*
M02*
